G04 #@! TF.GenerationSoftware,KiCad,Pcbnew,(5.1.4)-1*
G04 #@! TF.CreationDate,2020-04-17T22:20:21+02:00*
G04 #@! TF.ProjectId,Frontplatte,46726f6e-7470-46c6-9174-74652e6b6963,rev?*
G04 #@! TF.SameCoordinates,Original*
G04 #@! TF.FileFunction,Paste,Top*
G04 #@! TF.FilePolarity,Positive*
%FSLAX46Y46*%
G04 Gerber Fmt 4.6, Leading zero omitted, Abs format (unit mm)*
G04 Created by KiCad (PCBNEW (5.1.4)-1) date 2020-04-17 22:20:21*
%MOMM*%
%LPD*%
G04 APERTURE LIST*
%ADD10C,0.500000*%
%ADD11C,0.100000*%
%ADD12R,1.000000X3.150000*%
%ADD13C,0.950000*%
G04 APERTURE END LIST*
D10*
X128620000Y-53100000D03*
D11*
G36*
X128870080Y-51740001D02*
G01*
X128870140Y-51740001D01*
X128870619Y-51740031D01*
X128871045Y-51740055D01*
X128871074Y-51740059D01*
X128871115Y-51740062D01*
X128871556Y-51740134D01*
X128872011Y-51740204D01*
X128872053Y-51740215D01*
X128872079Y-51740219D01*
X128872452Y-51740317D01*
X128872957Y-51740447D01*
X128872990Y-51740459D01*
X128873024Y-51740468D01*
X128873406Y-51740610D01*
X128873875Y-51740781D01*
X128873914Y-51740800D01*
X128873939Y-51740809D01*
X128874341Y-51741005D01*
X128874756Y-51741204D01*
X128874780Y-51741218D01*
X128874818Y-51741237D01*
X128875265Y-51741512D01*
X128875592Y-51741710D01*
X128875617Y-51741729D01*
X128875650Y-51741749D01*
X128876025Y-51742034D01*
X128876374Y-51742295D01*
X128876400Y-51742319D01*
X128876428Y-51742340D01*
X128876787Y-51742672D01*
X128877096Y-51742954D01*
X128877116Y-51742976D01*
X128877145Y-51743003D01*
X128877465Y-51743364D01*
X128877749Y-51743680D01*
X128877768Y-51743706D01*
X128877793Y-51743734D01*
X128878093Y-51744147D01*
X128878329Y-51744466D01*
X128878344Y-51744490D01*
X128878368Y-51744524D01*
X128878629Y-51744970D01*
X128878829Y-51745305D01*
X128878843Y-51745334D01*
X128878862Y-51745367D01*
X128879066Y-51745809D01*
X128879245Y-51746189D01*
X128879255Y-51746218D01*
X128879272Y-51746254D01*
X128879411Y-51746655D01*
X128879573Y-51747110D01*
X128879581Y-51747144D01*
X128879593Y-51747177D01*
X128879696Y-51747602D01*
X128879810Y-51748058D01*
X128879815Y-51748094D01*
X128879823Y-51748126D01*
X128879888Y-51748588D01*
X128879952Y-51749024D01*
X128879954Y-51749055D01*
X128879959Y-51749094D01*
X128879977Y-51749530D01*
X128880000Y-51750000D01*
X128880000Y-53350000D01*
X128879999Y-53350140D01*
X128879972Y-53350566D01*
X128879945Y-53351045D01*
X128879941Y-53351074D01*
X128879938Y-53351115D01*
X128879866Y-53351556D01*
X128879796Y-53352011D01*
X128879785Y-53352053D01*
X128879781Y-53352079D01*
X128879683Y-53352452D01*
X128879553Y-53352957D01*
X128879541Y-53352990D01*
X128879532Y-53353024D01*
X128879390Y-53353406D01*
X128879219Y-53353875D01*
X128879202Y-53353910D01*
X128879191Y-53353939D01*
X128878995Y-53354341D01*
X128878796Y-53354756D01*
X128878782Y-53354780D01*
X128878763Y-53354818D01*
X128878488Y-53355265D01*
X128878290Y-53355592D01*
X128878271Y-53355617D01*
X128878251Y-53355650D01*
X128877963Y-53356030D01*
X128877705Y-53356374D01*
X128877681Y-53356400D01*
X128877660Y-53356428D01*
X128877328Y-53356787D01*
X128877046Y-53357096D01*
X128877024Y-53357116D01*
X128876997Y-53357145D01*
X128876646Y-53357456D01*
X128876320Y-53357749D01*
X128876294Y-53357768D01*
X128876266Y-53357793D01*
X128875853Y-53358093D01*
X128875534Y-53358329D01*
X128875510Y-53358344D01*
X128875476Y-53358368D01*
X128875030Y-53358629D01*
X128874695Y-53358829D01*
X128874666Y-53358843D01*
X128874633Y-53358862D01*
X128874175Y-53359074D01*
X128873811Y-53359245D01*
X128873782Y-53359255D01*
X128873746Y-53359272D01*
X128873285Y-53359432D01*
X128872890Y-53359573D01*
X128872856Y-53359581D01*
X128872823Y-53359593D01*
X128872398Y-53359696D01*
X128871942Y-53359810D01*
X128871906Y-53359815D01*
X128871874Y-53359823D01*
X128871412Y-53359888D01*
X128870976Y-53359952D01*
X128870945Y-53359954D01*
X128870906Y-53359959D01*
X128870410Y-53359980D01*
X128870000Y-53360000D01*
X128073674Y-53360000D01*
X128073029Y-53360298D01*
X128072106Y-53360618D01*
X128071157Y-53360848D01*
X128070189Y-53360983D01*
X128069213Y-53361024D01*
X128068237Y-53360969D01*
X128067272Y-53360819D01*
X128066325Y-53360575D01*
X128065408Y-53360241D01*
X128064527Y-53359818D01*
X128063691Y-53359312D01*
X128062910Y-53358726D01*
X128062188Y-53358067D01*
X128061535Y-53357341D01*
X128060955Y-53356555D01*
X128060456Y-53355715D01*
X128060040Y-53354830D01*
X128059713Y-53353910D01*
X128059477Y-53352962D01*
X128059335Y-53351995D01*
X128059287Y-53351020D01*
X128059335Y-53350044D01*
X128059479Y-53349078D01*
X128059715Y-53348129D01*
X128060043Y-53347209D01*
X128060460Y-53346326D01*
X128060960Y-53345486D01*
X128094613Y-53294883D01*
X128161751Y-53176582D01*
X128216967Y-53052420D01*
X128259805Y-52923457D01*
X128289853Y-52790937D01*
X128306828Y-52656109D01*
X128310000Y-52540767D01*
X128310000Y-52512266D01*
X128301026Y-52384723D01*
X128278307Y-52250750D01*
X128242623Y-52119632D01*
X128194313Y-51992617D01*
X128133842Y-51870928D01*
X128061522Y-51755303D01*
X128061448Y-51755184D01*
X128061292Y-51754896D01*
X128061138Y-51754633D01*
X128061069Y-51754485D01*
X128060983Y-51754325D01*
X128060859Y-51754029D01*
X128060728Y-51753746D01*
X128060669Y-51753578D01*
X128060605Y-51753424D01*
X128060512Y-51753126D01*
X128060407Y-51752823D01*
X128060367Y-51752660D01*
X128060315Y-51752491D01*
X128060252Y-51752184D01*
X128060177Y-51751874D01*
X128060152Y-51751693D01*
X128060119Y-51751534D01*
X128060088Y-51751238D01*
X128060041Y-51750906D01*
X128060033Y-51750727D01*
X128060016Y-51750562D01*
X128060014Y-51750259D01*
X128060000Y-51749930D01*
X128060010Y-51749750D01*
X128060009Y-51749585D01*
X128060037Y-51749278D01*
X128060055Y-51748955D01*
X128060082Y-51748783D01*
X128060097Y-51748612D01*
X128060155Y-51748305D01*
X128060204Y-51747989D01*
X128060247Y-51747822D01*
X128060279Y-51747653D01*
X128060367Y-51747353D01*
X128060447Y-51747043D01*
X128060508Y-51746874D01*
X128060555Y-51746716D01*
X128060671Y-51746428D01*
X128060781Y-51746125D01*
X128060854Y-51745973D01*
X128060920Y-51745809D01*
X128061075Y-51745513D01*
X128061204Y-51745244D01*
X128061289Y-51745103D01*
X128061373Y-51744943D01*
X128061554Y-51744666D01*
X128061710Y-51744408D01*
X128061806Y-51744279D01*
X128061907Y-51744125D01*
X128062113Y-51743869D01*
X128062295Y-51743626D01*
X128062414Y-51743496D01*
X128062520Y-51743364D01*
X128062735Y-51743144D01*
X128062954Y-51742904D01*
X128063082Y-51742789D01*
X128063202Y-51742666D01*
X128063452Y-51742456D01*
X128063680Y-51742251D01*
X128063813Y-51742153D01*
X128063951Y-51742037D01*
X128064215Y-51741856D01*
X128064466Y-51741671D01*
X128064616Y-51741582D01*
X128064757Y-51741485D01*
X128065036Y-51741331D01*
X128065305Y-51741171D01*
X128065456Y-51741100D01*
X128065612Y-51741014D01*
X128065920Y-51740882D01*
X128066189Y-51740755D01*
X128066338Y-51740702D01*
X128066510Y-51740628D01*
X128066833Y-51740526D01*
X128067110Y-51740427D01*
X128067273Y-51740386D01*
X128067441Y-51740333D01*
X128067748Y-51740267D01*
X128068058Y-51740190D01*
X128068229Y-51740165D01*
X128068397Y-51740129D01*
X128068709Y-51740094D01*
X128069024Y-51740048D01*
X128069206Y-51740039D01*
X128069368Y-51740021D01*
X128069666Y-51740016D01*
X128070000Y-51740000D01*
X128870070Y-51740000D01*
X128870080Y-51740001D01*
X128870080Y-51740001D01*
G37*
D10*
X125000000Y-52000000D03*
D11*
G36*
X124749920Y-53359999D02*
G01*
X124749860Y-53359999D01*
X124749381Y-53359969D01*
X124748955Y-53359945D01*
X124748926Y-53359941D01*
X124748885Y-53359938D01*
X124748444Y-53359866D01*
X124747989Y-53359796D01*
X124747947Y-53359785D01*
X124747921Y-53359781D01*
X124747548Y-53359683D01*
X124747043Y-53359553D01*
X124747010Y-53359541D01*
X124746976Y-53359532D01*
X124746594Y-53359390D01*
X124746125Y-53359219D01*
X124746086Y-53359200D01*
X124746061Y-53359191D01*
X124745659Y-53358995D01*
X124745244Y-53358796D01*
X124745220Y-53358782D01*
X124745182Y-53358763D01*
X124744735Y-53358488D01*
X124744408Y-53358290D01*
X124744383Y-53358271D01*
X124744350Y-53358251D01*
X124743975Y-53357966D01*
X124743626Y-53357705D01*
X124743600Y-53357681D01*
X124743572Y-53357660D01*
X124743213Y-53357328D01*
X124742904Y-53357046D01*
X124742884Y-53357024D01*
X124742855Y-53356997D01*
X124742535Y-53356636D01*
X124742251Y-53356320D01*
X124742232Y-53356294D01*
X124742207Y-53356266D01*
X124741907Y-53355853D01*
X124741671Y-53355534D01*
X124741656Y-53355510D01*
X124741632Y-53355476D01*
X124741371Y-53355030D01*
X124741171Y-53354695D01*
X124741157Y-53354666D01*
X124741138Y-53354633D01*
X124740934Y-53354191D01*
X124740755Y-53353811D01*
X124740745Y-53353782D01*
X124740728Y-53353746D01*
X124740589Y-53353345D01*
X124740427Y-53352890D01*
X124740419Y-53352856D01*
X124740407Y-53352823D01*
X124740304Y-53352398D01*
X124740190Y-53351942D01*
X124740185Y-53351906D01*
X124740177Y-53351874D01*
X124740112Y-53351412D01*
X124740048Y-53350976D01*
X124740046Y-53350945D01*
X124740041Y-53350906D01*
X124740023Y-53350470D01*
X124740000Y-53350000D01*
X124740000Y-51750000D01*
X124740001Y-51749860D01*
X124740028Y-51749434D01*
X124740055Y-51748955D01*
X124740059Y-51748926D01*
X124740062Y-51748885D01*
X124740134Y-51748444D01*
X124740204Y-51747989D01*
X124740215Y-51747947D01*
X124740219Y-51747921D01*
X124740317Y-51747548D01*
X124740447Y-51747043D01*
X124740459Y-51747010D01*
X124740468Y-51746976D01*
X124740610Y-51746594D01*
X124740781Y-51746125D01*
X124740798Y-51746090D01*
X124740809Y-51746061D01*
X124741005Y-51745659D01*
X124741204Y-51745244D01*
X124741218Y-51745220D01*
X124741237Y-51745182D01*
X124741512Y-51744735D01*
X124741710Y-51744408D01*
X124741729Y-51744383D01*
X124741749Y-51744350D01*
X124742037Y-51743970D01*
X124742295Y-51743626D01*
X124742319Y-51743600D01*
X124742340Y-51743572D01*
X124742672Y-51743213D01*
X124742954Y-51742904D01*
X124742976Y-51742884D01*
X124743003Y-51742855D01*
X124743354Y-51742544D01*
X124743680Y-51742251D01*
X124743706Y-51742232D01*
X124743734Y-51742207D01*
X124744147Y-51741907D01*
X124744466Y-51741671D01*
X124744490Y-51741656D01*
X124744524Y-51741632D01*
X124744970Y-51741371D01*
X124745305Y-51741171D01*
X124745334Y-51741157D01*
X124745367Y-51741138D01*
X124745825Y-51740926D01*
X124746189Y-51740755D01*
X124746218Y-51740745D01*
X124746254Y-51740728D01*
X124746715Y-51740568D01*
X124747110Y-51740427D01*
X124747144Y-51740419D01*
X124747177Y-51740407D01*
X124747602Y-51740304D01*
X124748058Y-51740190D01*
X124748094Y-51740185D01*
X124748126Y-51740177D01*
X124748588Y-51740112D01*
X124749024Y-51740048D01*
X124749055Y-51740046D01*
X124749094Y-51740041D01*
X124749590Y-51740020D01*
X124750000Y-51740000D01*
X125546326Y-51740000D01*
X125546971Y-51739702D01*
X125547894Y-51739382D01*
X125548843Y-51739152D01*
X125549811Y-51739017D01*
X125550787Y-51738976D01*
X125551763Y-51739031D01*
X125552728Y-51739181D01*
X125553675Y-51739425D01*
X125554592Y-51739759D01*
X125555473Y-51740182D01*
X125556309Y-51740688D01*
X125557090Y-51741274D01*
X125557812Y-51741933D01*
X125558465Y-51742659D01*
X125559045Y-51743445D01*
X125559544Y-51744285D01*
X125559960Y-51745170D01*
X125560287Y-51746090D01*
X125560523Y-51747038D01*
X125560665Y-51748005D01*
X125560713Y-51748980D01*
X125560665Y-51749956D01*
X125560521Y-51750922D01*
X125560285Y-51751871D01*
X125559957Y-51752791D01*
X125559540Y-51753674D01*
X125559040Y-51754514D01*
X125525387Y-51805117D01*
X125458249Y-51923418D01*
X125403033Y-52047580D01*
X125360195Y-52176543D01*
X125330147Y-52309063D01*
X125313172Y-52443891D01*
X125310000Y-52559233D01*
X125310000Y-52587734D01*
X125318974Y-52715277D01*
X125341693Y-52849250D01*
X125377377Y-52980368D01*
X125425687Y-53107383D01*
X125486158Y-53229072D01*
X125558478Y-53344697D01*
X125558552Y-53344816D01*
X125558708Y-53345104D01*
X125558862Y-53345367D01*
X125558931Y-53345515D01*
X125559017Y-53345675D01*
X125559141Y-53345971D01*
X125559272Y-53346254D01*
X125559331Y-53346422D01*
X125559395Y-53346576D01*
X125559488Y-53346874D01*
X125559593Y-53347177D01*
X125559633Y-53347340D01*
X125559685Y-53347509D01*
X125559748Y-53347816D01*
X125559823Y-53348126D01*
X125559848Y-53348307D01*
X125559881Y-53348466D01*
X125559912Y-53348762D01*
X125559959Y-53349094D01*
X125559967Y-53349273D01*
X125559984Y-53349438D01*
X125559986Y-53349741D01*
X125560000Y-53350070D01*
X125559990Y-53350250D01*
X125559991Y-53350415D01*
X125559963Y-53350722D01*
X125559945Y-53351045D01*
X125559918Y-53351217D01*
X125559903Y-53351388D01*
X125559845Y-53351695D01*
X125559796Y-53352011D01*
X125559753Y-53352178D01*
X125559721Y-53352347D01*
X125559633Y-53352647D01*
X125559553Y-53352957D01*
X125559492Y-53353126D01*
X125559445Y-53353284D01*
X125559329Y-53353572D01*
X125559219Y-53353875D01*
X125559146Y-53354027D01*
X125559080Y-53354191D01*
X125558925Y-53354487D01*
X125558796Y-53354756D01*
X125558711Y-53354897D01*
X125558627Y-53355057D01*
X125558446Y-53355334D01*
X125558290Y-53355592D01*
X125558194Y-53355721D01*
X125558093Y-53355875D01*
X125557887Y-53356131D01*
X125557705Y-53356374D01*
X125557586Y-53356504D01*
X125557480Y-53356636D01*
X125557265Y-53356856D01*
X125557046Y-53357096D01*
X125556918Y-53357211D01*
X125556798Y-53357334D01*
X125556548Y-53357544D01*
X125556320Y-53357749D01*
X125556187Y-53357847D01*
X125556049Y-53357963D01*
X125555785Y-53358144D01*
X125555534Y-53358329D01*
X125555384Y-53358418D01*
X125555243Y-53358515D01*
X125554964Y-53358669D01*
X125554695Y-53358829D01*
X125554544Y-53358900D01*
X125554388Y-53358986D01*
X125554080Y-53359118D01*
X125553811Y-53359245D01*
X125553662Y-53359298D01*
X125553490Y-53359372D01*
X125553167Y-53359474D01*
X125552890Y-53359573D01*
X125552727Y-53359614D01*
X125552559Y-53359667D01*
X125552252Y-53359733D01*
X125551942Y-53359810D01*
X125551771Y-53359835D01*
X125551603Y-53359871D01*
X125551291Y-53359906D01*
X125550976Y-53359952D01*
X125550794Y-53359961D01*
X125550632Y-53359979D01*
X125550334Y-53359984D01*
X125550000Y-53360000D01*
X124749930Y-53360000D01*
X124749920Y-53359999D01*
X124749920Y-53359999D01*
G37*
D10*
X125190000Y-66950000D03*
D11*
G36*
X124939920Y-68309999D02*
G01*
X124939860Y-68309999D01*
X124939381Y-68309969D01*
X124938955Y-68309945D01*
X124938926Y-68309941D01*
X124938885Y-68309938D01*
X124938444Y-68309866D01*
X124937989Y-68309796D01*
X124937947Y-68309785D01*
X124937921Y-68309781D01*
X124937548Y-68309683D01*
X124937043Y-68309553D01*
X124937010Y-68309541D01*
X124936976Y-68309532D01*
X124936594Y-68309390D01*
X124936125Y-68309219D01*
X124936086Y-68309200D01*
X124936061Y-68309191D01*
X124935659Y-68308995D01*
X124935244Y-68308796D01*
X124935220Y-68308782D01*
X124935182Y-68308763D01*
X124934735Y-68308488D01*
X124934408Y-68308290D01*
X124934383Y-68308271D01*
X124934350Y-68308251D01*
X124933975Y-68307966D01*
X124933626Y-68307705D01*
X124933600Y-68307681D01*
X124933572Y-68307660D01*
X124933213Y-68307328D01*
X124932904Y-68307046D01*
X124932884Y-68307024D01*
X124932855Y-68306997D01*
X124932535Y-68306636D01*
X124932251Y-68306320D01*
X124932232Y-68306294D01*
X124932207Y-68306266D01*
X124931907Y-68305853D01*
X124931671Y-68305534D01*
X124931656Y-68305510D01*
X124931632Y-68305476D01*
X124931371Y-68305030D01*
X124931171Y-68304695D01*
X124931157Y-68304666D01*
X124931138Y-68304633D01*
X124930934Y-68304191D01*
X124930755Y-68303811D01*
X124930745Y-68303782D01*
X124930728Y-68303746D01*
X124930589Y-68303345D01*
X124930427Y-68302890D01*
X124930419Y-68302856D01*
X124930407Y-68302823D01*
X124930304Y-68302398D01*
X124930190Y-68301942D01*
X124930185Y-68301906D01*
X124930177Y-68301874D01*
X124930112Y-68301412D01*
X124930048Y-68300976D01*
X124930046Y-68300945D01*
X124930041Y-68300906D01*
X124930023Y-68300470D01*
X124930000Y-68300000D01*
X124930000Y-66700000D01*
X124930001Y-66699860D01*
X124930028Y-66699434D01*
X124930055Y-66698955D01*
X124930059Y-66698926D01*
X124930062Y-66698885D01*
X124930134Y-66698444D01*
X124930204Y-66697989D01*
X124930215Y-66697947D01*
X124930219Y-66697921D01*
X124930317Y-66697548D01*
X124930447Y-66697043D01*
X124930459Y-66697010D01*
X124930468Y-66696976D01*
X124930610Y-66696594D01*
X124930781Y-66696125D01*
X124930798Y-66696090D01*
X124930809Y-66696061D01*
X124931005Y-66695659D01*
X124931204Y-66695244D01*
X124931218Y-66695220D01*
X124931237Y-66695182D01*
X124931512Y-66694735D01*
X124931710Y-66694408D01*
X124931729Y-66694383D01*
X124931749Y-66694350D01*
X124932037Y-66693970D01*
X124932295Y-66693626D01*
X124932319Y-66693600D01*
X124932340Y-66693572D01*
X124932672Y-66693213D01*
X124932954Y-66692904D01*
X124932976Y-66692884D01*
X124933003Y-66692855D01*
X124933354Y-66692544D01*
X124933680Y-66692251D01*
X124933706Y-66692232D01*
X124933734Y-66692207D01*
X124934147Y-66691907D01*
X124934466Y-66691671D01*
X124934490Y-66691656D01*
X124934524Y-66691632D01*
X124934970Y-66691371D01*
X124935305Y-66691171D01*
X124935334Y-66691157D01*
X124935367Y-66691138D01*
X124935825Y-66690926D01*
X124936189Y-66690755D01*
X124936218Y-66690745D01*
X124936254Y-66690728D01*
X124936715Y-66690568D01*
X124937110Y-66690427D01*
X124937144Y-66690419D01*
X124937177Y-66690407D01*
X124937602Y-66690304D01*
X124938058Y-66690190D01*
X124938094Y-66690185D01*
X124938126Y-66690177D01*
X124938588Y-66690112D01*
X124939024Y-66690048D01*
X124939055Y-66690046D01*
X124939094Y-66690041D01*
X124939590Y-66690020D01*
X124940000Y-66690000D01*
X125736326Y-66690000D01*
X125736971Y-66689702D01*
X125737894Y-66689382D01*
X125738843Y-66689152D01*
X125739811Y-66689017D01*
X125740787Y-66688976D01*
X125741763Y-66689031D01*
X125742728Y-66689181D01*
X125743675Y-66689425D01*
X125744592Y-66689759D01*
X125745473Y-66690182D01*
X125746309Y-66690688D01*
X125747090Y-66691274D01*
X125747812Y-66691933D01*
X125748465Y-66692659D01*
X125749045Y-66693445D01*
X125749544Y-66694285D01*
X125749960Y-66695170D01*
X125750287Y-66696090D01*
X125750523Y-66697038D01*
X125750665Y-66698005D01*
X125750713Y-66698980D01*
X125750665Y-66699956D01*
X125750521Y-66700922D01*
X125750285Y-66701871D01*
X125749957Y-66702791D01*
X125749540Y-66703674D01*
X125749040Y-66704514D01*
X125715387Y-66755117D01*
X125648249Y-66873418D01*
X125593033Y-66997580D01*
X125550195Y-67126543D01*
X125520147Y-67259063D01*
X125503172Y-67393891D01*
X125500000Y-67509233D01*
X125500000Y-67537734D01*
X125508974Y-67665277D01*
X125531693Y-67799250D01*
X125567377Y-67930368D01*
X125615687Y-68057383D01*
X125676158Y-68179072D01*
X125748478Y-68294697D01*
X125748552Y-68294816D01*
X125748708Y-68295104D01*
X125748862Y-68295367D01*
X125748931Y-68295515D01*
X125749017Y-68295675D01*
X125749141Y-68295971D01*
X125749272Y-68296254D01*
X125749331Y-68296422D01*
X125749395Y-68296576D01*
X125749488Y-68296874D01*
X125749593Y-68297177D01*
X125749633Y-68297340D01*
X125749685Y-68297509D01*
X125749748Y-68297816D01*
X125749823Y-68298126D01*
X125749848Y-68298307D01*
X125749881Y-68298466D01*
X125749912Y-68298762D01*
X125749959Y-68299094D01*
X125749967Y-68299273D01*
X125749984Y-68299438D01*
X125749986Y-68299741D01*
X125750000Y-68300070D01*
X125749990Y-68300250D01*
X125749991Y-68300415D01*
X125749963Y-68300722D01*
X125749945Y-68301045D01*
X125749918Y-68301217D01*
X125749903Y-68301388D01*
X125749845Y-68301695D01*
X125749796Y-68302011D01*
X125749753Y-68302178D01*
X125749721Y-68302347D01*
X125749633Y-68302647D01*
X125749553Y-68302957D01*
X125749492Y-68303126D01*
X125749445Y-68303284D01*
X125749329Y-68303572D01*
X125749219Y-68303875D01*
X125749146Y-68304027D01*
X125749080Y-68304191D01*
X125748925Y-68304487D01*
X125748796Y-68304756D01*
X125748711Y-68304897D01*
X125748627Y-68305057D01*
X125748446Y-68305334D01*
X125748290Y-68305592D01*
X125748194Y-68305721D01*
X125748093Y-68305875D01*
X125747887Y-68306131D01*
X125747705Y-68306374D01*
X125747586Y-68306504D01*
X125747480Y-68306636D01*
X125747265Y-68306856D01*
X125747046Y-68307096D01*
X125746918Y-68307211D01*
X125746798Y-68307334D01*
X125746548Y-68307544D01*
X125746320Y-68307749D01*
X125746187Y-68307847D01*
X125746049Y-68307963D01*
X125745785Y-68308144D01*
X125745534Y-68308329D01*
X125745384Y-68308418D01*
X125745243Y-68308515D01*
X125744964Y-68308669D01*
X125744695Y-68308829D01*
X125744544Y-68308900D01*
X125744388Y-68308986D01*
X125744080Y-68309118D01*
X125743811Y-68309245D01*
X125743662Y-68309298D01*
X125743490Y-68309372D01*
X125743167Y-68309474D01*
X125742890Y-68309573D01*
X125742727Y-68309614D01*
X125742559Y-68309667D01*
X125742252Y-68309733D01*
X125741942Y-68309810D01*
X125741771Y-68309835D01*
X125741603Y-68309871D01*
X125741291Y-68309906D01*
X125740976Y-68309952D01*
X125740794Y-68309961D01*
X125740632Y-68309979D01*
X125740334Y-68309984D01*
X125740000Y-68310000D01*
X124939930Y-68310000D01*
X124939920Y-68309999D01*
X124939920Y-68309999D01*
G37*
D10*
X128810000Y-68050000D03*
D11*
G36*
X129060080Y-66690001D02*
G01*
X129060140Y-66690001D01*
X129060619Y-66690031D01*
X129061045Y-66690055D01*
X129061074Y-66690059D01*
X129061115Y-66690062D01*
X129061556Y-66690134D01*
X129062011Y-66690204D01*
X129062053Y-66690215D01*
X129062079Y-66690219D01*
X129062452Y-66690317D01*
X129062957Y-66690447D01*
X129062990Y-66690459D01*
X129063024Y-66690468D01*
X129063406Y-66690610D01*
X129063875Y-66690781D01*
X129063914Y-66690800D01*
X129063939Y-66690809D01*
X129064341Y-66691005D01*
X129064756Y-66691204D01*
X129064780Y-66691218D01*
X129064818Y-66691237D01*
X129065265Y-66691512D01*
X129065592Y-66691710D01*
X129065617Y-66691729D01*
X129065650Y-66691749D01*
X129066025Y-66692034D01*
X129066374Y-66692295D01*
X129066400Y-66692319D01*
X129066428Y-66692340D01*
X129066787Y-66692672D01*
X129067096Y-66692954D01*
X129067116Y-66692976D01*
X129067145Y-66693003D01*
X129067465Y-66693364D01*
X129067749Y-66693680D01*
X129067768Y-66693706D01*
X129067793Y-66693734D01*
X129068093Y-66694147D01*
X129068329Y-66694466D01*
X129068344Y-66694490D01*
X129068368Y-66694524D01*
X129068629Y-66694970D01*
X129068829Y-66695305D01*
X129068843Y-66695334D01*
X129068862Y-66695367D01*
X129069066Y-66695809D01*
X129069245Y-66696189D01*
X129069255Y-66696218D01*
X129069272Y-66696254D01*
X129069411Y-66696655D01*
X129069573Y-66697110D01*
X129069581Y-66697144D01*
X129069593Y-66697177D01*
X129069696Y-66697602D01*
X129069810Y-66698058D01*
X129069815Y-66698094D01*
X129069823Y-66698126D01*
X129069888Y-66698588D01*
X129069952Y-66699024D01*
X129069954Y-66699055D01*
X129069959Y-66699094D01*
X129069977Y-66699530D01*
X129070000Y-66700000D01*
X129070000Y-68300000D01*
X129069999Y-68300140D01*
X129069972Y-68300566D01*
X129069945Y-68301045D01*
X129069941Y-68301074D01*
X129069938Y-68301115D01*
X129069866Y-68301556D01*
X129069796Y-68302011D01*
X129069785Y-68302053D01*
X129069781Y-68302079D01*
X129069683Y-68302452D01*
X129069553Y-68302957D01*
X129069541Y-68302990D01*
X129069532Y-68303024D01*
X129069390Y-68303406D01*
X129069219Y-68303875D01*
X129069202Y-68303910D01*
X129069191Y-68303939D01*
X129068995Y-68304341D01*
X129068796Y-68304756D01*
X129068782Y-68304780D01*
X129068763Y-68304818D01*
X129068488Y-68305265D01*
X129068290Y-68305592D01*
X129068271Y-68305617D01*
X129068251Y-68305650D01*
X129067963Y-68306030D01*
X129067705Y-68306374D01*
X129067681Y-68306400D01*
X129067660Y-68306428D01*
X129067328Y-68306787D01*
X129067046Y-68307096D01*
X129067024Y-68307116D01*
X129066997Y-68307145D01*
X129066646Y-68307456D01*
X129066320Y-68307749D01*
X129066294Y-68307768D01*
X129066266Y-68307793D01*
X129065853Y-68308093D01*
X129065534Y-68308329D01*
X129065510Y-68308344D01*
X129065476Y-68308368D01*
X129065030Y-68308629D01*
X129064695Y-68308829D01*
X129064666Y-68308843D01*
X129064633Y-68308862D01*
X129064175Y-68309074D01*
X129063811Y-68309245D01*
X129063782Y-68309255D01*
X129063746Y-68309272D01*
X129063285Y-68309432D01*
X129062890Y-68309573D01*
X129062856Y-68309581D01*
X129062823Y-68309593D01*
X129062398Y-68309696D01*
X129061942Y-68309810D01*
X129061906Y-68309815D01*
X129061874Y-68309823D01*
X129061412Y-68309888D01*
X129060976Y-68309952D01*
X129060945Y-68309954D01*
X129060906Y-68309959D01*
X129060410Y-68309980D01*
X129060000Y-68310000D01*
X128263674Y-68310000D01*
X128263029Y-68310298D01*
X128262106Y-68310618D01*
X128261157Y-68310848D01*
X128260189Y-68310983D01*
X128259213Y-68311024D01*
X128258237Y-68310969D01*
X128257272Y-68310819D01*
X128256325Y-68310575D01*
X128255408Y-68310241D01*
X128254527Y-68309818D01*
X128253691Y-68309312D01*
X128252910Y-68308726D01*
X128252188Y-68308067D01*
X128251535Y-68307341D01*
X128250955Y-68306555D01*
X128250456Y-68305715D01*
X128250040Y-68304830D01*
X128249713Y-68303910D01*
X128249477Y-68302962D01*
X128249335Y-68301995D01*
X128249287Y-68301020D01*
X128249335Y-68300044D01*
X128249479Y-68299078D01*
X128249715Y-68298129D01*
X128250043Y-68297209D01*
X128250460Y-68296326D01*
X128250960Y-68295486D01*
X128284613Y-68244883D01*
X128351751Y-68126582D01*
X128406967Y-68002420D01*
X128449805Y-67873457D01*
X128479853Y-67740937D01*
X128496828Y-67606109D01*
X128500000Y-67490767D01*
X128500000Y-67462266D01*
X128491026Y-67334723D01*
X128468307Y-67200750D01*
X128432623Y-67069632D01*
X128384313Y-66942617D01*
X128323842Y-66820928D01*
X128251522Y-66705303D01*
X128251448Y-66705184D01*
X128251292Y-66704896D01*
X128251138Y-66704633D01*
X128251069Y-66704485D01*
X128250983Y-66704325D01*
X128250859Y-66704029D01*
X128250728Y-66703746D01*
X128250669Y-66703578D01*
X128250605Y-66703424D01*
X128250512Y-66703126D01*
X128250407Y-66702823D01*
X128250367Y-66702660D01*
X128250315Y-66702491D01*
X128250252Y-66702184D01*
X128250177Y-66701874D01*
X128250152Y-66701693D01*
X128250119Y-66701534D01*
X128250088Y-66701238D01*
X128250041Y-66700906D01*
X128250033Y-66700727D01*
X128250016Y-66700562D01*
X128250014Y-66700259D01*
X128250000Y-66699930D01*
X128250010Y-66699750D01*
X128250009Y-66699585D01*
X128250037Y-66699278D01*
X128250055Y-66698955D01*
X128250082Y-66698783D01*
X128250097Y-66698612D01*
X128250155Y-66698305D01*
X128250204Y-66697989D01*
X128250247Y-66697822D01*
X128250279Y-66697653D01*
X128250367Y-66697353D01*
X128250447Y-66697043D01*
X128250508Y-66696874D01*
X128250555Y-66696716D01*
X128250671Y-66696428D01*
X128250781Y-66696125D01*
X128250854Y-66695973D01*
X128250920Y-66695809D01*
X128251075Y-66695513D01*
X128251204Y-66695244D01*
X128251289Y-66695103D01*
X128251373Y-66694943D01*
X128251554Y-66694666D01*
X128251710Y-66694408D01*
X128251806Y-66694279D01*
X128251907Y-66694125D01*
X128252113Y-66693869D01*
X128252295Y-66693626D01*
X128252414Y-66693496D01*
X128252520Y-66693364D01*
X128252735Y-66693144D01*
X128252954Y-66692904D01*
X128253082Y-66692789D01*
X128253202Y-66692666D01*
X128253452Y-66692456D01*
X128253680Y-66692251D01*
X128253813Y-66692153D01*
X128253951Y-66692037D01*
X128254215Y-66691856D01*
X128254466Y-66691671D01*
X128254616Y-66691582D01*
X128254757Y-66691485D01*
X128255036Y-66691331D01*
X128255305Y-66691171D01*
X128255456Y-66691100D01*
X128255612Y-66691014D01*
X128255920Y-66690882D01*
X128256189Y-66690755D01*
X128256338Y-66690702D01*
X128256510Y-66690628D01*
X128256833Y-66690526D01*
X128257110Y-66690427D01*
X128257273Y-66690386D01*
X128257441Y-66690333D01*
X128257748Y-66690267D01*
X128258058Y-66690190D01*
X128258229Y-66690165D01*
X128258397Y-66690129D01*
X128258709Y-66690094D01*
X128259024Y-66690048D01*
X128259206Y-66690039D01*
X128259368Y-66690021D01*
X128259666Y-66690016D01*
X128260000Y-66690000D01*
X129060070Y-66690000D01*
X129060080Y-66690001D01*
X129060080Y-66690001D01*
G37*
D10*
X128810000Y-83050000D03*
D11*
G36*
X129060080Y-81690001D02*
G01*
X129060140Y-81690001D01*
X129060619Y-81690031D01*
X129061045Y-81690055D01*
X129061074Y-81690059D01*
X129061115Y-81690062D01*
X129061556Y-81690134D01*
X129062011Y-81690204D01*
X129062053Y-81690215D01*
X129062079Y-81690219D01*
X129062452Y-81690317D01*
X129062957Y-81690447D01*
X129062990Y-81690459D01*
X129063024Y-81690468D01*
X129063406Y-81690610D01*
X129063875Y-81690781D01*
X129063914Y-81690800D01*
X129063939Y-81690809D01*
X129064341Y-81691005D01*
X129064756Y-81691204D01*
X129064780Y-81691218D01*
X129064818Y-81691237D01*
X129065265Y-81691512D01*
X129065592Y-81691710D01*
X129065617Y-81691729D01*
X129065650Y-81691749D01*
X129066025Y-81692034D01*
X129066374Y-81692295D01*
X129066400Y-81692319D01*
X129066428Y-81692340D01*
X129066787Y-81692672D01*
X129067096Y-81692954D01*
X129067116Y-81692976D01*
X129067145Y-81693003D01*
X129067465Y-81693364D01*
X129067749Y-81693680D01*
X129067768Y-81693706D01*
X129067793Y-81693734D01*
X129068093Y-81694147D01*
X129068329Y-81694466D01*
X129068344Y-81694490D01*
X129068368Y-81694524D01*
X129068629Y-81694970D01*
X129068829Y-81695305D01*
X129068843Y-81695334D01*
X129068862Y-81695367D01*
X129069066Y-81695809D01*
X129069245Y-81696189D01*
X129069255Y-81696218D01*
X129069272Y-81696254D01*
X129069411Y-81696655D01*
X129069573Y-81697110D01*
X129069581Y-81697144D01*
X129069593Y-81697177D01*
X129069696Y-81697602D01*
X129069810Y-81698058D01*
X129069815Y-81698094D01*
X129069823Y-81698126D01*
X129069888Y-81698588D01*
X129069952Y-81699024D01*
X129069954Y-81699055D01*
X129069959Y-81699094D01*
X129069977Y-81699530D01*
X129070000Y-81700000D01*
X129070000Y-83300000D01*
X129069999Y-83300140D01*
X129069972Y-83300566D01*
X129069945Y-83301045D01*
X129069941Y-83301074D01*
X129069938Y-83301115D01*
X129069866Y-83301556D01*
X129069796Y-83302011D01*
X129069785Y-83302053D01*
X129069781Y-83302079D01*
X129069683Y-83302452D01*
X129069553Y-83302957D01*
X129069541Y-83302990D01*
X129069532Y-83303024D01*
X129069390Y-83303406D01*
X129069219Y-83303875D01*
X129069202Y-83303910D01*
X129069191Y-83303939D01*
X129068995Y-83304341D01*
X129068796Y-83304756D01*
X129068782Y-83304780D01*
X129068763Y-83304818D01*
X129068488Y-83305265D01*
X129068290Y-83305592D01*
X129068271Y-83305617D01*
X129068251Y-83305650D01*
X129067963Y-83306030D01*
X129067705Y-83306374D01*
X129067681Y-83306400D01*
X129067660Y-83306428D01*
X129067328Y-83306787D01*
X129067046Y-83307096D01*
X129067024Y-83307116D01*
X129066997Y-83307145D01*
X129066646Y-83307456D01*
X129066320Y-83307749D01*
X129066294Y-83307768D01*
X129066266Y-83307793D01*
X129065853Y-83308093D01*
X129065534Y-83308329D01*
X129065510Y-83308344D01*
X129065476Y-83308368D01*
X129065030Y-83308629D01*
X129064695Y-83308829D01*
X129064666Y-83308843D01*
X129064633Y-83308862D01*
X129064175Y-83309074D01*
X129063811Y-83309245D01*
X129063782Y-83309255D01*
X129063746Y-83309272D01*
X129063285Y-83309432D01*
X129062890Y-83309573D01*
X129062856Y-83309581D01*
X129062823Y-83309593D01*
X129062398Y-83309696D01*
X129061942Y-83309810D01*
X129061906Y-83309815D01*
X129061874Y-83309823D01*
X129061412Y-83309888D01*
X129060976Y-83309952D01*
X129060945Y-83309954D01*
X129060906Y-83309959D01*
X129060410Y-83309980D01*
X129060000Y-83310000D01*
X128263674Y-83310000D01*
X128263029Y-83310298D01*
X128262106Y-83310618D01*
X128261157Y-83310848D01*
X128260189Y-83310983D01*
X128259213Y-83311024D01*
X128258237Y-83310969D01*
X128257272Y-83310819D01*
X128256325Y-83310575D01*
X128255408Y-83310241D01*
X128254527Y-83309818D01*
X128253691Y-83309312D01*
X128252910Y-83308726D01*
X128252188Y-83308067D01*
X128251535Y-83307341D01*
X128250955Y-83306555D01*
X128250456Y-83305715D01*
X128250040Y-83304830D01*
X128249713Y-83303910D01*
X128249477Y-83302962D01*
X128249335Y-83301995D01*
X128249287Y-83301020D01*
X128249335Y-83300044D01*
X128249479Y-83299078D01*
X128249715Y-83298129D01*
X128250043Y-83297209D01*
X128250460Y-83296326D01*
X128250960Y-83295486D01*
X128284613Y-83244883D01*
X128351751Y-83126582D01*
X128406967Y-83002420D01*
X128449805Y-82873457D01*
X128479853Y-82740937D01*
X128496828Y-82606109D01*
X128500000Y-82490767D01*
X128500000Y-82462266D01*
X128491026Y-82334723D01*
X128468307Y-82200750D01*
X128432623Y-82069632D01*
X128384313Y-81942617D01*
X128323842Y-81820928D01*
X128251522Y-81705303D01*
X128251448Y-81705184D01*
X128251292Y-81704896D01*
X128251138Y-81704633D01*
X128251069Y-81704485D01*
X128250983Y-81704325D01*
X128250859Y-81704029D01*
X128250728Y-81703746D01*
X128250669Y-81703578D01*
X128250605Y-81703424D01*
X128250512Y-81703126D01*
X128250407Y-81702823D01*
X128250367Y-81702660D01*
X128250315Y-81702491D01*
X128250252Y-81702184D01*
X128250177Y-81701874D01*
X128250152Y-81701693D01*
X128250119Y-81701534D01*
X128250088Y-81701238D01*
X128250041Y-81700906D01*
X128250033Y-81700727D01*
X128250016Y-81700562D01*
X128250014Y-81700259D01*
X128250000Y-81699930D01*
X128250010Y-81699750D01*
X128250009Y-81699585D01*
X128250037Y-81699278D01*
X128250055Y-81698955D01*
X128250082Y-81698783D01*
X128250097Y-81698612D01*
X128250155Y-81698305D01*
X128250204Y-81697989D01*
X128250247Y-81697822D01*
X128250279Y-81697653D01*
X128250367Y-81697353D01*
X128250447Y-81697043D01*
X128250508Y-81696874D01*
X128250555Y-81696716D01*
X128250671Y-81696428D01*
X128250781Y-81696125D01*
X128250854Y-81695973D01*
X128250920Y-81695809D01*
X128251075Y-81695513D01*
X128251204Y-81695244D01*
X128251289Y-81695103D01*
X128251373Y-81694943D01*
X128251554Y-81694666D01*
X128251710Y-81694408D01*
X128251806Y-81694279D01*
X128251907Y-81694125D01*
X128252113Y-81693869D01*
X128252295Y-81693626D01*
X128252414Y-81693496D01*
X128252520Y-81693364D01*
X128252735Y-81693144D01*
X128252954Y-81692904D01*
X128253082Y-81692789D01*
X128253202Y-81692666D01*
X128253452Y-81692456D01*
X128253680Y-81692251D01*
X128253813Y-81692153D01*
X128253951Y-81692037D01*
X128254215Y-81691856D01*
X128254466Y-81691671D01*
X128254616Y-81691582D01*
X128254757Y-81691485D01*
X128255036Y-81691331D01*
X128255305Y-81691171D01*
X128255456Y-81691100D01*
X128255612Y-81691014D01*
X128255920Y-81690882D01*
X128256189Y-81690755D01*
X128256338Y-81690702D01*
X128256510Y-81690628D01*
X128256833Y-81690526D01*
X128257110Y-81690427D01*
X128257273Y-81690386D01*
X128257441Y-81690333D01*
X128257748Y-81690267D01*
X128258058Y-81690190D01*
X128258229Y-81690165D01*
X128258397Y-81690129D01*
X128258709Y-81690094D01*
X128259024Y-81690048D01*
X128259206Y-81690039D01*
X128259368Y-81690021D01*
X128259666Y-81690016D01*
X128260000Y-81690000D01*
X129060070Y-81690000D01*
X129060080Y-81690001D01*
X129060080Y-81690001D01*
G37*
D10*
X125190000Y-81950000D03*
D11*
G36*
X124939920Y-83309999D02*
G01*
X124939860Y-83309999D01*
X124939381Y-83309969D01*
X124938955Y-83309945D01*
X124938926Y-83309941D01*
X124938885Y-83309938D01*
X124938444Y-83309866D01*
X124937989Y-83309796D01*
X124937947Y-83309785D01*
X124937921Y-83309781D01*
X124937548Y-83309683D01*
X124937043Y-83309553D01*
X124937010Y-83309541D01*
X124936976Y-83309532D01*
X124936594Y-83309390D01*
X124936125Y-83309219D01*
X124936086Y-83309200D01*
X124936061Y-83309191D01*
X124935659Y-83308995D01*
X124935244Y-83308796D01*
X124935220Y-83308782D01*
X124935182Y-83308763D01*
X124934735Y-83308488D01*
X124934408Y-83308290D01*
X124934383Y-83308271D01*
X124934350Y-83308251D01*
X124933975Y-83307966D01*
X124933626Y-83307705D01*
X124933600Y-83307681D01*
X124933572Y-83307660D01*
X124933213Y-83307328D01*
X124932904Y-83307046D01*
X124932884Y-83307024D01*
X124932855Y-83306997D01*
X124932535Y-83306636D01*
X124932251Y-83306320D01*
X124932232Y-83306294D01*
X124932207Y-83306266D01*
X124931907Y-83305853D01*
X124931671Y-83305534D01*
X124931656Y-83305510D01*
X124931632Y-83305476D01*
X124931371Y-83305030D01*
X124931171Y-83304695D01*
X124931157Y-83304666D01*
X124931138Y-83304633D01*
X124930934Y-83304191D01*
X124930755Y-83303811D01*
X124930745Y-83303782D01*
X124930728Y-83303746D01*
X124930589Y-83303345D01*
X124930427Y-83302890D01*
X124930419Y-83302856D01*
X124930407Y-83302823D01*
X124930304Y-83302398D01*
X124930190Y-83301942D01*
X124930185Y-83301906D01*
X124930177Y-83301874D01*
X124930112Y-83301412D01*
X124930048Y-83300976D01*
X124930046Y-83300945D01*
X124930041Y-83300906D01*
X124930023Y-83300470D01*
X124930000Y-83300000D01*
X124930000Y-81700000D01*
X124930001Y-81699860D01*
X124930028Y-81699434D01*
X124930055Y-81698955D01*
X124930059Y-81698926D01*
X124930062Y-81698885D01*
X124930134Y-81698444D01*
X124930204Y-81697989D01*
X124930215Y-81697947D01*
X124930219Y-81697921D01*
X124930317Y-81697548D01*
X124930447Y-81697043D01*
X124930459Y-81697010D01*
X124930468Y-81696976D01*
X124930610Y-81696594D01*
X124930781Y-81696125D01*
X124930798Y-81696090D01*
X124930809Y-81696061D01*
X124931005Y-81695659D01*
X124931204Y-81695244D01*
X124931218Y-81695220D01*
X124931237Y-81695182D01*
X124931512Y-81694735D01*
X124931710Y-81694408D01*
X124931729Y-81694383D01*
X124931749Y-81694350D01*
X124932037Y-81693970D01*
X124932295Y-81693626D01*
X124932319Y-81693600D01*
X124932340Y-81693572D01*
X124932672Y-81693213D01*
X124932954Y-81692904D01*
X124932976Y-81692884D01*
X124933003Y-81692855D01*
X124933354Y-81692544D01*
X124933680Y-81692251D01*
X124933706Y-81692232D01*
X124933734Y-81692207D01*
X124934147Y-81691907D01*
X124934466Y-81691671D01*
X124934490Y-81691656D01*
X124934524Y-81691632D01*
X124934970Y-81691371D01*
X124935305Y-81691171D01*
X124935334Y-81691157D01*
X124935367Y-81691138D01*
X124935825Y-81690926D01*
X124936189Y-81690755D01*
X124936218Y-81690745D01*
X124936254Y-81690728D01*
X124936715Y-81690568D01*
X124937110Y-81690427D01*
X124937144Y-81690419D01*
X124937177Y-81690407D01*
X124937602Y-81690304D01*
X124938058Y-81690190D01*
X124938094Y-81690185D01*
X124938126Y-81690177D01*
X124938588Y-81690112D01*
X124939024Y-81690048D01*
X124939055Y-81690046D01*
X124939094Y-81690041D01*
X124939590Y-81690020D01*
X124940000Y-81690000D01*
X125736326Y-81690000D01*
X125736971Y-81689702D01*
X125737894Y-81689382D01*
X125738843Y-81689152D01*
X125739811Y-81689017D01*
X125740787Y-81688976D01*
X125741763Y-81689031D01*
X125742728Y-81689181D01*
X125743675Y-81689425D01*
X125744592Y-81689759D01*
X125745473Y-81690182D01*
X125746309Y-81690688D01*
X125747090Y-81691274D01*
X125747812Y-81691933D01*
X125748465Y-81692659D01*
X125749045Y-81693445D01*
X125749544Y-81694285D01*
X125749960Y-81695170D01*
X125750287Y-81696090D01*
X125750523Y-81697038D01*
X125750665Y-81698005D01*
X125750713Y-81698980D01*
X125750665Y-81699956D01*
X125750521Y-81700922D01*
X125750285Y-81701871D01*
X125749957Y-81702791D01*
X125749540Y-81703674D01*
X125749040Y-81704514D01*
X125715387Y-81755117D01*
X125648249Y-81873418D01*
X125593033Y-81997580D01*
X125550195Y-82126543D01*
X125520147Y-82259063D01*
X125503172Y-82393891D01*
X125500000Y-82509233D01*
X125500000Y-82537734D01*
X125508974Y-82665277D01*
X125531693Y-82799250D01*
X125567377Y-82930368D01*
X125615687Y-83057383D01*
X125676158Y-83179072D01*
X125748478Y-83294697D01*
X125748552Y-83294816D01*
X125748708Y-83295104D01*
X125748862Y-83295367D01*
X125748931Y-83295515D01*
X125749017Y-83295675D01*
X125749141Y-83295971D01*
X125749272Y-83296254D01*
X125749331Y-83296422D01*
X125749395Y-83296576D01*
X125749488Y-83296874D01*
X125749593Y-83297177D01*
X125749633Y-83297340D01*
X125749685Y-83297509D01*
X125749748Y-83297816D01*
X125749823Y-83298126D01*
X125749848Y-83298307D01*
X125749881Y-83298466D01*
X125749912Y-83298762D01*
X125749959Y-83299094D01*
X125749967Y-83299273D01*
X125749984Y-83299438D01*
X125749986Y-83299741D01*
X125750000Y-83300070D01*
X125749990Y-83300250D01*
X125749991Y-83300415D01*
X125749963Y-83300722D01*
X125749945Y-83301045D01*
X125749918Y-83301217D01*
X125749903Y-83301388D01*
X125749845Y-83301695D01*
X125749796Y-83302011D01*
X125749753Y-83302178D01*
X125749721Y-83302347D01*
X125749633Y-83302647D01*
X125749553Y-83302957D01*
X125749492Y-83303126D01*
X125749445Y-83303284D01*
X125749329Y-83303572D01*
X125749219Y-83303875D01*
X125749146Y-83304027D01*
X125749080Y-83304191D01*
X125748925Y-83304487D01*
X125748796Y-83304756D01*
X125748711Y-83304897D01*
X125748627Y-83305057D01*
X125748446Y-83305334D01*
X125748290Y-83305592D01*
X125748194Y-83305721D01*
X125748093Y-83305875D01*
X125747887Y-83306131D01*
X125747705Y-83306374D01*
X125747586Y-83306504D01*
X125747480Y-83306636D01*
X125747265Y-83306856D01*
X125747046Y-83307096D01*
X125746918Y-83307211D01*
X125746798Y-83307334D01*
X125746548Y-83307544D01*
X125746320Y-83307749D01*
X125746187Y-83307847D01*
X125746049Y-83307963D01*
X125745785Y-83308144D01*
X125745534Y-83308329D01*
X125745384Y-83308418D01*
X125745243Y-83308515D01*
X125744964Y-83308669D01*
X125744695Y-83308829D01*
X125744544Y-83308900D01*
X125744388Y-83308986D01*
X125744080Y-83309118D01*
X125743811Y-83309245D01*
X125743662Y-83309298D01*
X125743490Y-83309372D01*
X125743167Y-83309474D01*
X125742890Y-83309573D01*
X125742727Y-83309614D01*
X125742559Y-83309667D01*
X125742252Y-83309733D01*
X125741942Y-83309810D01*
X125741771Y-83309835D01*
X125741603Y-83309871D01*
X125741291Y-83309906D01*
X125740976Y-83309952D01*
X125740794Y-83309961D01*
X125740632Y-83309979D01*
X125740334Y-83309984D01*
X125740000Y-83310000D01*
X124939930Y-83310000D01*
X124939920Y-83309999D01*
X124939920Y-83309999D01*
G37*
D10*
X125190000Y-96950000D03*
D11*
G36*
X124939920Y-98309999D02*
G01*
X124939860Y-98309999D01*
X124939381Y-98309969D01*
X124938955Y-98309945D01*
X124938926Y-98309941D01*
X124938885Y-98309938D01*
X124938444Y-98309866D01*
X124937989Y-98309796D01*
X124937947Y-98309785D01*
X124937921Y-98309781D01*
X124937548Y-98309683D01*
X124937043Y-98309553D01*
X124937010Y-98309541D01*
X124936976Y-98309532D01*
X124936594Y-98309390D01*
X124936125Y-98309219D01*
X124936086Y-98309200D01*
X124936061Y-98309191D01*
X124935659Y-98308995D01*
X124935244Y-98308796D01*
X124935220Y-98308782D01*
X124935182Y-98308763D01*
X124934735Y-98308488D01*
X124934408Y-98308290D01*
X124934383Y-98308271D01*
X124934350Y-98308251D01*
X124933975Y-98307966D01*
X124933626Y-98307705D01*
X124933600Y-98307681D01*
X124933572Y-98307660D01*
X124933213Y-98307328D01*
X124932904Y-98307046D01*
X124932884Y-98307024D01*
X124932855Y-98306997D01*
X124932535Y-98306636D01*
X124932251Y-98306320D01*
X124932232Y-98306294D01*
X124932207Y-98306266D01*
X124931907Y-98305853D01*
X124931671Y-98305534D01*
X124931656Y-98305510D01*
X124931632Y-98305476D01*
X124931371Y-98305030D01*
X124931171Y-98304695D01*
X124931157Y-98304666D01*
X124931138Y-98304633D01*
X124930934Y-98304191D01*
X124930755Y-98303811D01*
X124930745Y-98303782D01*
X124930728Y-98303746D01*
X124930589Y-98303345D01*
X124930427Y-98302890D01*
X124930419Y-98302856D01*
X124930407Y-98302823D01*
X124930304Y-98302398D01*
X124930190Y-98301942D01*
X124930185Y-98301906D01*
X124930177Y-98301874D01*
X124930112Y-98301412D01*
X124930048Y-98300976D01*
X124930046Y-98300945D01*
X124930041Y-98300906D01*
X124930023Y-98300470D01*
X124930000Y-98300000D01*
X124930000Y-96700000D01*
X124930001Y-96699860D01*
X124930028Y-96699434D01*
X124930055Y-96698955D01*
X124930059Y-96698926D01*
X124930062Y-96698885D01*
X124930134Y-96698444D01*
X124930204Y-96697989D01*
X124930215Y-96697947D01*
X124930219Y-96697921D01*
X124930317Y-96697548D01*
X124930447Y-96697043D01*
X124930459Y-96697010D01*
X124930468Y-96696976D01*
X124930610Y-96696594D01*
X124930781Y-96696125D01*
X124930798Y-96696090D01*
X124930809Y-96696061D01*
X124931005Y-96695659D01*
X124931204Y-96695244D01*
X124931218Y-96695220D01*
X124931237Y-96695182D01*
X124931512Y-96694735D01*
X124931710Y-96694408D01*
X124931729Y-96694383D01*
X124931749Y-96694350D01*
X124932037Y-96693970D01*
X124932295Y-96693626D01*
X124932319Y-96693600D01*
X124932340Y-96693572D01*
X124932672Y-96693213D01*
X124932954Y-96692904D01*
X124932976Y-96692884D01*
X124933003Y-96692855D01*
X124933354Y-96692544D01*
X124933680Y-96692251D01*
X124933706Y-96692232D01*
X124933734Y-96692207D01*
X124934147Y-96691907D01*
X124934466Y-96691671D01*
X124934490Y-96691656D01*
X124934524Y-96691632D01*
X124934970Y-96691371D01*
X124935305Y-96691171D01*
X124935334Y-96691157D01*
X124935367Y-96691138D01*
X124935825Y-96690926D01*
X124936189Y-96690755D01*
X124936218Y-96690745D01*
X124936254Y-96690728D01*
X124936715Y-96690568D01*
X124937110Y-96690427D01*
X124937144Y-96690419D01*
X124937177Y-96690407D01*
X124937602Y-96690304D01*
X124938058Y-96690190D01*
X124938094Y-96690185D01*
X124938126Y-96690177D01*
X124938588Y-96690112D01*
X124939024Y-96690048D01*
X124939055Y-96690046D01*
X124939094Y-96690041D01*
X124939590Y-96690020D01*
X124940000Y-96690000D01*
X125736326Y-96690000D01*
X125736971Y-96689702D01*
X125737894Y-96689382D01*
X125738843Y-96689152D01*
X125739811Y-96689017D01*
X125740787Y-96688976D01*
X125741763Y-96689031D01*
X125742728Y-96689181D01*
X125743675Y-96689425D01*
X125744592Y-96689759D01*
X125745473Y-96690182D01*
X125746309Y-96690688D01*
X125747090Y-96691274D01*
X125747812Y-96691933D01*
X125748465Y-96692659D01*
X125749045Y-96693445D01*
X125749544Y-96694285D01*
X125749960Y-96695170D01*
X125750287Y-96696090D01*
X125750523Y-96697038D01*
X125750665Y-96698005D01*
X125750713Y-96698980D01*
X125750665Y-96699956D01*
X125750521Y-96700922D01*
X125750285Y-96701871D01*
X125749957Y-96702791D01*
X125749540Y-96703674D01*
X125749040Y-96704514D01*
X125715387Y-96755117D01*
X125648249Y-96873418D01*
X125593033Y-96997580D01*
X125550195Y-97126543D01*
X125520147Y-97259063D01*
X125503172Y-97393891D01*
X125500000Y-97509233D01*
X125500000Y-97537734D01*
X125508974Y-97665277D01*
X125531693Y-97799250D01*
X125567377Y-97930368D01*
X125615687Y-98057383D01*
X125676158Y-98179072D01*
X125748478Y-98294697D01*
X125748552Y-98294816D01*
X125748708Y-98295104D01*
X125748862Y-98295367D01*
X125748931Y-98295515D01*
X125749017Y-98295675D01*
X125749141Y-98295971D01*
X125749272Y-98296254D01*
X125749331Y-98296422D01*
X125749395Y-98296576D01*
X125749488Y-98296874D01*
X125749593Y-98297177D01*
X125749633Y-98297340D01*
X125749685Y-98297509D01*
X125749748Y-98297816D01*
X125749823Y-98298126D01*
X125749848Y-98298307D01*
X125749881Y-98298466D01*
X125749912Y-98298762D01*
X125749959Y-98299094D01*
X125749967Y-98299273D01*
X125749984Y-98299438D01*
X125749986Y-98299741D01*
X125750000Y-98300070D01*
X125749990Y-98300250D01*
X125749991Y-98300415D01*
X125749963Y-98300722D01*
X125749945Y-98301045D01*
X125749918Y-98301217D01*
X125749903Y-98301388D01*
X125749845Y-98301695D01*
X125749796Y-98302011D01*
X125749753Y-98302178D01*
X125749721Y-98302347D01*
X125749633Y-98302647D01*
X125749553Y-98302957D01*
X125749492Y-98303126D01*
X125749445Y-98303284D01*
X125749329Y-98303572D01*
X125749219Y-98303875D01*
X125749146Y-98304027D01*
X125749080Y-98304191D01*
X125748925Y-98304487D01*
X125748796Y-98304756D01*
X125748711Y-98304897D01*
X125748627Y-98305057D01*
X125748446Y-98305334D01*
X125748290Y-98305592D01*
X125748194Y-98305721D01*
X125748093Y-98305875D01*
X125747887Y-98306131D01*
X125747705Y-98306374D01*
X125747586Y-98306504D01*
X125747480Y-98306636D01*
X125747265Y-98306856D01*
X125747046Y-98307096D01*
X125746918Y-98307211D01*
X125746798Y-98307334D01*
X125746548Y-98307544D01*
X125746320Y-98307749D01*
X125746187Y-98307847D01*
X125746049Y-98307963D01*
X125745785Y-98308144D01*
X125745534Y-98308329D01*
X125745384Y-98308418D01*
X125745243Y-98308515D01*
X125744964Y-98308669D01*
X125744695Y-98308829D01*
X125744544Y-98308900D01*
X125744388Y-98308986D01*
X125744080Y-98309118D01*
X125743811Y-98309245D01*
X125743662Y-98309298D01*
X125743490Y-98309372D01*
X125743167Y-98309474D01*
X125742890Y-98309573D01*
X125742727Y-98309614D01*
X125742559Y-98309667D01*
X125742252Y-98309733D01*
X125741942Y-98309810D01*
X125741771Y-98309835D01*
X125741603Y-98309871D01*
X125741291Y-98309906D01*
X125740976Y-98309952D01*
X125740794Y-98309961D01*
X125740632Y-98309979D01*
X125740334Y-98309984D01*
X125740000Y-98310000D01*
X124939930Y-98310000D01*
X124939920Y-98309999D01*
X124939920Y-98309999D01*
G37*
D10*
X128810000Y-98050000D03*
D11*
G36*
X129060080Y-96690001D02*
G01*
X129060140Y-96690001D01*
X129060619Y-96690031D01*
X129061045Y-96690055D01*
X129061074Y-96690059D01*
X129061115Y-96690062D01*
X129061556Y-96690134D01*
X129062011Y-96690204D01*
X129062053Y-96690215D01*
X129062079Y-96690219D01*
X129062452Y-96690317D01*
X129062957Y-96690447D01*
X129062990Y-96690459D01*
X129063024Y-96690468D01*
X129063406Y-96690610D01*
X129063875Y-96690781D01*
X129063914Y-96690800D01*
X129063939Y-96690809D01*
X129064341Y-96691005D01*
X129064756Y-96691204D01*
X129064780Y-96691218D01*
X129064818Y-96691237D01*
X129065265Y-96691512D01*
X129065592Y-96691710D01*
X129065617Y-96691729D01*
X129065650Y-96691749D01*
X129066025Y-96692034D01*
X129066374Y-96692295D01*
X129066400Y-96692319D01*
X129066428Y-96692340D01*
X129066787Y-96692672D01*
X129067096Y-96692954D01*
X129067116Y-96692976D01*
X129067145Y-96693003D01*
X129067465Y-96693364D01*
X129067749Y-96693680D01*
X129067768Y-96693706D01*
X129067793Y-96693734D01*
X129068093Y-96694147D01*
X129068329Y-96694466D01*
X129068344Y-96694490D01*
X129068368Y-96694524D01*
X129068629Y-96694970D01*
X129068829Y-96695305D01*
X129068843Y-96695334D01*
X129068862Y-96695367D01*
X129069066Y-96695809D01*
X129069245Y-96696189D01*
X129069255Y-96696218D01*
X129069272Y-96696254D01*
X129069411Y-96696655D01*
X129069573Y-96697110D01*
X129069581Y-96697144D01*
X129069593Y-96697177D01*
X129069696Y-96697602D01*
X129069810Y-96698058D01*
X129069815Y-96698094D01*
X129069823Y-96698126D01*
X129069888Y-96698588D01*
X129069952Y-96699024D01*
X129069954Y-96699055D01*
X129069959Y-96699094D01*
X129069977Y-96699530D01*
X129070000Y-96700000D01*
X129070000Y-98300000D01*
X129069999Y-98300140D01*
X129069972Y-98300566D01*
X129069945Y-98301045D01*
X129069941Y-98301074D01*
X129069938Y-98301115D01*
X129069866Y-98301556D01*
X129069796Y-98302011D01*
X129069785Y-98302053D01*
X129069781Y-98302079D01*
X129069683Y-98302452D01*
X129069553Y-98302957D01*
X129069541Y-98302990D01*
X129069532Y-98303024D01*
X129069390Y-98303406D01*
X129069219Y-98303875D01*
X129069202Y-98303910D01*
X129069191Y-98303939D01*
X129068995Y-98304341D01*
X129068796Y-98304756D01*
X129068782Y-98304780D01*
X129068763Y-98304818D01*
X129068488Y-98305265D01*
X129068290Y-98305592D01*
X129068271Y-98305617D01*
X129068251Y-98305650D01*
X129067963Y-98306030D01*
X129067705Y-98306374D01*
X129067681Y-98306400D01*
X129067660Y-98306428D01*
X129067328Y-98306787D01*
X129067046Y-98307096D01*
X129067024Y-98307116D01*
X129066997Y-98307145D01*
X129066646Y-98307456D01*
X129066320Y-98307749D01*
X129066294Y-98307768D01*
X129066266Y-98307793D01*
X129065853Y-98308093D01*
X129065534Y-98308329D01*
X129065510Y-98308344D01*
X129065476Y-98308368D01*
X129065030Y-98308629D01*
X129064695Y-98308829D01*
X129064666Y-98308843D01*
X129064633Y-98308862D01*
X129064175Y-98309074D01*
X129063811Y-98309245D01*
X129063782Y-98309255D01*
X129063746Y-98309272D01*
X129063285Y-98309432D01*
X129062890Y-98309573D01*
X129062856Y-98309581D01*
X129062823Y-98309593D01*
X129062398Y-98309696D01*
X129061942Y-98309810D01*
X129061906Y-98309815D01*
X129061874Y-98309823D01*
X129061412Y-98309888D01*
X129060976Y-98309952D01*
X129060945Y-98309954D01*
X129060906Y-98309959D01*
X129060410Y-98309980D01*
X129060000Y-98310000D01*
X128263674Y-98310000D01*
X128263029Y-98310298D01*
X128262106Y-98310618D01*
X128261157Y-98310848D01*
X128260189Y-98310983D01*
X128259213Y-98311024D01*
X128258237Y-98310969D01*
X128257272Y-98310819D01*
X128256325Y-98310575D01*
X128255408Y-98310241D01*
X128254527Y-98309818D01*
X128253691Y-98309312D01*
X128252910Y-98308726D01*
X128252188Y-98308067D01*
X128251535Y-98307341D01*
X128250955Y-98306555D01*
X128250456Y-98305715D01*
X128250040Y-98304830D01*
X128249713Y-98303910D01*
X128249477Y-98302962D01*
X128249335Y-98301995D01*
X128249287Y-98301020D01*
X128249335Y-98300044D01*
X128249479Y-98299078D01*
X128249715Y-98298129D01*
X128250043Y-98297209D01*
X128250460Y-98296326D01*
X128250960Y-98295486D01*
X128284613Y-98244883D01*
X128351751Y-98126582D01*
X128406967Y-98002420D01*
X128449805Y-97873457D01*
X128479853Y-97740937D01*
X128496828Y-97606109D01*
X128500000Y-97490767D01*
X128500000Y-97462266D01*
X128491026Y-97334723D01*
X128468307Y-97200750D01*
X128432623Y-97069632D01*
X128384313Y-96942617D01*
X128323842Y-96820928D01*
X128251522Y-96705303D01*
X128251448Y-96705184D01*
X128251292Y-96704896D01*
X128251138Y-96704633D01*
X128251069Y-96704485D01*
X128250983Y-96704325D01*
X128250859Y-96704029D01*
X128250728Y-96703746D01*
X128250669Y-96703578D01*
X128250605Y-96703424D01*
X128250512Y-96703126D01*
X128250407Y-96702823D01*
X128250367Y-96702660D01*
X128250315Y-96702491D01*
X128250252Y-96702184D01*
X128250177Y-96701874D01*
X128250152Y-96701693D01*
X128250119Y-96701534D01*
X128250088Y-96701238D01*
X128250041Y-96700906D01*
X128250033Y-96700727D01*
X128250016Y-96700562D01*
X128250014Y-96700259D01*
X128250000Y-96699930D01*
X128250010Y-96699750D01*
X128250009Y-96699585D01*
X128250037Y-96699278D01*
X128250055Y-96698955D01*
X128250082Y-96698783D01*
X128250097Y-96698612D01*
X128250155Y-96698305D01*
X128250204Y-96697989D01*
X128250247Y-96697822D01*
X128250279Y-96697653D01*
X128250367Y-96697353D01*
X128250447Y-96697043D01*
X128250508Y-96696874D01*
X128250555Y-96696716D01*
X128250671Y-96696428D01*
X128250781Y-96696125D01*
X128250854Y-96695973D01*
X128250920Y-96695809D01*
X128251075Y-96695513D01*
X128251204Y-96695244D01*
X128251289Y-96695103D01*
X128251373Y-96694943D01*
X128251554Y-96694666D01*
X128251710Y-96694408D01*
X128251806Y-96694279D01*
X128251907Y-96694125D01*
X128252113Y-96693869D01*
X128252295Y-96693626D01*
X128252414Y-96693496D01*
X128252520Y-96693364D01*
X128252735Y-96693144D01*
X128252954Y-96692904D01*
X128253082Y-96692789D01*
X128253202Y-96692666D01*
X128253452Y-96692456D01*
X128253680Y-96692251D01*
X128253813Y-96692153D01*
X128253951Y-96692037D01*
X128254215Y-96691856D01*
X128254466Y-96691671D01*
X128254616Y-96691582D01*
X128254757Y-96691485D01*
X128255036Y-96691331D01*
X128255305Y-96691171D01*
X128255456Y-96691100D01*
X128255612Y-96691014D01*
X128255920Y-96690882D01*
X128256189Y-96690755D01*
X128256338Y-96690702D01*
X128256510Y-96690628D01*
X128256833Y-96690526D01*
X128257110Y-96690427D01*
X128257273Y-96690386D01*
X128257441Y-96690333D01*
X128257748Y-96690267D01*
X128258058Y-96690190D01*
X128258229Y-96690165D01*
X128258397Y-96690129D01*
X128258709Y-96690094D01*
X128259024Y-96690048D01*
X128259206Y-96690039D01*
X128259368Y-96690021D01*
X128259666Y-96690016D01*
X128260000Y-96690000D01*
X129060070Y-96690000D01*
X129060080Y-96690001D01*
X129060080Y-96690001D01*
G37*
D12*
X132650000Y-77525000D03*
X132650000Y-72475000D03*
X135190000Y-77525000D03*
X135190000Y-72475000D03*
X137730000Y-77525000D03*
X137730000Y-72475000D03*
X140270000Y-77525000D03*
X140270000Y-72475000D03*
X142810000Y-77525000D03*
X142810000Y-72475000D03*
X145350000Y-77525000D03*
X145350000Y-72475000D03*
D11*
G36*
X126435779Y-55526144D02*
G01*
X126458834Y-55529563D01*
X126481443Y-55535227D01*
X126503387Y-55543079D01*
X126524457Y-55553044D01*
X126544448Y-55565026D01*
X126563168Y-55578910D01*
X126580438Y-55594562D01*
X126596090Y-55611832D01*
X126609974Y-55630552D01*
X126621956Y-55650543D01*
X126631921Y-55671613D01*
X126639773Y-55693557D01*
X126645437Y-55716166D01*
X126648856Y-55739221D01*
X126650000Y-55762500D01*
X126650000Y-56237500D01*
X126648856Y-56260779D01*
X126645437Y-56283834D01*
X126639773Y-56306443D01*
X126631921Y-56328387D01*
X126621956Y-56349457D01*
X126609974Y-56369448D01*
X126596090Y-56388168D01*
X126580438Y-56405438D01*
X126563168Y-56421090D01*
X126544448Y-56434974D01*
X126524457Y-56446956D01*
X126503387Y-56456921D01*
X126481443Y-56464773D01*
X126458834Y-56470437D01*
X126435779Y-56473856D01*
X126412500Y-56475000D01*
X125837500Y-56475000D01*
X125814221Y-56473856D01*
X125791166Y-56470437D01*
X125768557Y-56464773D01*
X125746613Y-56456921D01*
X125725543Y-56446956D01*
X125705552Y-56434974D01*
X125686832Y-56421090D01*
X125669562Y-56405438D01*
X125653910Y-56388168D01*
X125640026Y-56369448D01*
X125628044Y-56349457D01*
X125618079Y-56328387D01*
X125610227Y-56306443D01*
X125604563Y-56283834D01*
X125601144Y-56260779D01*
X125600000Y-56237500D01*
X125600000Y-55762500D01*
X125601144Y-55739221D01*
X125604563Y-55716166D01*
X125610227Y-55693557D01*
X125618079Y-55671613D01*
X125628044Y-55650543D01*
X125640026Y-55630552D01*
X125653910Y-55611832D01*
X125669562Y-55594562D01*
X125686832Y-55578910D01*
X125705552Y-55565026D01*
X125725543Y-55553044D01*
X125746613Y-55543079D01*
X125768557Y-55535227D01*
X125791166Y-55529563D01*
X125814221Y-55526144D01*
X125837500Y-55525000D01*
X126412500Y-55525000D01*
X126435779Y-55526144D01*
X126435779Y-55526144D01*
G37*
D13*
X126125000Y-56000000D03*
D11*
G36*
X128185779Y-55526144D02*
G01*
X128208834Y-55529563D01*
X128231443Y-55535227D01*
X128253387Y-55543079D01*
X128274457Y-55553044D01*
X128294448Y-55565026D01*
X128313168Y-55578910D01*
X128330438Y-55594562D01*
X128346090Y-55611832D01*
X128359974Y-55630552D01*
X128371956Y-55650543D01*
X128381921Y-55671613D01*
X128389773Y-55693557D01*
X128395437Y-55716166D01*
X128398856Y-55739221D01*
X128400000Y-55762500D01*
X128400000Y-56237500D01*
X128398856Y-56260779D01*
X128395437Y-56283834D01*
X128389773Y-56306443D01*
X128381921Y-56328387D01*
X128371956Y-56349457D01*
X128359974Y-56369448D01*
X128346090Y-56388168D01*
X128330438Y-56405438D01*
X128313168Y-56421090D01*
X128294448Y-56434974D01*
X128274457Y-56446956D01*
X128253387Y-56456921D01*
X128231443Y-56464773D01*
X128208834Y-56470437D01*
X128185779Y-56473856D01*
X128162500Y-56475000D01*
X127587500Y-56475000D01*
X127564221Y-56473856D01*
X127541166Y-56470437D01*
X127518557Y-56464773D01*
X127496613Y-56456921D01*
X127475543Y-56446956D01*
X127455552Y-56434974D01*
X127436832Y-56421090D01*
X127419562Y-56405438D01*
X127403910Y-56388168D01*
X127390026Y-56369448D01*
X127378044Y-56349457D01*
X127368079Y-56328387D01*
X127360227Y-56306443D01*
X127354563Y-56283834D01*
X127351144Y-56260779D01*
X127350000Y-56237500D01*
X127350000Y-55762500D01*
X127351144Y-55739221D01*
X127354563Y-55716166D01*
X127360227Y-55693557D01*
X127368079Y-55671613D01*
X127378044Y-55650543D01*
X127390026Y-55630552D01*
X127403910Y-55611832D01*
X127419562Y-55594562D01*
X127436832Y-55578910D01*
X127455552Y-55565026D01*
X127475543Y-55553044D01*
X127496613Y-55543079D01*
X127518557Y-55535227D01*
X127541166Y-55529563D01*
X127564221Y-55526144D01*
X127587500Y-55525000D01*
X128162500Y-55525000D01*
X128185779Y-55526144D01*
X128185779Y-55526144D01*
G37*
D13*
X127875000Y-56000000D03*
D11*
G36*
X126435779Y-70526144D02*
G01*
X126458834Y-70529563D01*
X126481443Y-70535227D01*
X126503387Y-70543079D01*
X126524457Y-70553044D01*
X126544448Y-70565026D01*
X126563168Y-70578910D01*
X126580438Y-70594562D01*
X126596090Y-70611832D01*
X126609974Y-70630552D01*
X126621956Y-70650543D01*
X126631921Y-70671613D01*
X126639773Y-70693557D01*
X126645437Y-70716166D01*
X126648856Y-70739221D01*
X126650000Y-70762500D01*
X126650000Y-71237500D01*
X126648856Y-71260779D01*
X126645437Y-71283834D01*
X126639773Y-71306443D01*
X126631921Y-71328387D01*
X126621956Y-71349457D01*
X126609974Y-71369448D01*
X126596090Y-71388168D01*
X126580438Y-71405438D01*
X126563168Y-71421090D01*
X126544448Y-71434974D01*
X126524457Y-71446956D01*
X126503387Y-71456921D01*
X126481443Y-71464773D01*
X126458834Y-71470437D01*
X126435779Y-71473856D01*
X126412500Y-71475000D01*
X125837500Y-71475000D01*
X125814221Y-71473856D01*
X125791166Y-71470437D01*
X125768557Y-71464773D01*
X125746613Y-71456921D01*
X125725543Y-71446956D01*
X125705552Y-71434974D01*
X125686832Y-71421090D01*
X125669562Y-71405438D01*
X125653910Y-71388168D01*
X125640026Y-71369448D01*
X125628044Y-71349457D01*
X125618079Y-71328387D01*
X125610227Y-71306443D01*
X125604563Y-71283834D01*
X125601144Y-71260779D01*
X125600000Y-71237500D01*
X125600000Y-70762500D01*
X125601144Y-70739221D01*
X125604563Y-70716166D01*
X125610227Y-70693557D01*
X125618079Y-70671613D01*
X125628044Y-70650543D01*
X125640026Y-70630552D01*
X125653910Y-70611832D01*
X125669562Y-70594562D01*
X125686832Y-70578910D01*
X125705552Y-70565026D01*
X125725543Y-70553044D01*
X125746613Y-70543079D01*
X125768557Y-70535227D01*
X125791166Y-70529563D01*
X125814221Y-70526144D01*
X125837500Y-70525000D01*
X126412500Y-70525000D01*
X126435779Y-70526144D01*
X126435779Y-70526144D01*
G37*
D13*
X126125000Y-71000000D03*
D11*
G36*
X128185779Y-70526144D02*
G01*
X128208834Y-70529563D01*
X128231443Y-70535227D01*
X128253387Y-70543079D01*
X128274457Y-70553044D01*
X128294448Y-70565026D01*
X128313168Y-70578910D01*
X128330438Y-70594562D01*
X128346090Y-70611832D01*
X128359974Y-70630552D01*
X128371956Y-70650543D01*
X128381921Y-70671613D01*
X128389773Y-70693557D01*
X128395437Y-70716166D01*
X128398856Y-70739221D01*
X128400000Y-70762500D01*
X128400000Y-71237500D01*
X128398856Y-71260779D01*
X128395437Y-71283834D01*
X128389773Y-71306443D01*
X128381921Y-71328387D01*
X128371956Y-71349457D01*
X128359974Y-71369448D01*
X128346090Y-71388168D01*
X128330438Y-71405438D01*
X128313168Y-71421090D01*
X128294448Y-71434974D01*
X128274457Y-71446956D01*
X128253387Y-71456921D01*
X128231443Y-71464773D01*
X128208834Y-71470437D01*
X128185779Y-71473856D01*
X128162500Y-71475000D01*
X127587500Y-71475000D01*
X127564221Y-71473856D01*
X127541166Y-71470437D01*
X127518557Y-71464773D01*
X127496613Y-71456921D01*
X127475543Y-71446956D01*
X127455552Y-71434974D01*
X127436832Y-71421090D01*
X127419562Y-71405438D01*
X127403910Y-71388168D01*
X127390026Y-71369448D01*
X127378044Y-71349457D01*
X127368079Y-71328387D01*
X127360227Y-71306443D01*
X127354563Y-71283834D01*
X127351144Y-71260779D01*
X127350000Y-71237500D01*
X127350000Y-70762500D01*
X127351144Y-70739221D01*
X127354563Y-70716166D01*
X127360227Y-70693557D01*
X127368079Y-70671613D01*
X127378044Y-70650543D01*
X127390026Y-70630552D01*
X127403910Y-70611832D01*
X127419562Y-70594562D01*
X127436832Y-70578910D01*
X127455552Y-70565026D01*
X127475543Y-70553044D01*
X127496613Y-70543079D01*
X127518557Y-70535227D01*
X127541166Y-70529563D01*
X127564221Y-70526144D01*
X127587500Y-70525000D01*
X128162500Y-70525000D01*
X128185779Y-70526144D01*
X128185779Y-70526144D01*
G37*
D13*
X127875000Y-71000000D03*
D11*
G36*
X126435779Y-78526144D02*
G01*
X126458834Y-78529563D01*
X126481443Y-78535227D01*
X126503387Y-78543079D01*
X126524457Y-78553044D01*
X126544448Y-78565026D01*
X126563168Y-78578910D01*
X126580438Y-78594562D01*
X126596090Y-78611832D01*
X126609974Y-78630552D01*
X126621956Y-78650543D01*
X126631921Y-78671613D01*
X126639773Y-78693557D01*
X126645437Y-78716166D01*
X126648856Y-78739221D01*
X126650000Y-78762500D01*
X126650000Y-79237500D01*
X126648856Y-79260779D01*
X126645437Y-79283834D01*
X126639773Y-79306443D01*
X126631921Y-79328387D01*
X126621956Y-79349457D01*
X126609974Y-79369448D01*
X126596090Y-79388168D01*
X126580438Y-79405438D01*
X126563168Y-79421090D01*
X126544448Y-79434974D01*
X126524457Y-79446956D01*
X126503387Y-79456921D01*
X126481443Y-79464773D01*
X126458834Y-79470437D01*
X126435779Y-79473856D01*
X126412500Y-79475000D01*
X125837500Y-79475000D01*
X125814221Y-79473856D01*
X125791166Y-79470437D01*
X125768557Y-79464773D01*
X125746613Y-79456921D01*
X125725543Y-79446956D01*
X125705552Y-79434974D01*
X125686832Y-79421090D01*
X125669562Y-79405438D01*
X125653910Y-79388168D01*
X125640026Y-79369448D01*
X125628044Y-79349457D01*
X125618079Y-79328387D01*
X125610227Y-79306443D01*
X125604563Y-79283834D01*
X125601144Y-79260779D01*
X125600000Y-79237500D01*
X125600000Y-78762500D01*
X125601144Y-78739221D01*
X125604563Y-78716166D01*
X125610227Y-78693557D01*
X125618079Y-78671613D01*
X125628044Y-78650543D01*
X125640026Y-78630552D01*
X125653910Y-78611832D01*
X125669562Y-78594562D01*
X125686832Y-78578910D01*
X125705552Y-78565026D01*
X125725543Y-78553044D01*
X125746613Y-78543079D01*
X125768557Y-78535227D01*
X125791166Y-78529563D01*
X125814221Y-78526144D01*
X125837500Y-78525000D01*
X126412500Y-78525000D01*
X126435779Y-78526144D01*
X126435779Y-78526144D01*
G37*
D13*
X126125000Y-79000000D03*
D11*
G36*
X128185779Y-78526144D02*
G01*
X128208834Y-78529563D01*
X128231443Y-78535227D01*
X128253387Y-78543079D01*
X128274457Y-78553044D01*
X128294448Y-78565026D01*
X128313168Y-78578910D01*
X128330438Y-78594562D01*
X128346090Y-78611832D01*
X128359974Y-78630552D01*
X128371956Y-78650543D01*
X128381921Y-78671613D01*
X128389773Y-78693557D01*
X128395437Y-78716166D01*
X128398856Y-78739221D01*
X128400000Y-78762500D01*
X128400000Y-79237500D01*
X128398856Y-79260779D01*
X128395437Y-79283834D01*
X128389773Y-79306443D01*
X128381921Y-79328387D01*
X128371956Y-79349457D01*
X128359974Y-79369448D01*
X128346090Y-79388168D01*
X128330438Y-79405438D01*
X128313168Y-79421090D01*
X128294448Y-79434974D01*
X128274457Y-79446956D01*
X128253387Y-79456921D01*
X128231443Y-79464773D01*
X128208834Y-79470437D01*
X128185779Y-79473856D01*
X128162500Y-79475000D01*
X127587500Y-79475000D01*
X127564221Y-79473856D01*
X127541166Y-79470437D01*
X127518557Y-79464773D01*
X127496613Y-79456921D01*
X127475543Y-79446956D01*
X127455552Y-79434974D01*
X127436832Y-79421090D01*
X127419562Y-79405438D01*
X127403910Y-79388168D01*
X127390026Y-79369448D01*
X127378044Y-79349457D01*
X127368079Y-79328387D01*
X127360227Y-79306443D01*
X127354563Y-79283834D01*
X127351144Y-79260779D01*
X127350000Y-79237500D01*
X127350000Y-78762500D01*
X127351144Y-78739221D01*
X127354563Y-78716166D01*
X127360227Y-78693557D01*
X127368079Y-78671613D01*
X127378044Y-78650543D01*
X127390026Y-78630552D01*
X127403910Y-78611832D01*
X127419562Y-78594562D01*
X127436832Y-78578910D01*
X127455552Y-78565026D01*
X127475543Y-78553044D01*
X127496613Y-78543079D01*
X127518557Y-78535227D01*
X127541166Y-78529563D01*
X127564221Y-78526144D01*
X127587500Y-78525000D01*
X128162500Y-78525000D01*
X128185779Y-78526144D01*
X128185779Y-78526144D01*
G37*
D13*
X127875000Y-79000000D03*
D11*
G36*
X126435779Y-93526144D02*
G01*
X126458834Y-93529563D01*
X126481443Y-93535227D01*
X126503387Y-93543079D01*
X126524457Y-93553044D01*
X126544448Y-93565026D01*
X126563168Y-93578910D01*
X126580438Y-93594562D01*
X126596090Y-93611832D01*
X126609974Y-93630552D01*
X126621956Y-93650543D01*
X126631921Y-93671613D01*
X126639773Y-93693557D01*
X126645437Y-93716166D01*
X126648856Y-93739221D01*
X126650000Y-93762500D01*
X126650000Y-94237500D01*
X126648856Y-94260779D01*
X126645437Y-94283834D01*
X126639773Y-94306443D01*
X126631921Y-94328387D01*
X126621956Y-94349457D01*
X126609974Y-94369448D01*
X126596090Y-94388168D01*
X126580438Y-94405438D01*
X126563168Y-94421090D01*
X126544448Y-94434974D01*
X126524457Y-94446956D01*
X126503387Y-94456921D01*
X126481443Y-94464773D01*
X126458834Y-94470437D01*
X126435779Y-94473856D01*
X126412500Y-94475000D01*
X125837500Y-94475000D01*
X125814221Y-94473856D01*
X125791166Y-94470437D01*
X125768557Y-94464773D01*
X125746613Y-94456921D01*
X125725543Y-94446956D01*
X125705552Y-94434974D01*
X125686832Y-94421090D01*
X125669562Y-94405438D01*
X125653910Y-94388168D01*
X125640026Y-94369448D01*
X125628044Y-94349457D01*
X125618079Y-94328387D01*
X125610227Y-94306443D01*
X125604563Y-94283834D01*
X125601144Y-94260779D01*
X125600000Y-94237500D01*
X125600000Y-93762500D01*
X125601144Y-93739221D01*
X125604563Y-93716166D01*
X125610227Y-93693557D01*
X125618079Y-93671613D01*
X125628044Y-93650543D01*
X125640026Y-93630552D01*
X125653910Y-93611832D01*
X125669562Y-93594562D01*
X125686832Y-93578910D01*
X125705552Y-93565026D01*
X125725543Y-93553044D01*
X125746613Y-93543079D01*
X125768557Y-93535227D01*
X125791166Y-93529563D01*
X125814221Y-93526144D01*
X125837500Y-93525000D01*
X126412500Y-93525000D01*
X126435779Y-93526144D01*
X126435779Y-93526144D01*
G37*
D13*
X126125000Y-94000000D03*
D11*
G36*
X128185779Y-93526144D02*
G01*
X128208834Y-93529563D01*
X128231443Y-93535227D01*
X128253387Y-93543079D01*
X128274457Y-93553044D01*
X128294448Y-93565026D01*
X128313168Y-93578910D01*
X128330438Y-93594562D01*
X128346090Y-93611832D01*
X128359974Y-93630552D01*
X128371956Y-93650543D01*
X128381921Y-93671613D01*
X128389773Y-93693557D01*
X128395437Y-93716166D01*
X128398856Y-93739221D01*
X128400000Y-93762500D01*
X128400000Y-94237500D01*
X128398856Y-94260779D01*
X128395437Y-94283834D01*
X128389773Y-94306443D01*
X128381921Y-94328387D01*
X128371956Y-94349457D01*
X128359974Y-94369448D01*
X128346090Y-94388168D01*
X128330438Y-94405438D01*
X128313168Y-94421090D01*
X128294448Y-94434974D01*
X128274457Y-94446956D01*
X128253387Y-94456921D01*
X128231443Y-94464773D01*
X128208834Y-94470437D01*
X128185779Y-94473856D01*
X128162500Y-94475000D01*
X127587500Y-94475000D01*
X127564221Y-94473856D01*
X127541166Y-94470437D01*
X127518557Y-94464773D01*
X127496613Y-94456921D01*
X127475543Y-94446956D01*
X127455552Y-94434974D01*
X127436832Y-94421090D01*
X127419562Y-94405438D01*
X127403910Y-94388168D01*
X127390026Y-94369448D01*
X127378044Y-94349457D01*
X127368079Y-94328387D01*
X127360227Y-94306443D01*
X127354563Y-94283834D01*
X127351144Y-94260779D01*
X127350000Y-94237500D01*
X127350000Y-93762500D01*
X127351144Y-93739221D01*
X127354563Y-93716166D01*
X127360227Y-93693557D01*
X127368079Y-93671613D01*
X127378044Y-93650543D01*
X127390026Y-93630552D01*
X127403910Y-93611832D01*
X127419562Y-93594562D01*
X127436832Y-93578910D01*
X127455552Y-93565026D01*
X127475543Y-93553044D01*
X127496613Y-93543079D01*
X127518557Y-93535227D01*
X127541166Y-93529563D01*
X127564221Y-93526144D01*
X127587500Y-93525000D01*
X128162500Y-93525000D01*
X128185779Y-93526144D01*
X128185779Y-93526144D01*
G37*
D13*
X127875000Y-94000000D03*
D11*
G36*
X164260779Y-74351144D02*
G01*
X164283834Y-74354563D01*
X164306443Y-74360227D01*
X164328387Y-74368079D01*
X164349457Y-74378044D01*
X164369448Y-74390026D01*
X164388168Y-74403910D01*
X164405438Y-74419562D01*
X164421090Y-74436832D01*
X164434974Y-74455552D01*
X164446956Y-74475543D01*
X164456921Y-74496613D01*
X164464773Y-74518557D01*
X164470437Y-74541166D01*
X164473856Y-74564221D01*
X164475000Y-74587500D01*
X164475000Y-75162500D01*
X164473856Y-75185779D01*
X164470437Y-75208834D01*
X164464773Y-75231443D01*
X164456921Y-75253387D01*
X164446956Y-75274457D01*
X164434974Y-75294448D01*
X164421090Y-75313168D01*
X164405438Y-75330438D01*
X164388168Y-75346090D01*
X164369448Y-75359974D01*
X164349457Y-75371956D01*
X164328387Y-75381921D01*
X164306443Y-75389773D01*
X164283834Y-75395437D01*
X164260779Y-75398856D01*
X164237500Y-75400000D01*
X163762500Y-75400000D01*
X163739221Y-75398856D01*
X163716166Y-75395437D01*
X163693557Y-75389773D01*
X163671613Y-75381921D01*
X163650543Y-75371956D01*
X163630552Y-75359974D01*
X163611832Y-75346090D01*
X163594562Y-75330438D01*
X163578910Y-75313168D01*
X163565026Y-75294448D01*
X163553044Y-75274457D01*
X163543079Y-75253387D01*
X163535227Y-75231443D01*
X163529563Y-75208834D01*
X163526144Y-75185779D01*
X163525000Y-75162500D01*
X163525000Y-74587500D01*
X163526144Y-74564221D01*
X163529563Y-74541166D01*
X163535227Y-74518557D01*
X163543079Y-74496613D01*
X163553044Y-74475543D01*
X163565026Y-74455552D01*
X163578910Y-74436832D01*
X163594562Y-74419562D01*
X163611832Y-74403910D01*
X163630552Y-74390026D01*
X163650543Y-74378044D01*
X163671613Y-74368079D01*
X163693557Y-74360227D01*
X163716166Y-74354563D01*
X163739221Y-74351144D01*
X163762500Y-74350000D01*
X164237500Y-74350000D01*
X164260779Y-74351144D01*
X164260779Y-74351144D01*
G37*
D13*
X164000000Y-74875000D03*
D11*
G36*
X164260779Y-72601144D02*
G01*
X164283834Y-72604563D01*
X164306443Y-72610227D01*
X164328387Y-72618079D01*
X164349457Y-72628044D01*
X164369448Y-72640026D01*
X164388168Y-72653910D01*
X164405438Y-72669562D01*
X164421090Y-72686832D01*
X164434974Y-72705552D01*
X164446956Y-72725543D01*
X164456921Y-72746613D01*
X164464773Y-72768557D01*
X164470437Y-72791166D01*
X164473856Y-72814221D01*
X164475000Y-72837500D01*
X164475000Y-73412500D01*
X164473856Y-73435779D01*
X164470437Y-73458834D01*
X164464773Y-73481443D01*
X164456921Y-73503387D01*
X164446956Y-73524457D01*
X164434974Y-73544448D01*
X164421090Y-73563168D01*
X164405438Y-73580438D01*
X164388168Y-73596090D01*
X164369448Y-73609974D01*
X164349457Y-73621956D01*
X164328387Y-73631921D01*
X164306443Y-73639773D01*
X164283834Y-73645437D01*
X164260779Y-73648856D01*
X164237500Y-73650000D01*
X163762500Y-73650000D01*
X163739221Y-73648856D01*
X163716166Y-73645437D01*
X163693557Y-73639773D01*
X163671613Y-73631921D01*
X163650543Y-73621956D01*
X163630552Y-73609974D01*
X163611832Y-73596090D01*
X163594562Y-73580438D01*
X163578910Y-73563168D01*
X163565026Y-73544448D01*
X163553044Y-73524457D01*
X163543079Y-73503387D01*
X163535227Y-73481443D01*
X163529563Y-73458834D01*
X163526144Y-73435779D01*
X163525000Y-73412500D01*
X163525000Y-72837500D01*
X163526144Y-72814221D01*
X163529563Y-72791166D01*
X163535227Y-72768557D01*
X163543079Y-72746613D01*
X163553044Y-72725543D01*
X163565026Y-72705552D01*
X163578910Y-72686832D01*
X163594562Y-72669562D01*
X163611832Y-72653910D01*
X163630552Y-72640026D01*
X163650543Y-72628044D01*
X163671613Y-72618079D01*
X163693557Y-72610227D01*
X163716166Y-72604563D01*
X163739221Y-72601144D01*
X163762500Y-72600000D01*
X164237500Y-72600000D01*
X164260779Y-72601144D01*
X164260779Y-72601144D01*
G37*
D13*
X164000000Y-73125000D03*
M02*
