G04 #@! TF.GenerationSoftware,KiCad,Pcbnew,(5.1.4)-1*
G04 #@! TF.CreationDate,2020-04-17T22:20:22+02:00*
G04 #@! TF.ProjectId,Frontplatte,46726f6e-7470-46c6-9174-74652e6b6963,rev?*
G04 #@! TF.SameCoordinates,Original*
G04 #@! TF.FileFunction,Soldermask,Top*
G04 #@! TF.FilePolarity,Negative*
%FSLAX46Y46*%
G04 Gerber Fmt 4.6, Leading zero omitted, Abs format (unit mm)*
G04 Created by KiCad (PCBNEW (5.1.4)-1) date 2020-04-17 22:20:22*
%MOMM*%
%LPD*%
G04 APERTURE LIST*
%ADD10C,0.100000*%
G04 APERTURE END LIST*
D10*
G36*
X127350318Y-96345153D02*
G01*
X127568885Y-96435687D01*
X127568887Y-96435688D01*
X127765593Y-96567122D01*
X127932878Y-96734407D01*
X127939921Y-96744948D01*
X127970894Y-96791302D01*
X127986440Y-96810244D01*
X128005382Y-96825789D01*
X128026993Y-96837340D01*
X128050442Y-96844453D01*
X128074828Y-96846855D01*
X128099214Y-96844453D01*
X128122663Y-96837340D01*
X128144273Y-96825789D01*
X128163215Y-96810243D01*
X128178760Y-96791301D01*
X128190311Y-96769690D01*
X128197424Y-96746241D01*
X128198881Y-96731454D01*
X128199075Y-96730518D01*
X128199076Y-96729472D01*
X128199826Y-96721855D01*
X128199086Y-96714019D01*
X128199092Y-96705156D01*
X128199018Y-96705163D01*
X128198966Y-96704594D01*
X128198976Y-96703161D01*
X128198934Y-96702958D01*
X128198953Y-96702764D01*
X128198810Y-96701422D01*
X128198806Y-96700871D01*
X128198918Y-96700870D01*
X128198827Y-96699883D01*
X128198798Y-96699883D01*
X128198796Y-96699545D01*
X128198712Y-96698641D01*
X128198881Y-96695145D01*
X128199266Y-96693199D01*
X128199179Y-96693190D01*
X128199238Y-96692629D01*
X128199519Y-96691259D01*
X128199518Y-96691094D01*
X128199568Y-96690928D01*
X128199693Y-96689543D01*
X128199797Y-96688995D01*
X128199892Y-96689013D01*
X128199997Y-96688016D01*
X128199983Y-96688013D01*
X128200014Y-96687852D01*
X128200116Y-96686873D01*
X128200975Y-96683419D01*
X128201348Y-96682513D01*
X128201365Y-96682459D01*
X128201370Y-96682461D01*
X128201763Y-96681505D01*
X128201669Y-96681476D01*
X128201834Y-96680944D01*
X128202373Y-96679665D01*
X128202393Y-96679558D01*
X128202456Y-96679439D01*
X128202867Y-96678039D01*
X128203078Y-96677515D01*
X128203159Y-96677548D01*
X128203450Y-96676607D01*
X128203446Y-96676605D01*
X128203465Y-96676558D01*
X128203755Y-96675621D01*
X128205382Y-96672163D01*
X128205902Y-96671381D01*
X128205912Y-96671363D01*
X128205914Y-96671364D01*
X128206457Y-96670548D01*
X128206376Y-96670504D01*
X128206639Y-96670018D01*
X128207436Y-96668838D01*
X128207500Y-96668678D01*
X128207607Y-96668546D01*
X128208248Y-96667319D01*
X128208560Y-96666842D01*
X128208639Y-96666894D01*
X128209102Y-96666036D01*
X128209092Y-96666029D01*
X128209173Y-96665905D01*
X128209652Y-96665019D01*
X128211773Y-96662141D01*
X128213195Y-96660711D01*
X128213124Y-96660653D01*
X128213480Y-96660223D01*
X128214456Y-96659254D01*
X128214549Y-96659111D01*
X128214689Y-96658995D01*
X128215560Y-96657911D01*
X128215954Y-96657508D01*
X128216028Y-96657580D01*
X128216686Y-96656785D01*
X128216674Y-96656773D01*
X128216810Y-96656634D01*
X128217464Y-96655843D01*
X128219902Y-96653617D01*
X128220707Y-96653075D01*
X128220858Y-96652951D01*
X128220869Y-96652965D01*
X128221722Y-96652390D01*
X128221651Y-96652304D01*
X128222084Y-96651951D01*
X128223192Y-96651215D01*
X128223354Y-96651049D01*
X128223572Y-96650931D01*
X128224598Y-96650070D01*
X128225062Y-96649752D01*
X128225126Y-96649845D01*
X128225915Y-96649200D01*
X128225900Y-96649177D01*
X128226163Y-96648997D01*
X128226919Y-96648379D01*
X128229809Y-96646627D01*
X128231722Y-96645822D01*
X128231681Y-96645745D01*
X128232173Y-96645484D01*
X128233423Y-96644970D01*
X128233482Y-96644937D01*
X128233524Y-96644908D01*
X128233633Y-96644874D01*
X128234915Y-96644169D01*
X128235433Y-96643946D01*
X128235461Y-96644012D01*
X128237121Y-96643130D01*
X128240875Y-96641763D01*
X128241737Y-96641586D01*
X128241801Y-96641567D01*
X128241803Y-96641573D01*
X128242722Y-96641384D01*
X128242696Y-96641297D01*
X128243232Y-96641135D01*
X128244632Y-96640857D01*
X128244793Y-96640788D01*
X128244971Y-96640769D01*
X128246309Y-96640344D01*
X128246859Y-96640227D01*
X128246882Y-96640333D01*
X128247836Y-96640044D01*
X128247831Y-96640020D01*
X128248115Y-96639960D01*
X128249017Y-96639687D01*
X128252424Y-96639160D01*
X128253405Y-96639154D01*
X128253473Y-96639147D01*
X128253474Y-96639153D01*
X128254456Y-96639147D01*
X128254447Y-96639052D01*
X128255009Y-96638997D01*
X128256758Y-96638911D01*
X128259541Y-96638319D01*
X128260896Y-96638253D01*
X128262201Y-96638148D01*
X128262934Y-96638148D01*
X128262978Y-96638151D01*
X128263040Y-96638148D01*
X129056606Y-96638148D01*
X129064675Y-96638603D01*
X129066251Y-96638847D01*
X129067838Y-96639340D01*
X129069446Y-96639681D01*
X129070120Y-96639748D01*
X129070125Y-96639749D01*
X129070110Y-96639822D01*
X129072975Y-96640430D01*
X129077576Y-96641371D01*
X129078167Y-96641559D01*
X129079028Y-96641825D01*
X129084294Y-96644082D01*
X129088601Y-96645887D01*
X129089135Y-96646180D01*
X129089372Y-96646308D01*
X129090376Y-96646729D01*
X129092533Y-96648221D01*
X129094334Y-96649444D01*
X129098448Y-96652186D01*
X129099489Y-96653242D01*
X129099760Y-96653466D01*
X129099808Y-96653514D01*
X129099818Y-96653523D01*
X129107088Y-96660896D01*
X129107320Y-96661184D01*
X129107984Y-96661858D01*
X129110093Y-96665089D01*
X129110747Y-96666081D01*
X129114366Y-96671513D01*
X129115413Y-96674125D01*
X129116099Y-96675802D01*
X129118423Y-96681366D01*
X129118628Y-96682440D01*
X129118631Y-96682452D01*
X129118870Y-96683245D01*
X129119972Y-96689034D01*
X129120860Y-96693486D01*
X129120932Y-96694283D01*
X129120949Y-96694453D01*
X129121588Y-96697660D01*
X129121852Y-96703055D01*
X129121852Y-98297587D01*
X129121499Y-98303513D01*
X129120843Y-98306604D01*
X129120763Y-98307365D01*
X129119488Y-98313372D01*
X129118622Y-98317597D01*
X129118442Y-98318165D01*
X129118180Y-98319011D01*
X129115966Y-98324180D01*
X129114113Y-98328601D01*
X129113820Y-98329135D01*
X129113692Y-98329371D01*
X129113271Y-98330376D01*
X129111779Y-98332533D01*
X129110556Y-98334334D01*
X129107817Y-98338444D01*
X129106763Y-98339483D01*
X129106534Y-98339760D01*
X129106486Y-98339808D01*
X129106477Y-98339818D01*
X129099102Y-98347089D01*
X129098809Y-98347324D01*
X129098139Y-98347985D01*
X129094816Y-98350154D01*
X129093814Y-98350815D01*
X129088482Y-98354368D01*
X129085875Y-98355413D01*
X129084198Y-98356099D01*
X129078634Y-98358423D01*
X129077560Y-98358628D01*
X129077548Y-98358631D01*
X129076755Y-98358870D01*
X129070966Y-98359972D01*
X129066514Y-98360860D01*
X129065717Y-98360932D01*
X129065547Y-98360949D01*
X129062340Y-98361588D01*
X129056945Y-98361852D01*
X128277776Y-98361852D01*
X128274634Y-98362148D01*
X128252846Y-98361985D01*
X128241125Y-98359573D01*
X128230131Y-98354947D01*
X128220162Y-98348216D01*
X128211807Y-98339796D01*
X128211245Y-98338950D01*
X128211239Y-98338942D01*
X128205683Y-98330569D01*
X128205683Y-98330568D01*
X128205115Y-98329713D01*
X128200594Y-98318722D01*
X128198281Y-98307016D01*
X128198292Y-98285811D01*
X128198916Y-98279437D01*
X128196501Y-98255052D01*
X128189375Y-98231607D01*
X128177812Y-98210002D01*
X128162256Y-98191069D01*
X128143306Y-98175534D01*
X128121689Y-98163995D01*
X128098236Y-98156894D01*
X128073849Y-98154506D01*
X128049464Y-98156921D01*
X128026019Y-98164047D01*
X128004414Y-98175610D01*
X127985481Y-98191166D01*
X127969986Y-98210056D01*
X127932878Y-98265593D01*
X127765593Y-98432878D01*
X127568887Y-98564312D01*
X127568886Y-98564313D01*
X127568885Y-98564313D01*
X127350318Y-98654847D01*
X127118290Y-98701000D01*
X126881710Y-98701000D01*
X126649682Y-98654847D01*
X126431115Y-98564313D01*
X126431114Y-98564313D01*
X126431113Y-98564312D01*
X126234407Y-98432878D01*
X126067122Y-98265593D01*
X126036169Y-98219268D01*
X126029106Y-98208698D01*
X126013560Y-98189756D01*
X125994618Y-98174211D01*
X125973007Y-98162660D01*
X125949558Y-98155547D01*
X125925172Y-98153145D01*
X125900786Y-98155547D01*
X125877337Y-98162660D01*
X125855727Y-98174211D01*
X125836785Y-98189757D01*
X125821240Y-98208699D01*
X125809689Y-98230310D01*
X125802576Y-98253759D01*
X125801119Y-98268546D01*
X125800925Y-98269482D01*
X125800924Y-98270528D01*
X125800174Y-98278145D01*
X125800914Y-98285981D01*
X125800908Y-98294844D01*
X125800982Y-98294837D01*
X125801034Y-98295406D01*
X125801024Y-98296839D01*
X125801066Y-98297042D01*
X125801047Y-98297236D01*
X125801190Y-98298578D01*
X125801194Y-98299129D01*
X125801082Y-98299130D01*
X125801173Y-98300117D01*
X125801202Y-98300117D01*
X125801204Y-98300455D01*
X125801288Y-98301359D01*
X125801119Y-98304855D01*
X125800734Y-98306801D01*
X125800821Y-98306810D01*
X125800762Y-98307371D01*
X125800481Y-98308741D01*
X125800482Y-98308906D01*
X125800432Y-98309072D01*
X125800307Y-98310457D01*
X125800203Y-98311005D01*
X125800108Y-98310987D01*
X125800003Y-98311984D01*
X125800017Y-98311987D01*
X125799986Y-98312148D01*
X125799884Y-98313127D01*
X125799025Y-98316581D01*
X125798653Y-98317483D01*
X125798635Y-98317541D01*
X125798630Y-98317539D01*
X125798237Y-98318495D01*
X125798331Y-98318524D01*
X125798166Y-98319056D01*
X125797627Y-98320335D01*
X125797607Y-98320442D01*
X125797544Y-98320561D01*
X125797133Y-98321961D01*
X125796922Y-98322485D01*
X125796841Y-98322452D01*
X125796550Y-98323393D01*
X125796554Y-98323395D01*
X125796535Y-98323442D01*
X125796245Y-98324379D01*
X125794618Y-98327837D01*
X125794098Y-98328619D01*
X125794088Y-98328637D01*
X125794086Y-98328636D01*
X125793543Y-98329452D01*
X125793624Y-98329496D01*
X125793361Y-98329982D01*
X125792564Y-98331162D01*
X125792500Y-98331322D01*
X125792393Y-98331454D01*
X125791752Y-98332681D01*
X125791440Y-98333158D01*
X125791361Y-98333106D01*
X125790898Y-98333964D01*
X125790908Y-98333971D01*
X125790827Y-98334095D01*
X125790348Y-98334981D01*
X125788227Y-98337859D01*
X125786805Y-98339289D01*
X125786876Y-98339347D01*
X125786520Y-98339777D01*
X125785544Y-98340746D01*
X125785451Y-98340889D01*
X125785311Y-98341005D01*
X125784440Y-98342089D01*
X125784046Y-98342492D01*
X125783972Y-98342420D01*
X125783314Y-98343215D01*
X125783326Y-98343227D01*
X125783190Y-98343366D01*
X125782536Y-98344157D01*
X125780098Y-98346383D01*
X125779293Y-98346925D01*
X125779142Y-98347049D01*
X125779131Y-98347035D01*
X125778278Y-98347610D01*
X125778349Y-98347696D01*
X125777916Y-98348049D01*
X125776808Y-98348785D01*
X125776646Y-98348951D01*
X125776428Y-98349069D01*
X125775402Y-98349930D01*
X125774938Y-98350248D01*
X125774874Y-98350155D01*
X125774085Y-98350800D01*
X125774100Y-98350823D01*
X125773837Y-98351003D01*
X125773081Y-98351621D01*
X125770191Y-98353373D01*
X125768278Y-98354178D01*
X125768319Y-98354255D01*
X125767827Y-98354516D01*
X125766577Y-98355030D01*
X125766518Y-98355063D01*
X125766476Y-98355092D01*
X125766367Y-98355126D01*
X125765085Y-98355831D01*
X125764567Y-98356054D01*
X125764539Y-98355988D01*
X125762879Y-98356870D01*
X125759125Y-98358237D01*
X125758263Y-98358414D01*
X125758199Y-98358433D01*
X125758197Y-98358427D01*
X125757278Y-98358616D01*
X125757304Y-98358703D01*
X125756768Y-98358865D01*
X125755368Y-98359143D01*
X125755207Y-98359212D01*
X125755029Y-98359231D01*
X125753691Y-98359656D01*
X125753141Y-98359773D01*
X125753118Y-98359667D01*
X125752164Y-98359956D01*
X125752169Y-98359980D01*
X125751885Y-98360040D01*
X125750983Y-98360313D01*
X125747576Y-98360840D01*
X125746595Y-98360846D01*
X125746527Y-98360853D01*
X125746526Y-98360847D01*
X125745544Y-98360853D01*
X125745553Y-98360948D01*
X125744991Y-98361003D01*
X125743242Y-98361089D01*
X125740459Y-98361681D01*
X125739104Y-98361747D01*
X125737799Y-98361852D01*
X125737066Y-98361852D01*
X125737022Y-98361849D01*
X125736960Y-98361852D01*
X124943394Y-98361852D01*
X124935325Y-98361397D01*
X124933749Y-98361153D01*
X124932162Y-98360660D01*
X124930554Y-98360319D01*
X124929880Y-98360252D01*
X124929875Y-98360251D01*
X124929890Y-98360178D01*
X124927025Y-98359570D01*
X124922424Y-98358629D01*
X124921806Y-98358433D01*
X124920972Y-98358175D01*
X124915706Y-98355918D01*
X124911399Y-98354113D01*
X124910865Y-98353820D01*
X124910628Y-98353692D01*
X124909624Y-98353271D01*
X124907467Y-98351779D01*
X124905666Y-98350556D01*
X124901552Y-98347814D01*
X124900511Y-98346758D01*
X124900240Y-98346534D01*
X124900192Y-98346486D01*
X124900182Y-98346477D01*
X124892912Y-98339104D01*
X124892680Y-98338816D01*
X124892016Y-98338142D01*
X124889907Y-98334911D01*
X124889253Y-98333919D01*
X124885634Y-98328487D01*
X124884587Y-98325875D01*
X124883901Y-98324198D01*
X124881577Y-98318634D01*
X124881372Y-98317559D01*
X124881367Y-98317541D01*
X124881130Y-98316755D01*
X124880028Y-98310966D01*
X124879140Y-98306514D01*
X124879068Y-98305717D01*
X124879051Y-98305547D01*
X124878412Y-98302340D01*
X124878148Y-98296945D01*
X124878148Y-96702413D01*
X124878501Y-96696487D01*
X124879157Y-96693396D01*
X124879237Y-96692635D01*
X124880512Y-96686628D01*
X124881378Y-96682403D01*
X124881558Y-96681835D01*
X124881820Y-96680989D01*
X124884034Y-96675820D01*
X124885887Y-96671399D01*
X124886180Y-96670865D01*
X124886308Y-96670629D01*
X124886729Y-96669624D01*
X124888221Y-96667467D01*
X124889444Y-96665666D01*
X124892183Y-96661556D01*
X124893237Y-96660517D01*
X124893466Y-96660240D01*
X124893514Y-96660192D01*
X124893523Y-96660182D01*
X124900898Y-96652911D01*
X124901191Y-96652676D01*
X124901861Y-96652015D01*
X124905184Y-96649846D01*
X124906186Y-96649185D01*
X124911518Y-96645632D01*
X124914125Y-96644587D01*
X124915802Y-96643901D01*
X124921366Y-96641577D01*
X124922440Y-96641372D01*
X124922452Y-96641369D01*
X124923245Y-96641130D01*
X124929034Y-96640028D01*
X124933486Y-96639140D01*
X124934283Y-96639068D01*
X124934453Y-96639051D01*
X124937660Y-96638412D01*
X124943055Y-96638148D01*
X125722224Y-96638148D01*
X125725366Y-96637852D01*
X125747154Y-96638015D01*
X125758875Y-96640427D01*
X125769869Y-96645053D01*
X125779838Y-96651784D01*
X125788193Y-96660204D01*
X125788755Y-96661050D01*
X125788761Y-96661058D01*
X125793666Y-96668450D01*
X125794885Y-96670287D01*
X125799406Y-96681278D01*
X125801719Y-96692984D01*
X125801708Y-96714189D01*
X125801084Y-96720563D01*
X125803499Y-96744948D01*
X125810625Y-96768393D01*
X125822188Y-96789998D01*
X125837744Y-96808931D01*
X125856694Y-96824466D01*
X125878311Y-96836005D01*
X125901764Y-96843106D01*
X125926151Y-96845494D01*
X125950536Y-96843079D01*
X125973981Y-96835953D01*
X125995586Y-96824390D01*
X126014519Y-96808834D01*
X126030016Y-96789941D01*
X126036169Y-96780732D01*
X126067122Y-96734407D01*
X126234407Y-96567122D01*
X126431113Y-96435688D01*
X126431115Y-96435687D01*
X126649682Y-96345153D01*
X126881710Y-96299000D01*
X127118290Y-96299000D01*
X127350318Y-96345153D01*
X127350318Y-96345153D01*
G37*
G36*
X128289499Y-93478445D02*
G01*
X128326995Y-93489820D01*
X128361554Y-93508292D01*
X128391847Y-93533153D01*
X128416708Y-93563446D01*
X128435180Y-93598005D01*
X128446555Y-93635501D01*
X128451000Y-93680638D01*
X128451000Y-94319362D01*
X128446555Y-94364499D01*
X128435180Y-94401995D01*
X128416708Y-94436554D01*
X128391847Y-94466847D01*
X128361554Y-94491708D01*
X128326995Y-94510180D01*
X128289499Y-94521555D01*
X128244362Y-94526000D01*
X127505638Y-94526000D01*
X127460501Y-94521555D01*
X127423005Y-94510180D01*
X127388446Y-94491708D01*
X127358153Y-94466847D01*
X127333292Y-94436554D01*
X127314820Y-94401995D01*
X127303445Y-94364499D01*
X127299000Y-94319362D01*
X127299000Y-93680638D01*
X127303445Y-93635501D01*
X127314820Y-93598005D01*
X127333292Y-93563446D01*
X127358153Y-93533153D01*
X127388446Y-93508292D01*
X127423005Y-93489820D01*
X127460501Y-93478445D01*
X127505638Y-93474000D01*
X128244362Y-93474000D01*
X128289499Y-93478445D01*
X128289499Y-93478445D01*
G37*
G36*
X126539499Y-93478445D02*
G01*
X126576995Y-93489820D01*
X126611554Y-93508292D01*
X126641847Y-93533153D01*
X126666708Y-93563446D01*
X126685180Y-93598005D01*
X126696555Y-93635501D01*
X126701000Y-93680638D01*
X126701000Y-94319362D01*
X126696555Y-94364499D01*
X126685180Y-94401995D01*
X126666708Y-94436554D01*
X126641847Y-94466847D01*
X126611554Y-94491708D01*
X126576995Y-94510180D01*
X126539499Y-94521555D01*
X126494362Y-94526000D01*
X125755638Y-94526000D01*
X125710501Y-94521555D01*
X125673005Y-94510180D01*
X125638446Y-94491708D01*
X125608153Y-94466847D01*
X125583292Y-94436554D01*
X125564820Y-94401995D01*
X125553445Y-94364499D01*
X125549000Y-94319362D01*
X125549000Y-93680638D01*
X125553445Y-93635501D01*
X125564820Y-93598005D01*
X125583292Y-93563446D01*
X125608153Y-93533153D01*
X125638446Y-93508292D01*
X125673005Y-93489820D01*
X125710501Y-93478445D01*
X125755638Y-93474000D01*
X126494362Y-93474000D01*
X126539499Y-93478445D01*
X126539499Y-93478445D01*
G37*
G36*
X127350318Y-81345153D02*
G01*
X127568885Y-81435687D01*
X127568887Y-81435688D01*
X127765593Y-81567122D01*
X127932878Y-81734407D01*
X127939921Y-81744948D01*
X127970894Y-81791302D01*
X127986440Y-81810244D01*
X128005382Y-81825789D01*
X128026993Y-81837340D01*
X128050442Y-81844453D01*
X128074828Y-81846855D01*
X128099214Y-81844453D01*
X128122663Y-81837340D01*
X128144273Y-81825789D01*
X128163215Y-81810243D01*
X128178760Y-81791301D01*
X128190311Y-81769690D01*
X128197424Y-81746241D01*
X128198881Y-81731454D01*
X128199075Y-81730518D01*
X128199076Y-81729472D01*
X128199826Y-81721855D01*
X128199086Y-81714019D01*
X128199092Y-81705156D01*
X128199018Y-81705163D01*
X128198966Y-81704594D01*
X128198976Y-81703161D01*
X128198934Y-81702958D01*
X128198953Y-81702764D01*
X128198810Y-81701422D01*
X128198806Y-81700871D01*
X128198918Y-81700870D01*
X128198827Y-81699883D01*
X128198798Y-81699883D01*
X128198796Y-81699545D01*
X128198712Y-81698641D01*
X128198881Y-81695145D01*
X128199266Y-81693199D01*
X128199179Y-81693190D01*
X128199238Y-81692629D01*
X128199519Y-81691259D01*
X128199518Y-81691094D01*
X128199568Y-81690928D01*
X128199693Y-81689543D01*
X128199797Y-81688995D01*
X128199892Y-81689013D01*
X128199997Y-81688016D01*
X128199983Y-81688013D01*
X128200014Y-81687852D01*
X128200116Y-81686873D01*
X128200975Y-81683419D01*
X128201348Y-81682513D01*
X128201365Y-81682459D01*
X128201370Y-81682461D01*
X128201763Y-81681505D01*
X128201669Y-81681476D01*
X128201834Y-81680944D01*
X128202373Y-81679665D01*
X128202393Y-81679558D01*
X128202456Y-81679439D01*
X128202867Y-81678039D01*
X128203078Y-81677515D01*
X128203159Y-81677548D01*
X128203450Y-81676607D01*
X128203446Y-81676605D01*
X128203465Y-81676558D01*
X128203755Y-81675621D01*
X128205382Y-81672163D01*
X128205902Y-81671381D01*
X128205912Y-81671363D01*
X128205914Y-81671364D01*
X128206457Y-81670548D01*
X128206376Y-81670504D01*
X128206639Y-81670018D01*
X128207436Y-81668838D01*
X128207500Y-81668678D01*
X128207607Y-81668546D01*
X128208248Y-81667319D01*
X128208560Y-81666842D01*
X128208639Y-81666894D01*
X128209102Y-81666036D01*
X128209092Y-81666029D01*
X128209173Y-81665905D01*
X128209652Y-81665019D01*
X128211773Y-81662141D01*
X128213195Y-81660711D01*
X128213124Y-81660653D01*
X128213480Y-81660223D01*
X128214456Y-81659254D01*
X128214549Y-81659111D01*
X128214689Y-81658995D01*
X128215560Y-81657911D01*
X128215954Y-81657508D01*
X128216028Y-81657580D01*
X128216686Y-81656785D01*
X128216674Y-81656773D01*
X128216810Y-81656634D01*
X128217464Y-81655843D01*
X128219902Y-81653617D01*
X128220707Y-81653075D01*
X128220858Y-81652951D01*
X128220869Y-81652965D01*
X128221722Y-81652390D01*
X128221651Y-81652304D01*
X128222084Y-81651951D01*
X128223192Y-81651215D01*
X128223354Y-81651049D01*
X128223572Y-81650931D01*
X128224598Y-81650070D01*
X128225062Y-81649752D01*
X128225126Y-81649845D01*
X128225915Y-81649200D01*
X128225900Y-81649177D01*
X128226163Y-81648997D01*
X128226919Y-81648379D01*
X128229809Y-81646627D01*
X128231722Y-81645822D01*
X128231681Y-81645745D01*
X128232173Y-81645484D01*
X128233423Y-81644970D01*
X128233482Y-81644937D01*
X128233524Y-81644908D01*
X128233633Y-81644874D01*
X128234915Y-81644169D01*
X128235433Y-81643946D01*
X128235461Y-81644012D01*
X128237121Y-81643130D01*
X128240875Y-81641763D01*
X128241737Y-81641586D01*
X128241801Y-81641567D01*
X128241803Y-81641573D01*
X128242722Y-81641384D01*
X128242696Y-81641297D01*
X128243232Y-81641135D01*
X128244632Y-81640857D01*
X128244793Y-81640788D01*
X128244971Y-81640769D01*
X128246309Y-81640344D01*
X128246859Y-81640227D01*
X128246882Y-81640333D01*
X128247836Y-81640044D01*
X128247831Y-81640020D01*
X128248115Y-81639960D01*
X128249017Y-81639687D01*
X128252424Y-81639160D01*
X128253405Y-81639154D01*
X128253473Y-81639147D01*
X128253474Y-81639153D01*
X128254456Y-81639147D01*
X128254447Y-81639052D01*
X128255009Y-81638997D01*
X128256758Y-81638911D01*
X128259541Y-81638319D01*
X128260896Y-81638253D01*
X128262201Y-81638148D01*
X128262934Y-81638148D01*
X128262978Y-81638151D01*
X128263040Y-81638148D01*
X129056606Y-81638148D01*
X129064675Y-81638603D01*
X129066251Y-81638847D01*
X129067838Y-81639340D01*
X129069446Y-81639681D01*
X129070120Y-81639748D01*
X129070125Y-81639749D01*
X129070110Y-81639822D01*
X129072975Y-81640430D01*
X129077576Y-81641371D01*
X129078167Y-81641558D01*
X129079028Y-81641825D01*
X129084294Y-81644082D01*
X129088601Y-81645887D01*
X129089135Y-81646180D01*
X129089372Y-81646308D01*
X129090376Y-81646729D01*
X129092533Y-81648221D01*
X129094334Y-81649444D01*
X129098448Y-81652186D01*
X129099489Y-81653242D01*
X129099760Y-81653466D01*
X129099808Y-81653514D01*
X129099818Y-81653523D01*
X129107088Y-81660896D01*
X129107320Y-81661184D01*
X129107984Y-81661858D01*
X129110093Y-81665089D01*
X129110747Y-81666081D01*
X129114366Y-81671513D01*
X129115413Y-81674125D01*
X129116099Y-81675802D01*
X129118423Y-81681366D01*
X129118628Y-81682440D01*
X129118631Y-81682452D01*
X129118870Y-81683245D01*
X129119972Y-81689034D01*
X129120860Y-81693486D01*
X129120932Y-81694283D01*
X129120949Y-81694453D01*
X129121588Y-81697660D01*
X129121852Y-81703055D01*
X129121852Y-83297587D01*
X129121499Y-83303513D01*
X129120843Y-83306604D01*
X129120763Y-83307365D01*
X129119488Y-83313372D01*
X129118622Y-83317597D01*
X129118442Y-83318165D01*
X129118180Y-83319011D01*
X129115966Y-83324180D01*
X129114113Y-83328601D01*
X129113820Y-83329135D01*
X129113692Y-83329371D01*
X129113271Y-83330376D01*
X129111779Y-83332533D01*
X129110556Y-83334334D01*
X129107817Y-83338444D01*
X129106763Y-83339483D01*
X129106534Y-83339760D01*
X129106486Y-83339808D01*
X129106477Y-83339818D01*
X129099102Y-83347089D01*
X129098809Y-83347324D01*
X129098139Y-83347985D01*
X129094816Y-83350154D01*
X129093814Y-83350815D01*
X129088482Y-83354368D01*
X129085875Y-83355413D01*
X129084198Y-83356099D01*
X129078634Y-83358423D01*
X129077560Y-83358628D01*
X129077548Y-83358631D01*
X129076755Y-83358870D01*
X129070966Y-83359972D01*
X129066514Y-83360860D01*
X129065717Y-83360932D01*
X129065547Y-83360949D01*
X129062340Y-83361588D01*
X129056945Y-83361852D01*
X128277776Y-83361852D01*
X128274634Y-83362148D01*
X128252846Y-83361985D01*
X128241125Y-83359573D01*
X128230131Y-83354947D01*
X128220162Y-83348216D01*
X128211807Y-83339796D01*
X128211245Y-83338950D01*
X128211239Y-83338942D01*
X128205683Y-83330569D01*
X128205683Y-83330568D01*
X128205115Y-83329713D01*
X128200594Y-83318722D01*
X128198281Y-83307016D01*
X128198292Y-83285811D01*
X128198916Y-83279437D01*
X128196501Y-83255052D01*
X128189375Y-83231607D01*
X128177812Y-83210002D01*
X128162256Y-83191069D01*
X128143306Y-83175534D01*
X128121689Y-83163995D01*
X128098236Y-83156894D01*
X128073849Y-83154506D01*
X128049464Y-83156921D01*
X128026019Y-83164047D01*
X128004414Y-83175610D01*
X127985481Y-83191166D01*
X127969986Y-83210056D01*
X127932878Y-83265593D01*
X127765593Y-83432878D01*
X127568887Y-83564312D01*
X127568886Y-83564313D01*
X127568885Y-83564313D01*
X127350318Y-83654847D01*
X127118290Y-83701000D01*
X126881710Y-83701000D01*
X126649682Y-83654847D01*
X126431115Y-83564313D01*
X126431114Y-83564313D01*
X126431113Y-83564312D01*
X126234407Y-83432878D01*
X126067122Y-83265593D01*
X126036169Y-83219268D01*
X126029106Y-83208698D01*
X126013560Y-83189756D01*
X125994618Y-83174211D01*
X125973007Y-83162660D01*
X125949558Y-83155547D01*
X125925172Y-83153145D01*
X125900786Y-83155547D01*
X125877337Y-83162660D01*
X125855727Y-83174211D01*
X125836785Y-83189757D01*
X125821240Y-83208699D01*
X125809689Y-83230310D01*
X125802576Y-83253759D01*
X125801119Y-83268546D01*
X125800925Y-83269482D01*
X125800924Y-83270528D01*
X125800174Y-83278145D01*
X125800914Y-83285981D01*
X125800908Y-83294844D01*
X125800982Y-83294837D01*
X125801034Y-83295406D01*
X125801024Y-83296839D01*
X125801066Y-83297042D01*
X125801047Y-83297236D01*
X125801190Y-83298578D01*
X125801194Y-83299129D01*
X125801082Y-83299130D01*
X125801173Y-83300117D01*
X125801202Y-83300117D01*
X125801204Y-83300455D01*
X125801288Y-83301359D01*
X125801119Y-83304855D01*
X125800734Y-83306801D01*
X125800821Y-83306810D01*
X125800762Y-83307371D01*
X125800481Y-83308741D01*
X125800482Y-83308906D01*
X125800432Y-83309072D01*
X125800307Y-83310457D01*
X125800203Y-83311005D01*
X125800108Y-83310987D01*
X125800003Y-83311984D01*
X125800017Y-83311987D01*
X125799986Y-83312148D01*
X125799884Y-83313127D01*
X125799025Y-83316581D01*
X125798653Y-83317483D01*
X125798635Y-83317541D01*
X125798630Y-83317539D01*
X125798237Y-83318495D01*
X125798331Y-83318524D01*
X125798166Y-83319056D01*
X125797627Y-83320335D01*
X125797607Y-83320442D01*
X125797544Y-83320561D01*
X125797133Y-83321961D01*
X125796922Y-83322485D01*
X125796841Y-83322452D01*
X125796550Y-83323393D01*
X125796554Y-83323395D01*
X125796535Y-83323442D01*
X125796245Y-83324379D01*
X125794618Y-83327837D01*
X125794098Y-83328619D01*
X125794088Y-83328637D01*
X125794086Y-83328636D01*
X125793543Y-83329452D01*
X125793624Y-83329496D01*
X125793361Y-83329982D01*
X125792564Y-83331162D01*
X125792500Y-83331322D01*
X125792393Y-83331454D01*
X125791752Y-83332681D01*
X125791440Y-83333158D01*
X125791361Y-83333106D01*
X125790898Y-83333964D01*
X125790908Y-83333971D01*
X125790827Y-83334095D01*
X125790348Y-83334981D01*
X125788227Y-83337859D01*
X125786805Y-83339289D01*
X125786876Y-83339347D01*
X125786520Y-83339777D01*
X125785544Y-83340746D01*
X125785451Y-83340889D01*
X125785311Y-83341005D01*
X125784440Y-83342089D01*
X125784046Y-83342492D01*
X125783972Y-83342420D01*
X125783314Y-83343215D01*
X125783326Y-83343227D01*
X125783190Y-83343366D01*
X125782536Y-83344157D01*
X125780098Y-83346383D01*
X125779293Y-83346925D01*
X125779142Y-83347049D01*
X125779131Y-83347035D01*
X125778278Y-83347610D01*
X125778349Y-83347696D01*
X125777916Y-83348049D01*
X125776808Y-83348785D01*
X125776646Y-83348951D01*
X125776428Y-83349069D01*
X125775402Y-83349930D01*
X125774938Y-83350248D01*
X125774874Y-83350155D01*
X125774085Y-83350800D01*
X125774100Y-83350823D01*
X125773837Y-83351003D01*
X125773081Y-83351621D01*
X125770191Y-83353373D01*
X125768278Y-83354178D01*
X125768319Y-83354255D01*
X125767827Y-83354516D01*
X125766577Y-83355030D01*
X125766518Y-83355063D01*
X125766476Y-83355092D01*
X125766367Y-83355126D01*
X125765085Y-83355831D01*
X125764567Y-83356054D01*
X125764539Y-83355988D01*
X125762879Y-83356870D01*
X125759125Y-83358237D01*
X125758263Y-83358414D01*
X125758199Y-83358433D01*
X125758197Y-83358427D01*
X125757278Y-83358616D01*
X125757304Y-83358703D01*
X125756768Y-83358865D01*
X125755368Y-83359143D01*
X125755207Y-83359212D01*
X125755029Y-83359231D01*
X125753691Y-83359656D01*
X125753141Y-83359773D01*
X125753118Y-83359667D01*
X125752164Y-83359956D01*
X125752169Y-83359980D01*
X125751885Y-83360040D01*
X125750983Y-83360313D01*
X125747576Y-83360840D01*
X125746595Y-83360846D01*
X125746527Y-83360853D01*
X125746526Y-83360847D01*
X125745544Y-83360853D01*
X125745553Y-83360948D01*
X125744991Y-83361003D01*
X125743242Y-83361089D01*
X125740459Y-83361681D01*
X125739104Y-83361747D01*
X125737799Y-83361852D01*
X125737066Y-83361852D01*
X125737022Y-83361849D01*
X125736960Y-83361852D01*
X124943394Y-83361852D01*
X124935325Y-83361397D01*
X124933749Y-83361153D01*
X124932162Y-83360660D01*
X124930554Y-83360319D01*
X124929880Y-83360252D01*
X124929875Y-83360251D01*
X124929890Y-83360178D01*
X124927025Y-83359570D01*
X124922424Y-83358629D01*
X124921806Y-83358433D01*
X124920972Y-83358175D01*
X124915706Y-83355918D01*
X124911399Y-83354113D01*
X124910865Y-83353820D01*
X124910628Y-83353692D01*
X124909624Y-83353271D01*
X124907467Y-83351779D01*
X124905666Y-83350556D01*
X124901552Y-83347814D01*
X124900511Y-83346758D01*
X124900240Y-83346534D01*
X124900192Y-83346486D01*
X124900182Y-83346477D01*
X124892912Y-83339104D01*
X124892680Y-83338816D01*
X124892016Y-83338142D01*
X124889907Y-83334911D01*
X124889253Y-83333919D01*
X124885634Y-83328487D01*
X124884587Y-83325875D01*
X124883901Y-83324198D01*
X124881577Y-83318634D01*
X124881372Y-83317559D01*
X124881367Y-83317541D01*
X124881130Y-83316755D01*
X124880028Y-83310966D01*
X124879140Y-83306514D01*
X124879068Y-83305717D01*
X124879051Y-83305547D01*
X124878412Y-83302340D01*
X124878148Y-83296945D01*
X124878148Y-81702413D01*
X124878501Y-81696487D01*
X124879157Y-81693396D01*
X124879237Y-81692635D01*
X124880512Y-81686628D01*
X124881378Y-81682403D01*
X124881558Y-81681835D01*
X124881820Y-81680989D01*
X124884034Y-81675820D01*
X124885887Y-81671399D01*
X124886180Y-81670865D01*
X124886308Y-81670629D01*
X124886729Y-81669624D01*
X124888221Y-81667467D01*
X124889444Y-81665666D01*
X124892183Y-81661556D01*
X124893237Y-81660517D01*
X124893466Y-81660240D01*
X124893514Y-81660192D01*
X124893523Y-81660182D01*
X124900898Y-81652911D01*
X124901191Y-81652676D01*
X124901861Y-81652015D01*
X124905184Y-81649846D01*
X124906186Y-81649185D01*
X124911518Y-81645632D01*
X124914125Y-81644587D01*
X124915802Y-81643901D01*
X124921366Y-81641577D01*
X124922440Y-81641372D01*
X124922452Y-81641369D01*
X124923245Y-81641130D01*
X124929034Y-81640028D01*
X124933486Y-81639140D01*
X124934283Y-81639068D01*
X124934453Y-81639051D01*
X124937660Y-81638412D01*
X124943055Y-81638148D01*
X125722224Y-81638148D01*
X125725366Y-81637852D01*
X125747154Y-81638015D01*
X125758875Y-81640427D01*
X125769869Y-81645053D01*
X125779838Y-81651784D01*
X125788193Y-81660204D01*
X125788755Y-81661050D01*
X125788761Y-81661058D01*
X125793666Y-81668450D01*
X125794885Y-81670287D01*
X125799406Y-81681278D01*
X125801719Y-81692984D01*
X125801708Y-81714189D01*
X125801084Y-81720563D01*
X125803499Y-81744948D01*
X125810625Y-81768393D01*
X125822188Y-81789998D01*
X125837744Y-81808931D01*
X125856694Y-81824466D01*
X125878311Y-81836005D01*
X125901764Y-81843106D01*
X125926151Y-81845494D01*
X125950536Y-81843079D01*
X125973981Y-81835953D01*
X125995586Y-81824390D01*
X126014519Y-81808834D01*
X126030016Y-81789941D01*
X126036169Y-81780732D01*
X126067122Y-81734407D01*
X126234407Y-81567122D01*
X126431113Y-81435688D01*
X126431115Y-81435687D01*
X126649682Y-81345153D01*
X126881710Y-81299000D01*
X127118290Y-81299000D01*
X127350318Y-81345153D01*
X127350318Y-81345153D01*
G37*
G36*
X126539499Y-78478445D02*
G01*
X126576995Y-78489820D01*
X126611554Y-78508292D01*
X126641847Y-78533153D01*
X126666708Y-78563446D01*
X126685180Y-78598005D01*
X126696555Y-78635501D01*
X126701000Y-78680638D01*
X126701000Y-79319362D01*
X126696555Y-79364499D01*
X126685180Y-79401995D01*
X126666708Y-79436554D01*
X126641847Y-79466847D01*
X126611554Y-79491708D01*
X126576995Y-79510180D01*
X126539499Y-79521555D01*
X126494362Y-79526000D01*
X125755638Y-79526000D01*
X125710501Y-79521555D01*
X125673005Y-79510180D01*
X125638446Y-79491708D01*
X125608153Y-79466847D01*
X125583292Y-79436554D01*
X125564820Y-79401995D01*
X125553445Y-79364499D01*
X125549000Y-79319362D01*
X125549000Y-78680638D01*
X125553445Y-78635501D01*
X125564820Y-78598005D01*
X125583292Y-78563446D01*
X125608153Y-78533153D01*
X125638446Y-78508292D01*
X125673005Y-78489820D01*
X125710501Y-78478445D01*
X125755638Y-78474000D01*
X126494362Y-78474000D01*
X126539499Y-78478445D01*
X126539499Y-78478445D01*
G37*
G36*
X128289499Y-78478445D02*
G01*
X128326995Y-78489820D01*
X128361554Y-78508292D01*
X128391847Y-78533153D01*
X128416708Y-78563446D01*
X128435180Y-78598005D01*
X128446555Y-78635501D01*
X128451000Y-78680638D01*
X128451000Y-79319362D01*
X128446555Y-79364499D01*
X128435180Y-79401995D01*
X128416708Y-79436554D01*
X128391847Y-79466847D01*
X128361554Y-79491708D01*
X128326995Y-79510180D01*
X128289499Y-79521555D01*
X128244362Y-79526000D01*
X127505638Y-79526000D01*
X127460501Y-79521555D01*
X127423005Y-79510180D01*
X127388446Y-79491708D01*
X127358153Y-79466847D01*
X127333292Y-79436554D01*
X127314820Y-79401995D01*
X127303445Y-79364499D01*
X127299000Y-79319362D01*
X127299000Y-78680638D01*
X127303445Y-78635501D01*
X127314820Y-78598005D01*
X127333292Y-78563446D01*
X127358153Y-78533153D01*
X127388446Y-78508292D01*
X127423005Y-78489820D01*
X127460501Y-78478445D01*
X127505638Y-78474000D01*
X128244362Y-78474000D01*
X128289499Y-78478445D01*
X128289499Y-78478445D01*
G37*
G36*
X135741000Y-79151000D02*
G01*
X134639000Y-79151000D01*
X134639000Y-75899000D01*
X135741000Y-75899000D01*
X135741000Y-79151000D01*
X135741000Y-79151000D01*
G37*
G36*
X133201000Y-79151000D02*
G01*
X132099000Y-79151000D01*
X132099000Y-75899000D01*
X133201000Y-75899000D01*
X133201000Y-79151000D01*
X133201000Y-79151000D01*
G37*
G36*
X138281000Y-79151000D02*
G01*
X137179000Y-79151000D01*
X137179000Y-75899000D01*
X138281000Y-75899000D01*
X138281000Y-79151000D01*
X138281000Y-79151000D01*
G37*
G36*
X140821000Y-79151000D02*
G01*
X139719000Y-79151000D01*
X139719000Y-75899000D01*
X140821000Y-75899000D01*
X140821000Y-79151000D01*
X140821000Y-79151000D01*
G37*
G36*
X143361000Y-79151000D02*
G01*
X142259000Y-79151000D01*
X142259000Y-75899000D01*
X143361000Y-75899000D01*
X143361000Y-79151000D01*
X143361000Y-79151000D01*
G37*
G36*
X145901000Y-79151000D02*
G01*
X144799000Y-79151000D01*
X144799000Y-75899000D01*
X145901000Y-75899000D01*
X145901000Y-79151000D01*
X145901000Y-79151000D01*
G37*
G36*
X164364499Y-74303445D02*
G01*
X164401995Y-74314820D01*
X164436554Y-74333292D01*
X164466847Y-74358153D01*
X164491708Y-74388446D01*
X164510180Y-74423005D01*
X164521555Y-74460501D01*
X164526000Y-74505638D01*
X164526000Y-75244362D01*
X164521555Y-75289499D01*
X164510180Y-75326995D01*
X164491708Y-75361554D01*
X164466847Y-75391847D01*
X164436554Y-75416708D01*
X164401995Y-75435180D01*
X164364499Y-75446555D01*
X164319362Y-75451000D01*
X163680638Y-75451000D01*
X163635501Y-75446555D01*
X163598005Y-75435180D01*
X163563446Y-75416708D01*
X163533153Y-75391847D01*
X163508292Y-75361554D01*
X163489820Y-75326995D01*
X163478445Y-75289499D01*
X163474000Y-75244362D01*
X163474000Y-74505638D01*
X163478445Y-74460501D01*
X163489820Y-74423005D01*
X163508292Y-74388446D01*
X163533153Y-74358153D01*
X163563446Y-74333292D01*
X163598005Y-74314820D01*
X163635501Y-74303445D01*
X163680638Y-74299000D01*
X164319362Y-74299000D01*
X164364499Y-74303445D01*
X164364499Y-74303445D01*
G37*
G36*
X133201000Y-74101000D02*
G01*
X132099000Y-74101000D01*
X132099000Y-70849000D01*
X133201000Y-70849000D01*
X133201000Y-74101000D01*
X133201000Y-74101000D01*
G37*
G36*
X143361000Y-74101000D02*
G01*
X142259000Y-74101000D01*
X142259000Y-70849000D01*
X143361000Y-70849000D01*
X143361000Y-74101000D01*
X143361000Y-74101000D01*
G37*
G36*
X140821000Y-74101000D02*
G01*
X139719000Y-74101000D01*
X139719000Y-70849000D01*
X140821000Y-70849000D01*
X140821000Y-74101000D01*
X140821000Y-74101000D01*
G37*
G36*
X135741000Y-74101000D02*
G01*
X134639000Y-74101000D01*
X134639000Y-70849000D01*
X135741000Y-70849000D01*
X135741000Y-74101000D01*
X135741000Y-74101000D01*
G37*
G36*
X145901000Y-74101000D02*
G01*
X144799000Y-74101000D01*
X144799000Y-70849000D01*
X145901000Y-70849000D01*
X145901000Y-74101000D01*
X145901000Y-74101000D01*
G37*
G36*
X138281000Y-74101000D02*
G01*
X137179000Y-74101000D01*
X137179000Y-70849000D01*
X138281000Y-70849000D01*
X138281000Y-74101000D01*
X138281000Y-74101000D01*
G37*
G36*
X164364499Y-72553445D02*
G01*
X164401995Y-72564820D01*
X164436554Y-72583292D01*
X164466847Y-72608153D01*
X164491708Y-72638446D01*
X164510180Y-72673005D01*
X164521555Y-72710501D01*
X164526000Y-72755638D01*
X164526000Y-73494362D01*
X164521555Y-73539499D01*
X164510180Y-73576995D01*
X164491708Y-73611554D01*
X164466847Y-73641847D01*
X164436554Y-73666708D01*
X164401995Y-73685180D01*
X164364499Y-73696555D01*
X164319362Y-73701000D01*
X163680638Y-73701000D01*
X163635501Y-73696555D01*
X163598005Y-73685180D01*
X163563446Y-73666708D01*
X163533153Y-73641847D01*
X163508292Y-73611554D01*
X163489820Y-73576995D01*
X163478445Y-73539499D01*
X163474000Y-73494362D01*
X163474000Y-72755638D01*
X163478445Y-72710501D01*
X163489820Y-72673005D01*
X163508292Y-72638446D01*
X163533153Y-72608153D01*
X163563446Y-72583292D01*
X163598005Y-72564820D01*
X163635501Y-72553445D01*
X163680638Y-72549000D01*
X164319362Y-72549000D01*
X164364499Y-72553445D01*
X164364499Y-72553445D01*
G37*
G36*
X128289499Y-70478445D02*
G01*
X128326995Y-70489820D01*
X128361554Y-70508292D01*
X128391847Y-70533153D01*
X128416708Y-70563446D01*
X128435180Y-70598005D01*
X128446555Y-70635501D01*
X128451000Y-70680638D01*
X128451000Y-71319362D01*
X128446555Y-71364499D01*
X128435180Y-71401995D01*
X128416708Y-71436554D01*
X128391847Y-71466847D01*
X128361554Y-71491708D01*
X128326995Y-71510180D01*
X128289499Y-71521555D01*
X128244362Y-71526000D01*
X127505638Y-71526000D01*
X127460501Y-71521555D01*
X127423005Y-71510180D01*
X127388446Y-71491708D01*
X127358153Y-71466847D01*
X127333292Y-71436554D01*
X127314820Y-71401995D01*
X127303445Y-71364499D01*
X127299000Y-71319362D01*
X127299000Y-70680638D01*
X127303445Y-70635501D01*
X127314820Y-70598005D01*
X127333292Y-70563446D01*
X127358153Y-70533153D01*
X127388446Y-70508292D01*
X127423005Y-70489820D01*
X127460501Y-70478445D01*
X127505638Y-70474000D01*
X128244362Y-70474000D01*
X128289499Y-70478445D01*
X128289499Y-70478445D01*
G37*
G36*
X126539499Y-70478445D02*
G01*
X126576995Y-70489820D01*
X126611554Y-70508292D01*
X126641847Y-70533153D01*
X126666708Y-70563446D01*
X126685180Y-70598005D01*
X126696555Y-70635501D01*
X126701000Y-70680638D01*
X126701000Y-71319362D01*
X126696555Y-71364499D01*
X126685180Y-71401995D01*
X126666708Y-71436554D01*
X126641847Y-71466847D01*
X126611554Y-71491708D01*
X126576995Y-71510180D01*
X126539499Y-71521555D01*
X126494362Y-71526000D01*
X125755638Y-71526000D01*
X125710501Y-71521555D01*
X125673005Y-71510180D01*
X125638446Y-71491708D01*
X125608153Y-71466847D01*
X125583292Y-71436554D01*
X125564820Y-71401995D01*
X125553445Y-71364499D01*
X125549000Y-71319362D01*
X125549000Y-70680638D01*
X125553445Y-70635501D01*
X125564820Y-70598005D01*
X125583292Y-70563446D01*
X125608153Y-70533153D01*
X125638446Y-70508292D01*
X125673005Y-70489820D01*
X125710501Y-70478445D01*
X125755638Y-70474000D01*
X126494362Y-70474000D01*
X126539499Y-70478445D01*
X126539499Y-70478445D01*
G37*
G36*
X127350318Y-66345153D02*
G01*
X127568885Y-66435687D01*
X127568887Y-66435688D01*
X127765593Y-66567122D01*
X127932878Y-66734407D01*
X127939921Y-66744948D01*
X127970894Y-66791302D01*
X127986440Y-66810244D01*
X128005382Y-66825789D01*
X128026993Y-66837340D01*
X128050442Y-66844453D01*
X128074828Y-66846855D01*
X128099214Y-66844453D01*
X128122663Y-66837340D01*
X128144273Y-66825789D01*
X128163215Y-66810243D01*
X128178760Y-66791301D01*
X128190311Y-66769690D01*
X128197424Y-66746241D01*
X128198881Y-66731454D01*
X128199075Y-66730518D01*
X128199076Y-66729472D01*
X128199826Y-66721855D01*
X128199086Y-66714019D01*
X128199092Y-66705156D01*
X128199018Y-66705163D01*
X128198966Y-66704594D01*
X128198976Y-66703161D01*
X128198934Y-66702958D01*
X128198953Y-66702764D01*
X128198810Y-66701422D01*
X128198806Y-66700871D01*
X128198918Y-66700870D01*
X128198827Y-66699883D01*
X128198798Y-66699883D01*
X128198796Y-66699545D01*
X128198712Y-66698641D01*
X128198881Y-66695145D01*
X128199266Y-66693199D01*
X128199179Y-66693190D01*
X128199238Y-66692629D01*
X128199519Y-66691259D01*
X128199518Y-66691094D01*
X128199568Y-66690928D01*
X128199693Y-66689543D01*
X128199797Y-66688995D01*
X128199892Y-66689013D01*
X128199997Y-66688016D01*
X128199983Y-66688013D01*
X128200014Y-66687852D01*
X128200116Y-66686873D01*
X128200975Y-66683419D01*
X128201348Y-66682513D01*
X128201365Y-66682459D01*
X128201370Y-66682461D01*
X128201763Y-66681505D01*
X128201669Y-66681476D01*
X128201834Y-66680944D01*
X128202373Y-66679665D01*
X128202393Y-66679558D01*
X128202456Y-66679439D01*
X128202867Y-66678039D01*
X128203078Y-66677515D01*
X128203159Y-66677548D01*
X128203450Y-66676607D01*
X128203446Y-66676605D01*
X128203465Y-66676558D01*
X128203755Y-66675621D01*
X128205382Y-66672163D01*
X128205902Y-66671381D01*
X128205912Y-66671363D01*
X128205914Y-66671364D01*
X128206457Y-66670548D01*
X128206376Y-66670504D01*
X128206639Y-66670018D01*
X128207436Y-66668838D01*
X128207500Y-66668678D01*
X128207607Y-66668546D01*
X128208248Y-66667319D01*
X128208560Y-66666842D01*
X128208639Y-66666894D01*
X128209102Y-66666036D01*
X128209092Y-66666029D01*
X128209173Y-66665905D01*
X128209652Y-66665019D01*
X128211773Y-66662141D01*
X128213195Y-66660711D01*
X128213124Y-66660653D01*
X128213480Y-66660223D01*
X128214456Y-66659254D01*
X128214549Y-66659111D01*
X128214689Y-66658995D01*
X128215560Y-66657911D01*
X128215954Y-66657508D01*
X128216028Y-66657580D01*
X128216686Y-66656785D01*
X128216674Y-66656773D01*
X128216810Y-66656634D01*
X128217464Y-66655843D01*
X128219902Y-66653617D01*
X128220707Y-66653075D01*
X128220858Y-66652951D01*
X128220869Y-66652965D01*
X128221722Y-66652390D01*
X128221651Y-66652304D01*
X128222084Y-66651951D01*
X128223192Y-66651215D01*
X128223354Y-66651049D01*
X128223572Y-66650931D01*
X128224598Y-66650070D01*
X128225062Y-66649752D01*
X128225126Y-66649845D01*
X128225915Y-66649200D01*
X128225900Y-66649177D01*
X128226163Y-66648997D01*
X128226919Y-66648379D01*
X128229809Y-66646627D01*
X128231722Y-66645822D01*
X128231681Y-66645745D01*
X128232173Y-66645484D01*
X128233423Y-66644970D01*
X128233482Y-66644937D01*
X128233524Y-66644908D01*
X128233633Y-66644874D01*
X128234915Y-66644169D01*
X128235433Y-66643946D01*
X128235461Y-66644012D01*
X128237121Y-66643130D01*
X128240875Y-66641763D01*
X128241737Y-66641586D01*
X128241801Y-66641567D01*
X128241803Y-66641573D01*
X128242722Y-66641384D01*
X128242696Y-66641297D01*
X128243232Y-66641135D01*
X128244632Y-66640857D01*
X128244793Y-66640788D01*
X128244971Y-66640769D01*
X128246309Y-66640344D01*
X128246859Y-66640227D01*
X128246882Y-66640333D01*
X128247836Y-66640044D01*
X128247831Y-66640020D01*
X128248115Y-66639960D01*
X128249017Y-66639687D01*
X128252424Y-66639160D01*
X128253405Y-66639154D01*
X128253473Y-66639147D01*
X128253474Y-66639153D01*
X128254456Y-66639147D01*
X128254447Y-66639052D01*
X128255009Y-66638997D01*
X128256758Y-66638911D01*
X128259541Y-66638319D01*
X128260896Y-66638253D01*
X128262201Y-66638148D01*
X128262934Y-66638148D01*
X128262978Y-66638151D01*
X128263040Y-66638148D01*
X129056606Y-66638148D01*
X129064675Y-66638603D01*
X129066251Y-66638847D01*
X129067838Y-66639340D01*
X129069446Y-66639681D01*
X129070120Y-66639748D01*
X129070125Y-66639749D01*
X129070110Y-66639822D01*
X129072975Y-66640430D01*
X129077576Y-66641371D01*
X129078167Y-66641559D01*
X129079028Y-66641825D01*
X129084294Y-66644082D01*
X129088601Y-66645887D01*
X129089135Y-66646180D01*
X129089372Y-66646308D01*
X129090376Y-66646729D01*
X129092533Y-66648221D01*
X129094334Y-66649444D01*
X129098448Y-66652186D01*
X129099489Y-66653242D01*
X129099760Y-66653466D01*
X129099808Y-66653514D01*
X129099818Y-66653523D01*
X129107088Y-66660896D01*
X129107320Y-66661184D01*
X129107984Y-66661858D01*
X129110093Y-66665089D01*
X129110747Y-66666081D01*
X129114366Y-66671513D01*
X129115413Y-66674125D01*
X129116099Y-66675802D01*
X129118423Y-66681366D01*
X129118628Y-66682440D01*
X129118631Y-66682452D01*
X129118870Y-66683245D01*
X129119972Y-66689034D01*
X129120860Y-66693486D01*
X129120932Y-66694283D01*
X129120949Y-66694453D01*
X129121588Y-66697660D01*
X129121852Y-66703055D01*
X129121852Y-68297587D01*
X129121499Y-68303513D01*
X129120843Y-68306604D01*
X129120763Y-68307365D01*
X129119488Y-68313372D01*
X129118622Y-68317597D01*
X129118442Y-68318165D01*
X129118180Y-68319011D01*
X129115966Y-68324180D01*
X129114113Y-68328601D01*
X129113820Y-68329135D01*
X129113692Y-68329371D01*
X129113271Y-68330376D01*
X129111779Y-68332533D01*
X129110556Y-68334334D01*
X129107817Y-68338444D01*
X129106763Y-68339483D01*
X129106534Y-68339760D01*
X129106486Y-68339808D01*
X129106477Y-68339818D01*
X129099102Y-68347089D01*
X129098809Y-68347324D01*
X129098139Y-68347985D01*
X129094816Y-68350154D01*
X129093814Y-68350815D01*
X129088482Y-68354368D01*
X129085875Y-68355413D01*
X129084198Y-68356099D01*
X129078634Y-68358423D01*
X129077560Y-68358628D01*
X129077548Y-68358631D01*
X129076755Y-68358870D01*
X129070966Y-68359972D01*
X129066514Y-68360860D01*
X129065717Y-68360932D01*
X129065547Y-68360949D01*
X129062340Y-68361588D01*
X129056945Y-68361852D01*
X128277776Y-68361852D01*
X128274634Y-68362148D01*
X128252846Y-68361985D01*
X128241125Y-68359573D01*
X128230131Y-68354947D01*
X128220162Y-68348216D01*
X128211807Y-68339796D01*
X128211245Y-68338950D01*
X128211239Y-68338942D01*
X128205683Y-68330569D01*
X128205683Y-68330568D01*
X128205115Y-68329713D01*
X128200594Y-68318722D01*
X128198281Y-68307016D01*
X128198292Y-68285811D01*
X128198916Y-68279437D01*
X128196501Y-68255052D01*
X128189375Y-68231607D01*
X128177812Y-68210002D01*
X128162256Y-68191069D01*
X128143306Y-68175534D01*
X128121689Y-68163995D01*
X128098236Y-68156894D01*
X128073849Y-68154506D01*
X128049464Y-68156921D01*
X128026019Y-68164047D01*
X128004414Y-68175610D01*
X127985481Y-68191166D01*
X127969986Y-68210056D01*
X127932878Y-68265593D01*
X127765593Y-68432878D01*
X127568887Y-68564312D01*
X127568886Y-68564313D01*
X127568885Y-68564313D01*
X127350318Y-68654847D01*
X127118290Y-68701000D01*
X126881710Y-68701000D01*
X126649682Y-68654847D01*
X126431115Y-68564313D01*
X126431114Y-68564313D01*
X126431113Y-68564312D01*
X126234407Y-68432878D01*
X126067122Y-68265593D01*
X126036169Y-68219268D01*
X126029106Y-68208698D01*
X126013560Y-68189756D01*
X125994618Y-68174211D01*
X125973007Y-68162660D01*
X125949558Y-68155547D01*
X125925172Y-68153145D01*
X125900786Y-68155547D01*
X125877337Y-68162660D01*
X125855727Y-68174211D01*
X125836785Y-68189757D01*
X125821240Y-68208699D01*
X125809689Y-68230310D01*
X125802576Y-68253759D01*
X125801119Y-68268546D01*
X125800925Y-68269482D01*
X125800924Y-68270528D01*
X125800174Y-68278145D01*
X125800914Y-68285981D01*
X125800908Y-68294844D01*
X125800982Y-68294837D01*
X125801034Y-68295406D01*
X125801024Y-68296839D01*
X125801066Y-68297042D01*
X125801047Y-68297236D01*
X125801190Y-68298578D01*
X125801194Y-68299129D01*
X125801082Y-68299130D01*
X125801173Y-68300117D01*
X125801202Y-68300117D01*
X125801204Y-68300455D01*
X125801288Y-68301359D01*
X125801119Y-68304855D01*
X125800734Y-68306801D01*
X125800821Y-68306810D01*
X125800762Y-68307371D01*
X125800481Y-68308741D01*
X125800482Y-68308906D01*
X125800432Y-68309072D01*
X125800307Y-68310457D01*
X125800203Y-68311005D01*
X125800108Y-68310987D01*
X125800003Y-68311984D01*
X125800017Y-68311987D01*
X125799986Y-68312148D01*
X125799884Y-68313127D01*
X125799025Y-68316581D01*
X125798653Y-68317483D01*
X125798635Y-68317541D01*
X125798630Y-68317539D01*
X125798237Y-68318495D01*
X125798331Y-68318524D01*
X125798166Y-68319056D01*
X125797627Y-68320335D01*
X125797607Y-68320442D01*
X125797544Y-68320561D01*
X125797133Y-68321961D01*
X125796922Y-68322485D01*
X125796841Y-68322452D01*
X125796550Y-68323393D01*
X125796554Y-68323395D01*
X125796535Y-68323442D01*
X125796245Y-68324379D01*
X125794618Y-68327837D01*
X125794098Y-68328619D01*
X125794088Y-68328637D01*
X125794086Y-68328636D01*
X125793543Y-68329452D01*
X125793624Y-68329496D01*
X125793361Y-68329982D01*
X125792564Y-68331162D01*
X125792500Y-68331322D01*
X125792393Y-68331454D01*
X125791752Y-68332681D01*
X125791440Y-68333158D01*
X125791361Y-68333106D01*
X125790898Y-68333964D01*
X125790908Y-68333971D01*
X125790827Y-68334095D01*
X125790348Y-68334981D01*
X125788227Y-68337859D01*
X125786805Y-68339289D01*
X125786876Y-68339347D01*
X125786520Y-68339777D01*
X125785544Y-68340746D01*
X125785451Y-68340889D01*
X125785311Y-68341005D01*
X125784440Y-68342089D01*
X125784046Y-68342492D01*
X125783972Y-68342420D01*
X125783314Y-68343215D01*
X125783326Y-68343227D01*
X125783190Y-68343366D01*
X125782536Y-68344157D01*
X125780098Y-68346383D01*
X125779293Y-68346925D01*
X125779142Y-68347049D01*
X125779131Y-68347035D01*
X125778278Y-68347610D01*
X125778349Y-68347696D01*
X125777916Y-68348049D01*
X125776808Y-68348785D01*
X125776646Y-68348951D01*
X125776428Y-68349069D01*
X125775402Y-68349930D01*
X125774938Y-68350248D01*
X125774874Y-68350155D01*
X125774085Y-68350800D01*
X125774100Y-68350823D01*
X125773837Y-68351003D01*
X125773081Y-68351621D01*
X125770191Y-68353373D01*
X125768278Y-68354178D01*
X125768319Y-68354255D01*
X125767827Y-68354516D01*
X125766577Y-68355030D01*
X125766518Y-68355063D01*
X125766476Y-68355092D01*
X125766367Y-68355126D01*
X125765085Y-68355831D01*
X125764567Y-68356054D01*
X125764539Y-68355988D01*
X125762879Y-68356870D01*
X125759125Y-68358237D01*
X125758263Y-68358414D01*
X125758199Y-68358433D01*
X125758197Y-68358427D01*
X125757278Y-68358616D01*
X125757304Y-68358703D01*
X125756768Y-68358865D01*
X125755368Y-68359143D01*
X125755207Y-68359212D01*
X125755029Y-68359231D01*
X125753691Y-68359656D01*
X125753141Y-68359773D01*
X125753118Y-68359667D01*
X125752164Y-68359956D01*
X125752169Y-68359980D01*
X125751885Y-68360040D01*
X125750983Y-68360313D01*
X125747576Y-68360840D01*
X125746595Y-68360846D01*
X125746527Y-68360853D01*
X125746526Y-68360847D01*
X125745544Y-68360853D01*
X125745553Y-68360948D01*
X125744991Y-68361003D01*
X125743242Y-68361089D01*
X125740459Y-68361681D01*
X125739104Y-68361747D01*
X125737799Y-68361852D01*
X125737066Y-68361852D01*
X125737022Y-68361849D01*
X125736960Y-68361852D01*
X124943394Y-68361852D01*
X124935325Y-68361397D01*
X124933749Y-68361153D01*
X124932162Y-68360660D01*
X124930554Y-68360319D01*
X124929880Y-68360252D01*
X124929875Y-68360251D01*
X124929890Y-68360178D01*
X124927025Y-68359570D01*
X124922424Y-68358629D01*
X124921806Y-68358433D01*
X124920972Y-68358175D01*
X124915706Y-68355918D01*
X124911399Y-68354113D01*
X124910865Y-68353820D01*
X124910628Y-68353692D01*
X124909624Y-68353271D01*
X124907467Y-68351779D01*
X124905666Y-68350556D01*
X124901552Y-68347814D01*
X124900511Y-68346758D01*
X124900240Y-68346534D01*
X124900192Y-68346486D01*
X124900182Y-68346477D01*
X124892912Y-68339104D01*
X124892680Y-68338816D01*
X124892016Y-68338142D01*
X124889907Y-68334911D01*
X124889253Y-68333919D01*
X124885634Y-68328487D01*
X124884587Y-68325875D01*
X124883901Y-68324198D01*
X124881577Y-68318634D01*
X124881372Y-68317559D01*
X124881367Y-68317541D01*
X124881130Y-68316755D01*
X124880028Y-68310966D01*
X124879140Y-68306514D01*
X124879068Y-68305717D01*
X124879051Y-68305547D01*
X124878412Y-68302340D01*
X124878148Y-68296945D01*
X124878148Y-66702413D01*
X124878501Y-66696487D01*
X124879157Y-66693396D01*
X124879237Y-66692635D01*
X124880512Y-66686628D01*
X124881378Y-66682403D01*
X124881558Y-66681835D01*
X124881820Y-66680989D01*
X124884034Y-66675820D01*
X124885887Y-66671399D01*
X124886180Y-66670865D01*
X124886308Y-66670629D01*
X124886729Y-66669624D01*
X124888221Y-66667467D01*
X124889444Y-66665666D01*
X124892183Y-66661556D01*
X124893237Y-66660517D01*
X124893466Y-66660240D01*
X124893514Y-66660192D01*
X124893523Y-66660182D01*
X124900898Y-66652911D01*
X124901191Y-66652676D01*
X124901861Y-66652015D01*
X124905184Y-66649846D01*
X124906186Y-66649185D01*
X124911518Y-66645632D01*
X124914125Y-66644587D01*
X124915802Y-66643901D01*
X124921366Y-66641577D01*
X124922440Y-66641372D01*
X124922452Y-66641369D01*
X124923245Y-66641130D01*
X124929034Y-66640028D01*
X124933486Y-66639140D01*
X124934283Y-66639068D01*
X124934453Y-66639051D01*
X124937660Y-66638412D01*
X124943055Y-66638148D01*
X125722224Y-66638148D01*
X125725366Y-66637852D01*
X125747154Y-66638015D01*
X125758875Y-66640427D01*
X125769869Y-66645053D01*
X125779838Y-66651784D01*
X125788193Y-66660204D01*
X125788755Y-66661050D01*
X125788761Y-66661058D01*
X125793666Y-66668450D01*
X125794885Y-66670287D01*
X125799406Y-66681278D01*
X125801719Y-66692984D01*
X125801708Y-66714189D01*
X125801084Y-66720563D01*
X125803499Y-66744948D01*
X125810625Y-66768393D01*
X125822188Y-66789998D01*
X125837744Y-66808931D01*
X125856694Y-66824466D01*
X125878311Y-66836005D01*
X125901764Y-66843106D01*
X125926151Y-66845494D01*
X125950536Y-66843079D01*
X125973981Y-66835953D01*
X125995586Y-66824390D01*
X126014519Y-66808834D01*
X126030016Y-66789941D01*
X126036169Y-66780732D01*
X126067122Y-66734407D01*
X126234407Y-66567122D01*
X126431113Y-66435688D01*
X126431115Y-66435687D01*
X126649682Y-66345153D01*
X126881710Y-66299000D01*
X127118290Y-66299000D01*
X127350318Y-66345153D01*
X127350318Y-66345153D01*
G37*
G36*
X126539499Y-55478445D02*
G01*
X126576995Y-55489820D01*
X126611554Y-55508292D01*
X126641847Y-55533153D01*
X126666708Y-55563446D01*
X126685180Y-55598005D01*
X126696555Y-55635501D01*
X126701000Y-55680638D01*
X126701000Y-56319362D01*
X126696555Y-56364499D01*
X126685180Y-56401995D01*
X126666708Y-56436554D01*
X126641847Y-56466847D01*
X126611554Y-56491708D01*
X126576995Y-56510180D01*
X126539499Y-56521555D01*
X126494362Y-56526000D01*
X125755638Y-56526000D01*
X125710501Y-56521555D01*
X125673005Y-56510180D01*
X125638446Y-56491708D01*
X125608153Y-56466847D01*
X125583292Y-56436554D01*
X125564820Y-56401995D01*
X125553445Y-56364499D01*
X125549000Y-56319362D01*
X125549000Y-55680638D01*
X125553445Y-55635501D01*
X125564820Y-55598005D01*
X125583292Y-55563446D01*
X125608153Y-55533153D01*
X125638446Y-55508292D01*
X125673005Y-55489820D01*
X125710501Y-55478445D01*
X125755638Y-55474000D01*
X126494362Y-55474000D01*
X126539499Y-55478445D01*
X126539499Y-55478445D01*
G37*
G36*
X128289499Y-55478445D02*
G01*
X128326995Y-55489820D01*
X128361554Y-55508292D01*
X128391847Y-55533153D01*
X128416708Y-55563446D01*
X128435180Y-55598005D01*
X128446555Y-55635501D01*
X128451000Y-55680638D01*
X128451000Y-56319362D01*
X128446555Y-56364499D01*
X128435180Y-56401995D01*
X128416708Y-56436554D01*
X128391847Y-56466847D01*
X128361554Y-56491708D01*
X128326995Y-56510180D01*
X128289499Y-56521555D01*
X128244362Y-56526000D01*
X127505638Y-56526000D01*
X127460501Y-56521555D01*
X127423005Y-56510180D01*
X127388446Y-56491708D01*
X127358153Y-56466847D01*
X127333292Y-56436554D01*
X127314820Y-56401995D01*
X127303445Y-56364499D01*
X127299000Y-56319362D01*
X127299000Y-55680638D01*
X127303445Y-55635501D01*
X127314820Y-55598005D01*
X127333292Y-55563446D01*
X127358153Y-55533153D01*
X127388446Y-55508292D01*
X127423005Y-55489820D01*
X127460501Y-55478445D01*
X127505638Y-55474000D01*
X128244362Y-55474000D01*
X128289499Y-55478445D01*
X128289499Y-55478445D01*
G37*
G36*
X127160318Y-51395153D02*
G01*
X127378885Y-51485687D01*
X127378887Y-51485688D01*
X127575593Y-51617122D01*
X127742878Y-51784407D01*
X127749921Y-51794948D01*
X127780894Y-51841302D01*
X127796440Y-51860244D01*
X127815382Y-51875789D01*
X127836993Y-51887340D01*
X127860442Y-51894453D01*
X127884828Y-51896855D01*
X127909214Y-51894453D01*
X127932663Y-51887340D01*
X127954273Y-51875789D01*
X127973215Y-51860243D01*
X127988760Y-51841301D01*
X128000311Y-51819690D01*
X128007424Y-51796241D01*
X128008881Y-51781454D01*
X128009075Y-51780518D01*
X128009076Y-51779472D01*
X128009826Y-51771855D01*
X128009086Y-51764019D01*
X128009092Y-51755156D01*
X128009018Y-51755163D01*
X128008966Y-51754594D01*
X128008976Y-51753161D01*
X128008934Y-51752958D01*
X128008953Y-51752764D01*
X128008810Y-51751422D01*
X128008806Y-51750871D01*
X128008918Y-51750870D01*
X128008827Y-51749883D01*
X128008798Y-51749883D01*
X128008796Y-51749545D01*
X128008712Y-51748641D01*
X128008881Y-51745145D01*
X128009266Y-51743199D01*
X128009179Y-51743190D01*
X128009238Y-51742629D01*
X128009519Y-51741259D01*
X128009518Y-51741094D01*
X128009568Y-51740928D01*
X128009693Y-51739543D01*
X128009797Y-51738995D01*
X128009892Y-51739013D01*
X128009997Y-51738016D01*
X128009983Y-51738013D01*
X128010014Y-51737852D01*
X128010116Y-51736873D01*
X128010975Y-51733419D01*
X128011348Y-51732513D01*
X128011365Y-51732459D01*
X128011370Y-51732461D01*
X128011763Y-51731505D01*
X128011669Y-51731476D01*
X128011834Y-51730944D01*
X128012373Y-51729665D01*
X128012393Y-51729558D01*
X128012456Y-51729439D01*
X128012867Y-51728039D01*
X128013078Y-51727515D01*
X128013159Y-51727548D01*
X128013450Y-51726607D01*
X128013446Y-51726605D01*
X128013465Y-51726558D01*
X128013755Y-51725621D01*
X128015382Y-51722163D01*
X128015902Y-51721381D01*
X128015912Y-51721363D01*
X128015914Y-51721364D01*
X128016457Y-51720548D01*
X128016376Y-51720504D01*
X128016639Y-51720018D01*
X128017436Y-51718838D01*
X128017500Y-51718678D01*
X128017607Y-51718546D01*
X128018248Y-51717319D01*
X128018560Y-51716842D01*
X128018639Y-51716894D01*
X128019102Y-51716036D01*
X128019092Y-51716029D01*
X128019173Y-51715905D01*
X128019652Y-51715019D01*
X128021773Y-51712141D01*
X128023195Y-51710711D01*
X128023124Y-51710653D01*
X128023480Y-51710223D01*
X128024456Y-51709254D01*
X128024549Y-51709111D01*
X128024689Y-51708995D01*
X128025560Y-51707911D01*
X128025954Y-51707508D01*
X128026028Y-51707580D01*
X128026686Y-51706785D01*
X128026674Y-51706773D01*
X128026810Y-51706634D01*
X128027464Y-51705843D01*
X128029902Y-51703617D01*
X128030707Y-51703075D01*
X128030858Y-51702951D01*
X128030869Y-51702965D01*
X128031722Y-51702390D01*
X128031651Y-51702304D01*
X128032084Y-51701951D01*
X128033192Y-51701215D01*
X128033354Y-51701049D01*
X128033572Y-51700931D01*
X128034598Y-51700070D01*
X128035062Y-51699752D01*
X128035126Y-51699845D01*
X128035915Y-51699200D01*
X128035900Y-51699177D01*
X128036163Y-51698997D01*
X128036919Y-51698379D01*
X128039809Y-51696627D01*
X128041722Y-51695822D01*
X128041681Y-51695745D01*
X128042173Y-51695484D01*
X128043423Y-51694970D01*
X128043482Y-51694937D01*
X128043524Y-51694908D01*
X128043633Y-51694874D01*
X128044915Y-51694169D01*
X128045433Y-51693946D01*
X128045461Y-51694012D01*
X128047121Y-51693130D01*
X128050875Y-51691763D01*
X128051737Y-51691586D01*
X128051801Y-51691567D01*
X128051803Y-51691573D01*
X128052722Y-51691384D01*
X128052696Y-51691297D01*
X128053232Y-51691135D01*
X128054632Y-51690857D01*
X128054793Y-51690788D01*
X128054971Y-51690769D01*
X128056309Y-51690344D01*
X128056859Y-51690227D01*
X128056882Y-51690333D01*
X128057836Y-51690044D01*
X128057831Y-51690020D01*
X128058115Y-51689960D01*
X128059017Y-51689687D01*
X128062424Y-51689160D01*
X128063405Y-51689154D01*
X128063473Y-51689147D01*
X128063474Y-51689153D01*
X128064456Y-51689147D01*
X128064447Y-51689052D01*
X128065009Y-51688997D01*
X128066758Y-51688911D01*
X128069541Y-51688319D01*
X128070896Y-51688253D01*
X128072201Y-51688148D01*
X128072934Y-51688148D01*
X128072978Y-51688151D01*
X128073040Y-51688148D01*
X128866606Y-51688148D01*
X128874675Y-51688603D01*
X128876251Y-51688847D01*
X128877838Y-51689340D01*
X128879446Y-51689681D01*
X128880120Y-51689748D01*
X128880125Y-51689749D01*
X128880110Y-51689822D01*
X128882975Y-51690430D01*
X128887576Y-51691371D01*
X128888167Y-51691559D01*
X128889028Y-51691825D01*
X128894294Y-51694082D01*
X128898601Y-51695887D01*
X128899135Y-51696180D01*
X128899372Y-51696308D01*
X128900376Y-51696729D01*
X128902533Y-51698221D01*
X128904334Y-51699444D01*
X128908448Y-51702186D01*
X128909489Y-51703242D01*
X128909760Y-51703466D01*
X128909808Y-51703514D01*
X128909818Y-51703523D01*
X128917088Y-51710896D01*
X128917320Y-51711184D01*
X128917984Y-51711858D01*
X128920093Y-51715089D01*
X128920747Y-51716081D01*
X128924366Y-51721513D01*
X128925413Y-51724125D01*
X128926099Y-51725802D01*
X128928423Y-51731366D01*
X128928628Y-51732440D01*
X128928631Y-51732452D01*
X128928870Y-51733245D01*
X128929972Y-51739034D01*
X128930860Y-51743486D01*
X128930932Y-51744283D01*
X128930949Y-51744453D01*
X128931588Y-51747660D01*
X128931852Y-51753055D01*
X128931852Y-53347587D01*
X128931499Y-53353513D01*
X128930843Y-53356604D01*
X128930763Y-53357365D01*
X128929488Y-53363372D01*
X128928622Y-53367597D01*
X128928442Y-53368165D01*
X128928180Y-53369011D01*
X128925966Y-53374180D01*
X128924113Y-53378601D01*
X128923820Y-53379135D01*
X128923692Y-53379371D01*
X128923271Y-53380376D01*
X128921779Y-53382533D01*
X128920556Y-53384334D01*
X128917817Y-53388444D01*
X128916763Y-53389483D01*
X128916534Y-53389760D01*
X128916486Y-53389808D01*
X128916477Y-53389818D01*
X128909102Y-53397089D01*
X128908809Y-53397324D01*
X128908139Y-53397985D01*
X128904816Y-53400154D01*
X128903814Y-53400815D01*
X128898482Y-53404368D01*
X128895875Y-53405413D01*
X128894198Y-53406099D01*
X128888634Y-53408423D01*
X128887560Y-53408628D01*
X128887548Y-53408631D01*
X128886755Y-53408870D01*
X128880966Y-53409972D01*
X128876514Y-53410860D01*
X128875717Y-53410932D01*
X128875547Y-53410949D01*
X128872340Y-53411588D01*
X128866945Y-53411852D01*
X128087776Y-53411852D01*
X128084634Y-53412148D01*
X128062846Y-53411985D01*
X128051125Y-53409573D01*
X128040131Y-53404947D01*
X128030162Y-53398216D01*
X128021807Y-53389796D01*
X128021245Y-53388950D01*
X128021239Y-53388942D01*
X128015683Y-53380569D01*
X128015683Y-53380568D01*
X128015115Y-53379713D01*
X128010594Y-53368722D01*
X128008281Y-53357016D01*
X128008292Y-53335811D01*
X128008916Y-53329437D01*
X128006501Y-53305052D01*
X127999375Y-53281607D01*
X127987812Y-53260002D01*
X127972256Y-53241069D01*
X127953306Y-53225534D01*
X127931689Y-53213995D01*
X127908236Y-53206894D01*
X127883849Y-53204506D01*
X127859464Y-53206921D01*
X127836019Y-53214047D01*
X127814414Y-53225610D01*
X127795481Y-53241166D01*
X127779986Y-53260056D01*
X127742878Y-53315593D01*
X127575593Y-53482878D01*
X127378887Y-53614312D01*
X127378886Y-53614313D01*
X127378885Y-53614313D01*
X127160318Y-53704847D01*
X126928290Y-53751000D01*
X126691710Y-53751000D01*
X126459682Y-53704847D01*
X126241115Y-53614313D01*
X126241114Y-53614313D01*
X126241113Y-53614312D01*
X126044407Y-53482878D01*
X125877122Y-53315593D01*
X125846169Y-53269268D01*
X125839106Y-53258698D01*
X125823560Y-53239756D01*
X125804618Y-53224211D01*
X125783007Y-53212660D01*
X125759558Y-53205547D01*
X125735172Y-53203145D01*
X125710786Y-53205547D01*
X125687337Y-53212660D01*
X125665727Y-53224211D01*
X125646785Y-53239757D01*
X125631240Y-53258699D01*
X125619689Y-53280310D01*
X125612576Y-53303759D01*
X125611119Y-53318546D01*
X125610925Y-53319482D01*
X125610924Y-53320528D01*
X125610174Y-53328145D01*
X125610914Y-53335981D01*
X125610908Y-53344844D01*
X125610982Y-53344837D01*
X125611034Y-53345406D01*
X125611024Y-53346839D01*
X125611066Y-53347042D01*
X125611047Y-53347236D01*
X125611190Y-53348578D01*
X125611194Y-53349129D01*
X125611082Y-53349130D01*
X125611173Y-53350117D01*
X125611202Y-53350117D01*
X125611204Y-53350455D01*
X125611288Y-53351359D01*
X125611119Y-53354855D01*
X125610734Y-53356801D01*
X125610821Y-53356810D01*
X125610762Y-53357371D01*
X125610481Y-53358741D01*
X125610482Y-53358906D01*
X125610432Y-53359072D01*
X125610307Y-53360457D01*
X125610203Y-53361005D01*
X125610108Y-53360987D01*
X125610003Y-53361984D01*
X125610017Y-53361987D01*
X125609986Y-53362148D01*
X125609884Y-53363127D01*
X125609025Y-53366581D01*
X125608653Y-53367483D01*
X125608635Y-53367541D01*
X125608630Y-53367539D01*
X125608237Y-53368495D01*
X125608331Y-53368524D01*
X125608166Y-53369056D01*
X125607627Y-53370335D01*
X125607607Y-53370442D01*
X125607544Y-53370561D01*
X125607133Y-53371961D01*
X125606922Y-53372485D01*
X125606841Y-53372452D01*
X125606550Y-53373393D01*
X125606554Y-53373395D01*
X125606535Y-53373442D01*
X125606245Y-53374379D01*
X125604618Y-53377837D01*
X125604098Y-53378619D01*
X125604088Y-53378637D01*
X125604086Y-53378636D01*
X125603543Y-53379452D01*
X125603624Y-53379496D01*
X125603361Y-53379982D01*
X125602564Y-53381162D01*
X125602500Y-53381322D01*
X125602393Y-53381454D01*
X125601752Y-53382681D01*
X125601440Y-53383158D01*
X125601361Y-53383106D01*
X125600898Y-53383964D01*
X125600908Y-53383971D01*
X125600827Y-53384095D01*
X125600348Y-53384981D01*
X125598227Y-53387859D01*
X125596805Y-53389289D01*
X125596876Y-53389347D01*
X125596520Y-53389777D01*
X125595544Y-53390746D01*
X125595451Y-53390889D01*
X125595311Y-53391005D01*
X125594440Y-53392089D01*
X125594046Y-53392492D01*
X125593972Y-53392420D01*
X125593314Y-53393215D01*
X125593326Y-53393227D01*
X125593190Y-53393366D01*
X125592536Y-53394157D01*
X125590098Y-53396383D01*
X125589293Y-53396925D01*
X125589142Y-53397049D01*
X125589131Y-53397035D01*
X125588278Y-53397610D01*
X125588349Y-53397696D01*
X125587916Y-53398049D01*
X125586808Y-53398785D01*
X125586646Y-53398951D01*
X125586428Y-53399069D01*
X125585402Y-53399930D01*
X125584938Y-53400248D01*
X125584874Y-53400155D01*
X125584085Y-53400800D01*
X125584100Y-53400823D01*
X125583837Y-53401003D01*
X125583081Y-53401621D01*
X125580191Y-53403373D01*
X125578278Y-53404178D01*
X125578319Y-53404255D01*
X125577827Y-53404516D01*
X125576577Y-53405030D01*
X125576518Y-53405063D01*
X125576476Y-53405092D01*
X125576367Y-53405126D01*
X125575085Y-53405831D01*
X125574567Y-53406054D01*
X125574539Y-53405988D01*
X125572879Y-53406870D01*
X125569125Y-53408237D01*
X125568263Y-53408414D01*
X125568199Y-53408433D01*
X125568197Y-53408427D01*
X125567278Y-53408616D01*
X125567304Y-53408703D01*
X125566768Y-53408865D01*
X125565368Y-53409143D01*
X125565207Y-53409212D01*
X125565029Y-53409231D01*
X125563691Y-53409656D01*
X125563141Y-53409773D01*
X125563118Y-53409667D01*
X125562164Y-53409956D01*
X125562169Y-53409980D01*
X125561885Y-53410040D01*
X125560983Y-53410313D01*
X125557576Y-53410840D01*
X125556595Y-53410846D01*
X125556527Y-53410853D01*
X125556526Y-53410847D01*
X125555544Y-53410853D01*
X125555553Y-53410948D01*
X125554991Y-53411003D01*
X125553242Y-53411089D01*
X125550459Y-53411681D01*
X125549104Y-53411747D01*
X125547799Y-53411852D01*
X125547066Y-53411852D01*
X125547022Y-53411849D01*
X125546960Y-53411852D01*
X124753394Y-53411852D01*
X124745325Y-53411397D01*
X124743749Y-53411153D01*
X124742162Y-53410660D01*
X124740554Y-53410319D01*
X124739880Y-53410252D01*
X124739875Y-53410251D01*
X124739890Y-53410178D01*
X124737025Y-53409570D01*
X124732424Y-53408629D01*
X124731806Y-53408433D01*
X124730972Y-53408175D01*
X124725706Y-53405918D01*
X124721399Y-53404113D01*
X124720865Y-53403820D01*
X124720628Y-53403692D01*
X124719624Y-53403271D01*
X124717467Y-53401779D01*
X124715666Y-53400556D01*
X124711552Y-53397814D01*
X124710511Y-53396758D01*
X124710240Y-53396534D01*
X124710192Y-53396486D01*
X124710182Y-53396477D01*
X124702912Y-53389104D01*
X124702680Y-53388816D01*
X124702016Y-53388142D01*
X124699907Y-53384911D01*
X124699253Y-53383919D01*
X124695634Y-53378487D01*
X124694587Y-53375875D01*
X124693901Y-53374198D01*
X124691577Y-53368634D01*
X124691372Y-53367559D01*
X124691367Y-53367541D01*
X124691130Y-53366755D01*
X124690028Y-53360966D01*
X124689140Y-53356514D01*
X124689068Y-53355717D01*
X124689051Y-53355547D01*
X124688412Y-53352340D01*
X124688148Y-53346945D01*
X124688148Y-51752413D01*
X124688501Y-51746487D01*
X124689157Y-51743396D01*
X124689237Y-51742635D01*
X124690512Y-51736628D01*
X124691378Y-51732403D01*
X124691558Y-51731835D01*
X124691820Y-51730989D01*
X124694034Y-51725820D01*
X124695887Y-51721399D01*
X124696180Y-51720865D01*
X124696308Y-51720629D01*
X124696729Y-51719624D01*
X124698221Y-51717467D01*
X124699444Y-51715666D01*
X124702183Y-51711556D01*
X124703237Y-51710517D01*
X124703466Y-51710240D01*
X124703514Y-51710192D01*
X124703523Y-51710182D01*
X124710898Y-51702911D01*
X124711191Y-51702676D01*
X124711861Y-51702015D01*
X124715184Y-51699846D01*
X124716186Y-51699185D01*
X124721518Y-51695632D01*
X124724125Y-51694587D01*
X124725802Y-51693901D01*
X124731366Y-51691577D01*
X124732440Y-51691372D01*
X124732452Y-51691369D01*
X124733245Y-51691130D01*
X124739034Y-51690028D01*
X124743486Y-51689140D01*
X124744283Y-51689068D01*
X124744453Y-51689051D01*
X124747660Y-51688412D01*
X124753055Y-51688148D01*
X125532224Y-51688148D01*
X125535366Y-51687852D01*
X125557154Y-51688015D01*
X125568875Y-51690427D01*
X125579869Y-51695053D01*
X125589838Y-51701784D01*
X125598193Y-51710204D01*
X125598755Y-51711050D01*
X125598761Y-51711058D01*
X125603666Y-51718450D01*
X125604885Y-51720287D01*
X125609406Y-51731278D01*
X125611719Y-51742984D01*
X125611708Y-51764189D01*
X125611084Y-51770563D01*
X125613499Y-51794948D01*
X125620625Y-51818393D01*
X125632188Y-51839998D01*
X125647744Y-51858931D01*
X125666694Y-51874466D01*
X125688311Y-51886005D01*
X125711764Y-51893106D01*
X125736151Y-51895494D01*
X125760536Y-51893079D01*
X125783981Y-51885953D01*
X125805586Y-51874390D01*
X125824519Y-51858834D01*
X125840016Y-51839941D01*
X125846169Y-51830732D01*
X125877122Y-51784407D01*
X126044407Y-51617122D01*
X126241113Y-51485688D01*
X126241115Y-51485687D01*
X126459682Y-51395153D01*
X126691710Y-51349000D01*
X126928290Y-51349000D01*
X127160318Y-51395153D01*
X127160318Y-51395153D01*
G37*
M02*
