M48
; DRILL file {KiCad (5.1.4)-1} date 17.04.2020 21:22:24
; FORMAT={3:3/ absolute / metric / suppress leading zeros}
; #@! TF.CreationDate,2020-04-17T21:22:24+02:00
; #@! TF.GenerationSoftware,Kicad,Pcbnew,(5.1.4)-1
FMAT,2
METRIC,TZ
T1C0.400
T2C0.550
T3C0.711
T4C0.800
T5C0.850
T6C1.000
T7C1.100
T8C1.300
T9C3.162
T10C3.640
T11C0.800
T12C3.200
%
G90
G05
T1
X57600Y-95200
X60005Y-92588
X61147Y-95165
X61395Y-92549
X61452Y-93623
X62000Y-127400
X62050Y-107000
X62300Y-101000
X63300Y-130900
X63600Y-101900
X63900Y-90700
X63987Y-96890
X64500Y-127300
X64700Y-123400
X65000Y-90700
X65600Y-106600
X66063Y-90737
X66800Y-106600
X67100Y-112400
X68200Y-111500
X68200Y-130900
X69406Y-93175
X69700Y-99600
X69700Y-131000
X70775Y-102900
X71500Y-97000
X72300Y-67200
X72400Y-96000
X72400Y-102900
X74300Y-122600
X78400Y-81900
X78400Y-106900
X81300Y-112600
X82025Y-123050
X86400Y-63600
X87400Y-88900
X87500Y-56900
X88800Y-56900
X90000Y-56900
X91300Y-56900
X94700Y-107900
X96125Y-126925
X96800Y-134200
X97750Y-126100
X100300Y-117300
X104000Y-105900
X105100Y-86500
X107500Y-116000
X111900Y-87100
X112450Y-127400
X113300Y-103100
X113700Y-87000
X120000Y-84000
X120000Y-85500
X124300Y-103300
X126100Y-87500
X131400Y-87100
X132000Y-102200
X133000Y-87300
X139400Y-84000
X139500Y-85500
X145500Y-99052
X146600Y-87400
X149100Y-98400
X149100Y-107000
X151600Y-102800
X151900Y-87200
X152700Y-102600
X152800Y-96500
X153700Y-86900
X155100Y-98400
X155100Y-107000
X158000Y-91500
X160200Y-84000
X160200Y-85500
X160500Y-102000
X161900Y-102600
X164400Y-125600
X166100Y-87300
X166500Y-127500
X166600Y-131850
X166650Y-130200
X166825Y-97146
X166825Y-109100
X166825Y-118900
X166825Y-120600
X168400Y-117400
X168750Y-126600
X171400Y-87100
X172300Y-106300
X172300Y-117400
X172300Y-128900
X172350Y-95850
X172500Y-94100
X173000Y-86900
X179600Y-85400
X179700Y-84000
T3
X68700Y-57600
X73750Y-57600
T4
X127000Y-82500
X134620Y-82500
X146500Y-82500
X154120Y-82500
X85900Y-68400
X85900Y-70400
X166000Y-82500
X173620Y-82500
X93700Y-68500
X93700Y-70500
X107500Y-82500
X115120Y-82500
T6
X66400Y-134500
X68940Y-134500
X71480Y-134500
X74020Y-134500
X76560Y-134500
X79100Y-134500
X67500Y-44500
X70040Y-44500
X67500Y-48150
X70040Y-48150
T7
X109500Y-129800
X109500Y-134300
X116000Y-129800
X116000Y-134300
X100000Y-129800
X100000Y-134300
X106500Y-129800
X106500Y-134300
X123000Y-131000
X123000Y-135500
X129500Y-131000
X129500Y-135500
X67900Y-63300
X78060Y-63300
T8
X106500Y-48500
X111500Y-48500
X116500Y-48500
X144500Y-60300
X144500Y-72500
X150500Y-74500
X156500Y-60300
X156500Y-72500
X125000Y-60300
X125000Y-72500
X131000Y-74500
X137000Y-60300
X137000Y-72500
X145500Y-48500
X150500Y-48500
X155500Y-48500
X165000Y-48500
X170000Y-48500
X175000Y-48500
X164000Y-60300
X164000Y-72500
X170000Y-74500
X176000Y-60300
X176000Y-72500
X59150Y-53550
X59150Y-58550
X180000Y-124000
X180000Y-129000
X180000Y-91000
X180000Y-96000
X180000Y-102000
X180000Y-107000
X78400Y-47300
X83400Y-47300
X105400Y-60300
X105400Y-72500
X111400Y-74500
X117400Y-60300
X117400Y-72500
X180000Y-113000
X180000Y-118000
X126000Y-48500
X131000Y-48500
X136000Y-48500
T9
X63700Y-76200
T10
X66700Y-80900
X69700Y-76200
T11
X57800Y-91400
X57800Y-96400
T12
X56250Y-44250
X182800Y-44200
X56250Y-135750
X182750Y-135750
T2
G00X55375Y-90025
M15
G01X54725Y-90025
M16
G05
G00X55375Y-97775
M15
G01X54725Y-97775
M16
G05
T5
G00X59125Y-90175
M15
G01X58575Y-90175
M16
G05
G00X59125Y-97625
M15
G01X58575Y-97625
M16
G05
T0
M30
