G04 #@! TF.GenerationSoftware,KiCad,Pcbnew,(5.1.4)-1*
G04 #@! TF.CreationDate,2020-04-17T21:05:18+02:00*
G04 #@! TF.ProjectId,Aktorbaustein,416b746f-7262-4617-9573-7465696e2e6b,rev?*
G04 #@! TF.SameCoordinates,Original*
G04 #@! TF.FileFunction,Legend,Bot*
G04 #@! TF.FilePolarity,Positive*
%FSLAX46Y46*%
G04 Gerber Fmt 4.6, Leading zero omitted, Abs format (unit mm)*
G04 Created by KiCad (PCBNEW (5.1.4)-1) date 2020-04-17 21:05:18*
%MOMM*%
%LPD*%
G04 APERTURE LIST*
%ADD10C,0.100000*%
%ADD11C,3.302000*%
%ADD12C,5.402000*%
%ADD13C,5.102000*%
%ADD14C,1.702000*%
%ADD15R,1.702000X1.702000*%
%ADD16O,1.702000X1.702000*%
%ADD17R,2.602000X2.602000*%
%ADD18C,2.602000*%
%ADD19R,1.802000X1.802000*%
%ADD20O,1.802000X1.802000*%
%ADD21O,2.602000X2.602000*%
%ADD22O,2.102000X1.552000*%
%ADD23O,1.902000X1.252000*%
%ADD24O,0.902000X0.902000*%
%ADD25C,1.320000*%
%ADD26R,2.302000X2.302000*%
%ADD27O,2.302000X2.302000*%
%ADD28C,2.102000*%
G04 APERTURE END LIST*
D10*
X150116666Y-134941666D02*
X150116666Y-134575000D01*
X150150000Y-134508333D01*
X150216666Y-134475000D01*
X150350000Y-134475000D01*
X150416666Y-134508333D01*
X150116666Y-134908333D02*
X150183333Y-134941666D01*
X150350000Y-134941666D01*
X150416666Y-134908333D01*
X150450000Y-134841666D01*
X150450000Y-134775000D01*
X150416666Y-134708333D01*
X150350000Y-134675000D01*
X150183333Y-134675000D01*
X150116666Y-134641666D01*
X149483333Y-134908333D02*
X149550000Y-134941666D01*
X149683333Y-134941666D01*
X149750000Y-134908333D01*
X149783333Y-134875000D01*
X149816666Y-134808333D01*
X149816666Y-134608333D01*
X149783333Y-134541666D01*
X149750000Y-134508333D01*
X149683333Y-134475000D01*
X149550000Y-134475000D01*
X149483333Y-134508333D01*
X149283333Y-134475000D02*
X149016666Y-134475000D01*
X149183333Y-134241666D02*
X149183333Y-134841666D01*
X149150000Y-134908333D01*
X149083333Y-134941666D01*
X149016666Y-134941666D01*
X148483333Y-134475000D02*
X148483333Y-134941666D01*
X148783333Y-134475000D02*
X148783333Y-134841666D01*
X148750000Y-134908333D01*
X148683333Y-134941666D01*
X148583333Y-134941666D01*
X148516666Y-134908333D01*
X148483333Y-134875000D01*
X147850000Y-134941666D02*
X147850000Y-134575000D01*
X147883333Y-134508333D01*
X147950000Y-134475000D01*
X148083333Y-134475000D01*
X148150000Y-134508333D01*
X147850000Y-134908333D02*
X147916666Y-134941666D01*
X148083333Y-134941666D01*
X148150000Y-134908333D01*
X148183333Y-134841666D01*
X148183333Y-134775000D01*
X148150000Y-134708333D01*
X148083333Y-134675000D01*
X147916666Y-134675000D01*
X147850000Y-134641666D01*
X147616666Y-134475000D02*
X147350000Y-134475000D01*
X147516666Y-134241666D02*
X147516666Y-134841666D01*
X147483333Y-134908333D01*
X147416666Y-134941666D01*
X147350000Y-134941666D01*
X147016666Y-134941666D02*
X147083333Y-134908333D01*
X147116666Y-134875000D01*
X147150000Y-134808333D01*
X147150000Y-134608333D01*
X147116666Y-134541666D01*
X147083333Y-134508333D01*
X147016666Y-134475000D01*
X146916666Y-134475000D01*
X146850000Y-134508333D01*
X146816666Y-134541666D01*
X146783333Y-134608333D01*
X146783333Y-134808333D01*
X146816666Y-134875000D01*
X146850000Y-134908333D01*
X146916666Y-134941666D01*
X147016666Y-134941666D01*
X146483333Y-134941666D02*
X146483333Y-134475000D01*
X146483333Y-134608333D02*
X146450000Y-134541666D01*
X146416666Y-134508333D01*
X146350000Y-134475000D01*
X146283333Y-134475000D01*
X145516666Y-134941666D02*
X145516666Y-134475000D01*
X145516666Y-134541666D02*
X145483333Y-134508333D01*
X145416666Y-134475000D01*
X145316666Y-134475000D01*
X145250000Y-134508333D01*
X145216666Y-134575000D01*
X145216666Y-134941666D01*
X145216666Y-134575000D02*
X145183333Y-134508333D01*
X145116666Y-134475000D01*
X145016666Y-134475000D01*
X144950000Y-134508333D01*
X144916666Y-134575000D01*
X144916666Y-134941666D01*
X144483333Y-134941666D02*
X144550000Y-134908333D01*
X144583333Y-134875000D01*
X144616666Y-134808333D01*
X144616666Y-134608333D01*
X144583333Y-134541666D01*
X144550000Y-134508333D01*
X144483333Y-134475000D01*
X144383333Y-134475000D01*
X144316666Y-134508333D01*
X144283333Y-134541666D01*
X144250000Y-134608333D01*
X144250000Y-134808333D01*
X144283333Y-134875000D01*
X144316666Y-134908333D01*
X144383333Y-134941666D01*
X144483333Y-134941666D01*
X143650000Y-134941666D02*
X143650000Y-134241666D01*
X143650000Y-134908333D02*
X143716666Y-134941666D01*
X143850000Y-134941666D01*
X143916666Y-134908333D01*
X143950000Y-134875000D01*
X143983333Y-134808333D01*
X143983333Y-134608333D01*
X143950000Y-134541666D01*
X143916666Y-134508333D01*
X143850000Y-134475000D01*
X143716666Y-134475000D01*
X143650000Y-134508333D01*
X143016666Y-134475000D02*
X143016666Y-134941666D01*
X143316666Y-134475000D02*
X143316666Y-134841666D01*
X143283333Y-134908333D01*
X143216666Y-134941666D01*
X143116666Y-134941666D01*
X143050000Y-134908333D01*
X143016666Y-134875000D01*
X142583333Y-134941666D02*
X142650000Y-134908333D01*
X142683333Y-134841666D01*
X142683333Y-134241666D01*
X142050000Y-134908333D02*
X142116666Y-134941666D01*
X142250000Y-134941666D01*
X142316666Y-134908333D01*
X142350000Y-134841666D01*
X142350000Y-134575000D01*
X142316666Y-134508333D01*
X142250000Y-134475000D01*
X142116666Y-134475000D01*
X142050000Y-134508333D01*
X142016666Y-134575000D01*
X142016666Y-134641666D01*
X142350000Y-134708333D01*
X140883333Y-134941666D02*
X140883333Y-134241666D01*
X140883333Y-134908333D02*
X140950000Y-134941666D01*
X141083333Y-134941666D01*
X141150000Y-134908333D01*
X141183333Y-134875000D01*
X141216666Y-134808333D01*
X141216666Y-134608333D01*
X141183333Y-134541666D01*
X141150000Y-134508333D01*
X141083333Y-134475000D01*
X140950000Y-134475000D01*
X140883333Y-134508333D01*
X140283333Y-134908333D02*
X140350000Y-134941666D01*
X140483333Y-134941666D01*
X140550000Y-134908333D01*
X140583333Y-134841666D01*
X140583333Y-134575000D01*
X140550000Y-134508333D01*
X140483333Y-134475000D01*
X140350000Y-134475000D01*
X140283333Y-134508333D01*
X140250000Y-134575000D01*
X140250000Y-134641666D01*
X140583333Y-134708333D01*
X140016666Y-134475000D02*
X139850000Y-134941666D01*
X139683333Y-134475000D01*
X139150000Y-134908333D02*
X139216666Y-134941666D01*
X139350000Y-134941666D01*
X139416666Y-134908333D01*
X139450000Y-134841666D01*
X139450000Y-134575000D01*
X139416666Y-134508333D01*
X139350000Y-134475000D01*
X139216666Y-134475000D01*
X139150000Y-134508333D01*
X139116666Y-134575000D01*
X139116666Y-134641666D01*
X139450000Y-134708333D01*
X138716666Y-134941666D02*
X138783333Y-134908333D01*
X138816666Y-134841666D01*
X138816666Y-134241666D01*
X138350000Y-134941666D02*
X138416666Y-134908333D01*
X138450000Y-134875000D01*
X138483333Y-134808333D01*
X138483333Y-134608333D01*
X138450000Y-134541666D01*
X138416666Y-134508333D01*
X138350000Y-134475000D01*
X138250000Y-134475000D01*
X138183333Y-134508333D01*
X138150000Y-134541666D01*
X138116666Y-134608333D01*
X138116666Y-134808333D01*
X138150000Y-134875000D01*
X138183333Y-134908333D01*
X138250000Y-134941666D01*
X138350000Y-134941666D01*
X137816666Y-134475000D02*
X137816666Y-135175000D01*
X137816666Y-134508333D02*
X137750000Y-134475000D01*
X137616666Y-134475000D01*
X137550000Y-134508333D01*
X137516666Y-134541666D01*
X137483333Y-134608333D01*
X137483333Y-134808333D01*
X137516666Y-134875000D01*
X137550000Y-134908333D01*
X137616666Y-134941666D01*
X137750000Y-134941666D01*
X137816666Y-134908333D01*
X136916666Y-134908333D02*
X136983333Y-134941666D01*
X137116666Y-134941666D01*
X137183333Y-134908333D01*
X137216666Y-134841666D01*
X137216666Y-134575000D01*
X137183333Y-134508333D01*
X137116666Y-134475000D01*
X136983333Y-134475000D01*
X136916666Y-134508333D01*
X136883333Y-134575000D01*
X136883333Y-134641666D01*
X137216666Y-134708333D01*
X136283333Y-134941666D02*
X136283333Y-134241666D01*
X136283333Y-134908333D02*
X136350000Y-134941666D01*
X136483333Y-134941666D01*
X136550000Y-134908333D01*
X136583333Y-134875000D01*
X136616666Y-134808333D01*
X136616666Y-134608333D01*
X136583333Y-134541666D01*
X136550000Y-134508333D01*
X136483333Y-134475000D01*
X136350000Y-134475000D01*
X136283333Y-134508333D01*
X135416666Y-134941666D02*
X135416666Y-134241666D01*
X135416666Y-134508333D02*
X135350000Y-134475000D01*
X135216666Y-134475000D01*
X135150000Y-134508333D01*
X135116666Y-134541666D01*
X135083333Y-134608333D01*
X135083333Y-134808333D01*
X135116666Y-134875000D01*
X135150000Y-134908333D01*
X135216666Y-134941666D01*
X135350000Y-134941666D01*
X135416666Y-134908333D01*
X134850000Y-134475000D02*
X134683333Y-134941666D01*
X134516666Y-134475000D02*
X134683333Y-134941666D01*
X134750000Y-135108333D01*
X134783333Y-135141666D01*
X134850000Y-135175000D01*
X153166666Y-136091666D02*
X153500000Y-136091666D01*
X153500000Y-135391666D01*
X152633333Y-135625000D02*
X152633333Y-136091666D01*
X152933333Y-135625000D02*
X152933333Y-135991666D01*
X152900000Y-136058333D01*
X152833333Y-136091666D01*
X152733333Y-136091666D01*
X152666666Y-136058333D01*
X152633333Y-136025000D01*
X152300000Y-136091666D02*
X152300000Y-135391666D01*
X152233333Y-135825000D02*
X152033333Y-136091666D01*
X152033333Y-135625000D02*
X152300000Y-135891666D01*
X151433333Y-136091666D02*
X151433333Y-135725000D01*
X151466666Y-135658333D01*
X151533333Y-135625000D01*
X151666666Y-135625000D01*
X151733333Y-135658333D01*
X151433333Y-136058333D02*
X151500000Y-136091666D01*
X151666666Y-136091666D01*
X151733333Y-136058333D01*
X151766666Y-135991666D01*
X151766666Y-135925000D01*
X151733333Y-135858333D01*
X151666666Y-135825000D01*
X151500000Y-135825000D01*
X151433333Y-135791666D01*
X151133333Y-136058333D02*
X151066666Y-136091666D01*
X150933333Y-136091666D01*
X150866666Y-136058333D01*
X150833333Y-135991666D01*
X150833333Y-135958333D01*
X150866666Y-135891666D01*
X150933333Y-135858333D01*
X151033333Y-135858333D01*
X151100000Y-135825000D01*
X151133333Y-135758333D01*
X151133333Y-135725000D01*
X151100000Y-135658333D01*
X151033333Y-135625000D01*
X150933333Y-135625000D01*
X150866666Y-135658333D01*
X150000000Y-136091666D02*
X150000000Y-135391666D01*
X149766666Y-135891666D01*
X149533333Y-135391666D01*
X149533333Y-136091666D01*
X148933333Y-136058333D02*
X149000000Y-136091666D01*
X149133333Y-136091666D01*
X149200000Y-136058333D01*
X149233333Y-135991666D01*
X149233333Y-135725000D01*
X149200000Y-135658333D01*
X149133333Y-135625000D01*
X149000000Y-135625000D01*
X148933333Y-135658333D01*
X148900000Y-135725000D01*
X148900000Y-135791666D01*
X149233333Y-135858333D01*
X148600000Y-136091666D02*
X148600000Y-135625000D01*
X148600000Y-135391666D02*
X148633333Y-135425000D01*
X148600000Y-135458333D01*
X148566666Y-135425000D01*
X148600000Y-135391666D01*
X148600000Y-135458333D01*
X148000000Y-136058333D02*
X148066666Y-136091666D01*
X148200000Y-136091666D01*
X148266666Y-136058333D01*
X148300000Y-135991666D01*
X148300000Y-135725000D01*
X148266666Y-135658333D01*
X148200000Y-135625000D01*
X148066666Y-135625000D01*
X148000000Y-135658333D01*
X147966666Y-135725000D01*
X147966666Y-135791666D01*
X148300000Y-135858333D01*
X147666666Y-135625000D02*
X147666666Y-136091666D01*
X147666666Y-135691666D02*
X147633333Y-135658333D01*
X147566666Y-135625000D01*
X147466666Y-135625000D01*
X147400000Y-135658333D01*
X147366666Y-135725000D01*
X147366666Y-136091666D01*
X147033333Y-136091666D02*
X147033333Y-135391666D01*
X147033333Y-135658333D02*
X146966666Y-135625000D01*
X146833333Y-135625000D01*
X146766666Y-135658333D01*
X146733333Y-135691666D01*
X146700000Y-135758333D01*
X146700000Y-135958333D01*
X146733333Y-136025000D01*
X146766666Y-136058333D01*
X146833333Y-136091666D01*
X146966666Y-136091666D01*
X147033333Y-136058333D01*
X146133333Y-136058333D02*
X146200000Y-136091666D01*
X146333333Y-136091666D01*
X146400000Y-136058333D01*
X146433333Y-135991666D01*
X146433333Y-135725000D01*
X146400000Y-135658333D01*
X146333333Y-135625000D01*
X146200000Y-135625000D01*
X146133333Y-135658333D01*
X146100000Y-135725000D01*
X146100000Y-135791666D01*
X146433333Y-135858333D01*
X145800000Y-136091666D02*
X145800000Y-135625000D01*
X145800000Y-135758333D02*
X145766666Y-135691666D01*
X145733333Y-135658333D01*
X145666666Y-135625000D01*
X145600000Y-135625000D01*
X145066666Y-135625000D02*
X145066666Y-136191666D01*
X145100000Y-136258333D01*
X145133333Y-136291666D01*
X145200000Y-136325000D01*
X145300000Y-136325000D01*
X145366666Y-136291666D01*
X145066666Y-136058333D02*
X145133333Y-136091666D01*
X145266666Y-136091666D01*
X145333333Y-136058333D01*
X145366666Y-136025000D01*
X145400000Y-135958333D01*
X145400000Y-135758333D01*
X145366666Y-135691666D01*
X145333333Y-135658333D01*
X145266666Y-135625000D01*
X145133333Y-135625000D01*
X145066666Y-135658333D01*
X144466666Y-136058333D02*
X144533333Y-136091666D01*
X144666666Y-136091666D01*
X144733333Y-136058333D01*
X144766666Y-135991666D01*
X144766666Y-135725000D01*
X144733333Y-135658333D01*
X144666666Y-135625000D01*
X144533333Y-135625000D01*
X144466666Y-135658333D01*
X144433333Y-135725000D01*
X144433333Y-135791666D01*
X144766666Y-135858333D01*
X144133333Y-136091666D02*
X144133333Y-135625000D01*
X144133333Y-135758333D02*
X144100000Y-135691666D01*
X144066666Y-135658333D01*
X144000000Y-135625000D01*
X143933333Y-135625000D01*
X142600000Y-136091666D02*
X142633333Y-136091666D01*
X142700000Y-136058333D01*
X142800000Y-135958333D01*
X142966666Y-135758333D01*
X143033333Y-135658333D01*
X143066666Y-135558333D01*
X143066666Y-135491666D01*
X143033333Y-135425000D01*
X142966666Y-135391666D01*
X142933333Y-135391666D01*
X142866666Y-135425000D01*
X142833333Y-135491666D01*
X142833333Y-135525000D01*
X142866666Y-135591666D01*
X142900000Y-135625000D01*
X143100000Y-135758333D01*
X143133333Y-135791666D01*
X143166666Y-135858333D01*
X143166666Y-135958333D01*
X143133333Y-136025000D01*
X143100000Y-136058333D01*
X143033333Y-136091666D01*
X142933333Y-136091666D01*
X142866666Y-136058333D01*
X142833333Y-136025000D01*
X142733333Y-135891666D01*
X142700000Y-135791666D01*
X142700000Y-135725000D01*
X141400000Y-135425000D02*
X141466666Y-135391666D01*
X141566666Y-135391666D01*
X141666666Y-135425000D01*
X141733333Y-135491666D01*
X141766666Y-135558333D01*
X141800000Y-135691666D01*
X141800000Y-135791666D01*
X141766666Y-135925000D01*
X141733333Y-135991666D01*
X141666666Y-136058333D01*
X141566666Y-136091666D01*
X141500000Y-136091666D01*
X141400000Y-136058333D01*
X141366666Y-136025000D01*
X141366666Y-135791666D01*
X141500000Y-135791666D01*
X140766666Y-136091666D02*
X140766666Y-135725000D01*
X140800000Y-135658333D01*
X140866666Y-135625000D01*
X141000000Y-135625000D01*
X141066666Y-135658333D01*
X140766666Y-136058333D02*
X140833333Y-136091666D01*
X141000000Y-136091666D01*
X141066666Y-136058333D01*
X141100000Y-135991666D01*
X141100000Y-135925000D01*
X141066666Y-135858333D01*
X141000000Y-135825000D01*
X140833333Y-135825000D01*
X140766666Y-135791666D01*
X140433333Y-136091666D02*
X140433333Y-135391666D01*
X140433333Y-135658333D02*
X140366666Y-135625000D01*
X140233333Y-135625000D01*
X140166666Y-135658333D01*
X140133333Y-135691666D01*
X140100000Y-135758333D01*
X140100000Y-135958333D01*
X140133333Y-136025000D01*
X140166666Y-136058333D01*
X140233333Y-136091666D01*
X140366666Y-136091666D01*
X140433333Y-136058333D01*
X139800000Y-136091666D02*
X139800000Y-135625000D01*
X139800000Y-135758333D02*
X139766666Y-135691666D01*
X139733333Y-135658333D01*
X139666666Y-135625000D01*
X139600000Y-135625000D01*
X139366666Y-136091666D02*
X139366666Y-135625000D01*
X139366666Y-135391666D02*
X139400000Y-135425000D01*
X139366666Y-135458333D01*
X139333333Y-135425000D01*
X139366666Y-135391666D01*
X139366666Y-135458333D01*
X138766666Y-136058333D02*
X138833333Y-136091666D01*
X138966666Y-136091666D01*
X139033333Y-136058333D01*
X139066666Y-135991666D01*
X139066666Y-135725000D01*
X139033333Y-135658333D01*
X138966666Y-135625000D01*
X138833333Y-135625000D01*
X138766666Y-135658333D01*
X138733333Y-135725000D01*
X138733333Y-135791666D01*
X139066666Y-135858333D01*
X138333333Y-136091666D02*
X138400000Y-136058333D01*
X138433333Y-135991666D01*
X138433333Y-135391666D01*
X137533333Y-136091666D02*
X137533333Y-135391666D01*
X137133333Y-136091666D01*
X137133333Y-135391666D01*
X136500000Y-135625000D02*
X136500000Y-136091666D01*
X136800000Y-135625000D02*
X136800000Y-135991666D01*
X136766666Y-136058333D01*
X136700000Y-136091666D01*
X136600000Y-136091666D01*
X136533333Y-136058333D01*
X136500000Y-136025000D01*
X136200000Y-136058333D02*
X136133333Y-136091666D01*
X136000000Y-136091666D01*
X135933333Y-136058333D01*
X135900000Y-135991666D01*
X135900000Y-135958333D01*
X135933333Y-135891666D01*
X136000000Y-135858333D01*
X136100000Y-135858333D01*
X136166666Y-135825000D01*
X136200000Y-135758333D01*
X136200000Y-135725000D01*
X136166666Y-135658333D01*
X136100000Y-135625000D01*
X136000000Y-135625000D01*
X135933333Y-135658333D01*
X135633333Y-136058333D02*
X135566666Y-136091666D01*
X135433333Y-136091666D01*
X135366666Y-136058333D01*
X135333333Y-135991666D01*
X135333333Y-135958333D01*
X135366666Y-135891666D01*
X135433333Y-135858333D01*
X135533333Y-135858333D01*
X135600000Y-135825000D01*
X135633333Y-135758333D01*
X135633333Y-135725000D01*
X135600000Y-135658333D01*
X135533333Y-135625000D01*
X135433333Y-135625000D01*
X135366666Y-135658333D01*
X135033333Y-136091666D02*
X135033333Y-135391666D01*
X135033333Y-135658333D02*
X134966666Y-135625000D01*
X134833333Y-135625000D01*
X134766666Y-135658333D01*
X134733333Y-135691666D01*
X134700000Y-135758333D01*
X134700000Y-135958333D01*
X134733333Y-136025000D01*
X134766666Y-136058333D01*
X134833333Y-136091666D01*
X134966666Y-136091666D01*
X135033333Y-136058333D01*
X134100000Y-136091666D02*
X134100000Y-135725000D01*
X134133333Y-135658333D01*
X134200000Y-135625000D01*
X134333333Y-135625000D01*
X134400000Y-135658333D01*
X134100000Y-136058333D02*
X134166666Y-136091666D01*
X134333333Y-136091666D01*
X134400000Y-136058333D01*
X134433333Y-135991666D01*
X134433333Y-135925000D01*
X134400000Y-135858333D01*
X134333333Y-135825000D01*
X134166666Y-135825000D01*
X134100000Y-135791666D01*
X133466666Y-135625000D02*
X133466666Y-136091666D01*
X133766666Y-135625000D02*
X133766666Y-135991666D01*
X133733333Y-136058333D01*
X133666666Y-136091666D01*
X133566666Y-136091666D01*
X133500000Y-136058333D01*
X133466666Y-136025000D01*
X133133333Y-136091666D02*
X133133333Y-135625000D01*
X133133333Y-135691666D02*
X133100000Y-135658333D01*
X133033333Y-135625000D01*
X132933333Y-135625000D01*
X132866666Y-135658333D01*
X132833333Y-135725000D01*
X132833333Y-136091666D01*
X132833333Y-135725000D02*
X132800000Y-135658333D01*
X132733333Y-135625000D01*
X132633333Y-135625000D01*
X132566666Y-135658333D01*
X132533333Y-135725000D01*
X132533333Y-136091666D01*
X131933333Y-136058333D02*
X132000000Y-136091666D01*
X132133333Y-136091666D01*
X132200000Y-136058333D01*
X132233333Y-135991666D01*
X132233333Y-135725000D01*
X132200000Y-135658333D01*
X132133333Y-135625000D01*
X132000000Y-135625000D01*
X131933333Y-135658333D01*
X131900000Y-135725000D01*
X131900000Y-135791666D01*
X132233333Y-135858333D01*
X131600000Y-136091666D02*
X131600000Y-135625000D01*
X131600000Y-135758333D02*
X131566666Y-135691666D01*
X131533333Y-135658333D01*
X131466666Y-135625000D01*
X131400000Y-135625000D01*
%LPC*%
D11*
X182750000Y-135750000D03*
X56250000Y-135750000D03*
X182800000Y-44200000D03*
X56250000Y-44250000D03*
D12*
X69700000Y-76200000D03*
D13*
X63700000Y-76200000D03*
D12*
X66700000Y-80900000D03*
D14*
X93700000Y-70500000D03*
D15*
X93700000Y-68500000D03*
X107500000Y-82500000D03*
D16*
X115120000Y-82500000D03*
X134620000Y-82500000D03*
D15*
X127000000Y-82500000D03*
X146500000Y-82500000D03*
D16*
X154120000Y-82500000D03*
X173620000Y-82500000D03*
D15*
X166000000Y-82500000D03*
D17*
X180000000Y-96000000D03*
D18*
X180000000Y-91000000D03*
X180000000Y-102000000D03*
D17*
X180000000Y-107000000D03*
X180000000Y-118000000D03*
D18*
X180000000Y-113000000D03*
X180000000Y-124000000D03*
D17*
X180000000Y-129000000D03*
X116500000Y-48500000D03*
D18*
X111500000Y-48500000D03*
X106500000Y-48500000D03*
X126000000Y-48500000D03*
X131000000Y-48500000D03*
D17*
X136000000Y-48500000D03*
X155500000Y-48500000D03*
D18*
X150500000Y-48500000D03*
X145500000Y-48500000D03*
X165000000Y-48500000D03*
X170000000Y-48500000D03*
D17*
X175000000Y-48500000D03*
D19*
X66400000Y-134500000D03*
D20*
X68940000Y-134500000D03*
X71480000Y-134500000D03*
X74020000Y-134500000D03*
X76560000Y-134500000D03*
X79100000Y-134500000D03*
D17*
X59150000Y-53550000D03*
D18*
X59150000Y-58550000D03*
X83400000Y-47300000D03*
D17*
X78400000Y-47300000D03*
X111400000Y-74500000D03*
D21*
X117400000Y-72500000D03*
X117400000Y-60300000D03*
X105400000Y-60300000D03*
X105400000Y-72500000D03*
X125000000Y-72500000D03*
X125000000Y-60300000D03*
X137000000Y-60300000D03*
X137000000Y-72500000D03*
D17*
X131000000Y-74500000D03*
X150500000Y-74500000D03*
D21*
X156500000Y-72500000D03*
X156500000Y-60300000D03*
X144500000Y-60300000D03*
X144500000Y-72500000D03*
X164000000Y-72500000D03*
X164000000Y-60300000D03*
X176000000Y-60300000D03*
X176000000Y-72500000D03*
D17*
X170000000Y-74500000D03*
D22*
X58850000Y-90175000D03*
X58850000Y-97625000D03*
D23*
X55050000Y-90025000D03*
X55050000Y-97775000D03*
D24*
X57800000Y-91400000D03*
X57800000Y-96400000D03*
D25*
X73750000Y-57600000D03*
X68700000Y-57600000D03*
D15*
X85900000Y-68400000D03*
D14*
X85900000Y-70400000D03*
D26*
X67900000Y-63300000D03*
D27*
X78060000Y-63300000D03*
D19*
X67500000Y-44500000D03*
D20*
X70040000Y-44500000D03*
X70040000Y-48150000D03*
D19*
X67500000Y-48150000D03*
D28*
X123000000Y-135500000D03*
X123000000Y-131000000D03*
X129500000Y-135500000D03*
X129500000Y-131000000D03*
X116000000Y-129800000D03*
X116000000Y-134300000D03*
X109500000Y-129800000D03*
X109500000Y-134300000D03*
X100000000Y-134300000D03*
X100000000Y-129800000D03*
X106500000Y-134300000D03*
X106500000Y-129800000D03*
M02*
