G04 #@! TF.GenerationSoftware,KiCad,Pcbnew,(5.1.4)-1*
G04 #@! TF.CreationDate,2020-04-17T21:05:17+02:00*
G04 #@! TF.ProjectId,Aktorbaustein,416b746f-7262-4617-9573-7465696e2e6b,rev?*
G04 #@! TF.SameCoordinates,Original*
G04 #@! TF.FileFunction,Copper,L2,Bot*
G04 #@! TF.FilePolarity,Positive*
%FSLAX46Y46*%
G04 Gerber Fmt 4.6, Leading zero omitted, Abs format (unit mm)*
G04 Created by KiCad (PCBNEW (5.1.4)-1) date 2020-04-17 21:05:17*
%MOMM*%
%LPD*%
G04 APERTURE LIST*
%ADD10C,5.300000*%
%ADD11C,5.000000*%
%ADD12C,1.600000*%
%ADD13R,1.600000X1.600000*%
%ADD14O,1.600000X1.600000*%
%ADD15R,2.500000X2.500000*%
%ADD16C,2.500000*%
%ADD17R,1.700000X1.700000*%
%ADD18O,1.700000X1.700000*%
%ADD19O,2.500000X2.500000*%
%ADD20O,2.000000X1.450000*%
%ADD21O,1.800000X1.150000*%
%ADD22C,1.218000*%
%ADD23R,2.200000X2.200000*%
%ADD24O,2.200000X2.200000*%
%ADD25C,2.000000*%
%ADD26C,0.800000*%
%ADD27C,0.250000*%
%ADD28C,2.500000*%
%ADD29C,0.254000*%
G04 APERTURE END LIST*
D10*
X69700000Y-76200000D03*
D11*
X63700000Y-76200000D03*
D10*
X66700000Y-80900000D03*
D12*
X93700000Y-70500000D03*
D13*
X93700000Y-68500000D03*
X107500000Y-82500000D03*
D14*
X115120000Y-82500000D03*
X134620000Y-82500000D03*
D13*
X127000000Y-82500000D03*
X146500000Y-82500000D03*
D14*
X154120000Y-82500000D03*
X173620000Y-82500000D03*
D13*
X166000000Y-82500000D03*
D15*
X180000000Y-96000000D03*
D16*
X180000000Y-91000000D03*
X180000000Y-102000000D03*
D15*
X180000000Y-107000000D03*
X180000000Y-118000000D03*
D16*
X180000000Y-113000000D03*
X180000000Y-124000000D03*
D15*
X180000000Y-129000000D03*
X116500000Y-48500000D03*
D16*
X111500000Y-48500000D03*
X106500000Y-48500000D03*
X126000000Y-48500000D03*
X131000000Y-48500000D03*
D15*
X136000000Y-48500000D03*
X155500000Y-48500000D03*
D16*
X150500000Y-48500000D03*
X145500000Y-48500000D03*
X165000000Y-48500000D03*
X170000000Y-48500000D03*
D15*
X175000000Y-48500000D03*
D17*
X66400000Y-134500000D03*
D18*
X68940000Y-134500000D03*
X71480000Y-134500000D03*
X74020000Y-134500000D03*
X76560000Y-134500000D03*
X79100000Y-134500000D03*
D15*
X59150000Y-53550000D03*
D16*
X59150000Y-58550000D03*
X83400000Y-47300000D03*
D15*
X78400000Y-47300000D03*
X111400000Y-74500000D03*
D19*
X117400000Y-72500000D03*
X117400000Y-60300000D03*
X105400000Y-60300000D03*
X105400000Y-72500000D03*
X125000000Y-72500000D03*
X125000000Y-60300000D03*
X137000000Y-60300000D03*
X137000000Y-72500000D03*
D15*
X131000000Y-74500000D03*
X150500000Y-74500000D03*
D19*
X156500000Y-72500000D03*
X156500000Y-60300000D03*
X144500000Y-60300000D03*
X144500000Y-72500000D03*
X164000000Y-72500000D03*
X164000000Y-60300000D03*
X176000000Y-60300000D03*
X176000000Y-72500000D03*
D15*
X170000000Y-74500000D03*
D20*
X58850000Y-90175000D03*
X58850000Y-97625000D03*
D21*
X55050000Y-90025000D03*
X55050000Y-97775000D03*
D22*
X73750000Y-57600000D03*
X68700000Y-57600000D03*
D13*
X85900000Y-68400000D03*
D12*
X85900000Y-70400000D03*
D23*
X67900000Y-63300000D03*
D24*
X78060000Y-63300000D03*
D17*
X67500000Y-44500000D03*
D18*
X70040000Y-44500000D03*
X70040000Y-48150000D03*
D17*
X67500000Y-48150000D03*
D25*
X123000000Y-135500000D03*
X123000000Y-131000000D03*
X129500000Y-135500000D03*
X129500000Y-131000000D03*
X116000000Y-129800000D03*
X116000000Y-134300000D03*
X109500000Y-129800000D03*
X109500000Y-134300000D03*
X100000000Y-134300000D03*
X100000000Y-129800000D03*
X106500000Y-134300000D03*
X106500000Y-129800000D03*
D26*
X120000000Y-84000000D03*
X120000000Y-85500000D03*
X139400000Y-84000000D03*
X139500000Y-85500000D03*
X160200000Y-84000000D03*
X160200000Y-85500000D03*
X179700000Y-84000000D03*
X179600000Y-85400000D03*
X155100000Y-98400000D03*
X151600000Y-102800000D03*
X152700000Y-102600000D03*
X149100000Y-107000000D03*
X155100000Y-107000000D03*
X149100000Y-98400000D03*
X161900000Y-102600000D03*
X100300000Y-117300000D03*
X72300000Y-67200000D03*
X111900000Y-87100000D03*
X131400000Y-87100000D03*
X151900000Y-87200000D03*
X171400000Y-87100000D03*
X166825000Y-97145500D03*
X172350153Y-95849847D03*
X166825000Y-109100000D03*
X172300000Y-106300000D03*
X166825000Y-118900000D03*
X166825000Y-120600000D03*
X172300000Y-117400000D03*
X62000000Y-127400000D03*
X63300000Y-130900000D03*
X68200000Y-130900000D03*
X69700000Y-131000000D03*
X82025000Y-123050000D03*
X62050000Y-107000000D03*
X166600000Y-131850000D03*
X166650000Y-130200000D03*
X172300000Y-128900000D03*
X87500000Y-56900000D03*
X88800000Y-56900000D03*
X90000000Y-56900000D03*
X91300000Y-56900000D03*
X86400000Y-63600000D03*
X78400000Y-81900000D03*
X62300000Y-101000000D03*
X57600000Y-95200000D03*
X61394660Y-92549151D03*
X107500000Y-116000000D03*
X69405605Y-93175000D03*
X87400000Y-88900000D03*
X168400000Y-117400000D03*
X168750002Y-126600000D03*
X96800000Y-134200000D03*
X97750000Y-126100000D03*
X63600000Y-101900000D03*
X166500000Y-127500000D03*
X160500000Y-102000000D03*
X158000000Y-91500000D03*
X81300000Y-112600000D03*
X74300000Y-122600000D03*
X65000000Y-90700000D03*
X65600000Y-106600000D03*
X67100000Y-112400000D03*
X66800000Y-106600000D03*
X66062653Y-90737347D03*
X68200000Y-111500000D03*
X64700000Y-123400000D03*
X71500000Y-97000000D03*
X112450000Y-127400000D03*
X64500000Y-127300000D03*
X96125010Y-126925010D03*
X94700000Y-107900000D03*
X69700000Y-99600000D03*
X70775000Y-102900000D03*
X72400000Y-102900000D03*
X78400000Y-106900000D03*
X63900000Y-90700000D03*
X72400000Y-96000000D03*
X113300000Y-103100000D03*
X113700000Y-87000000D03*
X132000000Y-102200000D03*
X133000000Y-87300000D03*
X152800000Y-96500000D03*
X153700000Y-86900000D03*
X172500000Y-94100000D03*
X173000000Y-86900000D03*
X105100000Y-86500000D03*
X104000000Y-105900000D03*
X124300000Y-103300000D03*
X126100000Y-87500000D03*
X145500000Y-99051988D03*
X146600000Y-87400000D03*
X166100000Y-87300000D03*
X164400000Y-125600000D03*
X60005396Y-92587906D03*
X63987381Y-96890433D03*
X61451534Y-93623160D03*
X61147349Y-95164998D03*
D27*
X152925001Y-86174999D02*
X171225001Y-86174999D01*
X151900000Y-87200000D02*
X152925001Y-86174999D01*
X166825000Y-97145500D02*
X167224999Y-97545499D01*
X167700000Y-108200000D02*
X167600000Y-108200000D01*
X166825001Y-86951999D02*
X166448001Y-86574999D01*
X166448001Y-86574999D02*
X165751999Y-86574999D01*
X89365685Y-56900000D02*
X90100000Y-57634315D01*
X88800000Y-56900000D02*
X89365685Y-56900000D01*
X90000000Y-56900000D02*
X91400000Y-58300000D01*
X91300000Y-57465685D02*
X87500000Y-61265685D01*
X91300000Y-56900000D02*
X91300000Y-57465685D01*
X87500000Y-61265685D02*
X87500000Y-63600000D01*
X69805604Y-92775001D02*
X69805604Y-91894396D01*
X69405605Y-93175000D02*
X69805604Y-92775001D01*
X69805604Y-91894396D02*
X72800000Y-88900000D01*
X72800000Y-88900000D02*
X87400000Y-88900000D01*
X168400000Y-117400000D02*
X168400000Y-126249998D01*
X168400000Y-126249998D02*
X168750002Y-126600000D01*
X97199999Y-133800001D02*
X96800000Y-134200000D01*
X97350001Y-133649999D02*
X97199999Y-133800001D01*
X97350001Y-126499999D02*
X97350001Y-133649999D01*
X97750000Y-126100000D02*
X97350001Y-126499999D01*
X168750002Y-126600000D02*
X167850002Y-127500000D01*
X167850002Y-127500000D02*
X166500000Y-127500000D01*
X67000000Y-133900000D02*
X66400000Y-134500000D01*
X63000000Y-102500000D02*
X63000000Y-123000000D01*
X63600000Y-101900000D02*
X63000000Y-102500000D01*
X63000000Y-123000000D02*
X65500000Y-125500000D01*
X65500000Y-125500000D02*
X65500000Y-127500000D01*
X65500000Y-127500000D02*
X67000000Y-129000000D01*
X67000000Y-129000000D02*
X67000000Y-133900000D01*
X125950000Y-82500000D02*
X127000000Y-82500000D01*
X107500000Y-82500000D02*
X108550000Y-82500000D01*
X145450000Y-82500000D02*
X146500000Y-82500000D01*
X139826998Y-82500000D02*
X145450000Y-82500000D01*
X138701997Y-83625001D02*
X139826998Y-82500000D01*
X134079999Y-83625001D02*
X138701997Y-83625001D01*
X132954998Y-82500000D02*
X134079999Y-83625001D01*
X127000000Y-82500000D02*
X132954998Y-82500000D01*
X164950000Y-82500000D02*
X166000000Y-82500000D01*
X160626998Y-82500000D02*
X164950000Y-82500000D01*
X159501997Y-83625001D02*
X160626998Y-82500000D01*
X148675001Y-83625001D02*
X159501997Y-83625001D01*
X147550000Y-82500000D02*
X148675001Y-83625001D01*
X146500000Y-82500000D02*
X147550000Y-82500000D01*
X108550000Y-82500000D02*
X109675001Y-83625001D01*
X119301997Y-83625001D02*
X120426998Y-82500000D01*
X109675001Y-83625001D02*
X119301997Y-83625001D01*
X120426998Y-82500000D02*
X125950000Y-82500000D01*
X160500000Y-102000000D02*
X160500000Y-93000000D01*
X160500000Y-93000000D02*
X159000000Y-91500000D01*
X159000000Y-91500000D02*
X158000000Y-91500000D01*
D28*
X111400000Y-74500000D02*
X111400000Y-48600000D01*
X117400000Y-60300000D02*
X117400000Y-49400000D01*
X117400000Y-49400000D02*
X116500000Y-48500000D01*
X105400000Y-49600000D02*
X106500000Y-48500000D01*
X105400000Y-60300000D02*
X105400000Y-49600000D01*
X125000000Y-49500000D02*
X126000000Y-48500000D01*
X125000000Y-60300000D02*
X125000000Y-49500000D01*
X137000000Y-49500000D02*
X136000000Y-48500000D01*
X137000000Y-60300000D02*
X137000000Y-49500000D01*
X131000000Y-74500000D02*
X131000000Y-48500000D01*
X150500000Y-74500000D02*
X150500000Y-48500000D01*
X156500000Y-49500000D02*
X155500000Y-48500000D01*
X156500000Y-60300000D02*
X156500000Y-49500000D01*
X144500000Y-49500000D02*
X145500000Y-48500000D01*
X144500000Y-60300000D02*
X144500000Y-49500000D01*
X164000000Y-49500000D02*
X165000000Y-48500000D01*
X164000000Y-60300000D02*
X164000000Y-49500000D01*
X176000000Y-49500000D02*
X175000000Y-48500000D01*
X176000000Y-60300000D02*
X176000000Y-49500000D01*
X170000000Y-74500000D02*
X170000000Y-48500000D01*
D27*
X72329999Y-135349999D02*
X71480000Y-134500000D01*
X72655001Y-135675001D02*
X72329999Y-135349999D01*
X79664001Y-135675001D02*
X72655001Y-135675001D01*
X81300000Y-134039002D02*
X79664001Y-135675001D01*
X81300000Y-112600000D02*
X81300000Y-134039002D01*
X74300000Y-134220000D02*
X74020000Y-134500000D01*
X74300000Y-122600000D02*
X74300000Y-134220000D01*
X65000000Y-90700000D02*
X65600000Y-91300000D01*
X65600000Y-91300000D02*
X65600000Y-106600000D01*
X76560000Y-121860000D02*
X76560000Y-134500000D01*
X67100000Y-112400000D02*
X76560000Y-121860000D01*
X66925306Y-91600000D02*
X66062653Y-90737347D01*
X67200000Y-91600000D02*
X66925306Y-91600000D01*
X67344998Y-91744998D02*
X67200000Y-91600000D01*
X66800000Y-106600000D02*
X67344998Y-106055002D01*
X67344998Y-106055002D02*
X67344998Y-91744998D01*
X79100000Y-122400000D02*
X79100000Y-135200000D01*
X68200000Y-111500000D02*
X79100000Y-122400000D01*
X71500000Y-106600000D02*
X64700000Y-113400000D01*
X64700000Y-113400000D02*
X64700000Y-123400000D01*
X71500000Y-106600000D02*
X71500000Y-97000000D01*
X64250000Y-127550000D02*
X64500000Y-127300000D01*
X112400000Y-127450000D02*
X112450000Y-127400000D01*
X64500000Y-127300000D02*
X64100001Y-127699999D01*
X64100001Y-127699999D02*
X64100001Y-137600001D01*
X64100001Y-137600001D02*
X64750000Y-138250000D01*
X64750000Y-138250000D02*
X111550000Y-138250000D01*
X111550000Y-138250000D02*
X112400000Y-137400000D01*
X112400000Y-137400000D02*
X112400000Y-127450000D01*
X96125010Y-126925010D02*
X95700000Y-126500000D01*
X95700000Y-126500000D02*
X95700000Y-108400000D01*
X95700000Y-108400000D02*
X95200000Y-107900000D01*
X95200000Y-107900000D02*
X94700000Y-107900000D01*
X69700000Y-99600000D02*
X69700000Y-100165685D01*
X69700000Y-100165685D02*
X69700000Y-101800000D01*
X69700000Y-101800000D02*
X70775000Y-102875000D01*
X70775000Y-102875000D02*
X70775000Y-102900000D01*
X72400000Y-102900000D02*
X73500000Y-102900000D01*
X73500000Y-102900000D02*
X74000000Y-102900000D01*
X74000000Y-102900000D02*
X74400000Y-102900000D01*
X74400000Y-102900000D02*
X78400000Y-106900000D01*
X63900000Y-90134315D02*
X63934315Y-90100000D01*
X63900000Y-90700000D02*
X63900000Y-90134315D01*
X66360654Y-89962346D02*
X67795008Y-91396700D01*
X63900000Y-90134315D02*
X64071969Y-89962346D01*
X64071969Y-89962346D02*
X66360654Y-89962346D01*
X67795008Y-91396700D02*
X67795008Y-95695008D01*
X67795008Y-95695008D02*
X68100000Y-96000000D01*
X68100000Y-96000000D02*
X72400000Y-96000000D01*
X113300000Y-103100000D02*
X113700000Y-102700000D01*
X113700000Y-102700000D02*
X113700000Y-87000000D01*
X132000000Y-102200000D02*
X132900000Y-101300000D01*
X132900000Y-101300000D02*
X132900000Y-87400000D01*
X132900000Y-87400000D02*
X133000000Y-87300000D01*
X152800000Y-96500000D02*
X153700000Y-95600000D01*
X153700000Y-95600000D02*
X153700000Y-86900000D01*
X172500000Y-94100000D02*
X172500000Y-87400000D01*
X172500000Y-87400000D02*
X173000000Y-86900000D01*
X105100000Y-86500000D02*
X104600000Y-87000000D01*
X104600000Y-87000000D02*
X104600000Y-87400000D01*
X104600000Y-87400000D02*
X104600000Y-102600000D01*
X104600000Y-102600000D02*
X104600000Y-103500000D01*
X104600000Y-103500000D02*
X104600000Y-103600000D01*
X104600000Y-103500000D02*
X104600000Y-105300000D01*
X104600000Y-105300000D02*
X104000000Y-105900000D01*
X124300000Y-103300000D02*
X126100000Y-101500000D01*
X126100000Y-101500000D02*
X126100000Y-87500000D01*
X145500000Y-99051988D02*
X146600000Y-97951988D01*
X146600000Y-97951988D02*
X146600000Y-87400000D01*
X166100000Y-87300000D02*
X166100000Y-119300000D01*
X166100000Y-119300000D02*
X166100000Y-124500000D01*
X166100000Y-124500000D02*
X165200000Y-125400000D01*
X165200000Y-125400000D02*
X165000000Y-125600000D01*
X165000000Y-125600000D02*
X164400000Y-125600000D01*
X61834435Y-96890433D02*
X63987381Y-96890433D01*
X60005396Y-92587906D02*
X60005396Y-95061394D01*
X60005396Y-95061394D02*
X61834435Y-96890433D01*
X61300000Y-95012347D02*
X61147349Y-95164998D01*
X61300000Y-94340379D02*
X61300000Y-95012347D01*
X61451534Y-94188845D02*
X61300000Y-94340379D01*
X61451534Y-93623160D02*
X61451534Y-94188845D01*
D29*
G36*
X98873000Y-81000000D02*
G01*
X98875440Y-81024776D01*
X98882667Y-81048601D01*
X98894403Y-81070557D01*
X98910197Y-81089803D01*
X98929443Y-81105597D01*
X98951399Y-81117333D01*
X98975224Y-81124560D01*
X99000000Y-81127000D01*
X106424947Y-81127000D01*
X106345506Y-81169463D01*
X106248815Y-81248815D01*
X106169463Y-81345506D01*
X106110498Y-81455820D01*
X106074188Y-81575518D01*
X106061928Y-81700000D01*
X106061928Y-83300000D01*
X106074188Y-83424482D01*
X106110498Y-83544180D01*
X106169463Y-83654494D01*
X106248815Y-83751185D01*
X106345506Y-83830537D01*
X106455820Y-83889502D01*
X106575518Y-83925812D01*
X106700000Y-83938072D01*
X108300000Y-83938072D01*
X108424482Y-83925812D01*
X108544180Y-83889502D01*
X108654494Y-83830537D01*
X108737563Y-83762364D01*
X109111202Y-84136004D01*
X109135000Y-84165002D01*
X109250725Y-84259975D01*
X109382754Y-84330547D01*
X109526015Y-84374004D01*
X109637668Y-84385001D01*
X109637676Y-84385001D01*
X109675001Y-84388677D01*
X109712326Y-84385001D01*
X119264675Y-84385001D01*
X119301997Y-84388677D01*
X119339319Y-84385001D01*
X119339330Y-84385001D01*
X119450983Y-84374004D01*
X119594244Y-84330547D01*
X119726273Y-84259975D01*
X119841998Y-84165002D01*
X119865801Y-84135999D01*
X120741800Y-83260000D01*
X125561928Y-83260000D01*
X125561928Y-83300000D01*
X125574188Y-83424482D01*
X125610498Y-83544180D01*
X125669463Y-83654494D01*
X125748815Y-83751185D01*
X125845506Y-83830537D01*
X125955820Y-83889502D01*
X126075518Y-83925812D01*
X126200000Y-83938072D01*
X127800000Y-83938072D01*
X127924482Y-83925812D01*
X128044180Y-83889502D01*
X128154494Y-83830537D01*
X128251185Y-83751185D01*
X128330537Y-83654494D01*
X128389502Y-83544180D01*
X128425812Y-83424482D01*
X128438072Y-83300000D01*
X128438072Y-83260000D01*
X132640197Y-83260000D01*
X133516200Y-84136004D01*
X133539998Y-84165002D01*
X133655723Y-84259975D01*
X133787752Y-84330547D01*
X133931013Y-84374004D01*
X134042666Y-84385001D01*
X134042674Y-84385001D01*
X134079999Y-84388677D01*
X134117324Y-84385001D01*
X138664675Y-84385001D01*
X138701997Y-84388677D01*
X138739319Y-84385001D01*
X138739330Y-84385001D01*
X138850983Y-84374004D01*
X138994244Y-84330547D01*
X139126273Y-84259975D01*
X139241998Y-84165002D01*
X139265801Y-84135999D01*
X140141800Y-83260000D01*
X145061928Y-83260000D01*
X145061928Y-83300000D01*
X145074188Y-83424482D01*
X145110498Y-83544180D01*
X145169463Y-83654494D01*
X145248815Y-83751185D01*
X145345506Y-83830537D01*
X145455820Y-83889502D01*
X145575518Y-83925812D01*
X145700000Y-83938072D01*
X147300000Y-83938072D01*
X147424482Y-83925812D01*
X147544180Y-83889502D01*
X147654494Y-83830537D01*
X147737563Y-83762364D01*
X148111202Y-84136004D01*
X148135000Y-84165002D01*
X148250725Y-84259975D01*
X148382754Y-84330547D01*
X148526015Y-84374004D01*
X148637668Y-84385001D01*
X148637676Y-84385001D01*
X148675001Y-84388677D01*
X148712326Y-84385001D01*
X159464675Y-84385001D01*
X159501997Y-84388677D01*
X159539319Y-84385001D01*
X159539330Y-84385001D01*
X159650983Y-84374004D01*
X159794244Y-84330547D01*
X159926273Y-84259975D01*
X160041998Y-84165002D01*
X160065801Y-84135999D01*
X160941800Y-83260000D01*
X164561928Y-83260000D01*
X164561928Y-83300000D01*
X164574188Y-83424482D01*
X164610498Y-83544180D01*
X164669463Y-83654494D01*
X164748815Y-83751185D01*
X164845506Y-83830537D01*
X164955820Y-83889502D01*
X165075518Y-83925812D01*
X165200000Y-83938072D01*
X166800000Y-83938072D01*
X166924482Y-83925812D01*
X167044180Y-83889502D01*
X167154494Y-83830537D01*
X167251185Y-83751185D01*
X167330537Y-83654494D01*
X167389502Y-83544180D01*
X167425812Y-83424482D01*
X167438072Y-83300000D01*
X167438072Y-81700000D01*
X167425812Y-81575518D01*
X167389502Y-81455820D01*
X167330537Y-81345506D01*
X167251185Y-81248815D01*
X167154494Y-81169463D01*
X167075053Y-81127000D01*
X173202753Y-81127000D01*
X173068192Y-81167818D01*
X172818899Y-81301068D01*
X172600392Y-81480392D01*
X172421068Y-81698899D01*
X172287818Y-81948192D01*
X172205764Y-82218691D01*
X172178057Y-82500000D01*
X172205764Y-82781309D01*
X172287818Y-83051808D01*
X172421068Y-83301101D01*
X172600392Y-83519608D01*
X172818899Y-83698932D01*
X173068192Y-83832182D01*
X173338691Y-83914236D01*
X173549508Y-83935000D01*
X173690492Y-83935000D01*
X173901309Y-83914236D01*
X174171808Y-83832182D01*
X174421101Y-83698932D01*
X174639608Y-83519608D01*
X174818932Y-83301101D01*
X174952182Y-83051808D01*
X175034236Y-82781309D01*
X175061943Y-82500000D01*
X175034236Y-82218691D01*
X174952182Y-81948192D01*
X174818932Y-81698899D01*
X174639608Y-81480392D01*
X174421101Y-81301068D01*
X174171808Y-81167818D01*
X174037247Y-81127000D01*
X186340001Y-81127000D01*
X186340000Y-139340000D01*
X52660000Y-139340000D01*
X52660000Y-135529872D01*
X54015000Y-135529872D01*
X54015000Y-135970128D01*
X54100890Y-136401925D01*
X54269369Y-136808669D01*
X54513962Y-137174729D01*
X54825271Y-137486038D01*
X55191331Y-137730631D01*
X55598075Y-137899110D01*
X56029872Y-137985000D01*
X56470128Y-137985000D01*
X56901925Y-137899110D01*
X57308669Y-137730631D01*
X57674729Y-137486038D01*
X57986038Y-137174729D01*
X58230631Y-136808669D01*
X58399110Y-136401925D01*
X58485000Y-135970128D01*
X58485000Y-135529872D01*
X58399110Y-135098075D01*
X58230631Y-134691331D01*
X57986038Y-134325271D01*
X57674729Y-134013962D01*
X57308669Y-133769369D01*
X56901925Y-133600890D01*
X56470128Y-133515000D01*
X56029872Y-133515000D01*
X55598075Y-133600890D01*
X55191331Y-133769369D01*
X54825271Y-134013962D01*
X54513962Y-134325271D01*
X54269369Y-134691331D01*
X54100890Y-135098075D01*
X54015000Y-135529872D01*
X52660000Y-135529872D01*
X52660000Y-98088677D01*
X53556365Y-98088677D01*
X53558504Y-98120715D01*
X53648364Y-98341644D01*
X53779598Y-98540797D01*
X53947163Y-98710521D01*
X54144620Y-98844294D01*
X54364381Y-98936974D01*
X54598000Y-98985000D01*
X54923000Y-98985000D01*
X54923000Y-97902000D01*
X55177000Y-97902000D01*
X55177000Y-98985000D01*
X55502000Y-98985000D01*
X55735619Y-98936974D01*
X55955380Y-98844294D01*
X56152837Y-98710521D01*
X56320402Y-98540797D01*
X56451636Y-98341644D01*
X56541496Y-98120715D01*
X56543635Y-98088677D01*
X56458927Y-97962258D01*
X57257481Y-97962258D01*
X57269922Y-98028117D01*
X57373643Y-98274979D01*
X57523531Y-98496863D01*
X57713827Y-98685242D01*
X57937217Y-98832876D01*
X58185117Y-98934092D01*
X58448000Y-98985000D01*
X58723000Y-98985000D01*
X58723000Y-97752000D01*
X58977000Y-97752000D01*
X58977000Y-98985000D01*
X59252000Y-98985000D01*
X59514883Y-98934092D01*
X59762783Y-98832876D01*
X59986173Y-98685242D01*
X60176469Y-98496863D01*
X60326357Y-98274979D01*
X60430078Y-98028117D01*
X60442519Y-97962258D01*
X60319518Y-97752000D01*
X58977000Y-97752000D01*
X58723000Y-97752000D01*
X57380482Y-97752000D01*
X57257481Y-97962258D01*
X56458927Y-97962258D01*
X56418550Y-97902000D01*
X55177000Y-97902000D01*
X54923000Y-97902000D01*
X53681450Y-97902000D01*
X53556365Y-98088677D01*
X52660000Y-98088677D01*
X52660000Y-97461323D01*
X53556365Y-97461323D01*
X53681450Y-97648000D01*
X54923000Y-97648000D01*
X54923000Y-96565000D01*
X55177000Y-96565000D01*
X55177000Y-97648000D01*
X56418550Y-97648000D01*
X56543635Y-97461323D01*
X56541496Y-97429285D01*
X56451636Y-97208356D01*
X56320402Y-97009203D01*
X56152837Y-96839479D01*
X55955380Y-96705706D01*
X55735619Y-96613026D01*
X55502000Y-96565000D01*
X55177000Y-96565000D01*
X54923000Y-96565000D01*
X54598000Y-96565000D01*
X54364381Y-96613026D01*
X54144620Y-96705706D01*
X53947163Y-96839479D01*
X53779598Y-97009203D01*
X53648364Y-97208356D01*
X53558504Y-97429285D01*
X53556365Y-97461323D01*
X52660000Y-97461323D01*
X52660000Y-96400000D01*
X56759993Y-96400000D01*
X56779976Y-96602895D01*
X56839159Y-96797993D01*
X56935266Y-96977797D01*
X57064604Y-97135396D01*
X57222203Y-97264734D01*
X57258193Y-97283971D01*
X57257481Y-97287742D01*
X57380482Y-97498000D01*
X58723000Y-97498000D01*
X58723000Y-96868789D01*
X58760841Y-96797993D01*
X58820024Y-96602895D01*
X58840007Y-96400000D01*
X58826711Y-96265000D01*
X58977000Y-96265000D01*
X58977000Y-97498000D01*
X60319518Y-97498000D01*
X60442519Y-97287742D01*
X60430078Y-97221883D01*
X60326357Y-96975021D01*
X60176469Y-96753137D01*
X59986173Y-96564758D01*
X59762783Y-96417124D01*
X59514883Y-96315908D01*
X59252000Y-96265000D01*
X58977000Y-96265000D01*
X58826711Y-96265000D01*
X58820024Y-96197105D01*
X58760841Y-96002007D01*
X58664734Y-95822203D01*
X58535396Y-95664604D01*
X58377797Y-95535266D01*
X58197993Y-95439159D01*
X58002895Y-95379976D01*
X57850838Y-95365000D01*
X57749162Y-95365000D01*
X57597105Y-95379976D01*
X57402007Y-95439159D01*
X57222203Y-95535266D01*
X57064604Y-95664604D01*
X56935266Y-95822203D01*
X56839159Y-96002007D01*
X56779976Y-96197105D01*
X56759993Y-96400000D01*
X52660000Y-96400000D01*
X52660000Y-92485967D01*
X58970396Y-92485967D01*
X58970396Y-92689845D01*
X59010170Y-92889804D01*
X59088191Y-93078162D01*
X59201459Y-93247680D01*
X59245396Y-93291617D01*
X59245397Y-95024062D01*
X59241720Y-95061394D01*
X59256394Y-95210379D01*
X59299850Y-95353640D01*
X59370422Y-95485670D01*
X59401345Y-95523349D01*
X59465396Y-95601395D01*
X59494394Y-95625193D01*
X61270636Y-97401436D01*
X61294434Y-97430434D01*
X61410159Y-97525407D01*
X61542188Y-97595979D01*
X61685449Y-97639436D01*
X61797102Y-97650433D01*
X61797110Y-97650433D01*
X61834435Y-97654109D01*
X61871760Y-97650433D01*
X63283670Y-97650433D01*
X63327607Y-97694370D01*
X63497125Y-97807638D01*
X63685483Y-97885659D01*
X63885442Y-97925433D01*
X64089320Y-97925433D01*
X64289279Y-97885659D01*
X64477637Y-97807638D01*
X64647155Y-97694370D01*
X64791318Y-97550207D01*
X64840000Y-97477348D01*
X64840001Y-105896288D01*
X64796063Y-105940226D01*
X64682795Y-106109744D01*
X64604774Y-106298102D01*
X64565000Y-106498061D01*
X64565000Y-106701939D01*
X64604774Y-106901898D01*
X64682795Y-107090256D01*
X64796063Y-107259774D01*
X64940226Y-107403937D01*
X65109744Y-107517205D01*
X65298102Y-107595226D01*
X65498061Y-107635000D01*
X65701939Y-107635000D01*
X65901898Y-107595226D01*
X66090256Y-107517205D01*
X66200000Y-107443877D01*
X66309744Y-107517205D01*
X66498102Y-107595226D01*
X66698061Y-107635000D01*
X66901939Y-107635000D01*
X67101898Y-107595226D01*
X67290256Y-107517205D01*
X67459774Y-107403937D01*
X67603937Y-107259774D01*
X67717205Y-107090256D01*
X67795226Y-106901898D01*
X67835000Y-106701939D01*
X67835000Y-106639802D01*
X67856001Y-106618800D01*
X67884999Y-106595003D01*
X67979972Y-106479278D01*
X68050544Y-106347249D01*
X68094001Y-106203988D01*
X68104998Y-106092335D01*
X68104998Y-106092334D01*
X68108675Y-106055002D01*
X68104998Y-106017669D01*
X68104998Y-96763184D01*
X68137323Y-96760000D01*
X70492462Y-96760000D01*
X70465000Y-96898061D01*
X70465000Y-97101939D01*
X70504774Y-97301898D01*
X70582795Y-97490256D01*
X70696063Y-97659774D01*
X70740001Y-97703712D01*
X70740001Y-101765199D01*
X70460000Y-101485199D01*
X70460000Y-100303711D01*
X70503937Y-100259774D01*
X70617205Y-100090256D01*
X70695226Y-99901898D01*
X70735000Y-99701939D01*
X70735000Y-99498061D01*
X70695226Y-99298102D01*
X70617205Y-99109744D01*
X70503937Y-98940226D01*
X70359774Y-98796063D01*
X70190256Y-98682795D01*
X70001898Y-98604774D01*
X69801939Y-98565000D01*
X69598061Y-98565000D01*
X69398102Y-98604774D01*
X69209744Y-98682795D01*
X69040226Y-98796063D01*
X68896063Y-98940226D01*
X68782795Y-99109744D01*
X68704774Y-99298102D01*
X68665000Y-99498061D01*
X68665000Y-99701939D01*
X68704774Y-99901898D01*
X68782795Y-100090256D01*
X68896063Y-100259774D01*
X68940000Y-100303711D01*
X68940001Y-101762668D01*
X68936324Y-101800000D01*
X68940001Y-101837333D01*
X68950998Y-101948986D01*
X68954339Y-101959999D01*
X68994454Y-102092246D01*
X69065026Y-102224276D01*
X69136201Y-102311002D01*
X69160000Y-102340001D01*
X69188998Y-102363799D01*
X69740000Y-102914802D01*
X69740000Y-103001939D01*
X69779774Y-103201898D01*
X69857795Y-103390256D01*
X69971063Y-103559774D01*
X70115226Y-103703937D01*
X70284744Y-103817205D01*
X70473102Y-103895226D01*
X70673061Y-103935000D01*
X70740000Y-103935000D01*
X70740000Y-106285198D01*
X64189003Y-112836196D01*
X64159999Y-112859999D01*
X64104871Y-112927174D01*
X64065026Y-112975724D01*
X64023878Y-113052706D01*
X63994454Y-113107754D01*
X63950997Y-113251015D01*
X63940000Y-113362668D01*
X63940000Y-113362678D01*
X63936324Y-113400000D01*
X63940000Y-113437322D01*
X63940001Y-122696288D01*
X63896063Y-122740226D01*
X63863605Y-122788804D01*
X63760000Y-122685199D01*
X63760000Y-102923451D01*
X63901898Y-102895226D01*
X64090256Y-102817205D01*
X64259774Y-102703937D01*
X64403937Y-102559774D01*
X64517205Y-102390256D01*
X64595226Y-102201898D01*
X64635000Y-102001939D01*
X64635000Y-101798061D01*
X64595226Y-101598102D01*
X64517205Y-101409744D01*
X64403937Y-101240226D01*
X64259774Y-101096063D01*
X64090256Y-100982795D01*
X63901898Y-100904774D01*
X63701939Y-100865000D01*
X63498061Y-100865000D01*
X63298102Y-100904774D01*
X63109744Y-100982795D01*
X62940226Y-101096063D01*
X62796063Y-101240226D01*
X62682795Y-101409744D01*
X62604774Y-101598102D01*
X62565000Y-101798061D01*
X62565000Y-101860199D01*
X62489002Y-101936197D01*
X62459999Y-101959999D01*
X62425580Y-102001939D01*
X62365026Y-102075724D01*
X62324791Y-102150998D01*
X62294454Y-102207754D01*
X62250997Y-102351015D01*
X62240000Y-102462668D01*
X62240000Y-102462678D01*
X62236324Y-102500000D01*
X62240000Y-102537322D01*
X62240001Y-122962667D01*
X62236324Y-123000000D01*
X62240001Y-123037333D01*
X62246720Y-123105546D01*
X62250998Y-123148985D01*
X62294454Y-123292246D01*
X62365026Y-123424276D01*
X62428763Y-123501939D01*
X62460000Y-123540001D01*
X62488998Y-123563799D01*
X64740000Y-125814802D01*
X64740000Y-126292462D01*
X64601939Y-126265000D01*
X64398061Y-126265000D01*
X64198102Y-126304774D01*
X64009744Y-126382795D01*
X63840226Y-126496063D01*
X63696063Y-126640226D01*
X63582795Y-126809744D01*
X63504774Y-126998102D01*
X63465000Y-127198061D01*
X63465000Y-127275774D01*
X63418014Y-127363677D01*
X63394455Y-127407753D01*
X63350998Y-127551014D01*
X63340001Y-127662667D01*
X63340001Y-127662677D01*
X63336325Y-127699999D01*
X63340001Y-127737321D01*
X63340002Y-137562669D01*
X63336325Y-137600001D01*
X63350999Y-137748986D01*
X63394455Y-137892247D01*
X63465027Y-138024277D01*
X63528004Y-138101014D01*
X63560001Y-138140002D01*
X63588998Y-138163799D01*
X64186205Y-138761008D01*
X64209999Y-138790001D01*
X64238992Y-138813795D01*
X64238996Y-138813799D01*
X64309685Y-138871811D01*
X64325724Y-138884974D01*
X64457753Y-138955546D01*
X64601014Y-138999003D01*
X64712667Y-139010000D01*
X64712676Y-139010000D01*
X64749999Y-139013676D01*
X64787322Y-139010000D01*
X111512678Y-139010000D01*
X111550000Y-139013676D01*
X111587322Y-139010000D01*
X111587333Y-139010000D01*
X111698986Y-138999003D01*
X111842247Y-138955546D01*
X111974276Y-138884974D01*
X112090001Y-138790001D01*
X112113803Y-138760998D01*
X112911004Y-137963798D01*
X112940001Y-137940001D01*
X113034974Y-137824276D01*
X113105546Y-137692247D01*
X113149003Y-137548986D01*
X113160000Y-137437333D01*
X113160000Y-137437332D01*
X113163677Y-137400000D01*
X113160000Y-137362667D01*
X113160000Y-136635413D01*
X122044192Y-136635413D01*
X122139956Y-136899814D01*
X122429571Y-137040704D01*
X122741108Y-137122384D01*
X123062595Y-137141718D01*
X123381675Y-137097961D01*
X123686088Y-136992795D01*
X123860044Y-136899814D01*
X123955808Y-136635413D01*
X128544192Y-136635413D01*
X128639956Y-136899814D01*
X128929571Y-137040704D01*
X129241108Y-137122384D01*
X129562595Y-137141718D01*
X129881675Y-137097961D01*
X130186088Y-136992795D01*
X130360044Y-136899814D01*
X130455808Y-136635413D01*
X129500000Y-135679605D01*
X128544192Y-136635413D01*
X123955808Y-136635413D01*
X123000000Y-135679605D01*
X122044192Y-136635413D01*
X113160000Y-136635413D01*
X113160000Y-135435413D01*
X115044192Y-135435413D01*
X115139956Y-135699814D01*
X115429571Y-135840704D01*
X115741108Y-135922384D01*
X116062595Y-135941718D01*
X116381675Y-135897961D01*
X116686088Y-135792795D01*
X116860044Y-135699814D01*
X116909743Y-135562595D01*
X121358282Y-135562595D01*
X121402039Y-135881675D01*
X121507205Y-136186088D01*
X121600186Y-136360044D01*
X121864587Y-136455808D01*
X122820395Y-135500000D01*
X123179605Y-135500000D01*
X124135413Y-136455808D01*
X124399814Y-136360044D01*
X124540704Y-136070429D01*
X124622384Y-135758892D01*
X124634189Y-135562595D01*
X127858282Y-135562595D01*
X127902039Y-135881675D01*
X128007205Y-136186088D01*
X128100186Y-136360044D01*
X128364587Y-136455808D01*
X129320395Y-135500000D01*
X129679605Y-135500000D01*
X130635413Y-136455808D01*
X130899814Y-136360044D01*
X131040704Y-136070429D01*
X131122384Y-135758892D01*
X131136157Y-135529872D01*
X180515000Y-135529872D01*
X180515000Y-135970128D01*
X180600890Y-136401925D01*
X180769369Y-136808669D01*
X181013962Y-137174729D01*
X181325271Y-137486038D01*
X181691331Y-137730631D01*
X182098075Y-137899110D01*
X182529872Y-137985000D01*
X182970128Y-137985000D01*
X183401925Y-137899110D01*
X183808669Y-137730631D01*
X184174729Y-137486038D01*
X184486038Y-137174729D01*
X184730631Y-136808669D01*
X184899110Y-136401925D01*
X184985000Y-135970128D01*
X184985000Y-135529872D01*
X184899110Y-135098075D01*
X184730631Y-134691331D01*
X184486038Y-134325271D01*
X184174729Y-134013962D01*
X183808669Y-133769369D01*
X183401925Y-133600890D01*
X182970128Y-133515000D01*
X182529872Y-133515000D01*
X182098075Y-133600890D01*
X181691331Y-133769369D01*
X181325271Y-134013962D01*
X181013962Y-134325271D01*
X180769369Y-134691331D01*
X180600890Y-135098075D01*
X180515000Y-135529872D01*
X131136157Y-135529872D01*
X131141718Y-135437405D01*
X131097961Y-135118325D01*
X130992795Y-134813912D01*
X130899814Y-134639956D01*
X130635413Y-134544192D01*
X129679605Y-135500000D01*
X129320395Y-135500000D01*
X128364587Y-134544192D01*
X128100186Y-134639956D01*
X127959296Y-134929571D01*
X127877616Y-135241108D01*
X127858282Y-135562595D01*
X124634189Y-135562595D01*
X124641718Y-135437405D01*
X124597961Y-135118325D01*
X124492795Y-134813912D01*
X124399814Y-134639956D01*
X124135413Y-134544192D01*
X123179605Y-135500000D01*
X122820395Y-135500000D01*
X121864587Y-134544192D01*
X121600186Y-134639956D01*
X121459296Y-134929571D01*
X121377616Y-135241108D01*
X121358282Y-135562595D01*
X116909743Y-135562595D01*
X116955808Y-135435413D01*
X116000000Y-134479605D01*
X115044192Y-135435413D01*
X113160000Y-135435413D01*
X113160000Y-134362595D01*
X114358282Y-134362595D01*
X114402039Y-134681675D01*
X114507205Y-134986088D01*
X114600186Y-135160044D01*
X114864587Y-135255808D01*
X115820395Y-134300000D01*
X116179605Y-134300000D01*
X117135413Y-135255808D01*
X117399814Y-135160044D01*
X117540704Y-134870429D01*
X117622384Y-134558892D01*
X117634069Y-134364587D01*
X122044192Y-134364587D01*
X123000000Y-135320395D01*
X123955808Y-134364587D01*
X128544192Y-134364587D01*
X129500000Y-135320395D01*
X130455808Y-134364587D01*
X130360044Y-134100186D01*
X130070429Y-133959296D01*
X129758892Y-133877616D01*
X129437405Y-133858282D01*
X129118325Y-133902039D01*
X128813912Y-134007205D01*
X128639956Y-134100186D01*
X128544192Y-134364587D01*
X123955808Y-134364587D01*
X123860044Y-134100186D01*
X123570429Y-133959296D01*
X123258892Y-133877616D01*
X122937405Y-133858282D01*
X122618325Y-133902039D01*
X122313912Y-134007205D01*
X122139956Y-134100186D01*
X122044192Y-134364587D01*
X117634069Y-134364587D01*
X117641718Y-134237405D01*
X117597961Y-133918325D01*
X117492795Y-133613912D01*
X117399814Y-133439956D01*
X117135413Y-133344192D01*
X116179605Y-134300000D01*
X115820395Y-134300000D01*
X114864587Y-133344192D01*
X114600186Y-133439956D01*
X114459296Y-133729571D01*
X114377616Y-134041108D01*
X114358282Y-134362595D01*
X113160000Y-134362595D01*
X113160000Y-133164587D01*
X115044192Y-133164587D01*
X116000000Y-134120395D01*
X116955808Y-133164587D01*
X116860044Y-132900186D01*
X116570429Y-132759296D01*
X116258892Y-132677616D01*
X115937405Y-132658282D01*
X115618325Y-132702039D01*
X115313912Y-132807205D01*
X115139956Y-132900186D01*
X115044192Y-133164587D01*
X113160000Y-133164587D01*
X113160000Y-129638967D01*
X114365000Y-129638967D01*
X114365000Y-129961033D01*
X114427832Y-130276912D01*
X114551082Y-130574463D01*
X114730013Y-130842252D01*
X114957748Y-131069987D01*
X115225537Y-131248918D01*
X115523088Y-131372168D01*
X115838967Y-131435000D01*
X116161033Y-131435000D01*
X116476912Y-131372168D01*
X116774463Y-131248918D01*
X117042252Y-131069987D01*
X117269987Y-130842252D01*
X117272181Y-130838967D01*
X121365000Y-130838967D01*
X121365000Y-131161033D01*
X121427832Y-131476912D01*
X121551082Y-131774463D01*
X121730013Y-132042252D01*
X121957748Y-132269987D01*
X122225537Y-132448918D01*
X122523088Y-132572168D01*
X122838967Y-132635000D01*
X123161033Y-132635000D01*
X123476912Y-132572168D01*
X123774463Y-132448918D01*
X124042252Y-132269987D01*
X124269987Y-132042252D01*
X124448918Y-131774463D01*
X124572168Y-131476912D01*
X124635000Y-131161033D01*
X124635000Y-130838967D01*
X127865000Y-130838967D01*
X127865000Y-131161033D01*
X127927832Y-131476912D01*
X128051082Y-131774463D01*
X128230013Y-132042252D01*
X128457748Y-132269987D01*
X128725537Y-132448918D01*
X129023088Y-132572168D01*
X129338967Y-132635000D01*
X129661033Y-132635000D01*
X129976912Y-132572168D01*
X130274463Y-132448918D01*
X130542252Y-132269987D01*
X130769987Y-132042252D01*
X130948918Y-131774463D01*
X131072168Y-131476912D01*
X131135000Y-131161033D01*
X131135000Y-130838967D01*
X131072168Y-130523088D01*
X130948918Y-130225537D01*
X130769987Y-129957748D01*
X130542252Y-129730013D01*
X130274463Y-129551082D01*
X129976912Y-129427832D01*
X129661033Y-129365000D01*
X129338967Y-129365000D01*
X129023088Y-129427832D01*
X128725537Y-129551082D01*
X128457748Y-129730013D01*
X128230013Y-129957748D01*
X128051082Y-130225537D01*
X127927832Y-130523088D01*
X127865000Y-130838967D01*
X124635000Y-130838967D01*
X124572168Y-130523088D01*
X124448918Y-130225537D01*
X124269987Y-129957748D01*
X124042252Y-129730013D01*
X123774463Y-129551082D01*
X123476912Y-129427832D01*
X123161033Y-129365000D01*
X122838967Y-129365000D01*
X122523088Y-129427832D01*
X122225537Y-129551082D01*
X121957748Y-129730013D01*
X121730013Y-129957748D01*
X121551082Y-130225537D01*
X121427832Y-130523088D01*
X121365000Y-130838967D01*
X117272181Y-130838967D01*
X117448918Y-130574463D01*
X117572168Y-130276912D01*
X117635000Y-129961033D01*
X117635000Y-129638967D01*
X117572168Y-129323088D01*
X117448918Y-129025537D01*
X117269987Y-128757748D01*
X117042252Y-128530013D01*
X116774463Y-128351082D01*
X116476912Y-128227832D01*
X116161033Y-128165000D01*
X115838967Y-128165000D01*
X115523088Y-128227832D01*
X115225537Y-128351082D01*
X114957748Y-128530013D01*
X114730013Y-128757748D01*
X114551082Y-129025537D01*
X114427832Y-129323088D01*
X114365000Y-129638967D01*
X113160000Y-129638967D01*
X113160000Y-128153711D01*
X113253937Y-128059774D01*
X113367205Y-127890256D01*
X113445226Y-127701898D01*
X113485000Y-127501939D01*
X113485000Y-127398061D01*
X165465000Y-127398061D01*
X165465000Y-127601939D01*
X165504774Y-127801898D01*
X165582795Y-127990256D01*
X165696063Y-128159774D01*
X165840226Y-128303937D01*
X166009744Y-128417205D01*
X166198102Y-128495226D01*
X166398061Y-128535000D01*
X166601939Y-128535000D01*
X166801898Y-128495226D01*
X166990256Y-128417205D01*
X167159774Y-128303937D01*
X167203711Y-128260000D01*
X167812680Y-128260000D01*
X167850002Y-128263676D01*
X167887324Y-128260000D01*
X167887335Y-128260000D01*
X167998988Y-128249003D01*
X168142249Y-128205546D01*
X168274278Y-128134974D01*
X168390003Y-128040001D01*
X168413805Y-128010998D01*
X168674803Y-127750000D01*
X178111928Y-127750000D01*
X178111928Y-130250000D01*
X178124188Y-130374482D01*
X178160498Y-130494180D01*
X178219463Y-130604494D01*
X178298815Y-130701185D01*
X178395506Y-130780537D01*
X178505820Y-130839502D01*
X178625518Y-130875812D01*
X178750000Y-130888072D01*
X181250000Y-130888072D01*
X181374482Y-130875812D01*
X181494180Y-130839502D01*
X181604494Y-130780537D01*
X181701185Y-130701185D01*
X181780537Y-130604494D01*
X181839502Y-130494180D01*
X181875812Y-130374482D01*
X181888072Y-130250000D01*
X181888072Y-127750000D01*
X181875812Y-127625518D01*
X181839502Y-127505820D01*
X181780537Y-127395506D01*
X181701185Y-127298815D01*
X181604494Y-127219463D01*
X181494180Y-127160498D01*
X181374482Y-127124188D01*
X181250000Y-127111928D01*
X178750000Y-127111928D01*
X178625518Y-127124188D01*
X178505820Y-127160498D01*
X178395506Y-127219463D01*
X178298815Y-127298815D01*
X178219463Y-127395506D01*
X178160498Y-127505820D01*
X178124188Y-127625518D01*
X178111928Y-127750000D01*
X168674803Y-127750000D01*
X168789803Y-127635000D01*
X168851941Y-127635000D01*
X169051900Y-127595226D01*
X169240258Y-127517205D01*
X169409776Y-127403937D01*
X169553939Y-127259774D01*
X169667207Y-127090256D01*
X169745228Y-126901898D01*
X169785002Y-126701939D01*
X169785002Y-126498061D01*
X169745228Y-126298102D01*
X169667207Y-126109744D01*
X169553939Y-125940226D01*
X169409776Y-125796063D01*
X169240258Y-125682795D01*
X169160000Y-125649551D01*
X169160000Y-125313605D01*
X178866000Y-125313605D01*
X178991914Y-125603577D01*
X179324126Y-125769433D01*
X179682312Y-125867290D01*
X180052706Y-125893389D01*
X180421075Y-125846725D01*
X180773262Y-125729094D01*
X181008086Y-125603577D01*
X181134000Y-125313605D01*
X180000000Y-124179605D01*
X178866000Y-125313605D01*
X169160000Y-125313605D01*
X169160000Y-124052706D01*
X178106611Y-124052706D01*
X178153275Y-124421075D01*
X178270906Y-124773262D01*
X178396423Y-125008086D01*
X178686395Y-125134000D01*
X179820395Y-124000000D01*
X180179605Y-124000000D01*
X181313605Y-125134000D01*
X181603577Y-125008086D01*
X181769433Y-124675874D01*
X181867290Y-124317688D01*
X181893389Y-123947294D01*
X181846725Y-123578925D01*
X181729094Y-123226738D01*
X181603577Y-122991914D01*
X181313605Y-122866000D01*
X180179605Y-124000000D01*
X179820395Y-124000000D01*
X178686395Y-122866000D01*
X178396423Y-122991914D01*
X178230567Y-123324126D01*
X178132710Y-123682312D01*
X178106611Y-124052706D01*
X169160000Y-124052706D01*
X169160000Y-122686395D01*
X178866000Y-122686395D01*
X180000000Y-123820395D01*
X181134000Y-122686395D01*
X181008086Y-122396423D01*
X180675874Y-122230567D01*
X180317688Y-122132710D01*
X179947294Y-122106611D01*
X179578925Y-122153275D01*
X179226738Y-122270906D01*
X178991914Y-122396423D01*
X178866000Y-122686395D01*
X169160000Y-122686395D01*
X169160000Y-118103711D01*
X169203937Y-118059774D01*
X169317205Y-117890256D01*
X169395226Y-117701898D01*
X169435000Y-117501939D01*
X169435000Y-117298061D01*
X169395226Y-117098102D01*
X169317205Y-116909744D01*
X169210468Y-116750000D01*
X178111928Y-116750000D01*
X178111928Y-119250000D01*
X178124188Y-119374482D01*
X178160498Y-119494180D01*
X178219463Y-119604494D01*
X178298815Y-119701185D01*
X178395506Y-119780537D01*
X178505820Y-119839502D01*
X178625518Y-119875812D01*
X178750000Y-119888072D01*
X181250000Y-119888072D01*
X181374482Y-119875812D01*
X181494180Y-119839502D01*
X181604494Y-119780537D01*
X181701185Y-119701185D01*
X181780537Y-119604494D01*
X181839502Y-119494180D01*
X181875812Y-119374482D01*
X181888072Y-119250000D01*
X181888072Y-116750000D01*
X181875812Y-116625518D01*
X181839502Y-116505820D01*
X181780537Y-116395506D01*
X181701185Y-116298815D01*
X181604494Y-116219463D01*
X181494180Y-116160498D01*
X181374482Y-116124188D01*
X181250000Y-116111928D01*
X178750000Y-116111928D01*
X178625518Y-116124188D01*
X178505820Y-116160498D01*
X178395506Y-116219463D01*
X178298815Y-116298815D01*
X178219463Y-116395506D01*
X178160498Y-116505820D01*
X178124188Y-116625518D01*
X178111928Y-116750000D01*
X169210468Y-116750000D01*
X169203937Y-116740226D01*
X169059774Y-116596063D01*
X168890256Y-116482795D01*
X168701898Y-116404774D01*
X168501939Y-116365000D01*
X168298061Y-116365000D01*
X168098102Y-116404774D01*
X167909744Y-116482795D01*
X167740226Y-116596063D01*
X167596063Y-116740226D01*
X167482795Y-116909744D01*
X167404774Y-117098102D01*
X167365000Y-117298061D01*
X167365000Y-117501939D01*
X167404774Y-117701898D01*
X167482795Y-117890256D01*
X167596063Y-118059774D01*
X167640000Y-118103711D01*
X167640001Y-126212666D01*
X167636324Y-126249998D01*
X167640001Y-126287331D01*
X167650998Y-126398984D01*
X167661849Y-126434754D01*
X167694454Y-126542244D01*
X167707866Y-126567335D01*
X167535201Y-126740000D01*
X167203711Y-126740000D01*
X167159774Y-126696063D01*
X166990256Y-126582795D01*
X166801898Y-126504774D01*
X166601939Y-126465000D01*
X166398061Y-126465000D01*
X166198102Y-126504774D01*
X166009744Y-126582795D01*
X165840226Y-126696063D01*
X165696063Y-126840226D01*
X165582795Y-127009744D01*
X165504774Y-127198102D01*
X165465000Y-127398061D01*
X113485000Y-127398061D01*
X113485000Y-127298061D01*
X113445226Y-127098102D01*
X113367205Y-126909744D01*
X113253937Y-126740226D01*
X113109774Y-126596063D01*
X112940256Y-126482795D01*
X112751898Y-126404774D01*
X112551939Y-126365000D01*
X112348061Y-126365000D01*
X112148102Y-126404774D01*
X111959744Y-126482795D01*
X111790226Y-126596063D01*
X111646063Y-126740226D01*
X111532795Y-126909744D01*
X111454774Y-127098102D01*
X111415000Y-127298061D01*
X111415000Y-127501939D01*
X111454774Y-127701898D01*
X111532795Y-127890256D01*
X111640001Y-128050701D01*
X111640000Y-137085198D01*
X111235199Y-137490000D01*
X65064802Y-137490000D01*
X64860001Y-137285199D01*
X64860001Y-128271159D01*
X64990256Y-128217205D01*
X65081462Y-128156263D01*
X66240000Y-129314802D01*
X66240001Y-133011928D01*
X65550000Y-133011928D01*
X65425518Y-133024188D01*
X65305820Y-133060498D01*
X65195506Y-133119463D01*
X65098815Y-133198815D01*
X65019463Y-133295506D01*
X64960498Y-133405820D01*
X64924188Y-133525518D01*
X64911928Y-133650000D01*
X64911928Y-135350000D01*
X64924188Y-135474482D01*
X64960498Y-135594180D01*
X65019463Y-135704494D01*
X65098815Y-135801185D01*
X65195506Y-135880537D01*
X65305820Y-135939502D01*
X65425518Y-135975812D01*
X65550000Y-135988072D01*
X67250000Y-135988072D01*
X67374482Y-135975812D01*
X67494180Y-135939502D01*
X67604494Y-135880537D01*
X67701185Y-135801185D01*
X67780537Y-135704494D01*
X67839502Y-135594180D01*
X67863966Y-135513534D01*
X67939731Y-135597588D01*
X68173080Y-135771641D01*
X68435901Y-135896825D01*
X68583110Y-135941476D01*
X68813000Y-135820155D01*
X68813000Y-134627000D01*
X68793000Y-134627000D01*
X68793000Y-134373000D01*
X68813000Y-134373000D01*
X68813000Y-133179845D01*
X68583110Y-133058524D01*
X68435901Y-133103175D01*
X68173080Y-133228359D01*
X67939731Y-133402412D01*
X67863966Y-133486466D01*
X67839502Y-133405820D01*
X67780537Y-133295506D01*
X67760000Y-133270482D01*
X67760000Y-129037322D01*
X67763676Y-128999999D01*
X67760000Y-128962676D01*
X67760000Y-128962667D01*
X67749003Y-128851014D01*
X67705546Y-128707753D01*
X67634974Y-128575724D01*
X67540001Y-128459999D01*
X67511004Y-128436202D01*
X66260000Y-127185199D01*
X66260000Y-125537323D01*
X66263676Y-125500000D01*
X66260000Y-125462677D01*
X66260000Y-125462667D01*
X66249003Y-125351014D01*
X66205546Y-125207753D01*
X66204366Y-125205546D01*
X66134974Y-125075723D01*
X66063799Y-124988997D01*
X66040001Y-124959999D01*
X66011004Y-124936202D01*
X65311197Y-124236395D01*
X65359774Y-124203937D01*
X65503937Y-124059774D01*
X65617205Y-123890256D01*
X65695226Y-123701898D01*
X65735000Y-123501939D01*
X65735000Y-123298061D01*
X65695226Y-123098102D01*
X65617205Y-122909744D01*
X65503937Y-122740226D01*
X65460000Y-122696289D01*
X65460000Y-113714801D01*
X66223550Y-112951251D01*
X66296063Y-113059774D01*
X66440226Y-113203937D01*
X66609744Y-113317205D01*
X66798102Y-113395226D01*
X66998061Y-113435000D01*
X67060199Y-113435000D01*
X75800000Y-122174802D01*
X75800001Y-133222405D01*
X75730986Y-133259294D01*
X75504866Y-133444866D01*
X75319294Y-133670986D01*
X75290000Y-133725791D01*
X75260706Y-133670986D01*
X75075134Y-133444866D01*
X75060000Y-133432446D01*
X75060000Y-123303711D01*
X75103937Y-123259774D01*
X75217205Y-123090256D01*
X75295226Y-122901898D01*
X75335000Y-122701939D01*
X75335000Y-122498061D01*
X75295226Y-122298102D01*
X75217205Y-122109744D01*
X75103937Y-121940226D01*
X74959774Y-121796063D01*
X74790256Y-121682795D01*
X74601898Y-121604774D01*
X74401939Y-121565000D01*
X74198061Y-121565000D01*
X73998102Y-121604774D01*
X73809744Y-121682795D01*
X73640226Y-121796063D01*
X73496063Y-121940226D01*
X73382795Y-122109744D01*
X73304774Y-122298102D01*
X73265000Y-122498061D01*
X73265000Y-122701939D01*
X73304774Y-122901898D01*
X73382795Y-123090256D01*
X73496063Y-123259774D01*
X73540000Y-123303711D01*
X73540001Y-133093786D01*
X73448966Y-133121401D01*
X73190986Y-133259294D01*
X72964866Y-133444866D01*
X72779294Y-133670986D01*
X72750000Y-133725791D01*
X72720706Y-133670986D01*
X72535134Y-133444866D01*
X72309014Y-133259294D01*
X72051034Y-133121401D01*
X71771111Y-133036487D01*
X71552950Y-133015000D01*
X71407050Y-133015000D01*
X71188889Y-133036487D01*
X70908966Y-133121401D01*
X70650986Y-133259294D01*
X70424866Y-133444866D01*
X70239294Y-133670986D01*
X70204799Y-133735523D01*
X70135178Y-133618645D01*
X69940269Y-133402412D01*
X69706920Y-133228359D01*
X69444099Y-133103175D01*
X69296890Y-133058524D01*
X69067000Y-133179845D01*
X69067000Y-134373000D01*
X69087000Y-134373000D01*
X69087000Y-134627000D01*
X69067000Y-134627000D01*
X69067000Y-135820155D01*
X69296890Y-135941476D01*
X69444099Y-135896825D01*
X69706920Y-135771641D01*
X69940269Y-135597588D01*
X70135178Y-135381355D01*
X70204799Y-135264477D01*
X70239294Y-135329014D01*
X70424866Y-135555134D01*
X70650986Y-135740706D01*
X70908966Y-135878599D01*
X71188889Y-135963513D01*
X71407050Y-135985000D01*
X71552950Y-135985000D01*
X71771111Y-135963513D01*
X71845996Y-135940797D01*
X72091197Y-136185998D01*
X72115000Y-136215002D01*
X72230725Y-136309975D01*
X72362754Y-136380547D01*
X72506015Y-136424004D01*
X72617668Y-136435001D01*
X72617677Y-136435001D01*
X72655000Y-136438677D01*
X72692323Y-136435001D01*
X79626679Y-136435001D01*
X79664001Y-136438677D01*
X79701323Y-136435001D01*
X79701334Y-136435001D01*
X79812987Y-136424004D01*
X79956248Y-136380547D01*
X80088277Y-136309975D01*
X80204002Y-136215002D01*
X80227805Y-136185998D01*
X80978390Y-135435413D01*
X99044192Y-135435413D01*
X99139956Y-135699814D01*
X99429571Y-135840704D01*
X99741108Y-135922384D01*
X100062595Y-135941718D01*
X100381675Y-135897961D01*
X100686088Y-135792795D01*
X100860044Y-135699814D01*
X100955808Y-135435413D01*
X105544192Y-135435413D01*
X105639956Y-135699814D01*
X105929571Y-135840704D01*
X106241108Y-135922384D01*
X106562595Y-135941718D01*
X106881675Y-135897961D01*
X107186088Y-135792795D01*
X107360044Y-135699814D01*
X107455808Y-135435413D01*
X108544192Y-135435413D01*
X108639956Y-135699814D01*
X108929571Y-135840704D01*
X109241108Y-135922384D01*
X109562595Y-135941718D01*
X109881675Y-135897961D01*
X110186088Y-135792795D01*
X110360044Y-135699814D01*
X110455808Y-135435413D01*
X109500000Y-134479605D01*
X108544192Y-135435413D01*
X107455808Y-135435413D01*
X106500000Y-134479605D01*
X105544192Y-135435413D01*
X100955808Y-135435413D01*
X100000000Y-134479605D01*
X99044192Y-135435413D01*
X80978390Y-135435413D01*
X81811003Y-134602801D01*
X81840001Y-134579003D01*
X81876135Y-134534974D01*
X81934974Y-134463279D01*
X82005546Y-134331249D01*
X82019583Y-134284973D01*
X82049003Y-134187988D01*
X82060000Y-134076335D01*
X82060000Y-134076325D01*
X82063676Y-134039002D01*
X82060000Y-134001679D01*
X82060000Y-113303711D01*
X82103937Y-113259774D01*
X82217205Y-113090256D01*
X82295226Y-112901898D01*
X82335000Y-112701939D01*
X82335000Y-112498061D01*
X82295226Y-112298102D01*
X82217205Y-112109744D01*
X82103937Y-111940226D01*
X81959774Y-111796063D01*
X81790256Y-111682795D01*
X81601898Y-111604774D01*
X81401939Y-111565000D01*
X81198061Y-111565000D01*
X80998102Y-111604774D01*
X80809744Y-111682795D01*
X80640226Y-111796063D01*
X80496063Y-111940226D01*
X80382795Y-112109744D01*
X80304774Y-112298102D01*
X80265000Y-112498061D01*
X80265000Y-112701939D01*
X80304774Y-112901898D01*
X80382795Y-113090256D01*
X80496063Y-113259774D01*
X80540000Y-113303711D01*
X80540001Y-133724199D01*
X80428661Y-133835539D01*
X80340706Y-133670986D01*
X80155134Y-133444866D01*
X79929014Y-133259294D01*
X79860000Y-133222405D01*
X79860000Y-122437323D01*
X79863676Y-122400000D01*
X79860000Y-122362677D01*
X79860000Y-122362667D01*
X79849003Y-122251014D01*
X79805546Y-122107753D01*
X79734974Y-121975724D01*
X79640001Y-121859999D01*
X79611004Y-121836202D01*
X69235000Y-111460199D01*
X69235000Y-111398061D01*
X69195226Y-111198102D01*
X69117205Y-111009744D01*
X69003937Y-110840226D01*
X68859774Y-110696063D01*
X68690256Y-110582795D01*
X68620783Y-110554018D01*
X72011004Y-107163798D01*
X72040001Y-107140001D01*
X72134974Y-107024276D01*
X72205546Y-106892247D01*
X72249003Y-106748986D01*
X72260000Y-106637333D01*
X72260000Y-106637324D01*
X72263676Y-106600001D01*
X72260000Y-106562678D01*
X72260000Y-103927429D01*
X72298061Y-103935000D01*
X72501939Y-103935000D01*
X72701898Y-103895226D01*
X72890256Y-103817205D01*
X73059774Y-103703937D01*
X73103711Y-103660000D01*
X74085199Y-103660000D01*
X77365000Y-106939802D01*
X77365000Y-107001939D01*
X77404774Y-107201898D01*
X77482795Y-107390256D01*
X77596063Y-107559774D01*
X77740226Y-107703937D01*
X77909744Y-107817205D01*
X78098102Y-107895226D01*
X78298061Y-107935000D01*
X78501939Y-107935000D01*
X78701898Y-107895226D01*
X78890256Y-107817205D01*
X78918907Y-107798061D01*
X93665000Y-107798061D01*
X93665000Y-108001939D01*
X93704774Y-108201898D01*
X93782795Y-108390256D01*
X93896063Y-108559774D01*
X94040226Y-108703937D01*
X94209744Y-108817205D01*
X94398102Y-108895226D01*
X94598061Y-108935000D01*
X94801939Y-108935000D01*
X94940001Y-108907538D01*
X94940000Y-126462678D01*
X94936324Y-126500000D01*
X94940000Y-126537322D01*
X94940000Y-126537332D01*
X94950997Y-126648985D01*
X94984976Y-126761000D01*
X94994454Y-126792246D01*
X95065026Y-126924276D01*
X95090010Y-126954719D01*
X95090010Y-127026949D01*
X95129784Y-127226908D01*
X95207805Y-127415266D01*
X95321073Y-127584784D01*
X95465236Y-127728947D01*
X95634754Y-127842215D01*
X95823112Y-127920236D01*
X96023071Y-127960010D01*
X96226949Y-127960010D01*
X96426908Y-127920236D01*
X96590001Y-127852680D01*
X96590002Y-133186494D01*
X96498102Y-133204774D01*
X96309744Y-133282795D01*
X96140226Y-133396063D01*
X95996063Y-133540226D01*
X95882795Y-133709744D01*
X95804774Y-133898102D01*
X95765000Y-134098061D01*
X95765000Y-134301939D01*
X95804774Y-134501898D01*
X95882795Y-134690256D01*
X95996063Y-134859774D01*
X96140226Y-135003937D01*
X96309744Y-135117205D01*
X96498102Y-135195226D01*
X96698061Y-135235000D01*
X96901939Y-135235000D01*
X97101898Y-135195226D01*
X97290256Y-135117205D01*
X97459774Y-135003937D01*
X97603937Y-134859774D01*
X97717205Y-134690256D01*
X97795226Y-134501898D01*
X97822934Y-134362595D01*
X98358282Y-134362595D01*
X98402039Y-134681675D01*
X98507205Y-134986088D01*
X98600186Y-135160044D01*
X98864587Y-135255808D01*
X99820395Y-134300000D01*
X100179605Y-134300000D01*
X101135413Y-135255808D01*
X101399814Y-135160044D01*
X101540704Y-134870429D01*
X101622384Y-134558892D01*
X101634189Y-134362595D01*
X104858282Y-134362595D01*
X104902039Y-134681675D01*
X105007205Y-134986088D01*
X105100186Y-135160044D01*
X105364587Y-135255808D01*
X106320395Y-134300000D01*
X106679605Y-134300000D01*
X107635413Y-135255808D01*
X107899814Y-135160044D01*
X107997751Y-134958723D01*
X108007205Y-134986088D01*
X108100186Y-135160044D01*
X108364587Y-135255808D01*
X109320395Y-134300000D01*
X109679605Y-134300000D01*
X110635413Y-135255808D01*
X110899814Y-135160044D01*
X111040704Y-134870429D01*
X111122384Y-134558892D01*
X111141718Y-134237405D01*
X111097961Y-133918325D01*
X110992795Y-133613912D01*
X110899814Y-133439956D01*
X110635413Y-133344192D01*
X109679605Y-134300000D01*
X109320395Y-134300000D01*
X108364587Y-133344192D01*
X108100186Y-133439956D01*
X108002249Y-133641277D01*
X107992795Y-133613912D01*
X107899814Y-133439956D01*
X107635413Y-133344192D01*
X106679605Y-134300000D01*
X106320395Y-134300000D01*
X105364587Y-133344192D01*
X105100186Y-133439956D01*
X104959296Y-133729571D01*
X104877616Y-134041108D01*
X104858282Y-134362595D01*
X101634189Y-134362595D01*
X101641718Y-134237405D01*
X101597961Y-133918325D01*
X101492795Y-133613912D01*
X101399814Y-133439956D01*
X101135413Y-133344192D01*
X100179605Y-134300000D01*
X99820395Y-134300000D01*
X98864587Y-133344192D01*
X98600186Y-133439956D01*
X98459296Y-133729571D01*
X98377616Y-134041108D01*
X98358282Y-134362595D01*
X97822934Y-134362595D01*
X97835000Y-134301939D01*
X97835000Y-134239801D01*
X97860998Y-134213803D01*
X97890002Y-134190000D01*
X97984975Y-134074275D01*
X98055547Y-133942246D01*
X98099004Y-133798985D01*
X98110001Y-133687332D01*
X98110001Y-133687322D01*
X98113677Y-133649999D01*
X98110001Y-133612676D01*
X98110001Y-133164587D01*
X99044192Y-133164587D01*
X100000000Y-134120395D01*
X100955808Y-133164587D01*
X105544192Y-133164587D01*
X106500000Y-134120395D01*
X107455808Y-133164587D01*
X108544192Y-133164587D01*
X109500000Y-134120395D01*
X110455808Y-133164587D01*
X110360044Y-132900186D01*
X110070429Y-132759296D01*
X109758892Y-132677616D01*
X109437405Y-132658282D01*
X109118325Y-132702039D01*
X108813912Y-132807205D01*
X108639956Y-132900186D01*
X108544192Y-133164587D01*
X107455808Y-133164587D01*
X107360044Y-132900186D01*
X107070429Y-132759296D01*
X106758892Y-132677616D01*
X106437405Y-132658282D01*
X106118325Y-132702039D01*
X105813912Y-132807205D01*
X105639956Y-132900186D01*
X105544192Y-133164587D01*
X100955808Y-133164587D01*
X100860044Y-132900186D01*
X100570429Y-132759296D01*
X100258892Y-132677616D01*
X99937405Y-132658282D01*
X99618325Y-132702039D01*
X99313912Y-132807205D01*
X99139956Y-132900186D01*
X99044192Y-133164587D01*
X98110001Y-133164587D01*
X98110001Y-129638967D01*
X98365000Y-129638967D01*
X98365000Y-129961033D01*
X98427832Y-130276912D01*
X98551082Y-130574463D01*
X98730013Y-130842252D01*
X98957748Y-131069987D01*
X99225537Y-131248918D01*
X99523088Y-131372168D01*
X99838967Y-131435000D01*
X100161033Y-131435000D01*
X100476912Y-131372168D01*
X100774463Y-131248918D01*
X101042252Y-131069987D01*
X101269987Y-130842252D01*
X101448918Y-130574463D01*
X101572168Y-130276912D01*
X101635000Y-129961033D01*
X101635000Y-129638967D01*
X104865000Y-129638967D01*
X104865000Y-129961033D01*
X104927832Y-130276912D01*
X105051082Y-130574463D01*
X105230013Y-130842252D01*
X105457748Y-131069987D01*
X105725537Y-131248918D01*
X106023088Y-131372168D01*
X106338967Y-131435000D01*
X106661033Y-131435000D01*
X106976912Y-131372168D01*
X107274463Y-131248918D01*
X107542252Y-131069987D01*
X107769987Y-130842252D01*
X107948918Y-130574463D01*
X108000000Y-130451140D01*
X108051082Y-130574463D01*
X108230013Y-130842252D01*
X108457748Y-131069987D01*
X108725537Y-131248918D01*
X109023088Y-131372168D01*
X109338967Y-131435000D01*
X109661033Y-131435000D01*
X109976912Y-131372168D01*
X110274463Y-131248918D01*
X110542252Y-131069987D01*
X110769987Y-130842252D01*
X110948918Y-130574463D01*
X111072168Y-130276912D01*
X111135000Y-129961033D01*
X111135000Y-129638967D01*
X111072168Y-129323088D01*
X110948918Y-129025537D01*
X110769987Y-128757748D01*
X110542252Y-128530013D01*
X110274463Y-128351082D01*
X109976912Y-128227832D01*
X109661033Y-128165000D01*
X109338967Y-128165000D01*
X109023088Y-128227832D01*
X108725537Y-128351082D01*
X108457748Y-128530013D01*
X108230013Y-128757748D01*
X108051082Y-129025537D01*
X108000000Y-129148860D01*
X107948918Y-129025537D01*
X107769987Y-128757748D01*
X107542252Y-128530013D01*
X107274463Y-128351082D01*
X106976912Y-128227832D01*
X106661033Y-128165000D01*
X106338967Y-128165000D01*
X106023088Y-128227832D01*
X105725537Y-128351082D01*
X105457748Y-128530013D01*
X105230013Y-128757748D01*
X105051082Y-129025537D01*
X104927832Y-129323088D01*
X104865000Y-129638967D01*
X101635000Y-129638967D01*
X101572168Y-129323088D01*
X101448918Y-129025537D01*
X101269987Y-128757748D01*
X101042252Y-128530013D01*
X100774463Y-128351082D01*
X100476912Y-128227832D01*
X100161033Y-128165000D01*
X99838967Y-128165000D01*
X99523088Y-128227832D01*
X99225537Y-128351082D01*
X98957748Y-128530013D01*
X98730013Y-128757748D01*
X98551082Y-129025537D01*
X98427832Y-129323088D01*
X98365000Y-129638967D01*
X98110001Y-129638967D01*
X98110001Y-127071159D01*
X98240256Y-127017205D01*
X98409774Y-126903937D01*
X98553937Y-126759774D01*
X98667205Y-126590256D01*
X98745226Y-126401898D01*
X98785000Y-126201939D01*
X98785000Y-125998061D01*
X98745226Y-125798102D01*
X98667205Y-125609744D01*
X98592582Y-125498061D01*
X163365000Y-125498061D01*
X163365000Y-125701939D01*
X163404774Y-125901898D01*
X163482795Y-126090256D01*
X163596063Y-126259774D01*
X163740226Y-126403937D01*
X163909744Y-126517205D01*
X164098102Y-126595226D01*
X164298061Y-126635000D01*
X164501939Y-126635000D01*
X164701898Y-126595226D01*
X164890256Y-126517205D01*
X165059774Y-126403937D01*
X165110963Y-126352748D01*
X165148986Y-126349003D01*
X165292247Y-126305546D01*
X165424276Y-126234974D01*
X165540001Y-126140001D01*
X165563804Y-126110997D01*
X165763799Y-125911002D01*
X166611003Y-125063799D01*
X166640001Y-125040001D01*
X166734974Y-124924276D01*
X166805546Y-124792247D01*
X166849003Y-124648986D01*
X166860000Y-124537333D01*
X166860000Y-124537324D01*
X166863676Y-124500001D01*
X166860000Y-124462678D01*
X166860000Y-114313605D01*
X178866000Y-114313605D01*
X178991914Y-114603577D01*
X179324126Y-114769433D01*
X179682312Y-114867290D01*
X180052706Y-114893389D01*
X180421075Y-114846725D01*
X180773262Y-114729094D01*
X181008086Y-114603577D01*
X181134000Y-114313605D01*
X180000000Y-113179605D01*
X178866000Y-114313605D01*
X166860000Y-114313605D01*
X166860000Y-113052706D01*
X178106611Y-113052706D01*
X178153275Y-113421075D01*
X178270906Y-113773262D01*
X178396423Y-114008086D01*
X178686395Y-114134000D01*
X179820395Y-113000000D01*
X180179605Y-113000000D01*
X181313605Y-114134000D01*
X181603577Y-114008086D01*
X181769433Y-113675874D01*
X181867290Y-113317688D01*
X181893389Y-112947294D01*
X181846725Y-112578925D01*
X181729094Y-112226738D01*
X181603577Y-111991914D01*
X181313605Y-111866000D01*
X180179605Y-113000000D01*
X179820395Y-113000000D01*
X178686395Y-111866000D01*
X178396423Y-111991914D01*
X178230567Y-112324126D01*
X178132710Y-112682312D01*
X178106611Y-113052706D01*
X166860000Y-113052706D01*
X166860000Y-111686395D01*
X178866000Y-111686395D01*
X180000000Y-112820395D01*
X181134000Y-111686395D01*
X181008086Y-111396423D01*
X180675874Y-111230567D01*
X180317688Y-111132710D01*
X179947294Y-111106611D01*
X179578925Y-111153275D01*
X179226738Y-111270906D01*
X178991914Y-111396423D01*
X178866000Y-111686395D01*
X166860000Y-111686395D01*
X166860000Y-105750000D01*
X178111928Y-105750000D01*
X178111928Y-108250000D01*
X178124188Y-108374482D01*
X178160498Y-108494180D01*
X178219463Y-108604494D01*
X178298815Y-108701185D01*
X178395506Y-108780537D01*
X178505820Y-108839502D01*
X178625518Y-108875812D01*
X178750000Y-108888072D01*
X181250000Y-108888072D01*
X181374482Y-108875812D01*
X181494180Y-108839502D01*
X181604494Y-108780537D01*
X181701185Y-108701185D01*
X181780537Y-108604494D01*
X181839502Y-108494180D01*
X181875812Y-108374482D01*
X181888072Y-108250000D01*
X181888072Y-105750000D01*
X181875812Y-105625518D01*
X181839502Y-105505820D01*
X181780537Y-105395506D01*
X181701185Y-105298815D01*
X181604494Y-105219463D01*
X181494180Y-105160498D01*
X181374482Y-105124188D01*
X181250000Y-105111928D01*
X178750000Y-105111928D01*
X178625518Y-105124188D01*
X178505820Y-105160498D01*
X178395506Y-105219463D01*
X178298815Y-105298815D01*
X178219463Y-105395506D01*
X178160498Y-105505820D01*
X178124188Y-105625518D01*
X178111928Y-105750000D01*
X166860000Y-105750000D01*
X166860000Y-103313605D01*
X178866000Y-103313605D01*
X178991914Y-103603577D01*
X179324126Y-103769433D01*
X179682312Y-103867290D01*
X180052706Y-103893389D01*
X180421075Y-103846725D01*
X180773262Y-103729094D01*
X181008086Y-103603577D01*
X181134000Y-103313605D01*
X180000000Y-102179605D01*
X178866000Y-103313605D01*
X166860000Y-103313605D01*
X166860000Y-102052706D01*
X178106611Y-102052706D01*
X178153275Y-102421075D01*
X178270906Y-102773262D01*
X178396423Y-103008086D01*
X178686395Y-103134000D01*
X179820395Y-102000000D01*
X180179605Y-102000000D01*
X181313605Y-103134000D01*
X181603577Y-103008086D01*
X181769433Y-102675874D01*
X181867290Y-102317688D01*
X181893389Y-101947294D01*
X181846725Y-101578925D01*
X181729094Y-101226738D01*
X181603577Y-100991914D01*
X181313605Y-100866000D01*
X180179605Y-102000000D01*
X179820395Y-102000000D01*
X178686395Y-100866000D01*
X178396423Y-100991914D01*
X178230567Y-101324126D01*
X178132710Y-101682312D01*
X178106611Y-102052706D01*
X166860000Y-102052706D01*
X166860000Y-100686395D01*
X178866000Y-100686395D01*
X180000000Y-101820395D01*
X181134000Y-100686395D01*
X181008086Y-100396423D01*
X180675874Y-100230567D01*
X180317688Y-100132710D01*
X179947294Y-100106611D01*
X179578925Y-100153275D01*
X179226738Y-100270906D01*
X178991914Y-100396423D01*
X178866000Y-100686395D01*
X166860000Y-100686395D01*
X166860000Y-93998061D01*
X171465000Y-93998061D01*
X171465000Y-94201939D01*
X171504774Y-94401898D01*
X171582795Y-94590256D01*
X171696063Y-94759774D01*
X171840226Y-94903937D01*
X172009744Y-95017205D01*
X172198102Y-95095226D01*
X172398061Y-95135000D01*
X172601939Y-95135000D01*
X172801898Y-95095226D01*
X172990256Y-95017205D01*
X173159774Y-94903937D01*
X173303937Y-94759774D01*
X173310467Y-94750000D01*
X178111928Y-94750000D01*
X178111928Y-97250000D01*
X178124188Y-97374482D01*
X178160498Y-97494180D01*
X178219463Y-97604494D01*
X178298815Y-97701185D01*
X178395506Y-97780537D01*
X178505820Y-97839502D01*
X178625518Y-97875812D01*
X178750000Y-97888072D01*
X181250000Y-97888072D01*
X181374482Y-97875812D01*
X181494180Y-97839502D01*
X181604494Y-97780537D01*
X181701185Y-97701185D01*
X181780537Y-97604494D01*
X181839502Y-97494180D01*
X181875812Y-97374482D01*
X181888072Y-97250000D01*
X181888072Y-94750000D01*
X181875812Y-94625518D01*
X181839502Y-94505820D01*
X181780537Y-94395506D01*
X181701185Y-94298815D01*
X181604494Y-94219463D01*
X181494180Y-94160498D01*
X181374482Y-94124188D01*
X181250000Y-94111928D01*
X178750000Y-94111928D01*
X178625518Y-94124188D01*
X178505820Y-94160498D01*
X178395506Y-94219463D01*
X178298815Y-94298815D01*
X178219463Y-94395506D01*
X178160498Y-94505820D01*
X178124188Y-94625518D01*
X178111928Y-94750000D01*
X173310467Y-94750000D01*
X173417205Y-94590256D01*
X173495226Y-94401898D01*
X173535000Y-94201939D01*
X173535000Y-93998061D01*
X173495226Y-93798102D01*
X173417205Y-93609744D01*
X173303937Y-93440226D01*
X173260000Y-93396289D01*
X173260000Y-92313605D01*
X178866000Y-92313605D01*
X178991914Y-92603577D01*
X179324126Y-92769433D01*
X179682312Y-92867290D01*
X180052706Y-92893389D01*
X180421075Y-92846725D01*
X180773262Y-92729094D01*
X181008086Y-92603577D01*
X181134000Y-92313605D01*
X180000000Y-91179605D01*
X178866000Y-92313605D01*
X173260000Y-92313605D01*
X173260000Y-91052706D01*
X178106611Y-91052706D01*
X178153275Y-91421075D01*
X178270906Y-91773262D01*
X178396423Y-92008086D01*
X178686395Y-92134000D01*
X179820395Y-91000000D01*
X180179605Y-91000000D01*
X181313605Y-92134000D01*
X181603577Y-92008086D01*
X181769433Y-91675874D01*
X181867290Y-91317688D01*
X181893389Y-90947294D01*
X181846725Y-90578925D01*
X181729094Y-90226738D01*
X181603577Y-89991914D01*
X181313605Y-89866000D01*
X180179605Y-91000000D01*
X179820395Y-91000000D01*
X178686395Y-89866000D01*
X178396423Y-89991914D01*
X178230567Y-90324126D01*
X178132710Y-90682312D01*
X178106611Y-91052706D01*
X173260000Y-91052706D01*
X173260000Y-89686395D01*
X178866000Y-89686395D01*
X180000000Y-90820395D01*
X181134000Y-89686395D01*
X181008086Y-89396423D01*
X180675874Y-89230567D01*
X180317688Y-89132710D01*
X179947294Y-89106611D01*
X179578925Y-89153275D01*
X179226738Y-89270906D01*
X178991914Y-89396423D01*
X178866000Y-89686395D01*
X173260000Y-89686395D01*
X173260000Y-87903560D01*
X173301898Y-87895226D01*
X173490256Y-87817205D01*
X173659774Y-87703937D01*
X173803937Y-87559774D01*
X173917205Y-87390256D01*
X173995226Y-87201898D01*
X174035000Y-87001939D01*
X174035000Y-86798061D01*
X173995226Y-86598102D01*
X173917205Y-86409744D01*
X173803937Y-86240226D01*
X173659774Y-86096063D01*
X173490256Y-85982795D01*
X173301898Y-85904774D01*
X173101939Y-85865000D01*
X172898061Y-85865000D01*
X172698102Y-85904774D01*
X172509744Y-85982795D01*
X172340226Y-86096063D01*
X172196063Y-86240226D01*
X172082795Y-86409744D01*
X172004774Y-86598102D01*
X171965000Y-86798061D01*
X171965000Y-86855896D01*
X171960000Y-86859999D01*
X171936202Y-86888997D01*
X171936201Y-86888998D01*
X171865026Y-86975724D01*
X171794454Y-87107754D01*
X171778675Y-87159774D01*
X171750998Y-87251014D01*
X171743782Y-87324276D01*
X171736324Y-87400000D01*
X171740001Y-87437332D01*
X171740000Y-93396289D01*
X171696063Y-93440226D01*
X171582795Y-93609744D01*
X171504774Y-93798102D01*
X171465000Y-93998061D01*
X166860000Y-93998061D01*
X166860000Y-88003711D01*
X166903937Y-87959774D01*
X167017205Y-87790256D01*
X167095226Y-87601898D01*
X167135000Y-87401939D01*
X167135000Y-87198061D01*
X167095226Y-86998102D01*
X167017205Y-86809744D01*
X166903937Y-86640226D01*
X166759774Y-86496063D01*
X166590256Y-86382795D01*
X166401898Y-86304774D01*
X166201939Y-86265000D01*
X165998061Y-86265000D01*
X165798102Y-86304774D01*
X165609744Y-86382795D01*
X165440226Y-86496063D01*
X165296063Y-86640226D01*
X165182795Y-86809744D01*
X165104774Y-86998102D01*
X165065000Y-87198061D01*
X165065000Y-87401939D01*
X165104774Y-87601898D01*
X165182795Y-87790256D01*
X165296063Y-87959774D01*
X165340000Y-88003711D01*
X165340001Y-119262658D01*
X165340000Y-119262668D01*
X165340001Y-124185197D01*
X164856419Y-124668779D01*
X164701898Y-124604774D01*
X164501939Y-124565000D01*
X164298061Y-124565000D01*
X164098102Y-124604774D01*
X163909744Y-124682795D01*
X163740226Y-124796063D01*
X163596063Y-124940226D01*
X163482795Y-125109744D01*
X163404774Y-125298102D01*
X163365000Y-125498061D01*
X98592582Y-125498061D01*
X98553937Y-125440226D01*
X98409774Y-125296063D01*
X98240256Y-125182795D01*
X98051898Y-125104774D01*
X97851939Y-125065000D01*
X97648061Y-125065000D01*
X97448102Y-125104774D01*
X97259744Y-125182795D01*
X97090226Y-125296063D01*
X96946063Y-125440226D01*
X96832795Y-125609744D01*
X96754774Y-125798102D01*
X96715000Y-125998061D01*
X96715000Y-126074445D01*
X96615266Y-126007805D01*
X96460000Y-125943491D01*
X96460000Y-108437325D01*
X96463676Y-108400000D01*
X96460000Y-108362675D01*
X96460000Y-108362667D01*
X96449003Y-108251014D01*
X96405546Y-108107753D01*
X96334974Y-107975724D01*
X96240001Y-107859999D01*
X96210997Y-107836196D01*
X95763804Y-107389003D01*
X95740001Y-107359999D01*
X95624276Y-107265026D01*
X95492247Y-107194454D01*
X95443325Y-107179614D01*
X95359774Y-107096063D01*
X95190256Y-106982795D01*
X95001898Y-106904774D01*
X94801939Y-106865000D01*
X94598061Y-106865000D01*
X94398102Y-106904774D01*
X94209744Y-106982795D01*
X94040226Y-107096063D01*
X93896063Y-107240226D01*
X93782795Y-107409744D01*
X93704774Y-107598102D01*
X93665000Y-107798061D01*
X78918907Y-107798061D01*
X79059774Y-107703937D01*
X79203937Y-107559774D01*
X79317205Y-107390256D01*
X79395226Y-107201898D01*
X79435000Y-107001939D01*
X79435000Y-106798061D01*
X79395226Y-106598102D01*
X79317205Y-106409744D01*
X79203937Y-106240226D01*
X79059774Y-106096063D01*
X78890256Y-105982795D01*
X78701898Y-105904774D01*
X78501939Y-105865000D01*
X78439802Y-105865000D01*
X78372863Y-105798061D01*
X102965000Y-105798061D01*
X102965000Y-106001939D01*
X103004774Y-106201898D01*
X103082795Y-106390256D01*
X103196063Y-106559774D01*
X103340226Y-106703937D01*
X103509744Y-106817205D01*
X103698102Y-106895226D01*
X103898061Y-106935000D01*
X104101939Y-106935000D01*
X104301898Y-106895226D01*
X104490256Y-106817205D01*
X104659774Y-106703937D01*
X104803937Y-106559774D01*
X104917205Y-106390256D01*
X104995226Y-106201898D01*
X105035000Y-106001939D01*
X105035000Y-105939802D01*
X105111002Y-105863800D01*
X105140001Y-105840001D01*
X105176060Y-105796063D01*
X105234974Y-105724277D01*
X105305546Y-105592247D01*
X105328978Y-105515001D01*
X105349003Y-105448986D01*
X105360000Y-105337333D01*
X105360000Y-105337324D01*
X105363676Y-105300001D01*
X105360000Y-105262678D01*
X105360000Y-102998061D01*
X112265000Y-102998061D01*
X112265000Y-103201939D01*
X112304774Y-103401898D01*
X112382795Y-103590256D01*
X112496063Y-103759774D01*
X112640226Y-103903937D01*
X112809744Y-104017205D01*
X112998102Y-104095226D01*
X113198061Y-104135000D01*
X113401939Y-104135000D01*
X113601898Y-104095226D01*
X113790256Y-104017205D01*
X113959774Y-103903937D01*
X114103937Y-103759774D01*
X114217205Y-103590256D01*
X114295226Y-103401898D01*
X114335000Y-103201939D01*
X114335000Y-103198061D01*
X123265000Y-103198061D01*
X123265000Y-103401939D01*
X123304774Y-103601898D01*
X123382795Y-103790256D01*
X123496063Y-103959774D01*
X123640226Y-104103937D01*
X123809744Y-104217205D01*
X123998102Y-104295226D01*
X124198061Y-104335000D01*
X124401939Y-104335000D01*
X124601898Y-104295226D01*
X124790256Y-104217205D01*
X124959774Y-104103937D01*
X125103937Y-103959774D01*
X125217205Y-103790256D01*
X125295226Y-103601898D01*
X125335000Y-103401939D01*
X125335000Y-103339802D01*
X126576741Y-102098061D01*
X130965000Y-102098061D01*
X130965000Y-102301939D01*
X131004774Y-102501898D01*
X131082795Y-102690256D01*
X131196063Y-102859774D01*
X131340226Y-103003937D01*
X131509744Y-103117205D01*
X131698102Y-103195226D01*
X131898061Y-103235000D01*
X132101939Y-103235000D01*
X132301898Y-103195226D01*
X132490256Y-103117205D01*
X132659774Y-103003937D01*
X132803937Y-102859774D01*
X132917205Y-102690256D01*
X132995226Y-102501898D01*
X133035000Y-102301939D01*
X133035000Y-102239802D01*
X133411004Y-101863798D01*
X133440001Y-101840001D01*
X133534974Y-101724276D01*
X133605546Y-101592247D01*
X133649003Y-101448986D01*
X133660000Y-101337333D01*
X133660000Y-101337324D01*
X133663676Y-101300001D01*
X133660000Y-101262678D01*
X133660000Y-98950049D01*
X144465000Y-98950049D01*
X144465000Y-99153927D01*
X144504774Y-99353886D01*
X144582795Y-99542244D01*
X144696063Y-99711762D01*
X144840226Y-99855925D01*
X145009744Y-99969193D01*
X145198102Y-100047214D01*
X145398061Y-100086988D01*
X145601939Y-100086988D01*
X145801898Y-100047214D01*
X145990256Y-99969193D01*
X146159774Y-99855925D01*
X146303937Y-99711762D01*
X146417205Y-99542244D01*
X146495226Y-99353886D01*
X146535000Y-99153927D01*
X146535000Y-99091789D01*
X147111004Y-98515786D01*
X147140001Y-98491989D01*
X147166332Y-98459905D01*
X147234974Y-98376265D01*
X147305546Y-98244235D01*
X147338747Y-98134783D01*
X147349003Y-98100974D01*
X147360000Y-97989321D01*
X147360000Y-97989311D01*
X147363676Y-97951988D01*
X147360000Y-97914665D01*
X147360000Y-96398061D01*
X151765000Y-96398061D01*
X151765000Y-96601939D01*
X151804774Y-96801898D01*
X151882795Y-96990256D01*
X151996063Y-97159774D01*
X152140226Y-97303937D01*
X152309744Y-97417205D01*
X152498102Y-97495226D01*
X152698061Y-97535000D01*
X152901939Y-97535000D01*
X153101898Y-97495226D01*
X153290256Y-97417205D01*
X153459774Y-97303937D01*
X153603937Y-97159774D01*
X153717205Y-96990256D01*
X153795226Y-96801898D01*
X153835000Y-96601939D01*
X153835000Y-96539802D01*
X154211004Y-96163798D01*
X154240001Y-96140001D01*
X154334974Y-96024276D01*
X154405546Y-95892247D01*
X154449003Y-95748986D01*
X154460000Y-95637333D01*
X154460000Y-95637324D01*
X154463676Y-95600001D01*
X154460000Y-95562678D01*
X154460000Y-91398061D01*
X156965000Y-91398061D01*
X156965000Y-91601939D01*
X157004774Y-91801898D01*
X157082795Y-91990256D01*
X157196063Y-92159774D01*
X157340226Y-92303937D01*
X157509744Y-92417205D01*
X157698102Y-92495226D01*
X157898061Y-92535000D01*
X158101939Y-92535000D01*
X158301898Y-92495226D01*
X158490256Y-92417205D01*
X158659774Y-92303937D01*
X158694455Y-92269256D01*
X159740001Y-93314803D01*
X159740000Y-101296289D01*
X159696063Y-101340226D01*
X159582795Y-101509744D01*
X159504774Y-101698102D01*
X159465000Y-101898061D01*
X159465000Y-102101939D01*
X159504774Y-102301898D01*
X159582795Y-102490256D01*
X159696063Y-102659774D01*
X159840226Y-102803937D01*
X160009744Y-102917205D01*
X160198102Y-102995226D01*
X160398061Y-103035000D01*
X160601939Y-103035000D01*
X160801898Y-102995226D01*
X160990256Y-102917205D01*
X161159774Y-102803937D01*
X161303937Y-102659774D01*
X161417205Y-102490256D01*
X161495226Y-102301898D01*
X161535000Y-102101939D01*
X161535000Y-101898061D01*
X161495226Y-101698102D01*
X161417205Y-101509744D01*
X161303937Y-101340226D01*
X161260000Y-101296289D01*
X161260000Y-93037322D01*
X161263676Y-92999999D01*
X161260000Y-92962676D01*
X161260000Y-92962667D01*
X161249003Y-92851014D01*
X161205546Y-92707753D01*
X161134974Y-92575724D01*
X161040001Y-92459999D01*
X161011003Y-92436201D01*
X159563804Y-90989003D01*
X159540001Y-90959999D01*
X159424276Y-90865026D01*
X159292247Y-90794454D01*
X159148986Y-90750997D01*
X159037333Y-90740000D01*
X159037322Y-90740000D01*
X159000000Y-90736324D01*
X158962678Y-90740000D01*
X158703711Y-90740000D01*
X158659774Y-90696063D01*
X158490256Y-90582795D01*
X158301898Y-90504774D01*
X158101939Y-90465000D01*
X157898061Y-90465000D01*
X157698102Y-90504774D01*
X157509744Y-90582795D01*
X157340226Y-90696063D01*
X157196063Y-90840226D01*
X157082795Y-91009744D01*
X157004774Y-91198102D01*
X156965000Y-91398061D01*
X154460000Y-91398061D01*
X154460000Y-87603711D01*
X154503937Y-87559774D01*
X154617205Y-87390256D01*
X154695226Y-87201898D01*
X154735000Y-87001939D01*
X154735000Y-86798061D01*
X154695226Y-86598102D01*
X154617205Y-86409744D01*
X154503937Y-86240226D01*
X154359774Y-86096063D01*
X154190256Y-85982795D01*
X154001898Y-85904774D01*
X153801939Y-85865000D01*
X153598061Y-85865000D01*
X153398102Y-85904774D01*
X153209744Y-85982795D01*
X153040226Y-86096063D01*
X152896063Y-86240226D01*
X152782795Y-86409744D01*
X152704774Y-86598102D01*
X152665000Y-86798061D01*
X152665000Y-87001939D01*
X152704774Y-87201898D01*
X152782795Y-87390256D01*
X152896063Y-87559774D01*
X152940001Y-87603712D01*
X152940000Y-95285198D01*
X152760198Y-95465000D01*
X152698061Y-95465000D01*
X152498102Y-95504774D01*
X152309744Y-95582795D01*
X152140226Y-95696063D01*
X151996063Y-95840226D01*
X151882795Y-96009744D01*
X151804774Y-96198102D01*
X151765000Y-96398061D01*
X147360000Y-96398061D01*
X147360000Y-88103711D01*
X147403937Y-88059774D01*
X147517205Y-87890256D01*
X147595226Y-87701898D01*
X147635000Y-87501939D01*
X147635000Y-87298061D01*
X147595226Y-87098102D01*
X147517205Y-86909744D01*
X147403937Y-86740226D01*
X147259774Y-86596063D01*
X147090256Y-86482795D01*
X146901898Y-86404774D01*
X146701939Y-86365000D01*
X146498061Y-86365000D01*
X146298102Y-86404774D01*
X146109744Y-86482795D01*
X145940226Y-86596063D01*
X145796063Y-86740226D01*
X145682795Y-86909744D01*
X145604774Y-87098102D01*
X145565000Y-87298061D01*
X145565000Y-87501939D01*
X145604774Y-87701898D01*
X145682795Y-87890256D01*
X145796063Y-88059774D01*
X145840001Y-88103712D01*
X145840000Y-97637186D01*
X145460199Y-98016988D01*
X145398061Y-98016988D01*
X145198102Y-98056762D01*
X145009744Y-98134783D01*
X144840226Y-98248051D01*
X144696063Y-98392214D01*
X144582795Y-98561732D01*
X144504774Y-98750090D01*
X144465000Y-98950049D01*
X133660000Y-98950049D01*
X133660000Y-88103711D01*
X133803937Y-87959774D01*
X133917205Y-87790256D01*
X133995226Y-87601898D01*
X134035000Y-87401939D01*
X134035000Y-87198061D01*
X133995226Y-86998102D01*
X133917205Y-86809744D01*
X133803937Y-86640226D01*
X133659774Y-86496063D01*
X133490256Y-86382795D01*
X133301898Y-86304774D01*
X133101939Y-86265000D01*
X132898061Y-86265000D01*
X132698102Y-86304774D01*
X132509744Y-86382795D01*
X132340226Y-86496063D01*
X132196063Y-86640226D01*
X132082795Y-86809744D01*
X132004774Y-86998102D01*
X131965000Y-87198061D01*
X131965000Y-87401939D01*
X132004774Y-87601898D01*
X132082795Y-87790256D01*
X132140001Y-87875871D01*
X132140000Y-100985198D01*
X131960198Y-101165000D01*
X131898061Y-101165000D01*
X131698102Y-101204774D01*
X131509744Y-101282795D01*
X131340226Y-101396063D01*
X131196063Y-101540226D01*
X131082795Y-101709744D01*
X131004774Y-101898102D01*
X130965000Y-102098061D01*
X126576741Y-102098061D01*
X126611009Y-102063794D01*
X126640001Y-102040001D01*
X126663795Y-102011008D01*
X126663799Y-102011004D01*
X126734973Y-101924277D01*
X126734974Y-101924276D01*
X126805546Y-101792247D01*
X126849003Y-101648986D01*
X126860000Y-101537333D01*
X126860000Y-101537324D01*
X126863676Y-101500001D01*
X126860000Y-101462678D01*
X126860000Y-88203711D01*
X126903937Y-88159774D01*
X127017205Y-87990256D01*
X127095226Y-87801898D01*
X127135000Y-87601939D01*
X127135000Y-87398061D01*
X127095226Y-87198102D01*
X127017205Y-87009744D01*
X126903937Y-86840226D01*
X126759774Y-86696063D01*
X126590256Y-86582795D01*
X126401898Y-86504774D01*
X126201939Y-86465000D01*
X125998061Y-86465000D01*
X125798102Y-86504774D01*
X125609744Y-86582795D01*
X125440226Y-86696063D01*
X125296063Y-86840226D01*
X125182795Y-87009744D01*
X125104774Y-87198102D01*
X125065000Y-87398061D01*
X125065000Y-87601939D01*
X125104774Y-87801898D01*
X125182795Y-87990256D01*
X125296063Y-88159774D01*
X125340001Y-88203712D01*
X125340000Y-101185197D01*
X124260198Y-102265000D01*
X124198061Y-102265000D01*
X123998102Y-102304774D01*
X123809744Y-102382795D01*
X123640226Y-102496063D01*
X123496063Y-102640226D01*
X123382795Y-102809744D01*
X123304774Y-102998102D01*
X123265000Y-103198061D01*
X114335000Y-103198061D01*
X114335000Y-103124227D01*
X114405546Y-102992247D01*
X114449003Y-102848986D01*
X114460000Y-102737333D01*
X114460000Y-102737324D01*
X114463676Y-102700001D01*
X114460000Y-102662678D01*
X114460000Y-87703711D01*
X114503937Y-87659774D01*
X114617205Y-87490256D01*
X114695226Y-87301898D01*
X114735000Y-87101939D01*
X114735000Y-86898061D01*
X114695226Y-86698102D01*
X114617205Y-86509744D01*
X114503937Y-86340226D01*
X114359774Y-86196063D01*
X114190256Y-86082795D01*
X114001898Y-86004774D01*
X113801939Y-85965000D01*
X113598061Y-85965000D01*
X113398102Y-86004774D01*
X113209744Y-86082795D01*
X113040226Y-86196063D01*
X112896063Y-86340226D01*
X112782795Y-86509744D01*
X112704774Y-86698102D01*
X112665000Y-86898061D01*
X112665000Y-87101939D01*
X112704774Y-87301898D01*
X112782795Y-87490256D01*
X112896063Y-87659774D01*
X112940001Y-87703712D01*
X112940000Y-102128841D01*
X112809744Y-102182795D01*
X112640226Y-102296063D01*
X112496063Y-102440226D01*
X112382795Y-102609744D01*
X112304774Y-102798102D01*
X112265000Y-102998061D01*
X105360000Y-102998061D01*
X105360000Y-87503560D01*
X105401898Y-87495226D01*
X105590256Y-87417205D01*
X105759774Y-87303937D01*
X105903937Y-87159774D01*
X106017205Y-86990256D01*
X106095226Y-86801898D01*
X106135000Y-86601939D01*
X106135000Y-86398061D01*
X106095226Y-86198102D01*
X106017205Y-86009744D01*
X105903937Y-85840226D01*
X105759774Y-85696063D01*
X105590256Y-85582795D01*
X105401898Y-85504774D01*
X105201939Y-85465000D01*
X104998061Y-85465000D01*
X104798102Y-85504774D01*
X104609744Y-85582795D01*
X104440226Y-85696063D01*
X104296063Y-85840226D01*
X104182795Y-86009744D01*
X104104774Y-86198102D01*
X104065000Y-86398061D01*
X104065000Y-86455895D01*
X104059999Y-86459999D01*
X104019175Y-86509744D01*
X103965026Y-86575724D01*
X103917293Y-86665026D01*
X103894454Y-86707754D01*
X103850997Y-86851015D01*
X103840000Y-86962668D01*
X103840000Y-86962678D01*
X103836324Y-87000000D01*
X103840000Y-87037322D01*
X103840000Y-87362668D01*
X103840001Y-102562658D01*
X103840000Y-102562668D01*
X103840000Y-103462668D01*
X103840001Y-104876549D01*
X103698102Y-104904774D01*
X103509744Y-104982795D01*
X103340226Y-105096063D01*
X103196063Y-105240226D01*
X103082795Y-105409744D01*
X103004774Y-105598102D01*
X102965000Y-105798061D01*
X78372863Y-105798061D01*
X74963804Y-102389003D01*
X74940001Y-102359999D01*
X74824276Y-102265026D01*
X74692247Y-102194454D01*
X74548986Y-102150997D01*
X74437333Y-102140000D01*
X74437322Y-102140000D01*
X74400000Y-102136324D01*
X74362678Y-102140000D01*
X73103711Y-102140000D01*
X73059774Y-102096063D01*
X72890256Y-101982795D01*
X72701898Y-101904774D01*
X72501939Y-101865000D01*
X72298061Y-101865000D01*
X72260000Y-101872571D01*
X72260000Y-97703711D01*
X72303937Y-97659774D01*
X72417205Y-97490256D01*
X72495226Y-97301898D01*
X72535000Y-97101939D01*
X72535000Y-97028424D01*
X72701898Y-96995226D01*
X72890256Y-96917205D01*
X73059774Y-96803937D01*
X73203937Y-96659774D01*
X73317205Y-96490256D01*
X73395226Y-96301898D01*
X73435000Y-96101939D01*
X73435000Y-95898061D01*
X73395226Y-95698102D01*
X73317205Y-95509744D01*
X73203937Y-95340226D01*
X73059774Y-95196063D01*
X72890256Y-95082795D01*
X72701898Y-95004774D01*
X72501939Y-94965000D01*
X72298061Y-94965000D01*
X72098102Y-95004774D01*
X71909744Y-95082795D01*
X71740226Y-95196063D01*
X71696289Y-95240000D01*
X68555008Y-95240000D01*
X68555008Y-93764942D01*
X68601668Y-93834774D01*
X68745831Y-93978937D01*
X68915349Y-94092205D01*
X69103707Y-94170226D01*
X69303666Y-94210000D01*
X69507544Y-94210000D01*
X69707503Y-94170226D01*
X69895861Y-94092205D01*
X70065379Y-93978937D01*
X70209542Y-93834774D01*
X70322810Y-93665256D01*
X70400831Y-93476898D01*
X70440605Y-93276939D01*
X70440605Y-93199226D01*
X70511150Y-93067248D01*
X70554607Y-92923987D01*
X70565604Y-92812334D01*
X70565604Y-92812324D01*
X70569280Y-92775002D01*
X70565604Y-92737679D01*
X70565604Y-92209197D01*
X73114803Y-89660000D01*
X86696289Y-89660000D01*
X86740226Y-89703937D01*
X86909744Y-89817205D01*
X87098102Y-89895226D01*
X87298061Y-89935000D01*
X87501939Y-89935000D01*
X87701898Y-89895226D01*
X87890256Y-89817205D01*
X88059774Y-89703937D01*
X88203937Y-89559774D01*
X88317205Y-89390256D01*
X88395226Y-89201898D01*
X88435000Y-89001939D01*
X88435000Y-88798061D01*
X88395226Y-88598102D01*
X88317205Y-88409744D01*
X88203937Y-88240226D01*
X88059774Y-88096063D01*
X87890256Y-87982795D01*
X87701898Y-87904774D01*
X87501939Y-87865000D01*
X87298061Y-87865000D01*
X87098102Y-87904774D01*
X86909744Y-87982795D01*
X86740226Y-88096063D01*
X86696289Y-88140000D01*
X72837322Y-88140000D01*
X72799999Y-88136324D01*
X72762676Y-88140000D01*
X72762667Y-88140000D01*
X72651014Y-88150997D01*
X72507753Y-88194454D01*
X72375724Y-88265026D01*
X72375722Y-88265027D01*
X72375723Y-88265027D01*
X72288996Y-88336201D01*
X72288992Y-88336205D01*
X72259999Y-88359999D01*
X72236205Y-88388992D01*
X69294602Y-91330597D01*
X69265604Y-91354395D01*
X69241806Y-91383393D01*
X69241805Y-91383394D01*
X69170630Y-91470120D01*
X69100058Y-91602150D01*
X69085851Y-91648986D01*
X69056602Y-91745410D01*
X69045604Y-91857063D01*
X69045604Y-91857074D01*
X69041928Y-91894396D01*
X69045604Y-91931718D01*
X69045604Y-92203841D01*
X68915349Y-92257795D01*
X68745831Y-92371063D01*
X68601668Y-92515226D01*
X68555008Y-92585058D01*
X68555008Y-91434023D01*
X68558684Y-91396700D01*
X68555008Y-91359377D01*
X68555008Y-91359367D01*
X68544011Y-91247714D01*
X68500554Y-91104453D01*
X68495124Y-91094294D01*
X68429982Y-90972423D01*
X68358807Y-90885697D01*
X68335009Y-90856699D01*
X68306012Y-90832902D01*
X66924458Y-89451349D01*
X66900655Y-89422345D01*
X66784930Y-89327372D01*
X66652901Y-89256800D01*
X66509640Y-89213343D01*
X66397987Y-89202346D01*
X66397976Y-89202346D01*
X66360654Y-89198670D01*
X66323332Y-89202346D01*
X64109292Y-89202346D01*
X64071969Y-89198670D01*
X64034646Y-89202346D01*
X64034636Y-89202346D01*
X63922983Y-89213343D01*
X63779722Y-89256800D01*
X63647693Y-89327372D01*
X63531968Y-89422345D01*
X63508165Y-89451349D01*
X63388998Y-89570516D01*
X63360000Y-89594314D01*
X63336202Y-89623312D01*
X63336201Y-89623313D01*
X63265026Y-89710039D01*
X63226137Y-89782795D01*
X63194454Y-89842068D01*
X63151013Y-89985276D01*
X63096063Y-90040226D01*
X62982795Y-90209744D01*
X62904774Y-90398102D01*
X62865000Y-90598061D01*
X62865000Y-90801939D01*
X62904774Y-91001898D01*
X62982795Y-91190256D01*
X63096063Y-91359774D01*
X63240226Y-91503937D01*
X63409744Y-91617205D01*
X63598102Y-91695226D01*
X63798061Y-91735000D01*
X64001939Y-91735000D01*
X64201898Y-91695226D01*
X64390256Y-91617205D01*
X64450000Y-91577285D01*
X64509744Y-91617205D01*
X64698102Y-91695226D01*
X64840000Y-91723451D01*
X64840000Y-96303517D01*
X64791318Y-96230659D01*
X64647155Y-96086496D01*
X64477637Y-95973228D01*
X64289279Y-95895207D01*
X64089320Y-95855433D01*
X63885442Y-95855433D01*
X63685483Y-95895207D01*
X63497125Y-95973228D01*
X63327607Y-96086496D01*
X63283670Y-96130433D01*
X62149237Y-96130433D01*
X61897431Y-95878627D01*
X61951286Y-95824772D01*
X62064554Y-95655254D01*
X62142575Y-95466896D01*
X62182349Y-95266937D01*
X62182349Y-95063059D01*
X62142575Y-94863100D01*
X62064554Y-94674742D01*
X62060000Y-94667926D01*
X62060000Y-94645421D01*
X62086508Y-94613121D01*
X62157080Y-94481092D01*
X62200521Y-94337884D01*
X62255471Y-94282934D01*
X62368739Y-94113416D01*
X62446760Y-93925058D01*
X62486534Y-93725099D01*
X62486534Y-93521221D01*
X62446760Y-93321262D01*
X62368739Y-93132904D01*
X62255471Y-92963386D01*
X62111308Y-92819223D01*
X61941790Y-92705955D01*
X61753432Y-92627934D01*
X61553473Y-92588160D01*
X61349595Y-92588160D01*
X61149636Y-92627934D01*
X61040396Y-92673183D01*
X61040396Y-92485967D01*
X61000622Y-92286008D01*
X60922601Y-92097650D01*
X60809333Y-91928132D01*
X60665170Y-91783969D01*
X60495652Y-91670701D01*
X60307294Y-91592680D01*
X60107335Y-91552906D01*
X59903457Y-91552906D01*
X59703498Y-91592680D01*
X59515140Y-91670701D01*
X59345622Y-91783969D01*
X59201459Y-91928132D01*
X59088191Y-92097650D01*
X59010170Y-92286008D01*
X58970396Y-92485967D01*
X52660000Y-92485967D01*
X52660000Y-91400000D01*
X56759993Y-91400000D01*
X56779976Y-91602895D01*
X56839159Y-91797993D01*
X56935266Y-91977797D01*
X57064604Y-92135396D01*
X57222203Y-92264734D01*
X57402007Y-92360841D01*
X57597105Y-92420024D01*
X57749162Y-92435000D01*
X57850838Y-92435000D01*
X58002895Y-92420024D01*
X58197993Y-92360841D01*
X58377797Y-92264734D01*
X58535396Y-92135396D01*
X58664734Y-91977797D01*
X58760841Y-91797993D01*
X58820024Y-91602895D01*
X58840007Y-91400000D01*
X58820024Y-91197105D01*
X58760841Y-91002007D01*
X58723000Y-90931211D01*
X58723000Y-90302000D01*
X58977000Y-90302000D01*
X58977000Y-91535000D01*
X59252000Y-91535000D01*
X59514883Y-91484092D01*
X59762783Y-91382876D01*
X59986173Y-91235242D01*
X60176469Y-91046863D01*
X60326357Y-90824979D01*
X60430078Y-90578117D01*
X60442519Y-90512258D01*
X60319518Y-90302000D01*
X58977000Y-90302000D01*
X58723000Y-90302000D01*
X57380482Y-90302000D01*
X57257481Y-90512258D01*
X57258193Y-90516029D01*
X57222203Y-90535266D01*
X57064604Y-90664604D01*
X56935266Y-90822203D01*
X56839159Y-91002007D01*
X56779976Y-91197105D01*
X56759993Y-91400000D01*
X52660000Y-91400000D01*
X52660000Y-90338677D01*
X53556365Y-90338677D01*
X53558504Y-90370715D01*
X53648364Y-90591644D01*
X53779598Y-90790797D01*
X53947163Y-90960521D01*
X54144620Y-91094294D01*
X54364381Y-91186974D01*
X54598000Y-91235000D01*
X54923000Y-91235000D01*
X54923000Y-90152000D01*
X55177000Y-90152000D01*
X55177000Y-91235000D01*
X55502000Y-91235000D01*
X55735619Y-91186974D01*
X55955380Y-91094294D01*
X56152837Y-90960521D01*
X56320402Y-90790797D01*
X56451636Y-90591644D01*
X56541496Y-90370715D01*
X56543635Y-90338677D01*
X56418550Y-90152000D01*
X55177000Y-90152000D01*
X54923000Y-90152000D01*
X53681450Y-90152000D01*
X53556365Y-90338677D01*
X52660000Y-90338677D01*
X52660000Y-89711323D01*
X53556365Y-89711323D01*
X53681450Y-89898000D01*
X54923000Y-89898000D01*
X54923000Y-88815000D01*
X55177000Y-88815000D01*
X55177000Y-89898000D01*
X56418550Y-89898000D01*
X56458926Y-89837742D01*
X57257481Y-89837742D01*
X57380482Y-90048000D01*
X58723000Y-90048000D01*
X58723000Y-88815000D01*
X58977000Y-88815000D01*
X58977000Y-90048000D01*
X60319518Y-90048000D01*
X60442519Y-89837742D01*
X60430078Y-89771883D01*
X60326357Y-89525021D01*
X60176469Y-89303137D01*
X59986173Y-89114758D01*
X59762783Y-88967124D01*
X59514883Y-88865908D01*
X59252000Y-88815000D01*
X58977000Y-88815000D01*
X58723000Y-88815000D01*
X58448000Y-88815000D01*
X58185117Y-88865908D01*
X57937217Y-88967124D01*
X57713827Y-89114758D01*
X57523531Y-89303137D01*
X57373643Y-89525021D01*
X57269922Y-89771883D01*
X57257481Y-89837742D01*
X56458926Y-89837742D01*
X56543635Y-89711323D01*
X56541496Y-89679285D01*
X56451636Y-89458356D01*
X56320402Y-89259203D01*
X56152837Y-89089479D01*
X55955380Y-88955706D01*
X55735619Y-88863026D01*
X55502000Y-88815000D01*
X55177000Y-88815000D01*
X54923000Y-88815000D01*
X54598000Y-88815000D01*
X54364381Y-88863026D01*
X54144620Y-88955706D01*
X53947163Y-89089479D01*
X53779598Y-89259203D01*
X53648364Y-89458356D01*
X53558504Y-89679285D01*
X53556365Y-89711323D01*
X52660000Y-89711323D01*
X52660000Y-78403148D01*
X61676457Y-78403148D01*
X61952627Y-78821118D01*
X62497557Y-79111649D01*
X63088696Y-79290287D01*
X63703328Y-79350168D01*
X63790530Y-79341486D01*
X63788871Y-79343969D01*
X63541240Y-79941801D01*
X63415000Y-80576456D01*
X63415000Y-81223544D01*
X63541240Y-81858199D01*
X63788871Y-82456031D01*
X64148374Y-82994066D01*
X64605934Y-83451626D01*
X65143969Y-83811129D01*
X65741801Y-84058760D01*
X66376456Y-84185000D01*
X67023544Y-84185000D01*
X67658199Y-84058760D01*
X68256031Y-83811129D01*
X68794066Y-83451626D01*
X69251626Y-82994066D01*
X69611129Y-82456031D01*
X69858760Y-81858199D01*
X69985000Y-81223544D01*
X69985000Y-80576456D01*
X69858760Y-79941801D01*
X69669546Y-79485000D01*
X70023544Y-79485000D01*
X70658199Y-79358760D01*
X71256031Y-79111129D01*
X71794066Y-78751626D01*
X72251626Y-78294066D01*
X72611129Y-77756031D01*
X72858760Y-77158199D01*
X72985000Y-76523544D01*
X72985000Y-75876456D01*
X72858760Y-75241801D01*
X72611129Y-74643969D01*
X72251626Y-74105934D01*
X71794066Y-73648374D01*
X71256031Y-73288871D01*
X70658199Y-73041240D01*
X70023544Y-72915000D01*
X69376456Y-72915000D01*
X68741801Y-73041240D01*
X68143969Y-73288871D01*
X67605934Y-73648374D01*
X67148374Y-74105934D01*
X66788871Y-74643969D01*
X66624293Y-75041294D01*
X66609103Y-74991408D01*
X66321118Y-74452627D01*
X65903148Y-74176457D01*
X63879605Y-76200000D01*
X63893748Y-76214143D01*
X63714143Y-76393748D01*
X63700000Y-76379605D01*
X61676457Y-78403148D01*
X52660000Y-78403148D01*
X52660000Y-76203328D01*
X60549832Y-76203328D01*
X60611010Y-76817831D01*
X60790897Y-77408592D01*
X61078882Y-77947373D01*
X61496852Y-78223543D01*
X63520395Y-76200000D01*
X61496852Y-74176457D01*
X61078882Y-74452627D01*
X60788351Y-74997557D01*
X60609713Y-75588696D01*
X60549832Y-76203328D01*
X52660000Y-76203328D01*
X52660000Y-73996852D01*
X61676457Y-73996852D01*
X63700000Y-76020395D01*
X65723543Y-73996852D01*
X65447373Y-73578882D01*
X64902443Y-73288351D01*
X64311304Y-73109713D01*
X63696672Y-73049832D01*
X63082169Y-73111010D01*
X62491408Y-73290897D01*
X61952627Y-73578882D01*
X61676457Y-73996852D01*
X52660000Y-73996852D01*
X52660000Y-71392702D01*
X85086903Y-71392702D01*
X85158486Y-71636671D01*
X85413996Y-71757571D01*
X85688184Y-71826300D01*
X85970512Y-71840217D01*
X86250130Y-71798787D01*
X86516292Y-71703603D01*
X86641514Y-71636671D01*
X86683755Y-71492702D01*
X92886903Y-71492702D01*
X92958486Y-71736671D01*
X93213996Y-71857571D01*
X93488184Y-71926300D01*
X93770512Y-71940217D01*
X94050130Y-71898787D01*
X94316292Y-71803603D01*
X94441514Y-71736671D01*
X94513097Y-71492702D01*
X93700000Y-70679605D01*
X92886903Y-71492702D01*
X86683755Y-71492702D01*
X86713097Y-71392702D01*
X85900000Y-70579605D01*
X85086903Y-71392702D01*
X52660000Y-71392702D01*
X52660000Y-70470512D01*
X84459783Y-70470512D01*
X84501213Y-70750130D01*
X84596397Y-71016292D01*
X84663329Y-71141514D01*
X84907298Y-71213097D01*
X85720395Y-70400000D01*
X85706253Y-70385858D01*
X85885858Y-70206253D01*
X85900000Y-70220395D01*
X85914143Y-70206253D01*
X86093748Y-70385858D01*
X86079605Y-70400000D01*
X86892702Y-71213097D01*
X87136671Y-71141514D01*
X87257571Y-70886004D01*
X87326300Y-70611816D01*
X87328336Y-70570512D01*
X92259783Y-70570512D01*
X92301213Y-70850130D01*
X92396397Y-71116292D01*
X92463329Y-71241514D01*
X92707298Y-71313097D01*
X93520395Y-70500000D01*
X93506253Y-70485858D01*
X93685858Y-70306253D01*
X93700000Y-70320395D01*
X93714143Y-70306253D01*
X93893748Y-70485858D01*
X93879605Y-70500000D01*
X94692702Y-71313097D01*
X94936671Y-71241514D01*
X95057571Y-70986004D01*
X95126300Y-70711816D01*
X95140217Y-70429488D01*
X95098787Y-70149870D01*
X95003603Y-69883708D01*
X94938384Y-69761691D01*
X94951185Y-69751185D01*
X95030537Y-69654494D01*
X95089502Y-69544180D01*
X95125812Y-69424482D01*
X95138072Y-69300000D01*
X95138072Y-67700000D01*
X95125812Y-67575518D01*
X95089502Y-67455820D01*
X95030537Y-67345506D01*
X94951185Y-67248815D01*
X94854494Y-67169463D01*
X94744180Y-67110498D01*
X94624482Y-67074188D01*
X94500000Y-67061928D01*
X92900000Y-67061928D01*
X92775518Y-67074188D01*
X92655820Y-67110498D01*
X92545506Y-67169463D01*
X92448815Y-67248815D01*
X92369463Y-67345506D01*
X92310498Y-67455820D01*
X92274188Y-67575518D01*
X92261928Y-67700000D01*
X92261928Y-69300000D01*
X92274188Y-69424482D01*
X92310498Y-69544180D01*
X92369463Y-69654494D01*
X92448815Y-69751185D01*
X92461758Y-69761807D01*
X92342429Y-70013996D01*
X92273700Y-70288184D01*
X92259783Y-70570512D01*
X87328336Y-70570512D01*
X87340217Y-70329488D01*
X87298787Y-70049870D01*
X87203603Y-69783708D01*
X87138384Y-69661691D01*
X87151185Y-69651185D01*
X87230537Y-69554494D01*
X87289502Y-69444180D01*
X87325812Y-69324482D01*
X87338072Y-69200000D01*
X87338072Y-67600000D01*
X87325812Y-67475518D01*
X87289502Y-67355820D01*
X87230537Y-67245506D01*
X87151185Y-67148815D01*
X87054494Y-67069463D01*
X86944180Y-67010498D01*
X86824482Y-66974188D01*
X86700000Y-66961928D01*
X85100000Y-66961928D01*
X84975518Y-66974188D01*
X84855820Y-67010498D01*
X84745506Y-67069463D01*
X84648815Y-67148815D01*
X84569463Y-67245506D01*
X84510498Y-67355820D01*
X84474188Y-67475518D01*
X84461928Y-67600000D01*
X84461928Y-69200000D01*
X84474188Y-69324482D01*
X84510498Y-69444180D01*
X84569463Y-69554494D01*
X84648815Y-69651185D01*
X84661758Y-69661807D01*
X84542429Y-69913996D01*
X84473700Y-70188184D01*
X84459783Y-70470512D01*
X52660000Y-70470512D01*
X52660000Y-62200000D01*
X66161928Y-62200000D01*
X66161928Y-64400000D01*
X66174188Y-64524482D01*
X66210498Y-64644180D01*
X66269463Y-64754494D01*
X66348815Y-64851185D01*
X66445506Y-64930537D01*
X66555820Y-64989502D01*
X66675518Y-65025812D01*
X66800000Y-65038072D01*
X69000000Y-65038072D01*
X69124482Y-65025812D01*
X69244180Y-64989502D01*
X69354494Y-64930537D01*
X69451185Y-64851185D01*
X69530537Y-64754494D01*
X69589502Y-64644180D01*
X69625812Y-64524482D01*
X69638072Y-64400000D01*
X69638072Y-63696122D01*
X76370825Y-63696122D01*
X76435425Y-63909094D01*
X76585469Y-64214329D01*
X76792178Y-64484427D01*
X77047609Y-64709008D01*
X77341946Y-64879442D01*
X77663877Y-64989179D01*
X77933000Y-64871600D01*
X77933000Y-63427000D01*
X78187000Y-63427000D01*
X78187000Y-64871600D01*
X78456123Y-64989179D01*
X78778054Y-64879442D01*
X79072391Y-64709008D01*
X79327822Y-64484427D01*
X79534531Y-64214329D01*
X79684575Y-63909094D01*
X79749175Y-63696122D01*
X79631125Y-63427000D01*
X78187000Y-63427000D01*
X77933000Y-63427000D01*
X76488875Y-63427000D01*
X76370825Y-63696122D01*
X69638072Y-63696122D01*
X69638072Y-62903878D01*
X76370825Y-62903878D01*
X76488875Y-63173000D01*
X77933000Y-63173000D01*
X77933000Y-61728400D01*
X78187000Y-61728400D01*
X78187000Y-63173000D01*
X79631125Y-63173000D01*
X79749175Y-62903878D01*
X79684575Y-62690906D01*
X79534531Y-62385671D01*
X79327822Y-62115573D01*
X79072391Y-61890992D01*
X78778054Y-61720558D01*
X78456123Y-61610821D01*
X78187000Y-61728400D01*
X77933000Y-61728400D01*
X77663877Y-61610821D01*
X77341946Y-61720558D01*
X77047609Y-61890992D01*
X76792178Y-62115573D01*
X76585469Y-62385671D01*
X76435425Y-62690906D01*
X76370825Y-62903878D01*
X69638072Y-62903878D01*
X69638072Y-62200000D01*
X69625812Y-62075518D01*
X69589502Y-61955820D01*
X69530537Y-61845506D01*
X69451185Y-61748815D01*
X69354494Y-61669463D01*
X69244180Y-61610498D01*
X69124482Y-61574188D01*
X69000000Y-61561928D01*
X66800000Y-61561928D01*
X66675518Y-61574188D01*
X66555820Y-61610498D01*
X66445506Y-61669463D01*
X66348815Y-61748815D01*
X66269463Y-61845506D01*
X66210498Y-61955820D01*
X66174188Y-62075518D01*
X66161928Y-62200000D01*
X52660000Y-62200000D01*
X52660000Y-59863605D01*
X58016000Y-59863605D01*
X58141914Y-60153577D01*
X58474126Y-60319433D01*
X58832312Y-60417290D01*
X59202706Y-60443389D01*
X59571075Y-60396725D01*
X59923262Y-60279094D01*
X60158086Y-60153577D01*
X60284000Y-59863605D01*
X59150000Y-58729605D01*
X58016000Y-59863605D01*
X52660000Y-59863605D01*
X52660000Y-58602706D01*
X57256611Y-58602706D01*
X57303275Y-58971075D01*
X57420906Y-59323262D01*
X57546423Y-59558086D01*
X57836395Y-59684000D01*
X58970395Y-58550000D01*
X59329605Y-58550000D01*
X60463605Y-59684000D01*
X60753577Y-59558086D01*
X60919433Y-59225874D01*
X61017290Y-58867688D01*
X61043389Y-58497294D01*
X60996725Y-58128925D01*
X60879094Y-57776738D01*
X60753577Y-57541914D01*
X60605183Y-57477477D01*
X67456000Y-57477477D01*
X67456000Y-57722523D01*
X67503806Y-57962861D01*
X67597582Y-58189255D01*
X67733722Y-58393004D01*
X67906996Y-58566278D01*
X68110745Y-58702418D01*
X68337139Y-58796194D01*
X68577477Y-58844000D01*
X68822523Y-58844000D01*
X69062861Y-58796194D01*
X69289255Y-58702418D01*
X69493004Y-58566278D01*
X69666278Y-58393004D01*
X69802418Y-58189255D01*
X69896194Y-57962861D01*
X69944000Y-57722523D01*
X69944000Y-57477477D01*
X72506000Y-57477477D01*
X72506000Y-57722523D01*
X72553806Y-57962861D01*
X72647582Y-58189255D01*
X72783722Y-58393004D01*
X72956996Y-58566278D01*
X73160745Y-58702418D01*
X73387139Y-58796194D01*
X73627477Y-58844000D01*
X73872523Y-58844000D01*
X74112861Y-58796194D01*
X74339255Y-58702418D01*
X74543004Y-58566278D01*
X74716278Y-58393004D01*
X74852418Y-58189255D01*
X74946194Y-57962861D01*
X74994000Y-57722523D01*
X74994000Y-57477477D01*
X74946194Y-57237139D01*
X74852418Y-57010745D01*
X74716278Y-56806996D01*
X74543004Y-56633722D01*
X74339255Y-56497582D01*
X74112861Y-56403806D01*
X73872523Y-56356000D01*
X73627477Y-56356000D01*
X73387139Y-56403806D01*
X73160745Y-56497582D01*
X72956996Y-56633722D01*
X72783722Y-56806996D01*
X72647582Y-57010745D01*
X72553806Y-57237139D01*
X72506000Y-57477477D01*
X69944000Y-57477477D01*
X69896194Y-57237139D01*
X69802418Y-57010745D01*
X69666278Y-56806996D01*
X69493004Y-56633722D01*
X69289255Y-56497582D01*
X69062861Y-56403806D01*
X68822523Y-56356000D01*
X68577477Y-56356000D01*
X68337139Y-56403806D01*
X68110745Y-56497582D01*
X67906996Y-56633722D01*
X67733722Y-56806996D01*
X67597582Y-57010745D01*
X67503806Y-57237139D01*
X67456000Y-57477477D01*
X60605183Y-57477477D01*
X60463605Y-57416000D01*
X59329605Y-58550000D01*
X58970395Y-58550000D01*
X57836395Y-57416000D01*
X57546423Y-57541914D01*
X57380567Y-57874126D01*
X57282710Y-58232312D01*
X57256611Y-58602706D01*
X52660000Y-58602706D01*
X52660000Y-57236395D01*
X58016000Y-57236395D01*
X59150000Y-58370395D01*
X60284000Y-57236395D01*
X60158086Y-56946423D01*
X59825874Y-56780567D01*
X59467688Y-56682710D01*
X59097294Y-56656611D01*
X58728925Y-56703275D01*
X58376738Y-56820906D01*
X58141914Y-56946423D01*
X58016000Y-57236395D01*
X52660000Y-57236395D01*
X52660000Y-52300000D01*
X57261928Y-52300000D01*
X57261928Y-54800000D01*
X57274188Y-54924482D01*
X57310498Y-55044180D01*
X57369463Y-55154494D01*
X57448815Y-55251185D01*
X57545506Y-55330537D01*
X57655820Y-55389502D01*
X57775518Y-55425812D01*
X57900000Y-55438072D01*
X60400000Y-55438072D01*
X60524482Y-55425812D01*
X60644180Y-55389502D01*
X60754494Y-55330537D01*
X60851185Y-55251185D01*
X60930537Y-55154494D01*
X60989502Y-55044180D01*
X61025812Y-54924482D01*
X61038072Y-54800000D01*
X61038072Y-52300000D01*
X61025812Y-52175518D01*
X60989502Y-52055820D01*
X60930537Y-51945506D01*
X60851185Y-51848815D01*
X60754494Y-51769463D01*
X60644180Y-51710498D01*
X60524482Y-51674188D01*
X60400000Y-51661928D01*
X57900000Y-51661928D01*
X57775518Y-51674188D01*
X57655820Y-51710498D01*
X57545506Y-51769463D01*
X57448815Y-51848815D01*
X57369463Y-51945506D01*
X57310498Y-52055820D01*
X57274188Y-52175518D01*
X57261928Y-52300000D01*
X52660000Y-52300000D01*
X52660000Y-47300000D01*
X66011928Y-47300000D01*
X66011928Y-49000000D01*
X66024188Y-49124482D01*
X66060498Y-49244180D01*
X66119463Y-49354494D01*
X66198815Y-49451185D01*
X66295506Y-49530537D01*
X66405820Y-49589502D01*
X66525518Y-49625812D01*
X66650000Y-49638072D01*
X68350000Y-49638072D01*
X68474482Y-49625812D01*
X68594180Y-49589502D01*
X68704494Y-49530537D01*
X68801185Y-49451185D01*
X68880537Y-49354494D01*
X68939502Y-49244180D01*
X68960393Y-49175313D01*
X68984866Y-49205134D01*
X69210986Y-49390706D01*
X69468966Y-49528599D01*
X69748889Y-49613513D01*
X69967050Y-49635000D01*
X70112950Y-49635000D01*
X70331111Y-49613513D01*
X70611034Y-49528599D01*
X70869014Y-49390706D01*
X71095134Y-49205134D01*
X71280706Y-48979014D01*
X71418599Y-48721034D01*
X71503513Y-48441111D01*
X71532185Y-48150000D01*
X71503513Y-47858889D01*
X71418599Y-47578966D01*
X71280706Y-47320986D01*
X71095134Y-47094866D01*
X70869014Y-46909294D01*
X70611034Y-46771401D01*
X70331111Y-46686487D01*
X70112950Y-46665000D01*
X69967050Y-46665000D01*
X69748889Y-46686487D01*
X69468966Y-46771401D01*
X69210986Y-46909294D01*
X68984866Y-47094866D01*
X68960393Y-47124687D01*
X68939502Y-47055820D01*
X68880537Y-46945506D01*
X68801185Y-46848815D01*
X68704494Y-46769463D01*
X68594180Y-46710498D01*
X68474482Y-46674188D01*
X68350000Y-46661928D01*
X66650000Y-46661928D01*
X66525518Y-46674188D01*
X66405820Y-46710498D01*
X66295506Y-46769463D01*
X66198815Y-46848815D01*
X66119463Y-46945506D01*
X66060498Y-47055820D01*
X66024188Y-47175518D01*
X66011928Y-47300000D01*
X52660000Y-47300000D01*
X52660000Y-44029872D01*
X54015000Y-44029872D01*
X54015000Y-44470128D01*
X54100890Y-44901925D01*
X54269369Y-45308669D01*
X54513962Y-45674729D01*
X54825271Y-45986038D01*
X55191331Y-46230631D01*
X55598075Y-46399110D01*
X56029872Y-46485000D01*
X56470128Y-46485000D01*
X56901925Y-46399110D01*
X57308669Y-46230631D01*
X57579002Y-46050000D01*
X76511928Y-46050000D01*
X76511928Y-48550000D01*
X76524188Y-48674482D01*
X76560498Y-48794180D01*
X76619463Y-48904494D01*
X76698815Y-49001185D01*
X76795506Y-49080537D01*
X76905820Y-49139502D01*
X77025518Y-49175812D01*
X77150000Y-49188072D01*
X79650000Y-49188072D01*
X79774482Y-49175812D01*
X79894180Y-49139502D01*
X80004494Y-49080537D01*
X80101185Y-49001185D01*
X80180537Y-48904494D01*
X80239502Y-48794180D01*
X80275812Y-48674482D01*
X80288072Y-48550000D01*
X80288072Y-47114344D01*
X81515000Y-47114344D01*
X81515000Y-47485656D01*
X81587439Y-47849834D01*
X81729534Y-48192882D01*
X81935825Y-48501618D01*
X82198382Y-48764175D01*
X82507118Y-48970466D01*
X82850166Y-49112561D01*
X83214344Y-49185000D01*
X83585656Y-49185000D01*
X83949834Y-49112561D01*
X84292882Y-48970466D01*
X84601618Y-48764175D01*
X84864175Y-48501618D01*
X85070466Y-48192882D01*
X85212561Y-47849834D01*
X85285000Y-47485656D01*
X85285000Y-47114344D01*
X85212561Y-46750166D01*
X85070466Y-46407118D01*
X84864175Y-46098382D01*
X84601618Y-45835825D01*
X84292882Y-45629534D01*
X83949834Y-45487439D01*
X83585656Y-45415000D01*
X83214344Y-45415000D01*
X82850166Y-45487439D01*
X82507118Y-45629534D01*
X82198382Y-45835825D01*
X81935825Y-46098382D01*
X81729534Y-46407118D01*
X81587439Y-46750166D01*
X81515000Y-47114344D01*
X80288072Y-47114344D01*
X80288072Y-46050000D01*
X80275812Y-45925518D01*
X80239502Y-45805820D01*
X80180537Y-45695506D01*
X80101185Y-45598815D01*
X80004494Y-45519463D01*
X79894180Y-45460498D01*
X79774482Y-45424188D01*
X79650000Y-45411928D01*
X77150000Y-45411928D01*
X77025518Y-45424188D01*
X76905820Y-45460498D01*
X76795506Y-45519463D01*
X76698815Y-45598815D01*
X76619463Y-45695506D01*
X76560498Y-45805820D01*
X76524188Y-45925518D01*
X76511928Y-46050000D01*
X57579002Y-46050000D01*
X57674729Y-45986038D01*
X57986038Y-45674729D01*
X58230631Y-45308669D01*
X58399110Y-44901925D01*
X58485000Y-44470128D01*
X58485000Y-44029872D01*
X58409439Y-43650000D01*
X66011928Y-43650000D01*
X66011928Y-45350000D01*
X66024188Y-45474482D01*
X66060498Y-45594180D01*
X66119463Y-45704494D01*
X66198815Y-45801185D01*
X66295506Y-45880537D01*
X66405820Y-45939502D01*
X66525518Y-45975812D01*
X66650000Y-45988072D01*
X68350000Y-45988072D01*
X68474482Y-45975812D01*
X68594180Y-45939502D01*
X68704494Y-45880537D01*
X68801185Y-45801185D01*
X68880537Y-45704494D01*
X68939502Y-45594180D01*
X68960393Y-45525313D01*
X68984866Y-45555134D01*
X69210986Y-45740706D01*
X69468966Y-45878599D01*
X69748889Y-45963513D01*
X69967050Y-45985000D01*
X70112950Y-45985000D01*
X70331111Y-45963513D01*
X70611034Y-45878599D01*
X70869014Y-45740706D01*
X71095134Y-45555134D01*
X71280706Y-45329014D01*
X71418599Y-45071034D01*
X71503513Y-44791111D01*
X71532185Y-44500000D01*
X71503513Y-44208889D01*
X71418599Y-43928966D01*
X71280706Y-43670986D01*
X71095134Y-43444866D01*
X70869014Y-43259294D01*
X70611034Y-43121401D01*
X70331111Y-43036487D01*
X70112950Y-43015000D01*
X69967050Y-43015000D01*
X69748889Y-43036487D01*
X69468966Y-43121401D01*
X69210986Y-43259294D01*
X68984866Y-43444866D01*
X68960393Y-43474687D01*
X68939502Y-43405820D01*
X68880537Y-43295506D01*
X68801185Y-43198815D01*
X68704494Y-43119463D01*
X68594180Y-43060498D01*
X68474482Y-43024188D01*
X68350000Y-43011928D01*
X66650000Y-43011928D01*
X66525518Y-43024188D01*
X66405820Y-43060498D01*
X66295506Y-43119463D01*
X66198815Y-43198815D01*
X66119463Y-43295506D01*
X66060498Y-43405820D01*
X66024188Y-43525518D01*
X66011928Y-43650000D01*
X58409439Y-43650000D01*
X58399110Y-43598075D01*
X58230631Y-43191331D01*
X57986038Y-42825271D01*
X57674729Y-42513962D01*
X57308669Y-42269369D01*
X56901925Y-42100890D01*
X56470128Y-42015000D01*
X56029872Y-42015000D01*
X55598075Y-42100890D01*
X55191331Y-42269369D01*
X54825271Y-42513962D01*
X54513962Y-42825271D01*
X54269369Y-43191331D01*
X54100890Y-43598075D01*
X54015000Y-44029872D01*
X52660000Y-44029872D01*
X52660000Y-40660000D01*
X98873000Y-40660000D01*
X98873000Y-81000000D01*
X98873000Y-81000000D01*
G37*
X98873000Y-81000000D02*
X98875440Y-81024776D01*
X98882667Y-81048601D01*
X98894403Y-81070557D01*
X98910197Y-81089803D01*
X98929443Y-81105597D01*
X98951399Y-81117333D01*
X98975224Y-81124560D01*
X99000000Y-81127000D01*
X106424947Y-81127000D01*
X106345506Y-81169463D01*
X106248815Y-81248815D01*
X106169463Y-81345506D01*
X106110498Y-81455820D01*
X106074188Y-81575518D01*
X106061928Y-81700000D01*
X106061928Y-83300000D01*
X106074188Y-83424482D01*
X106110498Y-83544180D01*
X106169463Y-83654494D01*
X106248815Y-83751185D01*
X106345506Y-83830537D01*
X106455820Y-83889502D01*
X106575518Y-83925812D01*
X106700000Y-83938072D01*
X108300000Y-83938072D01*
X108424482Y-83925812D01*
X108544180Y-83889502D01*
X108654494Y-83830537D01*
X108737563Y-83762364D01*
X109111202Y-84136004D01*
X109135000Y-84165002D01*
X109250725Y-84259975D01*
X109382754Y-84330547D01*
X109526015Y-84374004D01*
X109637668Y-84385001D01*
X109637676Y-84385001D01*
X109675001Y-84388677D01*
X109712326Y-84385001D01*
X119264675Y-84385001D01*
X119301997Y-84388677D01*
X119339319Y-84385001D01*
X119339330Y-84385001D01*
X119450983Y-84374004D01*
X119594244Y-84330547D01*
X119726273Y-84259975D01*
X119841998Y-84165002D01*
X119865801Y-84135999D01*
X120741800Y-83260000D01*
X125561928Y-83260000D01*
X125561928Y-83300000D01*
X125574188Y-83424482D01*
X125610498Y-83544180D01*
X125669463Y-83654494D01*
X125748815Y-83751185D01*
X125845506Y-83830537D01*
X125955820Y-83889502D01*
X126075518Y-83925812D01*
X126200000Y-83938072D01*
X127800000Y-83938072D01*
X127924482Y-83925812D01*
X128044180Y-83889502D01*
X128154494Y-83830537D01*
X128251185Y-83751185D01*
X128330537Y-83654494D01*
X128389502Y-83544180D01*
X128425812Y-83424482D01*
X128438072Y-83300000D01*
X128438072Y-83260000D01*
X132640197Y-83260000D01*
X133516200Y-84136004D01*
X133539998Y-84165002D01*
X133655723Y-84259975D01*
X133787752Y-84330547D01*
X133931013Y-84374004D01*
X134042666Y-84385001D01*
X134042674Y-84385001D01*
X134079999Y-84388677D01*
X134117324Y-84385001D01*
X138664675Y-84385001D01*
X138701997Y-84388677D01*
X138739319Y-84385001D01*
X138739330Y-84385001D01*
X138850983Y-84374004D01*
X138994244Y-84330547D01*
X139126273Y-84259975D01*
X139241998Y-84165002D01*
X139265801Y-84135999D01*
X140141800Y-83260000D01*
X145061928Y-83260000D01*
X145061928Y-83300000D01*
X145074188Y-83424482D01*
X145110498Y-83544180D01*
X145169463Y-83654494D01*
X145248815Y-83751185D01*
X145345506Y-83830537D01*
X145455820Y-83889502D01*
X145575518Y-83925812D01*
X145700000Y-83938072D01*
X147300000Y-83938072D01*
X147424482Y-83925812D01*
X147544180Y-83889502D01*
X147654494Y-83830537D01*
X147737563Y-83762364D01*
X148111202Y-84136004D01*
X148135000Y-84165002D01*
X148250725Y-84259975D01*
X148382754Y-84330547D01*
X148526015Y-84374004D01*
X148637668Y-84385001D01*
X148637676Y-84385001D01*
X148675001Y-84388677D01*
X148712326Y-84385001D01*
X159464675Y-84385001D01*
X159501997Y-84388677D01*
X159539319Y-84385001D01*
X159539330Y-84385001D01*
X159650983Y-84374004D01*
X159794244Y-84330547D01*
X159926273Y-84259975D01*
X160041998Y-84165002D01*
X160065801Y-84135999D01*
X160941800Y-83260000D01*
X164561928Y-83260000D01*
X164561928Y-83300000D01*
X164574188Y-83424482D01*
X164610498Y-83544180D01*
X164669463Y-83654494D01*
X164748815Y-83751185D01*
X164845506Y-83830537D01*
X164955820Y-83889502D01*
X165075518Y-83925812D01*
X165200000Y-83938072D01*
X166800000Y-83938072D01*
X166924482Y-83925812D01*
X167044180Y-83889502D01*
X167154494Y-83830537D01*
X167251185Y-83751185D01*
X167330537Y-83654494D01*
X167389502Y-83544180D01*
X167425812Y-83424482D01*
X167438072Y-83300000D01*
X167438072Y-81700000D01*
X167425812Y-81575518D01*
X167389502Y-81455820D01*
X167330537Y-81345506D01*
X167251185Y-81248815D01*
X167154494Y-81169463D01*
X167075053Y-81127000D01*
X173202753Y-81127000D01*
X173068192Y-81167818D01*
X172818899Y-81301068D01*
X172600392Y-81480392D01*
X172421068Y-81698899D01*
X172287818Y-81948192D01*
X172205764Y-82218691D01*
X172178057Y-82500000D01*
X172205764Y-82781309D01*
X172287818Y-83051808D01*
X172421068Y-83301101D01*
X172600392Y-83519608D01*
X172818899Y-83698932D01*
X173068192Y-83832182D01*
X173338691Y-83914236D01*
X173549508Y-83935000D01*
X173690492Y-83935000D01*
X173901309Y-83914236D01*
X174171808Y-83832182D01*
X174421101Y-83698932D01*
X174639608Y-83519608D01*
X174818932Y-83301101D01*
X174952182Y-83051808D01*
X175034236Y-82781309D01*
X175061943Y-82500000D01*
X175034236Y-82218691D01*
X174952182Y-81948192D01*
X174818932Y-81698899D01*
X174639608Y-81480392D01*
X174421101Y-81301068D01*
X174171808Y-81167818D01*
X174037247Y-81127000D01*
X186340001Y-81127000D01*
X186340000Y-139340000D01*
X52660000Y-139340000D01*
X52660000Y-135529872D01*
X54015000Y-135529872D01*
X54015000Y-135970128D01*
X54100890Y-136401925D01*
X54269369Y-136808669D01*
X54513962Y-137174729D01*
X54825271Y-137486038D01*
X55191331Y-137730631D01*
X55598075Y-137899110D01*
X56029872Y-137985000D01*
X56470128Y-137985000D01*
X56901925Y-137899110D01*
X57308669Y-137730631D01*
X57674729Y-137486038D01*
X57986038Y-137174729D01*
X58230631Y-136808669D01*
X58399110Y-136401925D01*
X58485000Y-135970128D01*
X58485000Y-135529872D01*
X58399110Y-135098075D01*
X58230631Y-134691331D01*
X57986038Y-134325271D01*
X57674729Y-134013962D01*
X57308669Y-133769369D01*
X56901925Y-133600890D01*
X56470128Y-133515000D01*
X56029872Y-133515000D01*
X55598075Y-133600890D01*
X55191331Y-133769369D01*
X54825271Y-134013962D01*
X54513962Y-134325271D01*
X54269369Y-134691331D01*
X54100890Y-135098075D01*
X54015000Y-135529872D01*
X52660000Y-135529872D01*
X52660000Y-98088677D01*
X53556365Y-98088677D01*
X53558504Y-98120715D01*
X53648364Y-98341644D01*
X53779598Y-98540797D01*
X53947163Y-98710521D01*
X54144620Y-98844294D01*
X54364381Y-98936974D01*
X54598000Y-98985000D01*
X54923000Y-98985000D01*
X54923000Y-97902000D01*
X55177000Y-97902000D01*
X55177000Y-98985000D01*
X55502000Y-98985000D01*
X55735619Y-98936974D01*
X55955380Y-98844294D01*
X56152837Y-98710521D01*
X56320402Y-98540797D01*
X56451636Y-98341644D01*
X56541496Y-98120715D01*
X56543635Y-98088677D01*
X56458927Y-97962258D01*
X57257481Y-97962258D01*
X57269922Y-98028117D01*
X57373643Y-98274979D01*
X57523531Y-98496863D01*
X57713827Y-98685242D01*
X57937217Y-98832876D01*
X58185117Y-98934092D01*
X58448000Y-98985000D01*
X58723000Y-98985000D01*
X58723000Y-97752000D01*
X58977000Y-97752000D01*
X58977000Y-98985000D01*
X59252000Y-98985000D01*
X59514883Y-98934092D01*
X59762783Y-98832876D01*
X59986173Y-98685242D01*
X60176469Y-98496863D01*
X60326357Y-98274979D01*
X60430078Y-98028117D01*
X60442519Y-97962258D01*
X60319518Y-97752000D01*
X58977000Y-97752000D01*
X58723000Y-97752000D01*
X57380482Y-97752000D01*
X57257481Y-97962258D01*
X56458927Y-97962258D01*
X56418550Y-97902000D01*
X55177000Y-97902000D01*
X54923000Y-97902000D01*
X53681450Y-97902000D01*
X53556365Y-98088677D01*
X52660000Y-98088677D01*
X52660000Y-97461323D01*
X53556365Y-97461323D01*
X53681450Y-97648000D01*
X54923000Y-97648000D01*
X54923000Y-96565000D01*
X55177000Y-96565000D01*
X55177000Y-97648000D01*
X56418550Y-97648000D01*
X56543635Y-97461323D01*
X56541496Y-97429285D01*
X56451636Y-97208356D01*
X56320402Y-97009203D01*
X56152837Y-96839479D01*
X55955380Y-96705706D01*
X55735619Y-96613026D01*
X55502000Y-96565000D01*
X55177000Y-96565000D01*
X54923000Y-96565000D01*
X54598000Y-96565000D01*
X54364381Y-96613026D01*
X54144620Y-96705706D01*
X53947163Y-96839479D01*
X53779598Y-97009203D01*
X53648364Y-97208356D01*
X53558504Y-97429285D01*
X53556365Y-97461323D01*
X52660000Y-97461323D01*
X52660000Y-96400000D01*
X56759993Y-96400000D01*
X56779976Y-96602895D01*
X56839159Y-96797993D01*
X56935266Y-96977797D01*
X57064604Y-97135396D01*
X57222203Y-97264734D01*
X57258193Y-97283971D01*
X57257481Y-97287742D01*
X57380482Y-97498000D01*
X58723000Y-97498000D01*
X58723000Y-96868789D01*
X58760841Y-96797993D01*
X58820024Y-96602895D01*
X58840007Y-96400000D01*
X58826711Y-96265000D01*
X58977000Y-96265000D01*
X58977000Y-97498000D01*
X60319518Y-97498000D01*
X60442519Y-97287742D01*
X60430078Y-97221883D01*
X60326357Y-96975021D01*
X60176469Y-96753137D01*
X59986173Y-96564758D01*
X59762783Y-96417124D01*
X59514883Y-96315908D01*
X59252000Y-96265000D01*
X58977000Y-96265000D01*
X58826711Y-96265000D01*
X58820024Y-96197105D01*
X58760841Y-96002007D01*
X58664734Y-95822203D01*
X58535396Y-95664604D01*
X58377797Y-95535266D01*
X58197993Y-95439159D01*
X58002895Y-95379976D01*
X57850838Y-95365000D01*
X57749162Y-95365000D01*
X57597105Y-95379976D01*
X57402007Y-95439159D01*
X57222203Y-95535266D01*
X57064604Y-95664604D01*
X56935266Y-95822203D01*
X56839159Y-96002007D01*
X56779976Y-96197105D01*
X56759993Y-96400000D01*
X52660000Y-96400000D01*
X52660000Y-92485967D01*
X58970396Y-92485967D01*
X58970396Y-92689845D01*
X59010170Y-92889804D01*
X59088191Y-93078162D01*
X59201459Y-93247680D01*
X59245396Y-93291617D01*
X59245397Y-95024062D01*
X59241720Y-95061394D01*
X59256394Y-95210379D01*
X59299850Y-95353640D01*
X59370422Y-95485670D01*
X59401345Y-95523349D01*
X59465396Y-95601395D01*
X59494394Y-95625193D01*
X61270636Y-97401436D01*
X61294434Y-97430434D01*
X61410159Y-97525407D01*
X61542188Y-97595979D01*
X61685449Y-97639436D01*
X61797102Y-97650433D01*
X61797110Y-97650433D01*
X61834435Y-97654109D01*
X61871760Y-97650433D01*
X63283670Y-97650433D01*
X63327607Y-97694370D01*
X63497125Y-97807638D01*
X63685483Y-97885659D01*
X63885442Y-97925433D01*
X64089320Y-97925433D01*
X64289279Y-97885659D01*
X64477637Y-97807638D01*
X64647155Y-97694370D01*
X64791318Y-97550207D01*
X64840000Y-97477348D01*
X64840001Y-105896288D01*
X64796063Y-105940226D01*
X64682795Y-106109744D01*
X64604774Y-106298102D01*
X64565000Y-106498061D01*
X64565000Y-106701939D01*
X64604774Y-106901898D01*
X64682795Y-107090256D01*
X64796063Y-107259774D01*
X64940226Y-107403937D01*
X65109744Y-107517205D01*
X65298102Y-107595226D01*
X65498061Y-107635000D01*
X65701939Y-107635000D01*
X65901898Y-107595226D01*
X66090256Y-107517205D01*
X66200000Y-107443877D01*
X66309744Y-107517205D01*
X66498102Y-107595226D01*
X66698061Y-107635000D01*
X66901939Y-107635000D01*
X67101898Y-107595226D01*
X67290256Y-107517205D01*
X67459774Y-107403937D01*
X67603937Y-107259774D01*
X67717205Y-107090256D01*
X67795226Y-106901898D01*
X67835000Y-106701939D01*
X67835000Y-106639802D01*
X67856001Y-106618800D01*
X67884999Y-106595003D01*
X67979972Y-106479278D01*
X68050544Y-106347249D01*
X68094001Y-106203988D01*
X68104998Y-106092335D01*
X68104998Y-106092334D01*
X68108675Y-106055002D01*
X68104998Y-106017669D01*
X68104998Y-96763184D01*
X68137323Y-96760000D01*
X70492462Y-96760000D01*
X70465000Y-96898061D01*
X70465000Y-97101939D01*
X70504774Y-97301898D01*
X70582795Y-97490256D01*
X70696063Y-97659774D01*
X70740001Y-97703712D01*
X70740001Y-101765199D01*
X70460000Y-101485199D01*
X70460000Y-100303711D01*
X70503937Y-100259774D01*
X70617205Y-100090256D01*
X70695226Y-99901898D01*
X70735000Y-99701939D01*
X70735000Y-99498061D01*
X70695226Y-99298102D01*
X70617205Y-99109744D01*
X70503937Y-98940226D01*
X70359774Y-98796063D01*
X70190256Y-98682795D01*
X70001898Y-98604774D01*
X69801939Y-98565000D01*
X69598061Y-98565000D01*
X69398102Y-98604774D01*
X69209744Y-98682795D01*
X69040226Y-98796063D01*
X68896063Y-98940226D01*
X68782795Y-99109744D01*
X68704774Y-99298102D01*
X68665000Y-99498061D01*
X68665000Y-99701939D01*
X68704774Y-99901898D01*
X68782795Y-100090256D01*
X68896063Y-100259774D01*
X68940000Y-100303711D01*
X68940001Y-101762668D01*
X68936324Y-101800000D01*
X68940001Y-101837333D01*
X68950998Y-101948986D01*
X68954339Y-101959999D01*
X68994454Y-102092246D01*
X69065026Y-102224276D01*
X69136201Y-102311002D01*
X69160000Y-102340001D01*
X69188998Y-102363799D01*
X69740000Y-102914802D01*
X69740000Y-103001939D01*
X69779774Y-103201898D01*
X69857795Y-103390256D01*
X69971063Y-103559774D01*
X70115226Y-103703937D01*
X70284744Y-103817205D01*
X70473102Y-103895226D01*
X70673061Y-103935000D01*
X70740000Y-103935000D01*
X70740000Y-106285198D01*
X64189003Y-112836196D01*
X64159999Y-112859999D01*
X64104871Y-112927174D01*
X64065026Y-112975724D01*
X64023878Y-113052706D01*
X63994454Y-113107754D01*
X63950997Y-113251015D01*
X63940000Y-113362668D01*
X63940000Y-113362678D01*
X63936324Y-113400000D01*
X63940000Y-113437322D01*
X63940001Y-122696288D01*
X63896063Y-122740226D01*
X63863605Y-122788804D01*
X63760000Y-122685199D01*
X63760000Y-102923451D01*
X63901898Y-102895226D01*
X64090256Y-102817205D01*
X64259774Y-102703937D01*
X64403937Y-102559774D01*
X64517205Y-102390256D01*
X64595226Y-102201898D01*
X64635000Y-102001939D01*
X64635000Y-101798061D01*
X64595226Y-101598102D01*
X64517205Y-101409744D01*
X64403937Y-101240226D01*
X64259774Y-101096063D01*
X64090256Y-100982795D01*
X63901898Y-100904774D01*
X63701939Y-100865000D01*
X63498061Y-100865000D01*
X63298102Y-100904774D01*
X63109744Y-100982795D01*
X62940226Y-101096063D01*
X62796063Y-101240226D01*
X62682795Y-101409744D01*
X62604774Y-101598102D01*
X62565000Y-101798061D01*
X62565000Y-101860199D01*
X62489002Y-101936197D01*
X62459999Y-101959999D01*
X62425580Y-102001939D01*
X62365026Y-102075724D01*
X62324791Y-102150998D01*
X62294454Y-102207754D01*
X62250997Y-102351015D01*
X62240000Y-102462668D01*
X62240000Y-102462678D01*
X62236324Y-102500000D01*
X62240000Y-102537322D01*
X62240001Y-122962667D01*
X62236324Y-123000000D01*
X62240001Y-123037333D01*
X62246720Y-123105546D01*
X62250998Y-123148985D01*
X62294454Y-123292246D01*
X62365026Y-123424276D01*
X62428763Y-123501939D01*
X62460000Y-123540001D01*
X62488998Y-123563799D01*
X64740000Y-125814802D01*
X64740000Y-126292462D01*
X64601939Y-126265000D01*
X64398061Y-126265000D01*
X64198102Y-126304774D01*
X64009744Y-126382795D01*
X63840226Y-126496063D01*
X63696063Y-126640226D01*
X63582795Y-126809744D01*
X63504774Y-126998102D01*
X63465000Y-127198061D01*
X63465000Y-127275774D01*
X63418014Y-127363677D01*
X63394455Y-127407753D01*
X63350998Y-127551014D01*
X63340001Y-127662667D01*
X63340001Y-127662677D01*
X63336325Y-127699999D01*
X63340001Y-127737321D01*
X63340002Y-137562669D01*
X63336325Y-137600001D01*
X63350999Y-137748986D01*
X63394455Y-137892247D01*
X63465027Y-138024277D01*
X63528004Y-138101014D01*
X63560001Y-138140002D01*
X63588998Y-138163799D01*
X64186205Y-138761008D01*
X64209999Y-138790001D01*
X64238992Y-138813795D01*
X64238996Y-138813799D01*
X64309685Y-138871811D01*
X64325724Y-138884974D01*
X64457753Y-138955546D01*
X64601014Y-138999003D01*
X64712667Y-139010000D01*
X64712676Y-139010000D01*
X64749999Y-139013676D01*
X64787322Y-139010000D01*
X111512678Y-139010000D01*
X111550000Y-139013676D01*
X111587322Y-139010000D01*
X111587333Y-139010000D01*
X111698986Y-138999003D01*
X111842247Y-138955546D01*
X111974276Y-138884974D01*
X112090001Y-138790001D01*
X112113803Y-138760998D01*
X112911004Y-137963798D01*
X112940001Y-137940001D01*
X113034974Y-137824276D01*
X113105546Y-137692247D01*
X113149003Y-137548986D01*
X113160000Y-137437333D01*
X113160000Y-137437332D01*
X113163677Y-137400000D01*
X113160000Y-137362667D01*
X113160000Y-136635413D01*
X122044192Y-136635413D01*
X122139956Y-136899814D01*
X122429571Y-137040704D01*
X122741108Y-137122384D01*
X123062595Y-137141718D01*
X123381675Y-137097961D01*
X123686088Y-136992795D01*
X123860044Y-136899814D01*
X123955808Y-136635413D01*
X128544192Y-136635413D01*
X128639956Y-136899814D01*
X128929571Y-137040704D01*
X129241108Y-137122384D01*
X129562595Y-137141718D01*
X129881675Y-137097961D01*
X130186088Y-136992795D01*
X130360044Y-136899814D01*
X130455808Y-136635413D01*
X129500000Y-135679605D01*
X128544192Y-136635413D01*
X123955808Y-136635413D01*
X123000000Y-135679605D01*
X122044192Y-136635413D01*
X113160000Y-136635413D01*
X113160000Y-135435413D01*
X115044192Y-135435413D01*
X115139956Y-135699814D01*
X115429571Y-135840704D01*
X115741108Y-135922384D01*
X116062595Y-135941718D01*
X116381675Y-135897961D01*
X116686088Y-135792795D01*
X116860044Y-135699814D01*
X116909743Y-135562595D01*
X121358282Y-135562595D01*
X121402039Y-135881675D01*
X121507205Y-136186088D01*
X121600186Y-136360044D01*
X121864587Y-136455808D01*
X122820395Y-135500000D01*
X123179605Y-135500000D01*
X124135413Y-136455808D01*
X124399814Y-136360044D01*
X124540704Y-136070429D01*
X124622384Y-135758892D01*
X124634189Y-135562595D01*
X127858282Y-135562595D01*
X127902039Y-135881675D01*
X128007205Y-136186088D01*
X128100186Y-136360044D01*
X128364587Y-136455808D01*
X129320395Y-135500000D01*
X129679605Y-135500000D01*
X130635413Y-136455808D01*
X130899814Y-136360044D01*
X131040704Y-136070429D01*
X131122384Y-135758892D01*
X131136157Y-135529872D01*
X180515000Y-135529872D01*
X180515000Y-135970128D01*
X180600890Y-136401925D01*
X180769369Y-136808669D01*
X181013962Y-137174729D01*
X181325271Y-137486038D01*
X181691331Y-137730631D01*
X182098075Y-137899110D01*
X182529872Y-137985000D01*
X182970128Y-137985000D01*
X183401925Y-137899110D01*
X183808669Y-137730631D01*
X184174729Y-137486038D01*
X184486038Y-137174729D01*
X184730631Y-136808669D01*
X184899110Y-136401925D01*
X184985000Y-135970128D01*
X184985000Y-135529872D01*
X184899110Y-135098075D01*
X184730631Y-134691331D01*
X184486038Y-134325271D01*
X184174729Y-134013962D01*
X183808669Y-133769369D01*
X183401925Y-133600890D01*
X182970128Y-133515000D01*
X182529872Y-133515000D01*
X182098075Y-133600890D01*
X181691331Y-133769369D01*
X181325271Y-134013962D01*
X181013962Y-134325271D01*
X180769369Y-134691331D01*
X180600890Y-135098075D01*
X180515000Y-135529872D01*
X131136157Y-135529872D01*
X131141718Y-135437405D01*
X131097961Y-135118325D01*
X130992795Y-134813912D01*
X130899814Y-134639956D01*
X130635413Y-134544192D01*
X129679605Y-135500000D01*
X129320395Y-135500000D01*
X128364587Y-134544192D01*
X128100186Y-134639956D01*
X127959296Y-134929571D01*
X127877616Y-135241108D01*
X127858282Y-135562595D01*
X124634189Y-135562595D01*
X124641718Y-135437405D01*
X124597961Y-135118325D01*
X124492795Y-134813912D01*
X124399814Y-134639956D01*
X124135413Y-134544192D01*
X123179605Y-135500000D01*
X122820395Y-135500000D01*
X121864587Y-134544192D01*
X121600186Y-134639956D01*
X121459296Y-134929571D01*
X121377616Y-135241108D01*
X121358282Y-135562595D01*
X116909743Y-135562595D01*
X116955808Y-135435413D01*
X116000000Y-134479605D01*
X115044192Y-135435413D01*
X113160000Y-135435413D01*
X113160000Y-134362595D01*
X114358282Y-134362595D01*
X114402039Y-134681675D01*
X114507205Y-134986088D01*
X114600186Y-135160044D01*
X114864587Y-135255808D01*
X115820395Y-134300000D01*
X116179605Y-134300000D01*
X117135413Y-135255808D01*
X117399814Y-135160044D01*
X117540704Y-134870429D01*
X117622384Y-134558892D01*
X117634069Y-134364587D01*
X122044192Y-134364587D01*
X123000000Y-135320395D01*
X123955808Y-134364587D01*
X128544192Y-134364587D01*
X129500000Y-135320395D01*
X130455808Y-134364587D01*
X130360044Y-134100186D01*
X130070429Y-133959296D01*
X129758892Y-133877616D01*
X129437405Y-133858282D01*
X129118325Y-133902039D01*
X128813912Y-134007205D01*
X128639956Y-134100186D01*
X128544192Y-134364587D01*
X123955808Y-134364587D01*
X123860044Y-134100186D01*
X123570429Y-133959296D01*
X123258892Y-133877616D01*
X122937405Y-133858282D01*
X122618325Y-133902039D01*
X122313912Y-134007205D01*
X122139956Y-134100186D01*
X122044192Y-134364587D01*
X117634069Y-134364587D01*
X117641718Y-134237405D01*
X117597961Y-133918325D01*
X117492795Y-133613912D01*
X117399814Y-133439956D01*
X117135413Y-133344192D01*
X116179605Y-134300000D01*
X115820395Y-134300000D01*
X114864587Y-133344192D01*
X114600186Y-133439956D01*
X114459296Y-133729571D01*
X114377616Y-134041108D01*
X114358282Y-134362595D01*
X113160000Y-134362595D01*
X113160000Y-133164587D01*
X115044192Y-133164587D01*
X116000000Y-134120395D01*
X116955808Y-133164587D01*
X116860044Y-132900186D01*
X116570429Y-132759296D01*
X116258892Y-132677616D01*
X115937405Y-132658282D01*
X115618325Y-132702039D01*
X115313912Y-132807205D01*
X115139956Y-132900186D01*
X115044192Y-133164587D01*
X113160000Y-133164587D01*
X113160000Y-129638967D01*
X114365000Y-129638967D01*
X114365000Y-129961033D01*
X114427832Y-130276912D01*
X114551082Y-130574463D01*
X114730013Y-130842252D01*
X114957748Y-131069987D01*
X115225537Y-131248918D01*
X115523088Y-131372168D01*
X115838967Y-131435000D01*
X116161033Y-131435000D01*
X116476912Y-131372168D01*
X116774463Y-131248918D01*
X117042252Y-131069987D01*
X117269987Y-130842252D01*
X117272181Y-130838967D01*
X121365000Y-130838967D01*
X121365000Y-131161033D01*
X121427832Y-131476912D01*
X121551082Y-131774463D01*
X121730013Y-132042252D01*
X121957748Y-132269987D01*
X122225537Y-132448918D01*
X122523088Y-132572168D01*
X122838967Y-132635000D01*
X123161033Y-132635000D01*
X123476912Y-132572168D01*
X123774463Y-132448918D01*
X124042252Y-132269987D01*
X124269987Y-132042252D01*
X124448918Y-131774463D01*
X124572168Y-131476912D01*
X124635000Y-131161033D01*
X124635000Y-130838967D01*
X127865000Y-130838967D01*
X127865000Y-131161033D01*
X127927832Y-131476912D01*
X128051082Y-131774463D01*
X128230013Y-132042252D01*
X128457748Y-132269987D01*
X128725537Y-132448918D01*
X129023088Y-132572168D01*
X129338967Y-132635000D01*
X129661033Y-132635000D01*
X129976912Y-132572168D01*
X130274463Y-132448918D01*
X130542252Y-132269987D01*
X130769987Y-132042252D01*
X130948918Y-131774463D01*
X131072168Y-131476912D01*
X131135000Y-131161033D01*
X131135000Y-130838967D01*
X131072168Y-130523088D01*
X130948918Y-130225537D01*
X130769987Y-129957748D01*
X130542252Y-129730013D01*
X130274463Y-129551082D01*
X129976912Y-129427832D01*
X129661033Y-129365000D01*
X129338967Y-129365000D01*
X129023088Y-129427832D01*
X128725537Y-129551082D01*
X128457748Y-129730013D01*
X128230013Y-129957748D01*
X128051082Y-130225537D01*
X127927832Y-130523088D01*
X127865000Y-130838967D01*
X124635000Y-130838967D01*
X124572168Y-130523088D01*
X124448918Y-130225537D01*
X124269987Y-129957748D01*
X124042252Y-129730013D01*
X123774463Y-129551082D01*
X123476912Y-129427832D01*
X123161033Y-129365000D01*
X122838967Y-129365000D01*
X122523088Y-129427832D01*
X122225537Y-129551082D01*
X121957748Y-129730013D01*
X121730013Y-129957748D01*
X121551082Y-130225537D01*
X121427832Y-130523088D01*
X121365000Y-130838967D01*
X117272181Y-130838967D01*
X117448918Y-130574463D01*
X117572168Y-130276912D01*
X117635000Y-129961033D01*
X117635000Y-129638967D01*
X117572168Y-129323088D01*
X117448918Y-129025537D01*
X117269987Y-128757748D01*
X117042252Y-128530013D01*
X116774463Y-128351082D01*
X116476912Y-128227832D01*
X116161033Y-128165000D01*
X115838967Y-128165000D01*
X115523088Y-128227832D01*
X115225537Y-128351082D01*
X114957748Y-128530013D01*
X114730013Y-128757748D01*
X114551082Y-129025537D01*
X114427832Y-129323088D01*
X114365000Y-129638967D01*
X113160000Y-129638967D01*
X113160000Y-128153711D01*
X113253937Y-128059774D01*
X113367205Y-127890256D01*
X113445226Y-127701898D01*
X113485000Y-127501939D01*
X113485000Y-127398061D01*
X165465000Y-127398061D01*
X165465000Y-127601939D01*
X165504774Y-127801898D01*
X165582795Y-127990256D01*
X165696063Y-128159774D01*
X165840226Y-128303937D01*
X166009744Y-128417205D01*
X166198102Y-128495226D01*
X166398061Y-128535000D01*
X166601939Y-128535000D01*
X166801898Y-128495226D01*
X166990256Y-128417205D01*
X167159774Y-128303937D01*
X167203711Y-128260000D01*
X167812680Y-128260000D01*
X167850002Y-128263676D01*
X167887324Y-128260000D01*
X167887335Y-128260000D01*
X167998988Y-128249003D01*
X168142249Y-128205546D01*
X168274278Y-128134974D01*
X168390003Y-128040001D01*
X168413805Y-128010998D01*
X168674803Y-127750000D01*
X178111928Y-127750000D01*
X178111928Y-130250000D01*
X178124188Y-130374482D01*
X178160498Y-130494180D01*
X178219463Y-130604494D01*
X178298815Y-130701185D01*
X178395506Y-130780537D01*
X178505820Y-130839502D01*
X178625518Y-130875812D01*
X178750000Y-130888072D01*
X181250000Y-130888072D01*
X181374482Y-130875812D01*
X181494180Y-130839502D01*
X181604494Y-130780537D01*
X181701185Y-130701185D01*
X181780537Y-130604494D01*
X181839502Y-130494180D01*
X181875812Y-130374482D01*
X181888072Y-130250000D01*
X181888072Y-127750000D01*
X181875812Y-127625518D01*
X181839502Y-127505820D01*
X181780537Y-127395506D01*
X181701185Y-127298815D01*
X181604494Y-127219463D01*
X181494180Y-127160498D01*
X181374482Y-127124188D01*
X181250000Y-127111928D01*
X178750000Y-127111928D01*
X178625518Y-127124188D01*
X178505820Y-127160498D01*
X178395506Y-127219463D01*
X178298815Y-127298815D01*
X178219463Y-127395506D01*
X178160498Y-127505820D01*
X178124188Y-127625518D01*
X178111928Y-127750000D01*
X168674803Y-127750000D01*
X168789803Y-127635000D01*
X168851941Y-127635000D01*
X169051900Y-127595226D01*
X169240258Y-127517205D01*
X169409776Y-127403937D01*
X169553939Y-127259774D01*
X169667207Y-127090256D01*
X169745228Y-126901898D01*
X169785002Y-126701939D01*
X169785002Y-126498061D01*
X169745228Y-126298102D01*
X169667207Y-126109744D01*
X169553939Y-125940226D01*
X169409776Y-125796063D01*
X169240258Y-125682795D01*
X169160000Y-125649551D01*
X169160000Y-125313605D01*
X178866000Y-125313605D01*
X178991914Y-125603577D01*
X179324126Y-125769433D01*
X179682312Y-125867290D01*
X180052706Y-125893389D01*
X180421075Y-125846725D01*
X180773262Y-125729094D01*
X181008086Y-125603577D01*
X181134000Y-125313605D01*
X180000000Y-124179605D01*
X178866000Y-125313605D01*
X169160000Y-125313605D01*
X169160000Y-124052706D01*
X178106611Y-124052706D01*
X178153275Y-124421075D01*
X178270906Y-124773262D01*
X178396423Y-125008086D01*
X178686395Y-125134000D01*
X179820395Y-124000000D01*
X180179605Y-124000000D01*
X181313605Y-125134000D01*
X181603577Y-125008086D01*
X181769433Y-124675874D01*
X181867290Y-124317688D01*
X181893389Y-123947294D01*
X181846725Y-123578925D01*
X181729094Y-123226738D01*
X181603577Y-122991914D01*
X181313605Y-122866000D01*
X180179605Y-124000000D01*
X179820395Y-124000000D01*
X178686395Y-122866000D01*
X178396423Y-122991914D01*
X178230567Y-123324126D01*
X178132710Y-123682312D01*
X178106611Y-124052706D01*
X169160000Y-124052706D01*
X169160000Y-122686395D01*
X178866000Y-122686395D01*
X180000000Y-123820395D01*
X181134000Y-122686395D01*
X181008086Y-122396423D01*
X180675874Y-122230567D01*
X180317688Y-122132710D01*
X179947294Y-122106611D01*
X179578925Y-122153275D01*
X179226738Y-122270906D01*
X178991914Y-122396423D01*
X178866000Y-122686395D01*
X169160000Y-122686395D01*
X169160000Y-118103711D01*
X169203937Y-118059774D01*
X169317205Y-117890256D01*
X169395226Y-117701898D01*
X169435000Y-117501939D01*
X169435000Y-117298061D01*
X169395226Y-117098102D01*
X169317205Y-116909744D01*
X169210468Y-116750000D01*
X178111928Y-116750000D01*
X178111928Y-119250000D01*
X178124188Y-119374482D01*
X178160498Y-119494180D01*
X178219463Y-119604494D01*
X178298815Y-119701185D01*
X178395506Y-119780537D01*
X178505820Y-119839502D01*
X178625518Y-119875812D01*
X178750000Y-119888072D01*
X181250000Y-119888072D01*
X181374482Y-119875812D01*
X181494180Y-119839502D01*
X181604494Y-119780537D01*
X181701185Y-119701185D01*
X181780537Y-119604494D01*
X181839502Y-119494180D01*
X181875812Y-119374482D01*
X181888072Y-119250000D01*
X181888072Y-116750000D01*
X181875812Y-116625518D01*
X181839502Y-116505820D01*
X181780537Y-116395506D01*
X181701185Y-116298815D01*
X181604494Y-116219463D01*
X181494180Y-116160498D01*
X181374482Y-116124188D01*
X181250000Y-116111928D01*
X178750000Y-116111928D01*
X178625518Y-116124188D01*
X178505820Y-116160498D01*
X178395506Y-116219463D01*
X178298815Y-116298815D01*
X178219463Y-116395506D01*
X178160498Y-116505820D01*
X178124188Y-116625518D01*
X178111928Y-116750000D01*
X169210468Y-116750000D01*
X169203937Y-116740226D01*
X169059774Y-116596063D01*
X168890256Y-116482795D01*
X168701898Y-116404774D01*
X168501939Y-116365000D01*
X168298061Y-116365000D01*
X168098102Y-116404774D01*
X167909744Y-116482795D01*
X167740226Y-116596063D01*
X167596063Y-116740226D01*
X167482795Y-116909744D01*
X167404774Y-117098102D01*
X167365000Y-117298061D01*
X167365000Y-117501939D01*
X167404774Y-117701898D01*
X167482795Y-117890256D01*
X167596063Y-118059774D01*
X167640000Y-118103711D01*
X167640001Y-126212666D01*
X167636324Y-126249998D01*
X167640001Y-126287331D01*
X167650998Y-126398984D01*
X167661849Y-126434754D01*
X167694454Y-126542244D01*
X167707866Y-126567335D01*
X167535201Y-126740000D01*
X167203711Y-126740000D01*
X167159774Y-126696063D01*
X166990256Y-126582795D01*
X166801898Y-126504774D01*
X166601939Y-126465000D01*
X166398061Y-126465000D01*
X166198102Y-126504774D01*
X166009744Y-126582795D01*
X165840226Y-126696063D01*
X165696063Y-126840226D01*
X165582795Y-127009744D01*
X165504774Y-127198102D01*
X165465000Y-127398061D01*
X113485000Y-127398061D01*
X113485000Y-127298061D01*
X113445226Y-127098102D01*
X113367205Y-126909744D01*
X113253937Y-126740226D01*
X113109774Y-126596063D01*
X112940256Y-126482795D01*
X112751898Y-126404774D01*
X112551939Y-126365000D01*
X112348061Y-126365000D01*
X112148102Y-126404774D01*
X111959744Y-126482795D01*
X111790226Y-126596063D01*
X111646063Y-126740226D01*
X111532795Y-126909744D01*
X111454774Y-127098102D01*
X111415000Y-127298061D01*
X111415000Y-127501939D01*
X111454774Y-127701898D01*
X111532795Y-127890256D01*
X111640001Y-128050701D01*
X111640000Y-137085198D01*
X111235199Y-137490000D01*
X65064802Y-137490000D01*
X64860001Y-137285199D01*
X64860001Y-128271159D01*
X64990256Y-128217205D01*
X65081462Y-128156263D01*
X66240000Y-129314802D01*
X66240001Y-133011928D01*
X65550000Y-133011928D01*
X65425518Y-133024188D01*
X65305820Y-133060498D01*
X65195506Y-133119463D01*
X65098815Y-133198815D01*
X65019463Y-133295506D01*
X64960498Y-133405820D01*
X64924188Y-133525518D01*
X64911928Y-133650000D01*
X64911928Y-135350000D01*
X64924188Y-135474482D01*
X64960498Y-135594180D01*
X65019463Y-135704494D01*
X65098815Y-135801185D01*
X65195506Y-135880537D01*
X65305820Y-135939502D01*
X65425518Y-135975812D01*
X65550000Y-135988072D01*
X67250000Y-135988072D01*
X67374482Y-135975812D01*
X67494180Y-135939502D01*
X67604494Y-135880537D01*
X67701185Y-135801185D01*
X67780537Y-135704494D01*
X67839502Y-135594180D01*
X67863966Y-135513534D01*
X67939731Y-135597588D01*
X68173080Y-135771641D01*
X68435901Y-135896825D01*
X68583110Y-135941476D01*
X68813000Y-135820155D01*
X68813000Y-134627000D01*
X68793000Y-134627000D01*
X68793000Y-134373000D01*
X68813000Y-134373000D01*
X68813000Y-133179845D01*
X68583110Y-133058524D01*
X68435901Y-133103175D01*
X68173080Y-133228359D01*
X67939731Y-133402412D01*
X67863966Y-133486466D01*
X67839502Y-133405820D01*
X67780537Y-133295506D01*
X67760000Y-133270482D01*
X67760000Y-129037322D01*
X67763676Y-128999999D01*
X67760000Y-128962676D01*
X67760000Y-128962667D01*
X67749003Y-128851014D01*
X67705546Y-128707753D01*
X67634974Y-128575724D01*
X67540001Y-128459999D01*
X67511004Y-128436202D01*
X66260000Y-127185199D01*
X66260000Y-125537323D01*
X66263676Y-125500000D01*
X66260000Y-125462677D01*
X66260000Y-125462667D01*
X66249003Y-125351014D01*
X66205546Y-125207753D01*
X66204366Y-125205546D01*
X66134974Y-125075723D01*
X66063799Y-124988997D01*
X66040001Y-124959999D01*
X66011004Y-124936202D01*
X65311197Y-124236395D01*
X65359774Y-124203937D01*
X65503937Y-124059774D01*
X65617205Y-123890256D01*
X65695226Y-123701898D01*
X65735000Y-123501939D01*
X65735000Y-123298061D01*
X65695226Y-123098102D01*
X65617205Y-122909744D01*
X65503937Y-122740226D01*
X65460000Y-122696289D01*
X65460000Y-113714801D01*
X66223550Y-112951251D01*
X66296063Y-113059774D01*
X66440226Y-113203937D01*
X66609744Y-113317205D01*
X66798102Y-113395226D01*
X66998061Y-113435000D01*
X67060199Y-113435000D01*
X75800000Y-122174802D01*
X75800001Y-133222405D01*
X75730986Y-133259294D01*
X75504866Y-133444866D01*
X75319294Y-133670986D01*
X75290000Y-133725791D01*
X75260706Y-133670986D01*
X75075134Y-133444866D01*
X75060000Y-133432446D01*
X75060000Y-123303711D01*
X75103937Y-123259774D01*
X75217205Y-123090256D01*
X75295226Y-122901898D01*
X75335000Y-122701939D01*
X75335000Y-122498061D01*
X75295226Y-122298102D01*
X75217205Y-122109744D01*
X75103937Y-121940226D01*
X74959774Y-121796063D01*
X74790256Y-121682795D01*
X74601898Y-121604774D01*
X74401939Y-121565000D01*
X74198061Y-121565000D01*
X73998102Y-121604774D01*
X73809744Y-121682795D01*
X73640226Y-121796063D01*
X73496063Y-121940226D01*
X73382795Y-122109744D01*
X73304774Y-122298102D01*
X73265000Y-122498061D01*
X73265000Y-122701939D01*
X73304774Y-122901898D01*
X73382795Y-123090256D01*
X73496063Y-123259774D01*
X73540000Y-123303711D01*
X73540001Y-133093786D01*
X73448966Y-133121401D01*
X73190986Y-133259294D01*
X72964866Y-133444866D01*
X72779294Y-133670986D01*
X72750000Y-133725791D01*
X72720706Y-133670986D01*
X72535134Y-133444866D01*
X72309014Y-133259294D01*
X72051034Y-133121401D01*
X71771111Y-133036487D01*
X71552950Y-133015000D01*
X71407050Y-133015000D01*
X71188889Y-133036487D01*
X70908966Y-133121401D01*
X70650986Y-133259294D01*
X70424866Y-133444866D01*
X70239294Y-133670986D01*
X70204799Y-133735523D01*
X70135178Y-133618645D01*
X69940269Y-133402412D01*
X69706920Y-133228359D01*
X69444099Y-133103175D01*
X69296890Y-133058524D01*
X69067000Y-133179845D01*
X69067000Y-134373000D01*
X69087000Y-134373000D01*
X69087000Y-134627000D01*
X69067000Y-134627000D01*
X69067000Y-135820155D01*
X69296890Y-135941476D01*
X69444099Y-135896825D01*
X69706920Y-135771641D01*
X69940269Y-135597588D01*
X70135178Y-135381355D01*
X70204799Y-135264477D01*
X70239294Y-135329014D01*
X70424866Y-135555134D01*
X70650986Y-135740706D01*
X70908966Y-135878599D01*
X71188889Y-135963513D01*
X71407050Y-135985000D01*
X71552950Y-135985000D01*
X71771111Y-135963513D01*
X71845996Y-135940797D01*
X72091197Y-136185998D01*
X72115000Y-136215002D01*
X72230725Y-136309975D01*
X72362754Y-136380547D01*
X72506015Y-136424004D01*
X72617668Y-136435001D01*
X72617677Y-136435001D01*
X72655000Y-136438677D01*
X72692323Y-136435001D01*
X79626679Y-136435001D01*
X79664001Y-136438677D01*
X79701323Y-136435001D01*
X79701334Y-136435001D01*
X79812987Y-136424004D01*
X79956248Y-136380547D01*
X80088277Y-136309975D01*
X80204002Y-136215002D01*
X80227805Y-136185998D01*
X80978390Y-135435413D01*
X99044192Y-135435413D01*
X99139956Y-135699814D01*
X99429571Y-135840704D01*
X99741108Y-135922384D01*
X100062595Y-135941718D01*
X100381675Y-135897961D01*
X100686088Y-135792795D01*
X100860044Y-135699814D01*
X100955808Y-135435413D01*
X105544192Y-135435413D01*
X105639956Y-135699814D01*
X105929571Y-135840704D01*
X106241108Y-135922384D01*
X106562595Y-135941718D01*
X106881675Y-135897961D01*
X107186088Y-135792795D01*
X107360044Y-135699814D01*
X107455808Y-135435413D01*
X108544192Y-135435413D01*
X108639956Y-135699814D01*
X108929571Y-135840704D01*
X109241108Y-135922384D01*
X109562595Y-135941718D01*
X109881675Y-135897961D01*
X110186088Y-135792795D01*
X110360044Y-135699814D01*
X110455808Y-135435413D01*
X109500000Y-134479605D01*
X108544192Y-135435413D01*
X107455808Y-135435413D01*
X106500000Y-134479605D01*
X105544192Y-135435413D01*
X100955808Y-135435413D01*
X100000000Y-134479605D01*
X99044192Y-135435413D01*
X80978390Y-135435413D01*
X81811003Y-134602801D01*
X81840001Y-134579003D01*
X81876135Y-134534974D01*
X81934974Y-134463279D01*
X82005546Y-134331249D01*
X82019583Y-134284973D01*
X82049003Y-134187988D01*
X82060000Y-134076335D01*
X82060000Y-134076325D01*
X82063676Y-134039002D01*
X82060000Y-134001679D01*
X82060000Y-113303711D01*
X82103937Y-113259774D01*
X82217205Y-113090256D01*
X82295226Y-112901898D01*
X82335000Y-112701939D01*
X82335000Y-112498061D01*
X82295226Y-112298102D01*
X82217205Y-112109744D01*
X82103937Y-111940226D01*
X81959774Y-111796063D01*
X81790256Y-111682795D01*
X81601898Y-111604774D01*
X81401939Y-111565000D01*
X81198061Y-111565000D01*
X80998102Y-111604774D01*
X80809744Y-111682795D01*
X80640226Y-111796063D01*
X80496063Y-111940226D01*
X80382795Y-112109744D01*
X80304774Y-112298102D01*
X80265000Y-112498061D01*
X80265000Y-112701939D01*
X80304774Y-112901898D01*
X80382795Y-113090256D01*
X80496063Y-113259774D01*
X80540000Y-113303711D01*
X80540001Y-133724199D01*
X80428661Y-133835539D01*
X80340706Y-133670986D01*
X80155134Y-133444866D01*
X79929014Y-133259294D01*
X79860000Y-133222405D01*
X79860000Y-122437323D01*
X79863676Y-122400000D01*
X79860000Y-122362677D01*
X79860000Y-122362667D01*
X79849003Y-122251014D01*
X79805546Y-122107753D01*
X79734974Y-121975724D01*
X79640001Y-121859999D01*
X79611004Y-121836202D01*
X69235000Y-111460199D01*
X69235000Y-111398061D01*
X69195226Y-111198102D01*
X69117205Y-111009744D01*
X69003937Y-110840226D01*
X68859774Y-110696063D01*
X68690256Y-110582795D01*
X68620783Y-110554018D01*
X72011004Y-107163798D01*
X72040001Y-107140001D01*
X72134974Y-107024276D01*
X72205546Y-106892247D01*
X72249003Y-106748986D01*
X72260000Y-106637333D01*
X72260000Y-106637324D01*
X72263676Y-106600001D01*
X72260000Y-106562678D01*
X72260000Y-103927429D01*
X72298061Y-103935000D01*
X72501939Y-103935000D01*
X72701898Y-103895226D01*
X72890256Y-103817205D01*
X73059774Y-103703937D01*
X73103711Y-103660000D01*
X74085199Y-103660000D01*
X77365000Y-106939802D01*
X77365000Y-107001939D01*
X77404774Y-107201898D01*
X77482795Y-107390256D01*
X77596063Y-107559774D01*
X77740226Y-107703937D01*
X77909744Y-107817205D01*
X78098102Y-107895226D01*
X78298061Y-107935000D01*
X78501939Y-107935000D01*
X78701898Y-107895226D01*
X78890256Y-107817205D01*
X78918907Y-107798061D01*
X93665000Y-107798061D01*
X93665000Y-108001939D01*
X93704774Y-108201898D01*
X93782795Y-108390256D01*
X93896063Y-108559774D01*
X94040226Y-108703937D01*
X94209744Y-108817205D01*
X94398102Y-108895226D01*
X94598061Y-108935000D01*
X94801939Y-108935000D01*
X94940001Y-108907538D01*
X94940000Y-126462678D01*
X94936324Y-126500000D01*
X94940000Y-126537322D01*
X94940000Y-126537332D01*
X94950997Y-126648985D01*
X94984976Y-126761000D01*
X94994454Y-126792246D01*
X95065026Y-126924276D01*
X95090010Y-126954719D01*
X95090010Y-127026949D01*
X95129784Y-127226908D01*
X95207805Y-127415266D01*
X95321073Y-127584784D01*
X95465236Y-127728947D01*
X95634754Y-127842215D01*
X95823112Y-127920236D01*
X96023071Y-127960010D01*
X96226949Y-127960010D01*
X96426908Y-127920236D01*
X96590001Y-127852680D01*
X96590002Y-133186494D01*
X96498102Y-133204774D01*
X96309744Y-133282795D01*
X96140226Y-133396063D01*
X95996063Y-133540226D01*
X95882795Y-133709744D01*
X95804774Y-133898102D01*
X95765000Y-134098061D01*
X95765000Y-134301939D01*
X95804774Y-134501898D01*
X95882795Y-134690256D01*
X95996063Y-134859774D01*
X96140226Y-135003937D01*
X96309744Y-135117205D01*
X96498102Y-135195226D01*
X96698061Y-135235000D01*
X96901939Y-135235000D01*
X97101898Y-135195226D01*
X97290256Y-135117205D01*
X97459774Y-135003937D01*
X97603937Y-134859774D01*
X97717205Y-134690256D01*
X97795226Y-134501898D01*
X97822934Y-134362595D01*
X98358282Y-134362595D01*
X98402039Y-134681675D01*
X98507205Y-134986088D01*
X98600186Y-135160044D01*
X98864587Y-135255808D01*
X99820395Y-134300000D01*
X100179605Y-134300000D01*
X101135413Y-135255808D01*
X101399814Y-135160044D01*
X101540704Y-134870429D01*
X101622384Y-134558892D01*
X101634189Y-134362595D01*
X104858282Y-134362595D01*
X104902039Y-134681675D01*
X105007205Y-134986088D01*
X105100186Y-135160044D01*
X105364587Y-135255808D01*
X106320395Y-134300000D01*
X106679605Y-134300000D01*
X107635413Y-135255808D01*
X107899814Y-135160044D01*
X107997751Y-134958723D01*
X108007205Y-134986088D01*
X108100186Y-135160044D01*
X108364587Y-135255808D01*
X109320395Y-134300000D01*
X109679605Y-134300000D01*
X110635413Y-135255808D01*
X110899814Y-135160044D01*
X111040704Y-134870429D01*
X111122384Y-134558892D01*
X111141718Y-134237405D01*
X111097961Y-133918325D01*
X110992795Y-133613912D01*
X110899814Y-133439956D01*
X110635413Y-133344192D01*
X109679605Y-134300000D01*
X109320395Y-134300000D01*
X108364587Y-133344192D01*
X108100186Y-133439956D01*
X108002249Y-133641277D01*
X107992795Y-133613912D01*
X107899814Y-133439956D01*
X107635413Y-133344192D01*
X106679605Y-134300000D01*
X106320395Y-134300000D01*
X105364587Y-133344192D01*
X105100186Y-133439956D01*
X104959296Y-133729571D01*
X104877616Y-134041108D01*
X104858282Y-134362595D01*
X101634189Y-134362595D01*
X101641718Y-134237405D01*
X101597961Y-133918325D01*
X101492795Y-133613912D01*
X101399814Y-133439956D01*
X101135413Y-133344192D01*
X100179605Y-134300000D01*
X99820395Y-134300000D01*
X98864587Y-133344192D01*
X98600186Y-133439956D01*
X98459296Y-133729571D01*
X98377616Y-134041108D01*
X98358282Y-134362595D01*
X97822934Y-134362595D01*
X97835000Y-134301939D01*
X97835000Y-134239801D01*
X97860998Y-134213803D01*
X97890002Y-134190000D01*
X97984975Y-134074275D01*
X98055547Y-133942246D01*
X98099004Y-133798985D01*
X98110001Y-133687332D01*
X98110001Y-133687322D01*
X98113677Y-133649999D01*
X98110001Y-133612676D01*
X98110001Y-133164587D01*
X99044192Y-133164587D01*
X100000000Y-134120395D01*
X100955808Y-133164587D01*
X105544192Y-133164587D01*
X106500000Y-134120395D01*
X107455808Y-133164587D01*
X108544192Y-133164587D01*
X109500000Y-134120395D01*
X110455808Y-133164587D01*
X110360044Y-132900186D01*
X110070429Y-132759296D01*
X109758892Y-132677616D01*
X109437405Y-132658282D01*
X109118325Y-132702039D01*
X108813912Y-132807205D01*
X108639956Y-132900186D01*
X108544192Y-133164587D01*
X107455808Y-133164587D01*
X107360044Y-132900186D01*
X107070429Y-132759296D01*
X106758892Y-132677616D01*
X106437405Y-132658282D01*
X106118325Y-132702039D01*
X105813912Y-132807205D01*
X105639956Y-132900186D01*
X105544192Y-133164587D01*
X100955808Y-133164587D01*
X100860044Y-132900186D01*
X100570429Y-132759296D01*
X100258892Y-132677616D01*
X99937405Y-132658282D01*
X99618325Y-132702039D01*
X99313912Y-132807205D01*
X99139956Y-132900186D01*
X99044192Y-133164587D01*
X98110001Y-133164587D01*
X98110001Y-129638967D01*
X98365000Y-129638967D01*
X98365000Y-129961033D01*
X98427832Y-130276912D01*
X98551082Y-130574463D01*
X98730013Y-130842252D01*
X98957748Y-131069987D01*
X99225537Y-131248918D01*
X99523088Y-131372168D01*
X99838967Y-131435000D01*
X100161033Y-131435000D01*
X100476912Y-131372168D01*
X100774463Y-131248918D01*
X101042252Y-131069987D01*
X101269987Y-130842252D01*
X101448918Y-130574463D01*
X101572168Y-130276912D01*
X101635000Y-129961033D01*
X101635000Y-129638967D01*
X104865000Y-129638967D01*
X104865000Y-129961033D01*
X104927832Y-130276912D01*
X105051082Y-130574463D01*
X105230013Y-130842252D01*
X105457748Y-131069987D01*
X105725537Y-131248918D01*
X106023088Y-131372168D01*
X106338967Y-131435000D01*
X106661033Y-131435000D01*
X106976912Y-131372168D01*
X107274463Y-131248918D01*
X107542252Y-131069987D01*
X107769987Y-130842252D01*
X107948918Y-130574463D01*
X108000000Y-130451140D01*
X108051082Y-130574463D01*
X108230013Y-130842252D01*
X108457748Y-131069987D01*
X108725537Y-131248918D01*
X109023088Y-131372168D01*
X109338967Y-131435000D01*
X109661033Y-131435000D01*
X109976912Y-131372168D01*
X110274463Y-131248918D01*
X110542252Y-131069987D01*
X110769987Y-130842252D01*
X110948918Y-130574463D01*
X111072168Y-130276912D01*
X111135000Y-129961033D01*
X111135000Y-129638967D01*
X111072168Y-129323088D01*
X110948918Y-129025537D01*
X110769987Y-128757748D01*
X110542252Y-128530013D01*
X110274463Y-128351082D01*
X109976912Y-128227832D01*
X109661033Y-128165000D01*
X109338967Y-128165000D01*
X109023088Y-128227832D01*
X108725537Y-128351082D01*
X108457748Y-128530013D01*
X108230013Y-128757748D01*
X108051082Y-129025537D01*
X108000000Y-129148860D01*
X107948918Y-129025537D01*
X107769987Y-128757748D01*
X107542252Y-128530013D01*
X107274463Y-128351082D01*
X106976912Y-128227832D01*
X106661033Y-128165000D01*
X106338967Y-128165000D01*
X106023088Y-128227832D01*
X105725537Y-128351082D01*
X105457748Y-128530013D01*
X105230013Y-128757748D01*
X105051082Y-129025537D01*
X104927832Y-129323088D01*
X104865000Y-129638967D01*
X101635000Y-129638967D01*
X101572168Y-129323088D01*
X101448918Y-129025537D01*
X101269987Y-128757748D01*
X101042252Y-128530013D01*
X100774463Y-128351082D01*
X100476912Y-128227832D01*
X100161033Y-128165000D01*
X99838967Y-128165000D01*
X99523088Y-128227832D01*
X99225537Y-128351082D01*
X98957748Y-128530013D01*
X98730013Y-128757748D01*
X98551082Y-129025537D01*
X98427832Y-129323088D01*
X98365000Y-129638967D01*
X98110001Y-129638967D01*
X98110001Y-127071159D01*
X98240256Y-127017205D01*
X98409774Y-126903937D01*
X98553937Y-126759774D01*
X98667205Y-126590256D01*
X98745226Y-126401898D01*
X98785000Y-126201939D01*
X98785000Y-125998061D01*
X98745226Y-125798102D01*
X98667205Y-125609744D01*
X98592582Y-125498061D01*
X163365000Y-125498061D01*
X163365000Y-125701939D01*
X163404774Y-125901898D01*
X163482795Y-126090256D01*
X163596063Y-126259774D01*
X163740226Y-126403937D01*
X163909744Y-126517205D01*
X164098102Y-126595226D01*
X164298061Y-126635000D01*
X164501939Y-126635000D01*
X164701898Y-126595226D01*
X164890256Y-126517205D01*
X165059774Y-126403937D01*
X165110963Y-126352748D01*
X165148986Y-126349003D01*
X165292247Y-126305546D01*
X165424276Y-126234974D01*
X165540001Y-126140001D01*
X165563804Y-126110997D01*
X165763799Y-125911002D01*
X166611003Y-125063799D01*
X166640001Y-125040001D01*
X166734974Y-124924276D01*
X166805546Y-124792247D01*
X166849003Y-124648986D01*
X166860000Y-124537333D01*
X166860000Y-124537324D01*
X166863676Y-124500001D01*
X166860000Y-124462678D01*
X166860000Y-114313605D01*
X178866000Y-114313605D01*
X178991914Y-114603577D01*
X179324126Y-114769433D01*
X179682312Y-114867290D01*
X180052706Y-114893389D01*
X180421075Y-114846725D01*
X180773262Y-114729094D01*
X181008086Y-114603577D01*
X181134000Y-114313605D01*
X180000000Y-113179605D01*
X178866000Y-114313605D01*
X166860000Y-114313605D01*
X166860000Y-113052706D01*
X178106611Y-113052706D01*
X178153275Y-113421075D01*
X178270906Y-113773262D01*
X178396423Y-114008086D01*
X178686395Y-114134000D01*
X179820395Y-113000000D01*
X180179605Y-113000000D01*
X181313605Y-114134000D01*
X181603577Y-114008086D01*
X181769433Y-113675874D01*
X181867290Y-113317688D01*
X181893389Y-112947294D01*
X181846725Y-112578925D01*
X181729094Y-112226738D01*
X181603577Y-111991914D01*
X181313605Y-111866000D01*
X180179605Y-113000000D01*
X179820395Y-113000000D01*
X178686395Y-111866000D01*
X178396423Y-111991914D01*
X178230567Y-112324126D01*
X178132710Y-112682312D01*
X178106611Y-113052706D01*
X166860000Y-113052706D01*
X166860000Y-111686395D01*
X178866000Y-111686395D01*
X180000000Y-112820395D01*
X181134000Y-111686395D01*
X181008086Y-111396423D01*
X180675874Y-111230567D01*
X180317688Y-111132710D01*
X179947294Y-111106611D01*
X179578925Y-111153275D01*
X179226738Y-111270906D01*
X178991914Y-111396423D01*
X178866000Y-111686395D01*
X166860000Y-111686395D01*
X166860000Y-105750000D01*
X178111928Y-105750000D01*
X178111928Y-108250000D01*
X178124188Y-108374482D01*
X178160498Y-108494180D01*
X178219463Y-108604494D01*
X178298815Y-108701185D01*
X178395506Y-108780537D01*
X178505820Y-108839502D01*
X178625518Y-108875812D01*
X178750000Y-108888072D01*
X181250000Y-108888072D01*
X181374482Y-108875812D01*
X181494180Y-108839502D01*
X181604494Y-108780537D01*
X181701185Y-108701185D01*
X181780537Y-108604494D01*
X181839502Y-108494180D01*
X181875812Y-108374482D01*
X181888072Y-108250000D01*
X181888072Y-105750000D01*
X181875812Y-105625518D01*
X181839502Y-105505820D01*
X181780537Y-105395506D01*
X181701185Y-105298815D01*
X181604494Y-105219463D01*
X181494180Y-105160498D01*
X181374482Y-105124188D01*
X181250000Y-105111928D01*
X178750000Y-105111928D01*
X178625518Y-105124188D01*
X178505820Y-105160498D01*
X178395506Y-105219463D01*
X178298815Y-105298815D01*
X178219463Y-105395506D01*
X178160498Y-105505820D01*
X178124188Y-105625518D01*
X178111928Y-105750000D01*
X166860000Y-105750000D01*
X166860000Y-103313605D01*
X178866000Y-103313605D01*
X178991914Y-103603577D01*
X179324126Y-103769433D01*
X179682312Y-103867290D01*
X180052706Y-103893389D01*
X180421075Y-103846725D01*
X180773262Y-103729094D01*
X181008086Y-103603577D01*
X181134000Y-103313605D01*
X180000000Y-102179605D01*
X178866000Y-103313605D01*
X166860000Y-103313605D01*
X166860000Y-102052706D01*
X178106611Y-102052706D01*
X178153275Y-102421075D01*
X178270906Y-102773262D01*
X178396423Y-103008086D01*
X178686395Y-103134000D01*
X179820395Y-102000000D01*
X180179605Y-102000000D01*
X181313605Y-103134000D01*
X181603577Y-103008086D01*
X181769433Y-102675874D01*
X181867290Y-102317688D01*
X181893389Y-101947294D01*
X181846725Y-101578925D01*
X181729094Y-101226738D01*
X181603577Y-100991914D01*
X181313605Y-100866000D01*
X180179605Y-102000000D01*
X179820395Y-102000000D01*
X178686395Y-100866000D01*
X178396423Y-100991914D01*
X178230567Y-101324126D01*
X178132710Y-101682312D01*
X178106611Y-102052706D01*
X166860000Y-102052706D01*
X166860000Y-100686395D01*
X178866000Y-100686395D01*
X180000000Y-101820395D01*
X181134000Y-100686395D01*
X181008086Y-100396423D01*
X180675874Y-100230567D01*
X180317688Y-100132710D01*
X179947294Y-100106611D01*
X179578925Y-100153275D01*
X179226738Y-100270906D01*
X178991914Y-100396423D01*
X178866000Y-100686395D01*
X166860000Y-100686395D01*
X166860000Y-93998061D01*
X171465000Y-93998061D01*
X171465000Y-94201939D01*
X171504774Y-94401898D01*
X171582795Y-94590256D01*
X171696063Y-94759774D01*
X171840226Y-94903937D01*
X172009744Y-95017205D01*
X172198102Y-95095226D01*
X172398061Y-95135000D01*
X172601939Y-95135000D01*
X172801898Y-95095226D01*
X172990256Y-95017205D01*
X173159774Y-94903937D01*
X173303937Y-94759774D01*
X173310467Y-94750000D01*
X178111928Y-94750000D01*
X178111928Y-97250000D01*
X178124188Y-97374482D01*
X178160498Y-97494180D01*
X178219463Y-97604494D01*
X178298815Y-97701185D01*
X178395506Y-97780537D01*
X178505820Y-97839502D01*
X178625518Y-97875812D01*
X178750000Y-97888072D01*
X181250000Y-97888072D01*
X181374482Y-97875812D01*
X181494180Y-97839502D01*
X181604494Y-97780537D01*
X181701185Y-97701185D01*
X181780537Y-97604494D01*
X181839502Y-97494180D01*
X181875812Y-97374482D01*
X181888072Y-97250000D01*
X181888072Y-94750000D01*
X181875812Y-94625518D01*
X181839502Y-94505820D01*
X181780537Y-94395506D01*
X181701185Y-94298815D01*
X181604494Y-94219463D01*
X181494180Y-94160498D01*
X181374482Y-94124188D01*
X181250000Y-94111928D01*
X178750000Y-94111928D01*
X178625518Y-94124188D01*
X178505820Y-94160498D01*
X178395506Y-94219463D01*
X178298815Y-94298815D01*
X178219463Y-94395506D01*
X178160498Y-94505820D01*
X178124188Y-94625518D01*
X178111928Y-94750000D01*
X173310467Y-94750000D01*
X173417205Y-94590256D01*
X173495226Y-94401898D01*
X173535000Y-94201939D01*
X173535000Y-93998061D01*
X173495226Y-93798102D01*
X173417205Y-93609744D01*
X173303937Y-93440226D01*
X173260000Y-93396289D01*
X173260000Y-92313605D01*
X178866000Y-92313605D01*
X178991914Y-92603577D01*
X179324126Y-92769433D01*
X179682312Y-92867290D01*
X180052706Y-92893389D01*
X180421075Y-92846725D01*
X180773262Y-92729094D01*
X181008086Y-92603577D01*
X181134000Y-92313605D01*
X180000000Y-91179605D01*
X178866000Y-92313605D01*
X173260000Y-92313605D01*
X173260000Y-91052706D01*
X178106611Y-91052706D01*
X178153275Y-91421075D01*
X178270906Y-91773262D01*
X178396423Y-92008086D01*
X178686395Y-92134000D01*
X179820395Y-91000000D01*
X180179605Y-91000000D01*
X181313605Y-92134000D01*
X181603577Y-92008086D01*
X181769433Y-91675874D01*
X181867290Y-91317688D01*
X181893389Y-90947294D01*
X181846725Y-90578925D01*
X181729094Y-90226738D01*
X181603577Y-89991914D01*
X181313605Y-89866000D01*
X180179605Y-91000000D01*
X179820395Y-91000000D01*
X178686395Y-89866000D01*
X178396423Y-89991914D01*
X178230567Y-90324126D01*
X178132710Y-90682312D01*
X178106611Y-91052706D01*
X173260000Y-91052706D01*
X173260000Y-89686395D01*
X178866000Y-89686395D01*
X180000000Y-90820395D01*
X181134000Y-89686395D01*
X181008086Y-89396423D01*
X180675874Y-89230567D01*
X180317688Y-89132710D01*
X179947294Y-89106611D01*
X179578925Y-89153275D01*
X179226738Y-89270906D01*
X178991914Y-89396423D01*
X178866000Y-89686395D01*
X173260000Y-89686395D01*
X173260000Y-87903560D01*
X173301898Y-87895226D01*
X173490256Y-87817205D01*
X173659774Y-87703937D01*
X173803937Y-87559774D01*
X173917205Y-87390256D01*
X173995226Y-87201898D01*
X174035000Y-87001939D01*
X174035000Y-86798061D01*
X173995226Y-86598102D01*
X173917205Y-86409744D01*
X173803937Y-86240226D01*
X173659774Y-86096063D01*
X173490256Y-85982795D01*
X173301898Y-85904774D01*
X173101939Y-85865000D01*
X172898061Y-85865000D01*
X172698102Y-85904774D01*
X172509744Y-85982795D01*
X172340226Y-86096063D01*
X172196063Y-86240226D01*
X172082795Y-86409744D01*
X172004774Y-86598102D01*
X171965000Y-86798061D01*
X171965000Y-86855896D01*
X171960000Y-86859999D01*
X171936202Y-86888997D01*
X171936201Y-86888998D01*
X171865026Y-86975724D01*
X171794454Y-87107754D01*
X171778675Y-87159774D01*
X171750998Y-87251014D01*
X171743782Y-87324276D01*
X171736324Y-87400000D01*
X171740001Y-87437332D01*
X171740000Y-93396289D01*
X171696063Y-93440226D01*
X171582795Y-93609744D01*
X171504774Y-93798102D01*
X171465000Y-93998061D01*
X166860000Y-93998061D01*
X166860000Y-88003711D01*
X166903937Y-87959774D01*
X167017205Y-87790256D01*
X167095226Y-87601898D01*
X167135000Y-87401939D01*
X167135000Y-87198061D01*
X167095226Y-86998102D01*
X167017205Y-86809744D01*
X166903937Y-86640226D01*
X166759774Y-86496063D01*
X166590256Y-86382795D01*
X166401898Y-86304774D01*
X166201939Y-86265000D01*
X165998061Y-86265000D01*
X165798102Y-86304774D01*
X165609744Y-86382795D01*
X165440226Y-86496063D01*
X165296063Y-86640226D01*
X165182795Y-86809744D01*
X165104774Y-86998102D01*
X165065000Y-87198061D01*
X165065000Y-87401939D01*
X165104774Y-87601898D01*
X165182795Y-87790256D01*
X165296063Y-87959774D01*
X165340000Y-88003711D01*
X165340001Y-119262658D01*
X165340000Y-119262668D01*
X165340001Y-124185197D01*
X164856419Y-124668779D01*
X164701898Y-124604774D01*
X164501939Y-124565000D01*
X164298061Y-124565000D01*
X164098102Y-124604774D01*
X163909744Y-124682795D01*
X163740226Y-124796063D01*
X163596063Y-124940226D01*
X163482795Y-125109744D01*
X163404774Y-125298102D01*
X163365000Y-125498061D01*
X98592582Y-125498061D01*
X98553937Y-125440226D01*
X98409774Y-125296063D01*
X98240256Y-125182795D01*
X98051898Y-125104774D01*
X97851939Y-125065000D01*
X97648061Y-125065000D01*
X97448102Y-125104774D01*
X97259744Y-125182795D01*
X97090226Y-125296063D01*
X96946063Y-125440226D01*
X96832795Y-125609744D01*
X96754774Y-125798102D01*
X96715000Y-125998061D01*
X96715000Y-126074445D01*
X96615266Y-126007805D01*
X96460000Y-125943491D01*
X96460000Y-108437325D01*
X96463676Y-108400000D01*
X96460000Y-108362675D01*
X96460000Y-108362667D01*
X96449003Y-108251014D01*
X96405546Y-108107753D01*
X96334974Y-107975724D01*
X96240001Y-107859999D01*
X96210997Y-107836196D01*
X95763804Y-107389003D01*
X95740001Y-107359999D01*
X95624276Y-107265026D01*
X95492247Y-107194454D01*
X95443325Y-107179614D01*
X95359774Y-107096063D01*
X95190256Y-106982795D01*
X95001898Y-106904774D01*
X94801939Y-106865000D01*
X94598061Y-106865000D01*
X94398102Y-106904774D01*
X94209744Y-106982795D01*
X94040226Y-107096063D01*
X93896063Y-107240226D01*
X93782795Y-107409744D01*
X93704774Y-107598102D01*
X93665000Y-107798061D01*
X78918907Y-107798061D01*
X79059774Y-107703937D01*
X79203937Y-107559774D01*
X79317205Y-107390256D01*
X79395226Y-107201898D01*
X79435000Y-107001939D01*
X79435000Y-106798061D01*
X79395226Y-106598102D01*
X79317205Y-106409744D01*
X79203937Y-106240226D01*
X79059774Y-106096063D01*
X78890256Y-105982795D01*
X78701898Y-105904774D01*
X78501939Y-105865000D01*
X78439802Y-105865000D01*
X78372863Y-105798061D01*
X102965000Y-105798061D01*
X102965000Y-106001939D01*
X103004774Y-106201898D01*
X103082795Y-106390256D01*
X103196063Y-106559774D01*
X103340226Y-106703937D01*
X103509744Y-106817205D01*
X103698102Y-106895226D01*
X103898061Y-106935000D01*
X104101939Y-106935000D01*
X104301898Y-106895226D01*
X104490256Y-106817205D01*
X104659774Y-106703937D01*
X104803937Y-106559774D01*
X104917205Y-106390256D01*
X104995226Y-106201898D01*
X105035000Y-106001939D01*
X105035000Y-105939802D01*
X105111002Y-105863800D01*
X105140001Y-105840001D01*
X105176060Y-105796063D01*
X105234974Y-105724277D01*
X105305546Y-105592247D01*
X105328978Y-105515001D01*
X105349003Y-105448986D01*
X105360000Y-105337333D01*
X105360000Y-105337324D01*
X105363676Y-105300001D01*
X105360000Y-105262678D01*
X105360000Y-102998061D01*
X112265000Y-102998061D01*
X112265000Y-103201939D01*
X112304774Y-103401898D01*
X112382795Y-103590256D01*
X112496063Y-103759774D01*
X112640226Y-103903937D01*
X112809744Y-104017205D01*
X112998102Y-104095226D01*
X113198061Y-104135000D01*
X113401939Y-104135000D01*
X113601898Y-104095226D01*
X113790256Y-104017205D01*
X113959774Y-103903937D01*
X114103937Y-103759774D01*
X114217205Y-103590256D01*
X114295226Y-103401898D01*
X114335000Y-103201939D01*
X114335000Y-103198061D01*
X123265000Y-103198061D01*
X123265000Y-103401939D01*
X123304774Y-103601898D01*
X123382795Y-103790256D01*
X123496063Y-103959774D01*
X123640226Y-104103937D01*
X123809744Y-104217205D01*
X123998102Y-104295226D01*
X124198061Y-104335000D01*
X124401939Y-104335000D01*
X124601898Y-104295226D01*
X124790256Y-104217205D01*
X124959774Y-104103937D01*
X125103937Y-103959774D01*
X125217205Y-103790256D01*
X125295226Y-103601898D01*
X125335000Y-103401939D01*
X125335000Y-103339802D01*
X126576741Y-102098061D01*
X130965000Y-102098061D01*
X130965000Y-102301939D01*
X131004774Y-102501898D01*
X131082795Y-102690256D01*
X131196063Y-102859774D01*
X131340226Y-103003937D01*
X131509744Y-103117205D01*
X131698102Y-103195226D01*
X131898061Y-103235000D01*
X132101939Y-103235000D01*
X132301898Y-103195226D01*
X132490256Y-103117205D01*
X132659774Y-103003937D01*
X132803937Y-102859774D01*
X132917205Y-102690256D01*
X132995226Y-102501898D01*
X133035000Y-102301939D01*
X133035000Y-102239802D01*
X133411004Y-101863798D01*
X133440001Y-101840001D01*
X133534974Y-101724276D01*
X133605546Y-101592247D01*
X133649003Y-101448986D01*
X133660000Y-101337333D01*
X133660000Y-101337324D01*
X133663676Y-101300001D01*
X133660000Y-101262678D01*
X133660000Y-98950049D01*
X144465000Y-98950049D01*
X144465000Y-99153927D01*
X144504774Y-99353886D01*
X144582795Y-99542244D01*
X144696063Y-99711762D01*
X144840226Y-99855925D01*
X145009744Y-99969193D01*
X145198102Y-100047214D01*
X145398061Y-100086988D01*
X145601939Y-100086988D01*
X145801898Y-100047214D01*
X145990256Y-99969193D01*
X146159774Y-99855925D01*
X146303937Y-99711762D01*
X146417205Y-99542244D01*
X146495226Y-99353886D01*
X146535000Y-99153927D01*
X146535000Y-99091789D01*
X147111004Y-98515786D01*
X147140001Y-98491989D01*
X147166332Y-98459905D01*
X147234974Y-98376265D01*
X147305546Y-98244235D01*
X147338747Y-98134783D01*
X147349003Y-98100974D01*
X147360000Y-97989321D01*
X147360000Y-97989311D01*
X147363676Y-97951988D01*
X147360000Y-97914665D01*
X147360000Y-96398061D01*
X151765000Y-96398061D01*
X151765000Y-96601939D01*
X151804774Y-96801898D01*
X151882795Y-96990256D01*
X151996063Y-97159774D01*
X152140226Y-97303937D01*
X152309744Y-97417205D01*
X152498102Y-97495226D01*
X152698061Y-97535000D01*
X152901939Y-97535000D01*
X153101898Y-97495226D01*
X153290256Y-97417205D01*
X153459774Y-97303937D01*
X153603937Y-97159774D01*
X153717205Y-96990256D01*
X153795226Y-96801898D01*
X153835000Y-96601939D01*
X153835000Y-96539802D01*
X154211004Y-96163798D01*
X154240001Y-96140001D01*
X154334974Y-96024276D01*
X154405546Y-95892247D01*
X154449003Y-95748986D01*
X154460000Y-95637333D01*
X154460000Y-95637324D01*
X154463676Y-95600001D01*
X154460000Y-95562678D01*
X154460000Y-91398061D01*
X156965000Y-91398061D01*
X156965000Y-91601939D01*
X157004774Y-91801898D01*
X157082795Y-91990256D01*
X157196063Y-92159774D01*
X157340226Y-92303937D01*
X157509744Y-92417205D01*
X157698102Y-92495226D01*
X157898061Y-92535000D01*
X158101939Y-92535000D01*
X158301898Y-92495226D01*
X158490256Y-92417205D01*
X158659774Y-92303937D01*
X158694455Y-92269256D01*
X159740001Y-93314803D01*
X159740000Y-101296289D01*
X159696063Y-101340226D01*
X159582795Y-101509744D01*
X159504774Y-101698102D01*
X159465000Y-101898061D01*
X159465000Y-102101939D01*
X159504774Y-102301898D01*
X159582795Y-102490256D01*
X159696063Y-102659774D01*
X159840226Y-102803937D01*
X160009744Y-102917205D01*
X160198102Y-102995226D01*
X160398061Y-103035000D01*
X160601939Y-103035000D01*
X160801898Y-102995226D01*
X160990256Y-102917205D01*
X161159774Y-102803937D01*
X161303937Y-102659774D01*
X161417205Y-102490256D01*
X161495226Y-102301898D01*
X161535000Y-102101939D01*
X161535000Y-101898061D01*
X161495226Y-101698102D01*
X161417205Y-101509744D01*
X161303937Y-101340226D01*
X161260000Y-101296289D01*
X161260000Y-93037322D01*
X161263676Y-92999999D01*
X161260000Y-92962676D01*
X161260000Y-92962667D01*
X161249003Y-92851014D01*
X161205546Y-92707753D01*
X161134974Y-92575724D01*
X161040001Y-92459999D01*
X161011003Y-92436201D01*
X159563804Y-90989003D01*
X159540001Y-90959999D01*
X159424276Y-90865026D01*
X159292247Y-90794454D01*
X159148986Y-90750997D01*
X159037333Y-90740000D01*
X159037322Y-90740000D01*
X159000000Y-90736324D01*
X158962678Y-90740000D01*
X158703711Y-90740000D01*
X158659774Y-90696063D01*
X158490256Y-90582795D01*
X158301898Y-90504774D01*
X158101939Y-90465000D01*
X157898061Y-90465000D01*
X157698102Y-90504774D01*
X157509744Y-90582795D01*
X157340226Y-90696063D01*
X157196063Y-90840226D01*
X157082795Y-91009744D01*
X157004774Y-91198102D01*
X156965000Y-91398061D01*
X154460000Y-91398061D01*
X154460000Y-87603711D01*
X154503937Y-87559774D01*
X154617205Y-87390256D01*
X154695226Y-87201898D01*
X154735000Y-87001939D01*
X154735000Y-86798061D01*
X154695226Y-86598102D01*
X154617205Y-86409744D01*
X154503937Y-86240226D01*
X154359774Y-86096063D01*
X154190256Y-85982795D01*
X154001898Y-85904774D01*
X153801939Y-85865000D01*
X153598061Y-85865000D01*
X153398102Y-85904774D01*
X153209744Y-85982795D01*
X153040226Y-86096063D01*
X152896063Y-86240226D01*
X152782795Y-86409744D01*
X152704774Y-86598102D01*
X152665000Y-86798061D01*
X152665000Y-87001939D01*
X152704774Y-87201898D01*
X152782795Y-87390256D01*
X152896063Y-87559774D01*
X152940001Y-87603712D01*
X152940000Y-95285198D01*
X152760198Y-95465000D01*
X152698061Y-95465000D01*
X152498102Y-95504774D01*
X152309744Y-95582795D01*
X152140226Y-95696063D01*
X151996063Y-95840226D01*
X151882795Y-96009744D01*
X151804774Y-96198102D01*
X151765000Y-96398061D01*
X147360000Y-96398061D01*
X147360000Y-88103711D01*
X147403937Y-88059774D01*
X147517205Y-87890256D01*
X147595226Y-87701898D01*
X147635000Y-87501939D01*
X147635000Y-87298061D01*
X147595226Y-87098102D01*
X147517205Y-86909744D01*
X147403937Y-86740226D01*
X147259774Y-86596063D01*
X147090256Y-86482795D01*
X146901898Y-86404774D01*
X146701939Y-86365000D01*
X146498061Y-86365000D01*
X146298102Y-86404774D01*
X146109744Y-86482795D01*
X145940226Y-86596063D01*
X145796063Y-86740226D01*
X145682795Y-86909744D01*
X145604774Y-87098102D01*
X145565000Y-87298061D01*
X145565000Y-87501939D01*
X145604774Y-87701898D01*
X145682795Y-87890256D01*
X145796063Y-88059774D01*
X145840001Y-88103712D01*
X145840000Y-97637186D01*
X145460199Y-98016988D01*
X145398061Y-98016988D01*
X145198102Y-98056762D01*
X145009744Y-98134783D01*
X144840226Y-98248051D01*
X144696063Y-98392214D01*
X144582795Y-98561732D01*
X144504774Y-98750090D01*
X144465000Y-98950049D01*
X133660000Y-98950049D01*
X133660000Y-88103711D01*
X133803937Y-87959774D01*
X133917205Y-87790256D01*
X133995226Y-87601898D01*
X134035000Y-87401939D01*
X134035000Y-87198061D01*
X133995226Y-86998102D01*
X133917205Y-86809744D01*
X133803937Y-86640226D01*
X133659774Y-86496063D01*
X133490256Y-86382795D01*
X133301898Y-86304774D01*
X133101939Y-86265000D01*
X132898061Y-86265000D01*
X132698102Y-86304774D01*
X132509744Y-86382795D01*
X132340226Y-86496063D01*
X132196063Y-86640226D01*
X132082795Y-86809744D01*
X132004774Y-86998102D01*
X131965000Y-87198061D01*
X131965000Y-87401939D01*
X132004774Y-87601898D01*
X132082795Y-87790256D01*
X132140001Y-87875871D01*
X132140000Y-100985198D01*
X131960198Y-101165000D01*
X131898061Y-101165000D01*
X131698102Y-101204774D01*
X131509744Y-101282795D01*
X131340226Y-101396063D01*
X131196063Y-101540226D01*
X131082795Y-101709744D01*
X131004774Y-101898102D01*
X130965000Y-102098061D01*
X126576741Y-102098061D01*
X126611009Y-102063794D01*
X126640001Y-102040001D01*
X126663795Y-102011008D01*
X126663799Y-102011004D01*
X126734973Y-101924277D01*
X126734974Y-101924276D01*
X126805546Y-101792247D01*
X126849003Y-101648986D01*
X126860000Y-101537333D01*
X126860000Y-101537324D01*
X126863676Y-101500001D01*
X126860000Y-101462678D01*
X126860000Y-88203711D01*
X126903937Y-88159774D01*
X127017205Y-87990256D01*
X127095226Y-87801898D01*
X127135000Y-87601939D01*
X127135000Y-87398061D01*
X127095226Y-87198102D01*
X127017205Y-87009744D01*
X126903937Y-86840226D01*
X126759774Y-86696063D01*
X126590256Y-86582795D01*
X126401898Y-86504774D01*
X126201939Y-86465000D01*
X125998061Y-86465000D01*
X125798102Y-86504774D01*
X125609744Y-86582795D01*
X125440226Y-86696063D01*
X125296063Y-86840226D01*
X125182795Y-87009744D01*
X125104774Y-87198102D01*
X125065000Y-87398061D01*
X125065000Y-87601939D01*
X125104774Y-87801898D01*
X125182795Y-87990256D01*
X125296063Y-88159774D01*
X125340001Y-88203712D01*
X125340000Y-101185197D01*
X124260198Y-102265000D01*
X124198061Y-102265000D01*
X123998102Y-102304774D01*
X123809744Y-102382795D01*
X123640226Y-102496063D01*
X123496063Y-102640226D01*
X123382795Y-102809744D01*
X123304774Y-102998102D01*
X123265000Y-103198061D01*
X114335000Y-103198061D01*
X114335000Y-103124227D01*
X114405546Y-102992247D01*
X114449003Y-102848986D01*
X114460000Y-102737333D01*
X114460000Y-102737324D01*
X114463676Y-102700001D01*
X114460000Y-102662678D01*
X114460000Y-87703711D01*
X114503937Y-87659774D01*
X114617205Y-87490256D01*
X114695226Y-87301898D01*
X114735000Y-87101939D01*
X114735000Y-86898061D01*
X114695226Y-86698102D01*
X114617205Y-86509744D01*
X114503937Y-86340226D01*
X114359774Y-86196063D01*
X114190256Y-86082795D01*
X114001898Y-86004774D01*
X113801939Y-85965000D01*
X113598061Y-85965000D01*
X113398102Y-86004774D01*
X113209744Y-86082795D01*
X113040226Y-86196063D01*
X112896063Y-86340226D01*
X112782795Y-86509744D01*
X112704774Y-86698102D01*
X112665000Y-86898061D01*
X112665000Y-87101939D01*
X112704774Y-87301898D01*
X112782795Y-87490256D01*
X112896063Y-87659774D01*
X112940001Y-87703712D01*
X112940000Y-102128841D01*
X112809744Y-102182795D01*
X112640226Y-102296063D01*
X112496063Y-102440226D01*
X112382795Y-102609744D01*
X112304774Y-102798102D01*
X112265000Y-102998061D01*
X105360000Y-102998061D01*
X105360000Y-87503560D01*
X105401898Y-87495226D01*
X105590256Y-87417205D01*
X105759774Y-87303937D01*
X105903937Y-87159774D01*
X106017205Y-86990256D01*
X106095226Y-86801898D01*
X106135000Y-86601939D01*
X106135000Y-86398061D01*
X106095226Y-86198102D01*
X106017205Y-86009744D01*
X105903937Y-85840226D01*
X105759774Y-85696063D01*
X105590256Y-85582795D01*
X105401898Y-85504774D01*
X105201939Y-85465000D01*
X104998061Y-85465000D01*
X104798102Y-85504774D01*
X104609744Y-85582795D01*
X104440226Y-85696063D01*
X104296063Y-85840226D01*
X104182795Y-86009744D01*
X104104774Y-86198102D01*
X104065000Y-86398061D01*
X104065000Y-86455895D01*
X104059999Y-86459999D01*
X104019175Y-86509744D01*
X103965026Y-86575724D01*
X103917293Y-86665026D01*
X103894454Y-86707754D01*
X103850997Y-86851015D01*
X103840000Y-86962668D01*
X103840000Y-86962678D01*
X103836324Y-87000000D01*
X103840000Y-87037322D01*
X103840000Y-87362668D01*
X103840001Y-102562658D01*
X103840000Y-102562668D01*
X103840000Y-103462668D01*
X103840001Y-104876549D01*
X103698102Y-104904774D01*
X103509744Y-104982795D01*
X103340226Y-105096063D01*
X103196063Y-105240226D01*
X103082795Y-105409744D01*
X103004774Y-105598102D01*
X102965000Y-105798061D01*
X78372863Y-105798061D01*
X74963804Y-102389003D01*
X74940001Y-102359999D01*
X74824276Y-102265026D01*
X74692247Y-102194454D01*
X74548986Y-102150997D01*
X74437333Y-102140000D01*
X74437322Y-102140000D01*
X74400000Y-102136324D01*
X74362678Y-102140000D01*
X73103711Y-102140000D01*
X73059774Y-102096063D01*
X72890256Y-101982795D01*
X72701898Y-101904774D01*
X72501939Y-101865000D01*
X72298061Y-101865000D01*
X72260000Y-101872571D01*
X72260000Y-97703711D01*
X72303937Y-97659774D01*
X72417205Y-97490256D01*
X72495226Y-97301898D01*
X72535000Y-97101939D01*
X72535000Y-97028424D01*
X72701898Y-96995226D01*
X72890256Y-96917205D01*
X73059774Y-96803937D01*
X73203937Y-96659774D01*
X73317205Y-96490256D01*
X73395226Y-96301898D01*
X73435000Y-96101939D01*
X73435000Y-95898061D01*
X73395226Y-95698102D01*
X73317205Y-95509744D01*
X73203937Y-95340226D01*
X73059774Y-95196063D01*
X72890256Y-95082795D01*
X72701898Y-95004774D01*
X72501939Y-94965000D01*
X72298061Y-94965000D01*
X72098102Y-95004774D01*
X71909744Y-95082795D01*
X71740226Y-95196063D01*
X71696289Y-95240000D01*
X68555008Y-95240000D01*
X68555008Y-93764942D01*
X68601668Y-93834774D01*
X68745831Y-93978937D01*
X68915349Y-94092205D01*
X69103707Y-94170226D01*
X69303666Y-94210000D01*
X69507544Y-94210000D01*
X69707503Y-94170226D01*
X69895861Y-94092205D01*
X70065379Y-93978937D01*
X70209542Y-93834774D01*
X70322810Y-93665256D01*
X70400831Y-93476898D01*
X70440605Y-93276939D01*
X70440605Y-93199226D01*
X70511150Y-93067248D01*
X70554607Y-92923987D01*
X70565604Y-92812334D01*
X70565604Y-92812324D01*
X70569280Y-92775002D01*
X70565604Y-92737679D01*
X70565604Y-92209197D01*
X73114803Y-89660000D01*
X86696289Y-89660000D01*
X86740226Y-89703937D01*
X86909744Y-89817205D01*
X87098102Y-89895226D01*
X87298061Y-89935000D01*
X87501939Y-89935000D01*
X87701898Y-89895226D01*
X87890256Y-89817205D01*
X88059774Y-89703937D01*
X88203937Y-89559774D01*
X88317205Y-89390256D01*
X88395226Y-89201898D01*
X88435000Y-89001939D01*
X88435000Y-88798061D01*
X88395226Y-88598102D01*
X88317205Y-88409744D01*
X88203937Y-88240226D01*
X88059774Y-88096063D01*
X87890256Y-87982795D01*
X87701898Y-87904774D01*
X87501939Y-87865000D01*
X87298061Y-87865000D01*
X87098102Y-87904774D01*
X86909744Y-87982795D01*
X86740226Y-88096063D01*
X86696289Y-88140000D01*
X72837322Y-88140000D01*
X72799999Y-88136324D01*
X72762676Y-88140000D01*
X72762667Y-88140000D01*
X72651014Y-88150997D01*
X72507753Y-88194454D01*
X72375724Y-88265026D01*
X72375722Y-88265027D01*
X72375723Y-88265027D01*
X72288996Y-88336201D01*
X72288992Y-88336205D01*
X72259999Y-88359999D01*
X72236205Y-88388992D01*
X69294602Y-91330597D01*
X69265604Y-91354395D01*
X69241806Y-91383393D01*
X69241805Y-91383394D01*
X69170630Y-91470120D01*
X69100058Y-91602150D01*
X69085851Y-91648986D01*
X69056602Y-91745410D01*
X69045604Y-91857063D01*
X69045604Y-91857074D01*
X69041928Y-91894396D01*
X69045604Y-91931718D01*
X69045604Y-92203841D01*
X68915349Y-92257795D01*
X68745831Y-92371063D01*
X68601668Y-92515226D01*
X68555008Y-92585058D01*
X68555008Y-91434023D01*
X68558684Y-91396700D01*
X68555008Y-91359377D01*
X68555008Y-91359367D01*
X68544011Y-91247714D01*
X68500554Y-91104453D01*
X68495124Y-91094294D01*
X68429982Y-90972423D01*
X68358807Y-90885697D01*
X68335009Y-90856699D01*
X68306012Y-90832902D01*
X66924458Y-89451349D01*
X66900655Y-89422345D01*
X66784930Y-89327372D01*
X66652901Y-89256800D01*
X66509640Y-89213343D01*
X66397987Y-89202346D01*
X66397976Y-89202346D01*
X66360654Y-89198670D01*
X66323332Y-89202346D01*
X64109292Y-89202346D01*
X64071969Y-89198670D01*
X64034646Y-89202346D01*
X64034636Y-89202346D01*
X63922983Y-89213343D01*
X63779722Y-89256800D01*
X63647693Y-89327372D01*
X63531968Y-89422345D01*
X63508165Y-89451349D01*
X63388998Y-89570516D01*
X63360000Y-89594314D01*
X63336202Y-89623312D01*
X63336201Y-89623313D01*
X63265026Y-89710039D01*
X63226137Y-89782795D01*
X63194454Y-89842068D01*
X63151013Y-89985276D01*
X63096063Y-90040226D01*
X62982795Y-90209744D01*
X62904774Y-90398102D01*
X62865000Y-90598061D01*
X62865000Y-90801939D01*
X62904774Y-91001898D01*
X62982795Y-91190256D01*
X63096063Y-91359774D01*
X63240226Y-91503937D01*
X63409744Y-91617205D01*
X63598102Y-91695226D01*
X63798061Y-91735000D01*
X64001939Y-91735000D01*
X64201898Y-91695226D01*
X64390256Y-91617205D01*
X64450000Y-91577285D01*
X64509744Y-91617205D01*
X64698102Y-91695226D01*
X64840000Y-91723451D01*
X64840000Y-96303517D01*
X64791318Y-96230659D01*
X64647155Y-96086496D01*
X64477637Y-95973228D01*
X64289279Y-95895207D01*
X64089320Y-95855433D01*
X63885442Y-95855433D01*
X63685483Y-95895207D01*
X63497125Y-95973228D01*
X63327607Y-96086496D01*
X63283670Y-96130433D01*
X62149237Y-96130433D01*
X61897431Y-95878627D01*
X61951286Y-95824772D01*
X62064554Y-95655254D01*
X62142575Y-95466896D01*
X62182349Y-95266937D01*
X62182349Y-95063059D01*
X62142575Y-94863100D01*
X62064554Y-94674742D01*
X62060000Y-94667926D01*
X62060000Y-94645421D01*
X62086508Y-94613121D01*
X62157080Y-94481092D01*
X62200521Y-94337884D01*
X62255471Y-94282934D01*
X62368739Y-94113416D01*
X62446760Y-93925058D01*
X62486534Y-93725099D01*
X62486534Y-93521221D01*
X62446760Y-93321262D01*
X62368739Y-93132904D01*
X62255471Y-92963386D01*
X62111308Y-92819223D01*
X61941790Y-92705955D01*
X61753432Y-92627934D01*
X61553473Y-92588160D01*
X61349595Y-92588160D01*
X61149636Y-92627934D01*
X61040396Y-92673183D01*
X61040396Y-92485967D01*
X61000622Y-92286008D01*
X60922601Y-92097650D01*
X60809333Y-91928132D01*
X60665170Y-91783969D01*
X60495652Y-91670701D01*
X60307294Y-91592680D01*
X60107335Y-91552906D01*
X59903457Y-91552906D01*
X59703498Y-91592680D01*
X59515140Y-91670701D01*
X59345622Y-91783969D01*
X59201459Y-91928132D01*
X59088191Y-92097650D01*
X59010170Y-92286008D01*
X58970396Y-92485967D01*
X52660000Y-92485967D01*
X52660000Y-91400000D01*
X56759993Y-91400000D01*
X56779976Y-91602895D01*
X56839159Y-91797993D01*
X56935266Y-91977797D01*
X57064604Y-92135396D01*
X57222203Y-92264734D01*
X57402007Y-92360841D01*
X57597105Y-92420024D01*
X57749162Y-92435000D01*
X57850838Y-92435000D01*
X58002895Y-92420024D01*
X58197993Y-92360841D01*
X58377797Y-92264734D01*
X58535396Y-92135396D01*
X58664734Y-91977797D01*
X58760841Y-91797993D01*
X58820024Y-91602895D01*
X58840007Y-91400000D01*
X58820024Y-91197105D01*
X58760841Y-91002007D01*
X58723000Y-90931211D01*
X58723000Y-90302000D01*
X58977000Y-90302000D01*
X58977000Y-91535000D01*
X59252000Y-91535000D01*
X59514883Y-91484092D01*
X59762783Y-91382876D01*
X59986173Y-91235242D01*
X60176469Y-91046863D01*
X60326357Y-90824979D01*
X60430078Y-90578117D01*
X60442519Y-90512258D01*
X60319518Y-90302000D01*
X58977000Y-90302000D01*
X58723000Y-90302000D01*
X57380482Y-90302000D01*
X57257481Y-90512258D01*
X57258193Y-90516029D01*
X57222203Y-90535266D01*
X57064604Y-90664604D01*
X56935266Y-90822203D01*
X56839159Y-91002007D01*
X56779976Y-91197105D01*
X56759993Y-91400000D01*
X52660000Y-91400000D01*
X52660000Y-90338677D01*
X53556365Y-90338677D01*
X53558504Y-90370715D01*
X53648364Y-90591644D01*
X53779598Y-90790797D01*
X53947163Y-90960521D01*
X54144620Y-91094294D01*
X54364381Y-91186974D01*
X54598000Y-91235000D01*
X54923000Y-91235000D01*
X54923000Y-90152000D01*
X55177000Y-90152000D01*
X55177000Y-91235000D01*
X55502000Y-91235000D01*
X55735619Y-91186974D01*
X55955380Y-91094294D01*
X56152837Y-90960521D01*
X56320402Y-90790797D01*
X56451636Y-90591644D01*
X56541496Y-90370715D01*
X56543635Y-90338677D01*
X56418550Y-90152000D01*
X55177000Y-90152000D01*
X54923000Y-90152000D01*
X53681450Y-90152000D01*
X53556365Y-90338677D01*
X52660000Y-90338677D01*
X52660000Y-89711323D01*
X53556365Y-89711323D01*
X53681450Y-89898000D01*
X54923000Y-89898000D01*
X54923000Y-88815000D01*
X55177000Y-88815000D01*
X55177000Y-89898000D01*
X56418550Y-89898000D01*
X56458926Y-89837742D01*
X57257481Y-89837742D01*
X57380482Y-90048000D01*
X58723000Y-90048000D01*
X58723000Y-88815000D01*
X58977000Y-88815000D01*
X58977000Y-90048000D01*
X60319518Y-90048000D01*
X60442519Y-89837742D01*
X60430078Y-89771883D01*
X60326357Y-89525021D01*
X60176469Y-89303137D01*
X59986173Y-89114758D01*
X59762783Y-88967124D01*
X59514883Y-88865908D01*
X59252000Y-88815000D01*
X58977000Y-88815000D01*
X58723000Y-88815000D01*
X58448000Y-88815000D01*
X58185117Y-88865908D01*
X57937217Y-88967124D01*
X57713827Y-89114758D01*
X57523531Y-89303137D01*
X57373643Y-89525021D01*
X57269922Y-89771883D01*
X57257481Y-89837742D01*
X56458926Y-89837742D01*
X56543635Y-89711323D01*
X56541496Y-89679285D01*
X56451636Y-89458356D01*
X56320402Y-89259203D01*
X56152837Y-89089479D01*
X55955380Y-88955706D01*
X55735619Y-88863026D01*
X55502000Y-88815000D01*
X55177000Y-88815000D01*
X54923000Y-88815000D01*
X54598000Y-88815000D01*
X54364381Y-88863026D01*
X54144620Y-88955706D01*
X53947163Y-89089479D01*
X53779598Y-89259203D01*
X53648364Y-89458356D01*
X53558504Y-89679285D01*
X53556365Y-89711323D01*
X52660000Y-89711323D01*
X52660000Y-78403148D01*
X61676457Y-78403148D01*
X61952627Y-78821118D01*
X62497557Y-79111649D01*
X63088696Y-79290287D01*
X63703328Y-79350168D01*
X63790530Y-79341486D01*
X63788871Y-79343969D01*
X63541240Y-79941801D01*
X63415000Y-80576456D01*
X63415000Y-81223544D01*
X63541240Y-81858199D01*
X63788871Y-82456031D01*
X64148374Y-82994066D01*
X64605934Y-83451626D01*
X65143969Y-83811129D01*
X65741801Y-84058760D01*
X66376456Y-84185000D01*
X67023544Y-84185000D01*
X67658199Y-84058760D01*
X68256031Y-83811129D01*
X68794066Y-83451626D01*
X69251626Y-82994066D01*
X69611129Y-82456031D01*
X69858760Y-81858199D01*
X69985000Y-81223544D01*
X69985000Y-80576456D01*
X69858760Y-79941801D01*
X69669546Y-79485000D01*
X70023544Y-79485000D01*
X70658199Y-79358760D01*
X71256031Y-79111129D01*
X71794066Y-78751626D01*
X72251626Y-78294066D01*
X72611129Y-77756031D01*
X72858760Y-77158199D01*
X72985000Y-76523544D01*
X72985000Y-75876456D01*
X72858760Y-75241801D01*
X72611129Y-74643969D01*
X72251626Y-74105934D01*
X71794066Y-73648374D01*
X71256031Y-73288871D01*
X70658199Y-73041240D01*
X70023544Y-72915000D01*
X69376456Y-72915000D01*
X68741801Y-73041240D01*
X68143969Y-73288871D01*
X67605934Y-73648374D01*
X67148374Y-74105934D01*
X66788871Y-74643969D01*
X66624293Y-75041294D01*
X66609103Y-74991408D01*
X66321118Y-74452627D01*
X65903148Y-74176457D01*
X63879605Y-76200000D01*
X63893748Y-76214143D01*
X63714143Y-76393748D01*
X63700000Y-76379605D01*
X61676457Y-78403148D01*
X52660000Y-78403148D01*
X52660000Y-76203328D01*
X60549832Y-76203328D01*
X60611010Y-76817831D01*
X60790897Y-77408592D01*
X61078882Y-77947373D01*
X61496852Y-78223543D01*
X63520395Y-76200000D01*
X61496852Y-74176457D01*
X61078882Y-74452627D01*
X60788351Y-74997557D01*
X60609713Y-75588696D01*
X60549832Y-76203328D01*
X52660000Y-76203328D01*
X52660000Y-73996852D01*
X61676457Y-73996852D01*
X63700000Y-76020395D01*
X65723543Y-73996852D01*
X65447373Y-73578882D01*
X64902443Y-73288351D01*
X64311304Y-73109713D01*
X63696672Y-73049832D01*
X63082169Y-73111010D01*
X62491408Y-73290897D01*
X61952627Y-73578882D01*
X61676457Y-73996852D01*
X52660000Y-73996852D01*
X52660000Y-71392702D01*
X85086903Y-71392702D01*
X85158486Y-71636671D01*
X85413996Y-71757571D01*
X85688184Y-71826300D01*
X85970512Y-71840217D01*
X86250130Y-71798787D01*
X86516292Y-71703603D01*
X86641514Y-71636671D01*
X86683755Y-71492702D01*
X92886903Y-71492702D01*
X92958486Y-71736671D01*
X93213996Y-71857571D01*
X93488184Y-71926300D01*
X93770512Y-71940217D01*
X94050130Y-71898787D01*
X94316292Y-71803603D01*
X94441514Y-71736671D01*
X94513097Y-71492702D01*
X93700000Y-70679605D01*
X92886903Y-71492702D01*
X86683755Y-71492702D01*
X86713097Y-71392702D01*
X85900000Y-70579605D01*
X85086903Y-71392702D01*
X52660000Y-71392702D01*
X52660000Y-70470512D01*
X84459783Y-70470512D01*
X84501213Y-70750130D01*
X84596397Y-71016292D01*
X84663329Y-71141514D01*
X84907298Y-71213097D01*
X85720395Y-70400000D01*
X85706253Y-70385858D01*
X85885858Y-70206253D01*
X85900000Y-70220395D01*
X85914143Y-70206253D01*
X86093748Y-70385858D01*
X86079605Y-70400000D01*
X86892702Y-71213097D01*
X87136671Y-71141514D01*
X87257571Y-70886004D01*
X87326300Y-70611816D01*
X87328336Y-70570512D01*
X92259783Y-70570512D01*
X92301213Y-70850130D01*
X92396397Y-71116292D01*
X92463329Y-71241514D01*
X92707298Y-71313097D01*
X93520395Y-70500000D01*
X93506253Y-70485858D01*
X93685858Y-70306253D01*
X93700000Y-70320395D01*
X93714143Y-70306253D01*
X93893748Y-70485858D01*
X93879605Y-70500000D01*
X94692702Y-71313097D01*
X94936671Y-71241514D01*
X95057571Y-70986004D01*
X95126300Y-70711816D01*
X95140217Y-70429488D01*
X95098787Y-70149870D01*
X95003603Y-69883708D01*
X94938384Y-69761691D01*
X94951185Y-69751185D01*
X95030537Y-69654494D01*
X95089502Y-69544180D01*
X95125812Y-69424482D01*
X95138072Y-69300000D01*
X95138072Y-67700000D01*
X95125812Y-67575518D01*
X95089502Y-67455820D01*
X95030537Y-67345506D01*
X94951185Y-67248815D01*
X94854494Y-67169463D01*
X94744180Y-67110498D01*
X94624482Y-67074188D01*
X94500000Y-67061928D01*
X92900000Y-67061928D01*
X92775518Y-67074188D01*
X92655820Y-67110498D01*
X92545506Y-67169463D01*
X92448815Y-67248815D01*
X92369463Y-67345506D01*
X92310498Y-67455820D01*
X92274188Y-67575518D01*
X92261928Y-67700000D01*
X92261928Y-69300000D01*
X92274188Y-69424482D01*
X92310498Y-69544180D01*
X92369463Y-69654494D01*
X92448815Y-69751185D01*
X92461758Y-69761807D01*
X92342429Y-70013996D01*
X92273700Y-70288184D01*
X92259783Y-70570512D01*
X87328336Y-70570512D01*
X87340217Y-70329488D01*
X87298787Y-70049870D01*
X87203603Y-69783708D01*
X87138384Y-69661691D01*
X87151185Y-69651185D01*
X87230537Y-69554494D01*
X87289502Y-69444180D01*
X87325812Y-69324482D01*
X87338072Y-69200000D01*
X87338072Y-67600000D01*
X87325812Y-67475518D01*
X87289502Y-67355820D01*
X87230537Y-67245506D01*
X87151185Y-67148815D01*
X87054494Y-67069463D01*
X86944180Y-67010498D01*
X86824482Y-66974188D01*
X86700000Y-66961928D01*
X85100000Y-66961928D01*
X84975518Y-66974188D01*
X84855820Y-67010498D01*
X84745506Y-67069463D01*
X84648815Y-67148815D01*
X84569463Y-67245506D01*
X84510498Y-67355820D01*
X84474188Y-67475518D01*
X84461928Y-67600000D01*
X84461928Y-69200000D01*
X84474188Y-69324482D01*
X84510498Y-69444180D01*
X84569463Y-69554494D01*
X84648815Y-69651185D01*
X84661758Y-69661807D01*
X84542429Y-69913996D01*
X84473700Y-70188184D01*
X84459783Y-70470512D01*
X52660000Y-70470512D01*
X52660000Y-62200000D01*
X66161928Y-62200000D01*
X66161928Y-64400000D01*
X66174188Y-64524482D01*
X66210498Y-64644180D01*
X66269463Y-64754494D01*
X66348815Y-64851185D01*
X66445506Y-64930537D01*
X66555820Y-64989502D01*
X66675518Y-65025812D01*
X66800000Y-65038072D01*
X69000000Y-65038072D01*
X69124482Y-65025812D01*
X69244180Y-64989502D01*
X69354494Y-64930537D01*
X69451185Y-64851185D01*
X69530537Y-64754494D01*
X69589502Y-64644180D01*
X69625812Y-64524482D01*
X69638072Y-64400000D01*
X69638072Y-63696122D01*
X76370825Y-63696122D01*
X76435425Y-63909094D01*
X76585469Y-64214329D01*
X76792178Y-64484427D01*
X77047609Y-64709008D01*
X77341946Y-64879442D01*
X77663877Y-64989179D01*
X77933000Y-64871600D01*
X77933000Y-63427000D01*
X78187000Y-63427000D01*
X78187000Y-64871600D01*
X78456123Y-64989179D01*
X78778054Y-64879442D01*
X79072391Y-64709008D01*
X79327822Y-64484427D01*
X79534531Y-64214329D01*
X79684575Y-63909094D01*
X79749175Y-63696122D01*
X79631125Y-63427000D01*
X78187000Y-63427000D01*
X77933000Y-63427000D01*
X76488875Y-63427000D01*
X76370825Y-63696122D01*
X69638072Y-63696122D01*
X69638072Y-62903878D01*
X76370825Y-62903878D01*
X76488875Y-63173000D01*
X77933000Y-63173000D01*
X77933000Y-61728400D01*
X78187000Y-61728400D01*
X78187000Y-63173000D01*
X79631125Y-63173000D01*
X79749175Y-62903878D01*
X79684575Y-62690906D01*
X79534531Y-62385671D01*
X79327822Y-62115573D01*
X79072391Y-61890992D01*
X78778054Y-61720558D01*
X78456123Y-61610821D01*
X78187000Y-61728400D01*
X77933000Y-61728400D01*
X77663877Y-61610821D01*
X77341946Y-61720558D01*
X77047609Y-61890992D01*
X76792178Y-62115573D01*
X76585469Y-62385671D01*
X76435425Y-62690906D01*
X76370825Y-62903878D01*
X69638072Y-62903878D01*
X69638072Y-62200000D01*
X69625812Y-62075518D01*
X69589502Y-61955820D01*
X69530537Y-61845506D01*
X69451185Y-61748815D01*
X69354494Y-61669463D01*
X69244180Y-61610498D01*
X69124482Y-61574188D01*
X69000000Y-61561928D01*
X66800000Y-61561928D01*
X66675518Y-61574188D01*
X66555820Y-61610498D01*
X66445506Y-61669463D01*
X66348815Y-61748815D01*
X66269463Y-61845506D01*
X66210498Y-61955820D01*
X66174188Y-62075518D01*
X66161928Y-62200000D01*
X52660000Y-62200000D01*
X52660000Y-59863605D01*
X58016000Y-59863605D01*
X58141914Y-60153577D01*
X58474126Y-60319433D01*
X58832312Y-60417290D01*
X59202706Y-60443389D01*
X59571075Y-60396725D01*
X59923262Y-60279094D01*
X60158086Y-60153577D01*
X60284000Y-59863605D01*
X59150000Y-58729605D01*
X58016000Y-59863605D01*
X52660000Y-59863605D01*
X52660000Y-58602706D01*
X57256611Y-58602706D01*
X57303275Y-58971075D01*
X57420906Y-59323262D01*
X57546423Y-59558086D01*
X57836395Y-59684000D01*
X58970395Y-58550000D01*
X59329605Y-58550000D01*
X60463605Y-59684000D01*
X60753577Y-59558086D01*
X60919433Y-59225874D01*
X61017290Y-58867688D01*
X61043389Y-58497294D01*
X60996725Y-58128925D01*
X60879094Y-57776738D01*
X60753577Y-57541914D01*
X60605183Y-57477477D01*
X67456000Y-57477477D01*
X67456000Y-57722523D01*
X67503806Y-57962861D01*
X67597582Y-58189255D01*
X67733722Y-58393004D01*
X67906996Y-58566278D01*
X68110745Y-58702418D01*
X68337139Y-58796194D01*
X68577477Y-58844000D01*
X68822523Y-58844000D01*
X69062861Y-58796194D01*
X69289255Y-58702418D01*
X69493004Y-58566278D01*
X69666278Y-58393004D01*
X69802418Y-58189255D01*
X69896194Y-57962861D01*
X69944000Y-57722523D01*
X69944000Y-57477477D01*
X72506000Y-57477477D01*
X72506000Y-57722523D01*
X72553806Y-57962861D01*
X72647582Y-58189255D01*
X72783722Y-58393004D01*
X72956996Y-58566278D01*
X73160745Y-58702418D01*
X73387139Y-58796194D01*
X73627477Y-58844000D01*
X73872523Y-58844000D01*
X74112861Y-58796194D01*
X74339255Y-58702418D01*
X74543004Y-58566278D01*
X74716278Y-58393004D01*
X74852418Y-58189255D01*
X74946194Y-57962861D01*
X74994000Y-57722523D01*
X74994000Y-57477477D01*
X74946194Y-57237139D01*
X74852418Y-57010745D01*
X74716278Y-56806996D01*
X74543004Y-56633722D01*
X74339255Y-56497582D01*
X74112861Y-56403806D01*
X73872523Y-56356000D01*
X73627477Y-56356000D01*
X73387139Y-56403806D01*
X73160745Y-56497582D01*
X72956996Y-56633722D01*
X72783722Y-56806996D01*
X72647582Y-57010745D01*
X72553806Y-57237139D01*
X72506000Y-57477477D01*
X69944000Y-57477477D01*
X69896194Y-57237139D01*
X69802418Y-57010745D01*
X69666278Y-56806996D01*
X69493004Y-56633722D01*
X69289255Y-56497582D01*
X69062861Y-56403806D01*
X68822523Y-56356000D01*
X68577477Y-56356000D01*
X68337139Y-56403806D01*
X68110745Y-56497582D01*
X67906996Y-56633722D01*
X67733722Y-56806996D01*
X67597582Y-57010745D01*
X67503806Y-57237139D01*
X67456000Y-57477477D01*
X60605183Y-57477477D01*
X60463605Y-57416000D01*
X59329605Y-58550000D01*
X58970395Y-58550000D01*
X57836395Y-57416000D01*
X57546423Y-57541914D01*
X57380567Y-57874126D01*
X57282710Y-58232312D01*
X57256611Y-58602706D01*
X52660000Y-58602706D01*
X52660000Y-57236395D01*
X58016000Y-57236395D01*
X59150000Y-58370395D01*
X60284000Y-57236395D01*
X60158086Y-56946423D01*
X59825874Y-56780567D01*
X59467688Y-56682710D01*
X59097294Y-56656611D01*
X58728925Y-56703275D01*
X58376738Y-56820906D01*
X58141914Y-56946423D01*
X58016000Y-57236395D01*
X52660000Y-57236395D01*
X52660000Y-52300000D01*
X57261928Y-52300000D01*
X57261928Y-54800000D01*
X57274188Y-54924482D01*
X57310498Y-55044180D01*
X57369463Y-55154494D01*
X57448815Y-55251185D01*
X57545506Y-55330537D01*
X57655820Y-55389502D01*
X57775518Y-55425812D01*
X57900000Y-55438072D01*
X60400000Y-55438072D01*
X60524482Y-55425812D01*
X60644180Y-55389502D01*
X60754494Y-55330537D01*
X60851185Y-55251185D01*
X60930537Y-55154494D01*
X60989502Y-55044180D01*
X61025812Y-54924482D01*
X61038072Y-54800000D01*
X61038072Y-52300000D01*
X61025812Y-52175518D01*
X60989502Y-52055820D01*
X60930537Y-51945506D01*
X60851185Y-51848815D01*
X60754494Y-51769463D01*
X60644180Y-51710498D01*
X60524482Y-51674188D01*
X60400000Y-51661928D01*
X57900000Y-51661928D01*
X57775518Y-51674188D01*
X57655820Y-51710498D01*
X57545506Y-51769463D01*
X57448815Y-51848815D01*
X57369463Y-51945506D01*
X57310498Y-52055820D01*
X57274188Y-52175518D01*
X57261928Y-52300000D01*
X52660000Y-52300000D01*
X52660000Y-47300000D01*
X66011928Y-47300000D01*
X66011928Y-49000000D01*
X66024188Y-49124482D01*
X66060498Y-49244180D01*
X66119463Y-49354494D01*
X66198815Y-49451185D01*
X66295506Y-49530537D01*
X66405820Y-49589502D01*
X66525518Y-49625812D01*
X66650000Y-49638072D01*
X68350000Y-49638072D01*
X68474482Y-49625812D01*
X68594180Y-49589502D01*
X68704494Y-49530537D01*
X68801185Y-49451185D01*
X68880537Y-49354494D01*
X68939502Y-49244180D01*
X68960393Y-49175313D01*
X68984866Y-49205134D01*
X69210986Y-49390706D01*
X69468966Y-49528599D01*
X69748889Y-49613513D01*
X69967050Y-49635000D01*
X70112950Y-49635000D01*
X70331111Y-49613513D01*
X70611034Y-49528599D01*
X70869014Y-49390706D01*
X71095134Y-49205134D01*
X71280706Y-48979014D01*
X71418599Y-48721034D01*
X71503513Y-48441111D01*
X71532185Y-48150000D01*
X71503513Y-47858889D01*
X71418599Y-47578966D01*
X71280706Y-47320986D01*
X71095134Y-47094866D01*
X70869014Y-46909294D01*
X70611034Y-46771401D01*
X70331111Y-46686487D01*
X70112950Y-46665000D01*
X69967050Y-46665000D01*
X69748889Y-46686487D01*
X69468966Y-46771401D01*
X69210986Y-46909294D01*
X68984866Y-47094866D01*
X68960393Y-47124687D01*
X68939502Y-47055820D01*
X68880537Y-46945506D01*
X68801185Y-46848815D01*
X68704494Y-46769463D01*
X68594180Y-46710498D01*
X68474482Y-46674188D01*
X68350000Y-46661928D01*
X66650000Y-46661928D01*
X66525518Y-46674188D01*
X66405820Y-46710498D01*
X66295506Y-46769463D01*
X66198815Y-46848815D01*
X66119463Y-46945506D01*
X66060498Y-47055820D01*
X66024188Y-47175518D01*
X66011928Y-47300000D01*
X52660000Y-47300000D01*
X52660000Y-44029872D01*
X54015000Y-44029872D01*
X54015000Y-44470128D01*
X54100890Y-44901925D01*
X54269369Y-45308669D01*
X54513962Y-45674729D01*
X54825271Y-45986038D01*
X55191331Y-46230631D01*
X55598075Y-46399110D01*
X56029872Y-46485000D01*
X56470128Y-46485000D01*
X56901925Y-46399110D01*
X57308669Y-46230631D01*
X57579002Y-46050000D01*
X76511928Y-46050000D01*
X76511928Y-48550000D01*
X76524188Y-48674482D01*
X76560498Y-48794180D01*
X76619463Y-48904494D01*
X76698815Y-49001185D01*
X76795506Y-49080537D01*
X76905820Y-49139502D01*
X77025518Y-49175812D01*
X77150000Y-49188072D01*
X79650000Y-49188072D01*
X79774482Y-49175812D01*
X79894180Y-49139502D01*
X80004494Y-49080537D01*
X80101185Y-49001185D01*
X80180537Y-48904494D01*
X80239502Y-48794180D01*
X80275812Y-48674482D01*
X80288072Y-48550000D01*
X80288072Y-47114344D01*
X81515000Y-47114344D01*
X81515000Y-47485656D01*
X81587439Y-47849834D01*
X81729534Y-48192882D01*
X81935825Y-48501618D01*
X82198382Y-48764175D01*
X82507118Y-48970466D01*
X82850166Y-49112561D01*
X83214344Y-49185000D01*
X83585656Y-49185000D01*
X83949834Y-49112561D01*
X84292882Y-48970466D01*
X84601618Y-48764175D01*
X84864175Y-48501618D01*
X85070466Y-48192882D01*
X85212561Y-47849834D01*
X85285000Y-47485656D01*
X85285000Y-47114344D01*
X85212561Y-46750166D01*
X85070466Y-46407118D01*
X84864175Y-46098382D01*
X84601618Y-45835825D01*
X84292882Y-45629534D01*
X83949834Y-45487439D01*
X83585656Y-45415000D01*
X83214344Y-45415000D01*
X82850166Y-45487439D01*
X82507118Y-45629534D01*
X82198382Y-45835825D01*
X81935825Y-46098382D01*
X81729534Y-46407118D01*
X81587439Y-46750166D01*
X81515000Y-47114344D01*
X80288072Y-47114344D01*
X80288072Y-46050000D01*
X80275812Y-45925518D01*
X80239502Y-45805820D01*
X80180537Y-45695506D01*
X80101185Y-45598815D01*
X80004494Y-45519463D01*
X79894180Y-45460498D01*
X79774482Y-45424188D01*
X79650000Y-45411928D01*
X77150000Y-45411928D01*
X77025518Y-45424188D01*
X76905820Y-45460498D01*
X76795506Y-45519463D01*
X76698815Y-45598815D01*
X76619463Y-45695506D01*
X76560498Y-45805820D01*
X76524188Y-45925518D01*
X76511928Y-46050000D01*
X57579002Y-46050000D01*
X57674729Y-45986038D01*
X57986038Y-45674729D01*
X58230631Y-45308669D01*
X58399110Y-44901925D01*
X58485000Y-44470128D01*
X58485000Y-44029872D01*
X58409439Y-43650000D01*
X66011928Y-43650000D01*
X66011928Y-45350000D01*
X66024188Y-45474482D01*
X66060498Y-45594180D01*
X66119463Y-45704494D01*
X66198815Y-45801185D01*
X66295506Y-45880537D01*
X66405820Y-45939502D01*
X66525518Y-45975812D01*
X66650000Y-45988072D01*
X68350000Y-45988072D01*
X68474482Y-45975812D01*
X68594180Y-45939502D01*
X68704494Y-45880537D01*
X68801185Y-45801185D01*
X68880537Y-45704494D01*
X68939502Y-45594180D01*
X68960393Y-45525313D01*
X68984866Y-45555134D01*
X69210986Y-45740706D01*
X69468966Y-45878599D01*
X69748889Y-45963513D01*
X69967050Y-45985000D01*
X70112950Y-45985000D01*
X70331111Y-45963513D01*
X70611034Y-45878599D01*
X70869014Y-45740706D01*
X71095134Y-45555134D01*
X71280706Y-45329014D01*
X71418599Y-45071034D01*
X71503513Y-44791111D01*
X71532185Y-44500000D01*
X71503513Y-44208889D01*
X71418599Y-43928966D01*
X71280706Y-43670986D01*
X71095134Y-43444866D01*
X70869014Y-43259294D01*
X70611034Y-43121401D01*
X70331111Y-43036487D01*
X70112950Y-43015000D01*
X69967050Y-43015000D01*
X69748889Y-43036487D01*
X69468966Y-43121401D01*
X69210986Y-43259294D01*
X68984866Y-43444866D01*
X68960393Y-43474687D01*
X68939502Y-43405820D01*
X68880537Y-43295506D01*
X68801185Y-43198815D01*
X68704494Y-43119463D01*
X68594180Y-43060498D01*
X68474482Y-43024188D01*
X68350000Y-43011928D01*
X66650000Y-43011928D01*
X66525518Y-43024188D01*
X66405820Y-43060498D01*
X66295506Y-43119463D01*
X66198815Y-43198815D01*
X66119463Y-43295506D01*
X66060498Y-43405820D01*
X66024188Y-43525518D01*
X66011928Y-43650000D01*
X58409439Y-43650000D01*
X58399110Y-43598075D01*
X58230631Y-43191331D01*
X57986038Y-42825271D01*
X57674729Y-42513962D01*
X57308669Y-42269369D01*
X56901925Y-42100890D01*
X56470128Y-42015000D01*
X56029872Y-42015000D01*
X55598075Y-42100890D01*
X55191331Y-42269369D01*
X54825271Y-42513962D01*
X54513962Y-42825271D01*
X54269369Y-43191331D01*
X54100890Y-43598075D01*
X54015000Y-44029872D01*
X52660000Y-44029872D01*
X52660000Y-40660000D01*
X98873000Y-40660000D01*
X98873000Y-81000000D01*
M02*
