G04 #@! TF.GenerationSoftware,KiCad,Pcbnew,(5.1.4)-1*
G04 #@! TF.CreationDate,2020-04-17T22:35:52+02:00*
G04 #@! TF.ProjectId,Sensorbaustein,53656e73-6f72-4626-9175-737465696e2e,1.7*
G04 #@! TF.SameCoordinates,Original*
G04 #@! TF.FileFunction,Copper,L1,Top*
G04 #@! TF.FilePolarity,Positive*
%FSLAX46Y46*%
G04 Gerber Fmt 4.6, Leading zero omitted, Abs format (unit mm)*
G04 Created by KiCad (PCBNEW (5.1.4)-1) date 2020-04-17 22:35:52*
%MOMM*%
%LPD*%
G04 APERTURE LIST*
%ADD10C,0.100000*%
%ADD11C,0.950000*%
%ADD12C,0.900000*%
%ADD13C,5.000000*%
%ADD14C,0.450000*%
%ADD15C,1.450000*%
%ADD16C,1.450000*%
%ADD17C,1.150000*%
%ADD18C,1.150000*%
%ADD19R,0.800000X0.900000*%
%ADD20C,2.600000*%
%ADD21C,0.250000*%
%ADD22C,1.700000*%
%ADD23C,1.700000*%
%ADD24R,2.000000X3.800000*%
%ADD25R,2.000000X1.500000*%
%ADD26C,1.210000*%
%ADD27C,0.600000*%
%ADD28C,0.800000*%
%ADD29C,0.250000*%
G04 APERTURE END LIST*
D10*
G36*
X122059916Y-104301131D02*
G01*
X122082971Y-104304550D01*
X122105580Y-104310214D01*
X122127524Y-104318066D01*
X122148594Y-104328031D01*
X122168585Y-104340013D01*
X122187305Y-104353897D01*
X122204575Y-104369549D01*
X122540451Y-104705425D01*
X122556103Y-104722695D01*
X122569987Y-104741415D01*
X122581969Y-104761406D01*
X122591934Y-104782476D01*
X122599786Y-104804420D01*
X122605450Y-104827029D01*
X122608869Y-104850084D01*
X122610013Y-104873363D01*
X122608869Y-104896642D01*
X122605450Y-104919697D01*
X122599786Y-104942306D01*
X122591934Y-104964250D01*
X122581969Y-104985320D01*
X122569987Y-105005311D01*
X122556103Y-105024031D01*
X122540451Y-105041301D01*
X122133865Y-105447887D01*
X122116595Y-105463539D01*
X122097875Y-105477423D01*
X122077884Y-105489405D01*
X122056814Y-105499370D01*
X122034870Y-105507222D01*
X122012261Y-105512886D01*
X121989206Y-105516305D01*
X121965927Y-105517449D01*
X121942648Y-105516305D01*
X121919593Y-105512886D01*
X121896984Y-105507222D01*
X121875040Y-105499370D01*
X121853970Y-105489405D01*
X121833979Y-105477423D01*
X121815259Y-105463539D01*
X121797989Y-105447887D01*
X121462113Y-105112011D01*
X121446461Y-105094741D01*
X121432577Y-105076021D01*
X121420595Y-105056030D01*
X121410630Y-105034960D01*
X121402778Y-105013016D01*
X121397114Y-104990407D01*
X121393695Y-104967352D01*
X121392551Y-104944073D01*
X121393695Y-104920794D01*
X121397114Y-104897739D01*
X121402778Y-104875130D01*
X121410630Y-104853186D01*
X121420595Y-104832116D01*
X121432577Y-104812125D01*
X121446461Y-104793405D01*
X121462113Y-104776135D01*
X121868699Y-104369549D01*
X121885969Y-104353897D01*
X121904689Y-104340013D01*
X121924680Y-104328031D01*
X121945750Y-104318066D01*
X121967694Y-104310214D01*
X121990303Y-104304550D01*
X122013358Y-104301131D01*
X122036637Y-104299987D01*
X122059916Y-104301131D01*
X122059916Y-104301131D01*
G37*
D11*
X122001282Y-104908718D03*
D10*
G36*
X123297352Y-103063695D02*
G01*
X123320407Y-103067114D01*
X123343016Y-103072778D01*
X123364960Y-103080630D01*
X123386030Y-103090595D01*
X123406021Y-103102577D01*
X123424741Y-103116461D01*
X123442011Y-103132113D01*
X123777887Y-103467989D01*
X123793539Y-103485259D01*
X123807423Y-103503979D01*
X123819405Y-103523970D01*
X123829370Y-103545040D01*
X123837222Y-103566984D01*
X123842886Y-103589593D01*
X123846305Y-103612648D01*
X123847449Y-103635927D01*
X123846305Y-103659206D01*
X123842886Y-103682261D01*
X123837222Y-103704870D01*
X123829370Y-103726814D01*
X123819405Y-103747884D01*
X123807423Y-103767875D01*
X123793539Y-103786595D01*
X123777887Y-103803865D01*
X123371301Y-104210451D01*
X123354031Y-104226103D01*
X123335311Y-104239987D01*
X123315320Y-104251969D01*
X123294250Y-104261934D01*
X123272306Y-104269786D01*
X123249697Y-104275450D01*
X123226642Y-104278869D01*
X123203363Y-104280013D01*
X123180084Y-104278869D01*
X123157029Y-104275450D01*
X123134420Y-104269786D01*
X123112476Y-104261934D01*
X123091406Y-104251969D01*
X123071415Y-104239987D01*
X123052695Y-104226103D01*
X123035425Y-104210451D01*
X122699549Y-103874575D01*
X122683897Y-103857305D01*
X122670013Y-103838585D01*
X122658031Y-103818594D01*
X122648066Y-103797524D01*
X122640214Y-103775580D01*
X122634550Y-103752971D01*
X122631131Y-103729916D01*
X122629987Y-103706637D01*
X122631131Y-103683358D01*
X122634550Y-103660303D01*
X122640214Y-103637694D01*
X122648066Y-103615750D01*
X122658031Y-103594680D01*
X122670013Y-103574689D01*
X122683897Y-103555969D01*
X122699549Y-103538699D01*
X123106135Y-103132113D01*
X123123405Y-103116461D01*
X123142125Y-103102577D01*
X123162116Y-103090595D01*
X123183186Y-103080630D01*
X123205130Y-103072778D01*
X123227739Y-103067114D01*
X123250794Y-103063695D01*
X123274073Y-103062551D01*
X123297352Y-103063695D01*
X123297352Y-103063695D01*
G37*
D11*
X123238718Y-103671282D03*
D12*
X131773241Y-84552426D03*
D10*
G36*
X131384332Y-85577731D02*
G01*
X130747936Y-84941335D01*
X132162150Y-83527121D01*
X132798546Y-84163517D01*
X131384332Y-85577731D01*
X131384332Y-85577731D01*
G37*
D12*
X132671267Y-85450451D03*
D10*
G36*
X132282358Y-86475756D02*
G01*
X131645962Y-85839360D01*
X133060176Y-84425146D01*
X133696572Y-85061542D01*
X132282358Y-86475756D01*
X132282358Y-86475756D01*
G37*
D12*
X133569292Y-86348477D03*
D10*
G36*
X133180383Y-87373782D02*
G01*
X132543987Y-86737386D01*
X133958201Y-85323172D01*
X134594597Y-85959568D01*
X133180383Y-87373782D01*
X133180383Y-87373782D01*
G37*
D12*
X134467318Y-87246503D03*
D10*
G36*
X134078409Y-88271808D02*
G01*
X133442013Y-87635412D01*
X134856227Y-86221198D01*
X135492623Y-86857594D01*
X134078409Y-88271808D01*
X134078409Y-88271808D01*
G37*
D12*
X135365344Y-88144528D03*
D10*
G36*
X134976435Y-89169833D02*
G01*
X134340039Y-88533437D01*
X135754253Y-87119223D01*
X136390649Y-87755619D01*
X134976435Y-89169833D01*
X134976435Y-89169833D01*
G37*
D12*
X136263369Y-89042554D03*
D10*
G36*
X135874460Y-90067859D02*
G01*
X135238064Y-89431463D01*
X136652278Y-88017249D01*
X137288674Y-88653645D01*
X135874460Y-90067859D01*
X135874460Y-90067859D01*
G37*
D12*
X137161395Y-89940580D03*
D10*
G36*
X136772486Y-90965885D02*
G01*
X136136090Y-90329489D01*
X137550304Y-88915275D01*
X138186700Y-89551671D01*
X136772486Y-90965885D01*
X136772486Y-90965885D01*
G37*
D12*
X138059420Y-90838605D03*
D10*
G36*
X137670511Y-91863910D02*
G01*
X137034115Y-91227514D01*
X138448329Y-89813300D01*
X139084725Y-90449696D01*
X137670511Y-91863910D01*
X137670511Y-91863910D01*
G37*
D12*
X138957446Y-91736631D03*
D10*
G36*
X138568537Y-92761936D02*
G01*
X137932141Y-92125540D01*
X139346355Y-90711326D01*
X139982751Y-91347722D01*
X138568537Y-92761936D01*
X138568537Y-92761936D01*
G37*
D12*
X139855472Y-92634656D03*
D10*
G36*
X139466563Y-93659961D02*
G01*
X138830167Y-93023565D01*
X140244381Y-91609351D01*
X140880777Y-92245747D01*
X139466563Y-93659961D01*
X139466563Y-93659961D01*
G37*
D12*
X140753497Y-93532682D03*
D10*
G36*
X140364588Y-94557987D02*
G01*
X139728192Y-93921591D01*
X141142406Y-92507377D01*
X141778802Y-93143773D01*
X140364588Y-94557987D01*
X140364588Y-94557987D01*
G37*
D12*
X141651523Y-94430708D03*
D10*
G36*
X141262614Y-95456013D02*
G01*
X140626218Y-94819617D01*
X142040432Y-93405403D01*
X142676828Y-94041799D01*
X141262614Y-95456013D01*
X141262614Y-95456013D01*
G37*
D12*
X142549549Y-95328733D03*
D10*
G36*
X142160640Y-96354038D02*
G01*
X141524244Y-95717642D01*
X142938458Y-94303428D01*
X143574854Y-94939824D01*
X142160640Y-96354038D01*
X142160640Y-96354038D01*
G37*
D12*
X143447574Y-96226759D03*
D10*
G36*
X143058665Y-97252064D02*
G01*
X142422269Y-96615668D01*
X143836483Y-95201454D01*
X144472879Y-95837850D01*
X143058665Y-97252064D01*
X143058665Y-97252064D01*
G37*
D12*
X142185389Y-98903158D03*
D10*
G36*
X143210694Y-99292067D02*
G01*
X142574298Y-99928463D01*
X141160084Y-98514249D01*
X141796480Y-97877853D01*
X143210694Y-99292067D01*
X143210694Y-99292067D01*
G37*
D12*
X141287363Y-99801184D03*
D10*
G36*
X142312668Y-100190093D02*
G01*
X141676272Y-100826489D01*
X140262058Y-99412275D01*
X140898454Y-98775879D01*
X142312668Y-100190093D01*
X142312668Y-100190093D01*
G37*
D12*
X140389337Y-100699209D03*
D10*
G36*
X141414642Y-101088118D02*
G01*
X140778246Y-101724514D01*
X139364032Y-100310300D01*
X140000428Y-99673904D01*
X141414642Y-101088118D01*
X141414642Y-101088118D01*
G37*
D12*
X139491312Y-101597235D03*
D10*
G36*
X140516617Y-101986144D02*
G01*
X139880221Y-102622540D01*
X138466007Y-101208326D01*
X139102403Y-100571930D01*
X140516617Y-101986144D01*
X140516617Y-101986144D01*
G37*
D12*
X138593286Y-102495260D03*
D10*
G36*
X139618591Y-102884169D02*
G01*
X138982195Y-103520565D01*
X137567981Y-102106351D01*
X138204377Y-101469955D01*
X139618591Y-102884169D01*
X139618591Y-102884169D01*
G37*
D12*
X137695260Y-103393286D03*
D10*
G36*
X138720565Y-103782195D02*
G01*
X138084169Y-104418591D01*
X136669955Y-103004377D01*
X137306351Y-102367981D01*
X138720565Y-103782195D01*
X138720565Y-103782195D01*
G37*
D12*
X136797235Y-104291312D03*
D10*
G36*
X137822540Y-104680221D02*
G01*
X137186144Y-105316617D01*
X135771930Y-103902403D01*
X136408326Y-103266007D01*
X137822540Y-104680221D01*
X137822540Y-104680221D01*
G37*
D12*
X135899209Y-105189337D03*
D10*
G36*
X136924514Y-105578246D02*
G01*
X136288118Y-106214642D01*
X134873904Y-104800428D01*
X135510300Y-104164032D01*
X136924514Y-105578246D01*
X136924514Y-105578246D01*
G37*
D12*
X135001184Y-106087363D03*
D10*
G36*
X136026489Y-106476272D02*
G01*
X135390093Y-107112668D01*
X133975879Y-105698454D01*
X134612275Y-105062058D01*
X136026489Y-106476272D01*
X136026489Y-106476272D01*
G37*
D12*
X134103158Y-106985389D03*
D10*
G36*
X135128463Y-107374298D02*
G01*
X134492067Y-108010694D01*
X133077853Y-106596480D01*
X133714249Y-105960084D01*
X135128463Y-107374298D01*
X135128463Y-107374298D01*
G37*
D12*
X131426759Y-108247574D03*
D10*
G36*
X131037850Y-109272879D02*
G01*
X130401454Y-108636483D01*
X131815668Y-107222269D01*
X132452064Y-107858665D01*
X131037850Y-109272879D01*
X131037850Y-109272879D01*
G37*
D12*
X130528733Y-107349549D03*
D10*
G36*
X130139824Y-108374854D02*
G01*
X129503428Y-107738458D01*
X130917642Y-106324244D01*
X131554038Y-106960640D01*
X130139824Y-108374854D01*
X130139824Y-108374854D01*
G37*
D12*
X129630708Y-106451523D03*
D10*
G36*
X129241799Y-107476828D02*
G01*
X128605403Y-106840432D01*
X130019617Y-105426218D01*
X130656013Y-106062614D01*
X129241799Y-107476828D01*
X129241799Y-107476828D01*
G37*
D12*
X128732682Y-105553497D03*
D10*
G36*
X128343773Y-106578802D02*
G01*
X127707377Y-105942406D01*
X129121591Y-104528192D01*
X129757987Y-105164588D01*
X128343773Y-106578802D01*
X128343773Y-106578802D01*
G37*
D12*
X127834656Y-104655472D03*
D10*
G36*
X127445747Y-105680777D02*
G01*
X126809351Y-105044381D01*
X128223565Y-103630167D01*
X128859961Y-104266563D01*
X127445747Y-105680777D01*
X127445747Y-105680777D01*
G37*
D12*
X126936631Y-103757446D03*
D10*
G36*
X126547722Y-104782751D02*
G01*
X125911326Y-104146355D01*
X127325540Y-102732141D01*
X127961936Y-103368537D01*
X126547722Y-104782751D01*
X126547722Y-104782751D01*
G37*
D12*
X126038605Y-102859420D03*
D10*
G36*
X125649696Y-103884725D02*
G01*
X125013300Y-103248329D01*
X126427514Y-101834115D01*
X127063910Y-102470511D01*
X125649696Y-103884725D01*
X125649696Y-103884725D01*
G37*
D12*
X125140580Y-101961395D03*
D10*
G36*
X124751671Y-102986700D02*
G01*
X124115275Y-102350304D01*
X125529489Y-100936090D01*
X126165885Y-101572486D01*
X124751671Y-102986700D01*
X124751671Y-102986700D01*
G37*
D12*
X124242554Y-101063369D03*
D10*
G36*
X123853645Y-102088674D02*
G01*
X123217249Y-101452278D01*
X124631463Y-100038064D01*
X125267859Y-100674460D01*
X123853645Y-102088674D01*
X123853645Y-102088674D01*
G37*
D12*
X123344528Y-100165344D03*
D10*
G36*
X122955619Y-101190649D02*
G01*
X122319223Y-100554253D01*
X123733437Y-99140039D01*
X124369833Y-99776435D01*
X122955619Y-101190649D01*
X122955619Y-101190649D01*
G37*
D12*
X122446503Y-99267318D03*
D10*
G36*
X122057594Y-100292623D02*
G01*
X121421198Y-99656227D01*
X122835412Y-98242013D01*
X123471808Y-98878409D01*
X122057594Y-100292623D01*
X122057594Y-100292623D01*
G37*
D12*
X121548477Y-98369292D03*
D10*
G36*
X121159568Y-99394597D02*
G01*
X120523172Y-98758201D01*
X121937386Y-97343987D01*
X122573782Y-97980383D01*
X121159568Y-99394597D01*
X121159568Y-99394597D01*
G37*
D12*
X120650451Y-97471267D03*
D10*
G36*
X120261542Y-98496572D02*
G01*
X119625146Y-97860176D01*
X121039360Y-96445962D01*
X121675756Y-97082358D01*
X120261542Y-98496572D01*
X120261542Y-98496572D01*
G37*
D12*
X119752426Y-96573241D03*
D10*
G36*
X119363517Y-97598546D02*
G01*
X118727121Y-96962150D01*
X120141335Y-95547936D01*
X120777731Y-96184332D01*
X119363517Y-97598546D01*
X119363517Y-97598546D01*
G37*
D13*
X130359028Y-96573241D03*
D10*
G36*
X130359028Y-100108775D02*
G01*
X126823494Y-96573241D01*
X130359028Y-93037707D01*
X133894562Y-96573241D01*
X130359028Y-100108775D01*
X130359028Y-100108775D01*
G37*
D14*
X157697962Y-119175102D03*
D10*
G36*
X158101356Y-119732236D02*
G01*
X157036458Y-118986587D01*
X157294568Y-118617968D01*
X158359466Y-119363617D01*
X158101356Y-119732236D01*
X158101356Y-119732236D01*
G37*
D14*
X158070786Y-118642654D03*
D10*
G36*
X158474180Y-119199788D02*
G01*
X157409282Y-118454139D01*
X157667392Y-118085520D01*
X158732290Y-118831169D01*
X158474180Y-119199788D01*
X158474180Y-119199788D01*
G37*
D14*
X158443611Y-118110205D03*
D10*
G36*
X158847005Y-118667339D02*
G01*
X157782107Y-117921690D01*
X158040217Y-117553071D01*
X159105115Y-118298720D01*
X158847005Y-118667339D01*
X158847005Y-118667339D01*
G37*
D14*
X158816436Y-117577756D03*
D10*
G36*
X159219830Y-118134890D02*
G01*
X158154932Y-117389241D01*
X158413042Y-117020622D01*
X159477940Y-117766271D01*
X159219830Y-118134890D01*
X159219830Y-118134890D01*
G37*
D14*
X159189260Y-117045307D03*
D10*
G36*
X159592654Y-117602441D02*
G01*
X158527756Y-116856792D01*
X158785866Y-116488173D01*
X159850764Y-117233822D01*
X159592654Y-117602441D01*
X159592654Y-117602441D01*
G37*
D15*
X156347996Y-121190225D03*
D16*
X156122729Y-121032491D02*
X156573263Y-121347959D01*
D15*
X160621141Y-115087542D03*
D16*
X160395874Y-114929808D02*
X160846408Y-115245276D01*
D17*
X159374738Y-123492688D03*
D18*
X159108514Y-123306276D02*
X159640962Y-123679100D01*
D17*
X163819955Y-117144260D03*
D18*
X163553731Y-116957848D02*
X164086179Y-117330672D01*
D19*
X147200000Y-109800000D03*
X145300000Y-109800000D03*
X146250000Y-111800000D03*
X147200000Y-105800000D03*
X145300000Y-105800000D03*
X146250000Y-107800000D03*
D10*
G36*
X157874504Y-107801204D02*
G01*
X157898773Y-107804804D01*
X157922571Y-107810765D01*
X157945671Y-107819030D01*
X157967849Y-107829520D01*
X157988893Y-107842133D01*
X158008598Y-107856747D01*
X158026777Y-107873223D01*
X158043253Y-107891402D01*
X158057867Y-107911107D01*
X158070480Y-107932151D01*
X158080970Y-107954329D01*
X158089235Y-107977429D01*
X158095196Y-108001227D01*
X158098796Y-108025496D01*
X158100000Y-108050000D01*
X158100000Y-110150000D01*
X158098796Y-110174504D01*
X158095196Y-110198773D01*
X158089235Y-110222571D01*
X158080970Y-110245671D01*
X158070480Y-110267849D01*
X158057867Y-110288893D01*
X158043253Y-110308598D01*
X158026777Y-110326777D01*
X158008598Y-110343253D01*
X157988893Y-110357867D01*
X157967849Y-110370480D01*
X157945671Y-110380970D01*
X157922571Y-110389235D01*
X157898773Y-110395196D01*
X157874504Y-110398796D01*
X157850000Y-110400000D01*
X155750000Y-110400000D01*
X155725496Y-110398796D01*
X155701227Y-110395196D01*
X155677429Y-110389235D01*
X155654329Y-110380970D01*
X155632151Y-110370480D01*
X155611107Y-110357867D01*
X155591402Y-110343253D01*
X155573223Y-110326777D01*
X155556747Y-110308598D01*
X155542133Y-110288893D01*
X155529520Y-110267849D01*
X155519030Y-110245671D01*
X155510765Y-110222571D01*
X155504804Y-110198773D01*
X155501204Y-110174504D01*
X155500000Y-110150000D01*
X155500000Y-108050000D01*
X155501204Y-108025496D01*
X155504804Y-108001227D01*
X155510765Y-107977429D01*
X155519030Y-107954329D01*
X155529520Y-107932151D01*
X155542133Y-107911107D01*
X155556747Y-107891402D01*
X155573223Y-107873223D01*
X155591402Y-107856747D01*
X155611107Y-107842133D01*
X155632151Y-107829520D01*
X155654329Y-107819030D01*
X155677429Y-107810765D01*
X155701227Y-107804804D01*
X155725496Y-107801204D01*
X155750000Y-107800000D01*
X157850000Y-107800000D01*
X157874504Y-107801204D01*
X157874504Y-107801204D01*
G37*
D20*
X156800000Y-109100000D03*
D10*
G36*
X155618626Y-110625301D02*
G01*
X155624693Y-110626201D01*
X155630643Y-110627691D01*
X155636418Y-110629758D01*
X155641962Y-110632380D01*
X155647223Y-110635533D01*
X155652150Y-110639187D01*
X155656694Y-110643306D01*
X155660813Y-110647850D01*
X155664467Y-110652777D01*
X155667620Y-110658038D01*
X155670242Y-110663582D01*
X155672309Y-110669357D01*
X155673799Y-110675307D01*
X155674699Y-110681374D01*
X155675000Y-110687500D01*
X155675000Y-111387500D01*
X155674699Y-111393626D01*
X155673799Y-111399693D01*
X155672309Y-111405643D01*
X155670242Y-111411418D01*
X155667620Y-111416962D01*
X155664467Y-111422223D01*
X155660813Y-111427150D01*
X155656694Y-111431694D01*
X155652150Y-111435813D01*
X155647223Y-111439467D01*
X155641962Y-111442620D01*
X155636418Y-111445242D01*
X155630643Y-111447309D01*
X155624693Y-111448799D01*
X155618626Y-111449699D01*
X155612500Y-111450000D01*
X155487500Y-111450000D01*
X155481374Y-111449699D01*
X155475307Y-111448799D01*
X155469357Y-111447309D01*
X155463582Y-111445242D01*
X155458038Y-111442620D01*
X155452777Y-111439467D01*
X155447850Y-111435813D01*
X155443306Y-111431694D01*
X155439187Y-111427150D01*
X155435533Y-111422223D01*
X155432380Y-111416962D01*
X155429758Y-111411418D01*
X155427691Y-111405643D01*
X155426201Y-111399693D01*
X155425301Y-111393626D01*
X155425000Y-111387500D01*
X155425000Y-110687500D01*
X155425301Y-110681374D01*
X155426201Y-110675307D01*
X155427691Y-110669357D01*
X155429758Y-110663582D01*
X155432380Y-110658038D01*
X155435533Y-110652777D01*
X155439187Y-110647850D01*
X155443306Y-110643306D01*
X155447850Y-110639187D01*
X155452777Y-110635533D01*
X155458038Y-110632380D01*
X155463582Y-110629758D01*
X155469357Y-110627691D01*
X155475307Y-110626201D01*
X155481374Y-110625301D01*
X155487500Y-110625000D01*
X155612500Y-110625000D01*
X155618626Y-110625301D01*
X155618626Y-110625301D01*
G37*
D21*
X155550000Y-111037500D03*
D10*
G36*
X156118626Y-110625301D02*
G01*
X156124693Y-110626201D01*
X156130643Y-110627691D01*
X156136418Y-110629758D01*
X156141962Y-110632380D01*
X156147223Y-110635533D01*
X156152150Y-110639187D01*
X156156694Y-110643306D01*
X156160813Y-110647850D01*
X156164467Y-110652777D01*
X156167620Y-110658038D01*
X156170242Y-110663582D01*
X156172309Y-110669357D01*
X156173799Y-110675307D01*
X156174699Y-110681374D01*
X156175000Y-110687500D01*
X156175000Y-111387500D01*
X156174699Y-111393626D01*
X156173799Y-111399693D01*
X156172309Y-111405643D01*
X156170242Y-111411418D01*
X156167620Y-111416962D01*
X156164467Y-111422223D01*
X156160813Y-111427150D01*
X156156694Y-111431694D01*
X156152150Y-111435813D01*
X156147223Y-111439467D01*
X156141962Y-111442620D01*
X156136418Y-111445242D01*
X156130643Y-111447309D01*
X156124693Y-111448799D01*
X156118626Y-111449699D01*
X156112500Y-111450000D01*
X155987500Y-111450000D01*
X155981374Y-111449699D01*
X155975307Y-111448799D01*
X155969357Y-111447309D01*
X155963582Y-111445242D01*
X155958038Y-111442620D01*
X155952777Y-111439467D01*
X155947850Y-111435813D01*
X155943306Y-111431694D01*
X155939187Y-111427150D01*
X155935533Y-111422223D01*
X155932380Y-111416962D01*
X155929758Y-111411418D01*
X155927691Y-111405643D01*
X155926201Y-111399693D01*
X155925301Y-111393626D01*
X155925000Y-111387500D01*
X155925000Y-110687500D01*
X155925301Y-110681374D01*
X155926201Y-110675307D01*
X155927691Y-110669357D01*
X155929758Y-110663582D01*
X155932380Y-110658038D01*
X155935533Y-110652777D01*
X155939187Y-110647850D01*
X155943306Y-110643306D01*
X155947850Y-110639187D01*
X155952777Y-110635533D01*
X155958038Y-110632380D01*
X155963582Y-110629758D01*
X155969357Y-110627691D01*
X155975307Y-110626201D01*
X155981374Y-110625301D01*
X155987500Y-110625000D01*
X156112500Y-110625000D01*
X156118626Y-110625301D01*
X156118626Y-110625301D01*
G37*
D21*
X156050000Y-111037500D03*
D10*
G36*
X156618626Y-110625301D02*
G01*
X156624693Y-110626201D01*
X156630643Y-110627691D01*
X156636418Y-110629758D01*
X156641962Y-110632380D01*
X156647223Y-110635533D01*
X156652150Y-110639187D01*
X156656694Y-110643306D01*
X156660813Y-110647850D01*
X156664467Y-110652777D01*
X156667620Y-110658038D01*
X156670242Y-110663582D01*
X156672309Y-110669357D01*
X156673799Y-110675307D01*
X156674699Y-110681374D01*
X156675000Y-110687500D01*
X156675000Y-111387500D01*
X156674699Y-111393626D01*
X156673799Y-111399693D01*
X156672309Y-111405643D01*
X156670242Y-111411418D01*
X156667620Y-111416962D01*
X156664467Y-111422223D01*
X156660813Y-111427150D01*
X156656694Y-111431694D01*
X156652150Y-111435813D01*
X156647223Y-111439467D01*
X156641962Y-111442620D01*
X156636418Y-111445242D01*
X156630643Y-111447309D01*
X156624693Y-111448799D01*
X156618626Y-111449699D01*
X156612500Y-111450000D01*
X156487500Y-111450000D01*
X156481374Y-111449699D01*
X156475307Y-111448799D01*
X156469357Y-111447309D01*
X156463582Y-111445242D01*
X156458038Y-111442620D01*
X156452777Y-111439467D01*
X156447850Y-111435813D01*
X156443306Y-111431694D01*
X156439187Y-111427150D01*
X156435533Y-111422223D01*
X156432380Y-111416962D01*
X156429758Y-111411418D01*
X156427691Y-111405643D01*
X156426201Y-111399693D01*
X156425301Y-111393626D01*
X156425000Y-111387500D01*
X156425000Y-110687500D01*
X156425301Y-110681374D01*
X156426201Y-110675307D01*
X156427691Y-110669357D01*
X156429758Y-110663582D01*
X156432380Y-110658038D01*
X156435533Y-110652777D01*
X156439187Y-110647850D01*
X156443306Y-110643306D01*
X156447850Y-110639187D01*
X156452777Y-110635533D01*
X156458038Y-110632380D01*
X156463582Y-110629758D01*
X156469357Y-110627691D01*
X156475307Y-110626201D01*
X156481374Y-110625301D01*
X156487500Y-110625000D01*
X156612500Y-110625000D01*
X156618626Y-110625301D01*
X156618626Y-110625301D01*
G37*
D21*
X156550000Y-111037500D03*
D10*
G36*
X157118626Y-110625301D02*
G01*
X157124693Y-110626201D01*
X157130643Y-110627691D01*
X157136418Y-110629758D01*
X157141962Y-110632380D01*
X157147223Y-110635533D01*
X157152150Y-110639187D01*
X157156694Y-110643306D01*
X157160813Y-110647850D01*
X157164467Y-110652777D01*
X157167620Y-110658038D01*
X157170242Y-110663582D01*
X157172309Y-110669357D01*
X157173799Y-110675307D01*
X157174699Y-110681374D01*
X157175000Y-110687500D01*
X157175000Y-111387500D01*
X157174699Y-111393626D01*
X157173799Y-111399693D01*
X157172309Y-111405643D01*
X157170242Y-111411418D01*
X157167620Y-111416962D01*
X157164467Y-111422223D01*
X157160813Y-111427150D01*
X157156694Y-111431694D01*
X157152150Y-111435813D01*
X157147223Y-111439467D01*
X157141962Y-111442620D01*
X157136418Y-111445242D01*
X157130643Y-111447309D01*
X157124693Y-111448799D01*
X157118626Y-111449699D01*
X157112500Y-111450000D01*
X156987500Y-111450000D01*
X156981374Y-111449699D01*
X156975307Y-111448799D01*
X156969357Y-111447309D01*
X156963582Y-111445242D01*
X156958038Y-111442620D01*
X156952777Y-111439467D01*
X156947850Y-111435813D01*
X156943306Y-111431694D01*
X156939187Y-111427150D01*
X156935533Y-111422223D01*
X156932380Y-111416962D01*
X156929758Y-111411418D01*
X156927691Y-111405643D01*
X156926201Y-111399693D01*
X156925301Y-111393626D01*
X156925000Y-111387500D01*
X156925000Y-110687500D01*
X156925301Y-110681374D01*
X156926201Y-110675307D01*
X156927691Y-110669357D01*
X156929758Y-110663582D01*
X156932380Y-110658038D01*
X156935533Y-110652777D01*
X156939187Y-110647850D01*
X156943306Y-110643306D01*
X156947850Y-110639187D01*
X156952777Y-110635533D01*
X156958038Y-110632380D01*
X156963582Y-110629758D01*
X156969357Y-110627691D01*
X156975307Y-110626201D01*
X156981374Y-110625301D01*
X156987500Y-110625000D01*
X157112500Y-110625000D01*
X157118626Y-110625301D01*
X157118626Y-110625301D01*
G37*
D21*
X157050000Y-111037500D03*
D10*
G36*
X157618626Y-110625301D02*
G01*
X157624693Y-110626201D01*
X157630643Y-110627691D01*
X157636418Y-110629758D01*
X157641962Y-110632380D01*
X157647223Y-110635533D01*
X157652150Y-110639187D01*
X157656694Y-110643306D01*
X157660813Y-110647850D01*
X157664467Y-110652777D01*
X157667620Y-110658038D01*
X157670242Y-110663582D01*
X157672309Y-110669357D01*
X157673799Y-110675307D01*
X157674699Y-110681374D01*
X157675000Y-110687500D01*
X157675000Y-111387500D01*
X157674699Y-111393626D01*
X157673799Y-111399693D01*
X157672309Y-111405643D01*
X157670242Y-111411418D01*
X157667620Y-111416962D01*
X157664467Y-111422223D01*
X157660813Y-111427150D01*
X157656694Y-111431694D01*
X157652150Y-111435813D01*
X157647223Y-111439467D01*
X157641962Y-111442620D01*
X157636418Y-111445242D01*
X157630643Y-111447309D01*
X157624693Y-111448799D01*
X157618626Y-111449699D01*
X157612500Y-111450000D01*
X157487500Y-111450000D01*
X157481374Y-111449699D01*
X157475307Y-111448799D01*
X157469357Y-111447309D01*
X157463582Y-111445242D01*
X157458038Y-111442620D01*
X157452777Y-111439467D01*
X157447850Y-111435813D01*
X157443306Y-111431694D01*
X157439187Y-111427150D01*
X157435533Y-111422223D01*
X157432380Y-111416962D01*
X157429758Y-111411418D01*
X157427691Y-111405643D01*
X157426201Y-111399693D01*
X157425301Y-111393626D01*
X157425000Y-111387500D01*
X157425000Y-110687500D01*
X157425301Y-110681374D01*
X157426201Y-110675307D01*
X157427691Y-110669357D01*
X157429758Y-110663582D01*
X157432380Y-110658038D01*
X157435533Y-110652777D01*
X157439187Y-110647850D01*
X157443306Y-110643306D01*
X157447850Y-110639187D01*
X157452777Y-110635533D01*
X157458038Y-110632380D01*
X157463582Y-110629758D01*
X157469357Y-110627691D01*
X157475307Y-110626201D01*
X157481374Y-110625301D01*
X157487500Y-110625000D01*
X157612500Y-110625000D01*
X157618626Y-110625301D01*
X157618626Y-110625301D01*
G37*
D21*
X157550000Y-111037500D03*
D10*
G36*
X158118626Y-110625301D02*
G01*
X158124693Y-110626201D01*
X158130643Y-110627691D01*
X158136418Y-110629758D01*
X158141962Y-110632380D01*
X158147223Y-110635533D01*
X158152150Y-110639187D01*
X158156694Y-110643306D01*
X158160813Y-110647850D01*
X158164467Y-110652777D01*
X158167620Y-110658038D01*
X158170242Y-110663582D01*
X158172309Y-110669357D01*
X158173799Y-110675307D01*
X158174699Y-110681374D01*
X158175000Y-110687500D01*
X158175000Y-111387500D01*
X158174699Y-111393626D01*
X158173799Y-111399693D01*
X158172309Y-111405643D01*
X158170242Y-111411418D01*
X158167620Y-111416962D01*
X158164467Y-111422223D01*
X158160813Y-111427150D01*
X158156694Y-111431694D01*
X158152150Y-111435813D01*
X158147223Y-111439467D01*
X158141962Y-111442620D01*
X158136418Y-111445242D01*
X158130643Y-111447309D01*
X158124693Y-111448799D01*
X158118626Y-111449699D01*
X158112500Y-111450000D01*
X157987500Y-111450000D01*
X157981374Y-111449699D01*
X157975307Y-111448799D01*
X157969357Y-111447309D01*
X157963582Y-111445242D01*
X157958038Y-111442620D01*
X157952777Y-111439467D01*
X157947850Y-111435813D01*
X157943306Y-111431694D01*
X157939187Y-111427150D01*
X157935533Y-111422223D01*
X157932380Y-111416962D01*
X157929758Y-111411418D01*
X157927691Y-111405643D01*
X157926201Y-111399693D01*
X157925301Y-111393626D01*
X157925000Y-111387500D01*
X157925000Y-110687500D01*
X157925301Y-110681374D01*
X157926201Y-110675307D01*
X157927691Y-110669357D01*
X157929758Y-110663582D01*
X157932380Y-110658038D01*
X157935533Y-110652777D01*
X157939187Y-110647850D01*
X157943306Y-110643306D01*
X157947850Y-110639187D01*
X157952777Y-110635533D01*
X157958038Y-110632380D01*
X157963582Y-110629758D01*
X157969357Y-110627691D01*
X157975307Y-110626201D01*
X157981374Y-110625301D01*
X157987500Y-110625000D01*
X158112500Y-110625000D01*
X158118626Y-110625301D01*
X158118626Y-110625301D01*
G37*
D21*
X158050000Y-111037500D03*
D10*
G36*
X159093626Y-110225301D02*
G01*
X159099693Y-110226201D01*
X159105643Y-110227691D01*
X159111418Y-110229758D01*
X159116962Y-110232380D01*
X159122223Y-110235533D01*
X159127150Y-110239187D01*
X159131694Y-110243306D01*
X159135813Y-110247850D01*
X159139467Y-110252777D01*
X159142620Y-110258038D01*
X159145242Y-110263582D01*
X159147309Y-110269357D01*
X159148799Y-110275307D01*
X159149699Y-110281374D01*
X159150000Y-110287500D01*
X159150000Y-110412500D01*
X159149699Y-110418626D01*
X159148799Y-110424693D01*
X159147309Y-110430643D01*
X159145242Y-110436418D01*
X159142620Y-110441962D01*
X159139467Y-110447223D01*
X159135813Y-110452150D01*
X159131694Y-110456694D01*
X159127150Y-110460813D01*
X159122223Y-110464467D01*
X159116962Y-110467620D01*
X159111418Y-110470242D01*
X159105643Y-110472309D01*
X159099693Y-110473799D01*
X159093626Y-110474699D01*
X159087500Y-110475000D01*
X158387500Y-110475000D01*
X158381374Y-110474699D01*
X158375307Y-110473799D01*
X158369357Y-110472309D01*
X158363582Y-110470242D01*
X158358038Y-110467620D01*
X158352777Y-110464467D01*
X158347850Y-110460813D01*
X158343306Y-110456694D01*
X158339187Y-110452150D01*
X158335533Y-110447223D01*
X158332380Y-110441962D01*
X158329758Y-110436418D01*
X158327691Y-110430643D01*
X158326201Y-110424693D01*
X158325301Y-110418626D01*
X158325000Y-110412500D01*
X158325000Y-110287500D01*
X158325301Y-110281374D01*
X158326201Y-110275307D01*
X158327691Y-110269357D01*
X158329758Y-110263582D01*
X158332380Y-110258038D01*
X158335533Y-110252777D01*
X158339187Y-110247850D01*
X158343306Y-110243306D01*
X158347850Y-110239187D01*
X158352777Y-110235533D01*
X158358038Y-110232380D01*
X158363582Y-110229758D01*
X158369357Y-110227691D01*
X158375307Y-110226201D01*
X158381374Y-110225301D01*
X158387500Y-110225000D01*
X159087500Y-110225000D01*
X159093626Y-110225301D01*
X159093626Y-110225301D01*
G37*
D21*
X158737500Y-110350000D03*
D10*
G36*
X159093626Y-109725301D02*
G01*
X159099693Y-109726201D01*
X159105643Y-109727691D01*
X159111418Y-109729758D01*
X159116962Y-109732380D01*
X159122223Y-109735533D01*
X159127150Y-109739187D01*
X159131694Y-109743306D01*
X159135813Y-109747850D01*
X159139467Y-109752777D01*
X159142620Y-109758038D01*
X159145242Y-109763582D01*
X159147309Y-109769357D01*
X159148799Y-109775307D01*
X159149699Y-109781374D01*
X159150000Y-109787500D01*
X159150000Y-109912500D01*
X159149699Y-109918626D01*
X159148799Y-109924693D01*
X159147309Y-109930643D01*
X159145242Y-109936418D01*
X159142620Y-109941962D01*
X159139467Y-109947223D01*
X159135813Y-109952150D01*
X159131694Y-109956694D01*
X159127150Y-109960813D01*
X159122223Y-109964467D01*
X159116962Y-109967620D01*
X159111418Y-109970242D01*
X159105643Y-109972309D01*
X159099693Y-109973799D01*
X159093626Y-109974699D01*
X159087500Y-109975000D01*
X158387500Y-109975000D01*
X158381374Y-109974699D01*
X158375307Y-109973799D01*
X158369357Y-109972309D01*
X158363582Y-109970242D01*
X158358038Y-109967620D01*
X158352777Y-109964467D01*
X158347850Y-109960813D01*
X158343306Y-109956694D01*
X158339187Y-109952150D01*
X158335533Y-109947223D01*
X158332380Y-109941962D01*
X158329758Y-109936418D01*
X158327691Y-109930643D01*
X158326201Y-109924693D01*
X158325301Y-109918626D01*
X158325000Y-109912500D01*
X158325000Y-109787500D01*
X158325301Y-109781374D01*
X158326201Y-109775307D01*
X158327691Y-109769357D01*
X158329758Y-109763582D01*
X158332380Y-109758038D01*
X158335533Y-109752777D01*
X158339187Y-109747850D01*
X158343306Y-109743306D01*
X158347850Y-109739187D01*
X158352777Y-109735533D01*
X158358038Y-109732380D01*
X158363582Y-109729758D01*
X158369357Y-109727691D01*
X158375307Y-109726201D01*
X158381374Y-109725301D01*
X158387500Y-109725000D01*
X159087500Y-109725000D01*
X159093626Y-109725301D01*
X159093626Y-109725301D01*
G37*
D21*
X158737500Y-109850000D03*
D10*
G36*
X159093626Y-109225301D02*
G01*
X159099693Y-109226201D01*
X159105643Y-109227691D01*
X159111418Y-109229758D01*
X159116962Y-109232380D01*
X159122223Y-109235533D01*
X159127150Y-109239187D01*
X159131694Y-109243306D01*
X159135813Y-109247850D01*
X159139467Y-109252777D01*
X159142620Y-109258038D01*
X159145242Y-109263582D01*
X159147309Y-109269357D01*
X159148799Y-109275307D01*
X159149699Y-109281374D01*
X159150000Y-109287500D01*
X159150000Y-109412500D01*
X159149699Y-109418626D01*
X159148799Y-109424693D01*
X159147309Y-109430643D01*
X159145242Y-109436418D01*
X159142620Y-109441962D01*
X159139467Y-109447223D01*
X159135813Y-109452150D01*
X159131694Y-109456694D01*
X159127150Y-109460813D01*
X159122223Y-109464467D01*
X159116962Y-109467620D01*
X159111418Y-109470242D01*
X159105643Y-109472309D01*
X159099693Y-109473799D01*
X159093626Y-109474699D01*
X159087500Y-109475000D01*
X158387500Y-109475000D01*
X158381374Y-109474699D01*
X158375307Y-109473799D01*
X158369357Y-109472309D01*
X158363582Y-109470242D01*
X158358038Y-109467620D01*
X158352777Y-109464467D01*
X158347850Y-109460813D01*
X158343306Y-109456694D01*
X158339187Y-109452150D01*
X158335533Y-109447223D01*
X158332380Y-109441962D01*
X158329758Y-109436418D01*
X158327691Y-109430643D01*
X158326201Y-109424693D01*
X158325301Y-109418626D01*
X158325000Y-109412500D01*
X158325000Y-109287500D01*
X158325301Y-109281374D01*
X158326201Y-109275307D01*
X158327691Y-109269357D01*
X158329758Y-109263582D01*
X158332380Y-109258038D01*
X158335533Y-109252777D01*
X158339187Y-109247850D01*
X158343306Y-109243306D01*
X158347850Y-109239187D01*
X158352777Y-109235533D01*
X158358038Y-109232380D01*
X158363582Y-109229758D01*
X158369357Y-109227691D01*
X158375307Y-109226201D01*
X158381374Y-109225301D01*
X158387500Y-109225000D01*
X159087500Y-109225000D01*
X159093626Y-109225301D01*
X159093626Y-109225301D01*
G37*
D21*
X158737500Y-109350000D03*
D10*
G36*
X159093626Y-108725301D02*
G01*
X159099693Y-108726201D01*
X159105643Y-108727691D01*
X159111418Y-108729758D01*
X159116962Y-108732380D01*
X159122223Y-108735533D01*
X159127150Y-108739187D01*
X159131694Y-108743306D01*
X159135813Y-108747850D01*
X159139467Y-108752777D01*
X159142620Y-108758038D01*
X159145242Y-108763582D01*
X159147309Y-108769357D01*
X159148799Y-108775307D01*
X159149699Y-108781374D01*
X159150000Y-108787500D01*
X159150000Y-108912500D01*
X159149699Y-108918626D01*
X159148799Y-108924693D01*
X159147309Y-108930643D01*
X159145242Y-108936418D01*
X159142620Y-108941962D01*
X159139467Y-108947223D01*
X159135813Y-108952150D01*
X159131694Y-108956694D01*
X159127150Y-108960813D01*
X159122223Y-108964467D01*
X159116962Y-108967620D01*
X159111418Y-108970242D01*
X159105643Y-108972309D01*
X159099693Y-108973799D01*
X159093626Y-108974699D01*
X159087500Y-108975000D01*
X158387500Y-108975000D01*
X158381374Y-108974699D01*
X158375307Y-108973799D01*
X158369357Y-108972309D01*
X158363582Y-108970242D01*
X158358038Y-108967620D01*
X158352777Y-108964467D01*
X158347850Y-108960813D01*
X158343306Y-108956694D01*
X158339187Y-108952150D01*
X158335533Y-108947223D01*
X158332380Y-108941962D01*
X158329758Y-108936418D01*
X158327691Y-108930643D01*
X158326201Y-108924693D01*
X158325301Y-108918626D01*
X158325000Y-108912500D01*
X158325000Y-108787500D01*
X158325301Y-108781374D01*
X158326201Y-108775307D01*
X158327691Y-108769357D01*
X158329758Y-108763582D01*
X158332380Y-108758038D01*
X158335533Y-108752777D01*
X158339187Y-108747850D01*
X158343306Y-108743306D01*
X158347850Y-108739187D01*
X158352777Y-108735533D01*
X158358038Y-108732380D01*
X158363582Y-108729758D01*
X158369357Y-108727691D01*
X158375307Y-108726201D01*
X158381374Y-108725301D01*
X158387500Y-108725000D01*
X159087500Y-108725000D01*
X159093626Y-108725301D01*
X159093626Y-108725301D01*
G37*
D21*
X158737500Y-108850000D03*
D10*
G36*
X159093626Y-108225301D02*
G01*
X159099693Y-108226201D01*
X159105643Y-108227691D01*
X159111418Y-108229758D01*
X159116962Y-108232380D01*
X159122223Y-108235533D01*
X159127150Y-108239187D01*
X159131694Y-108243306D01*
X159135813Y-108247850D01*
X159139467Y-108252777D01*
X159142620Y-108258038D01*
X159145242Y-108263582D01*
X159147309Y-108269357D01*
X159148799Y-108275307D01*
X159149699Y-108281374D01*
X159150000Y-108287500D01*
X159150000Y-108412500D01*
X159149699Y-108418626D01*
X159148799Y-108424693D01*
X159147309Y-108430643D01*
X159145242Y-108436418D01*
X159142620Y-108441962D01*
X159139467Y-108447223D01*
X159135813Y-108452150D01*
X159131694Y-108456694D01*
X159127150Y-108460813D01*
X159122223Y-108464467D01*
X159116962Y-108467620D01*
X159111418Y-108470242D01*
X159105643Y-108472309D01*
X159099693Y-108473799D01*
X159093626Y-108474699D01*
X159087500Y-108475000D01*
X158387500Y-108475000D01*
X158381374Y-108474699D01*
X158375307Y-108473799D01*
X158369357Y-108472309D01*
X158363582Y-108470242D01*
X158358038Y-108467620D01*
X158352777Y-108464467D01*
X158347850Y-108460813D01*
X158343306Y-108456694D01*
X158339187Y-108452150D01*
X158335533Y-108447223D01*
X158332380Y-108441962D01*
X158329758Y-108436418D01*
X158327691Y-108430643D01*
X158326201Y-108424693D01*
X158325301Y-108418626D01*
X158325000Y-108412500D01*
X158325000Y-108287500D01*
X158325301Y-108281374D01*
X158326201Y-108275307D01*
X158327691Y-108269357D01*
X158329758Y-108263582D01*
X158332380Y-108258038D01*
X158335533Y-108252777D01*
X158339187Y-108247850D01*
X158343306Y-108243306D01*
X158347850Y-108239187D01*
X158352777Y-108235533D01*
X158358038Y-108232380D01*
X158363582Y-108229758D01*
X158369357Y-108227691D01*
X158375307Y-108226201D01*
X158381374Y-108225301D01*
X158387500Y-108225000D01*
X159087500Y-108225000D01*
X159093626Y-108225301D01*
X159093626Y-108225301D01*
G37*
D21*
X158737500Y-108350000D03*
D10*
G36*
X159093626Y-107725301D02*
G01*
X159099693Y-107726201D01*
X159105643Y-107727691D01*
X159111418Y-107729758D01*
X159116962Y-107732380D01*
X159122223Y-107735533D01*
X159127150Y-107739187D01*
X159131694Y-107743306D01*
X159135813Y-107747850D01*
X159139467Y-107752777D01*
X159142620Y-107758038D01*
X159145242Y-107763582D01*
X159147309Y-107769357D01*
X159148799Y-107775307D01*
X159149699Y-107781374D01*
X159150000Y-107787500D01*
X159150000Y-107912500D01*
X159149699Y-107918626D01*
X159148799Y-107924693D01*
X159147309Y-107930643D01*
X159145242Y-107936418D01*
X159142620Y-107941962D01*
X159139467Y-107947223D01*
X159135813Y-107952150D01*
X159131694Y-107956694D01*
X159127150Y-107960813D01*
X159122223Y-107964467D01*
X159116962Y-107967620D01*
X159111418Y-107970242D01*
X159105643Y-107972309D01*
X159099693Y-107973799D01*
X159093626Y-107974699D01*
X159087500Y-107975000D01*
X158387500Y-107975000D01*
X158381374Y-107974699D01*
X158375307Y-107973799D01*
X158369357Y-107972309D01*
X158363582Y-107970242D01*
X158358038Y-107967620D01*
X158352777Y-107964467D01*
X158347850Y-107960813D01*
X158343306Y-107956694D01*
X158339187Y-107952150D01*
X158335533Y-107947223D01*
X158332380Y-107941962D01*
X158329758Y-107936418D01*
X158327691Y-107930643D01*
X158326201Y-107924693D01*
X158325301Y-107918626D01*
X158325000Y-107912500D01*
X158325000Y-107787500D01*
X158325301Y-107781374D01*
X158326201Y-107775307D01*
X158327691Y-107769357D01*
X158329758Y-107763582D01*
X158332380Y-107758038D01*
X158335533Y-107752777D01*
X158339187Y-107747850D01*
X158343306Y-107743306D01*
X158347850Y-107739187D01*
X158352777Y-107735533D01*
X158358038Y-107732380D01*
X158363582Y-107729758D01*
X158369357Y-107727691D01*
X158375307Y-107726201D01*
X158381374Y-107725301D01*
X158387500Y-107725000D01*
X159087500Y-107725000D01*
X159093626Y-107725301D01*
X159093626Y-107725301D01*
G37*
D21*
X158737500Y-107850000D03*
D10*
G36*
X158118626Y-106750301D02*
G01*
X158124693Y-106751201D01*
X158130643Y-106752691D01*
X158136418Y-106754758D01*
X158141962Y-106757380D01*
X158147223Y-106760533D01*
X158152150Y-106764187D01*
X158156694Y-106768306D01*
X158160813Y-106772850D01*
X158164467Y-106777777D01*
X158167620Y-106783038D01*
X158170242Y-106788582D01*
X158172309Y-106794357D01*
X158173799Y-106800307D01*
X158174699Y-106806374D01*
X158175000Y-106812500D01*
X158175000Y-107512500D01*
X158174699Y-107518626D01*
X158173799Y-107524693D01*
X158172309Y-107530643D01*
X158170242Y-107536418D01*
X158167620Y-107541962D01*
X158164467Y-107547223D01*
X158160813Y-107552150D01*
X158156694Y-107556694D01*
X158152150Y-107560813D01*
X158147223Y-107564467D01*
X158141962Y-107567620D01*
X158136418Y-107570242D01*
X158130643Y-107572309D01*
X158124693Y-107573799D01*
X158118626Y-107574699D01*
X158112500Y-107575000D01*
X157987500Y-107575000D01*
X157981374Y-107574699D01*
X157975307Y-107573799D01*
X157969357Y-107572309D01*
X157963582Y-107570242D01*
X157958038Y-107567620D01*
X157952777Y-107564467D01*
X157947850Y-107560813D01*
X157943306Y-107556694D01*
X157939187Y-107552150D01*
X157935533Y-107547223D01*
X157932380Y-107541962D01*
X157929758Y-107536418D01*
X157927691Y-107530643D01*
X157926201Y-107524693D01*
X157925301Y-107518626D01*
X157925000Y-107512500D01*
X157925000Y-106812500D01*
X157925301Y-106806374D01*
X157926201Y-106800307D01*
X157927691Y-106794357D01*
X157929758Y-106788582D01*
X157932380Y-106783038D01*
X157935533Y-106777777D01*
X157939187Y-106772850D01*
X157943306Y-106768306D01*
X157947850Y-106764187D01*
X157952777Y-106760533D01*
X157958038Y-106757380D01*
X157963582Y-106754758D01*
X157969357Y-106752691D01*
X157975307Y-106751201D01*
X157981374Y-106750301D01*
X157987500Y-106750000D01*
X158112500Y-106750000D01*
X158118626Y-106750301D01*
X158118626Y-106750301D01*
G37*
D21*
X158050000Y-107162500D03*
D10*
G36*
X157618626Y-106750301D02*
G01*
X157624693Y-106751201D01*
X157630643Y-106752691D01*
X157636418Y-106754758D01*
X157641962Y-106757380D01*
X157647223Y-106760533D01*
X157652150Y-106764187D01*
X157656694Y-106768306D01*
X157660813Y-106772850D01*
X157664467Y-106777777D01*
X157667620Y-106783038D01*
X157670242Y-106788582D01*
X157672309Y-106794357D01*
X157673799Y-106800307D01*
X157674699Y-106806374D01*
X157675000Y-106812500D01*
X157675000Y-107512500D01*
X157674699Y-107518626D01*
X157673799Y-107524693D01*
X157672309Y-107530643D01*
X157670242Y-107536418D01*
X157667620Y-107541962D01*
X157664467Y-107547223D01*
X157660813Y-107552150D01*
X157656694Y-107556694D01*
X157652150Y-107560813D01*
X157647223Y-107564467D01*
X157641962Y-107567620D01*
X157636418Y-107570242D01*
X157630643Y-107572309D01*
X157624693Y-107573799D01*
X157618626Y-107574699D01*
X157612500Y-107575000D01*
X157487500Y-107575000D01*
X157481374Y-107574699D01*
X157475307Y-107573799D01*
X157469357Y-107572309D01*
X157463582Y-107570242D01*
X157458038Y-107567620D01*
X157452777Y-107564467D01*
X157447850Y-107560813D01*
X157443306Y-107556694D01*
X157439187Y-107552150D01*
X157435533Y-107547223D01*
X157432380Y-107541962D01*
X157429758Y-107536418D01*
X157427691Y-107530643D01*
X157426201Y-107524693D01*
X157425301Y-107518626D01*
X157425000Y-107512500D01*
X157425000Y-106812500D01*
X157425301Y-106806374D01*
X157426201Y-106800307D01*
X157427691Y-106794357D01*
X157429758Y-106788582D01*
X157432380Y-106783038D01*
X157435533Y-106777777D01*
X157439187Y-106772850D01*
X157443306Y-106768306D01*
X157447850Y-106764187D01*
X157452777Y-106760533D01*
X157458038Y-106757380D01*
X157463582Y-106754758D01*
X157469357Y-106752691D01*
X157475307Y-106751201D01*
X157481374Y-106750301D01*
X157487500Y-106750000D01*
X157612500Y-106750000D01*
X157618626Y-106750301D01*
X157618626Y-106750301D01*
G37*
D21*
X157550000Y-107162500D03*
D10*
G36*
X157118626Y-106750301D02*
G01*
X157124693Y-106751201D01*
X157130643Y-106752691D01*
X157136418Y-106754758D01*
X157141962Y-106757380D01*
X157147223Y-106760533D01*
X157152150Y-106764187D01*
X157156694Y-106768306D01*
X157160813Y-106772850D01*
X157164467Y-106777777D01*
X157167620Y-106783038D01*
X157170242Y-106788582D01*
X157172309Y-106794357D01*
X157173799Y-106800307D01*
X157174699Y-106806374D01*
X157175000Y-106812500D01*
X157175000Y-107512500D01*
X157174699Y-107518626D01*
X157173799Y-107524693D01*
X157172309Y-107530643D01*
X157170242Y-107536418D01*
X157167620Y-107541962D01*
X157164467Y-107547223D01*
X157160813Y-107552150D01*
X157156694Y-107556694D01*
X157152150Y-107560813D01*
X157147223Y-107564467D01*
X157141962Y-107567620D01*
X157136418Y-107570242D01*
X157130643Y-107572309D01*
X157124693Y-107573799D01*
X157118626Y-107574699D01*
X157112500Y-107575000D01*
X156987500Y-107575000D01*
X156981374Y-107574699D01*
X156975307Y-107573799D01*
X156969357Y-107572309D01*
X156963582Y-107570242D01*
X156958038Y-107567620D01*
X156952777Y-107564467D01*
X156947850Y-107560813D01*
X156943306Y-107556694D01*
X156939187Y-107552150D01*
X156935533Y-107547223D01*
X156932380Y-107541962D01*
X156929758Y-107536418D01*
X156927691Y-107530643D01*
X156926201Y-107524693D01*
X156925301Y-107518626D01*
X156925000Y-107512500D01*
X156925000Y-106812500D01*
X156925301Y-106806374D01*
X156926201Y-106800307D01*
X156927691Y-106794357D01*
X156929758Y-106788582D01*
X156932380Y-106783038D01*
X156935533Y-106777777D01*
X156939187Y-106772850D01*
X156943306Y-106768306D01*
X156947850Y-106764187D01*
X156952777Y-106760533D01*
X156958038Y-106757380D01*
X156963582Y-106754758D01*
X156969357Y-106752691D01*
X156975307Y-106751201D01*
X156981374Y-106750301D01*
X156987500Y-106750000D01*
X157112500Y-106750000D01*
X157118626Y-106750301D01*
X157118626Y-106750301D01*
G37*
D21*
X157050000Y-107162500D03*
D10*
G36*
X156618626Y-106750301D02*
G01*
X156624693Y-106751201D01*
X156630643Y-106752691D01*
X156636418Y-106754758D01*
X156641962Y-106757380D01*
X156647223Y-106760533D01*
X156652150Y-106764187D01*
X156656694Y-106768306D01*
X156660813Y-106772850D01*
X156664467Y-106777777D01*
X156667620Y-106783038D01*
X156670242Y-106788582D01*
X156672309Y-106794357D01*
X156673799Y-106800307D01*
X156674699Y-106806374D01*
X156675000Y-106812500D01*
X156675000Y-107512500D01*
X156674699Y-107518626D01*
X156673799Y-107524693D01*
X156672309Y-107530643D01*
X156670242Y-107536418D01*
X156667620Y-107541962D01*
X156664467Y-107547223D01*
X156660813Y-107552150D01*
X156656694Y-107556694D01*
X156652150Y-107560813D01*
X156647223Y-107564467D01*
X156641962Y-107567620D01*
X156636418Y-107570242D01*
X156630643Y-107572309D01*
X156624693Y-107573799D01*
X156618626Y-107574699D01*
X156612500Y-107575000D01*
X156487500Y-107575000D01*
X156481374Y-107574699D01*
X156475307Y-107573799D01*
X156469357Y-107572309D01*
X156463582Y-107570242D01*
X156458038Y-107567620D01*
X156452777Y-107564467D01*
X156447850Y-107560813D01*
X156443306Y-107556694D01*
X156439187Y-107552150D01*
X156435533Y-107547223D01*
X156432380Y-107541962D01*
X156429758Y-107536418D01*
X156427691Y-107530643D01*
X156426201Y-107524693D01*
X156425301Y-107518626D01*
X156425000Y-107512500D01*
X156425000Y-106812500D01*
X156425301Y-106806374D01*
X156426201Y-106800307D01*
X156427691Y-106794357D01*
X156429758Y-106788582D01*
X156432380Y-106783038D01*
X156435533Y-106777777D01*
X156439187Y-106772850D01*
X156443306Y-106768306D01*
X156447850Y-106764187D01*
X156452777Y-106760533D01*
X156458038Y-106757380D01*
X156463582Y-106754758D01*
X156469357Y-106752691D01*
X156475307Y-106751201D01*
X156481374Y-106750301D01*
X156487500Y-106750000D01*
X156612500Y-106750000D01*
X156618626Y-106750301D01*
X156618626Y-106750301D01*
G37*
D21*
X156550000Y-107162500D03*
D10*
G36*
X156118626Y-106750301D02*
G01*
X156124693Y-106751201D01*
X156130643Y-106752691D01*
X156136418Y-106754758D01*
X156141962Y-106757380D01*
X156147223Y-106760533D01*
X156152150Y-106764187D01*
X156156694Y-106768306D01*
X156160813Y-106772850D01*
X156164467Y-106777777D01*
X156167620Y-106783038D01*
X156170242Y-106788582D01*
X156172309Y-106794357D01*
X156173799Y-106800307D01*
X156174699Y-106806374D01*
X156175000Y-106812500D01*
X156175000Y-107512500D01*
X156174699Y-107518626D01*
X156173799Y-107524693D01*
X156172309Y-107530643D01*
X156170242Y-107536418D01*
X156167620Y-107541962D01*
X156164467Y-107547223D01*
X156160813Y-107552150D01*
X156156694Y-107556694D01*
X156152150Y-107560813D01*
X156147223Y-107564467D01*
X156141962Y-107567620D01*
X156136418Y-107570242D01*
X156130643Y-107572309D01*
X156124693Y-107573799D01*
X156118626Y-107574699D01*
X156112500Y-107575000D01*
X155987500Y-107575000D01*
X155981374Y-107574699D01*
X155975307Y-107573799D01*
X155969357Y-107572309D01*
X155963582Y-107570242D01*
X155958038Y-107567620D01*
X155952777Y-107564467D01*
X155947850Y-107560813D01*
X155943306Y-107556694D01*
X155939187Y-107552150D01*
X155935533Y-107547223D01*
X155932380Y-107541962D01*
X155929758Y-107536418D01*
X155927691Y-107530643D01*
X155926201Y-107524693D01*
X155925301Y-107518626D01*
X155925000Y-107512500D01*
X155925000Y-106812500D01*
X155925301Y-106806374D01*
X155926201Y-106800307D01*
X155927691Y-106794357D01*
X155929758Y-106788582D01*
X155932380Y-106783038D01*
X155935533Y-106777777D01*
X155939187Y-106772850D01*
X155943306Y-106768306D01*
X155947850Y-106764187D01*
X155952777Y-106760533D01*
X155958038Y-106757380D01*
X155963582Y-106754758D01*
X155969357Y-106752691D01*
X155975307Y-106751201D01*
X155981374Y-106750301D01*
X155987500Y-106750000D01*
X156112500Y-106750000D01*
X156118626Y-106750301D01*
X156118626Y-106750301D01*
G37*
D21*
X156050000Y-107162500D03*
D10*
G36*
X155618626Y-106750301D02*
G01*
X155624693Y-106751201D01*
X155630643Y-106752691D01*
X155636418Y-106754758D01*
X155641962Y-106757380D01*
X155647223Y-106760533D01*
X155652150Y-106764187D01*
X155656694Y-106768306D01*
X155660813Y-106772850D01*
X155664467Y-106777777D01*
X155667620Y-106783038D01*
X155670242Y-106788582D01*
X155672309Y-106794357D01*
X155673799Y-106800307D01*
X155674699Y-106806374D01*
X155675000Y-106812500D01*
X155675000Y-107512500D01*
X155674699Y-107518626D01*
X155673799Y-107524693D01*
X155672309Y-107530643D01*
X155670242Y-107536418D01*
X155667620Y-107541962D01*
X155664467Y-107547223D01*
X155660813Y-107552150D01*
X155656694Y-107556694D01*
X155652150Y-107560813D01*
X155647223Y-107564467D01*
X155641962Y-107567620D01*
X155636418Y-107570242D01*
X155630643Y-107572309D01*
X155624693Y-107573799D01*
X155618626Y-107574699D01*
X155612500Y-107575000D01*
X155487500Y-107575000D01*
X155481374Y-107574699D01*
X155475307Y-107573799D01*
X155469357Y-107572309D01*
X155463582Y-107570242D01*
X155458038Y-107567620D01*
X155452777Y-107564467D01*
X155447850Y-107560813D01*
X155443306Y-107556694D01*
X155439187Y-107552150D01*
X155435533Y-107547223D01*
X155432380Y-107541962D01*
X155429758Y-107536418D01*
X155427691Y-107530643D01*
X155426201Y-107524693D01*
X155425301Y-107518626D01*
X155425000Y-107512500D01*
X155425000Y-106812500D01*
X155425301Y-106806374D01*
X155426201Y-106800307D01*
X155427691Y-106794357D01*
X155429758Y-106788582D01*
X155432380Y-106783038D01*
X155435533Y-106777777D01*
X155439187Y-106772850D01*
X155443306Y-106768306D01*
X155447850Y-106764187D01*
X155452777Y-106760533D01*
X155458038Y-106757380D01*
X155463582Y-106754758D01*
X155469357Y-106752691D01*
X155475307Y-106751201D01*
X155481374Y-106750301D01*
X155487500Y-106750000D01*
X155612500Y-106750000D01*
X155618626Y-106750301D01*
X155618626Y-106750301D01*
G37*
D21*
X155550000Y-107162500D03*
D10*
G36*
X155218626Y-107725301D02*
G01*
X155224693Y-107726201D01*
X155230643Y-107727691D01*
X155236418Y-107729758D01*
X155241962Y-107732380D01*
X155247223Y-107735533D01*
X155252150Y-107739187D01*
X155256694Y-107743306D01*
X155260813Y-107747850D01*
X155264467Y-107752777D01*
X155267620Y-107758038D01*
X155270242Y-107763582D01*
X155272309Y-107769357D01*
X155273799Y-107775307D01*
X155274699Y-107781374D01*
X155275000Y-107787500D01*
X155275000Y-107912500D01*
X155274699Y-107918626D01*
X155273799Y-107924693D01*
X155272309Y-107930643D01*
X155270242Y-107936418D01*
X155267620Y-107941962D01*
X155264467Y-107947223D01*
X155260813Y-107952150D01*
X155256694Y-107956694D01*
X155252150Y-107960813D01*
X155247223Y-107964467D01*
X155241962Y-107967620D01*
X155236418Y-107970242D01*
X155230643Y-107972309D01*
X155224693Y-107973799D01*
X155218626Y-107974699D01*
X155212500Y-107975000D01*
X154512500Y-107975000D01*
X154506374Y-107974699D01*
X154500307Y-107973799D01*
X154494357Y-107972309D01*
X154488582Y-107970242D01*
X154483038Y-107967620D01*
X154477777Y-107964467D01*
X154472850Y-107960813D01*
X154468306Y-107956694D01*
X154464187Y-107952150D01*
X154460533Y-107947223D01*
X154457380Y-107941962D01*
X154454758Y-107936418D01*
X154452691Y-107930643D01*
X154451201Y-107924693D01*
X154450301Y-107918626D01*
X154450000Y-107912500D01*
X154450000Y-107787500D01*
X154450301Y-107781374D01*
X154451201Y-107775307D01*
X154452691Y-107769357D01*
X154454758Y-107763582D01*
X154457380Y-107758038D01*
X154460533Y-107752777D01*
X154464187Y-107747850D01*
X154468306Y-107743306D01*
X154472850Y-107739187D01*
X154477777Y-107735533D01*
X154483038Y-107732380D01*
X154488582Y-107729758D01*
X154494357Y-107727691D01*
X154500307Y-107726201D01*
X154506374Y-107725301D01*
X154512500Y-107725000D01*
X155212500Y-107725000D01*
X155218626Y-107725301D01*
X155218626Y-107725301D01*
G37*
D21*
X154862500Y-107850000D03*
D10*
G36*
X155218626Y-108225301D02*
G01*
X155224693Y-108226201D01*
X155230643Y-108227691D01*
X155236418Y-108229758D01*
X155241962Y-108232380D01*
X155247223Y-108235533D01*
X155252150Y-108239187D01*
X155256694Y-108243306D01*
X155260813Y-108247850D01*
X155264467Y-108252777D01*
X155267620Y-108258038D01*
X155270242Y-108263582D01*
X155272309Y-108269357D01*
X155273799Y-108275307D01*
X155274699Y-108281374D01*
X155275000Y-108287500D01*
X155275000Y-108412500D01*
X155274699Y-108418626D01*
X155273799Y-108424693D01*
X155272309Y-108430643D01*
X155270242Y-108436418D01*
X155267620Y-108441962D01*
X155264467Y-108447223D01*
X155260813Y-108452150D01*
X155256694Y-108456694D01*
X155252150Y-108460813D01*
X155247223Y-108464467D01*
X155241962Y-108467620D01*
X155236418Y-108470242D01*
X155230643Y-108472309D01*
X155224693Y-108473799D01*
X155218626Y-108474699D01*
X155212500Y-108475000D01*
X154512500Y-108475000D01*
X154506374Y-108474699D01*
X154500307Y-108473799D01*
X154494357Y-108472309D01*
X154488582Y-108470242D01*
X154483038Y-108467620D01*
X154477777Y-108464467D01*
X154472850Y-108460813D01*
X154468306Y-108456694D01*
X154464187Y-108452150D01*
X154460533Y-108447223D01*
X154457380Y-108441962D01*
X154454758Y-108436418D01*
X154452691Y-108430643D01*
X154451201Y-108424693D01*
X154450301Y-108418626D01*
X154450000Y-108412500D01*
X154450000Y-108287500D01*
X154450301Y-108281374D01*
X154451201Y-108275307D01*
X154452691Y-108269357D01*
X154454758Y-108263582D01*
X154457380Y-108258038D01*
X154460533Y-108252777D01*
X154464187Y-108247850D01*
X154468306Y-108243306D01*
X154472850Y-108239187D01*
X154477777Y-108235533D01*
X154483038Y-108232380D01*
X154488582Y-108229758D01*
X154494357Y-108227691D01*
X154500307Y-108226201D01*
X154506374Y-108225301D01*
X154512500Y-108225000D01*
X155212500Y-108225000D01*
X155218626Y-108225301D01*
X155218626Y-108225301D01*
G37*
D21*
X154862500Y-108350000D03*
D10*
G36*
X155218626Y-108725301D02*
G01*
X155224693Y-108726201D01*
X155230643Y-108727691D01*
X155236418Y-108729758D01*
X155241962Y-108732380D01*
X155247223Y-108735533D01*
X155252150Y-108739187D01*
X155256694Y-108743306D01*
X155260813Y-108747850D01*
X155264467Y-108752777D01*
X155267620Y-108758038D01*
X155270242Y-108763582D01*
X155272309Y-108769357D01*
X155273799Y-108775307D01*
X155274699Y-108781374D01*
X155275000Y-108787500D01*
X155275000Y-108912500D01*
X155274699Y-108918626D01*
X155273799Y-108924693D01*
X155272309Y-108930643D01*
X155270242Y-108936418D01*
X155267620Y-108941962D01*
X155264467Y-108947223D01*
X155260813Y-108952150D01*
X155256694Y-108956694D01*
X155252150Y-108960813D01*
X155247223Y-108964467D01*
X155241962Y-108967620D01*
X155236418Y-108970242D01*
X155230643Y-108972309D01*
X155224693Y-108973799D01*
X155218626Y-108974699D01*
X155212500Y-108975000D01*
X154512500Y-108975000D01*
X154506374Y-108974699D01*
X154500307Y-108973799D01*
X154494357Y-108972309D01*
X154488582Y-108970242D01*
X154483038Y-108967620D01*
X154477777Y-108964467D01*
X154472850Y-108960813D01*
X154468306Y-108956694D01*
X154464187Y-108952150D01*
X154460533Y-108947223D01*
X154457380Y-108941962D01*
X154454758Y-108936418D01*
X154452691Y-108930643D01*
X154451201Y-108924693D01*
X154450301Y-108918626D01*
X154450000Y-108912500D01*
X154450000Y-108787500D01*
X154450301Y-108781374D01*
X154451201Y-108775307D01*
X154452691Y-108769357D01*
X154454758Y-108763582D01*
X154457380Y-108758038D01*
X154460533Y-108752777D01*
X154464187Y-108747850D01*
X154468306Y-108743306D01*
X154472850Y-108739187D01*
X154477777Y-108735533D01*
X154483038Y-108732380D01*
X154488582Y-108729758D01*
X154494357Y-108727691D01*
X154500307Y-108726201D01*
X154506374Y-108725301D01*
X154512500Y-108725000D01*
X155212500Y-108725000D01*
X155218626Y-108725301D01*
X155218626Y-108725301D01*
G37*
D21*
X154862500Y-108850000D03*
D10*
G36*
X155218626Y-109225301D02*
G01*
X155224693Y-109226201D01*
X155230643Y-109227691D01*
X155236418Y-109229758D01*
X155241962Y-109232380D01*
X155247223Y-109235533D01*
X155252150Y-109239187D01*
X155256694Y-109243306D01*
X155260813Y-109247850D01*
X155264467Y-109252777D01*
X155267620Y-109258038D01*
X155270242Y-109263582D01*
X155272309Y-109269357D01*
X155273799Y-109275307D01*
X155274699Y-109281374D01*
X155275000Y-109287500D01*
X155275000Y-109412500D01*
X155274699Y-109418626D01*
X155273799Y-109424693D01*
X155272309Y-109430643D01*
X155270242Y-109436418D01*
X155267620Y-109441962D01*
X155264467Y-109447223D01*
X155260813Y-109452150D01*
X155256694Y-109456694D01*
X155252150Y-109460813D01*
X155247223Y-109464467D01*
X155241962Y-109467620D01*
X155236418Y-109470242D01*
X155230643Y-109472309D01*
X155224693Y-109473799D01*
X155218626Y-109474699D01*
X155212500Y-109475000D01*
X154512500Y-109475000D01*
X154506374Y-109474699D01*
X154500307Y-109473799D01*
X154494357Y-109472309D01*
X154488582Y-109470242D01*
X154483038Y-109467620D01*
X154477777Y-109464467D01*
X154472850Y-109460813D01*
X154468306Y-109456694D01*
X154464187Y-109452150D01*
X154460533Y-109447223D01*
X154457380Y-109441962D01*
X154454758Y-109436418D01*
X154452691Y-109430643D01*
X154451201Y-109424693D01*
X154450301Y-109418626D01*
X154450000Y-109412500D01*
X154450000Y-109287500D01*
X154450301Y-109281374D01*
X154451201Y-109275307D01*
X154452691Y-109269357D01*
X154454758Y-109263582D01*
X154457380Y-109258038D01*
X154460533Y-109252777D01*
X154464187Y-109247850D01*
X154468306Y-109243306D01*
X154472850Y-109239187D01*
X154477777Y-109235533D01*
X154483038Y-109232380D01*
X154488582Y-109229758D01*
X154494357Y-109227691D01*
X154500307Y-109226201D01*
X154506374Y-109225301D01*
X154512500Y-109225000D01*
X155212500Y-109225000D01*
X155218626Y-109225301D01*
X155218626Y-109225301D01*
G37*
D21*
X154862500Y-109350000D03*
D10*
G36*
X155218626Y-109725301D02*
G01*
X155224693Y-109726201D01*
X155230643Y-109727691D01*
X155236418Y-109729758D01*
X155241962Y-109732380D01*
X155247223Y-109735533D01*
X155252150Y-109739187D01*
X155256694Y-109743306D01*
X155260813Y-109747850D01*
X155264467Y-109752777D01*
X155267620Y-109758038D01*
X155270242Y-109763582D01*
X155272309Y-109769357D01*
X155273799Y-109775307D01*
X155274699Y-109781374D01*
X155275000Y-109787500D01*
X155275000Y-109912500D01*
X155274699Y-109918626D01*
X155273799Y-109924693D01*
X155272309Y-109930643D01*
X155270242Y-109936418D01*
X155267620Y-109941962D01*
X155264467Y-109947223D01*
X155260813Y-109952150D01*
X155256694Y-109956694D01*
X155252150Y-109960813D01*
X155247223Y-109964467D01*
X155241962Y-109967620D01*
X155236418Y-109970242D01*
X155230643Y-109972309D01*
X155224693Y-109973799D01*
X155218626Y-109974699D01*
X155212500Y-109975000D01*
X154512500Y-109975000D01*
X154506374Y-109974699D01*
X154500307Y-109973799D01*
X154494357Y-109972309D01*
X154488582Y-109970242D01*
X154483038Y-109967620D01*
X154477777Y-109964467D01*
X154472850Y-109960813D01*
X154468306Y-109956694D01*
X154464187Y-109952150D01*
X154460533Y-109947223D01*
X154457380Y-109941962D01*
X154454758Y-109936418D01*
X154452691Y-109930643D01*
X154451201Y-109924693D01*
X154450301Y-109918626D01*
X154450000Y-109912500D01*
X154450000Y-109787500D01*
X154450301Y-109781374D01*
X154451201Y-109775307D01*
X154452691Y-109769357D01*
X154454758Y-109763582D01*
X154457380Y-109758038D01*
X154460533Y-109752777D01*
X154464187Y-109747850D01*
X154468306Y-109743306D01*
X154472850Y-109739187D01*
X154477777Y-109735533D01*
X154483038Y-109732380D01*
X154488582Y-109729758D01*
X154494357Y-109727691D01*
X154500307Y-109726201D01*
X154506374Y-109725301D01*
X154512500Y-109725000D01*
X155212500Y-109725000D01*
X155218626Y-109725301D01*
X155218626Y-109725301D01*
G37*
D21*
X154862500Y-109850000D03*
D10*
G36*
X155218626Y-110225301D02*
G01*
X155224693Y-110226201D01*
X155230643Y-110227691D01*
X155236418Y-110229758D01*
X155241962Y-110232380D01*
X155247223Y-110235533D01*
X155252150Y-110239187D01*
X155256694Y-110243306D01*
X155260813Y-110247850D01*
X155264467Y-110252777D01*
X155267620Y-110258038D01*
X155270242Y-110263582D01*
X155272309Y-110269357D01*
X155273799Y-110275307D01*
X155274699Y-110281374D01*
X155275000Y-110287500D01*
X155275000Y-110412500D01*
X155274699Y-110418626D01*
X155273799Y-110424693D01*
X155272309Y-110430643D01*
X155270242Y-110436418D01*
X155267620Y-110441962D01*
X155264467Y-110447223D01*
X155260813Y-110452150D01*
X155256694Y-110456694D01*
X155252150Y-110460813D01*
X155247223Y-110464467D01*
X155241962Y-110467620D01*
X155236418Y-110470242D01*
X155230643Y-110472309D01*
X155224693Y-110473799D01*
X155218626Y-110474699D01*
X155212500Y-110475000D01*
X154512500Y-110475000D01*
X154506374Y-110474699D01*
X154500307Y-110473799D01*
X154494357Y-110472309D01*
X154488582Y-110470242D01*
X154483038Y-110467620D01*
X154477777Y-110464467D01*
X154472850Y-110460813D01*
X154468306Y-110456694D01*
X154464187Y-110452150D01*
X154460533Y-110447223D01*
X154457380Y-110441962D01*
X154454758Y-110436418D01*
X154452691Y-110430643D01*
X154451201Y-110424693D01*
X154450301Y-110418626D01*
X154450000Y-110412500D01*
X154450000Y-110287500D01*
X154450301Y-110281374D01*
X154451201Y-110275307D01*
X154452691Y-110269357D01*
X154454758Y-110263582D01*
X154457380Y-110258038D01*
X154460533Y-110252777D01*
X154464187Y-110247850D01*
X154468306Y-110243306D01*
X154472850Y-110239187D01*
X154477777Y-110235533D01*
X154483038Y-110232380D01*
X154488582Y-110229758D01*
X154494357Y-110227691D01*
X154500307Y-110226201D01*
X154506374Y-110225301D01*
X154512500Y-110225000D01*
X155212500Y-110225000D01*
X155218626Y-110225301D01*
X155218626Y-110225301D01*
G37*
D21*
X154862500Y-110350000D03*
D10*
G36*
X162385779Y-110526144D02*
G01*
X162408834Y-110529563D01*
X162431443Y-110535227D01*
X162453387Y-110543079D01*
X162474457Y-110553044D01*
X162494448Y-110565026D01*
X162513168Y-110578910D01*
X162530438Y-110594562D01*
X162546090Y-110611832D01*
X162559974Y-110630552D01*
X162571956Y-110650543D01*
X162581921Y-110671613D01*
X162589773Y-110693557D01*
X162595437Y-110716166D01*
X162598856Y-110739221D01*
X162600000Y-110762500D01*
X162600000Y-111237500D01*
X162598856Y-111260779D01*
X162595437Y-111283834D01*
X162589773Y-111306443D01*
X162581921Y-111328387D01*
X162571956Y-111349457D01*
X162559974Y-111369448D01*
X162546090Y-111388168D01*
X162530438Y-111405438D01*
X162513168Y-111421090D01*
X162494448Y-111434974D01*
X162474457Y-111446956D01*
X162453387Y-111456921D01*
X162431443Y-111464773D01*
X162408834Y-111470437D01*
X162385779Y-111473856D01*
X162362500Y-111475000D01*
X161787500Y-111475000D01*
X161764221Y-111473856D01*
X161741166Y-111470437D01*
X161718557Y-111464773D01*
X161696613Y-111456921D01*
X161675543Y-111446956D01*
X161655552Y-111434974D01*
X161636832Y-111421090D01*
X161619562Y-111405438D01*
X161603910Y-111388168D01*
X161590026Y-111369448D01*
X161578044Y-111349457D01*
X161568079Y-111328387D01*
X161560227Y-111306443D01*
X161554563Y-111283834D01*
X161551144Y-111260779D01*
X161550000Y-111237500D01*
X161550000Y-110762500D01*
X161551144Y-110739221D01*
X161554563Y-110716166D01*
X161560227Y-110693557D01*
X161568079Y-110671613D01*
X161578044Y-110650543D01*
X161590026Y-110630552D01*
X161603910Y-110611832D01*
X161619562Y-110594562D01*
X161636832Y-110578910D01*
X161655552Y-110565026D01*
X161675543Y-110553044D01*
X161696613Y-110543079D01*
X161718557Y-110535227D01*
X161741166Y-110529563D01*
X161764221Y-110526144D01*
X161787500Y-110525000D01*
X162362500Y-110525000D01*
X162385779Y-110526144D01*
X162385779Y-110526144D01*
G37*
D11*
X162075000Y-111000000D03*
D10*
G36*
X160635779Y-110526144D02*
G01*
X160658834Y-110529563D01*
X160681443Y-110535227D01*
X160703387Y-110543079D01*
X160724457Y-110553044D01*
X160744448Y-110565026D01*
X160763168Y-110578910D01*
X160780438Y-110594562D01*
X160796090Y-110611832D01*
X160809974Y-110630552D01*
X160821956Y-110650543D01*
X160831921Y-110671613D01*
X160839773Y-110693557D01*
X160845437Y-110716166D01*
X160848856Y-110739221D01*
X160850000Y-110762500D01*
X160850000Y-111237500D01*
X160848856Y-111260779D01*
X160845437Y-111283834D01*
X160839773Y-111306443D01*
X160831921Y-111328387D01*
X160821956Y-111349457D01*
X160809974Y-111369448D01*
X160796090Y-111388168D01*
X160780438Y-111405438D01*
X160763168Y-111421090D01*
X160744448Y-111434974D01*
X160724457Y-111446956D01*
X160703387Y-111456921D01*
X160681443Y-111464773D01*
X160658834Y-111470437D01*
X160635779Y-111473856D01*
X160612500Y-111475000D01*
X160037500Y-111475000D01*
X160014221Y-111473856D01*
X159991166Y-111470437D01*
X159968557Y-111464773D01*
X159946613Y-111456921D01*
X159925543Y-111446956D01*
X159905552Y-111434974D01*
X159886832Y-111421090D01*
X159869562Y-111405438D01*
X159853910Y-111388168D01*
X159840026Y-111369448D01*
X159828044Y-111349457D01*
X159818079Y-111328387D01*
X159810227Y-111306443D01*
X159804563Y-111283834D01*
X159801144Y-111260779D01*
X159800000Y-111237500D01*
X159800000Y-110762500D01*
X159801144Y-110739221D01*
X159804563Y-110716166D01*
X159810227Y-110693557D01*
X159818079Y-110671613D01*
X159828044Y-110650543D01*
X159840026Y-110630552D01*
X159853910Y-110611832D01*
X159869562Y-110594562D01*
X159886832Y-110578910D01*
X159905552Y-110565026D01*
X159925543Y-110553044D01*
X159946613Y-110543079D01*
X159968557Y-110535227D01*
X159991166Y-110529563D01*
X160014221Y-110526144D01*
X160037500Y-110525000D01*
X160612500Y-110525000D01*
X160635779Y-110526144D01*
X160635779Y-110526144D01*
G37*
D11*
X160325000Y-111000000D03*
D10*
G36*
X159985779Y-102126144D02*
G01*
X160008834Y-102129563D01*
X160031443Y-102135227D01*
X160053387Y-102143079D01*
X160074457Y-102153044D01*
X160094448Y-102165026D01*
X160113168Y-102178910D01*
X160130438Y-102194562D01*
X160146090Y-102211832D01*
X160159974Y-102230552D01*
X160171956Y-102250543D01*
X160181921Y-102271613D01*
X160189773Y-102293557D01*
X160195437Y-102316166D01*
X160198856Y-102339221D01*
X160200000Y-102362500D01*
X160200000Y-102837500D01*
X160198856Y-102860779D01*
X160195437Y-102883834D01*
X160189773Y-102906443D01*
X160181921Y-102928387D01*
X160171956Y-102949457D01*
X160159974Y-102969448D01*
X160146090Y-102988168D01*
X160130438Y-103005438D01*
X160113168Y-103021090D01*
X160094448Y-103034974D01*
X160074457Y-103046956D01*
X160053387Y-103056921D01*
X160031443Y-103064773D01*
X160008834Y-103070437D01*
X159985779Y-103073856D01*
X159962500Y-103075000D01*
X159387500Y-103075000D01*
X159364221Y-103073856D01*
X159341166Y-103070437D01*
X159318557Y-103064773D01*
X159296613Y-103056921D01*
X159275543Y-103046956D01*
X159255552Y-103034974D01*
X159236832Y-103021090D01*
X159219562Y-103005438D01*
X159203910Y-102988168D01*
X159190026Y-102969448D01*
X159178044Y-102949457D01*
X159168079Y-102928387D01*
X159160227Y-102906443D01*
X159154563Y-102883834D01*
X159151144Y-102860779D01*
X159150000Y-102837500D01*
X159150000Y-102362500D01*
X159151144Y-102339221D01*
X159154563Y-102316166D01*
X159160227Y-102293557D01*
X159168079Y-102271613D01*
X159178044Y-102250543D01*
X159190026Y-102230552D01*
X159203910Y-102211832D01*
X159219562Y-102194562D01*
X159236832Y-102178910D01*
X159255552Y-102165026D01*
X159275543Y-102153044D01*
X159296613Y-102143079D01*
X159318557Y-102135227D01*
X159341166Y-102129563D01*
X159364221Y-102126144D01*
X159387500Y-102125000D01*
X159962500Y-102125000D01*
X159985779Y-102126144D01*
X159985779Y-102126144D01*
G37*
D11*
X159675000Y-102600000D03*
D10*
G36*
X158235779Y-102126144D02*
G01*
X158258834Y-102129563D01*
X158281443Y-102135227D01*
X158303387Y-102143079D01*
X158324457Y-102153044D01*
X158344448Y-102165026D01*
X158363168Y-102178910D01*
X158380438Y-102194562D01*
X158396090Y-102211832D01*
X158409974Y-102230552D01*
X158421956Y-102250543D01*
X158431921Y-102271613D01*
X158439773Y-102293557D01*
X158445437Y-102316166D01*
X158448856Y-102339221D01*
X158450000Y-102362500D01*
X158450000Y-102837500D01*
X158448856Y-102860779D01*
X158445437Y-102883834D01*
X158439773Y-102906443D01*
X158431921Y-102928387D01*
X158421956Y-102949457D01*
X158409974Y-102969448D01*
X158396090Y-102988168D01*
X158380438Y-103005438D01*
X158363168Y-103021090D01*
X158344448Y-103034974D01*
X158324457Y-103046956D01*
X158303387Y-103056921D01*
X158281443Y-103064773D01*
X158258834Y-103070437D01*
X158235779Y-103073856D01*
X158212500Y-103075000D01*
X157637500Y-103075000D01*
X157614221Y-103073856D01*
X157591166Y-103070437D01*
X157568557Y-103064773D01*
X157546613Y-103056921D01*
X157525543Y-103046956D01*
X157505552Y-103034974D01*
X157486832Y-103021090D01*
X157469562Y-103005438D01*
X157453910Y-102988168D01*
X157440026Y-102969448D01*
X157428044Y-102949457D01*
X157418079Y-102928387D01*
X157410227Y-102906443D01*
X157404563Y-102883834D01*
X157401144Y-102860779D01*
X157400000Y-102837500D01*
X157400000Y-102362500D01*
X157401144Y-102339221D01*
X157404563Y-102316166D01*
X157410227Y-102293557D01*
X157418079Y-102271613D01*
X157428044Y-102250543D01*
X157440026Y-102230552D01*
X157453910Y-102211832D01*
X157469562Y-102194562D01*
X157486832Y-102178910D01*
X157505552Y-102165026D01*
X157525543Y-102153044D01*
X157546613Y-102143079D01*
X157568557Y-102135227D01*
X157591166Y-102129563D01*
X157614221Y-102126144D01*
X157637500Y-102125000D01*
X158212500Y-102125000D01*
X158235779Y-102126144D01*
X158235779Y-102126144D01*
G37*
D11*
X157925000Y-102600000D03*
D10*
G36*
X162385779Y-107526144D02*
G01*
X162408834Y-107529563D01*
X162431443Y-107535227D01*
X162453387Y-107543079D01*
X162474457Y-107553044D01*
X162494448Y-107565026D01*
X162513168Y-107578910D01*
X162530438Y-107594562D01*
X162546090Y-107611832D01*
X162559974Y-107630552D01*
X162571956Y-107650543D01*
X162581921Y-107671613D01*
X162589773Y-107693557D01*
X162595437Y-107716166D01*
X162598856Y-107739221D01*
X162600000Y-107762500D01*
X162600000Y-108237500D01*
X162598856Y-108260779D01*
X162595437Y-108283834D01*
X162589773Y-108306443D01*
X162581921Y-108328387D01*
X162571956Y-108349457D01*
X162559974Y-108369448D01*
X162546090Y-108388168D01*
X162530438Y-108405438D01*
X162513168Y-108421090D01*
X162494448Y-108434974D01*
X162474457Y-108446956D01*
X162453387Y-108456921D01*
X162431443Y-108464773D01*
X162408834Y-108470437D01*
X162385779Y-108473856D01*
X162362500Y-108475000D01*
X161787500Y-108475000D01*
X161764221Y-108473856D01*
X161741166Y-108470437D01*
X161718557Y-108464773D01*
X161696613Y-108456921D01*
X161675543Y-108446956D01*
X161655552Y-108434974D01*
X161636832Y-108421090D01*
X161619562Y-108405438D01*
X161603910Y-108388168D01*
X161590026Y-108369448D01*
X161578044Y-108349457D01*
X161568079Y-108328387D01*
X161560227Y-108306443D01*
X161554563Y-108283834D01*
X161551144Y-108260779D01*
X161550000Y-108237500D01*
X161550000Y-107762500D01*
X161551144Y-107739221D01*
X161554563Y-107716166D01*
X161560227Y-107693557D01*
X161568079Y-107671613D01*
X161578044Y-107650543D01*
X161590026Y-107630552D01*
X161603910Y-107611832D01*
X161619562Y-107594562D01*
X161636832Y-107578910D01*
X161655552Y-107565026D01*
X161675543Y-107553044D01*
X161696613Y-107543079D01*
X161718557Y-107535227D01*
X161741166Y-107529563D01*
X161764221Y-107526144D01*
X161787500Y-107525000D01*
X162362500Y-107525000D01*
X162385779Y-107526144D01*
X162385779Y-107526144D01*
G37*
D11*
X162075000Y-108000000D03*
D10*
G36*
X160635779Y-107526144D02*
G01*
X160658834Y-107529563D01*
X160681443Y-107535227D01*
X160703387Y-107543079D01*
X160724457Y-107553044D01*
X160744448Y-107565026D01*
X160763168Y-107578910D01*
X160780438Y-107594562D01*
X160796090Y-107611832D01*
X160809974Y-107630552D01*
X160821956Y-107650543D01*
X160831921Y-107671613D01*
X160839773Y-107693557D01*
X160845437Y-107716166D01*
X160848856Y-107739221D01*
X160850000Y-107762500D01*
X160850000Y-108237500D01*
X160848856Y-108260779D01*
X160845437Y-108283834D01*
X160839773Y-108306443D01*
X160831921Y-108328387D01*
X160821956Y-108349457D01*
X160809974Y-108369448D01*
X160796090Y-108388168D01*
X160780438Y-108405438D01*
X160763168Y-108421090D01*
X160744448Y-108434974D01*
X160724457Y-108446956D01*
X160703387Y-108456921D01*
X160681443Y-108464773D01*
X160658834Y-108470437D01*
X160635779Y-108473856D01*
X160612500Y-108475000D01*
X160037500Y-108475000D01*
X160014221Y-108473856D01*
X159991166Y-108470437D01*
X159968557Y-108464773D01*
X159946613Y-108456921D01*
X159925543Y-108446956D01*
X159905552Y-108434974D01*
X159886832Y-108421090D01*
X159869562Y-108405438D01*
X159853910Y-108388168D01*
X159840026Y-108369448D01*
X159828044Y-108349457D01*
X159818079Y-108328387D01*
X159810227Y-108306443D01*
X159804563Y-108283834D01*
X159801144Y-108260779D01*
X159800000Y-108237500D01*
X159800000Y-107762500D01*
X159801144Y-107739221D01*
X159804563Y-107716166D01*
X159810227Y-107693557D01*
X159818079Y-107671613D01*
X159828044Y-107650543D01*
X159840026Y-107630552D01*
X159853910Y-107611832D01*
X159869562Y-107594562D01*
X159886832Y-107578910D01*
X159905552Y-107565026D01*
X159925543Y-107553044D01*
X159946613Y-107543079D01*
X159968557Y-107535227D01*
X159991166Y-107529563D01*
X160014221Y-107526144D01*
X160037500Y-107525000D01*
X160612500Y-107525000D01*
X160635779Y-107526144D01*
X160635779Y-107526144D01*
G37*
D11*
X160325000Y-108000000D03*
D10*
G36*
X150985779Y-109326144D02*
G01*
X151008834Y-109329563D01*
X151031443Y-109335227D01*
X151053387Y-109343079D01*
X151074457Y-109353044D01*
X151094448Y-109365026D01*
X151113168Y-109378910D01*
X151130438Y-109394562D01*
X151146090Y-109411832D01*
X151159974Y-109430552D01*
X151171956Y-109450543D01*
X151181921Y-109471613D01*
X151189773Y-109493557D01*
X151195437Y-109516166D01*
X151198856Y-109539221D01*
X151200000Y-109562500D01*
X151200000Y-110037500D01*
X151198856Y-110060779D01*
X151195437Y-110083834D01*
X151189773Y-110106443D01*
X151181921Y-110128387D01*
X151171956Y-110149457D01*
X151159974Y-110169448D01*
X151146090Y-110188168D01*
X151130438Y-110205438D01*
X151113168Y-110221090D01*
X151094448Y-110234974D01*
X151074457Y-110246956D01*
X151053387Y-110256921D01*
X151031443Y-110264773D01*
X151008834Y-110270437D01*
X150985779Y-110273856D01*
X150962500Y-110275000D01*
X150387500Y-110275000D01*
X150364221Y-110273856D01*
X150341166Y-110270437D01*
X150318557Y-110264773D01*
X150296613Y-110256921D01*
X150275543Y-110246956D01*
X150255552Y-110234974D01*
X150236832Y-110221090D01*
X150219562Y-110205438D01*
X150203910Y-110188168D01*
X150190026Y-110169448D01*
X150178044Y-110149457D01*
X150168079Y-110128387D01*
X150160227Y-110106443D01*
X150154563Y-110083834D01*
X150151144Y-110060779D01*
X150150000Y-110037500D01*
X150150000Y-109562500D01*
X150151144Y-109539221D01*
X150154563Y-109516166D01*
X150160227Y-109493557D01*
X150168079Y-109471613D01*
X150178044Y-109450543D01*
X150190026Y-109430552D01*
X150203910Y-109411832D01*
X150219562Y-109394562D01*
X150236832Y-109378910D01*
X150255552Y-109365026D01*
X150275543Y-109353044D01*
X150296613Y-109343079D01*
X150318557Y-109335227D01*
X150341166Y-109329563D01*
X150364221Y-109326144D01*
X150387500Y-109325000D01*
X150962500Y-109325000D01*
X150985779Y-109326144D01*
X150985779Y-109326144D01*
G37*
D11*
X150675000Y-109800000D03*
D10*
G36*
X149235779Y-109326144D02*
G01*
X149258834Y-109329563D01*
X149281443Y-109335227D01*
X149303387Y-109343079D01*
X149324457Y-109353044D01*
X149344448Y-109365026D01*
X149363168Y-109378910D01*
X149380438Y-109394562D01*
X149396090Y-109411832D01*
X149409974Y-109430552D01*
X149421956Y-109450543D01*
X149431921Y-109471613D01*
X149439773Y-109493557D01*
X149445437Y-109516166D01*
X149448856Y-109539221D01*
X149450000Y-109562500D01*
X149450000Y-110037500D01*
X149448856Y-110060779D01*
X149445437Y-110083834D01*
X149439773Y-110106443D01*
X149431921Y-110128387D01*
X149421956Y-110149457D01*
X149409974Y-110169448D01*
X149396090Y-110188168D01*
X149380438Y-110205438D01*
X149363168Y-110221090D01*
X149344448Y-110234974D01*
X149324457Y-110246956D01*
X149303387Y-110256921D01*
X149281443Y-110264773D01*
X149258834Y-110270437D01*
X149235779Y-110273856D01*
X149212500Y-110275000D01*
X148637500Y-110275000D01*
X148614221Y-110273856D01*
X148591166Y-110270437D01*
X148568557Y-110264773D01*
X148546613Y-110256921D01*
X148525543Y-110246956D01*
X148505552Y-110234974D01*
X148486832Y-110221090D01*
X148469562Y-110205438D01*
X148453910Y-110188168D01*
X148440026Y-110169448D01*
X148428044Y-110149457D01*
X148418079Y-110128387D01*
X148410227Y-110106443D01*
X148404563Y-110083834D01*
X148401144Y-110060779D01*
X148400000Y-110037500D01*
X148400000Y-109562500D01*
X148401144Y-109539221D01*
X148404563Y-109516166D01*
X148410227Y-109493557D01*
X148418079Y-109471613D01*
X148428044Y-109450543D01*
X148440026Y-109430552D01*
X148453910Y-109411832D01*
X148469562Y-109394562D01*
X148486832Y-109378910D01*
X148505552Y-109365026D01*
X148525543Y-109353044D01*
X148546613Y-109343079D01*
X148568557Y-109335227D01*
X148591166Y-109329563D01*
X148614221Y-109326144D01*
X148637500Y-109325000D01*
X149212500Y-109325000D01*
X149235779Y-109326144D01*
X149235779Y-109326144D01*
G37*
D11*
X148925000Y-109800000D03*
D10*
G36*
X149235779Y-105326144D02*
G01*
X149258834Y-105329563D01*
X149281443Y-105335227D01*
X149303387Y-105343079D01*
X149324457Y-105353044D01*
X149344448Y-105365026D01*
X149363168Y-105378910D01*
X149380438Y-105394562D01*
X149396090Y-105411832D01*
X149409974Y-105430552D01*
X149421956Y-105450543D01*
X149431921Y-105471613D01*
X149439773Y-105493557D01*
X149445437Y-105516166D01*
X149448856Y-105539221D01*
X149450000Y-105562500D01*
X149450000Y-106037500D01*
X149448856Y-106060779D01*
X149445437Y-106083834D01*
X149439773Y-106106443D01*
X149431921Y-106128387D01*
X149421956Y-106149457D01*
X149409974Y-106169448D01*
X149396090Y-106188168D01*
X149380438Y-106205438D01*
X149363168Y-106221090D01*
X149344448Y-106234974D01*
X149324457Y-106246956D01*
X149303387Y-106256921D01*
X149281443Y-106264773D01*
X149258834Y-106270437D01*
X149235779Y-106273856D01*
X149212500Y-106275000D01*
X148637500Y-106275000D01*
X148614221Y-106273856D01*
X148591166Y-106270437D01*
X148568557Y-106264773D01*
X148546613Y-106256921D01*
X148525543Y-106246956D01*
X148505552Y-106234974D01*
X148486832Y-106221090D01*
X148469562Y-106205438D01*
X148453910Y-106188168D01*
X148440026Y-106169448D01*
X148428044Y-106149457D01*
X148418079Y-106128387D01*
X148410227Y-106106443D01*
X148404563Y-106083834D01*
X148401144Y-106060779D01*
X148400000Y-106037500D01*
X148400000Y-105562500D01*
X148401144Y-105539221D01*
X148404563Y-105516166D01*
X148410227Y-105493557D01*
X148418079Y-105471613D01*
X148428044Y-105450543D01*
X148440026Y-105430552D01*
X148453910Y-105411832D01*
X148469562Y-105394562D01*
X148486832Y-105378910D01*
X148505552Y-105365026D01*
X148525543Y-105353044D01*
X148546613Y-105343079D01*
X148568557Y-105335227D01*
X148591166Y-105329563D01*
X148614221Y-105326144D01*
X148637500Y-105325000D01*
X149212500Y-105325000D01*
X149235779Y-105326144D01*
X149235779Y-105326144D01*
G37*
D11*
X148925000Y-105800000D03*
D10*
G36*
X150985779Y-105326144D02*
G01*
X151008834Y-105329563D01*
X151031443Y-105335227D01*
X151053387Y-105343079D01*
X151074457Y-105353044D01*
X151094448Y-105365026D01*
X151113168Y-105378910D01*
X151130438Y-105394562D01*
X151146090Y-105411832D01*
X151159974Y-105430552D01*
X151171956Y-105450543D01*
X151181921Y-105471613D01*
X151189773Y-105493557D01*
X151195437Y-105516166D01*
X151198856Y-105539221D01*
X151200000Y-105562500D01*
X151200000Y-106037500D01*
X151198856Y-106060779D01*
X151195437Y-106083834D01*
X151189773Y-106106443D01*
X151181921Y-106128387D01*
X151171956Y-106149457D01*
X151159974Y-106169448D01*
X151146090Y-106188168D01*
X151130438Y-106205438D01*
X151113168Y-106221090D01*
X151094448Y-106234974D01*
X151074457Y-106246956D01*
X151053387Y-106256921D01*
X151031443Y-106264773D01*
X151008834Y-106270437D01*
X150985779Y-106273856D01*
X150962500Y-106275000D01*
X150387500Y-106275000D01*
X150364221Y-106273856D01*
X150341166Y-106270437D01*
X150318557Y-106264773D01*
X150296613Y-106256921D01*
X150275543Y-106246956D01*
X150255552Y-106234974D01*
X150236832Y-106221090D01*
X150219562Y-106205438D01*
X150203910Y-106188168D01*
X150190026Y-106169448D01*
X150178044Y-106149457D01*
X150168079Y-106128387D01*
X150160227Y-106106443D01*
X150154563Y-106083834D01*
X150151144Y-106060779D01*
X150150000Y-106037500D01*
X150150000Y-105562500D01*
X150151144Y-105539221D01*
X150154563Y-105516166D01*
X150160227Y-105493557D01*
X150168079Y-105471613D01*
X150178044Y-105450543D01*
X150190026Y-105430552D01*
X150203910Y-105411832D01*
X150219562Y-105394562D01*
X150236832Y-105378910D01*
X150255552Y-105365026D01*
X150275543Y-105353044D01*
X150296613Y-105343079D01*
X150318557Y-105335227D01*
X150341166Y-105329563D01*
X150364221Y-105326144D01*
X150387500Y-105325000D01*
X150962500Y-105325000D01*
X150985779Y-105326144D01*
X150985779Y-105326144D01*
G37*
D11*
X150675000Y-105800000D03*
D10*
G36*
X156585779Y-102126144D02*
G01*
X156608834Y-102129563D01*
X156631443Y-102135227D01*
X156653387Y-102143079D01*
X156674457Y-102153044D01*
X156694448Y-102165026D01*
X156713168Y-102178910D01*
X156730438Y-102194562D01*
X156746090Y-102211832D01*
X156759974Y-102230552D01*
X156771956Y-102250543D01*
X156781921Y-102271613D01*
X156789773Y-102293557D01*
X156795437Y-102316166D01*
X156798856Y-102339221D01*
X156800000Y-102362500D01*
X156800000Y-102837500D01*
X156798856Y-102860779D01*
X156795437Y-102883834D01*
X156789773Y-102906443D01*
X156781921Y-102928387D01*
X156771956Y-102949457D01*
X156759974Y-102969448D01*
X156746090Y-102988168D01*
X156730438Y-103005438D01*
X156713168Y-103021090D01*
X156694448Y-103034974D01*
X156674457Y-103046956D01*
X156653387Y-103056921D01*
X156631443Y-103064773D01*
X156608834Y-103070437D01*
X156585779Y-103073856D01*
X156562500Y-103075000D01*
X155987500Y-103075000D01*
X155964221Y-103073856D01*
X155941166Y-103070437D01*
X155918557Y-103064773D01*
X155896613Y-103056921D01*
X155875543Y-103046956D01*
X155855552Y-103034974D01*
X155836832Y-103021090D01*
X155819562Y-103005438D01*
X155803910Y-102988168D01*
X155790026Y-102969448D01*
X155778044Y-102949457D01*
X155768079Y-102928387D01*
X155760227Y-102906443D01*
X155754563Y-102883834D01*
X155751144Y-102860779D01*
X155750000Y-102837500D01*
X155750000Y-102362500D01*
X155751144Y-102339221D01*
X155754563Y-102316166D01*
X155760227Y-102293557D01*
X155768079Y-102271613D01*
X155778044Y-102250543D01*
X155790026Y-102230552D01*
X155803910Y-102211832D01*
X155819562Y-102194562D01*
X155836832Y-102178910D01*
X155855552Y-102165026D01*
X155875543Y-102153044D01*
X155896613Y-102143079D01*
X155918557Y-102135227D01*
X155941166Y-102129563D01*
X155964221Y-102126144D01*
X155987500Y-102125000D01*
X156562500Y-102125000D01*
X156585779Y-102126144D01*
X156585779Y-102126144D01*
G37*
D11*
X156275000Y-102600000D03*
D10*
G36*
X154835779Y-102126144D02*
G01*
X154858834Y-102129563D01*
X154881443Y-102135227D01*
X154903387Y-102143079D01*
X154924457Y-102153044D01*
X154944448Y-102165026D01*
X154963168Y-102178910D01*
X154980438Y-102194562D01*
X154996090Y-102211832D01*
X155009974Y-102230552D01*
X155021956Y-102250543D01*
X155031921Y-102271613D01*
X155039773Y-102293557D01*
X155045437Y-102316166D01*
X155048856Y-102339221D01*
X155050000Y-102362500D01*
X155050000Y-102837500D01*
X155048856Y-102860779D01*
X155045437Y-102883834D01*
X155039773Y-102906443D01*
X155031921Y-102928387D01*
X155021956Y-102949457D01*
X155009974Y-102969448D01*
X154996090Y-102988168D01*
X154980438Y-103005438D01*
X154963168Y-103021090D01*
X154944448Y-103034974D01*
X154924457Y-103046956D01*
X154903387Y-103056921D01*
X154881443Y-103064773D01*
X154858834Y-103070437D01*
X154835779Y-103073856D01*
X154812500Y-103075000D01*
X154237500Y-103075000D01*
X154214221Y-103073856D01*
X154191166Y-103070437D01*
X154168557Y-103064773D01*
X154146613Y-103056921D01*
X154125543Y-103046956D01*
X154105552Y-103034974D01*
X154086832Y-103021090D01*
X154069562Y-103005438D01*
X154053910Y-102988168D01*
X154040026Y-102969448D01*
X154028044Y-102949457D01*
X154018079Y-102928387D01*
X154010227Y-102906443D01*
X154004563Y-102883834D01*
X154001144Y-102860779D01*
X154000000Y-102837500D01*
X154000000Y-102362500D01*
X154001144Y-102339221D01*
X154004563Y-102316166D01*
X154010227Y-102293557D01*
X154018079Y-102271613D01*
X154028044Y-102250543D01*
X154040026Y-102230552D01*
X154053910Y-102211832D01*
X154069562Y-102194562D01*
X154086832Y-102178910D01*
X154105552Y-102165026D01*
X154125543Y-102153044D01*
X154146613Y-102143079D01*
X154168557Y-102135227D01*
X154191166Y-102129563D01*
X154214221Y-102126144D01*
X154237500Y-102125000D01*
X154812500Y-102125000D01*
X154835779Y-102126144D01*
X154835779Y-102126144D01*
G37*
D11*
X154525000Y-102600000D03*
D10*
G36*
X122469916Y-109701131D02*
G01*
X122492971Y-109704550D01*
X122515580Y-109710214D01*
X122537524Y-109718066D01*
X122558594Y-109728031D01*
X122578585Y-109740013D01*
X122597305Y-109753897D01*
X122614575Y-109769549D01*
X122950451Y-110105425D01*
X122966103Y-110122695D01*
X122979987Y-110141415D01*
X122991969Y-110161406D01*
X123001934Y-110182476D01*
X123009786Y-110204420D01*
X123015450Y-110227029D01*
X123018869Y-110250084D01*
X123020013Y-110273363D01*
X123018869Y-110296642D01*
X123015450Y-110319697D01*
X123009786Y-110342306D01*
X123001934Y-110364250D01*
X122991969Y-110385320D01*
X122979987Y-110405311D01*
X122966103Y-110424031D01*
X122950451Y-110441301D01*
X122543865Y-110847887D01*
X122526595Y-110863539D01*
X122507875Y-110877423D01*
X122487884Y-110889405D01*
X122466814Y-110899370D01*
X122444870Y-110907222D01*
X122422261Y-110912886D01*
X122399206Y-110916305D01*
X122375927Y-110917449D01*
X122352648Y-110916305D01*
X122329593Y-110912886D01*
X122306984Y-110907222D01*
X122285040Y-110899370D01*
X122263970Y-110889405D01*
X122243979Y-110877423D01*
X122225259Y-110863539D01*
X122207989Y-110847887D01*
X121872113Y-110512011D01*
X121856461Y-110494741D01*
X121842577Y-110476021D01*
X121830595Y-110456030D01*
X121820630Y-110434960D01*
X121812778Y-110413016D01*
X121807114Y-110390407D01*
X121803695Y-110367352D01*
X121802551Y-110344073D01*
X121803695Y-110320794D01*
X121807114Y-110297739D01*
X121812778Y-110275130D01*
X121820630Y-110253186D01*
X121830595Y-110232116D01*
X121842577Y-110212125D01*
X121856461Y-110193405D01*
X121872113Y-110176135D01*
X122278699Y-109769549D01*
X122295969Y-109753897D01*
X122314689Y-109740013D01*
X122334680Y-109728031D01*
X122355750Y-109718066D01*
X122377694Y-109710214D01*
X122400303Y-109704550D01*
X122423358Y-109701131D01*
X122446637Y-109699987D01*
X122469916Y-109701131D01*
X122469916Y-109701131D01*
G37*
D11*
X122411282Y-110308718D03*
D10*
G36*
X123707352Y-108463695D02*
G01*
X123730407Y-108467114D01*
X123753016Y-108472778D01*
X123774960Y-108480630D01*
X123796030Y-108490595D01*
X123816021Y-108502577D01*
X123834741Y-108516461D01*
X123852011Y-108532113D01*
X124187887Y-108867989D01*
X124203539Y-108885259D01*
X124217423Y-108903979D01*
X124229405Y-108923970D01*
X124239370Y-108945040D01*
X124247222Y-108966984D01*
X124252886Y-108989593D01*
X124256305Y-109012648D01*
X124257449Y-109035927D01*
X124256305Y-109059206D01*
X124252886Y-109082261D01*
X124247222Y-109104870D01*
X124239370Y-109126814D01*
X124229405Y-109147884D01*
X124217423Y-109167875D01*
X124203539Y-109186595D01*
X124187887Y-109203865D01*
X123781301Y-109610451D01*
X123764031Y-109626103D01*
X123745311Y-109639987D01*
X123725320Y-109651969D01*
X123704250Y-109661934D01*
X123682306Y-109669786D01*
X123659697Y-109675450D01*
X123636642Y-109678869D01*
X123613363Y-109680013D01*
X123590084Y-109678869D01*
X123567029Y-109675450D01*
X123544420Y-109669786D01*
X123522476Y-109661934D01*
X123501406Y-109651969D01*
X123481415Y-109639987D01*
X123462695Y-109626103D01*
X123445425Y-109610451D01*
X123109549Y-109274575D01*
X123093897Y-109257305D01*
X123080013Y-109238585D01*
X123068031Y-109218594D01*
X123058066Y-109197524D01*
X123050214Y-109175580D01*
X123044550Y-109152971D01*
X123041131Y-109129916D01*
X123039987Y-109106637D01*
X123041131Y-109083358D01*
X123044550Y-109060303D01*
X123050214Y-109037694D01*
X123058066Y-109015750D01*
X123068031Y-108994680D01*
X123080013Y-108974689D01*
X123093897Y-108955969D01*
X123109549Y-108938699D01*
X123516135Y-108532113D01*
X123533405Y-108516461D01*
X123552125Y-108502577D01*
X123572116Y-108490595D01*
X123593186Y-108480630D01*
X123615130Y-108472778D01*
X123637739Y-108467114D01*
X123660794Y-108463695D01*
X123684073Y-108462551D01*
X123707352Y-108463695D01*
X123707352Y-108463695D01*
G37*
D11*
X123648718Y-109071282D03*
D10*
G36*
X127451198Y-114489849D02*
G01*
X127474253Y-114493268D01*
X127496862Y-114498932D01*
X127518806Y-114506784D01*
X127539876Y-114516749D01*
X127559867Y-114528731D01*
X127578587Y-114542615D01*
X127595857Y-114558267D01*
X127931733Y-114894143D01*
X127947385Y-114911413D01*
X127961269Y-114930133D01*
X127973251Y-114950124D01*
X127983216Y-114971194D01*
X127991068Y-114993138D01*
X127996732Y-115015747D01*
X128000151Y-115038802D01*
X128001295Y-115062081D01*
X128000151Y-115085360D01*
X127996732Y-115108415D01*
X127991068Y-115131024D01*
X127983216Y-115152968D01*
X127973251Y-115174038D01*
X127961269Y-115194029D01*
X127947385Y-115212749D01*
X127931733Y-115230019D01*
X127525147Y-115636605D01*
X127507877Y-115652257D01*
X127489157Y-115666141D01*
X127469166Y-115678123D01*
X127448096Y-115688088D01*
X127426152Y-115695940D01*
X127403543Y-115701604D01*
X127380488Y-115705023D01*
X127357209Y-115706167D01*
X127333930Y-115705023D01*
X127310875Y-115701604D01*
X127288266Y-115695940D01*
X127266322Y-115688088D01*
X127245252Y-115678123D01*
X127225261Y-115666141D01*
X127206541Y-115652257D01*
X127189271Y-115636605D01*
X126853395Y-115300729D01*
X126837743Y-115283459D01*
X126823859Y-115264739D01*
X126811877Y-115244748D01*
X126801912Y-115223678D01*
X126794060Y-115201734D01*
X126788396Y-115179125D01*
X126784977Y-115156070D01*
X126783833Y-115132791D01*
X126784977Y-115109512D01*
X126788396Y-115086457D01*
X126794060Y-115063848D01*
X126801912Y-115041904D01*
X126811877Y-115020834D01*
X126823859Y-115000843D01*
X126837743Y-114982123D01*
X126853395Y-114964853D01*
X127259981Y-114558267D01*
X127277251Y-114542615D01*
X127295971Y-114528731D01*
X127315962Y-114516749D01*
X127337032Y-114506784D01*
X127358976Y-114498932D01*
X127381585Y-114493268D01*
X127404640Y-114489849D01*
X127427919Y-114488705D01*
X127451198Y-114489849D01*
X127451198Y-114489849D01*
G37*
D11*
X127392564Y-115097436D03*
D10*
G36*
X128688634Y-113252413D02*
G01*
X128711689Y-113255832D01*
X128734298Y-113261496D01*
X128756242Y-113269348D01*
X128777312Y-113279313D01*
X128797303Y-113291295D01*
X128816023Y-113305179D01*
X128833293Y-113320831D01*
X129169169Y-113656707D01*
X129184821Y-113673977D01*
X129198705Y-113692697D01*
X129210687Y-113712688D01*
X129220652Y-113733758D01*
X129228504Y-113755702D01*
X129234168Y-113778311D01*
X129237587Y-113801366D01*
X129238731Y-113824645D01*
X129237587Y-113847924D01*
X129234168Y-113870979D01*
X129228504Y-113893588D01*
X129220652Y-113915532D01*
X129210687Y-113936602D01*
X129198705Y-113956593D01*
X129184821Y-113975313D01*
X129169169Y-113992583D01*
X128762583Y-114399169D01*
X128745313Y-114414821D01*
X128726593Y-114428705D01*
X128706602Y-114440687D01*
X128685532Y-114450652D01*
X128663588Y-114458504D01*
X128640979Y-114464168D01*
X128617924Y-114467587D01*
X128594645Y-114468731D01*
X128571366Y-114467587D01*
X128548311Y-114464168D01*
X128525702Y-114458504D01*
X128503758Y-114450652D01*
X128482688Y-114440687D01*
X128462697Y-114428705D01*
X128443977Y-114414821D01*
X128426707Y-114399169D01*
X128090831Y-114063293D01*
X128075179Y-114046023D01*
X128061295Y-114027303D01*
X128049313Y-114007312D01*
X128039348Y-113986242D01*
X128031496Y-113964298D01*
X128025832Y-113941689D01*
X128022413Y-113918634D01*
X128021269Y-113895355D01*
X128022413Y-113872076D01*
X128025832Y-113849021D01*
X128031496Y-113826412D01*
X128039348Y-113804468D01*
X128049313Y-113783398D01*
X128061295Y-113763407D01*
X128075179Y-113744687D01*
X128090831Y-113727417D01*
X128497417Y-113320831D01*
X128514687Y-113305179D01*
X128533407Y-113291295D01*
X128553398Y-113279313D01*
X128574468Y-113269348D01*
X128596412Y-113261496D01*
X128619021Y-113255832D01*
X128642076Y-113252413D01*
X128665355Y-113251269D01*
X128688634Y-113252413D01*
X128688634Y-113252413D01*
G37*
D11*
X128630000Y-113860000D03*
D10*
G36*
X117839916Y-99992413D02*
G01*
X117862971Y-99995832D01*
X117885580Y-100001496D01*
X117907524Y-100009348D01*
X117928594Y-100019313D01*
X117948585Y-100031295D01*
X117967305Y-100045179D01*
X117984575Y-100060831D01*
X118320451Y-100396707D01*
X118336103Y-100413977D01*
X118349987Y-100432697D01*
X118361969Y-100452688D01*
X118371934Y-100473758D01*
X118379786Y-100495702D01*
X118385450Y-100518311D01*
X118388869Y-100541366D01*
X118390013Y-100564645D01*
X118388869Y-100587924D01*
X118385450Y-100610979D01*
X118379786Y-100633588D01*
X118371934Y-100655532D01*
X118361969Y-100676602D01*
X118349987Y-100696593D01*
X118336103Y-100715313D01*
X118320451Y-100732583D01*
X117913865Y-101139169D01*
X117896595Y-101154821D01*
X117877875Y-101168705D01*
X117857884Y-101180687D01*
X117836814Y-101190652D01*
X117814870Y-101198504D01*
X117792261Y-101204168D01*
X117769206Y-101207587D01*
X117745927Y-101208731D01*
X117722648Y-101207587D01*
X117699593Y-101204168D01*
X117676984Y-101198504D01*
X117655040Y-101190652D01*
X117633970Y-101180687D01*
X117613979Y-101168705D01*
X117595259Y-101154821D01*
X117577989Y-101139169D01*
X117242113Y-100803293D01*
X117226461Y-100786023D01*
X117212577Y-100767303D01*
X117200595Y-100747312D01*
X117190630Y-100726242D01*
X117182778Y-100704298D01*
X117177114Y-100681689D01*
X117173695Y-100658634D01*
X117172551Y-100635355D01*
X117173695Y-100612076D01*
X117177114Y-100589021D01*
X117182778Y-100566412D01*
X117190630Y-100544468D01*
X117200595Y-100523398D01*
X117212577Y-100503407D01*
X117226461Y-100484687D01*
X117242113Y-100467417D01*
X117648699Y-100060831D01*
X117665969Y-100045179D01*
X117684689Y-100031295D01*
X117704680Y-100019313D01*
X117725750Y-100009348D01*
X117747694Y-100001496D01*
X117770303Y-99995832D01*
X117793358Y-99992413D01*
X117816637Y-99991269D01*
X117839916Y-99992413D01*
X117839916Y-99992413D01*
G37*
D11*
X117781282Y-100600000D03*
D10*
G36*
X119077352Y-98754977D02*
G01*
X119100407Y-98758396D01*
X119123016Y-98764060D01*
X119144960Y-98771912D01*
X119166030Y-98781877D01*
X119186021Y-98793859D01*
X119204741Y-98807743D01*
X119222011Y-98823395D01*
X119557887Y-99159271D01*
X119573539Y-99176541D01*
X119587423Y-99195261D01*
X119599405Y-99215252D01*
X119609370Y-99236322D01*
X119617222Y-99258266D01*
X119622886Y-99280875D01*
X119626305Y-99303930D01*
X119627449Y-99327209D01*
X119626305Y-99350488D01*
X119622886Y-99373543D01*
X119617222Y-99396152D01*
X119609370Y-99418096D01*
X119599405Y-99439166D01*
X119587423Y-99459157D01*
X119573539Y-99477877D01*
X119557887Y-99495147D01*
X119151301Y-99901733D01*
X119134031Y-99917385D01*
X119115311Y-99931269D01*
X119095320Y-99943251D01*
X119074250Y-99953216D01*
X119052306Y-99961068D01*
X119029697Y-99966732D01*
X119006642Y-99970151D01*
X118983363Y-99971295D01*
X118960084Y-99970151D01*
X118937029Y-99966732D01*
X118914420Y-99961068D01*
X118892476Y-99953216D01*
X118871406Y-99943251D01*
X118851415Y-99931269D01*
X118832695Y-99917385D01*
X118815425Y-99901733D01*
X118479549Y-99565857D01*
X118463897Y-99548587D01*
X118450013Y-99529867D01*
X118438031Y-99509876D01*
X118428066Y-99488806D01*
X118420214Y-99466862D01*
X118414550Y-99444253D01*
X118411131Y-99421198D01*
X118409987Y-99397919D01*
X118411131Y-99374640D01*
X118414550Y-99351585D01*
X118420214Y-99328976D01*
X118428066Y-99307032D01*
X118438031Y-99285962D01*
X118450013Y-99265971D01*
X118463897Y-99247251D01*
X118479549Y-99229981D01*
X118886135Y-98823395D01*
X118903405Y-98807743D01*
X118922125Y-98793859D01*
X118942116Y-98781877D01*
X118963186Y-98771912D01*
X118985130Y-98764060D01*
X119007739Y-98758396D01*
X119030794Y-98754977D01*
X119054073Y-98753833D01*
X119077352Y-98754977D01*
X119077352Y-98754977D01*
G37*
D11*
X119018718Y-99362564D03*
D10*
G36*
X160635779Y-109026144D02*
G01*
X160658834Y-109029563D01*
X160681443Y-109035227D01*
X160703387Y-109043079D01*
X160724457Y-109053044D01*
X160744448Y-109065026D01*
X160763168Y-109078910D01*
X160780438Y-109094562D01*
X160796090Y-109111832D01*
X160809974Y-109130552D01*
X160821956Y-109150543D01*
X160831921Y-109171613D01*
X160839773Y-109193557D01*
X160845437Y-109216166D01*
X160848856Y-109239221D01*
X160850000Y-109262500D01*
X160850000Y-109737500D01*
X160848856Y-109760779D01*
X160845437Y-109783834D01*
X160839773Y-109806443D01*
X160831921Y-109828387D01*
X160821956Y-109849457D01*
X160809974Y-109869448D01*
X160796090Y-109888168D01*
X160780438Y-109905438D01*
X160763168Y-109921090D01*
X160744448Y-109934974D01*
X160724457Y-109946956D01*
X160703387Y-109956921D01*
X160681443Y-109964773D01*
X160658834Y-109970437D01*
X160635779Y-109973856D01*
X160612500Y-109975000D01*
X160037500Y-109975000D01*
X160014221Y-109973856D01*
X159991166Y-109970437D01*
X159968557Y-109964773D01*
X159946613Y-109956921D01*
X159925543Y-109946956D01*
X159905552Y-109934974D01*
X159886832Y-109921090D01*
X159869562Y-109905438D01*
X159853910Y-109888168D01*
X159840026Y-109869448D01*
X159828044Y-109849457D01*
X159818079Y-109828387D01*
X159810227Y-109806443D01*
X159804563Y-109783834D01*
X159801144Y-109760779D01*
X159800000Y-109737500D01*
X159800000Y-109262500D01*
X159801144Y-109239221D01*
X159804563Y-109216166D01*
X159810227Y-109193557D01*
X159818079Y-109171613D01*
X159828044Y-109150543D01*
X159840026Y-109130552D01*
X159853910Y-109111832D01*
X159869562Y-109094562D01*
X159886832Y-109078910D01*
X159905552Y-109065026D01*
X159925543Y-109053044D01*
X159946613Y-109043079D01*
X159968557Y-109035227D01*
X159991166Y-109029563D01*
X160014221Y-109026144D01*
X160037500Y-109025000D01*
X160612500Y-109025000D01*
X160635779Y-109026144D01*
X160635779Y-109026144D01*
G37*
D11*
X160325000Y-109500000D03*
D10*
G36*
X162385779Y-109026144D02*
G01*
X162408834Y-109029563D01*
X162431443Y-109035227D01*
X162453387Y-109043079D01*
X162474457Y-109053044D01*
X162494448Y-109065026D01*
X162513168Y-109078910D01*
X162530438Y-109094562D01*
X162546090Y-109111832D01*
X162559974Y-109130552D01*
X162571956Y-109150543D01*
X162581921Y-109171613D01*
X162589773Y-109193557D01*
X162595437Y-109216166D01*
X162598856Y-109239221D01*
X162600000Y-109262500D01*
X162600000Y-109737500D01*
X162598856Y-109760779D01*
X162595437Y-109783834D01*
X162589773Y-109806443D01*
X162581921Y-109828387D01*
X162571956Y-109849457D01*
X162559974Y-109869448D01*
X162546090Y-109888168D01*
X162530438Y-109905438D01*
X162513168Y-109921090D01*
X162494448Y-109934974D01*
X162474457Y-109946956D01*
X162453387Y-109956921D01*
X162431443Y-109964773D01*
X162408834Y-109970437D01*
X162385779Y-109973856D01*
X162362500Y-109975000D01*
X161787500Y-109975000D01*
X161764221Y-109973856D01*
X161741166Y-109970437D01*
X161718557Y-109964773D01*
X161696613Y-109956921D01*
X161675543Y-109946956D01*
X161655552Y-109934974D01*
X161636832Y-109921090D01*
X161619562Y-109905438D01*
X161603910Y-109888168D01*
X161590026Y-109869448D01*
X161578044Y-109849457D01*
X161568079Y-109828387D01*
X161560227Y-109806443D01*
X161554563Y-109783834D01*
X161551144Y-109760779D01*
X161550000Y-109737500D01*
X161550000Y-109262500D01*
X161551144Y-109239221D01*
X161554563Y-109216166D01*
X161560227Y-109193557D01*
X161568079Y-109171613D01*
X161578044Y-109150543D01*
X161590026Y-109130552D01*
X161603910Y-109111832D01*
X161619562Y-109094562D01*
X161636832Y-109078910D01*
X161655552Y-109065026D01*
X161675543Y-109053044D01*
X161696613Y-109043079D01*
X161718557Y-109035227D01*
X161741166Y-109029563D01*
X161764221Y-109026144D01*
X161787500Y-109025000D01*
X162362500Y-109025000D01*
X162385779Y-109026144D01*
X162385779Y-109026144D01*
G37*
D11*
X162075000Y-109500000D03*
D22*
X148600000Y-131600000D03*
D10*
G36*
X149641033Y-132201041D02*
G01*
X147998959Y-132641033D01*
X147558967Y-130998959D01*
X149201041Y-130558967D01*
X149641033Y-132201041D01*
X149641033Y-132201041D01*
G37*
D22*
X146146548Y-132257400D03*
D23*
X146146548Y-132257400D02*
X146146548Y-132257400D01*
D10*
G36*
X143385779Y-118126144D02*
G01*
X143408834Y-118129563D01*
X143431443Y-118135227D01*
X143453387Y-118143079D01*
X143474457Y-118153044D01*
X143494448Y-118165026D01*
X143513168Y-118178910D01*
X143530438Y-118194562D01*
X143546090Y-118211832D01*
X143559974Y-118230552D01*
X143571956Y-118250543D01*
X143581921Y-118271613D01*
X143589773Y-118293557D01*
X143595437Y-118316166D01*
X143598856Y-118339221D01*
X143600000Y-118362500D01*
X143600000Y-118837500D01*
X143598856Y-118860779D01*
X143595437Y-118883834D01*
X143589773Y-118906443D01*
X143581921Y-118928387D01*
X143571956Y-118949457D01*
X143559974Y-118969448D01*
X143546090Y-118988168D01*
X143530438Y-119005438D01*
X143513168Y-119021090D01*
X143494448Y-119034974D01*
X143474457Y-119046956D01*
X143453387Y-119056921D01*
X143431443Y-119064773D01*
X143408834Y-119070437D01*
X143385779Y-119073856D01*
X143362500Y-119075000D01*
X142787500Y-119075000D01*
X142764221Y-119073856D01*
X142741166Y-119070437D01*
X142718557Y-119064773D01*
X142696613Y-119056921D01*
X142675543Y-119046956D01*
X142655552Y-119034974D01*
X142636832Y-119021090D01*
X142619562Y-119005438D01*
X142603910Y-118988168D01*
X142590026Y-118969448D01*
X142578044Y-118949457D01*
X142568079Y-118928387D01*
X142560227Y-118906443D01*
X142554563Y-118883834D01*
X142551144Y-118860779D01*
X142550000Y-118837500D01*
X142550000Y-118362500D01*
X142551144Y-118339221D01*
X142554563Y-118316166D01*
X142560227Y-118293557D01*
X142568079Y-118271613D01*
X142578044Y-118250543D01*
X142590026Y-118230552D01*
X142603910Y-118211832D01*
X142619562Y-118194562D01*
X142636832Y-118178910D01*
X142655552Y-118165026D01*
X142675543Y-118153044D01*
X142696613Y-118143079D01*
X142718557Y-118135227D01*
X142741166Y-118129563D01*
X142764221Y-118126144D01*
X142787500Y-118125000D01*
X143362500Y-118125000D01*
X143385779Y-118126144D01*
X143385779Y-118126144D01*
G37*
D11*
X143075000Y-118600000D03*
D10*
G36*
X141635779Y-118126144D02*
G01*
X141658834Y-118129563D01*
X141681443Y-118135227D01*
X141703387Y-118143079D01*
X141724457Y-118153044D01*
X141744448Y-118165026D01*
X141763168Y-118178910D01*
X141780438Y-118194562D01*
X141796090Y-118211832D01*
X141809974Y-118230552D01*
X141821956Y-118250543D01*
X141831921Y-118271613D01*
X141839773Y-118293557D01*
X141845437Y-118316166D01*
X141848856Y-118339221D01*
X141850000Y-118362500D01*
X141850000Y-118837500D01*
X141848856Y-118860779D01*
X141845437Y-118883834D01*
X141839773Y-118906443D01*
X141831921Y-118928387D01*
X141821956Y-118949457D01*
X141809974Y-118969448D01*
X141796090Y-118988168D01*
X141780438Y-119005438D01*
X141763168Y-119021090D01*
X141744448Y-119034974D01*
X141724457Y-119046956D01*
X141703387Y-119056921D01*
X141681443Y-119064773D01*
X141658834Y-119070437D01*
X141635779Y-119073856D01*
X141612500Y-119075000D01*
X141037500Y-119075000D01*
X141014221Y-119073856D01*
X140991166Y-119070437D01*
X140968557Y-119064773D01*
X140946613Y-119056921D01*
X140925543Y-119046956D01*
X140905552Y-119034974D01*
X140886832Y-119021090D01*
X140869562Y-119005438D01*
X140853910Y-118988168D01*
X140840026Y-118969448D01*
X140828044Y-118949457D01*
X140818079Y-118928387D01*
X140810227Y-118906443D01*
X140804563Y-118883834D01*
X140801144Y-118860779D01*
X140800000Y-118837500D01*
X140800000Y-118362500D01*
X140801144Y-118339221D01*
X140804563Y-118316166D01*
X140810227Y-118293557D01*
X140818079Y-118271613D01*
X140828044Y-118250543D01*
X140840026Y-118230552D01*
X140853910Y-118211832D01*
X140869562Y-118194562D01*
X140886832Y-118178910D01*
X140905552Y-118165026D01*
X140925543Y-118153044D01*
X140946613Y-118143079D01*
X140968557Y-118135227D01*
X140991166Y-118129563D01*
X141014221Y-118126144D01*
X141037500Y-118125000D01*
X141612500Y-118125000D01*
X141635779Y-118126144D01*
X141635779Y-118126144D01*
G37*
D11*
X141325000Y-118600000D03*
D10*
G36*
X141635779Y-120126144D02*
G01*
X141658834Y-120129563D01*
X141681443Y-120135227D01*
X141703387Y-120143079D01*
X141724457Y-120153044D01*
X141744448Y-120165026D01*
X141763168Y-120178910D01*
X141780438Y-120194562D01*
X141796090Y-120211832D01*
X141809974Y-120230552D01*
X141821956Y-120250543D01*
X141831921Y-120271613D01*
X141839773Y-120293557D01*
X141845437Y-120316166D01*
X141848856Y-120339221D01*
X141850000Y-120362500D01*
X141850000Y-120837500D01*
X141848856Y-120860779D01*
X141845437Y-120883834D01*
X141839773Y-120906443D01*
X141831921Y-120928387D01*
X141821956Y-120949457D01*
X141809974Y-120969448D01*
X141796090Y-120988168D01*
X141780438Y-121005438D01*
X141763168Y-121021090D01*
X141744448Y-121034974D01*
X141724457Y-121046956D01*
X141703387Y-121056921D01*
X141681443Y-121064773D01*
X141658834Y-121070437D01*
X141635779Y-121073856D01*
X141612500Y-121075000D01*
X141037500Y-121075000D01*
X141014221Y-121073856D01*
X140991166Y-121070437D01*
X140968557Y-121064773D01*
X140946613Y-121056921D01*
X140925543Y-121046956D01*
X140905552Y-121034974D01*
X140886832Y-121021090D01*
X140869562Y-121005438D01*
X140853910Y-120988168D01*
X140840026Y-120969448D01*
X140828044Y-120949457D01*
X140818079Y-120928387D01*
X140810227Y-120906443D01*
X140804563Y-120883834D01*
X140801144Y-120860779D01*
X140800000Y-120837500D01*
X140800000Y-120362500D01*
X140801144Y-120339221D01*
X140804563Y-120316166D01*
X140810227Y-120293557D01*
X140818079Y-120271613D01*
X140828044Y-120250543D01*
X140840026Y-120230552D01*
X140853910Y-120211832D01*
X140869562Y-120194562D01*
X140886832Y-120178910D01*
X140905552Y-120165026D01*
X140925543Y-120153044D01*
X140946613Y-120143079D01*
X140968557Y-120135227D01*
X140991166Y-120129563D01*
X141014221Y-120126144D01*
X141037500Y-120125000D01*
X141612500Y-120125000D01*
X141635779Y-120126144D01*
X141635779Y-120126144D01*
G37*
D11*
X141325000Y-120600000D03*
D10*
G36*
X143385779Y-120126144D02*
G01*
X143408834Y-120129563D01*
X143431443Y-120135227D01*
X143453387Y-120143079D01*
X143474457Y-120153044D01*
X143494448Y-120165026D01*
X143513168Y-120178910D01*
X143530438Y-120194562D01*
X143546090Y-120211832D01*
X143559974Y-120230552D01*
X143571956Y-120250543D01*
X143581921Y-120271613D01*
X143589773Y-120293557D01*
X143595437Y-120316166D01*
X143598856Y-120339221D01*
X143600000Y-120362500D01*
X143600000Y-120837500D01*
X143598856Y-120860779D01*
X143595437Y-120883834D01*
X143589773Y-120906443D01*
X143581921Y-120928387D01*
X143571956Y-120949457D01*
X143559974Y-120969448D01*
X143546090Y-120988168D01*
X143530438Y-121005438D01*
X143513168Y-121021090D01*
X143494448Y-121034974D01*
X143474457Y-121046956D01*
X143453387Y-121056921D01*
X143431443Y-121064773D01*
X143408834Y-121070437D01*
X143385779Y-121073856D01*
X143362500Y-121075000D01*
X142787500Y-121075000D01*
X142764221Y-121073856D01*
X142741166Y-121070437D01*
X142718557Y-121064773D01*
X142696613Y-121056921D01*
X142675543Y-121046956D01*
X142655552Y-121034974D01*
X142636832Y-121021090D01*
X142619562Y-121005438D01*
X142603910Y-120988168D01*
X142590026Y-120969448D01*
X142578044Y-120949457D01*
X142568079Y-120928387D01*
X142560227Y-120906443D01*
X142554563Y-120883834D01*
X142551144Y-120860779D01*
X142550000Y-120837500D01*
X142550000Y-120362500D01*
X142551144Y-120339221D01*
X142554563Y-120316166D01*
X142560227Y-120293557D01*
X142568079Y-120271613D01*
X142578044Y-120250543D01*
X142590026Y-120230552D01*
X142603910Y-120211832D01*
X142619562Y-120194562D01*
X142636832Y-120178910D01*
X142655552Y-120165026D01*
X142675543Y-120153044D01*
X142696613Y-120143079D01*
X142718557Y-120135227D01*
X142741166Y-120129563D01*
X142764221Y-120126144D01*
X142787500Y-120125000D01*
X143362500Y-120125000D01*
X143385779Y-120126144D01*
X143385779Y-120126144D01*
G37*
D11*
X143075000Y-120600000D03*
D24*
X132300000Y-120700000D03*
D25*
X138600000Y-120700000D03*
X138600000Y-118400000D03*
X138600000Y-123000000D03*
D10*
G36*
X122197352Y-101963695D02*
G01*
X122220407Y-101967114D01*
X122243016Y-101972778D01*
X122264960Y-101980630D01*
X122286030Y-101990595D01*
X122306021Y-102002577D01*
X122324741Y-102016461D01*
X122342011Y-102032113D01*
X122677887Y-102367989D01*
X122693539Y-102385259D01*
X122707423Y-102403979D01*
X122719405Y-102423970D01*
X122729370Y-102445040D01*
X122737222Y-102466984D01*
X122742886Y-102489593D01*
X122746305Y-102512648D01*
X122747449Y-102535927D01*
X122746305Y-102559206D01*
X122742886Y-102582261D01*
X122737222Y-102604870D01*
X122729370Y-102626814D01*
X122719405Y-102647884D01*
X122707423Y-102667875D01*
X122693539Y-102686595D01*
X122677887Y-102703865D01*
X122271301Y-103110451D01*
X122254031Y-103126103D01*
X122235311Y-103139987D01*
X122215320Y-103151969D01*
X122194250Y-103161934D01*
X122172306Y-103169786D01*
X122149697Y-103175450D01*
X122126642Y-103178869D01*
X122103363Y-103180013D01*
X122080084Y-103178869D01*
X122057029Y-103175450D01*
X122034420Y-103169786D01*
X122012476Y-103161934D01*
X121991406Y-103151969D01*
X121971415Y-103139987D01*
X121952695Y-103126103D01*
X121935425Y-103110451D01*
X121599549Y-102774575D01*
X121583897Y-102757305D01*
X121570013Y-102738585D01*
X121558031Y-102718594D01*
X121548066Y-102697524D01*
X121540214Y-102675580D01*
X121534550Y-102652971D01*
X121531131Y-102629916D01*
X121529987Y-102606637D01*
X121531131Y-102583358D01*
X121534550Y-102560303D01*
X121540214Y-102537694D01*
X121548066Y-102515750D01*
X121558031Y-102494680D01*
X121570013Y-102474689D01*
X121583897Y-102455969D01*
X121599549Y-102438699D01*
X122006135Y-102032113D01*
X122023405Y-102016461D01*
X122042125Y-102002577D01*
X122062116Y-101990595D01*
X122083186Y-101980630D01*
X122105130Y-101972778D01*
X122127739Y-101967114D01*
X122150794Y-101963695D01*
X122174073Y-101962551D01*
X122197352Y-101963695D01*
X122197352Y-101963695D01*
G37*
D11*
X122138718Y-102571282D03*
D10*
G36*
X120959916Y-103201131D02*
G01*
X120982971Y-103204550D01*
X121005580Y-103210214D01*
X121027524Y-103218066D01*
X121048594Y-103228031D01*
X121068585Y-103240013D01*
X121087305Y-103253897D01*
X121104575Y-103269549D01*
X121440451Y-103605425D01*
X121456103Y-103622695D01*
X121469987Y-103641415D01*
X121481969Y-103661406D01*
X121491934Y-103682476D01*
X121499786Y-103704420D01*
X121505450Y-103727029D01*
X121508869Y-103750084D01*
X121510013Y-103773363D01*
X121508869Y-103796642D01*
X121505450Y-103819697D01*
X121499786Y-103842306D01*
X121491934Y-103864250D01*
X121481969Y-103885320D01*
X121469987Y-103905311D01*
X121456103Y-103924031D01*
X121440451Y-103941301D01*
X121033865Y-104347887D01*
X121016595Y-104363539D01*
X120997875Y-104377423D01*
X120977884Y-104389405D01*
X120956814Y-104399370D01*
X120934870Y-104407222D01*
X120912261Y-104412886D01*
X120889206Y-104416305D01*
X120865927Y-104417449D01*
X120842648Y-104416305D01*
X120819593Y-104412886D01*
X120796984Y-104407222D01*
X120775040Y-104399370D01*
X120753970Y-104389405D01*
X120733979Y-104377423D01*
X120715259Y-104363539D01*
X120697989Y-104347887D01*
X120362113Y-104012011D01*
X120346461Y-103994741D01*
X120332577Y-103976021D01*
X120320595Y-103956030D01*
X120310630Y-103934960D01*
X120302778Y-103913016D01*
X120297114Y-103890407D01*
X120293695Y-103867352D01*
X120292551Y-103844073D01*
X120293695Y-103820794D01*
X120297114Y-103797739D01*
X120302778Y-103775130D01*
X120310630Y-103753186D01*
X120320595Y-103732116D01*
X120332577Y-103712125D01*
X120346461Y-103693405D01*
X120362113Y-103676135D01*
X120768699Y-103269549D01*
X120785969Y-103253897D01*
X120804689Y-103240013D01*
X120824680Y-103228031D01*
X120845750Y-103218066D01*
X120867694Y-103210214D01*
X120890303Y-103204550D01*
X120913358Y-103201131D01*
X120936637Y-103199987D01*
X120959916Y-103201131D01*
X120959916Y-103201131D01*
G37*
D11*
X120901282Y-103808718D03*
D26*
X147853518Y-128238963D03*
X146546482Y-123361037D03*
D22*
X157000000Y-93500000D03*
D10*
G36*
X157000000Y-94702082D02*
G01*
X155797918Y-93500000D01*
X157000000Y-92297918D01*
X158202082Y-93500000D01*
X157000000Y-94702082D01*
X157000000Y-94702082D01*
G37*
D22*
X158796051Y-95296051D03*
D23*
X158796051Y-95296051D02*
X158796051Y-95296051D01*
D22*
X160592102Y-97092102D03*
D23*
X160592102Y-97092102D02*
X160592102Y-97092102D01*
D22*
X162388154Y-98888154D03*
D23*
X162388154Y-98888154D02*
X162388154Y-98888154D01*
D22*
X143300000Y-79800000D03*
D10*
G36*
X143300000Y-81002082D02*
G01*
X142097918Y-79800000D01*
X143300000Y-78597918D01*
X144502082Y-79800000D01*
X143300000Y-81002082D01*
X143300000Y-81002082D01*
G37*
D22*
X141503949Y-81596051D03*
D23*
X141503949Y-81596051D02*
X141503949Y-81596051D01*
D22*
X145096051Y-81596051D03*
D23*
X145096051Y-81596051D02*
X145096051Y-81596051D01*
D22*
X143300000Y-83392102D03*
D23*
X143300000Y-83392102D02*
X143300000Y-83392102D01*
D22*
X146892102Y-83392102D03*
D23*
X146892102Y-83392102D02*
X146892102Y-83392102D01*
D22*
X145096051Y-85188154D03*
D23*
X145096051Y-85188154D02*
X145096051Y-85188154D01*
D22*
X148688154Y-85188154D03*
D23*
X148688154Y-85188154D02*
X148688154Y-85188154D01*
D22*
X146892102Y-86984205D03*
D23*
X146892102Y-86984205D02*
X146892102Y-86984205D01*
D22*
X150484205Y-86984205D03*
D23*
X150484205Y-86984205D02*
X150484205Y-86984205D01*
D22*
X148688154Y-88780256D03*
D23*
X148688154Y-88780256D02*
X148688154Y-88780256D01*
D22*
X152280256Y-88780256D03*
D23*
X152280256Y-88780256D02*
X152280256Y-88780256D01*
D22*
X150484205Y-90576307D03*
D23*
X150484205Y-90576307D02*
X150484205Y-90576307D01*
D27*
X120271371Y-122071371D03*
D10*
G36*
X121013833Y-121753173D02*
G01*
X119953173Y-122813833D01*
X119528909Y-122389569D01*
X120589569Y-121328909D01*
X121013833Y-121753173D01*
X121013833Y-121753173D01*
G37*
D27*
X118008629Y-119808629D03*
D10*
G36*
X118751091Y-119490431D02*
G01*
X117690431Y-120551091D01*
X117266167Y-120126827D01*
X118326827Y-119066167D01*
X118751091Y-119490431D01*
X118751091Y-119490431D01*
G37*
D27*
X117998629Y-110448629D03*
D10*
G36*
X118741091Y-110130431D02*
G01*
X117680431Y-111191091D01*
X117256167Y-110766827D01*
X118316827Y-109706167D01*
X118741091Y-110130431D01*
X118741091Y-110130431D01*
G37*
D27*
X120261371Y-112711371D03*
D10*
G36*
X121003833Y-112393173D02*
G01*
X119943173Y-113453833D01*
X119518909Y-113029569D01*
X120579569Y-111968909D01*
X121003833Y-112393173D01*
X121003833Y-112393173D01*
G37*
D27*
X122678629Y-115068629D03*
D10*
G36*
X123421091Y-114750431D02*
G01*
X122360431Y-115811091D01*
X121936167Y-115386827D01*
X122996827Y-114326167D01*
X123421091Y-114750431D01*
X123421091Y-114750431D01*
G37*
D27*
X124941371Y-117331371D03*
D10*
G36*
X125683833Y-117013173D02*
G01*
X124623173Y-118073833D01*
X124198909Y-117649569D01*
X125259569Y-116588909D01*
X125683833Y-117013173D01*
X125683833Y-117013173D01*
G37*
D22*
X154500000Y-125300000D03*
D10*
G36*
X153338878Y-124988878D02*
G01*
X154811122Y-124138878D01*
X155661122Y-125611122D01*
X154188878Y-126461122D01*
X153338878Y-124988878D01*
X153338878Y-124988878D01*
G37*
D22*
X152300295Y-126570000D03*
D23*
X152300295Y-126570000D02*
X152300295Y-126570000D01*
D28*
X163314990Y-108325010D03*
X160190000Y-111960000D03*
X130500000Y-120700000D03*
X119400000Y-101000000D03*
X141400000Y-121600000D03*
X129410000Y-113090000D03*
X124460000Y-108260000D03*
X155400000Y-114000000D03*
X158100000Y-114000000D03*
X157400000Y-114800000D03*
X155825000Y-115199999D03*
X152312652Y-106660000D03*
X147327653Y-104197653D03*
X149610102Y-104439898D03*
X153250000Y-102680000D03*
X143400000Y-111800000D03*
X140730000Y-111800000D03*
X153762653Y-107237347D03*
X151050000Y-107160000D03*
X148024847Y-107424847D03*
X149400000Y-108300000D03*
X144800000Y-106900000D03*
X147300000Y-100240000D03*
X134450000Y-110610000D03*
X121900000Y-122260000D03*
X131930000Y-105950000D03*
X130970000Y-105130000D03*
X128230000Y-102460000D03*
X127360000Y-101560000D03*
X126420000Y-100680000D03*
X135300000Y-108182231D03*
X155700000Y-112600000D03*
X163400000Y-111000000D03*
X158100000Y-116000000D03*
X118148942Y-97351058D03*
X161060000Y-102600000D03*
X163320000Y-109500000D03*
X116800000Y-101400000D03*
X140300000Y-123000000D03*
X144400000Y-118600000D03*
X144100000Y-121400000D03*
X119990000Y-104720000D03*
X133140000Y-83210000D03*
X117200000Y-109650000D03*
X121880000Y-114280000D03*
X117400000Y-119200000D03*
D29*
X158087500Y-111000000D02*
X158050000Y-111037500D01*
X160325000Y-111000000D02*
X158087500Y-111000000D01*
X159675000Y-110350000D02*
X160325000Y-111000000D01*
X158737500Y-110350000D02*
X159675000Y-110350000D01*
X159325000Y-112000000D02*
X160325000Y-111000000D01*
X157800000Y-112000000D02*
X159325000Y-112000000D01*
X157550000Y-111037500D02*
X157550000Y-111750000D01*
X157550000Y-111750000D02*
X157800000Y-112000000D01*
X120650451Y-97471267D02*
X120650451Y-97549549D01*
X162540364Y-108000000D02*
X162865374Y-108325010D01*
X162075000Y-108000000D02*
X162540364Y-108000000D01*
X162865374Y-108325010D02*
X163314990Y-108325010D01*
X163314990Y-108325010D02*
X163340000Y-108325010D01*
X160325000Y-111575000D02*
X160190000Y-111710000D01*
X160325000Y-111000000D02*
X160325000Y-111575000D01*
X160190000Y-111710000D02*
X160190000Y-111960000D01*
X160190000Y-111960000D02*
X160190000Y-111960000D01*
X119018718Y-99103000D02*
X119018718Y-99362564D01*
X120650451Y-97471267D02*
X119018718Y-99103000D01*
X138700000Y-120600000D02*
X138600000Y-120700000D01*
X141325000Y-120600000D02*
X138700000Y-120600000D01*
X141325000Y-120600000D02*
X141325000Y-121175000D01*
X132300000Y-120700000D02*
X131050000Y-120700000D01*
X131050000Y-120700000D02*
X130500000Y-120700000D01*
X119018718Y-99362564D02*
X119018718Y-100618718D01*
X119018718Y-100618718D02*
X119400000Y-101000000D01*
X141325000Y-121175000D02*
X141325000Y-121525000D01*
X141325000Y-121525000D02*
X141400000Y-121600000D01*
X128630000Y-113860000D02*
X128640000Y-113860000D01*
X128640000Y-113860000D02*
X129410000Y-113090000D01*
X123648718Y-109071282D02*
X124460000Y-108260000D01*
X157205686Y-119175102D02*
X154400000Y-116369416D01*
X157697962Y-119175102D02*
X157205686Y-119175102D01*
X154400000Y-116369416D02*
X154400000Y-115422904D01*
X154400000Y-115422904D02*
X154400000Y-114900000D01*
X154400000Y-114900000D02*
X155300000Y-114000000D01*
X155300000Y-114000000D02*
X155400000Y-114000000D01*
X159975000Y-109850000D02*
X158737500Y-109850000D01*
X160325000Y-109500000D02*
X159975000Y-109850000D01*
X161175010Y-110350010D02*
X160325000Y-109500000D01*
X161175010Y-112124990D02*
X161175010Y-110350010D01*
X160600000Y-112700000D02*
X161175010Y-112124990D01*
X158100000Y-114000000D02*
X159400000Y-112700000D01*
X159400000Y-112700000D02*
X160600000Y-112700000D01*
X155600000Y-124200000D02*
X154500000Y-125300000D01*
X156400000Y-124200000D02*
X155600000Y-124200000D01*
X159000000Y-121600000D02*
X156400000Y-124200000D01*
X157697962Y-119175102D02*
X159000000Y-120477140D01*
X159000000Y-120477140D02*
X159000000Y-121600000D01*
X157050000Y-111037500D02*
X157050000Y-114450000D01*
X157050000Y-114450000D02*
X157400000Y-114800000D01*
X155259315Y-115199999D02*
X155100000Y-115359314D01*
X155825000Y-115199999D02*
X155259315Y-115199999D01*
X158043436Y-118642654D02*
X158070786Y-118642654D01*
X155100000Y-115699218D02*
X158043436Y-118642654D01*
X155100000Y-115359314D02*
X155100000Y-115699218D01*
X158416261Y-118110205D02*
X158443611Y-118110205D01*
X156550000Y-116243944D02*
X158416261Y-118110205D01*
X156550000Y-111037500D02*
X156550000Y-116243944D01*
X154862500Y-108350000D02*
X153850000Y-108350000D01*
X153850000Y-108350000D02*
X153750000Y-108350000D01*
X153037652Y-107637652D02*
X153750000Y-108350000D01*
X153037652Y-106205732D02*
X153037652Y-107637652D01*
X161186073Y-98888154D02*
X162388154Y-98888154D01*
X158824990Y-101249237D02*
X161186073Y-98888154D01*
X158824990Y-103020520D02*
X158824990Y-101249237D01*
X155639778Y-106205732D02*
X158824990Y-103020520D01*
X153037652Y-106205732D02*
X155639778Y-106205732D01*
X147901920Y-101070000D02*
X153037652Y-106205732D01*
X146416965Y-101070000D02*
X147901920Y-101070000D01*
X134587527Y-89240562D02*
X146416965Y-101070000D01*
X135365344Y-88144528D02*
X134587527Y-88922345D01*
X134587527Y-88922345D02*
X134587527Y-89240562D01*
X154862500Y-108850000D02*
X153450000Y-108850000D01*
X133689501Y-88978946D02*
X133689501Y-88024320D01*
X133689501Y-88024320D02*
X134467318Y-87246503D01*
X146240555Y-101530000D02*
X133689501Y-88978946D01*
X147725510Y-101530000D02*
X146240555Y-101530000D01*
X153450000Y-108850000D02*
X152300000Y-107700000D01*
X152300000Y-106104490D02*
X147725510Y-101530000D01*
X152300000Y-107700000D02*
X152300000Y-106672652D01*
X152300000Y-106672652D02*
X152312652Y-106660000D01*
X152300000Y-106647348D02*
X152312652Y-106660000D01*
X152300000Y-106104490D02*
X152300000Y-106647348D01*
X143476179Y-101990000D02*
X143510000Y-101990000D01*
X141287363Y-99801184D02*
X143476179Y-101990000D01*
X143476179Y-101990000D02*
X143486169Y-101980010D01*
X147180000Y-104050000D02*
X147327653Y-104197653D01*
X147327653Y-104197653D02*
X146510000Y-103380000D01*
X144866179Y-103380000D02*
X143476179Y-101990000D01*
X146510000Y-103380000D02*
X144866179Y-103380000D01*
X143755120Y-99680975D02*
X146564145Y-102490000D01*
X142185389Y-98903158D02*
X142963206Y-99680975D01*
X142963206Y-99680975D02*
X143755120Y-99680975D01*
X146564145Y-102490000D02*
X147860000Y-102490000D01*
X147860000Y-102490000D02*
X149710000Y-104340000D01*
X149710000Y-104340000D02*
X149610102Y-104439898D01*
X154445000Y-102680000D02*
X154525000Y-102600000D01*
X153250000Y-102680000D02*
X154445000Y-102680000D01*
X157000000Y-100125000D02*
X154525000Y-102600000D01*
X157000000Y-93500000D02*
X157000000Y-100125000D01*
X143400000Y-111800000D02*
X146250000Y-111800000D01*
X120300000Y-101173002D02*
X119264999Y-102208003D01*
X121548477Y-98369292D02*
X120300000Y-99617769D01*
X120300000Y-99617769D02*
X120300000Y-101173002D01*
X122705446Y-110508718D02*
X122711282Y-110508718D01*
X120261371Y-112458629D02*
X120261371Y-112711371D01*
X122411282Y-110308718D02*
X120261371Y-112458629D01*
X123502565Y-111400001D02*
X122411282Y-110308718D01*
X140730000Y-111800000D02*
X140330001Y-111400001D01*
X140330001Y-111400001D02*
X123502565Y-111400001D01*
X119264999Y-107162435D02*
X119264999Y-102208003D01*
X122411282Y-110308718D02*
X119264999Y-107162435D01*
X150175928Y-106299072D02*
X150675000Y-105800000D01*
X147450001Y-109024999D02*
X150175928Y-106299072D01*
X146025001Y-109024999D02*
X147450001Y-109024999D01*
X145300000Y-109750000D02*
X146025001Y-109024999D01*
X145300000Y-109800000D02*
X145300000Y-109750000D01*
X150675000Y-105800000D02*
X150675000Y-106375000D01*
X154249847Y-107237347D02*
X154862500Y-107850000D01*
X153762653Y-107237347D02*
X154249847Y-107237347D01*
X150650001Y-106399999D02*
X150675000Y-106375000D01*
X150650001Y-106760001D02*
X150650001Y-106399999D01*
X151050000Y-107160000D02*
X150650001Y-106760001D01*
X148925000Y-109800000D02*
X147200000Y-109800000D01*
X148925000Y-105800000D02*
X147200000Y-105800000D01*
X145300000Y-105800000D02*
X145300000Y-105850000D01*
X146474999Y-107024999D02*
X147624999Y-107024999D01*
X145300000Y-105850000D02*
X146474999Y-107024999D01*
X147624999Y-107024999D02*
X148024847Y-107424847D01*
X149400000Y-108525000D02*
X150675000Y-109800000D01*
X149400000Y-108300000D02*
X149400000Y-108525000D01*
X154350000Y-109850000D02*
X154862500Y-109850000D01*
X150725000Y-109850000D02*
X150675000Y-109800000D01*
X154862500Y-109850000D02*
X150725000Y-109850000D01*
X145350000Y-106900000D02*
X146250000Y-107800000D01*
X144800000Y-106900000D02*
X145350000Y-106900000D01*
X143447574Y-96387574D02*
X143447574Y-96226759D01*
X147300000Y-100240000D02*
X143447574Y-96387574D01*
X144800000Y-106900000D02*
X144140000Y-106900000D01*
X144140000Y-106900000D02*
X141490000Y-109550000D01*
X141490000Y-109550000D02*
X141490000Y-112470000D01*
X138462564Y-115497436D02*
X131057436Y-115497436D01*
X141490000Y-112470000D02*
X138462564Y-115497436D01*
X131057436Y-115497436D02*
X131502564Y-115497436D01*
X126892564Y-115521600D02*
X126892564Y-115497436D01*
X130657436Y-115097436D02*
X127392564Y-115097436D01*
X131057436Y-115497436D02*
X130657436Y-115097436D01*
X126751142Y-115521600D02*
X124941371Y-117331371D01*
X126892564Y-115521600D02*
X126751142Y-115521600D01*
X135779001Y-106865180D02*
X135001184Y-106087363D01*
X135779001Y-106865180D02*
X135779001Y-106879001D01*
X136310000Y-107396179D02*
X136310000Y-108750000D01*
X135779001Y-106865180D02*
X136310000Y-107396179D01*
X136310000Y-108750000D02*
X134450000Y-110610000D01*
X120460000Y-122260000D02*
X120342082Y-122142082D01*
X121840000Y-122200000D02*
X120400000Y-122200000D01*
X145505924Y-90576307D02*
X150484205Y-90576307D01*
X141651523Y-94430708D02*
X145505924Y-90576307D01*
X145505923Y-88780256D02*
X148688154Y-88780256D01*
X140753497Y-93532682D02*
X145505923Y-88780256D01*
X130528733Y-107349549D02*
X130530451Y-107349549D01*
X130530451Y-107349549D02*
X131930000Y-105950000D01*
X129630708Y-106451523D02*
X129648477Y-106451523D01*
X129648477Y-106451523D02*
X130970000Y-105130000D01*
X126936631Y-103757446D02*
X126936631Y-103753369D01*
X126936631Y-103753369D02*
X128230000Y-102460000D01*
X126038605Y-102859420D02*
X126060580Y-102859420D01*
X126060580Y-102859420D02*
X127360000Y-101560000D01*
X143709871Y-85188154D02*
X145096051Y-85188154D01*
X138059420Y-90838605D02*
X143709871Y-85188154D01*
X143709872Y-86984205D02*
X146892102Y-86984205D01*
X138957446Y-91736631D02*
X143709872Y-86984205D01*
X141125000Y-118400000D02*
X141325000Y-118600000D01*
X138600000Y-118400000D02*
X141125000Y-118400000D01*
X141824072Y-119099072D02*
X141325000Y-118600000D01*
X142125010Y-119400010D02*
X141824072Y-119099072D01*
X143441054Y-119400010D02*
X142125010Y-119400010D01*
X146546482Y-122505438D02*
X143441054Y-119400010D01*
X146546482Y-123361037D02*
X146546482Y-122505438D01*
X123430693Y-103671282D02*
X123238718Y-103671282D01*
X125140580Y-101961395D02*
X123430693Y-103671282D01*
X122138718Y-102571282D02*
X123238718Y-103671282D01*
X125140580Y-101961395D02*
X125140580Y-101959420D01*
X125140580Y-101959420D02*
X126420000Y-100680000D01*
X157925000Y-102600000D02*
X156275000Y-102600000D01*
X158787500Y-109300000D02*
X158737500Y-109350000D01*
X159825928Y-108499072D02*
X160325000Y-108000000D01*
X159475010Y-108849990D02*
X159825928Y-108499072D01*
X159475010Y-109124990D02*
X159475010Y-108849990D01*
X159250000Y-109350000D02*
X159475010Y-109124990D01*
X158737500Y-109350000D02*
X159250000Y-109350000D01*
X127056839Y-105433289D02*
X127056711Y-105433289D01*
X127834656Y-104655472D02*
X127056839Y-105433289D01*
X127056711Y-105433289D02*
X126050000Y-106440000D01*
X123532564Y-106440000D02*
X122001282Y-104908718D01*
X126050000Y-106440000D02*
X123532564Y-106440000D01*
X134103158Y-106985389D02*
X135300000Y-108182231D01*
X135300000Y-108182231D02*
X135300000Y-108182231D01*
X156050000Y-111037500D02*
X156050000Y-112250000D01*
X156050000Y-112250000D02*
X155700000Y-112600000D01*
X155700000Y-112600000D02*
X155700000Y-112600000D01*
X162075000Y-111000000D02*
X163400000Y-111000000D01*
X163400000Y-111000000D02*
X163400000Y-111000000D01*
X163400000Y-111000000D02*
X163400000Y-111000000D01*
X163400000Y-111000000D02*
X163400000Y-111000000D01*
X159189260Y-117045307D02*
X158243953Y-116100000D01*
X158243953Y-116100000D02*
X158200000Y-116100000D01*
X158200000Y-116100000D02*
X158100000Y-116000000D01*
X118974609Y-97351058D02*
X118948942Y-97351058D01*
X119752426Y-96573241D02*
X118974609Y-97351058D01*
X118974609Y-97351058D02*
X118148942Y-97351058D01*
X159675000Y-102600000D02*
X161060000Y-102600000D01*
X161060000Y-102600000D02*
X161060000Y-102600000D01*
X162075000Y-109500000D02*
X163320000Y-109500000D01*
X163320000Y-109500000D02*
X163320000Y-109500000D01*
X117600000Y-100600000D02*
X116800000Y-101400000D01*
X117781282Y-100600000D02*
X117600000Y-100600000D01*
X138600000Y-123000000D02*
X139850000Y-123000000D01*
X139850000Y-123000000D02*
X140300000Y-123000000D01*
X143075000Y-118600000D02*
X144400000Y-118600000D01*
X143075000Y-120600000D02*
X143300000Y-120600000D01*
X143300000Y-120600000D02*
X144100000Y-121400000D01*
X120901282Y-103808718D02*
X119990000Y-104720000D01*
X131773241Y-84552426D02*
X131797574Y-84552426D01*
X131797574Y-84552426D02*
X133140000Y-83210000D01*
X117927918Y-110377918D02*
X117200000Y-109650000D01*
X122607918Y-114997918D02*
X122597918Y-114997918D01*
X122597918Y-114997918D02*
X121880000Y-114280000D01*
X118008629Y-119808629D02*
X117400000Y-119200000D01*
X148226467Y-131226467D02*
X148600000Y-131600000D01*
X148052934Y-131052934D02*
X148600000Y-131600000D01*
X148126467Y-131126467D02*
X148600000Y-131600000D01*
X147853518Y-130853518D02*
X148600000Y-131600000D01*
X147853518Y-128238963D02*
X147853518Y-130853518D01*
X149522481Y-126570000D02*
X147853518Y-128238963D01*
X152300295Y-126570000D02*
X149522481Y-126570000D01*
M02*
