G04 #@! TF.GenerationSoftware,KiCad,Pcbnew,(5.1.4)-1*
G04 #@! TF.CreationDate,2020-04-17T22:35:52+02:00*
G04 #@! TF.ProjectId,Sensorbaustein,53656e73-6f72-4626-9175-737465696e2e,1.7*
G04 #@! TF.SameCoordinates,Original*
G04 #@! TF.FileFunction,Soldermask,Top*
G04 #@! TF.FilePolarity,Negative*
%FSLAX46Y46*%
G04 Gerber Fmt 4.6, Leading zero omitted, Abs format (unit mm)*
G04 Created by KiCad (PCBNEW (5.1.4)-1) date 2020-04-17 22:35:52*
%MOMM*%
%LPD*%
G04 APERTURE LIST*
%ADD10C,0.100000*%
G04 APERTURE END LIST*
D10*
G36*
X146256991Y-131362919D02*
G01*
X146323175Y-131369437D01*
X146493014Y-131420957D01*
X146649539Y-131504622D01*
X146685277Y-131533952D01*
X146786734Y-131617214D01*
X146869996Y-131718671D01*
X146899326Y-131754409D01*
X146982991Y-131910934D01*
X147034511Y-132080773D01*
X147051907Y-132257400D01*
X147034511Y-132434027D01*
X146982991Y-132603866D01*
X146899326Y-132760391D01*
X146869996Y-132796129D01*
X146786734Y-132897586D01*
X146685277Y-132980848D01*
X146649539Y-133010178D01*
X146493014Y-133093843D01*
X146323175Y-133145363D01*
X146256991Y-133151881D01*
X146190808Y-133158400D01*
X146102288Y-133158400D01*
X146036105Y-133151881D01*
X145969921Y-133145363D01*
X145800082Y-133093843D01*
X145643557Y-133010178D01*
X145607819Y-132980848D01*
X145506362Y-132897586D01*
X145423100Y-132796129D01*
X145393770Y-132760391D01*
X145310105Y-132603866D01*
X145258585Y-132434027D01*
X145241189Y-132257400D01*
X145258585Y-132080773D01*
X145310105Y-131910934D01*
X145393770Y-131754409D01*
X145423100Y-131718671D01*
X145506362Y-131617214D01*
X145607819Y-131533952D01*
X145643557Y-131504622D01*
X145800082Y-131420957D01*
X145969921Y-131369437D01*
X146036105Y-131362919D01*
X146102288Y-131356400D01*
X146190808Y-131356400D01*
X146256991Y-131362919D01*
X146256991Y-131362919D01*
G37*
G36*
X149703495Y-132237103D02*
G01*
X147962897Y-132703495D01*
X147496505Y-130962897D01*
X149237103Y-130496505D01*
X149703495Y-132237103D01*
X149703495Y-132237103D01*
G37*
G36*
X148044865Y-127608172D02*
G01*
X148164252Y-127657624D01*
X148271691Y-127729412D01*
X148363069Y-127820790D01*
X148434857Y-127928229D01*
X148484309Y-128047616D01*
X148509518Y-128174351D01*
X148509518Y-128303575D01*
X148484309Y-128430310D01*
X148434857Y-128549697D01*
X148363069Y-128657136D01*
X148271691Y-128748514D01*
X148164252Y-128820302D01*
X148044865Y-128869754D01*
X147918130Y-128894963D01*
X147788906Y-128894963D01*
X147662171Y-128869754D01*
X147542784Y-128820302D01*
X147435345Y-128748514D01*
X147343967Y-128657136D01*
X147272179Y-128549697D01*
X147222727Y-128430310D01*
X147197518Y-128303575D01*
X147197518Y-128174351D01*
X147222727Y-128047616D01*
X147272179Y-127928229D01*
X147343967Y-127820790D01*
X147435345Y-127729412D01*
X147542784Y-127657624D01*
X147662171Y-127608172D01*
X147788906Y-127582963D01*
X147918130Y-127582963D01*
X148044865Y-127608172D01*
X148044865Y-127608172D01*
G37*
G36*
X152410737Y-125675518D02*
G01*
X152476922Y-125682037D01*
X152646761Y-125733557D01*
X152803286Y-125817222D01*
X152839024Y-125846552D01*
X152940481Y-125929814D01*
X153023743Y-126031271D01*
X153053073Y-126067009D01*
X153136738Y-126223534D01*
X153188258Y-126393373D01*
X153205654Y-126570000D01*
X153188258Y-126746627D01*
X153136738Y-126916466D01*
X153053073Y-127072991D01*
X153023743Y-127108729D01*
X152940481Y-127210186D01*
X152839024Y-127293448D01*
X152803286Y-127322778D01*
X152646761Y-127406443D01*
X152476922Y-127457963D01*
X152410738Y-127464481D01*
X152344555Y-127471000D01*
X152256035Y-127471000D01*
X152189852Y-127464481D01*
X152123668Y-127457963D01*
X151953829Y-127406443D01*
X151797304Y-127322778D01*
X151761566Y-127293448D01*
X151660109Y-127210186D01*
X151576847Y-127108729D01*
X151547517Y-127072991D01*
X151463852Y-126916466D01*
X151412332Y-126746627D01*
X151394936Y-126570000D01*
X151412332Y-126393373D01*
X151463852Y-126223534D01*
X151547517Y-126067009D01*
X151576847Y-126031271D01*
X151660109Y-125929814D01*
X151761566Y-125846552D01*
X151797304Y-125817222D01*
X151953829Y-125733557D01*
X152123668Y-125682037D01*
X152189853Y-125675518D01*
X152256035Y-125669000D01*
X152344555Y-125669000D01*
X152410737Y-125675518D01*
X152410737Y-125675518D01*
G37*
G36*
X155730790Y-125629789D02*
G01*
X154170211Y-126530790D01*
X153269210Y-124970211D01*
X154829789Y-124069210D01*
X155730790Y-125629789D01*
X155730790Y-125629789D01*
G37*
G36*
X159244657Y-122692158D02*
G01*
X159361853Y-122730520D01*
X159442390Y-122775854D01*
X160025207Y-123183947D01*
X160095349Y-123244119D01*
X160148227Y-123311497D01*
X160171479Y-123341123D01*
X160227221Y-123451115D01*
X160260433Y-123569870D01*
X160268229Y-123671769D01*
X160269840Y-123692825D01*
X160255080Y-123815243D01*
X160216718Y-123932439D01*
X160156232Y-124039894D01*
X160075941Y-124133488D01*
X160046755Y-124156393D01*
X159978938Y-124209617D01*
X159868946Y-124265359D01*
X159750191Y-124298571D01*
X159627239Y-124307978D01*
X159627236Y-124307978D01*
X159504818Y-124293218D01*
X159387618Y-124254855D01*
X159307094Y-124209527D01*
X159307090Y-124209524D01*
X159307086Y-124209522D01*
X159057064Y-124034454D01*
X158724269Y-123801429D01*
X158654128Y-123741258D01*
X158599593Y-123671769D01*
X158577997Y-123644252D01*
X158522255Y-123534260D01*
X158489043Y-123415505D01*
X158479636Y-123292554D01*
X158479636Y-123292551D01*
X158494396Y-123170133D01*
X158532758Y-123052937D01*
X158593244Y-122945482D01*
X158673535Y-122851888D01*
X158729807Y-122807726D01*
X158770538Y-122775759D01*
X158880530Y-122720017D01*
X158999285Y-122686805D01*
X159122236Y-122677398D01*
X159122239Y-122677398D01*
X159244657Y-122692158D01*
X159244657Y-122692158D01*
G37*
G36*
X146737829Y-122730246D02*
G01*
X146809398Y-122759891D01*
X146847707Y-122775759D01*
X146857216Y-122779698D01*
X146964655Y-122851486D01*
X147056033Y-122942864D01*
X147127821Y-123050303D01*
X147127822Y-123050305D01*
X147139024Y-123077350D01*
X147177273Y-123169690D01*
X147202482Y-123296425D01*
X147202482Y-123425649D01*
X147177273Y-123552384D01*
X147127821Y-123671771D01*
X147056033Y-123779210D01*
X146964655Y-123870588D01*
X146857216Y-123942376D01*
X146737829Y-123991828D01*
X146611094Y-124017037D01*
X146481870Y-124017037D01*
X146355135Y-123991828D01*
X146235748Y-123942376D01*
X146128309Y-123870588D01*
X146036931Y-123779210D01*
X145965143Y-123671771D01*
X145915691Y-123552384D01*
X145890482Y-123425649D01*
X145890482Y-123296425D01*
X145915691Y-123169690D01*
X145953940Y-123077350D01*
X145965142Y-123050305D01*
X145965143Y-123050303D01*
X146036931Y-122942864D01*
X146128309Y-122851486D01*
X146235748Y-122779698D01*
X146245258Y-122775759D01*
X146283566Y-122759891D01*
X146355135Y-122730246D01*
X146481870Y-122705037D01*
X146611094Y-122705037D01*
X146737829Y-122730246D01*
X146737829Y-122730246D01*
G37*
G36*
X139651000Y-122759891D02*
G01*
X139653402Y-122784277D01*
X139660515Y-122807726D01*
X139672066Y-122829337D01*
X139687611Y-122848279D01*
X139706553Y-122863824D01*
X139728164Y-122875375D01*
X139751613Y-122882488D01*
X139775999Y-122884890D01*
X139800385Y-122882488D01*
X139823834Y-122875375D01*
X139845445Y-122863824D01*
X139864387Y-122848279D01*
X139879932Y-122829337D01*
X139891483Y-122807727D01*
X139900329Y-122786371D01*
X139949685Y-122712505D01*
X140012505Y-122649685D01*
X140071428Y-122610314D01*
X140086371Y-122600329D01*
X140086373Y-122600328D01*
X140168448Y-122566331D01*
X140255579Y-122549000D01*
X140344421Y-122549000D01*
X140431552Y-122566331D01*
X140513627Y-122600328D01*
X140513629Y-122600329D01*
X140587496Y-122649686D01*
X140650314Y-122712504D01*
X140698272Y-122784277D01*
X140699672Y-122786373D01*
X140733669Y-122868448D01*
X140751000Y-122955579D01*
X140751000Y-123044421D01*
X140733669Y-123131552D01*
X140711966Y-123183947D01*
X140699671Y-123213629D01*
X140650314Y-123287496D01*
X140587496Y-123350314D01*
X140513629Y-123399671D01*
X140513628Y-123399672D01*
X140513627Y-123399672D01*
X140431552Y-123433669D01*
X140344421Y-123451000D01*
X140255579Y-123451000D01*
X140168448Y-123433669D01*
X140086373Y-123399672D01*
X140086372Y-123399672D01*
X140086371Y-123399671D01*
X140012504Y-123350314D01*
X139949686Y-123287496D01*
X139918023Y-123240109D01*
X139900329Y-123213629D01*
X139891483Y-123192273D01*
X139879932Y-123170663D01*
X139864386Y-123151721D01*
X139845444Y-123136176D01*
X139823833Y-123124625D01*
X139800384Y-123117512D01*
X139775998Y-123115110D01*
X139751612Y-123117512D01*
X139728163Y-123124625D01*
X139706553Y-123136176D01*
X139687611Y-123151722D01*
X139672066Y-123170664D01*
X139660515Y-123192275D01*
X139653402Y-123215724D01*
X139651000Y-123240109D01*
X139651000Y-123801000D01*
X137549000Y-123801000D01*
X137549000Y-122199000D01*
X139651000Y-122199000D01*
X139651000Y-122759891D01*
X139651000Y-122759891D01*
G37*
G36*
X121085958Y-121753173D02*
G01*
X119953173Y-122885958D01*
X119456784Y-122389569D01*
X120589569Y-121256784D01*
X121085958Y-121753173D01*
X121085958Y-121753173D01*
G37*
G36*
X122031552Y-121826331D02*
G01*
X122091107Y-121851000D01*
X122113629Y-121860329D01*
X122187496Y-121909686D01*
X122250314Y-121972504D01*
X122291184Y-122033669D01*
X122299672Y-122046373D01*
X122333669Y-122128448D01*
X122351000Y-122215579D01*
X122351000Y-122304421D01*
X122333669Y-122391552D01*
X122299672Y-122473627D01*
X122299671Y-122473629D01*
X122250314Y-122547496D01*
X122187496Y-122610314D01*
X122113629Y-122659671D01*
X122113628Y-122659672D01*
X122113627Y-122659672D01*
X122031552Y-122693669D01*
X121944421Y-122711000D01*
X121855579Y-122711000D01*
X121768448Y-122693669D01*
X121686373Y-122659672D01*
X121686372Y-122659672D01*
X121686371Y-122659671D01*
X121612504Y-122610314D01*
X121549686Y-122547496D01*
X121500329Y-122473629D01*
X121500328Y-122473627D01*
X121466331Y-122391552D01*
X121449000Y-122304421D01*
X121449000Y-122215579D01*
X121466331Y-122128448D01*
X121500328Y-122046373D01*
X121508817Y-122033669D01*
X121549686Y-121972504D01*
X121612504Y-121909686D01*
X121686371Y-121860329D01*
X121708893Y-121851000D01*
X121768448Y-121826331D01*
X121855579Y-121809000D01*
X121944421Y-121809000D01*
X122031552Y-121826331D01*
X122031552Y-121826331D01*
G37*
G36*
X133351000Y-122651000D02*
G01*
X131249000Y-122651000D01*
X131249000Y-118749000D01*
X133351000Y-118749000D01*
X133351000Y-122651000D01*
X133351000Y-122651000D01*
G37*
G36*
X156291501Y-120271221D02*
G01*
X156436768Y-120318772D01*
X156536602Y-120374968D01*
X156536603Y-120374969D01*
X157001666Y-120700609D01*
X157049584Y-120734162D01*
X157136530Y-120808750D01*
X157234679Y-120933812D01*
X157241303Y-120944209D01*
X157258248Y-120961910D01*
X157278321Y-120975965D01*
X157300750Y-120985834D01*
X157324673Y-120991137D01*
X157349171Y-120991672D01*
X157373303Y-120987416D01*
X157396141Y-120978535D01*
X157416807Y-120965369D01*
X157434508Y-120948424D01*
X157448563Y-120928351D01*
X157458432Y-120905922D01*
X157463735Y-120881999D01*
X157464032Y-120854785D01*
X157457555Y-120789019D01*
X157466262Y-120700609D01*
X157492051Y-120615593D01*
X157533930Y-120537244D01*
X157590288Y-120468570D01*
X157658962Y-120412212D01*
X157737311Y-120370333D01*
X157822327Y-120344544D01*
X157888579Y-120338019D01*
X157932895Y-120338019D01*
X157999147Y-120344544D01*
X158084163Y-120370333D01*
X158162512Y-120412212D01*
X158231186Y-120468570D01*
X158287544Y-120537244D01*
X158329423Y-120615593D01*
X158355212Y-120700609D01*
X158363919Y-120789019D01*
X158355212Y-120877429D01*
X158329423Y-120962445D01*
X158287544Y-121040794D01*
X158231186Y-121109468D01*
X158162512Y-121165826D01*
X158084163Y-121207705D01*
X157999147Y-121233494D01*
X157932895Y-121240019D01*
X157888579Y-121240019D01*
X157822327Y-121233494D01*
X157737311Y-121207705D01*
X157658962Y-121165826D01*
X157590288Y-121109468D01*
X157545766Y-121055216D01*
X157528439Y-121037889D01*
X157508065Y-121024275D01*
X157485426Y-121014898D01*
X157461393Y-121010117D01*
X157436889Y-121010117D01*
X157412856Y-121014897D01*
X157390217Y-121024274D01*
X157369842Y-121037888D01*
X157352515Y-121055215D01*
X157338901Y-121075589D01*
X157329524Y-121098228D01*
X157324743Y-121122261D01*
X157324743Y-121146765D01*
X157328760Y-121168182D01*
X157341171Y-121212558D01*
X157348817Y-121312504D01*
X157352113Y-121355580D01*
X157352831Y-121364972D01*
X157334533Y-121516731D01*
X157292124Y-121646288D01*
X157286980Y-121662003D01*
X157237269Y-121750315D01*
X157211998Y-121795209D01*
X157112472Y-121911226D01*
X157062664Y-121950315D01*
X156992224Y-122005597D01*
X156855875Y-122074696D01*
X156823702Y-122083694D01*
X156708665Y-122115867D01*
X156576476Y-122125980D01*
X156556251Y-122127527D01*
X156556249Y-122127527D01*
X156404496Y-122109230D01*
X156404493Y-122109229D01*
X156404492Y-122109229D01*
X156298994Y-122074696D01*
X156259214Y-122061675D01*
X156159397Y-122005487D01*
X156151091Y-121999671D01*
X155646412Y-121646291D01*
X155646411Y-121646290D01*
X155646408Y-121646288D01*
X155559462Y-121571700D01*
X155465092Y-121451453D01*
X155432111Y-121386373D01*
X155395992Y-121315103D01*
X155377697Y-121249686D01*
X155354821Y-121167892D01*
X155343161Y-121015478D01*
X155361459Y-120863719D01*
X155409010Y-120718452D01*
X155462618Y-120623216D01*
X155483993Y-120585242D01*
X155568809Y-120486373D01*
X155583520Y-120469224D01*
X155703767Y-120374854D01*
X155712688Y-120370333D01*
X155840117Y-120305754D01*
X155872290Y-120296756D01*
X155987328Y-120264583D01*
X156119515Y-120254470D01*
X156139740Y-120252923D01*
X156139742Y-120252923D01*
X156291501Y-120271221D01*
X156291501Y-120271221D01*
G37*
G36*
X141739499Y-120078445D02*
G01*
X141776995Y-120089820D01*
X141811554Y-120108292D01*
X141841847Y-120133153D01*
X141866708Y-120163446D01*
X141885180Y-120198005D01*
X141896555Y-120235501D01*
X141901000Y-120280638D01*
X141901000Y-120919362D01*
X141896555Y-120964499D01*
X141885180Y-121001995D01*
X141866708Y-121036554D01*
X141841847Y-121066847D01*
X141811552Y-121091710D01*
X141776400Y-121110499D01*
X141756025Y-121124112D01*
X141738698Y-121141439D01*
X141725085Y-121161814D01*
X141715707Y-121184453D01*
X141710927Y-121208486D01*
X141710927Y-121232990D01*
X141715707Y-121257023D01*
X141725085Y-121279662D01*
X141746936Y-121309126D01*
X141750315Y-121312505D01*
X141799672Y-121386373D01*
X141833669Y-121468448D01*
X141851000Y-121555579D01*
X141851000Y-121644421D01*
X141833669Y-121731552D01*
X141799672Y-121813627D01*
X141799671Y-121813629D01*
X141750314Y-121887496D01*
X141687496Y-121950314D01*
X141613629Y-121999671D01*
X141613628Y-121999672D01*
X141613627Y-121999672D01*
X141531552Y-122033669D01*
X141444421Y-122051000D01*
X141355579Y-122051000D01*
X141268448Y-122033669D01*
X141186373Y-121999672D01*
X141186372Y-121999672D01*
X141186371Y-121999671D01*
X141112504Y-121950314D01*
X141049686Y-121887496D01*
X141000329Y-121813629D01*
X141000328Y-121813627D01*
X140966331Y-121731552D01*
X140949000Y-121644421D01*
X140949000Y-121555579D01*
X140966331Y-121468448D01*
X141000329Y-121386370D01*
X141044938Y-121319607D01*
X141056489Y-121297996D01*
X141063602Y-121274547D01*
X141066004Y-121250161D01*
X141063602Y-121225775D01*
X141056489Y-121202326D01*
X141044937Y-121180716D01*
X141029392Y-121161774D01*
X141010450Y-121146229D01*
X140988839Y-121134678D01*
X140965390Y-121127565D01*
X140953255Y-121125765D01*
X140910501Y-121121555D01*
X140873005Y-121110180D01*
X140838446Y-121091708D01*
X140808153Y-121066847D01*
X140783292Y-121036554D01*
X140764820Y-121001995D01*
X140753445Y-120964499D01*
X140749000Y-120919362D01*
X140749000Y-120280638D01*
X140753445Y-120235501D01*
X140764820Y-120198005D01*
X140783292Y-120163446D01*
X140808153Y-120133153D01*
X140838446Y-120108292D01*
X140873005Y-120089820D01*
X140910501Y-120078445D01*
X140955638Y-120074000D01*
X141694362Y-120074000D01*
X141739499Y-120078445D01*
X141739499Y-120078445D01*
G37*
G36*
X143489499Y-120078445D02*
G01*
X143526995Y-120089820D01*
X143561554Y-120108292D01*
X143591847Y-120133153D01*
X143616708Y-120163446D01*
X143635180Y-120198005D01*
X143646555Y-120235501D01*
X143651000Y-120280638D01*
X143651000Y-120923742D01*
X143653402Y-120948128D01*
X143660515Y-120971577D01*
X143672066Y-120993188D01*
X143687611Y-121012130D01*
X143706553Y-121027675D01*
X143728164Y-121039226D01*
X143751613Y-121046339D01*
X143775999Y-121048741D01*
X143800385Y-121046339D01*
X143823834Y-121039226D01*
X143845445Y-121027675D01*
X143868710Y-121012130D01*
X143886371Y-121000329D01*
X143886373Y-121000328D01*
X143968448Y-120966331D01*
X144055579Y-120949000D01*
X144144421Y-120949000D01*
X144231552Y-120966331D01*
X144313627Y-121000328D01*
X144313629Y-121000329D01*
X144331290Y-121012130D01*
X144387495Y-121049685D01*
X144450315Y-121112505D01*
X144474700Y-121149000D01*
X144487324Y-121167892D01*
X144499672Y-121186373D01*
X144533669Y-121268448D01*
X144551000Y-121355579D01*
X144551000Y-121444421D01*
X144533669Y-121531552D01*
X144499672Y-121613627D01*
X144450315Y-121687495D01*
X144387495Y-121750315D01*
X144350813Y-121774825D01*
X144313629Y-121799671D01*
X144313628Y-121799672D01*
X144313627Y-121799672D01*
X144231552Y-121833669D01*
X144144421Y-121851000D01*
X144055579Y-121851000D01*
X143968448Y-121833669D01*
X143886373Y-121799672D01*
X143886372Y-121799672D01*
X143886371Y-121799671D01*
X143849187Y-121774825D01*
X143812505Y-121750315D01*
X143749685Y-121687495D01*
X143700328Y-121613627D01*
X143666331Y-121531552D01*
X143649000Y-121444421D01*
X143649000Y-121355579D01*
X143668096Y-121259576D01*
X143670498Y-121235190D01*
X143668096Y-121210804D01*
X143660983Y-121187355D01*
X143649432Y-121165744D01*
X143633886Y-121146802D01*
X143614944Y-121131257D01*
X143593334Y-121119706D01*
X143569885Y-121112593D01*
X143545499Y-121110191D01*
X143521113Y-121112593D01*
X143509212Y-121115574D01*
X143489497Y-121121555D01*
X143444362Y-121126000D01*
X142705638Y-121126000D01*
X142660501Y-121121555D01*
X142623005Y-121110180D01*
X142588446Y-121091708D01*
X142558153Y-121066847D01*
X142533292Y-121036554D01*
X142514820Y-121001995D01*
X142503445Y-120964499D01*
X142499000Y-120919362D01*
X142499000Y-120280638D01*
X142503445Y-120235501D01*
X142514820Y-120198005D01*
X142533292Y-120163446D01*
X142558153Y-120133153D01*
X142588446Y-120108292D01*
X142623005Y-120089820D01*
X142660501Y-120078445D01*
X142705638Y-120074000D01*
X143444362Y-120074000D01*
X143489499Y-120078445D01*
X143489499Y-120078445D01*
G37*
G36*
X139651000Y-121501000D02*
G01*
X137549000Y-121501000D01*
X137549000Y-119899000D01*
X139651000Y-119899000D01*
X139651000Y-121501000D01*
X139651000Y-121501000D01*
G37*
G36*
X130631552Y-120266331D02*
G01*
X130713627Y-120300328D01*
X130713629Y-120300329D01*
X130741235Y-120318775D01*
X130770036Y-120338019D01*
X130787496Y-120349686D01*
X130850314Y-120412504D01*
X130888214Y-120469224D01*
X130899672Y-120486373D01*
X130933669Y-120568448D01*
X130951000Y-120655579D01*
X130951000Y-120744421D01*
X130933669Y-120831552D01*
X130899672Y-120913627D01*
X130899671Y-120913629D01*
X130889834Y-120928351D01*
X130850315Y-120987495D01*
X130787495Y-121050315D01*
X130780160Y-121055216D01*
X130713629Y-121099671D01*
X130713628Y-121099672D01*
X130713627Y-121099672D01*
X130631552Y-121133669D01*
X130544421Y-121151000D01*
X130455579Y-121151000D01*
X130368448Y-121133669D01*
X130286373Y-121099672D01*
X130286372Y-121099672D01*
X130286371Y-121099671D01*
X130219840Y-121055216D01*
X130212505Y-121050315D01*
X130149685Y-120987495D01*
X130110166Y-120928351D01*
X130100329Y-120913629D01*
X130100328Y-120913627D01*
X130066331Y-120831552D01*
X130049000Y-120744421D01*
X130049000Y-120655579D01*
X130066331Y-120568448D01*
X130100328Y-120486373D01*
X130111787Y-120469224D01*
X130149686Y-120412504D01*
X130212504Y-120349686D01*
X130229965Y-120338019D01*
X130258765Y-120318775D01*
X130286371Y-120300329D01*
X130286373Y-120300328D01*
X130368448Y-120266331D01*
X130455579Y-120249000D01*
X130544421Y-120249000D01*
X130631552Y-120266331D01*
X130631552Y-120266331D01*
G37*
G36*
X117531552Y-118766331D02*
G01*
X117613627Y-118800328D01*
X117613629Y-118800329D01*
X117641040Y-118818645D01*
X117687495Y-118849685D01*
X117750315Y-118912505D01*
X117799672Y-118986373D01*
X117833669Y-119068448D01*
X117851000Y-119155579D01*
X117851000Y-119168095D01*
X117853402Y-119192481D01*
X117860515Y-119215930D01*
X117872066Y-119237541D01*
X117887611Y-119256483D01*
X117906553Y-119272028D01*
X117928164Y-119283579D01*
X117951613Y-119290692D01*
X117975999Y-119293094D01*
X118000385Y-119290692D01*
X118023834Y-119283579D01*
X118045445Y-119272028D01*
X118064381Y-119256488D01*
X118326827Y-118994042D01*
X118823216Y-119490431D01*
X117690431Y-120623216D01*
X117194042Y-120126827D01*
X117456488Y-119864381D01*
X117472028Y-119845445D01*
X117483579Y-119823834D01*
X117490692Y-119800385D01*
X117493094Y-119775999D01*
X117490692Y-119751613D01*
X117483579Y-119728164D01*
X117472028Y-119706553D01*
X117456483Y-119687611D01*
X117437541Y-119672066D01*
X117415930Y-119660515D01*
X117392481Y-119653402D01*
X117368095Y-119651000D01*
X117355579Y-119651000D01*
X117268448Y-119633669D01*
X117186373Y-119599672D01*
X117186372Y-119599672D01*
X117186371Y-119599671D01*
X117112504Y-119550314D01*
X117049686Y-119487496D01*
X117000329Y-119413629D01*
X117000328Y-119413627D01*
X116966331Y-119331552D01*
X116949000Y-119244421D01*
X116949000Y-119155579D01*
X116966331Y-119068448D01*
X117000328Y-118986373D01*
X117049685Y-118912505D01*
X117112505Y-118849685D01*
X117158960Y-118818645D01*
X117186371Y-118800329D01*
X117186373Y-118800328D01*
X117268448Y-118766331D01*
X117355579Y-118749000D01*
X117444421Y-118749000D01*
X117531552Y-118766331D01*
X117531552Y-118766331D01*
G37*
G36*
X159921793Y-117221298D02*
G01*
X159620665Y-117651354D01*
X159538497Y-117768703D01*
X159473800Y-117861099D01*
X159160658Y-118308313D01*
X158415008Y-119373211D01*
X158113880Y-119803266D01*
X156965429Y-118999111D01*
X157353740Y-118444545D01*
X157726564Y-117912097D01*
X158099389Y-117379648D01*
X158388057Y-116967388D01*
X158456727Y-116869316D01*
X158647368Y-116597053D01*
X158773342Y-116417143D01*
X159921793Y-117221298D01*
X159921793Y-117221298D01*
G37*
G36*
X139651000Y-119201000D02*
G01*
X137549000Y-119201000D01*
X137549000Y-117599000D01*
X139651000Y-117599000D01*
X139651000Y-119201000D01*
X139651000Y-119201000D01*
G37*
G36*
X141739499Y-118078445D02*
G01*
X141776995Y-118089820D01*
X141811554Y-118108292D01*
X141841847Y-118133153D01*
X141866708Y-118163446D01*
X141885180Y-118198005D01*
X141896555Y-118235501D01*
X141901000Y-118280638D01*
X141901000Y-118919362D01*
X141896555Y-118964499D01*
X141885180Y-119001995D01*
X141866708Y-119036554D01*
X141841847Y-119066847D01*
X141811554Y-119091708D01*
X141776995Y-119110180D01*
X141739499Y-119121555D01*
X141694362Y-119126000D01*
X140955638Y-119126000D01*
X140910501Y-119121555D01*
X140873005Y-119110180D01*
X140838446Y-119091708D01*
X140808153Y-119066847D01*
X140783292Y-119036554D01*
X140764820Y-119001995D01*
X140753445Y-118964499D01*
X140749000Y-118919362D01*
X140749000Y-118280638D01*
X140753445Y-118235501D01*
X140764820Y-118198005D01*
X140783292Y-118163446D01*
X140808153Y-118133153D01*
X140838446Y-118108292D01*
X140873005Y-118089820D01*
X140910501Y-118078445D01*
X140955638Y-118074000D01*
X141694362Y-118074000D01*
X141739499Y-118078445D01*
X141739499Y-118078445D01*
G37*
G36*
X143489499Y-118078445D02*
G01*
X143526995Y-118089820D01*
X143561554Y-118108292D01*
X143591847Y-118133153D01*
X143616708Y-118163446D01*
X143635180Y-118198005D01*
X143646555Y-118235501D01*
X143651000Y-118280638D01*
X143651000Y-118919362D01*
X143646555Y-118964499D01*
X143635180Y-119001995D01*
X143616708Y-119036554D01*
X143591847Y-119066847D01*
X143561554Y-119091708D01*
X143526995Y-119110180D01*
X143489499Y-119121555D01*
X143444362Y-119126000D01*
X142705638Y-119126000D01*
X142660501Y-119121555D01*
X142623005Y-119110180D01*
X142588446Y-119091708D01*
X142558153Y-119066847D01*
X142533292Y-119036554D01*
X142514820Y-119001995D01*
X142503445Y-118964499D01*
X142499000Y-118919362D01*
X142499000Y-118280638D01*
X142503445Y-118235501D01*
X142514820Y-118198005D01*
X142533292Y-118163446D01*
X142558153Y-118133153D01*
X142588446Y-118108292D01*
X142623005Y-118089820D01*
X142660501Y-118078445D01*
X142705638Y-118074000D01*
X143444362Y-118074000D01*
X143489499Y-118078445D01*
X143489499Y-118078445D01*
G37*
G36*
X144531552Y-118166331D02*
G01*
X144613627Y-118200328D01*
X144613629Y-118200329D01*
X144621995Y-118205919D01*
X144687495Y-118249685D01*
X144750315Y-118312505D01*
X144799672Y-118386373D01*
X144833669Y-118468448D01*
X144851000Y-118555579D01*
X144851000Y-118644421D01*
X144833669Y-118731552D01*
X144805180Y-118800329D01*
X144799671Y-118813629D01*
X144750314Y-118887496D01*
X144687496Y-118950314D01*
X144613629Y-118999671D01*
X144613628Y-118999672D01*
X144613627Y-118999672D01*
X144531552Y-119033669D01*
X144444421Y-119051000D01*
X144355579Y-119051000D01*
X144268448Y-119033669D01*
X144186373Y-118999672D01*
X144186372Y-118999672D01*
X144186371Y-118999671D01*
X144112504Y-118950314D01*
X144049686Y-118887496D01*
X144000329Y-118813629D01*
X143994820Y-118800329D01*
X143966331Y-118731552D01*
X143949000Y-118644421D01*
X143949000Y-118555579D01*
X143966331Y-118468448D01*
X144000328Y-118386373D01*
X144049685Y-118312505D01*
X144112505Y-118249685D01*
X144178005Y-118205919D01*
X144186371Y-118200329D01*
X144186373Y-118200328D01*
X144268448Y-118166331D01*
X144355579Y-118149000D01*
X144444421Y-118149000D01*
X144531552Y-118166331D01*
X144531552Y-118166331D01*
G37*
G36*
X125755958Y-117013173D02*
G01*
X124623173Y-118145958D01*
X124126784Y-117649569D01*
X125259569Y-116516784D01*
X125755958Y-117013173D01*
X125755958Y-117013173D01*
G37*
G36*
X163689874Y-116343730D02*
G01*
X163807070Y-116382092D01*
X163887607Y-116427426D01*
X164470424Y-116835519D01*
X164540566Y-116895691D01*
X164593444Y-116963069D01*
X164616696Y-116992695D01*
X164672438Y-117102687D01*
X164705650Y-117221442D01*
X164715057Y-117344394D01*
X164715057Y-117344397D01*
X164700297Y-117466815D01*
X164661935Y-117584011D01*
X164601449Y-117691466D01*
X164601448Y-117691467D01*
X164529050Y-117775861D01*
X164521158Y-117785060D01*
X164491972Y-117807965D01*
X164424155Y-117861189D01*
X164314163Y-117916931D01*
X164195408Y-117950143D01*
X164072456Y-117959550D01*
X164072453Y-117959550D01*
X163950035Y-117944790D01*
X163832835Y-117906427D01*
X163752311Y-117861099D01*
X163752307Y-117861096D01*
X163752303Y-117861094D01*
X163450215Y-117649569D01*
X163169486Y-117453001D01*
X163099345Y-117392830D01*
X163052842Y-117333575D01*
X163023214Y-117295824D01*
X162967472Y-117185832D01*
X162934260Y-117067077D01*
X162924853Y-116944126D01*
X162924853Y-116944123D01*
X162939613Y-116821705D01*
X162977975Y-116704509D01*
X163038461Y-116597054D01*
X163118752Y-116503460D01*
X163185597Y-116451000D01*
X163215755Y-116427331D01*
X163325747Y-116371589D01*
X163444502Y-116338377D01*
X163567453Y-116328970D01*
X163567456Y-116328970D01*
X163689874Y-116343730D01*
X163689874Y-116343730D01*
G37*
G36*
X160564646Y-114168538D02*
G01*
X160709913Y-114216089D01*
X160809747Y-114272285D01*
X160944060Y-114366332D01*
X161231351Y-114567495D01*
X161322729Y-114631479D01*
X161409675Y-114706067D01*
X161504045Y-114826314D01*
X161504046Y-114826316D01*
X161573145Y-114962664D01*
X161579860Y-114986676D01*
X161614316Y-115109874D01*
X161625976Y-115262289D01*
X161607678Y-115414048D01*
X161563073Y-115550314D01*
X161560125Y-115559320D01*
X161485144Y-115692525D01*
X161485143Y-115692526D01*
X161385617Y-115808543D01*
X161290469Y-115883215D01*
X161265369Y-115902914D01*
X161129020Y-115972013D01*
X161096847Y-115981011D01*
X160981810Y-116013184D01*
X160934286Y-116016820D01*
X160910154Y-116021075D01*
X160887316Y-116029956D01*
X160866649Y-116043122D01*
X160848949Y-116060067D01*
X160834893Y-116080140D01*
X160825025Y-116102569D01*
X160819721Y-116126492D01*
X160819186Y-116150990D01*
X160823441Y-116175122D01*
X160832322Y-116197960D01*
X160845488Y-116218627D01*
X160862433Y-116236327D01*
X160882506Y-116250383D01*
X160907536Y-116261072D01*
X160952045Y-116274573D01*
X161030394Y-116316452D01*
X161099068Y-116372810D01*
X161155426Y-116441484D01*
X161197305Y-116519833D01*
X161223094Y-116604849D01*
X161231801Y-116693259D01*
X161223094Y-116781669D01*
X161197305Y-116866685D01*
X161155426Y-116945034D01*
X161099068Y-117013708D01*
X161030394Y-117070066D01*
X160952045Y-117111945D01*
X160867029Y-117137734D01*
X160800777Y-117144259D01*
X160756461Y-117144259D01*
X160690209Y-117137734D01*
X160605193Y-117111945D01*
X160526844Y-117070066D01*
X160458170Y-117013708D01*
X160401812Y-116945034D01*
X160359933Y-116866685D01*
X160334144Y-116781669D01*
X160325437Y-116693259D01*
X160334144Y-116604849D01*
X160359933Y-116519833D01*
X160401812Y-116441484D01*
X160458170Y-116372810D01*
X160526844Y-116316452D01*
X160605193Y-116274573D01*
X160689208Y-116249088D01*
X160711847Y-116239711D01*
X160732221Y-116226097D01*
X160749548Y-116208770D01*
X160763162Y-116188396D01*
X160772539Y-116165757D01*
X160777320Y-116141724D01*
X160777320Y-116117219D01*
X160772540Y-116093186D01*
X160763163Y-116070547D01*
X160749549Y-116050173D01*
X160732222Y-116032846D01*
X160711848Y-116019232D01*
X160689209Y-116009855D01*
X160685117Y-116008994D01*
X160677639Y-116006546D01*
X160677637Y-116006546D01*
X160572139Y-115972013D01*
X160532359Y-115958992D01*
X160432542Y-115902804D01*
X160383477Y-115868448D01*
X159919557Y-115543608D01*
X159919556Y-115543607D01*
X159919553Y-115543605D01*
X159832607Y-115469017D01*
X159738237Y-115348770D01*
X159729511Y-115331551D01*
X159669137Y-115212420D01*
X159657774Y-115171790D01*
X159627966Y-115065209D01*
X159617741Y-114931552D01*
X159616306Y-114912797D01*
X159620729Y-114876112D01*
X159634604Y-114761036D01*
X159682155Y-114615769D01*
X159724601Y-114540362D01*
X159757138Y-114482559D01*
X159784211Y-114451000D01*
X159856665Y-114366541D01*
X159976912Y-114272171D01*
X160017951Y-114251373D01*
X160113262Y-114203071D01*
X160145435Y-114194073D01*
X160260473Y-114161900D01*
X160392660Y-114151787D01*
X160412885Y-114150240D01*
X160412887Y-114150240D01*
X160564646Y-114168538D01*
X160564646Y-114168538D01*
G37*
G36*
X158231552Y-115566331D02*
G01*
X158313627Y-115600328D01*
X158313629Y-115600329D01*
X158387496Y-115649686D01*
X158450314Y-115712504D01*
X158493943Y-115777798D01*
X158499672Y-115786373D01*
X158533669Y-115868448D01*
X158551000Y-115955579D01*
X158551000Y-116044421D01*
X158533669Y-116131552D01*
X158501684Y-116208770D01*
X158499671Y-116213629D01*
X158450314Y-116287496D01*
X158387496Y-116350314D01*
X158313629Y-116399671D01*
X158313628Y-116399672D01*
X158313627Y-116399672D01*
X158231552Y-116433669D01*
X158144421Y-116451000D01*
X158055579Y-116451000D01*
X157968448Y-116433669D01*
X157886373Y-116399672D01*
X157886372Y-116399672D01*
X157886371Y-116399671D01*
X157812504Y-116350314D01*
X157749686Y-116287496D01*
X157700329Y-116213629D01*
X157698316Y-116208770D01*
X157666331Y-116131552D01*
X157649000Y-116044421D01*
X157649000Y-115955579D01*
X157666331Y-115868448D01*
X157700328Y-115786373D01*
X157706058Y-115777798D01*
X157749686Y-115712504D01*
X157812504Y-115649686D01*
X157886371Y-115600329D01*
X157886373Y-115600328D01*
X157968448Y-115566331D01*
X158055579Y-115549000D01*
X158144421Y-115549000D01*
X158231552Y-115566331D01*
X158231552Y-115566331D01*
G37*
G36*
X123493216Y-114750431D02*
G01*
X122360431Y-115883216D01*
X121864042Y-115386827D01*
X122996827Y-114254042D01*
X123493216Y-114750431D01*
X123493216Y-114750431D01*
G37*
G36*
X127466918Y-114405699D02*
G01*
X127504414Y-114417074D01*
X127538973Y-114435546D01*
X127574037Y-114464322D01*
X128025678Y-114915963D01*
X128054454Y-114951027D01*
X128072926Y-114985586D01*
X128084301Y-115023082D01*
X128088141Y-115062081D01*
X128084301Y-115101080D01*
X128072926Y-115138576D01*
X128054454Y-115173135D01*
X128025678Y-115208199D01*
X127503327Y-115730550D01*
X127468263Y-115759326D01*
X127433704Y-115777798D01*
X127396208Y-115789173D01*
X127357209Y-115793013D01*
X127318210Y-115789173D01*
X127280714Y-115777798D01*
X127246155Y-115759326D01*
X127211091Y-115730550D01*
X126759450Y-115278909D01*
X126730674Y-115243845D01*
X126712202Y-115209286D01*
X126700827Y-115171790D01*
X126696987Y-115132791D01*
X126700827Y-115093792D01*
X126712202Y-115056296D01*
X126730674Y-115021737D01*
X126759450Y-114986673D01*
X127281801Y-114464322D01*
X127316865Y-114435546D01*
X127351424Y-114417074D01*
X127388920Y-114405699D01*
X127427919Y-114401859D01*
X127466918Y-114405699D01*
X127466918Y-114405699D01*
G37*
G36*
X155956552Y-114766330D02*
G01*
X156038627Y-114800327D01*
X156038629Y-114800328D01*
X156075813Y-114825174D01*
X156112495Y-114849684D01*
X156175315Y-114912504D01*
X156177626Y-114915963D01*
X156208832Y-114962665D01*
X156224672Y-114986372D01*
X156258669Y-115068447D01*
X156276000Y-115155578D01*
X156276000Y-115244420D01*
X156258669Y-115331551D01*
X156224672Y-115413626D01*
X156224671Y-115413628D01*
X156224390Y-115414048D01*
X156175315Y-115487494D01*
X156112495Y-115550314D01*
X156088524Y-115566331D01*
X156038629Y-115599670D01*
X156038628Y-115599671D01*
X156038627Y-115599671D01*
X155956552Y-115633668D01*
X155869421Y-115650999D01*
X155780579Y-115650999D01*
X155693448Y-115633668D01*
X155611373Y-115599671D01*
X155611372Y-115599671D01*
X155611371Y-115599670D01*
X155561476Y-115566331D01*
X155537505Y-115550314D01*
X155474685Y-115487494D01*
X155425610Y-115414048D01*
X155425329Y-115413628D01*
X155425328Y-115413626D01*
X155391331Y-115331551D01*
X155374000Y-115244420D01*
X155374000Y-115155578D01*
X155391331Y-115068447D01*
X155425328Y-114986372D01*
X155441169Y-114962665D01*
X155472374Y-114915963D01*
X155474685Y-114912504D01*
X155537505Y-114849684D01*
X155574187Y-114825174D01*
X155611371Y-114800328D01*
X155611373Y-114800327D01*
X155693448Y-114766330D01*
X155780579Y-114748999D01*
X155869421Y-114748999D01*
X155956552Y-114766330D01*
X155956552Y-114766330D01*
G37*
G36*
X158231552Y-113566331D02*
G01*
X158304513Y-113596553D01*
X158313629Y-113600329D01*
X158387496Y-113649686D01*
X158450314Y-113712504D01*
X158499187Y-113785646D01*
X158499672Y-113786373D01*
X158533669Y-113868448D01*
X158551000Y-113955579D01*
X158551000Y-114044421D01*
X158533669Y-114131552D01*
X158504044Y-114203071D01*
X158499671Y-114213629D01*
X158474825Y-114250813D01*
X158450315Y-114287495D01*
X158387495Y-114350315D01*
X158352088Y-114373973D01*
X158313629Y-114399671D01*
X158313628Y-114399672D01*
X158313627Y-114399672D01*
X158231552Y-114433669D01*
X158144421Y-114451000D01*
X158055579Y-114451000D01*
X157968443Y-114433668D01*
X157967164Y-114433138D01*
X157943715Y-114426025D01*
X157919329Y-114423624D01*
X157894943Y-114426027D01*
X157871494Y-114433140D01*
X157849884Y-114444692D01*
X157830943Y-114460238D01*
X157815398Y-114479180D01*
X157803848Y-114500792D01*
X157796735Y-114524241D01*
X157794334Y-114548627D01*
X157796737Y-114573013D01*
X157803848Y-114596454D01*
X157818355Y-114631479D01*
X157833669Y-114668451D01*
X157851000Y-114755579D01*
X157851000Y-114844421D01*
X157833669Y-114931552D01*
X157799672Y-115013627D01*
X157799671Y-115013629D01*
X157787299Y-115032145D01*
X157750315Y-115087495D01*
X157687495Y-115150315D01*
X157668919Y-115162727D01*
X157613629Y-115199671D01*
X157613628Y-115199672D01*
X157613627Y-115199672D01*
X157531552Y-115233669D01*
X157444421Y-115251000D01*
X157355579Y-115251000D01*
X157268448Y-115233669D01*
X157186373Y-115199672D01*
X157186372Y-115199672D01*
X157186371Y-115199671D01*
X157131081Y-115162727D01*
X157112505Y-115150315D01*
X157049685Y-115087495D01*
X157012701Y-115032145D01*
X157000329Y-115013629D01*
X157000328Y-115013627D01*
X156966331Y-114931552D01*
X156949000Y-114844421D01*
X156949000Y-114755579D01*
X156966331Y-114668448D01*
X157000328Y-114586373D01*
X157049685Y-114512505D01*
X157112505Y-114449685D01*
X157169575Y-114411552D01*
X157186371Y-114400329D01*
X157187957Y-114399672D01*
X157268448Y-114366331D01*
X157355579Y-114349000D01*
X157444421Y-114349000D01*
X157531557Y-114366332D01*
X157532836Y-114366862D01*
X157556285Y-114373975D01*
X157580671Y-114376376D01*
X157605057Y-114373973D01*
X157628506Y-114366860D01*
X157650116Y-114355308D01*
X157669057Y-114339762D01*
X157684602Y-114320820D01*
X157696152Y-114299208D01*
X157703265Y-114275759D01*
X157705666Y-114251373D01*
X157703263Y-114226987D01*
X157696152Y-114203546D01*
X157666332Y-114131552D01*
X157649000Y-114044420D01*
X157649000Y-113955579D01*
X157666331Y-113868448D01*
X157700328Y-113786373D01*
X157700814Y-113785646D01*
X157749686Y-113712504D01*
X157812504Y-113649686D01*
X157886371Y-113600329D01*
X157895487Y-113596553D01*
X157968448Y-113566331D01*
X158055579Y-113549000D01*
X158144421Y-113549000D01*
X158231552Y-113566331D01*
X158231552Y-113566331D01*
G37*
G36*
X122011552Y-113846331D02*
G01*
X122083067Y-113875954D01*
X122093629Y-113880329D01*
X122167496Y-113929686D01*
X122230314Y-113992504D01*
X122265004Y-114044420D01*
X122279672Y-114066373D01*
X122313669Y-114148448D01*
X122331000Y-114235579D01*
X122331000Y-114324421D01*
X122313669Y-114411552D01*
X122282843Y-114485971D01*
X122279671Y-114493629D01*
X122268549Y-114510274D01*
X122230315Y-114567495D01*
X122167495Y-114630315D01*
X122130813Y-114654825D01*
X122093629Y-114679671D01*
X122093628Y-114679672D01*
X122093627Y-114679672D01*
X122011552Y-114713669D01*
X121924421Y-114731000D01*
X121835579Y-114731000D01*
X121748448Y-114713669D01*
X121666373Y-114679672D01*
X121666372Y-114679672D01*
X121666371Y-114679671D01*
X121629187Y-114654825D01*
X121592505Y-114630315D01*
X121529685Y-114567495D01*
X121491451Y-114510274D01*
X121480329Y-114493629D01*
X121477157Y-114485971D01*
X121446331Y-114411552D01*
X121429000Y-114324421D01*
X121429000Y-114235579D01*
X121446331Y-114148448D01*
X121480328Y-114066373D01*
X121494997Y-114044420D01*
X121529686Y-113992504D01*
X121592504Y-113929686D01*
X121666371Y-113880329D01*
X121676933Y-113875954D01*
X121748448Y-113846331D01*
X121835579Y-113829000D01*
X121924421Y-113829000D01*
X122011552Y-113846331D01*
X122011552Y-113846331D01*
G37*
G36*
X129541552Y-112656331D02*
G01*
X129623627Y-112690328D01*
X129623629Y-112690329D01*
X129660813Y-112715175D01*
X129697495Y-112739685D01*
X129760315Y-112802505D01*
X129809672Y-112876373D01*
X129843669Y-112958448D01*
X129861000Y-113045579D01*
X129861000Y-113134421D01*
X129843669Y-113221552D01*
X129809672Y-113303627D01*
X129809671Y-113303629D01*
X129760314Y-113377496D01*
X129697496Y-113440314D01*
X129623629Y-113489671D01*
X129623628Y-113489672D01*
X129623627Y-113489672D01*
X129541552Y-113523669D01*
X129454421Y-113541000D01*
X129408187Y-113541000D01*
X129383801Y-113543402D01*
X129360352Y-113550515D01*
X129338741Y-113562066D01*
X129319799Y-113577611D01*
X129304254Y-113596553D01*
X129292703Y-113618164D01*
X129285590Y-113641613D01*
X129283188Y-113665999D01*
X129285590Y-113690385D01*
X129297947Y-113724921D01*
X129310361Y-113748148D01*
X129321737Y-113785646D01*
X129325577Y-113824645D01*
X129321737Y-113863644D01*
X129310362Y-113901140D01*
X129291890Y-113935699D01*
X129263114Y-113970763D01*
X128740763Y-114493114D01*
X128705699Y-114521890D01*
X128671140Y-114540362D01*
X128633644Y-114551737D01*
X128594645Y-114555577D01*
X128555646Y-114551737D01*
X128518150Y-114540362D01*
X128483591Y-114521890D01*
X128448527Y-114493114D01*
X127996886Y-114041473D01*
X127968110Y-114006409D01*
X127949638Y-113971850D01*
X127938263Y-113934354D01*
X127934423Y-113895355D01*
X127938263Y-113856356D01*
X127949638Y-113818860D01*
X127968110Y-113784301D01*
X127996886Y-113749237D01*
X128519237Y-113226886D01*
X128554301Y-113198110D01*
X128588860Y-113179638D01*
X128626356Y-113168263D01*
X128665355Y-113164423D01*
X128704354Y-113168263D01*
X128741852Y-113179639D01*
X128775079Y-113197398D01*
X128797718Y-113206775D01*
X128821751Y-113211555D01*
X128846255Y-113211555D01*
X128870288Y-113206774D01*
X128892927Y-113197396D01*
X128913301Y-113183782D01*
X128930628Y-113166455D01*
X128944241Y-113146080D01*
X128953618Y-113123441D01*
X128959000Y-113087158D01*
X128959000Y-113045579D01*
X128976331Y-112958448D01*
X129010328Y-112876373D01*
X129059685Y-112802505D01*
X129122505Y-112739685D01*
X129159187Y-112715175D01*
X129196371Y-112690329D01*
X129196373Y-112690328D01*
X129278448Y-112656331D01*
X129365579Y-112639000D01*
X129454421Y-112639000D01*
X129541552Y-112656331D01*
X129541552Y-112656331D01*
G37*
G36*
X155531552Y-113566331D02*
G01*
X155604513Y-113596553D01*
X155613629Y-113600329D01*
X155687496Y-113649686D01*
X155750314Y-113712504D01*
X155799187Y-113785646D01*
X155799672Y-113786373D01*
X155833669Y-113868448D01*
X155851000Y-113955579D01*
X155851000Y-114044421D01*
X155833669Y-114131552D01*
X155804044Y-114203071D01*
X155799671Y-114213629D01*
X155774825Y-114250813D01*
X155750315Y-114287495D01*
X155687495Y-114350315D01*
X155652088Y-114373973D01*
X155613629Y-114399671D01*
X155613628Y-114399672D01*
X155613627Y-114399672D01*
X155531552Y-114433669D01*
X155444421Y-114451000D01*
X155355579Y-114451000D01*
X155268448Y-114433669D01*
X155186373Y-114399672D01*
X155186372Y-114399672D01*
X155186371Y-114399671D01*
X155147912Y-114373973D01*
X155112505Y-114350315D01*
X155049685Y-114287495D01*
X155025175Y-114250813D01*
X155000329Y-114213629D01*
X154995956Y-114203071D01*
X154966331Y-114131552D01*
X154949000Y-114044421D01*
X154949000Y-113955579D01*
X154966331Y-113868448D01*
X155000328Y-113786373D01*
X155000814Y-113785646D01*
X155049686Y-113712504D01*
X155112504Y-113649686D01*
X155186371Y-113600329D01*
X155195487Y-113596553D01*
X155268448Y-113566331D01*
X155355579Y-113549000D01*
X155444421Y-113549000D01*
X155531552Y-113566331D01*
X155531552Y-113566331D01*
G37*
G36*
X121075958Y-112393173D02*
G01*
X119943173Y-113525958D01*
X119446784Y-113029569D01*
X120579569Y-111896784D01*
X121075958Y-112393173D01*
X121075958Y-112393173D01*
G37*
G36*
X155831552Y-112166331D02*
G01*
X155912043Y-112199672D01*
X155913629Y-112200329D01*
X155950813Y-112225175D01*
X155987495Y-112249685D01*
X156050315Y-112312505D01*
X156099672Y-112386373D01*
X156133669Y-112468448D01*
X156151000Y-112555579D01*
X156151000Y-112644421D01*
X156133669Y-112731552D01*
X156104279Y-112802504D01*
X156099671Y-112813629D01*
X156050314Y-112887496D01*
X155987496Y-112950314D01*
X155913629Y-112999671D01*
X155913628Y-112999672D01*
X155913627Y-112999672D01*
X155831552Y-113033669D01*
X155744421Y-113051000D01*
X155655579Y-113051000D01*
X155568448Y-113033669D01*
X155486373Y-112999672D01*
X155486372Y-112999672D01*
X155486371Y-112999671D01*
X155412504Y-112950314D01*
X155349686Y-112887496D01*
X155300329Y-112813629D01*
X155295721Y-112802504D01*
X155266331Y-112731552D01*
X155249000Y-112644421D01*
X155249000Y-112555579D01*
X155266331Y-112468448D01*
X155300328Y-112386373D01*
X155349685Y-112312505D01*
X155412505Y-112249685D01*
X155449187Y-112225175D01*
X155486371Y-112200329D01*
X155487957Y-112199672D01*
X155568448Y-112166331D01*
X155655579Y-112149000D01*
X155744421Y-112149000D01*
X155831552Y-112166331D01*
X155831552Y-112166331D01*
G37*
G36*
X160739499Y-110478445D02*
G01*
X160776995Y-110489820D01*
X160811554Y-110508292D01*
X160841847Y-110533153D01*
X160866708Y-110563446D01*
X160885180Y-110598005D01*
X160896555Y-110635501D01*
X160901000Y-110680638D01*
X160901000Y-111319362D01*
X160896555Y-111364499D01*
X160885180Y-111401995D01*
X160866708Y-111436554D01*
X160841847Y-111466847D01*
X160811554Y-111491708D01*
X160776995Y-111510180D01*
X160739499Y-111521555D01*
X160694362Y-111526000D01*
X160676281Y-111526000D01*
X160651895Y-111528402D01*
X160628446Y-111535515D01*
X160606835Y-111547066D01*
X160587893Y-111562611D01*
X160572348Y-111581553D01*
X160560797Y-111603164D01*
X160553684Y-111626613D01*
X160551282Y-111650999D01*
X160553684Y-111675385D01*
X160560797Y-111698834D01*
X160572348Y-111720444D01*
X160589671Y-111746370D01*
X160623669Y-111828448D01*
X160641000Y-111915579D01*
X160641000Y-112004421D01*
X160623669Y-112091552D01*
X160589672Y-112173627D01*
X160540315Y-112247495D01*
X160477495Y-112310315D01*
X160474217Y-112312505D01*
X160403629Y-112359671D01*
X160403628Y-112359672D01*
X160403627Y-112359672D01*
X160321552Y-112393669D01*
X160234421Y-112411000D01*
X160145579Y-112411000D01*
X160058448Y-112393669D01*
X159976373Y-112359672D01*
X159976372Y-112359672D01*
X159976371Y-112359671D01*
X159905783Y-112312505D01*
X159902505Y-112310315D01*
X159839685Y-112247495D01*
X159790328Y-112173627D01*
X159756331Y-112091552D01*
X159739000Y-112004421D01*
X159739000Y-111915579D01*
X159756331Y-111828448D01*
X159790328Y-111746373D01*
X159839685Y-111672505D01*
X159840907Y-111671283D01*
X159856452Y-111652341D01*
X159868003Y-111630730D01*
X159875116Y-111607281D01*
X159877518Y-111582895D01*
X159875116Y-111558509D01*
X159868003Y-111535060D01*
X159856452Y-111513449D01*
X159831818Y-111486270D01*
X159808155Y-111466850D01*
X159783292Y-111436554D01*
X159764820Y-111401995D01*
X159753445Y-111364499D01*
X159749000Y-111319362D01*
X159749000Y-110680638D01*
X159753445Y-110635501D01*
X159764820Y-110598005D01*
X159783292Y-110563446D01*
X159808153Y-110533153D01*
X159838446Y-110508292D01*
X159873005Y-110489820D01*
X159910501Y-110478445D01*
X159955638Y-110474000D01*
X160694362Y-110474000D01*
X160739499Y-110478445D01*
X160739499Y-110478445D01*
G37*
G36*
X146701000Y-112301000D02*
G01*
X145799000Y-112301000D01*
X145799000Y-111299000D01*
X146701000Y-111299000D01*
X146701000Y-112301000D01*
X146701000Y-112301000D01*
G37*
G36*
X143531552Y-111366331D02*
G01*
X143612043Y-111399672D01*
X143613629Y-111400329D01*
X143616122Y-111401995D01*
X143687495Y-111449685D01*
X143750315Y-111512505D01*
X143755956Y-111520947D01*
X143796452Y-111581553D01*
X143799672Y-111586373D01*
X143833669Y-111668448D01*
X143851000Y-111755579D01*
X143851000Y-111844421D01*
X143833669Y-111931552D01*
X143803485Y-112004421D01*
X143799671Y-112013629D01*
X143750314Y-112087496D01*
X143687496Y-112150314D01*
X143613629Y-112199671D01*
X143613628Y-112199672D01*
X143613627Y-112199672D01*
X143531552Y-112233669D01*
X143444421Y-112251000D01*
X143355579Y-112251000D01*
X143268448Y-112233669D01*
X143186373Y-112199672D01*
X143186372Y-112199672D01*
X143186371Y-112199671D01*
X143112504Y-112150314D01*
X143049686Y-112087496D01*
X143000329Y-112013629D01*
X142996515Y-112004421D01*
X142966331Y-111931552D01*
X142949000Y-111844421D01*
X142949000Y-111755579D01*
X142966331Y-111668448D01*
X143000328Y-111586373D01*
X143003549Y-111581553D01*
X143044044Y-111520947D01*
X143049685Y-111512505D01*
X143112505Y-111449685D01*
X143183878Y-111401995D01*
X143186371Y-111400329D01*
X143187957Y-111399672D01*
X143268448Y-111366331D01*
X143355579Y-111349000D01*
X143444421Y-111349000D01*
X143531552Y-111366331D01*
X143531552Y-111366331D01*
G37*
G36*
X140861552Y-111366331D02*
G01*
X140942043Y-111399672D01*
X140943629Y-111400329D01*
X140946122Y-111401995D01*
X141017495Y-111449685D01*
X141080315Y-111512505D01*
X141085956Y-111520947D01*
X141126452Y-111581553D01*
X141129672Y-111586373D01*
X141163669Y-111668448D01*
X141181000Y-111755579D01*
X141181000Y-111844421D01*
X141163669Y-111931552D01*
X141133485Y-112004421D01*
X141129671Y-112013629D01*
X141080314Y-112087496D01*
X141017496Y-112150314D01*
X140943629Y-112199671D01*
X140943628Y-112199672D01*
X140943627Y-112199672D01*
X140861552Y-112233669D01*
X140774421Y-112251000D01*
X140685579Y-112251000D01*
X140598448Y-112233669D01*
X140516373Y-112199672D01*
X140516372Y-112199672D01*
X140516371Y-112199671D01*
X140442504Y-112150314D01*
X140379686Y-112087496D01*
X140330329Y-112013629D01*
X140326515Y-112004421D01*
X140296331Y-111931552D01*
X140279000Y-111844421D01*
X140279000Y-111755579D01*
X140296331Y-111668448D01*
X140330328Y-111586373D01*
X140333549Y-111581553D01*
X140374044Y-111520947D01*
X140379685Y-111512505D01*
X140442505Y-111449685D01*
X140513878Y-111401995D01*
X140516371Y-111400329D01*
X140517957Y-111399672D01*
X140598448Y-111366331D01*
X140685579Y-111349000D01*
X140774421Y-111349000D01*
X140861552Y-111366331D01*
X140861552Y-111366331D01*
G37*
G36*
X162489499Y-110478445D02*
G01*
X162526995Y-110489820D01*
X162561554Y-110508292D01*
X162591847Y-110533153D01*
X162616708Y-110563446D01*
X162635180Y-110598005D01*
X162646555Y-110635501D01*
X162651000Y-110680638D01*
X162651000Y-111319362D01*
X162646555Y-111364499D01*
X162635180Y-111401995D01*
X162616708Y-111436554D01*
X162591847Y-111466847D01*
X162561554Y-111491708D01*
X162526995Y-111510180D01*
X162489499Y-111521555D01*
X162444362Y-111526000D01*
X161705638Y-111526000D01*
X161660501Y-111521555D01*
X161623005Y-111510180D01*
X161588446Y-111491708D01*
X161558153Y-111466847D01*
X161533292Y-111436554D01*
X161514820Y-111401995D01*
X161503445Y-111364499D01*
X161499000Y-111319362D01*
X161499000Y-110680638D01*
X161503445Y-110635501D01*
X161514820Y-110598005D01*
X161533292Y-110563446D01*
X161558153Y-110533153D01*
X161588446Y-110508292D01*
X161623005Y-110489820D01*
X161660501Y-110478445D01*
X161705638Y-110474000D01*
X162444362Y-110474000D01*
X162489499Y-110478445D01*
X162489499Y-110478445D01*
G37*
G36*
X155705355Y-106700083D02*
G01*
X155710029Y-106701501D01*
X155714330Y-106703800D01*
X155720702Y-106709029D01*
X155741076Y-106722643D01*
X155763715Y-106732020D01*
X155787749Y-106736800D01*
X155812253Y-106736800D01*
X155836286Y-106732019D01*
X155858925Y-106722642D01*
X155879298Y-106709029D01*
X155885670Y-106703800D01*
X155889971Y-106701501D01*
X155894645Y-106700083D01*
X155905641Y-106699000D01*
X156194359Y-106699000D01*
X156205355Y-106700083D01*
X156210029Y-106701501D01*
X156214330Y-106703800D01*
X156220702Y-106709029D01*
X156241076Y-106722643D01*
X156263715Y-106732020D01*
X156287749Y-106736800D01*
X156312253Y-106736800D01*
X156336286Y-106732019D01*
X156358925Y-106722642D01*
X156379298Y-106709029D01*
X156385670Y-106703800D01*
X156389971Y-106701501D01*
X156394645Y-106700083D01*
X156405641Y-106699000D01*
X156694359Y-106699000D01*
X156705355Y-106700083D01*
X156710029Y-106701501D01*
X156714330Y-106703800D01*
X156720702Y-106709029D01*
X156741076Y-106722643D01*
X156763715Y-106732020D01*
X156787749Y-106736800D01*
X156812253Y-106736800D01*
X156836286Y-106732019D01*
X156858925Y-106722642D01*
X156879298Y-106709029D01*
X156885670Y-106703800D01*
X156889971Y-106701501D01*
X156894645Y-106700083D01*
X156905641Y-106699000D01*
X157194359Y-106699000D01*
X157205355Y-106700083D01*
X157210029Y-106701501D01*
X157214330Y-106703800D01*
X157220702Y-106709029D01*
X157241076Y-106722643D01*
X157263715Y-106732020D01*
X157287749Y-106736800D01*
X157312253Y-106736800D01*
X157336286Y-106732019D01*
X157358925Y-106722642D01*
X157379298Y-106709029D01*
X157385670Y-106703800D01*
X157389971Y-106701501D01*
X157394645Y-106700083D01*
X157405641Y-106699000D01*
X157694359Y-106699000D01*
X157705355Y-106700083D01*
X157710029Y-106701501D01*
X157714330Y-106703800D01*
X157720702Y-106709029D01*
X157741076Y-106722643D01*
X157763715Y-106732020D01*
X157787749Y-106736800D01*
X157812253Y-106736800D01*
X157836286Y-106732019D01*
X157858925Y-106722642D01*
X157879298Y-106709029D01*
X157885670Y-106703800D01*
X157889971Y-106701501D01*
X157894645Y-106700083D01*
X157905641Y-106699000D01*
X158194359Y-106699000D01*
X158205355Y-106700083D01*
X158210029Y-106701501D01*
X158214331Y-106703800D01*
X158218104Y-106706896D01*
X158221200Y-106710669D01*
X158223499Y-106714971D01*
X158224917Y-106719645D01*
X158226000Y-106730641D01*
X158226000Y-107549001D01*
X158228402Y-107573387D01*
X158235515Y-107596836D01*
X158247066Y-107618447D01*
X158262611Y-107637389D01*
X158281553Y-107652934D01*
X158303164Y-107664485D01*
X158326613Y-107671598D01*
X158350999Y-107674000D01*
X159169359Y-107674000D01*
X159180355Y-107675083D01*
X159185029Y-107676501D01*
X159189331Y-107678800D01*
X159193104Y-107681896D01*
X159196200Y-107685669D01*
X159198499Y-107689971D01*
X159199917Y-107694645D01*
X159201000Y-107705641D01*
X159201000Y-107994359D01*
X159199917Y-108005355D01*
X159198499Y-108010029D01*
X159196200Y-108014330D01*
X159190971Y-108020702D01*
X159177357Y-108041076D01*
X159167980Y-108063715D01*
X159163200Y-108087749D01*
X159163200Y-108112253D01*
X159167981Y-108136286D01*
X159177358Y-108158925D01*
X159190971Y-108179298D01*
X159196200Y-108185670D01*
X159198499Y-108189971D01*
X159199917Y-108194645D01*
X159201000Y-108205641D01*
X159201000Y-108494359D01*
X159199917Y-108505355D01*
X159198499Y-108510029D01*
X159196200Y-108514330D01*
X159190971Y-108520702D01*
X159177357Y-108541076D01*
X159167980Y-108563715D01*
X159163200Y-108587749D01*
X159163200Y-108612253D01*
X159167981Y-108636286D01*
X159177358Y-108658925D01*
X159190971Y-108679298D01*
X159196200Y-108685670D01*
X159198499Y-108689971D01*
X159199917Y-108694645D01*
X159201000Y-108705641D01*
X159201000Y-108994359D01*
X159199917Y-109005355D01*
X159198499Y-109010029D01*
X159196200Y-109014330D01*
X159190971Y-109020702D01*
X159177357Y-109041076D01*
X159167980Y-109063715D01*
X159163200Y-109087749D01*
X159163200Y-109112253D01*
X159167981Y-109136286D01*
X159177358Y-109158925D01*
X159190971Y-109179298D01*
X159196200Y-109185670D01*
X159198499Y-109189971D01*
X159199917Y-109194645D01*
X159201000Y-109205641D01*
X159201000Y-109494359D01*
X159199917Y-109505355D01*
X159198499Y-109510029D01*
X159196200Y-109514330D01*
X159190971Y-109520702D01*
X159177357Y-109541076D01*
X159167980Y-109563715D01*
X159163200Y-109587749D01*
X159163200Y-109612253D01*
X159167981Y-109636286D01*
X159177358Y-109658925D01*
X159190971Y-109679298D01*
X159196200Y-109685670D01*
X159198499Y-109689971D01*
X159199917Y-109694645D01*
X159201000Y-109705641D01*
X159201000Y-109994359D01*
X159199917Y-110005355D01*
X159198499Y-110010029D01*
X159196200Y-110014330D01*
X159190971Y-110020702D01*
X159177357Y-110041076D01*
X159167980Y-110063715D01*
X159163200Y-110087749D01*
X159163200Y-110112253D01*
X159167981Y-110136286D01*
X159177358Y-110158925D01*
X159190971Y-110179298D01*
X159196200Y-110185670D01*
X159198499Y-110189971D01*
X159199917Y-110194645D01*
X159201000Y-110205641D01*
X159201000Y-110494359D01*
X159199917Y-110505355D01*
X159198499Y-110510029D01*
X159196200Y-110514331D01*
X159193104Y-110518104D01*
X159189331Y-110521200D01*
X159185029Y-110523499D01*
X159180355Y-110524917D01*
X159169359Y-110526000D01*
X158350999Y-110526000D01*
X158326613Y-110528402D01*
X158303164Y-110535515D01*
X158281553Y-110547066D01*
X158262611Y-110562611D01*
X158247066Y-110581553D01*
X158235515Y-110603164D01*
X158228402Y-110626613D01*
X158226000Y-110650999D01*
X158226000Y-111469359D01*
X158224917Y-111480355D01*
X158223499Y-111485029D01*
X158221200Y-111489331D01*
X158218104Y-111493104D01*
X158214331Y-111496200D01*
X158210029Y-111498499D01*
X158205355Y-111499917D01*
X158194359Y-111501000D01*
X157905641Y-111501000D01*
X157894645Y-111499917D01*
X157889971Y-111498499D01*
X157885670Y-111496200D01*
X157879298Y-111490971D01*
X157858924Y-111477357D01*
X157836285Y-111467980D01*
X157812251Y-111463200D01*
X157787747Y-111463200D01*
X157763714Y-111467981D01*
X157741075Y-111477358D01*
X157720702Y-111490971D01*
X157714330Y-111496200D01*
X157710029Y-111498499D01*
X157705355Y-111499917D01*
X157694359Y-111501000D01*
X157405641Y-111501000D01*
X157394645Y-111499917D01*
X157389971Y-111498499D01*
X157385670Y-111496200D01*
X157379298Y-111490971D01*
X157358924Y-111477357D01*
X157336285Y-111467980D01*
X157312251Y-111463200D01*
X157287747Y-111463200D01*
X157263714Y-111467981D01*
X157241075Y-111477358D01*
X157220702Y-111490971D01*
X157214330Y-111496200D01*
X157210029Y-111498499D01*
X157205355Y-111499917D01*
X157194359Y-111501000D01*
X156905641Y-111501000D01*
X156894645Y-111499917D01*
X156889971Y-111498499D01*
X156885670Y-111496200D01*
X156879298Y-111490971D01*
X156858924Y-111477357D01*
X156836285Y-111467980D01*
X156812251Y-111463200D01*
X156787747Y-111463200D01*
X156763714Y-111467981D01*
X156741075Y-111477358D01*
X156720702Y-111490971D01*
X156714330Y-111496200D01*
X156710029Y-111498499D01*
X156705355Y-111499917D01*
X156694359Y-111501000D01*
X156405641Y-111501000D01*
X156394645Y-111499917D01*
X156389971Y-111498499D01*
X156385670Y-111496200D01*
X156379298Y-111490971D01*
X156358924Y-111477357D01*
X156336285Y-111467980D01*
X156312251Y-111463200D01*
X156287747Y-111463200D01*
X156263714Y-111467981D01*
X156241075Y-111477358D01*
X156220702Y-111490971D01*
X156214330Y-111496200D01*
X156210029Y-111498499D01*
X156205355Y-111499917D01*
X156194359Y-111501000D01*
X155905641Y-111501000D01*
X155894645Y-111499917D01*
X155889971Y-111498499D01*
X155885670Y-111496200D01*
X155879298Y-111490971D01*
X155858924Y-111477357D01*
X155836285Y-111467980D01*
X155812251Y-111463200D01*
X155787747Y-111463200D01*
X155763714Y-111467981D01*
X155741075Y-111477358D01*
X155720702Y-111490971D01*
X155714330Y-111496200D01*
X155710029Y-111498499D01*
X155705355Y-111499917D01*
X155694359Y-111501000D01*
X155405641Y-111501000D01*
X155394645Y-111499917D01*
X155389971Y-111498499D01*
X155385669Y-111496200D01*
X155381896Y-111493104D01*
X155378800Y-111489331D01*
X155376501Y-111485029D01*
X155375083Y-111480355D01*
X155374000Y-111469359D01*
X155374000Y-110650999D01*
X155371598Y-110626613D01*
X155364485Y-110603164D01*
X155352934Y-110581553D01*
X155337389Y-110562611D01*
X155318447Y-110547066D01*
X155296836Y-110535515D01*
X155273387Y-110528402D01*
X155249001Y-110526000D01*
X154430641Y-110526000D01*
X154419645Y-110524917D01*
X154414971Y-110523499D01*
X154410669Y-110521200D01*
X154406896Y-110518104D01*
X154403800Y-110514331D01*
X154401501Y-110510029D01*
X154400083Y-110505355D01*
X154399000Y-110494359D01*
X154399000Y-110205641D01*
X154400083Y-110194645D01*
X154401501Y-110189971D01*
X154403800Y-110185670D01*
X154409029Y-110179298D01*
X154422643Y-110158924D01*
X154432020Y-110136285D01*
X154436800Y-110112251D01*
X154436800Y-110087747D01*
X154432019Y-110063714D01*
X154422642Y-110041075D01*
X154409029Y-110020702D01*
X154403800Y-110014330D01*
X154401501Y-110010029D01*
X154400083Y-110005355D01*
X154399000Y-109994359D01*
X154399000Y-109705641D01*
X154400083Y-109694645D01*
X154401501Y-109689971D01*
X154403800Y-109685670D01*
X154409029Y-109679298D01*
X154422643Y-109658924D01*
X154432020Y-109636285D01*
X154436800Y-109612251D01*
X154436800Y-109587747D01*
X154432019Y-109563714D01*
X154422642Y-109541075D01*
X154409029Y-109520702D01*
X154403800Y-109514330D01*
X154401501Y-109510029D01*
X154400083Y-109505355D01*
X154399000Y-109494359D01*
X154399000Y-109205641D01*
X154400083Y-109194645D01*
X154401501Y-109189971D01*
X154403800Y-109185670D01*
X154409029Y-109179298D01*
X154422643Y-109158924D01*
X154432020Y-109136285D01*
X154436800Y-109112251D01*
X154436800Y-109087747D01*
X154432019Y-109063714D01*
X154422642Y-109041075D01*
X154409029Y-109020702D01*
X154403800Y-109014330D01*
X154401501Y-109010029D01*
X154400083Y-109005355D01*
X154399000Y-108994359D01*
X154399000Y-108705641D01*
X154400083Y-108694645D01*
X154401501Y-108689971D01*
X154403800Y-108685670D01*
X154409029Y-108679298D01*
X154422643Y-108658924D01*
X154432020Y-108636285D01*
X154436800Y-108612251D01*
X154436800Y-108587747D01*
X154432019Y-108563714D01*
X154422642Y-108541075D01*
X154409029Y-108520702D01*
X154403800Y-108514330D01*
X154401501Y-108510029D01*
X154400083Y-108505355D01*
X154399000Y-108494359D01*
X154399000Y-108205641D01*
X154400083Y-108194645D01*
X154401501Y-108189971D01*
X154403800Y-108185670D01*
X154409029Y-108179298D01*
X154422643Y-108158924D01*
X154432020Y-108136285D01*
X154436800Y-108112251D01*
X154436800Y-108087747D01*
X154432019Y-108063714D01*
X154422642Y-108041075D01*
X154409029Y-108020702D01*
X154403800Y-108014330D01*
X154401501Y-108010029D01*
X154400083Y-108005355D01*
X154399000Y-107994359D01*
X154399000Y-107705641D01*
X154400083Y-107694645D01*
X154401501Y-107689971D01*
X154403800Y-107685669D01*
X154406896Y-107681896D01*
X154410669Y-107678800D01*
X154414971Y-107676501D01*
X154419645Y-107675083D01*
X154430641Y-107674000D01*
X155249001Y-107674000D01*
X155273387Y-107671598D01*
X155296836Y-107664485D01*
X155318447Y-107652934D01*
X155337389Y-107637389D01*
X155352934Y-107618447D01*
X155364485Y-107596836D01*
X155371598Y-107573387D01*
X155374000Y-107549001D01*
X155374000Y-106730641D01*
X155375083Y-106719645D01*
X155376501Y-106714971D01*
X155378800Y-106710669D01*
X155381896Y-106706896D01*
X155385669Y-106703800D01*
X155389971Y-106701501D01*
X155394645Y-106700083D01*
X155405641Y-106699000D01*
X155694359Y-106699000D01*
X155705355Y-106700083D01*
X155705355Y-106700083D01*
G37*
G36*
X163531552Y-110566331D02*
G01*
X163612292Y-110599775D01*
X163613629Y-110600329D01*
X163632757Y-110613110D01*
X163687495Y-110649685D01*
X163750315Y-110712505D01*
X163799672Y-110786373D01*
X163833669Y-110868448D01*
X163851000Y-110955579D01*
X163851000Y-111044421D01*
X163833669Y-111131552D01*
X163799672Y-111213627D01*
X163799671Y-111213629D01*
X163750314Y-111287496D01*
X163687496Y-111350314D01*
X163613629Y-111399671D01*
X163613628Y-111399672D01*
X163613627Y-111399672D01*
X163531552Y-111433669D01*
X163444421Y-111451000D01*
X163355579Y-111451000D01*
X163268448Y-111433669D01*
X163186373Y-111399672D01*
X163186372Y-111399672D01*
X163186371Y-111399671D01*
X163112504Y-111350314D01*
X163049686Y-111287496D01*
X163000329Y-111213629D01*
X163000328Y-111213627D01*
X162966331Y-111131552D01*
X162949000Y-111044421D01*
X162949000Y-110955579D01*
X162966331Y-110868448D01*
X163000328Y-110786373D01*
X163049685Y-110712505D01*
X163112505Y-110649685D01*
X163167243Y-110613110D01*
X163186371Y-110600329D01*
X163187708Y-110599775D01*
X163268448Y-110566331D01*
X163355579Y-110549000D01*
X163444421Y-110549000D01*
X163531552Y-110566331D01*
X163531552Y-110566331D01*
G37*
G36*
X118813216Y-110130431D02*
G01*
X117680431Y-111263216D01*
X117184042Y-110766827D01*
X118316827Y-109634042D01*
X118813216Y-110130431D01*
X118813216Y-110130431D01*
G37*
G36*
X134581552Y-110176331D02*
G01*
X134663627Y-110210328D01*
X134663629Y-110210329D01*
X134699599Y-110234364D01*
X134737495Y-110259685D01*
X134800315Y-110322505D01*
X134849672Y-110396373D01*
X134883669Y-110478448D01*
X134901000Y-110565579D01*
X134901000Y-110654421D01*
X134883669Y-110741552D01*
X134865104Y-110786371D01*
X134849671Y-110823629D01*
X134800314Y-110897496D01*
X134737496Y-110960314D01*
X134663629Y-111009671D01*
X134663628Y-111009672D01*
X134663627Y-111009672D01*
X134581552Y-111043669D01*
X134494421Y-111061000D01*
X134405579Y-111061000D01*
X134318448Y-111043669D01*
X134236373Y-111009672D01*
X134236372Y-111009672D01*
X134236371Y-111009671D01*
X134162504Y-110960314D01*
X134099686Y-110897496D01*
X134050329Y-110823629D01*
X134034896Y-110786371D01*
X134016331Y-110741552D01*
X133999000Y-110654421D01*
X133999000Y-110565579D01*
X134016331Y-110478448D01*
X134050328Y-110396373D01*
X134099685Y-110322505D01*
X134162505Y-110259685D01*
X134200401Y-110234364D01*
X134236371Y-110210329D01*
X134236373Y-110210328D01*
X134318448Y-110176331D01*
X134405579Y-110159000D01*
X134494421Y-110159000D01*
X134581552Y-110176331D01*
X134581552Y-110176331D01*
G37*
G36*
X122485636Y-109616981D02*
G01*
X122523132Y-109628356D01*
X122557691Y-109646828D01*
X122592755Y-109675604D01*
X123044396Y-110127245D01*
X123073172Y-110162309D01*
X123091644Y-110196868D01*
X123103019Y-110234364D01*
X123106859Y-110273363D01*
X123103019Y-110312362D01*
X123091644Y-110349858D01*
X123073172Y-110384417D01*
X123044396Y-110419481D01*
X122522045Y-110941832D01*
X122486981Y-110970608D01*
X122452422Y-110989080D01*
X122414926Y-111000455D01*
X122375927Y-111004295D01*
X122336928Y-111000455D01*
X122299432Y-110989080D01*
X122264873Y-110970608D01*
X122229809Y-110941832D01*
X121778168Y-110490191D01*
X121749392Y-110455127D01*
X121730920Y-110420568D01*
X121719545Y-110383072D01*
X121715705Y-110344073D01*
X121719545Y-110305074D01*
X121730920Y-110267578D01*
X121749392Y-110233019D01*
X121778168Y-110197955D01*
X122300519Y-109675604D01*
X122335583Y-109646828D01*
X122370142Y-109628356D01*
X122407638Y-109616981D01*
X122446637Y-109613141D01*
X122485636Y-109616981D01*
X122485636Y-109616981D01*
G37*
G36*
X149339499Y-109278445D02*
G01*
X149376995Y-109289820D01*
X149411554Y-109308292D01*
X149441847Y-109333153D01*
X149466708Y-109363446D01*
X149485180Y-109398005D01*
X149496555Y-109435501D01*
X149501000Y-109480638D01*
X149501000Y-110119362D01*
X149496555Y-110164499D01*
X149485180Y-110201995D01*
X149466708Y-110236554D01*
X149441847Y-110266847D01*
X149411554Y-110291708D01*
X149376995Y-110310180D01*
X149339499Y-110321555D01*
X149294362Y-110326000D01*
X148555638Y-110326000D01*
X148510501Y-110321555D01*
X148473005Y-110310180D01*
X148438446Y-110291708D01*
X148408153Y-110266847D01*
X148383292Y-110236554D01*
X148364820Y-110201995D01*
X148353445Y-110164499D01*
X148349000Y-110119362D01*
X148349000Y-109480638D01*
X148353445Y-109435501D01*
X148364820Y-109398005D01*
X148383292Y-109363446D01*
X148408153Y-109333153D01*
X148438446Y-109308292D01*
X148473005Y-109289820D01*
X148510501Y-109278445D01*
X148555638Y-109274000D01*
X149294362Y-109274000D01*
X149339499Y-109278445D01*
X149339499Y-109278445D01*
G37*
G36*
X151089499Y-109278445D02*
G01*
X151126995Y-109289820D01*
X151161554Y-109308292D01*
X151191847Y-109333153D01*
X151216708Y-109363446D01*
X151235180Y-109398005D01*
X151246555Y-109435501D01*
X151251000Y-109480638D01*
X151251000Y-110119362D01*
X151246555Y-110164499D01*
X151235180Y-110201995D01*
X151216708Y-110236554D01*
X151191847Y-110266847D01*
X151161554Y-110291708D01*
X151126995Y-110310180D01*
X151089499Y-110321555D01*
X151044362Y-110326000D01*
X150305638Y-110326000D01*
X150260501Y-110321555D01*
X150223005Y-110310180D01*
X150188446Y-110291708D01*
X150158153Y-110266847D01*
X150133292Y-110236554D01*
X150114820Y-110201995D01*
X150103445Y-110164499D01*
X150099000Y-110119362D01*
X150099000Y-109480638D01*
X150103445Y-109435501D01*
X150114820Y-109398005D01*
X150133292Y-109363446D01*
X150158153Y-109333153D01*
X150188446Y-109308292D01*
X150223005Y-109289820D01*
X150260501Y-109278445D01*
X150305638Y-109274000D01*
X151044362Y-109274000D01*
X151089499Y-109278445D01*
X151089499Y-109278445D01*
G37*
G36*
X147651000Y-110301000D02*
G01*
X146749000Y-110301000D01*
X146749000Y-109299000D01*
X147651000Y-109299000D01*
X147651000Y-110301000D01*
X147651000Y-110301000D01*
G37*
G36*
X145751000Y-110301000D02*
G01*
X144849000Y-110301000D01*
X144849000Y-109299000D01*
X145751000Y-109299000D01*
X145751000Y-110301000D01*
X145751000Y-110301000D01*
G37*
G36*
X117331552Y-109216331D02*
G01*
X117413627Y-109250328D01*
X117413629Y-109250329D01*
X117449055Y-109274000D01*
X117487495Y-109299685D01*
X117550315Y-109362505D01*
X117554286Y-109368448D01*
X117599660Y-109436354D01*
X117599672Y-109436373D01*
X117633669Y-109518448D01*
X117651000Y-109605579D01*
X117651000Y-109694421D01*
X117633669Y-109781552D01*
X117620100Y-109814309D01*
X117599671Y-109863629D01*
X117575588Y-109899671D01*
X117550315Y-109937495D01*
X117487495Y-110000315D01*
X117472957Y-110010029D01*
X117413629Y-110049671D01*
X117413628Y-110049672D01*
X117413627Y-110049672D01*
X117331552Y-110083669D01*
X117244421Y-110101000D01*
X117155579Y-110101000D01*
X117068448Y-110083669D01*
X116986373Y-110049672D01*
X116986372Y-110049672D01*
X116986371Y-110049671D01*
X116927043Y-110010029D01*
X116912505Y-110000315D01*
X116849685Y-109937495D01*
X116824412Y-109899671D01*
X116800329Y-109863629D01*
X116779900Y-109814309D01*
X116766331Y-109781552D01*
X116749000Y-109694421D01*
X116749000Y-109605579D01*
X116766331Y-109518448D01*
X116800328Y-109436373D01*
X116800341Y-109436354D01*
X116845714Y-109368448D01*
X116849685Y-109362505D01*
X116912505Y-109299685D01*
X116950945Y-109274000D01*
X116986371Y-109250329D01*
X116986373Y-109250328D01*
X117068448Y-109216331D01*
X117155579Y-109199000D01*
X117244421Y-109199000D01*
X117331552Y-109216331D01*
X117331552Y-109216331D01*
G37*
G36*
X160739499Y-108978445D02*
G01*
X160776995Y-108989820D01*
X160811554Y-109008292D01*
X160841847Y-109033153D01*
X160866708Y-109063446D01*
X160885180Y-109098005D01*
X160896555Y-109135501D01*
X160901000Y-109180638D01*
X160901000Y-109819362D01*
X160896555Y-109864499D01*
X160885180Y-109901995D01*
X160866708Y-109936554D01*
X160841847Y-109966847D01*
X160811554Y-109991708D01*
X160776995Y-110010180D01*
X160739499Y-110021555D01*
X160694362Y-110026000D01*
X159955638Y-110026000D01*
X159910501Y-110021555D01*
X159873005Y-110010180D01*
X159838446Y-109991708D01*
X159808153Y-109966847D01*
X159783292Y-109936554D01*
X159764820Y-109901995D01*
X159753445Y-109864499D01*
X159749000Y-109819362D01*
X159749000Y-109180638D01*
X159753445Y-109135501D01*
X159764820Y-109098005D01*
X159783292Y-109063446D01*
X159808153Y-109033153D01*
X159838446Y-109008292D01*
X159873005Y-108989820D01*
X159910501Y-108978445D01*
X159955638Y-108974000D01*
X160694362Y-108974000D01*
X160739499Y-108978445D01*
X160739499Y-108978445D01*
G37*
G36*
X162489499Y-108978445D02*
G01*
X162526995Y-108989820D01*
X162561554Y-109008292D01*
X162591847Y-109033153D01*
X162616708Y-109063446D01*
X162635180Y-109098005D01*
X162646555Y-109135501D01*
X162651000Y-109180638D01*
X162651000Y-109308176D01*
X162653402Y-109332562D01*
X162660515Y-109356011D01*
X162672066Y-109377622D01*
X162687611Y-109396564D01*
X162706553Y-109412109D01*
X162728164Y-109423660D01*
X162751613Y-109430773D01*
X162775999Y-109433175D01*
X162800385Y-109430773D01*
X162823834Y-109423660D01*
X162845445Y-109412109D01*
X162864387Y-109396564D01*
X162879932Y-109377622D01*
X162891483Y-109356011D01*
X162920328Y-109286373D01*
X162936614Y-109262000D01*
X162969686Y-109212504D01*
X163032504Y-109149686D01*
X163106371Y-109100329D01*
X163106373Y-109100328D01*
X163188448Y-109066331D01*
X163275579Y-109049000D01*
X163364421Y-109049000D01*
X163451552Y-109066331D01*
X163533627Y-109100328D01*
X163533629Y-109100329D01*
X163607496Y-109149686D01*
X163670314Y-109212504D01*
X163703387Y-109262000D01*
X163719672Y-109286373D01*
X163753669Y-109368448D01*
X163771000Y-109455579D01*
X163771000Y-109544421D01*
X163753669Y-109631552D01*
X163722980Y-109705641D01*
X163719671Y-109713629D01*
X163694825Y-109750813D01*
X163684104Y-109766859D01*
X163670314Y-109787496D01*
X163607496Y-109850314D01*
X163533629Y-109899671D01*
X163533628Y-109899672D01*
X163533627Y-109899672D01*
X163451552Y-109933669D01*
X163364421Y-109951000D01*
X163275579Y-109951000D01*
X163188448Y-109933669D01*
X163106373Y-109899672D01*
X163106372Y-109899672D01*
X163106371Y-109899671D01*
X163032504Y-109850314D01*
X162969686Y-109787496D01*
X162955897Y-109766859D01*
X162945175Y-109750813D01*
X162920329Y-109713629D01*
X162917020Y-109705641D01*
X162891483Y-109643989D01*
X162879932Y-109622378D01*
X162864387Y-109603436D01*
X162845445Y-109587891D01*
X162823834Y-109576340D01*
X162800385Y-109569227D01*
X162775999Y-109566825D01*
X162751613Y-109569227D01*
X162728164Y-109576340D01*
X162706553Y-109587891D01*
X162687611Y-109603436D01*
X162672066Y-109622378D01*
X162660515Y-109643989D01*
X162653402Y-109667438D01*
X162651000Y-109691824D01*
X162651000Y-109819362D01*
X162646555Y-109864499D01*
X162635180Y-109901995D01*
X162616708Y-109936554D01*
X162591847Y-109966847D01*
X162561554Y-109991708D01*
X162526995Y-110010180D01*
X162489499Y-110021555D01*
X162444362Y-110026000D01*
X161705638Y-110026000D01*
X161660501Y-110021555D01*
X161623005Y-110010180D01*
X161588446Y-109991708D01*
X161558153Y-109966847D01*
X161533292Y-109936554D01*
X161514820Y-109901995D01*
X161503445Y-109864499D01*
X161499000Y-109819362D01*
X161499000Y-109180638D01*
X161503445Y-109135501D01*
X161514820Y-109098005D01*
X161533292Y-109063446D01*
X161558153Y-109033153D01*
X161588446Y-109008292D01*
X161623005Y-108989820D01*
X161660501Y-108978445D01*
X161705638Y-108974000D01*
X162444362Y-108974000D01*
X162489499Y-108978445D01*
X162489499Y-108978445D01*
G37*
G36*
X124591552Y-107826331D02*
G01*
X124669250Y-107858515D01*
X124673629Y-107860329D01*
X124682613Y-107866332D01*
X124747495Y-107909685D01*
X124810315Y-107972505D01*
X124819927Y-107986890D01*
X124853754Y-108037515D01*
X124859672Y-108046373D01*
X124893669Y-108128448D01*
X124911000Y-108215579D01*
X124911000Y-108304421D01*
X124893669Y-108391552D01*
X124862480Y-108466847D01*
X124859671Y-108473629D01*
X124854293Y-108481677D01*
X124810315Y-108547495D01*
X124747495Y-108610315D01*
X124739138Y-108615899D01*
X124673629Y-108659671D01*
X124673628Y-108659672D01*
X124673627Y-108659672D01*
X124591552Y-108693669D01*
X124504421Y-108711000D01*
X124408007Y-108711000D01*
X124398608Y-108710075D01*
X124374222Y-108712479D01*
X124350774Y-108719593D01*
X124329164Y-108731146D01*
X124310223Y-108746693D01*
X124294679Y-108765636D01*
X124283130Y-108787247D01*
X124276018Y-108810697D01*
X124273618Y-108835083D01*
X124276022Y-108859469D01*
X124283136Y-108882917D01*
X124301992Y-108914373D01*
X124310606Y-108924870D01*
X124329080Y-108959432D01*
X124340455Y-108996928D01*
X124344295Y-109035927D01*
X124340455Y-109074926D01*
X124329080Y-109112422D01*
X124310608Y-109146981D01*
X124281832Y-109182045D01*
X123759481Y-109704396D01*
X123724417Y-109733172D01*
X123689858Y-109751644D01*
X123652362Y-109763019D01*
X123613363Y-109766859D01*
X123574364Y-109763019D01*
X123536868Y-109751644D01*
X123502309Y-109733172D01*
X123467245Y-109704396D01*
X123015604Y-109252755D01*
X122986828Y-109217691D01*
X122968356Y-109183132D01*
X122956981Y-109145636D01*
X122953141Y-109106637D01*
X122956981Y-109067638D01*
X122968356Y-109030142D01*
X122986828Y-108995583D01*
X123015604Y-108960519D01*
X123537955Y-108438168D01*
X123573019Y-108409392D01*
X123607578Y-108390920D01*
X123645074Y-108379545D01*
X123684073Y-108375705D01*
X123723072Y-108379545D01*
X123760568Y-108390920D01*
X123795130Y-108409394D01*
X123805627Y-108418008D01*
X123826002Y-108431622D01*
X123848640Y-108440999D01*
X123872674Y-108445780D01*
X123897178Y-108445780D01*
X123921211Y-108441000D01*
X123943850Y-108431622D01*
X123964224Y-108418009D01*
X123981551Y-108400682D01*
X123995165Y-108380307D01*
X124004542Y-108357669D01*
X124009323Y-108333635D01*
X124008493Y-108316731D01*
X124009000Y-108316731D01*
X124009000Y-108215579D01*
X124026331Y-108128448D01*
X124060328Y-108046373D01*
X124066247Y-108037515D01*
X124100073Y-107986890D01*
X124109685Y-107972505D01*
X124172505Y-107909685D01*
X124237387Y-107866332D01*
X124246371Y-107860329D01*
X124250750Y-107858515D01*
X124328448Y-107826331D01*
X124415579Y-107809000D01*
X124504421Y-107809000D01*
X124591552Y-107826331D01*
X124591552Y-107826331D01*
G37*
G36*
X132524189Y-107858665D02*
G01*
X131037850Y-109345004D01*
X130329329Y-108636483D01*
X131815668Y-107150144D01*
X132524189Y-107858665D01*
X132524189Y-107858665D01*
G37*
G36*
X162489499Y-107478445D02*
G01*
X162526995Y-107489820D01*
X162561554Y-107508292D01*
X162591847Y-107533153D01*
X162616708Y-107563446D01*
X162635180Y-107598005D01*
X162646555Y-107635501D01*
X162651000Y-107680638D01*
X162651000Y-108121090D01*
X162653402Y-108145476D01*
X162660515Y-108168925D01*
X162672066Y-108190536D01*
X162687611Y-108209478D01*
X162706553Y-108225023D01*
X162728164Y-108236574D01*
X162751613Y-108243687D01*
X162775999Y-108246089D01*
X162800385Y-108243687D01*
X162823834Y-108236574D01*
X162845445Y-108225023D01*
X162864387Y-108209478D01*
X162879932Y-108190536D01*
X162891483Y-108168925D01*
X162915318Y-108111383D01*
X162934405Y-108082818D01*
X162955879Y-108050679D01*
X162964675Y-108037515D01*
X163027495Y-107974695D01*
X163094486Y-107929933D01*
X163101361Y-107925339D01*
X163101363Y-107925338D01*
X163183438Y-107891341D01*
X163270569Y-107874010D01*
X163359411Y-107874010D01*
X163446542Y-107891341D01*
X163528617Y-107925338D01*
X163528619Y-107925339D01*
X163535494Y-107929933D01*
X163602485Y-107974695D01*
X163665305Y-108037515D01*
X163674101Y-108050679D01*
X163695576Y-108082818D01*
X163714662Y-108111383D01*
X163748659Y-108193458D01*
X163765990Y-108280589D01*
X163765990Y-108369431D01*
X163748659Y-108456562D01*
X163720597Y-108524309D01*
X163714661Y-108538639D01*
X163689815Y-108575823D01*
X163665305Y-108612505D01*
X163602485Y-108675325D01*
X163566049Y-108699671D01*
X163528619Y-108724681D01*
X163528618Y-108724682D01*
X163528617Y-108724682D01*
X163446542Y-108758679D01*
X163359411Y-108776010D01*
X163270569Y-108776010D01*
X163183438Y-108758679D01*
X163101363Y-108724682D01*
X163101362Y-108724682D01*
X163101361Y-108724681D01*
X163063931Y-108699671D01*
X163027495Y-108675325D01*
X162964675Y-108612505D01*
X162940165Y-108575823D01*
X162915319Y-108538639D01*
X162909383Y-108524309D01*
X162881321Y-108456561D01*
X162874640Y-108422973D01*
X162867527Y-108399524D01*
X162855976Y-108377913D01*
X162840431Y-108358971D01*
X162821489Y-108343426D01*
X162799879Y-108331874D01*
X162776430Y-108324761D01*
X162752044Y-108322359D01*
X162727658Y-108324761D01*
X162704209Y-108331874D01*
X162682598Y-108343425D01*
X162663656Y-108358970D01*
X162648111Y-108377912D01*
X162641677Y-108391512D01*
X162640982Y-108391140D01*
X162616708Y-108436554D01*
X162591847Y-108466847D01*
X162561554Y-108491708D01*
X162526995Y-108510180D01*
X162489499Y-108521555D01*
X162444362Y-108526000D01*
X161705638Y-108526000D01*
X161660501Y-108521555D01*
X161623005Y-108510180D01*
X161588446Y-108491708D01*
X161558153Y-108466847D01*
X161533292Y-108436554D01*
X161514820Y-108401995D01*
X161503445Y-108364499D01*
X161499000Y-108319362D01*
X161499000Y-107680638D01*
X161503445Y-107635501D01*
X161514820Y-107598005D01*
X161533292Y-107563446D01*
X161558153Y-107533153D01*
X161588446Y-107508292D01*
X161623005Y-107489820D01*
X161660501Y-107478445D01*
X161705638Y-107474000D01*
X162444362Y-107474000D01*
X162489499Y-107478445D01*
X162489499Y-107478445D01*
G37*
G36*
X149531552Y-107866331D02*
G01*
X149613627Y-107900328D01*
X149613629Y-107900329D01*
X149650813Y-107925175D01*
X149687495Y-107949685D01*
X149750315Y-108012505D01*
X149772944Y-108046371D01*
X149797298Y-108082819D01*
X149799672Y-108086373D01*
X149833669Y-108168448D01*
X149851000Y-108255579D01*
X149851000Y-108344421D01*
X149833669Y-108431552D01*
X149801162Y-108510029D01*
X149799671Y-108513629D01*
X149787031Y-108532546D01*
X149750315Y-108587495D01*
X149687495Y-108650315D01*
X149673491Y-108659672D01*
X149613629Y-108699671D01*
X149613628Y-108699672D01*
X149613627Y-108699672D01*
X149531552Y-108733669D01*
X149444421Y-108751000D01*
X149355579Y-108751000D01*
X149268448Y-108733669D01*
X149186373Y-108699672D01*
X149186372Y-108699672D01*
X149186371Y-108699671D01*
X149126509Y-108659672D01*
X149112505Y-108650315D01*
X149049685Y-108587495D01*
X149012969Y-108532546D01*
X149000329Y-108513629D01*
X148998838Y-108510029D01*
X148966331Y-108431552D01*
X148949000Y-108344421D01*
X148949000Y-108255579D01*
X148966331Y-108168448D01*
X149000328Y-108086373D01*
X149002703Y-108082819D01*
X149027056Y-108046371D01*
X149049685Y-108012505D01*
X149112505Y-107949685D01*
X149149187Y-107925175D01*
X149186371Y-107900329D01*
X149186373Y-107900328D01*
X149268448Y-107866331D01*
X149355579Y-107849000D01*
X149444421Y-107849000D01*
X149531552Y-107866331D01*
X149531552Y-107866331D01*
G37*
G36*
X135200588Y-107374298D02*
G01*
X135028754Y-107546132D01*
X135013214Y-107565068D01*
X135001663Y-107586679D01*
X134994550Y-107610128D01*
X134992148Y-107634514D01*
X134994550Y-107658900D01*
X135001663Y-107682349D01*
X135013214Y-107703960D01*
X135028759Y-107722902D01*
X135047701Y-107738447D01*
X135069312Y-107749998D01*
X135092761Y-107757111D01*
X135117147Y-107759513D01*
X135141533Y-107757111D01*
X135164983Y-107749998D01*
X135167393Y-107749000D01*
X135168448Y-107748563D01*
X135168449Y-107748563D01*
X135168451Y-107748562D01*
X135255579Y-107731231D01*
X135344421Y-107731231D01*
X135431552Y-107748562D01*
X135513627Y-107782559D01*
X135513629Y-107782560D01*
X135528933Y-107792786D01*
X135587495Y-107831916D01*
X135650315Y-107894736D01*
X135661176Y-107910991D01*
X135690695Y-107955168D01*
X135699672Y-107968604D01*
X135733669Y-108050679D01*
X135751000Y-108137810D01*
X135751000Y-108226652D01*
X135733669Y-108313783D01*
X135699672Y-108395858D01*
X135699671Y-108395860D01*
X135692868Y-108406041D01*
X135652239Y-108466847D01*
X135650314Y-108469727D01*
X135587496Y-108532545D01*
X135513629Y-108581902D01*
X135513628Y-108581903D01*
X135513627Y-108581903D01*
X135431552Y-108615900D01*
X135344421Y-108633231D01*
X135255579Y-108633231D01*
X135168448Y-108615900D01*
X135086373Y-108581903D01*
X135086372Y-108581903D01*
X135086371Y-108581902D01*
X135012504Y-108532545D01*
X134949686Y-108469727D01*
X134947762Y-108466847D01*
X134907132Y-108406041D01*
X134900329Y-108395860D01*
X134900328Y-108395858D01*
X134866331Y-108313783D01*
X134849000Y-108226652D01*
X134849000Y-108137810D01*
X134866331Y-108050682D01*
X134867767Y-108047214D01*
X134874880Y-108023765D01*
X134877282Y-107999379D01*
X134874880Y-107974992D01*
X134867767Y-107951543D01*
X134856216Y-107929933D01*
X134840671Y-107910991D01*
X134821729Y-107895445D01*
X134800119Y-107883894D01*
X134776670Y-107876781D01*
X134752284Y-107874379D01*
X134727897Y-107876781D01*
X134704448Y-107883894D01*
X134682838Y-107895445D01*
X134663901Y-107910985D01*
X134492067Y-108082819D01*
X133005728Y-106596480D01*
X133714249Y-105887959D01*
X135200588Y-107374298D01*
X135200588Y-107374298D01*
G37*
G36*
X160739499Y-107478445D02*
G01*
X160776995Y-107489820D01*
X160811554Y-107508292D01*
X160841847Y-107533153D01*
X160866708Y-107563446D01*
X160885180Y-107598005D01*
X160896555Y-107635501D01*
X160901000Y-107680638D01*
X160901000Y-108319362D01*
X160896555Y-108364499D01*
X160885180Y-108401995D01*
X160866708Y-108436554D01*
X160841847Y-108466847D01*
X160811554Y-108491708D01*
X160776995Y-108510180D01*
X160739499Y-108521555D01*
X160694362Y-108526000D01*
X159955638Y-108526000D01*
X159910501Y-108521555D01*
X159873005Y-108510180D01*
X159838446Y-108491708D01*
X159808153Y-108466847D01*
X159783292Y-108436554D01*
X159764820Y-108401995D01*
X159753445Y-108364499D01*
X159749000Y-108319362D01*
X159749000Y-107680638D01*
X159753445Y-107635501D01*
X159764820Y-107598005D01*
X159783292Y-107563446D01*
X159808153Y-107533153D01*
X159838446Y-107508292D01*
X159873005Y-107489820D01*
X159910501Y-107478445D01*
X159955638Y-107474000D01*
X160694362Y-107474000D01*
X160739499Y-107478445D01*
X160739499Y-107478445D01*
G37*
G36*
X131626163Y-106960640D02*
G01*
X130139824Y-108446979D01*
X129431303Y-107738458D01*
X130917642Y-106252119D01*
X131626163Y-106960640D01*
X131626163Y-106960640D01*
G37*
G36*
X146701000Y-108301000D02*
G01*
X145799000Y-108301000D01*
X145799000Y-107299000D01*
X146701000Y-107299000D01*
X146701000Y-108301000D01*
X146701000Y-108301000D01*
G37*
G36*
X148156399Y-106991178D02*
G01*
X148234961Y-107023720D01*
X148238476Y-107025176D01*
X148312343Y-107074533D01*
X148375161Y-107137351D01*
X148419976Y-107204420D01*
X148424519Y-107211220D01*
X148458516Y-107293295D01*
X148475847Y-107380426D01*
X148475847Y-107469268D01*
X148458516Y-107556399D01*
X148424519Y-107638474D01*
X148375162Y-107712342D01*
X148312342Y-107775162D01*
X148301270Y-107782560D01*
X148238476Y-107824518D01*
X148238475Y-107824519D01*
X148238474Y-107824519D01*
X148156399Y-107858516D01*
X148069268Y-107875847D01*
X147980426Y-107875847D01*
X147893295Y-107858516D01*
X147811220Y-107824519D01*
X147811219Y-107824519D01*
X147811218Y-107824518D01*
X147748424Y-107782560D01*
X147737352Y-107775162D01*
X147674532Y-107712342D01*
X147625175Y-107638474D01*
X147591178Y-107556399D01*
X147573847Y-107469268D01*
X147573847Y-107380426D01*
X147591178Y-107293295D01*
X147625175Y-107211220D01*
X147629719Y-107204420D01*
X147674533Y-107137351D01*
X147737351Y-107074533D01*
X147811218Y-107025176D01*
X147814733Y-107023720D01*
X147893295Y-106991178D01*
X147980426Y-106973847D01*
X148069268Y-106973847D01*
X148156399Y-106991178D01*
X148156399Y-106991178D01*
G37*
G36*
X153894205Y-106803678D02*
G01*
X153976280Y-106837675D01*
X153976282Y-106837676D01*
X154050149Y-106887033D01*
X154112967Y-106949851D01*
X154153368Y-107010314D01*
X154162325Y-107023720D01*
X154196322Y-107105795D01*
X154213653Y-107192926D01*
X154213653Y-107281768D01*
X154196322Y-107368899D01*
X154162325Y-107450974D01*
X154162324Y-107450976D01*
X154143563Y-107479053D01*
X154112968Y-107524842D01*
X154050148Y-107587662D01*
X154031346Y-107600225D01*
X153976282Y-107637018D01*
X153976281Y-107637019D01*
X153976280Y-107637019D01*
X153894205Y-107671016D01*
X153807074Y-107688347D01*
X153718232Y-107688347D01*
X153631101Y-107671016D01*
X153549026Y-107637019D01*
X153549025Y-107637019D01*
X153549024Y-107637018D01*
X153493960Y-107600225D01*
X153475158Y-107587662D01*
X153412338Y-107524842D01*
X153381743Y-107479053D01*
X153362982Y-107450976D01*
X153362981Y-107450974D01*
X153328984Y-107368899D01*
X153311653Y-107281768D01*
X153311653Y-107192926D01*
X153328984Y-107105795D01*
X153362981Y-107023720D01*
X153371939Y-107010314D01*
X153412339Y-106949851D01*
X153475157Y-106887033D01*
X153549024Y-106837676D01*
X153549026Y-106837675D01*
X153631101Y-106803678D01*
X153718232Y-106786347D01*
X153807074Y-106786347D01*
X153894205Y-106803678D01*
X153894205Y-106803678D01*
G37*
G36*
X151181552Y-106726331D02*
G01*
X151263627Y-106760328D01*
X151263629Y-106760329D01*
X151277851Y-106769832D01*
X151337495Y-106809685D01*
X151400315Y-106872505D01*
X151449672Y-106946373D01*
X151483669Y-107028448D01*
X151501000Y-107115579D01*
X151501000Y-107204421D01*
X151483669Y-107291552D01*
X151451630Y-107368899D01*
X151449671Y-107373629D01*
X151424825Y-107410813D01*
X151400315Y-107447495D01*
X151337495Y-107510315D01*
X151300813Y-107534825D01*
X151263629Y-107559671D01*
X151263628Y-107559672D01*
X151263627Y-107559672D01*
X151181552Y-107593669D01*
X151094421Y-107611000D01*
X151005579Y-107611000D01*
X150918448Y-107593669D01*
X150836373Y-107559672D01*
X150836372Y-107559672D01*
X150836371Y-107559671D01*
X150799187Y-107534825D01*
X150762505Y-107510315D01*
X150699685Y-107447495D01*
X150675175Y-107410813D01*
X150650329Y-107373629D01*
X150648370Y-107368899D01*
X150616331Y-107291552D01*
X150599000Y-107204421D01*
X150599000Y-107115579D01*
X150616331Y-107028448D01*
X150650328Y-106946373D01*
X150699685Y-106872505D01*
X150762505Y-106809685D01*
X150822149Y-106769832D01*
X150836371Y-106760329D01*
X150836373Y-106760328D01*
X150918448Y-106726331D01*
X151005579Y-106709000D01*
X151094421Y-106709000D01*
X151181552Y-106726331D01*
X151181552Y-106726331D01*
G37*
G36*
X130728138Y-106062614D02*
G01*
X129241799Y-107548953D01*
X128533278Y-106840432D01*
X130019617Y-105354093D01*
X130728138Y-106062614D01*
X130728138Y-106062614D01*
G37*
G36*
X145751000Y-106301000D02*
G01*
X145127379Y-106301000D01*
X145102993Y-106303402D01*
X145079544Y-106310515D01*
X145057933Y-106322066D01*
X145038991Y-106337611D01*
X145023446Y-106356553D01*
X145011895Y-106378164D01*
X145004782Y-106401613D01*
X145002380Y-106425999D01*
X145004782Y-106450385D01*
X145011895Y-106473834D01*
X145023446Y-106495445D01*
X145038991Y-106514387D01*
X145057933Y-106529932D01*
X145087494Y-106549684D01*
X145150315Y-106612505D01*
X145199672Y-106686373D01*
X145233669Y-106768448D01*
X145251000Y-106855579D01*
X145251000Y-106944421D01*
X145233669Y-107031552D01*
X145215865Y-107074533D01*
X145199671Y-107113629D01*
X145150314Y-107187496D01*
X145087496Y-107250314D01*
X145013629Y-107299671D01*
X145013628Y-107299672D01*
X145013627Y-107299672D01*
X144931552Y-107333669D01*
X144844421Y-107351000D01*
X144755579Y-107351000D01*
X144668448Y-107333669D01*
X144586373Y-107299672D01*
X144586372Y-107299672D01*
X144586371Y-107299671D01*
X144512504Y-107250314D01*
X144449686Y-107187496D01*
X144400329Y-107113629D01*
X144384135Y-107074533D01*
X144366331Y-107031552D01*
X144349000Y-106944421D01*
X144349000Y-106855579D01*
X144366331Y-106768448D01*
X144400328Y-106686373D01*
X144449685Y-106612505D01*
X144512505Y-106549685D01*
X144565332Y-106514387D01*
X144586371Y-106500329D01*
X144598162Y-106495445D01*
X144668449Y-106466331D01*
X144748386Y-106450431D01*
X144771835Y-106443318D01*
X144793446Y-106431767D01*
X144812388Y-106416222D01*
X144827933Y-106397281D01*
X144839485Y-106375670D01*
X144846598Y-106352221D01*
X144849000Y-106327834D01*
X144849000Y-105299000D01*
X145751000Y-105299000D01*
X145751000Y-106301000D01*
X145751000Y-106301000D01*
G37*
G36*
X136098614Y-106476272D02*
G01*
X135390093Y-107184793D01*
X133903754Y-105698454D01*
X134612275Y-104989933D01*
X136098614Y-106476272D01*
X136098614Y-106476272D01*
G37*
G36*
X152444204Y-106226331D02*
G01*
X152526279Y-106260328D01*
X152526281Y-106260329D01*
X152558230Y-106281677D01*
X152600147Y-106309685D01*
X152662967Y-106372505D01*
X152712324Y-106446373D01*
X152746321Y-106528448D01*
X152763652Y-106615579D01*
X152763652Y-106704421D01*
X152746321Y-106791552D01*
X152719799Y-106855580D01*
X152712323Y-106873629D01*
X152687477Y-106910813D01*
X152663717Y-106946373D01*
X152662966Y-106947496D01*
X152600148Y-107010314D01*
X152526281Y-107059671D01*
X152526280Y-107059672D01*
X152526279Y-107059672D01*
X152444204Y-107093669D01*
X152357073Y-107111000D01*
X152268231Y-107111000D01*
X152181100Y-107093669D01*
X152099025Y-107059672D01*
X152099024Y-107059672D01*
X152099023Y-107059671D01*
X152025156Y-107010314D01*
X151962338Y-106947496D01*
X151961588Y-106946373D01*
X151937827Y-106910813D01*
X151912981Y-106873629D01*
X151905505Y-106855580D01*
X151878983Y-106791552D01*
X151861652Y-106704421D01*
X151861652Y-106615579D01*
X151878983Y-106528448D01*
X151912980Y-106446373D01*
X151962337Y-106372505D01*
X152025157Y-106309685D01*
X152067074Y-106281677D01*
X152099023Y-106260329D01*
X152099025Y-106260328D01*
X152181100Y-106226331D01*
X152268231Y-106209000D01*
X152357073Y-106209000D01*
X152444204Y-106226331D01*
X152444204Y-106226331D01*
G37*
G36*
X114375256Y-103391298D02*
G01*
X114481579Y-103412447D01*
X114572138Y-103449958D01*
X114778127Y-103535281D01*
X114782042Y-103536903D01*
X115052451Y-103717585D01*
X115282415Y-103947549D01*
X115419294Y-104152403D01*
X115463098Y-104217960D01*
X115495942Y-104297253D01*
X115582563Y-104506373D01*
X115587553Y-104518422D01*
X115651000Y-104837389D01*
X115651000Y-105162611D01*
X115631319Y-105261552D01*
X115587553Y-105481579D01*
X115463097Y-105782042D01*
X115282415Y-106052451D01*
X115052451Y-106282415D01*
X114782042Y-106463097D01*
X114782041Y-106463098D01*
X114782040Y-106463098D01*
X114774232Y-106466332D01*
X114481579Y-106587553D01*
X114375256Y-106608702D01*
X114162611Y-106651000D01*
X113837389Y-106651000D01*
X113624744Y-106608702D01*
X113518421Y-106587553D01*
X113225768Y-106466332D01*
X113217960Y-106463098D01*
X113217959Y-106463098D01*
X113217958Y-106463097D01*
X112947549Y-106282415D01*
X112717585Y-106052451D01*
X112536903Y-105782042D01*
X112412447Y-105481579D01*
X112368681Y-105261552D01*
X112349000Y-105162611D01*
X112349000Y-104837389D01*
X112412447Y-104518422D01*
X112417438Y-104506373D01*
X112504058Y-104297253D01*
X112536902Y-104217960D01*
X112580706Y-104152403D01*
X112717585Y-103947549D01*
X112947549Y-103717585D01*
X113217958Y-103536903D01*
X113221874Y-103535281D01*
X113427862Y-103449958D01*
X113518421Y-103412447D01*
X113624744Y-103391298D01*
X113837389Y-103349000D01*
X114162611Y-103349000D01*
X114375256Y-103391298D01*
X114375256Y-103391298D01*
G37*
G36*
X166375256Y-103391298D02*
G01*
X166481579Y-103412447D01*
X166572138Y-103449958D01*
X166778127Y-103535281D01*
X166782042Y-103536903D01*
X167052451Y-103717585D01*
X167282415Y-103947549D01*
X167419294Y-104152403D01*
X167463098Y-104217960D01*
X167495942Y-104297253D01*
X167582563Y-104506373D01*
X167587553Y-104518422D01*
X167651000Y-104837389D01*
X167651000Y-105162611D01*
X167631319Y-105261552D01*
X167587553Y-105481579D01*
X167463097Y-105782042D01*
X167282415Y-106052451D01*
X167052451Y-106282415D01*
X166782042Y-106463097D01*
X166782041Y-106463098D01*
X166782040Y-106463098D01*
X166774232Y-106466332D01*
X166481579Y-106587553D01*
X166375256Y-106608702D01*
X166162611Y-106651000D01*
X165837389Y-106651000D01*
X165624744Y-106608702D01*
X165518421Y-106587553D01*
X165225768Y-106466332D01*
X165217960Y-106463098D01*
X165217959Y-106463098D01*
X165217958Y-106463097D01*
X164947549Y-106282415D01*
X164717585Y-106052451D01*
X164536903Y-105782042D01*
X164412447Y-105481579D01*
X164368681Y-105261552D01*
X164349000Y-105162611D01*
X164349000Y-104837389D01*
X164412447Y-104518422D01*
X164417438Y-104506373D01*
X164504058Y-104297253D01*
X164536902Y-104217960D01*
X164580706Y-104152403D01*
X164717585Y-103947549D01*
X164947549Y-103717585D01*
X165217958Y-103536903D01*
X165221874Y-103535281D01*
X165427862Y-103449958D01*
X165518421Y-103412447D01*
X165624744Y-103391298D01*
X165837389Y-103349000D01*
X166162611Y-103349000D01*
X166375256Y-103391298D01*
X166375256Y-103391298D01*
G37*
G36*
X129830112Y-105164588D02*
G01*
X128343773Y-106650927D01*
X127635252Y-105942406D01*
X129121591Y-104456067D01*
X129830112Y-105164588D01*
X129830112Y-105164588D01*
G37*
G36*
X132061552Y-105516331D02*
G01*
X132143627Y-105550328D01*
X132143629Y-105550329D01*
X132156594Y-105558992D01*
X132217495Y-105599685D01*
X132280315Y-105662505D01*
X132329672Y-105736373D01*
X132363669Y-105818448D01*
X132381000Y-105905579D01*
X132381000Y-105994421D01*
X132363669Y-106081552D01*
X132350100Y-106114309D01*
X132329671Y-106163629D01*
X132304825Y-106200813D01*
X132280315Y-106237495D01*
X132217495Y-106300315D01*
X132186617Y-106320947D01*
X132143629Y-106349671D01*
X132143628Y-106349672D01*
X132143627Y-106349672D01*
X132061552Y-106383669D01*
X131974421Y-106401000D01*
X131885579Y-106401000D01*
X131798448Y-106383669D01*
X131716373Y-106349672D01*
X131716372Y-106349672D01*
X131716371Y-106349671D01*
X131673383Y-106320947D01*
X131642505Y-106300315D01*
X131579685Y-106237495D01*
X131555175Y-106200813D01*
X131530329Y-106163629D01*
X131509900Y-106114309D01*
X131496331Y-106081552D01*
X131479000Y-105994421D01*
X131479000Y-105905579D01*
X131496331Y-105818448D01*
X131530328Y-105736373D01*
X131579685Y-105662505D01*
X131642505Y-105599685D01*
X131703406Y-105558992D01*
X131716371Y-105550329D01*
X131716373Y-105550328D01*
X131798448Y-105516331D01*
X131885579Y-105499000D01*
X131974421Y-105499000D01*
X132061552Y-105516331D01*
X132061552Y-105516331D01*
G37*
G36*
X149339499Y-105278445D02*
G01*
X149376995Y-105289820D01*
X149411554Y-105308292D01*
X149441847Y-105333153D01*
X149466708Y-105363446D01*
X149485180Y-105398005D01*
X149496555Y-105435501D01*
X149501000Y-105480638D01*
X149501000Y-106119362D01*
X149496555Y-106164499D01*
X149485180Y-106201995D01*
X149466708Y-106236554D01*
X149441847Y-106266847D01*
X149411554Y-106291708D01*
X149376995Y-106310180D01*
X149339499Y-106321555D01*
X149294362Y-106326000D01*
X148555638Y-106326000D01*
X148510501Y-106321555D01*
X148473005Y-106310180D01*
X148438446Y-106291708D01*
X148408153Y-106266847D01*
X148383292Y-106236554D01*
X148364820Y-106201995D01*
X148353445Y-106164499D01*
X148349000Y-106119362D01*
X148349000Y-105480638D01*
X148353445Y-105435501D01*
X148364820Y-105398005D01*
X148383292Y-105363446D01*
X148408153Y-105333153D01*
X148438446Y-105308292D01*
X148473005Y-105289820D01*
X148510501Y-105278445D01*
X148555638Y-105274000D01*
X149294362Y-105274000D01*
X149339499Y-105278445D01*
X149339499Y-105278445D01*
G37*
G36*
X151089499Y-105278445D02*
G01*
X151126995Y-105289820D01*
X151161554Y-105308292D01*
X151191847Y-105333153D01*
X151216708Y-105363446D01*
X151235180Y-105398005D01*
X151246555Y-105435501D01*
X151251000Y-105480638D01*
X151251000Y-106119362D01*
X151246555Y-106164499D01*
X151235180Y-106201995D01*
X151216708Y-106236554D01*
X151191847Y-106266847D01*
X151161554Y-106291708D01*
X151126995Y-106310180D01*
X151089499Y-106321555D01*
X151044362Y-106326000D01*
X150305638Y-106326000D01*
X150260501Y-106321555D01*
X150223005Y-106310180D01*
X150188446Y-106291708D01*
X150158153Y-106266847D01*
X150133292Y-106236554D01*
X150114820Y-106201995D01*
X150103445Y-106164499D01*
X150099000Y-106119362D01*
X150099000Y-105480638D01*
X150103445Y-105435501D01*
X150114820Y-105398005D01*
X150133292Y-105363446D01*
X150158153Y-105333153D01*
X150188446Y-105308292D01*
X150223005Y-105289820D01*
X150260501Y-105278445D01*
X150305638Y-105274000D01*
X151044362Y-105274000D01*
X151089499Y-105278445D01*
X151089499Y-105278445D01*
G37*
G36*
X147651000Y-106301000D02*
G01*
X146749000Y-106301000D01*
X146749000Y-105299000D01*
X147651000Y-105299000D01*
X147651000Y-106301000D01*
X147651000Y-106301000D01*
G37*
G36*
X136996639Y-105578246D02*
G01*
X136288118Y-106286767D01*
X134801779Y-104800428D01*
X135510300Y-104091907D01*
X136996639Y-105578246D01*
X136996639Y-105578246D01*
G37*
G36*
X128932086Y-104266563D02*
G01*
X127445747Y-105752902D01*
X126737226Y-105044381D01*
X128223565Y-103558042D01*
X128932086Y-104266563D01*
X128932086Y-104266563D01*
G37*
G36*
X122075636Y-104216981D02*
G01*
X122113132Y-104228356D01*
X122147691Y-104246828D01*
X122182755Y-104275604D01*
X122634396Y-104727245D01*
X122663172Y-104762309D01*
X122681644Y-104796868D01*
X122693019Y-104834364D01*
X122696859Y-104873363D01*
X122693019Y-104912362D01*
X122681644Y-104949858D01*
X122663172Y-104984417D01*
X122634396Y-105019481D01*
X122112045Y-105541832D01*
X122076981Y-105570608D01*
X122042422Y-105589080D01*
X122004926Y-105600455D01*
X121965927Y-105604295D01*
X121926928Y-105600455D01*
X121889432Y-105589080D01*
X121854873Y-105570608D01*
X121819809Y-105541832D01*
X121368168Y-105090191D01*
X121339392Y-105055127D01*
X121320920Y-105020568D01*
X121309545Y-104983072D01*
X121305705Y-104944073D01*
X121309545Y-104905074D01*
X121320920Y-104867578D01*
X121339392Y-104833019D01*
X121368168Y-104797955D01*
X121890519Y-104275604D01*
X121925583Y-104246828D01*
X121960142Y-104228356D01*
X121997638Y-104216981D01*
X122036637Y-104213141D01*
X122075636Y-104216981D01*
X122075636Y-104216981D01*
G37*
G36*
X131101552Y-104696331D02*
G01*
X131183627Y-104730328D01*
X131183629Y-104730329D01*
X131220813Y-104755175D01*
X131257495Y-104779685D01*
X131320315Y-104842505D01*
X131369672Y-104916373D01*
X131403669Y-104998448D01*
X131421000Y-105085579D01*
X131421000Y-105174421D01*
X131403669Y-105261552D01*
X131369672Y-105343627D01*
X131369671Y-105343629D01*
X131344825Y-105380813D01*
X131320315Y-105417495D01*
X131257495Y-105480315D01*
X131220813Y-105504825D01*
X131183629Y-105529671D01*
X131183628Y-105529672D01*
X131183627Y-105529672D01*
X131101552Y-105563669D01*
X131014421Y-105581000D01*
X130925579Y-105581000D01*
X130838448Y-105563669D01*
X130756373Y-105529672D01*
X130756372Y-105529672D01*
X130756371Y-105529671D01*
X130719187Y-105504825D01*
X130682505Y-105480315D01*
X130619685Y-105417495D01*
X130595175Y-105380813D01*
X130570329Y-105343629D01*
X130570328Y-105343627D01*
X130536331Y-105261552D01*
X130519000Y-105174421D01*
X130519000Y-105085579D01*
X130536331Y-104998448D01*
X130570328Y-104916373D01*
X130619685Y-104842505D01*
X130682505Y-104779685D01*
X130719187Y-104755175D01*
X130756371Y-104730329D01*
X130756373Y-104730328D01*
X130838448Y-104696331D01*
X130925579Y-104679000D01*
X131014421Y-104679000D01*
X131101552Y-104696331D01*
X131101552Y-104696331D01*
G37*
G36*
X137894665Y-104680221D02*
G01*
X137186144Y-105388742D01*
X135699805Y-103902403D01*
X136408326Y-103193882D01*
X137894665Y-104680221D01*
X137894665Y-104680221D01*
G37*
G36*
X120121552Y-104286331D02*
G01*
X120203627Y-104320328D01*
X120203629Y-104320329D01*
X120227865Y-104336523D01*
X120273266Y-104366859D01*
X120277496Y-104369686D01*
X120340314Y-104432504D01*
X120379211Y-104490716D01*
X120389672Y-104506373D01*
X120423669Y-104588448D01*
X120441000Y-104675579D01*
X120441000Y-104764421D01*
X120423669Y-104851552D01*
X120389672Y-104933627D01*
X120348409Y-104995382D01*
X120340314Y-105007496D01*
X120277496Y-105070314D01*
X120203629Y-105119671D01*
X120203628Y-105119672D01*
X120203627Y-105119672D01*
X120121552Y-105153669D01*
X120034421Y-105171000D01*
X119945579Y-105171000D01*
X119858448Y-105153669D01*
X119776373Y-105119672D01*
X119776372Y-105119672D01*
X119776371Y-105119671D01*
X119702504Y-105070314D01*
X119639686Y-105007496D01*
X119631592Y-104995382D01*
X119590328Y-104933627D01*
X119556331Y-104851552D01*
X119539000Y-104764421D01*
X119539000Y-104675579D01*
X119556331Y-104588448D01*
X119590328Y-104506373D01*
X119600790Y-104490716D01*
X119639686Y-104432504D01*
X119702504Y-104369686D01*
X119706735Y-104366859D01*
X119752135Y-104336523D01*
X119776371Y-104320329D01*
X119776373Y-104320328D01*
X119858448Y-104286331D01*
X119945579Y-104269000D01*
X120034421Y-104269000D01*
X120121552Y-104286331D01*
X120121552Y-104286331D01*
G37*
G36*
X149741654Y-104006229D02*
G01*
X149823729Y-104040226D01*
X149823731Y-104040227D01*
X149860915Y-104065073D01*
X149897597Y-104089583D01*
X149960417Y-104152403D01*
X149984927Y-104189085D01*
X150004220Y-104217958D01*
X150009774Y-104226271D01*
X150043771Y-104308346D01*
X150061102Y-104395477D01*
X150061102Y-104484319D01*
X150043771Y-104571450D01*
X150009774Y-104653525D01*
X149960417Y-104727393D01*
X149897597Y-104790213D01*
X149882309Y-104800428D01*
X149823731Y-104839569D01*
X149823730Y-104839570D01*
X149823729Y-104839570D01*
X149741654Y-104873567D01*
X149654523Y-104890898D01*
X149565681Y-104890898D01*
X149478550Y-104873567D01*
X149396475Y-104839570D01*
X149396474Y-104839570D01*
X149396473Y-104839569D01*
X149337895Y-104800428D01*
X149322607Y-104790213D01*
X149259787Y-104727393D01*
X149210430Y-104653525D01*
X149176433Y-104571450D01*
X149159102Y-104484319D01*
X149159102Y-104395477D01*
X149176433Y-104308346D01*
X149210430Y-104226271D01*
X149215985Y-104217958D01*
X149235277Y-104189085D01*
X149259787Y-104152403D01*
X149322607Y-104089583D01*
X149359289Y-104065073D01*
X149396473Y-104040227D01*
X149396475Y-104040226D01*
X149478550Y-104006229D01*
X149565681Y-103988898D01*
X149654523Y-103988898D01*
X149741654Y-104006229D01*
X149741654Y-104006229D01*
G37*
G36*
X128034061Y-103368537D02*
G01*
X126547722Y-104854876D01*
X125839201Y-104146355D01*
X127325540Y-102660016D01*
X128034061Y-103368537D01*
X128034061Y-103368537D01*
G37*
G36*
X147459205Y-103763984D02*
G01*
X147541280Y-103797981D01*
X147541282Y-103797982D01*
X147562803Y-103812362D01*
X147615148Y-103847338D01*
X147677968Y-103910158D01*
X147727325Y-103984026D01*
X147761322Y-104066101D01*
X147778653Y-104153232D01*
X147778653Y-104242074D01*
X147761322Y-104329205D01*
X147727325Y-104411280D01*
X147678523Y-104484318D01*
X147677967Y-104485149D01*
X147615149Y-104547967D01*
X147541282Y-104597324D01*
X147541281Y-104597325D01*
X147541280Y-104597325D01*
X147459205Y-104631322D01*
X147372074Y-104648653D01*
X147283232Y-104648653D01*
X147196101Y-104631322D01*
X147114026Y-104597325D01*
X147114025Y-104597325D01*
X147114024Y-104597324D01*
X147040157Y-104547967D01*
X146977339Y-104485149D01*
X146976784Y-104484318D01*
X146927981Y-104411280D01*
X146893984Y-104329205D01*
X146876653Y-104242074D01*
X146876653Y-104153232D01*
X146893984Y-104066101D01*
X146927981Y-103984026D01*
X146977338Y-103910158D01*
X147040158Y-103847338D01*
X147092503Y-103812362D01*
X147114024Y-103797982D01*
X147114026Y-103797981D01*
X147196101Y-103763984D01*
X147283232Y-103746653D01*
X147372074Y-103746653D01*
X147459205Y-103763984D01*
X147459205Y-103763984D01*
G37*
G36*
X120975636Y-103116981D02*
G01*
X121013132Y-103128356D01*
X121047691Y-103146828D01*
X121082755Y-103175604D01*
X121534396Y-103627245D01*
X121563172Y-103662309D01*
X121581644Y-103696868D01*
X121593019Y-103734364D01*
X121596859Y-103773363D01*
X121593019Y-103812362D01*
X121581644Y-103849858D01*
X121563172Y-103884417D01*
X121534396Y-103919481D01*
X121012045Y-104441832D01*
X120976981Y-104470608D01*
X120942422Y-104489080D01*
X120904926Y-104500455D01*
X120865927Y-104504295D01*
X120826928Y-104500455D01*
X120789432Y-104489080D01*
X120754873Y-104470608D01*
X120719809Y-104441832D01*
X120268168Y-103990191D01*
X120239392Y-103955127D01*
X120220920Y-103920568D01*
X120209545Y-103883072D01*
X120205705Y-103844073D01*
X120209545Y-103805074D01*
X120220920Y-103767578D01*
X120239392Y-103733019D01*
X120268168Y-103697955D01*
X120790519Y-103175604D01*
X120825583Y-103146828D01*
X120860142Y-103128356D01*
X120897638Y-103116981D01*
X120936637Y-103113141D01*
X120975636Y-103116981D01*
X120975636Y-103116981D01*
G37*
G36*
X138792690Y-103782195D02*
G01*
X138084169Y-104490716D01*
X136597830Y-103004377D01*
X137306351Y-102295856D01*
X138792690Y-103782195D01*
X138792690Y-103782195D01*
G37*
G36*
X123313072Y-102979545D02*
G01*
X123350568Y-102990920D01*
X123385127Y-103009392D01*
X123420191Y-103038168D01*
X123871832Y-103489809D01*
X123900608Y-103524873D01*
X123919080Y-103559432D01*
X123930455Y-103596928D01*
X123934295Y-103635927D01*
X123930455Y-103674926D01*
X123919080Y-103712422D01*
X123900608Y-103746981D01*
X123871832Y-103782045D01*
X123349481Y-104304396D01*
X123314417Y-104333172D01*
X123279858Y-104351644D01*
X123242362Y-104363019D01*
X123203363Y-104366859D01*
X123164364Y-104363019D01*
X123126868Y-104351644D01*
X123092309Y-104333172D01*
X123057245Y-104304396D01*
X122605604Y-103852755D01*
X122576828Y-103817691D01*
X122558356Y-103783132D01*
X122546981Y-103745636D01*
X122543141Y-103706637D01*
X122546981Y-103667638D01*
X122558356Y-103630142D01*
X122576828Y-103595583D01*
X122605604Y-103560519D01*
X123127955Y-103038168D01*
X123163019Y-103009392D01*
X123197578Y-102990920D01*
X123235074Y-102979545D01*
X123274073Y-102975705D01*
X123313072Y-102979545D01*
X123313072Y-102979545D01*
G37*
G36*
X127136035Y-102470511D02*
G01*
X125649696Y-103956850D01*
X124941175Y-103248329D01*
X126427514Y-101761990D01*
X127136035Y-102470511D01*
X127136035Y-102470511D01*
G37*
G36*
X139690716Y-102884169D02*
G01*
X138982195Y-103592690D01*
X137495856Y-102106351D01*
X138204377Y-101397830D01*
X139690716Y-102884169D01*
X139690716Y-102884169D01*
G37*
G36*
X122213072Y-101879545D02*
G01*
X122250568Y-101890920D01*
X122285127Y-101909392D01*
X122320191Y-101938168D01*
X122771832Y-102389809D01*
X122800608Y-102424873D01*
X122819080Y-102459432D01*
X122830455Y-102496928D01*
X122834295Y-102535927D01*
X122830455Y-102574926D01*
X122819080Y-102612422D01*
X122800608Y-102646981D01*
X122771832Y-102682045D01*
X122249481Y-103204396D01*
X122214417Y-103233172D01*
X122179858Y-103251644D01*
X122142362Y-103263019D01*
X122103363Y-103266859D01*
X122064364Y-103263019D01*
X122026868Y-103251644D01*
X121992309Y-103233172D01*
X121957245Y-103204396D01*
X121505604Y-102752755D01*
X121476828Y-102717691D01*
X121458356Y-102683132D01*
X121446981Y-102645636D01*
X121443141Y-102606637D01*
X121446981Y-102567638D01*
X121458356Y-102530142D01*
X121476828Y-102495583D01*
X121505604Y-102460519D01*
X122027955Y-101938168D01*
X122063019Y-101909392D01*
X122097578Y-101890920D01*
X122135074Y-101879545D01*
X122174073Y-101875705D01*
X122213072Y-101879545D01*
X122213072Y-101879545D01*
G37*
G36*
X153381552Y-102246331D02*
G01*
X153463627Y-102280328D01*
X153463629Y-102280329D01*
X153486866Y-102295856D01*
X153537495Y-102329685D01*
X153600315Y-102392505D01*
X153615733Y-102415580D01*
X153645763Y-102460522D01*
X153649672Y-102466373D01*
X153683669Y-102548448D01*
X153701404Y-102637610D01*
X153708517Y-102661059D01*
X153718641Y-102680000D01*
X153708517Y-102698941D01*
X153701404Y-102722390D01*
X153683669Y-102811552D01*
X153649672Y-102893627D01*
X153649671Y-102893629D01*
X153624825Y-102930813D01*
X153600315Y-102967495D01*
X153537495Y-103030315D01*
X153525742Y-103038168D01*
X153463629Y-103079671D01*
X153463628Y-103079672D01*
X153463627Y-103079672D01*
X153381552Y-103113669D01*
X153294421Y-103131000D01*
X153205579Y-103131000D01*
X153118448Y-103113669D01*
X153036373Y-103079672D01*
X153036372Y-103079672D01*
X153036371Y-103079671D01*
X152974258Y-103038168D01*
X152962505Y-103030315D01*
X152899685Y-102967495D01*
X152875175Y-102930813D01*
X152850329Y-102893629D01*
X152850328Y-102893627D01*
X152816331Y-102811552D01*
X152799000Y-102724421D01*
X152799000Y-102635579D01*
X152816331Y-102548448D01*
X152850328Y-102466373D01*
X152854238Y-102460522D01*
X152884267Y-102415580D01*
X152899685Y-102392505D01*
X152962505Y-102329685D01*
X153013134Y-102295856D01*
X153036371Y-102280329D01*
X153036373Y-102280328D01*
X153118448Y-102246331D01*
X153205579Y-102229000D01*
X153294421Y-102229000D01*
X153381552Y-102246331D01*
X153381552Y-102246331D01*
G37*
G36*
X158339499Y-102078445D02*
G01*
X158376995Y-102089820D01*
X158411554Y-102108292D01*
X158441847Y-102133153D01*
X158466708Y-102163446D01*
X158485180Y-102198005D01*
X158496555Y-102235501D01*
X158501000Y-102280638D01*
X158501000Y-102919362D01*
X158496555Y-102964499D01*
X158485180Y-103001995D01*
X158466708Y-103036554D01*
X158441847Y-103066847D01*
X158411554Y-103091708D01*
X158376995Y-103110180D01*
X158339499Y-103121555D01*
X158294362Y-103126000D01*
X157555638Y-103126000D01*
X157510501Y-103121555D01*
X157473005Y-103110180D01*
X157438446Y-103091708D01*
X157408153Y-103066847D01*
X157383292Y-103036554D01*
X157364820Y-103001995D01*
X157353445Y-102964499D01*
X157349000Y-102919362D01*
X157349000Y-102280638D01*
X157353445Y-102235501D01*
X157364820Y-102198005D01*
X157383292Y-102163446D01*
X157408153Y-102133153D01*
X157438446Y-102108292D01*
X157473005Y-102089820D01*
X157510501Y-102078445D01*
X157555638Y-102074000D01*
X158294362Y-102074000D01*
X158339499Y-102078445D01*
X158339499Y-102078445D01*
G37*
G36*
X160089499Y-102078445D02*
G01*
X160126995Y-102089820D01*
X160161554Y-102108292D01*
X160191847Y-102133153D01*
X160216708Y-102163446D01*
X160235180Y-102198005D01*
X160246555Y-102235501D01*
X160251000Y-102280638D01*
X160251000Y-102919362D01*
X160246555Y-102964499D01*
X160235180Y-103001995D01*
X160216708Y-103036554D01*
X160191847Y-103066847D01*
X160161554Y-103091708D01*
X160126995Y-103110180D01*
X160089499Y-103121555D01*
X160044362Y-103126000D01*
X159305638Y-103126000D01*
X159260501Y-103121555D01*
X159223005Y-103110180D01*
X159188446Y-103091708D01*
X159158153Y-103066847D01*
X159133292Y-103036554D01*
X159114820Y-103001995D01*
X159103445Y-102964499D01*
X159099000Y-102919362D01*
X159099000Y-102280638D01*
X159103445Y-102235501D01*
X159114820Y-102198005D01*
X159133292Y-102163446D01*
X159158153Y-102133153D01*
X159188446Y-102108292D01*
X159223005Y-102089820D01*
X159260501Y-102078445D01*
X159305638Y-102074000D01*
X160044362Y-102074000D01*
X160089499Y-102078445D01*
X160089499Y-102078445D01*
G37*
G36*
X156689499Y-102078445D02*
G01*
X156726995Y-102089820D01*
X156761554Y-102108292D01*
X156791847Y-102133153D01*
X156816708Y-102163446D01*
X156835180Y-102198005D01*
X156846555Y-102235501D01*
X156851000Y-102280638D01*
X156851000Y-102919362D01*
X156846555Y-102964499D01*
X156835180Y-103001995D01*
X156816708Y-103036554D01*
X156791847Y-103066847D01*
X156761554Y-103091708D01*
X156726995Y-103110180D01*
X156689499Y-103121555D01*
X156644362Y-103126000D01*
X155905638Y-103126000D01*
X155860501Y-103121555D01*
X155823005Y-103110180D01*
X155788446Y-103091708D01*
X155758153Y-103066847D01*
X155733292Y-103036554D01*
X155714820Y-103001995D01*
X155703445Y-102964499D01*
X155699000Y-102919362D01*
X155699000Y-102280638D01*
X155703445Y-102235501D01*
X155714820Y-102198005D01*
X155733292Y-102163446D01*
X155758153Y-102133153D01*
X155788446Y-102108292D01*
X155823005Y-102089820D01*
X155860501Y-102078445D01*
X155905638Y-102074000D01*
X156644362Y-102074000D01*
X156689499Y-102078445D01*
X156689499Y-102078445D01*
G37*
G36*
X154939499Y-102078445D02*
G01*
X154976995Y-102089820D01*
X155011554Y-102108292D01*
X155041847Y-102133153D01*
X155066708Y-102163446D01*
X155085180Y-102198005D01*
X155096555Y-102235501D01*
X155101000Y-102280638D01*
X155101000Y-102919362D01*
X155096555Y-102964499D01*
X155085180Y-103001995D01*
X155066708Y-103036554D01*
X155041847Y-103066847D01*
X155011554Y-103091708D01*
X154976995Y-103110180D01*
X154939499Y-103121555D01*
X154894362Y-103126000D01*
X154155638Y-103126000D01*
X154110501Y-103121555D01*
X154073005Y-103110180D01*
X154038446Y-103091708D01*
X154008153Y-103066847D01*
X153983292Y-103036554D01*
X153964820Y-103001995D01*
X153953445Y-102964499D01*
X153949000Y-102919362D01*
X153949000Y-102746776D01*
X153946598Y-102722390D01*
X153939485Y-102698941D01*
X153929361Y-102680000D01*
X153939485Y-102661059D01*
X153946598Y-102637610D01*
X153949000Y-102613224D01*
X153949000Y-102280638D01*
X153953445Y-102235501D01*
X153964820Y-102198005D01*
X153983292Y-102163446D01*
X154008153Y-102133153D01*
X154038446Y-102108292D01*
X154073005Y-102089820D01*
X154110501Y-102078445D01*
X154155638Y-102074000D01*
X154894362Y-102074000D01*
X154939499Y-102078445D01*
X154939499Y-102078445D01*
G37*
G36*
X126238010Y-101572486D02*
G01*
X124751671Y-103058825D01*
X124043150Y-102350304D01*
X125529489Y-100863965D01*
X126238010Y-101572486D01*
X126238010Y-101572486D01*
G37*
G36*
X161191552Y-102166331D02*
G01*
X161273627Y-102200328D01*
X161273629Y-102200329D01*
X161310813Y-102225175D01*
X161347495Y-102249685D01*
X161410315Y-102312505D01*
X161459672Y-102386373D01*
X161493669Y-102468448D01*
X161511000Y-102555579D01*
X161511000Y-102644421D01*
X161493669Y-102731552D01*
X161459672Y-102813627D01*
X161459671Y-102813629D01*
X161410314Y-102887496D01*
X161347496Y-102950314D01*
X161273629Y-102999671D01*
X161273628Y-102999672D01*
X161273627Y-102999672D01*
X161191552Y-103033669D01*
X161104421Y-103051000D01*
X161015579Y-103051000D01*
X160928448Y-103033669D01*
X160846373Y-102999672D01*
X160846372Y-102999672D01*
X160846371Y-102999671D01*
X160772504Y-102950314D01*
X160709686Y-102887496D01*
X160660329Y-102813629D01*
X160660328Y-102813627D01*
X160626331Y-102731552D01*
X160609000Y-102644421D01*
X160609000Y-102555579D01*
X160626331Y-102468448D01*
X160660328Y-102386373D01*
X160709685Y-102312505D01*
X160772505Y-102249685D01*
X160809187Y-102225175D01*
X160846371Y-102200329D01*
X160846373Y-102200328D01*
X160928448Y-102166331D01*
X161015579Y-102149000D01*
X161104421Y-102149000D01*
X161191552Y-102166331D01*
X161191552Y-102166331D01*
G37*
G36*
X128361552Y-102026331D02*
G01*
X128443627Y-102060328D01*
X128443629Y-102060329D01*
X128464089Y-102074000D01*
X128517495Y-102109685D01*
X128580315Y-102172505D01*
X128629672Y-102246373D01*
X128663669Y-102328448D01*
X128681000Y-102415579D01*
X128681000Y-102504421D01*
X128663669Y-102591552D01*
X128634878Y-102661059D01*
X128629671Y-102673629D01*
X128623321Y-102683132D01*
X128580315Y-102747495D01*
X128517495Y-102810315D01*
X128512538Y-102813627D01*
X128443629Y-102859671D01*
X128443628Y-102859672D01*
X128443627Y-102859672D01*
X128361552Y-102893669D01*
X128274421Y-102911000D01*
X128185579Y-102911000D01*
X128098448Y-102893669D01*
X128016373Y-102859672D01*
X128016372Y-102859672D01*
X128016371Y-102859671D01*
X127947462Y-102813627D01*
X127942505Y-102810315D01*
X127879685Y-102747495D01*
X127836679Y-102683132D01*
X127830329Y-102673629D01*
X127825122Y-102661059D01*
X127796331Y-102591552D01*
X127779000Y-102504421D01*
X127779000Y-102415579D01*
X127796331Y-102328448D01*
X127830328Y-102246373D01*
X127879685Y-102172505D01*
X127942505Y-102109685D01*
X127995911Y-102074000D01*
X128016371Y-102060329D01*
X128016373Y-102060328D01*
X128098448Y-102026331D01*
X128185579Y-102009000D01*
X128274421Y-102009000D01*
X128361552Y-102026331D01*
X128361552Y-102026331D01*
G37*
G36*
X140588742Y-101986144D02*
G01*
X139880221Y-102694665D01*
X138393882Y-101208326D01*
X139102403Y-100499805D01*
X140588742Y-101986144D01*
X140588742Y-101986144D01*
G37*
G36*
X125339984Y-100674460D02*
G01*
X123853645Y-102160799D01*
X123145124Y-101452278D01*
X124631463Y-99965939D01*
X125339984Y-100674460D01*
X125339984Y-100674460D01*
G37*
G36*
X127491552Y-101126331D02*
G01*
X127573627Y-101160328D01*
X127573629Y-101160329D01*
X127597989Y-101176606D01*
X127647495Y-101209685D01*
X127710315Y-101272505D01*
X127759672Y-101346373D01*
X127793669Y-101428448D01*
X127811000Y-101515579D01*
X127811000Y-101604421D01*
X127793669Y-101691552D01*
X127769328Y-101750315D01*
X127759671Y-101773629D01*
X127710314Y-101847496D01*
X127647496Y-101910314D01*
X127573629Y-101959671D01*
X127573628Y-101959672D01*
X127573627Y-101959672D01*
X127491552Y-101993669D01*
X127404421Y-102011000D01*
X127315579Y-102011000D01*
X127228448Y-101993669D01*
X127146373Y-101959672D01*
X127146372Y-101959672D01*
X127146371Y-101959671D01*
X127072504Y-101910314D01*
X127009686Y-101847496D01*
X126960329Y-101773629D01*
X126950672Y-101750315D01*
X126926331Y-101691552D01*
X126909000Y-101604421D01*
X126909000Y-101515579D01*
X126926331Y-101428448D01*
X126960328Y-101346373D01*
X127009685Y-101272505D01*
X127072505Y-101209685D01*
X127122011Y-101176606D01*
X127146371Y-101160329D01*
X127146373Y-101160328D01*
X127228448Y-101126331D01*
X127315579Y-101109000D01*
X127404421Y-101109000D01*
X127491552Y-101126331D01*
X127491552Y-101126331D01*
G37*
G36*
X117855636Y-99908263D02*
G01*
X117893132Y-99919638D01*
X117927691Y-99938110D01*
X117962755Y-99966886D01*
X118414396Y-100418527D01*
X118443172Y-100453591D01*
X118461644Y-100488150D01*
X118473019Y-100525646D01*
X118476859Y-100564645D01*
X118473019Y-100603644D01*
X118461644Y-100641140D01*
X118443172Y-100675699D01*
X118414396Y-100710763D01*
X117892045Y-101233114D01*
X117856981Y-101261890D01*
X117822422Y-101280362D01*
X117784926Y-101291737D01*
X117745927Y-101295577D01*
X117706928Y-101291737D01*
X117669432Y-101280362D01*
X117634873Y-101261890D01*
X117599809Y-101233114D01*
X117385467Y-101018772D01*
X117366525Y-101003227D01*
X117344914Y-100991676D01*
X117321465Y-100984563D01*
X117297079Y-100982161D01*
X117272693Y-100984563D01*
X117249244Y-100991676D01*
X117227633Y-101003227D01*
X117208691Y-101018772D01*
X117193146Y-101037714D01*
X117181595Y-101059325D01*
X117174482Y-101082774D01*
X117172080Y-101107160D01*
X117174482Y-101131546D01*
X117181595Y-101154995D01*
X117193146Y-101176606D01*
X117199672Y-101186373D01*
X117233669Y-101268448D01*
X117251000Y-101355579D01*
X117251000Y-101444421D01*
X117233669Y-101531552D01*
X117199672Y-101613627D01*
X117150315Y-101687495D01*
X117087495Y-101750315D01*
X117052606Y-101773627D01*
X117013629Y-101799671D01*
X117013628Y-101799672D01*
X117013627Y-101799672D01*
X116931552Y-101833669D01*
X116844421Y-101851000D01*
X116755579Y-101851000D01*
X116668448Y-101833669D01*
X116586373Y-101799672D01*
X116586372Y-101799672D01*
X116586371Y-101799671D01*
X116547394Y-101773627D01*
X116512505Y-101750315D01*
X116449685Y-101687495D01*
X116400328Y-101613627D01*
X116366331Y-101531552D01*
X116349000Y-101444421D01*
X116349000Y-101355579D01*
X116366331Y-101268448D01*
X116400328Y-101186373D01*
X116449685Y-101112505D01*
X116512505Y-101049685D01*
X116549187Y-101025175D01*
X116586371Y-101000329D01*
X116608147Y-100991309D01*
X116668448Y-100966331D01*
X116755579Y-100949000D01*
X116844421Y-100949000D01*
X116931552Y-100966331D01*
X116991853Y-100991309D01*
X117013629Y-101000329D01*
X117017966Y-101003227D01*
X117023394Y-101006854D01*
X117045005Y-101018405D01*
X117068454Y-101025518D01*
X117092840Y-101027920D01*
X117117226Y-101025518D01*
X117140675Y-101018405D01*
X117162285Y-101006854D01*
X117181227Y-100991309D01*
X117196773Y-100972367D01*
X117208324Y-100950756D01*
X117215437Y-100927307D01*
X117217839Y-100902921D01*
X117215437Y-100878535D01*
X117208324Y-100855086D01*
X117196773Y-100833476D01*
X117181228Y-100814533D01*
X117148168Y-100781473D01*
X117119392Y-100746409D01*
X117100920Y-100711850D01*
X117089545Y-100674354D01*
X117085705Y-100635355D01*
X117089545Y-100596356D01*
X117100920Y-100558860D01*
X117119392Y-100524301D01*
X117148168Y-100489237D01*
X117670519Y-99966886D01*
X117705583Y-99938110D01*
X117740142Y-99919638D01*
X117777638Y-99908263D01*
X117816637Y-99904423D01*
X117855636Y-99908263D01*
X117855636Y-99908263D01*
G37*
G36*
X141486767Y-101088118D02*
G01*
X140778246Y-101796639D01*
X139291907Y-100310300D01*
X140000428Y-99601779D01*
X141486767Y-101088118D01*
X141486767Y-101088118D01*
G37*
G36*
X119531552Y-100566331D02*
G01*
X119613627Y-100600328D01*
X119613629Y-100600329D01*
X119618590Y-100603644D01*
X119687495Y-100649685D01*
X119750315Y-100712505D01*
X119799672Y-100786373D01*
X119833669Y-100868448D01*
X119851000Y-100955579D01*
X119851000Y-101044421D01*
X119833669Y-101131552D01*
X119799672Y-101213627D01*
X119750315Y-101287495D01*
X119687495Y-101350315D01*
X119679615Y-101355580D01*
X119613629Y-101399671D01*
X119613628Y-101399672D01*
X119613627Y-101399672D01*
X119531552Y-101433669D01*
X119444421Y-101451000D01*
X119355579Y-101451000D01*
X119268448Y-101433669D01*
X119186373Y-101399672D01*
X119186372Y-101399672D01*
X119186371Y-101399671D01*
X119120385Y-101355580D01*
X119112505Y-101350315D01*
X119049685Y-101287495D01*
X119000328Y-101213627D01*
X118966331Y-101131552D01*
X118949000Y-101044421D01*
X118949000Y-100955579D01*
X118966331Y-100868448D01*
X119000328Y-100786373D01*
X119049685Y-100712505D01*
X119112505Y-100649685D01*
X119181410Y-100603644D01*
X119186371Y-100600329D01*
X119186373Y-100600328D01*
X119268448Y-100566331D01*
X119355579Y-100549000D01*
X119444421Y-100549000D01*
X119531552Y-100566331D01*
X119531552Y-100566331D01*
G37*
G36*
X124441958Y-99776435D02*
G01*
X122955619Y-101262774D01*
X122247098Y-100554253D01*
X123733437Y-99067914D01*
X124441958Y-99776435D01*
X124441958Y-99776435D01*
G37*
G36*
X126551552Y-100246331D02*
G01*
X126633627Y-100280328D01*
X126633629Y-100280329D01*
X126707496Y-100329686D01*
X126770314Y-100392504D01*
X126811156Y-100453627D01*
X126819672Y-100466373D01*
X126853669Y-100548448D01*
X126871000Y-100635579D01*
X126871000Y-100724421D01*
X126853669Y-100811552D01*
X126825923Y-100878535D01*
X126819671Y-100893629D01*
X126816340Y-100898614D01*
X126770315Y-100967495D01*
X126707495Y-101030315D01*
X126686385Y-101044420D01*
X126633629Y-101079671D01*
X126633628Y-101079672D01*
X126633627Y-101079672D01*
X126551552Y-101113669D01*
X126464421Y-101131000D01*
X126375579Y-101131000D01*
X126288448Y-101113669D01*
X126206373Y-101079672D01*
X126206372Y-101079672D01*
X126206371Y-101079671D01*
X126153615Y-101044420D01*
X126132505Y-101030315D01*
X126069685Y-100967495D01*
X126023660Y-100898614D01*
X126020329Y-100893629D01*
X126014077Y-100878535D01*
X125986331Y-100811552D01*
X125969000Y-100724421D01*
X125969000Y-100635579D01*
X125986331Y-100548448D01*
X126020328Y-100466373D01*
X126028845Y-100453627D01*
X126069686Y-100392504D01*
X126132504Y-100329686D01*
X126206371Y-100280329D01*
X126206373Y-100280328D01*
X126288448Y-100246331D01*
X126375579Y-100229000D01*
X126464421Y-100229000D01*
X126551552Y-100246331D01*
X126551552Y-100246331D01*
G37*
G36*
X142384793Y-100190093D02*
G01*
X141676272Y-100898614D01*
X140189933Y-99412275D01*
X140898454Y-98703754D01*
X142384793Y-100190093D01*
X142384793Y-100190093D01*
G37*
G36*
X147431552Y-99806331D02*
G01*
X147513627Y-99840328D01*
X147513629Y-99840329D01*
X147550813Y-99865175D01*
X147587495Y-99889685D01*
X147650315Y-99952505D01*
X147699672Y-100026373D01*
X147733669Y-100108448D01*
X147751000Y-100195579D01*
X147751000Y-100284421D01*
X147733669Y-100371552D01*
X147699687Y-100453591D01*
X147699671Y-100453629D01*
X147650314Y-100527496D01*
X147587496Y-100590314D01*
X147513629Y-100639671D01*
X147513628Y-100639672D01*
X147513627Y-100639672D01*
X147431552Y-100673669D01*
X147344421Y-100691000D01*
X147255579Y-100691000D01*
X147168448Y-100673669D01*
X147086373Y-100639672D01*
X147086372Y-100639672D01*
X147086371Y-100639671D01*
X147012504Y-100590314D01*
X146949686Y-100527496D01*
X146900329Y-100453629D01*
X146900313Y-100453591D01*
X146866331Y-100371552D01*
X146849000Y-100284421D01*
X146849000Y-100195579D01*
X146866331Y-100108448D01*
X146900328Y-100026373D01*
X146949685Y-99952505D01*
X147012505Y-99889685D01*
X147049187Y-99865175D01*
X147086371Y-99840329D01*
X147086373Y-99840328D01*
X147168448Y-99806331D01*
X147255579Y-99789000D01*
X147344421Y-99789000D01*
X147431552Y-99806331D01*
X147431552Y-99806331D01*
G37*
G36*
X123543933Y-98878409D02*
G01*
X122057594Y-100364748D01*
X121349073Y-99656227D01*
X122835412Y-98169888D01*
X123543933Y-98878409D01*
X123543933Y-98878409D01*
G37*
G36*
X133966687Y-96573241D02*
G01*
X130359028Y-100180900D01*
X126751369Y-96573241D01*
X130359028Y-92965582D01*
X133966687Y-96573241D01*
X133966687Y-96573241D01*
G37*
G36*
X119093072Y-98670827D02*
G01*
X119130568Y-98682202D01*
X119165127Y-98700674D01*
X119200191Y-98729450D01*
X119651832Y-99181091D01*
X119680608Y-99216155D01*
X119699080Y-99250714D01*
X119710455Y-99288210D01*
X119714295Y-99327209D01*
X119710455Y-99366208D01*
X119699080Y-99403704D01*
X119680608Y-99438263D01*
X119651832Y-99473327D01*
X119129481Y-99995678D01*
X119094417Y-100024454D01*
X119059858Y-100042926D01*
X119022362Y-100054301D01*
X118983363Y-100058141D01*
X118944364Y-100054301D01*
X118906868Y-100042926D01*
X118872309Y-100024454D01*
X118837245Y-99995678D01*
X118385604Y-99544037D01*
X118356828Y-99508973D01*
X118338356Y-99474414D01*
X118326981Y-99436918D01*
X118323141Y-99397919D01*
X118326981Y-99358920D01*
X118338356Y-99321424D01*
X118356828Y-99286865D01*
X118385604Y-99251801D01*
X118907955Y-98729450D01*
X118943019Y-98700674D01*
X118977578Y-98682202D01*
X119015074Y-98670827D01*
X119054073Y-98666987D01*
X119093072Y-98670827D01*
X119093072Y-98670827D01*
G37*
G36*
X143282819Y-99292067D02*
G01*
X142574298Y-100000588D01*
X141087959Y-98514249D01*
X141796480Y-97805728D01*
X143282819Y-99292067D01*
X143282819Y-99292067D01*
G37*
G36*
X162492804Y-97993102D02*
G01*
X162564781Y-98000191D01*
X162734620Y-98051711D01*
X162891145Y-98135376D01*
X162926883Y-98164706D01*
X163028340Y-98247968D01*
X163111602Y-98349425D01*
X163140932Y-98385163D01*
X163224597Y-98541688D01*
X163276117Y-98711527D01*
X163293513Y-98888154D01*
X163276117Y-99064781D01*
X163230198Y-99216155D01*
X163224596Y-99234622D01*
X163215412Y-99251804D01*
X163140932Y-99391145D01*
X163130625Y-99403704D01*
X163028340Y-99528340D01*
X162938853Y-99601779D01*
X162891145Y-99640932D01*
X162734620Y-99724597D01*
X162564781Y-99776117D01*
X162498597Y-99782635D01*
X162432414Y-99789154D01*
X162343894Y-99789154D01*
X162277711Y-99782635D01*
X162211527Y-99776117D01*
X162041688Y-99724597D01*
X161885163Y-99640932D01*
X161837455Y-99601779D01*
X161747968Y-99528340D01*
X161645683Y-99403704D01*
X161635376Y-99391145D01*
X161560896Y-99251804D01*
X161551712Y-99234622D01*
X161546110Y-99216155D01*
X161500191Y-99064781D01*
X161482795Y-98888154D01*
X161500191Y-98711527D01*
X161551711Y-98541688D01*
X161635376Y-98385163D01*
X161664706Y-98349425D01*
X161747968Y-98247968D01*
X161849425Y-98164706D01*
X161885163Y-98135376D01*
X162041688Y-98051711D01*
X162211527Y-98000191D01*
X162283504Y-97993102D01*
X162343894Y-97987154D01*
X162432414Y-97987154D01*
X162492804Y-97993102D01*
X162492804Y-97993102D01*
G37*
G36*
X122645907Y-97980383D02*
G01*
X121159568Y-99466722D01*
X120451047Y-98758201D01*
X121937386Y-97271862D01*
X122645907Y-97980383D01*
X122645907Y-97980383D01*
G37*
G36*
X121747881Y-97082358D02*
G01*
X120261542Y-98568697D01*
X119553021Y-97860176D01*
X121039360Y-96373837D01*
X121747881Y-97082358D01*
X121747881Y-97082358D01*
G37*
G36*
X160696762Y-96197051D02*
G01*
X160768729Y-96204139D01*
X160938568Y-96255659D01*
X161095093Y-96339324D01*
X161130831Y-96368654D01*
X161232288Y-96451916D01*
X161315550Y-96553373D01*
X161344880Y-96589111D01*
X161428545Y-96745636D01*
X161480065Y-96915475D01*
X161497461Y-97092102D01*
X161480065Y-97268729D01*
X161428545Y-97438568D01*
X161344880Y-97595093D01*
X161315550Y-97630831D01*
X161232288Y-97732288D01*
X161130831Y-97815550D01*
X161095093Y-97844880D01*
X160938568Y-97928545D01*
X160768729Y-97980065D01*
X160702544Y-97986584D01*
X160636362Y-97993102D01*
X160547842Y-97993102D01*
X160481660Y-97986584D01*
X160415475Y-97980065D01*
X160245636Y-97928545D01*
X160089111Y-97844880D01*
X160053373Y-97815550D01*
X159951916Y-97732288D01*
X159868654Y-97630831D01*
X159839324Y-97595093D01*
X159755659Y-97438568D01*
X159704139Y-97268729D01*
X159686743Y-97092102D01*
X159704139Y-96915475D01*
X159755659Y-96745636D01*
X159839324Y-96589111D01*
X159868654Y-96553373D01*
X159951916Y-96451916D01*
X160053373Y-96368654D01*
X160089111Y-96339324D01*
X160245636Y-96255659D01*
X160415475Y-96204139D01*
X160487442Y-96197051D01*
X160547842Y-96191102D01*
X160636362Y-96191102D01*
X160696762Y-96197051D01*
X160696762Y-96197051D01*
G37*
G36*
X120849856Y-96184332D02*
G01*
X119363517Y-97670671D01*
X118792104Y-97099258D01*
X118773168Y-97083718D01*
X118751557Y-97072167D01*
X118728108Y-97065054D01*
X118703722Y-97062652D01*
X118679336Y-97065054D01*
X118655887Y-97072167D01*
X118634276Y-97083718D01*
X118615334Y-97099263D01*
X118599789Y-97118205D01*
X118588238Y-97139816D01*
X118581125Y-97163265D01*
X118578723Y-97187651D01*
X118581125Y-97212037D01*
X118599942Y-97306637D01*
X118599942Y-97395479D01*
X118582611Y-97482610D01*
X118548614Y-97564685D01*
X118548613Y-97564687D01*
X118499256Y-97638554D01*
X118436438Y-97701372D01*
X118362571Y-97750729D01*
X118362570Y-97750730D01*
X118362569Y-97750730D01*
X118280494Y-97784727D01*
X118193363Y-97802058D01*
X118104521Y-97802058D01*
X118017390Y-97784727D01*
X117935315Y-97750730D01*
X117935314Y-97750730D01*
X117935313Y-97750729D01*
X117861446Y-97701372D01*
X117798628Y-97638554D01*
X117749271Y-97564687D01*
X117749270Y-97564685D01*
X117715273Y-97482610D01*
X117697942Y-97395479D01*
X117697942Y-97306637D01*
X117715273Y-97219506D01*
X117749270Y-97137431D01*
X117798627Y-97063563D01*
X117861447Y-97000743D01*
X117898129Y-96976233D01*
X117935313Y-96951387D01*
X117935315Y-96951386D01*
X118017390Y-96917389D01*
X118104521Y-96900058D01*
X118193363Y-96900058D01*
X118280494Y-96917389D01*
X118362569Y-96951386D01*
X118362571Y-96951387D01*
X118399755Y-96976233D01*
X118436437Y-97000743D01*
X118438033Y-97002339D01*
X118456975Y-97017884D01*
X118478586Y-97029435D01*
X118502035Y-97036548D01*
X118526421Y-97038950D01*
X118550807Y-97036548D01*
X118574256Y-97029435D01*
X118595867Y-97017884D01*
X118614809Y-97002339D01*
X118654997Y-96962151D01*
X118654996Y-96962150D01*
X120141335Y-95475811D01*
X120849856Y-96184332D01*
X120849856Y-96184332D01*
G37*
G36*
X144545004Y-95837850D02*
G01*
X143058665Y-97324189D01*
X142350144Y-96615668D01*
X143836483Y-95129329D01*
X144545004Y-95837850D01*
X144545004Y-95837850D01*
G37*
G36*
X143646979Y-94939824D02*
G01*
X142160640Y-96426163D01*
X141452119Y-95717642D01*
X142938458Y-94231303D01*
X143646979Y-94939824D01*
X143646979Y-94939824D01*
G37*
G36*
X158906493Y-94401569D02*
G01*
X158972678Y-94408088D01*
X159142517Y-94459608D01*
X159299042Y-94543273D01*
X159334780Y-94572603D01*
X159436237Y-94655865D01*
X159519499Y-94757322D01*
X159548829Y-94793060D01*
X159632494Y-94949585D01*
X159684014Y-95119424D01*
X159701410Y-95296051D01*
X159684014Y-95472678D01*
X159632494Y-95642517D01*
X159548829Y-95799042D01*
X159519499Y-95834780D01*
X159436237Y-95936237D01*
X159334780Y-96019499D01*
X159299042Y-96048829D01*
X159142517Y-96132494D01*
X158972678Y-96184014D01*
X158906493Y-96190533D01*
X158840311Y-96197051D01*
X158751791Y-96197051D01*
X158685609Y-96190533D01*
X158619424Y-96184014D01*
X158449585Y-96132494D01*
X158293060Y-96048829D01*
X158257322Y-96019499D01*
X158155865Y-95936237D01*
X158072603Y-95834780D01*
X158043273Y-95799042D01*
X157959608Y-95642517D01*
X157908088Y-95472678D01*
X157890692Y-95296051D01*
X157908088Y-95119424D01*
X157959608Y-94949585D01*
X158043273Y-94793060D01*
X158072603Y-94757322D01*
X158155865Y-94655865D01*
X158257322Y-94572603D01*
X158293060Y-94543273D01*
X158449585Y-94459608D01*
X158619424Y-94408088D01*
X158685608Y-94401570D01*
X158751791Y-94395051D01*
X158840311Y-94395051D01*
X158906493Y-94401569D01*
X158906493Y-94401569D01*
G37*
G36*
X142748953Y-94041799D02*
G01*
X141262614Y-95528138D01*
X140554093Y-94819617D01*
X142040432Y-93333278D01*
X142748953Y-94041799D01*
X142748953Y-94041799D01*
G37*
G36*
X158274206Y-93500000D02*
G01*
X157000000Y-94774206D01*
X155725794Y-93500000D01*
X157000000Y-92225794D01*
X158274206Y-93500000D01*
X158274206Y-93500000D01*
G37*
G36*
X141850927Y-93143773D02*
G01*
X140364588Y-94630112D01*
X139656067Y-93921591D01*
X141142406Y-92435252D01*
X141850927Y-93143773D01*
X141850927Y-93143773D01*
G37*
G36*
X140952902Y-92245747D02*
G01*
X139466563Y-93732086D01*
X138758042Y-93023565D01*
X140244381Y-91537226D01*
X140952902Y-92245747D01*
X140952902Y-92245747D01*
G37*
G36*
X140054876Y-91347722D02*
G01*
X138568537Y-92834061D01*
X137860016Y-92125540D01*
X139346355Y-90639201D01*
X140054876Y-91347722D01*
X140054876Y-91347722D01*
G37*
G36*
X139156850Y-90449696D02*
G01*
X137670511Y-91936035D01*
X136961990Y-91227514D01*
X138448329Y-89741175D01*
X139156850Y-90449696D01*
X139156850Y-90449696D01*
G37*
G36*
X150588865Y-89681256D02*
G01*
X150660832Y-89688344D01*
X150830671Y-89739864D01*
X150987196Y-89823529D01*
X151022934Y-89852859D01*
X151124391Y-89936121D01*
X151207653Y-90037578D01*
X151236983Y-90073316D01*
X151320648Y-90229841D01*
X151372168Y-90399680D01*
X151389564Y-90576307D01*
X151372168Y-90752934D01*
X151320648Y-90922773D01*
X151236983Y-91079298D01*
X151207653Y-91115036D01*
X151124391Y-91216493D01*
X151022934Y-91299755D01*
X150987196Y-91329085D01*
X150830671Y-91412750D01*
X150660832Y-91464270D01*
X150594647Y-91470789D01*
X150528465Y-91477307D01*
X150439945Y-91477307D01*
X150373763Y-91470789D01*
X150307578Y-91464270D01*
X150137739Y-91412750D01*
X149981214Y-91329085D01*
X149945476Y-91299755D01*
X149844019Y-91216493D01*
X149760757Y-91115036D01*
X149731427Y-91079298D01*
X149647762Y-90922773D01*
X149596242Y-90752934D01*
X149578846Y-90576307D01*
X149596242Y-90399680D01*
X149647762Y-90229841D01*
X149731427Y-90073316D01*
X149760757Y-90037578D01*
X149844019Y-89936121D01*
X149945476Y-89852859D01*
X149981214Y-89823529D01*
X150137739Y-89739864D01*
X150307578Y-89688344D01*
X150379545Y-89681256D01*
X150439945Y-89675307D01*
X150528465Y-89675307D01*
X150588865Y-89681256D01*
X150588865Y-89681256D01*
G37*
G36*
X138258825Y-89551671D02*
G01*
X136772486Y-91038010D01*
X136063965Y-90329489D01*
X137550304Y-88843150D01*
X138258825Y-89551671D01*
X138258825Y-89551671D01*
G37*
G36*
X137360799Y-88653645D02*
G01*
X135874460Y-90139984D01*
X135165939Y-89431463D01*
X136652278Y-87945124D01*
X137360799Y-88653645D01*
X137360799Y-88653645D01*
G37*
G36*
X148792814Y-87885205D02*
G01*
X148864781Y-87892293D01*
X149034620Y-87943813D01*
X149191145Y-88027478D01*
X149226883Y-88056808D01*
X149328340Y-88140070D01*
X149411602Y-88241527D01*
X149440932Y-88277265D01*
X149524597Y-88433790D01*
X149576117Y-88603629D01*
X149593513Y-88780256D01*
X149576117Y-88956883D01*
X149524597Y-89126722D01*
X149440932Y-89283247D01*
X149411602Y-89318985D01*
X149328340Y-89420442D01*
X149226883Y-89503704D01*
X149191145Y-89533034D01*
X149034620Y-89616699D01*
X148864781Y-89668219D01*
X148798597Y-89674737D01*
X148732414Y-89681256D01*
X148643894Y-89681256D01*
X148577711Y-89674737D01*
X148511527Y-89668219D01*
X148341688Y-89616699D01*
X148185163Y-89533034D01*
X148149425Y-89503704D01*
X148047968Y-89420442D01*
X147964706Y-89318985D01*
X147935376Y-89283247D01*
X147851711Y-89126722D01*
X147800191Y-88956883D01*
X147782795Y-88780256D01*
X147800191Y-88603629D01*
X147851711Y-88433790D01*
X147935376Y-88277265D01*
X147964706Y-88241527D01*
X148047968Y-88140070D01*
X148149425Y-88056808D01*
X148185163Y-88027478D01*
X148341688Y-87943813D01*
X148511527Y-87892293D01*
X148583494Y-87885205D01*
X148643894Y-87879256D01*
X148732414Y-87879256D01*
X148792814Y-87885205D01*
X148792814Y-87885205D01*
G37*
G36*
X152384916Y-87885205D02*
G01*
X152456883Y-87892293D01*
X152626722Y-87943813D01*
X152783247Y-88027478D01*
X152818985Y-88056808D01*
X152920442Y-88140070D01*
X153003704Y-88241527D01*
X153033034Y-88277265D01*
X153116699Y-88433790D01*
X153168219Y-88603629D01*
X153185615Y-88780256D01*
X153168219Y-88956883D01*
X153116699Y-89126722D01*
X153033034Y-89283247D01*
X153003704Y-89318985D01*
X152920442Y-89420442D01*
X152818985Y-89503704D01*
X152783247Y-89533034D01*
X152626722Y-89616699D01*
X152456883Y-89668219D01*
X152390699Y-89674737D01*
X152324516Y-89681256D01*
X152235996Y-89681256D01*
X152169813Y-89674737D01*
X152103629Y-89668219D01*
X151933790Y-89616699D01*
X151777265Y-89533034D01*
X151741527Y-89503704D01*
X151640070Y-89420442D01*
X151556808Y-89318985D01*
X151527478Y-89283247D01*
X151443813Y-89126722D01*
X151392293Y-88956883D01*
X151374897Y-88780256D01*
X151392293Y-88603629D01*
X151443813Y-88433790D01*
X151527478Y-88277265D01*
X151556808Y-88241527D01*
X151640070Y-88140070D01*
X151741527Y-88056808D01*
X151777265Y-88027478D01*
X151933790Y-87943813D01*
X152103629Y-87892293D01*
X152175596Y-87885205D01*
X152235996Y-87879256D01*
X152324516Y-87879256D01*
X152384916Y-87885205D01*
X152384916Y-87885205D01*
G37*
G36*
X136462774Y-87755619D02*
G01*
X134976435Y-89241958D01*
X134267914Y-88533437D01*
X135754253Y-87047098D01*
X136462774Y-87755619D01*
X136462774Y-87755619D01*
G37*
G36*
X135564748Y-86857594D02*
G01*
X134078409Y-88343933D01*
X133369888Y-87635412D01*
X134856227Y-86149073D01*
X135564748Y-86857594D01*
X135564748Y-86857594D01*
G37*
G36*
X150588865Y-86089154D02*
G01*
X150660832Y-86096242D01*
X150830671Y-86147762D01*
X150987196Y-86231427D01*
X151022934Y-86260757D01*
X151124391Y-86344019D01*
X151207653Y-86445476D01*
X151236983Y-86481214D01*
X151320648Y-86637739D01*
X151372168Y-86807578D01*
X151389564Y-86984205D01*
X151372168Y-87160832D01*
X151320648Y-87330671D01*
X151236983Y-87487196D01*
X151207653Y-87522934D01*
X151124391Y-87624391D01*
X151022934Y-87707653D01*
X150987196Y-87736983D01*
X150830671Y-87820648D01*
X150660832Y-87872168D01*
X150594647Y-87878687D01*
X150528465Y-87885205D01*
X150439945Y-87885205D01*
X150373763Y-87878687D01*
X150307578Y-87872168D01*
X150137739Y-87820648D01*
X149981214Y-87736983D01*
X149945476Y-87707653D01*
X149844019Y-87624391D01*
X149760757Y-87522934D01*
X149731427Y-87487196D01*
X149647762Y-87330671D01*
X149596242Y-87160832D01*
X149578846Y-86984205D01*
X149596242Y-86807578D01*
X149647762Y-86637739D01*
X149731427Y-86481214D01*
X149760757Y-86445476D01*
X149844019Y-86344019D01*
X149945476Y-86260757D01*
X149981214Y-86231427D01*
X150137739Y-86147762D01*
X150307578Y-86096242D01*
X150379545Y-86089154D01*
X150439945Y-86083205D01*
X150528465Y-86083205D01*
X150588865Y-86089154D01*
X150588865Y-86089154D01*
G37*
G36*
X146996762Y-86089154D02*
G01*
X147068729Y-86096242D01*
X147238568Y-86147762D01*
X147395093Y-86231427D01*
X147430831Y-86260757D01*
X147532288Y-86344019D01*
X147615550Y-86445476D01*
X147644880Y-86481214D01*
X147728545Y-86637739D01*
X147780065Y-86807578D01*
X147797461Y-86984205D01*
X147780065Y-87160832D01*
X147728545Y-87330671D01*
X147644880Y-87487196D01*
X147615550Y-87522934D01*
X147532288Y-87624391D01*
X147430831Y-87707653D01*
X147395093Y-87736983D01*
X147238568Y-87820648D01*
X147068729Y-87872168D01*
X147002544Y-87878687D01*
X146936362Y-87885205D01*
X146847842Y-87885205D01*
X146781660Y-87878687D01*
X146715475Y-87872168D01*
X146545636Y-87820648D01*
X146389111Y-87736983D01*
X146353373Y-87707653D01*
X146251916Y-87624391D01*
X146168654Y-87522934D01*
X146139324Y-87487196D01*
X146055659Y-87330671D01*
X146004139Y-87160832D01*
X145986743Y-86984205D01*
X146004139Y-86807578D01*
X146055659Y-86637739D01*
X146139324Y-86481214D01*
X146168654Y-86445476D01*
X146251916Y-86344019D01*
X146353373Y-86260757D01*
X146389111Y-86231427D01*
X146545636Y-86147762D01*
X146715475Y-86096242D01*
X146787442Y-86089154D01*
X146847842Y-86083205D01*
X146936362Y-86083205D01*
X146996762Y-86089154D01*
X146996762Y-86089154D01*
G37*
G36*
X134666722Y-85959568D02*
G01*
X133180383Y-87445907D01*
X132471862Y-86737386D01*
X133958201Y-85251047D01*
X134666722Y-85959568D01*
X134666722Y-85959568D01*
G37*
G36*
X133768697Y-85061542D02*
G01*
X132282358Y-86547881D01*
X131573837Y-85839360D01*
X133060176Y-84353021D01*
X133768697Y-85061542D01*
X133768697Y-85061542D01*
G37*
G36*
X145200701Y-84293102D02*
G01*
X145272678Y-84300191D01*
X145442517Y-84351711D01*
X145599042Y-84435376D01*
X145634780Y-84464706D01*
X145736237Y-84547968D01*
X145819499Y-84649425D01*
X145848829Y-84685163D01*
X145932494Y-84841688D01*
X145984014Y-85011527D01*
X146001410Y-85188154D01*
X145984014Y-85364781D01*
X145932494Y-85534620D01*
X145848829Y-85691145D01*
X145819499Y-85726883D01*
X145736237Y-85828340D01*
X145634780Y-85911602D01*
X145599042Y-85940932D01*
X145442517Y-86024597D01*
X145272678Y-86076117D01*
X145206493Y-86082636D01*
X145140311Y-86089154D01*
X145051791Y-86089154D01*
X144985609Y-86082636D01*
X144919424Y-86076117D01*
X144749585Y-86024597D01*
X144593060Y-85940932D01*
X144557322Y-85911602D01*
X144455865Y-85828340D01*
X144372603Y-85726883D01*
X144343273Y-85691145D01*
X144259608Y-85534620D01*
X144208088Y-85364781D01*
X144190692Y-85188154D01*
X144208088Y-85011527D01*
X144259608Y-84841688D01*
X144343273Y-84685163D01*
X144372603Y-84649425D01*
X144455865Y-84547968D01*
X144557322Y-84464706D01*
X144593060Y-84435376D01*
X144749585Y-84351711D01*
X144919424Y-84300191D01*
X144991401Y-84293102D01*
X145051791Y-84287154D01*
X145140311Y-84287154D01*
X145200701Y-84293102D01*
X145200701Y-84293102D01*
G37*
G36*
X148792804Y-84293102D02*
G01*
X148864781Y-84300191D01*
X149034620Y-84351711D01*
X149191145Y-84435376D01*
X149226883Y-84464706D01*
X149328340Y-84547968D01*
X149411602Y-84649425D01*
X149440932Y-84685163D01*
X149524597Y-84841688D01*
X149576117Y-85011527D01*
X149593513Y-85188154D01*
X149576117Y-85364781D01*
X149524597Y-85534620D01*
X149440932Y-85691145D01*
X149411602Y-85726883D01*
X149328340Y-85828340D01*
X149226883Y-85911602D01*
X149191145Y-85940932D01*
X149034620Y-86024597D01*
X148864781Y-86076117D01*
X148798596Y-86082636D01*
X148732414Y-86089154D01*
X148643894Y-86089154D01*
X148577712Y-86082636D01*
X148511527Y-86076117D01*
X148341688Y-86024597D01*
X148185163Y-85940932D01*
X148149425Y-85911602D01*
X148047968Y-85828340D01*
X147964706Y-85726883D01*
X147935376Y-85691145D01*
X147851711Y-85534620D01*
X147800191Y-85364781D01*
X147782795Y-85188154D01*
X147800191Y-85011527D01*
X147851711Y-84841688D01*
X147935376Y-84685163D01*
X147964706Y-84649425D01*
X148047968Y-84547968D01*
X148149425Y-84464706D01*
X148185163Y-84435376D01*
X148341688Y-84351711D01*
X148511527Y-84300191D01*
X148583504Y-84293102D01*
X148643894Y-84287154D01*
X148732414Y-84287154D01*
X148792804Y-84293102D01*
X148792804Y-84293102D01*
G37*
G36*
X132870671Y-84163517D02*
G01*
X131384332Y-85649856D01*
X130675811Y-84941335D01*
X132162150Y-83454996D01*
X132870671Y-84163517D01*
X132870671Y-84163517D01*
G37*
G36*
X143404660Y-82497051D02*
G01*
X143476627Y-82504139D01*
X143646466Y-82555659D01*
X143802991Y-82639324D01*
X143838729Y-82668654D01*
X143940186Y-82751916D01*
X144023448Y-82853373D01*
X144052778Y-82889111D01*
X144136443Y-83045636D01*
X144187963Y-83215475D01*
X144205359Y-83392102D01*
X144187963Y-83568729D01*
X144136443Y-83738568D01*
X144052778Y-83895093D01*
X144023448Y-83930831D01*
X143940186Y-84032288D01*
X143838729Y-84115550D01*
X143802991Y-84144880D01*
X143646466Y-84228545D01*
X143476627Y-84280065D01*
X143410442Y-84286584D01*
X143344260Y-84293102D01*
X143255740Y-84293102D01*
X143189558Y-84286584D01*
X143123373Y-84280065D01*
X142953534Y-84228545D01*
X142797009Y-84144880D01*
X142761271Y-84115550D01*
X142659814Y-84032288D01*
X142576552Y-83930831D01*
X142547222Y-83895093D01*
X142463557Y-83738568D01*
X142412037Y-83568729D01*
X142394641Y-83392102D01*
X142412037Y-83215475D01*
X142463557Y-83045636D01*
X142547222Y-82889111D01*
X142576552Y-82853373D01*
X142659814Y-82751916D01*
X142761271Y-82668654D01*
X142797009Y-82639324D01*
X142953534Y-82555659D01*
X143123373Y-82504139D01*
X143195340Y-82497051D01*
X143255740Y-82491102D01*
X143344260Y-82491102D01*
X143404660Y-82497051D01*
X143404660Y-82497051D01*
G37*
G36*
X146996762Y-82497051D02*
G01*
X147068729Y-82504139D01*
X147238568Y-82555659D01*
X147395093Y-82639324D01*
X147430831Y-82668654D01*
X147532288Y-82751916D01*
X147615550Y-82853373D01*
X147644880Y-82889111D01*
X147728545Y-83045636D01*
X147780065Y-83215475D01*
X147797461Y-83392102D01*
X147780065Y-83568729D01*
X147728545Y-83738568D01*
X147644880Y-83895093D01*
X147615550Y-83930831D01*
X147532288Y-84032288D01*
X147430831Y-84115550D01*
X147395093Y-84144880D01*
X147238568Y-84228545D01*
X147068729Y-84280065D01*
X147002544Y-84286584D01*
X146936362Y-84293102D01*
X146847842Y-84293102D01*
X146781660Y-84286584D01*
X146715475Y-84280065D01*
X146545636Y-84228545D01*
X146389111Y-84144880D01*
X146353373Y-84115550D01*
X146251916Y-84032288D01*
X146168654Y-83930831D01*
X146139324Y-83895093D01*
X146055659Y-83738568D01*
X146004139Y-83568729D01*
X145986743Y-83392102D01*
X146004139Y-83215475D01*
X146055659Y-83045636D01*
X146139324Y-82889111D01*
X146168654Y-82853373D01*
X146251916Y-82751916D01*
X146353373Y-82668654D01*
X146389111Y-82639324D01*
X146545636Y-82555659D01*
X146715475Y-82504139D01*
X146787442Y-82497051D01*
X146847842Y-82491102D01*
X146936362Y-82491102D01*
X146996762Y-82497051D01*
X146996762Y-82497051D01*
G37*
G36*
X133271552Y-82776331D02*
G01*
X133353627Y-82810328D01*
X133353629Y-82810329D01*
X133390813Y-82835175D01*
X133427495Y-82859685D01*
X133490315Y-82922505D01*
X133539672Y-82996373D01*
X133573669Y-83078448D01*
X133591000Y-83165579D01*
X133591000Y-83254421D01*
X133573669Y-83341552D01*
X133539672Y-83423627D01*
X133490315Y-83497495D01*
X133427495Y-83560315D01*
X133390813Y-83584825D01*
X133353629Y-83609671D01*
X133353628Y-83609672D01*
X133353627Y-83609672D01*
X133271552Y-83643669D01*
X133184421Y-83661000D01*
X133095579Y-83661000D01*
X133008448Y-83643669D01*
X132926373Y-83609672D01*
X132926372Y-83609672D01*
X132926371Y-83609671D01*
X132889187Y-83584825D01*
X132852505Y-83560315D01*
X132789685Y-83497495D01*
X132740328Y-83423627D01*
X132706331Y-83341552D01*
X132689000Y-83254421D01*
X132689000Y-83165579D01*
X132706331Y-83078448D01*
X132740328Y-82996373D01*
X132789685Y-82922505D01*
X132852505Y-82859685D01*
X132889187Y-82835175D01*
X132926371Y-82810329D01*
X132926373Y-82810328D01*
X133008448Y-82776331D01*
X133095579Y-82759000D01*
X133184421Y-82759000D01*
X133271552Y-82776331D01*
X133271552Y-82776331D01*
G37*
G36*
X141614391Y-80701569D02*
G01*
X141680576Y-80708088D01*
X141850415Y-80759608D01*
X142006940Y-80843273D01*
X142042678Y-80872603D01*
X142144135Y-80955865D01*
X142227397Y-81057322D01*
X142256727Y-81093060D01*
X142340392Y-81249585D01*
X142391912Y-81419424D01*
X142409308Y-81596051D01*
X142391912Y-81772678D01*
X142340392Y-81942517D01*
X142256727Y-82099042D01*
X142227397Y-82134780D01*
X142144135Y-82236237D01*
X142042678Y-82319499D01*
X142006940Y-82348829D01*
X141850415Y-82432494D01*
X141680576Y-82484014D01*
X141614391Y-82490533D01*
X141548209Y-82497051D01*
X141459689Y-82497051D01*
X141393507Y-82490533D01*
X141327322Y-82484014D01*
X141157483Y-82432494D01*
X141000958Y-82348829D01*
X140965220Y-82319499D01*
X140863763Y-82236237D01*
X140780501Y-82134780D01*
X140751171Y-82099042D01*
X140667506Y-81942517D01*
X140615986Y-81772678D01*
X140598590Y-81596051D01*
X140615986Y-81419424D01*
X140667506Y-81249585D01*
X140751171Y-81093060D01*
X140780501Y-81057322D01*
X140863763Y-80955865D01*
X140965220Y-80872603D01*
X141000958Y-80843273D01*
X141157483Y-80759608D01*
X141327322Y-80708088D01*
X141393507Y-80701569D01*
X141459689Y-80695051D01*
X141548209Y-80695051D01*
X141614391Y-80701569D01*
X141614391Y-80701569D01*
G37*
G36*
X145206493Y-80701569D02*
G01*
X145272678Y-80708088D01*
X145442517Y-80759608D01*
X145599042Y-80843273D01*
X145634780Y-80872603D01*
X145736237Y-80955865D01*
X145819499Y-81057322D01*
X145848829Y-81093060D01*
X145932494Y-81249585D01*
X145984014Y-81419424D01*
X146001410Y-81596051D01*
X145984014Y-81772678D01*
X145932494Y-81942517D01*
X145848829Y-82099042D01*
X145819499Y-82134780D01*
X145736237Y-82236237D01*
X145634780Y-82319499D01*
X145599042Y-82348829D01*
X145442517Y-82432494D01*
X145272678Y-82484014D01*
X145206493Y-82490533D01*
X145140311Y-82497051D01*
X145051791Y-82497051D01*
X144985609Y-82490533D01*
X144919424Y-82484014D01*
X144749585Y-82432494D01*
X144593060Y-82348829D01*
X144557322Y-82319499D01*
X144455865Y-82236237D01*
X144372603Y-82134780D01*
X144343273Y-82099042D01*
X144259608Y-81942517D01*
X144208088Y-81772678D01*
X144190692Y-81596051D01*
X144208088Y-81419424D01*
X144259608Y-81249585D01*
X144343273Y-81093060D01*
X144372603Y-81057322D01*
X144455865Y-80955865D01*
X144557322Y-80872603D01*
X144593060Y-80843273D01*
X144749585Y-80759608D01*
X144919424Y-80708088D01*
X144985609Y-80701569D01*
X145051791Y-80695051D01*
X145140311Y-80695051D01*
X145206493Y-80701569D01*
X145206493Y-80701569D01*
G37*
G36*
X144574206Y-79800000D02*
G01*
X143300000Y-81074206D01*
X142025794Y-79800000D01*
X143300000Y-78525794D01*
X144574206Y-79800000D01*
X144574206Y-79800000D01*
G37*
M02*
