M48
; DRILL file {KiCad (5.1.4)-1} date 17.04.2020 22:36:19
; FORMAT={3:3/ absolute / metric / suppress leading zeros}
; #@! TF.CreationDate,2020-04-17T22:36:19+02:00
; #@! TF.GenerationSoftware,Kicad,Pcbnew,(5.1.4)-1
FMAT,2
METRIC,TZ
T1C0.400
T2C0.550
T3C0.710
T4C0.850
T5C1.000
T6C0.800
T7C3.200
%
G90
G05
T1
X116800Y-101400
X117200Y-109650
X117400Y-119200
X118149Y-97351
X119400Y-101000
X119990Y-104720
X121880Y-114280
X121900Y-122260
X124460Y-108260
X126420Y-100680
X127360Y-101560
X128230Y-102460
X129410Y-113090
X130500Y-120700
X130970Y-105130
X131930Y-105950
X133140Y-83210
X134450Y-110610
X135300Y-108182
X140300Y-123000
X140730Y-111800
X141400Y-121600
X143400Y-111800
X144100Y-121400
X144400Y-118600
X144800Y-106900
X147300Y-100240
X147328Y-104198
X148025Y-107425
X149400Y-108300
X149610Y-104440
X151050Y-107160
X152313Y-106660
X153250Y-102680
X153763Y-107237
X155400Y-114000
X155700Y-112600
X155825Y-115200
X157400Y-114800
X158100Y-114000
X158100Y-116000
X160190Y-111960
X161060Y-102600
X163315Y-108325
X163320Y-109500
X163400Y-111000
T3
X146546Y-123361
X147854Y-128239
T5
X152300Y-126570
X154500Y-125300
X146147Y-132257
X148600Y-131600
X157000Y-93500
X158796Y-95296
X160592Y-97092
X162388Y-98888
X141504Y-81596
X143300Y-79800
X143300Y-83392
X145096Y-81596
X145096Y-85188
X146892Y-83392
X146892Y-86984
X148688Y-85188
X148688Y-88780
X150484Y-86984
X150484Y-90576
X152280Y-88780
T6
X157911Y-120789
X160779Y-116693
T7
X166000Y-105000
X114000Y-105000
T2
G00X159109Y-123306
M15
G01X159641Y-123679
M16
G05
G00X163554Y-116958
M15
G01X164086Y-117331
M16
G05
T4
G00X156123Y-121032
M15
G01X156573Y-121348
M16
G05
G00X160396Y-114930
M15
G01X160846Y-115245
M16
G05
T0
M30
