G04 #@! TF.GenerationSoftware,KiCad,Pcbnew,(5.1.4)-1*
G04 #@! TF.CreationDate,2020-04-17T22:35:52+02:00*
G04 #@! TF.ProjectId,Sensorbaustein,53656e73-6f72-4626-9175-737465696e2e,1.7*
G04 #@! TF.SameCoordinates,Original*
G04 #@! TF.FileFunction,Legend,Bot*
G04 #@! TF.FilePolarity,Positive*
%FSLAX46Y46*%
G04 Gerber Fmt 4.6, Leading zero omitted, Abs format (unit mm)*
G04 Created by KiCad (PCBNEW (5.1.4)-1) date 2020-04-17 22:35:52*
%MOMM*%
%LPD*%
G04 APERTURE LIST*
%ADD10C,0.125000*%
%ADD11C,0.150000*%
%ADD12C,0.120000*%
%ADD13C,1.552000*%
%ADD14C,1.552000*%
%ADD15C,1.252000*%
%ADD16C,1.252000*%
%ADD17C,0.902000*%
%ADD18C,0.902000*%
%ADD19C,1.802000*%
%ADD20C,0.100000*%
%ADD21C,1.802000*%
%ADD22C,1.312000*%
%ADD23C,3.302000*%
G04 APERTURE END LIST*
D10*
X133159613Y-77161583D02*
X133118545Y-77223784D01*
X133003075Y-77290451D01*
X132928673Y-77294917D01*
X132866472Y-77253848D01*
X132849805Y-77224981D01*
X132845340Y-77150579D01*
X132886408Y-77088378D01*
X132973011Y-77038378D01*
X133014079Y-76976177D01*
X133009613Y-76901776D01*
X132992946Y-76872908D01*
X132930746Y-76831840D01*
X132856344Y-76836306D01*
X132769741Y-76886306D01*
X132728673Y-76948507D01*
X132409058Y-77594917D02*
X132483459Y-77590451D01*
X132598929Y-77523784D01*
X132639998Y-77461583D01*
X132635532Y-77387182D01*
X132502199Y-77156242D01*
X132439998Y-77115173D01*
X132365596Y-77119639D01*
X132250126Y-77186306D01*
X132209058Y-77248507D01*
X132213524Y-77322908D01*
X132246857Y-77380643D01*
X132568865Y-77271712D01*
X131903716Y-77386306D02*
X132137049Y-77790451D01*
X131937049Y-77444041D02*
X131891515Y-77431840D01*
X131817113Y-77436306D01*
X131730511Y-77486306D01*
X131689442Y-77548507D01*
X131693908Y-77622908D01*
X131877242Y-77940451D01*
X131600767Y-78061583D02*
X131559699Y-78123784D01*
X131444229Y-78190451D01*
X131369827Y-78194917D01*
X131307626Y-78153848D01*
X131290960Y-78124981D01*
X131286494Y-78050579D01*
X131327562Y-77988378D01*
X131414165Y-77938378D01*
X131455233Y-77876177D01*
X131450767Y-77801776D01*
X131434101Y-77772908D01*
X131371900Y-77731840D01*
X131297498Y-77736306D01*
X131210896Y-77786306D01*
X131169827Y-77848507D01*
X131011216Y-78440451D02*
X131052285Y-78378250D01*
X131064485Y-78332716D01*
X131060020Y-78258314D01*
X130960020Y-78085109D01*
X130897819Y-78044041D01*
X130852285Y-78031840D01*
X130777883Y-78036306D01*
X130691280Y-78086306D01*
X130650212Y-78148507D01*
X130638011Y-78194041D01*
X130642477Y-78268442D01*
X130742477Y-78441647D01*
X130804678Y-78482716D01*
X130850212Y-78494917D01*
X130924614Y-78490451D01*
X131011216Y-78440451D01*
X130549336Y-78707118D02*
X130316003Y-78302972D01*
X130382669Y-78418442D02*
X130320468Y-78377374D01*
X130274934Y-78365173D01*
X130200533Y-78369639D01*
X130142798Y-78402972D01*
X129712178Y-79190451D02*
X129478845Y-78786306D01*
X129512178Y-78844041D02*
X129466644Y-78831840D01*
X129392242Y-78836306D01*
X129305640Y-78886306D01*
X129264571Y-78948507D01*
X129269037Y-79022908D01*
X129452370Y-79340451D01*
X129269037Y-79022908D02*
X129206836Y-78981840D01*
X129132435Y-78986306D01*
X129045832Y-79036306D01*
X129004764Y-79098507D01*
X129009230Y-79172908D01*
X129192563Y-79490451D01*
X128817285Y-79707118D02*
X128858354Y-79644917D01*
X128870554Y-79599383D01*
X128866089Y-79524981D01*
X128766089Y-79351776D01*
X128703888Y-79310707D01*
X128658354Y-79298507D01*
X128583952Y-79302972D01*
X128497349Y-79352972D01*
X128456281Y-79415173D01*
X128444080Y-79460707D01*
X128448546Y-79535109D01*
X128548546Y-79708314D01*
X128610747Y-79749383D01*
X128656281Y-79761583D01*
X128730683Y-79757118D01*
X128817285Y-79707118D01*
X128095597Y-80123784D02*
X127745597Y-79517566D01*
X128078931Y-80094917D02*
X128153332Y-80090451D01*
X128268802Y-80023784D01*
X128309871Y-79961583D01*
X128322072Y-79916049D01*
X128317606Y-79841647D01*
X128217606Y-79668442D01*
X128155405Y-79627374D01*
X128109871Y-79615173D01*
X128035469Y-79619639D01*
X127919999Y-79686306D01*
X127878931Y-79748507D01*
X127313781Y-80036306D02*
X127547115Y-80440451D01*
X127573589Y-79886306D02*
X127756922Y-80203848D01*
X127761388Y-80278250D01*
X127720320Y-80340451D01*
X127633717Y-80390451D01*
X127559315Y-80394917D01*
X127513781Y-80382716D01*
X127171837Y-80657118D02*
X127212905Y-80594917D01*
X127208439Y-80520515D01*
X126908439Y-80000900D01*
X126693290Y-80894917D02*
X126767692Y-80890451D01*
X126883162Y-80823784D01*
X126924230Y-80761583D01*
X126919764Y-80687182D01*
X126786431Y-80456242D01*
X126724230Y-80415173D01*
X126649828Y-80419639D01*
X126534358Y-80486306D01*
X126493290Y-80548507D01*
X126497756Y-80622908D01*
X126531089Y-80680643D01*
X126853098Y-80571712D01*
X125699594Y-81507118D02*
X125349594Y-80900900D01*
X125682927Y-81478250D02*
X125757329Y-81473784D01*
X125872799Y-81407118D01*
X125913867Y-81344917D01*
X125926068Y-81299383D01*
X125921602Y-81224981D01*
X125821602Y-81051776D01*
X125759401Y-81010707D01*
X125713867Y-80998507D01*
X125639465Y-81002972D01*
X125523995Y-81069639D01*
X125482927Y-81131840D01*
X125163312Y-81778250D02*
X125237714Y-81773784D01*
X125353184Y-81707118D01*
X125394252Y-81644917D01*
X125389786Y-81570515D01*
X125256453Y-81339575D01*
X125194252Y-81298507D01*
X125119850Y-81302972D01*
X125004380Y-81369639D01*
X124963312Y-81431840D01*
X124967778Y-81506242D01*
X125001111Y-81563977D01*
X125323119Y-81455045D01*
X124715705Y-81536306D02*
X124804701Y-82023784D01*
X124427030Y-81702972D01*
X124181816Y-82344917D02*
X124256218Y-82340451D01*
X124371688Y-82273784D01*
X124412756Y-82211583D01*
X124408291Y-82137182D01*
X124274957Y-81906242D01*
X124212756Y-81865173D01*
X124138355Y-81869639D01*
X124022885Y-81936306D01*
X123981816Y-81998507D01*
X123986282Y-82072908D01*
X124019616Y-82130643D01*
X124341624Y-82021712D01*
X123823205Y-82590451D02*
X123864274Y-82528250D01*
X123859808Y-82453848D01*
X123559808Y-81934233D01*
X123505663Y-82773784D02*
X123546731Y-82711583D01*
X123558932Y-82666049D01*
X123554466Y-82591647D01*
X123454466Y-82418442D01*
X123392265Y-82377374D01*
X123346731Y-82365173D01*
X123272329Y-82369639D01*
X123185727Y-82419639D01*
X123144658Y-82481840D01*
X123132458Y-82527374D01*
X123136923Y-82601776D01*
X123236923Y-82774981D01*
X123299124Y-82816049D01*
X123344658Y-82828250D01*
X123419060Y-82823784D01*
X123505663Y-82773784D01*
X122810449Y-82636306D02*
X123160449Y-83242523D01*
X122827116Y-82665173D02*
X122752714Y-82669639D01*
X122637244Y-82736306D01*
X122596176Y-82798507D01*
X122583975Y-82844041D01*
X122588441Y-82918442D01*
X122688441Y-83091647D01*
X122750642Y-83132716D01*
X122796176Y-83144917D01*
X122870577Y-83140451D01*
X122986047Y-83073784D01*
X123027116Y-83011583D01*
X122247693Y-83461583D02*
X122322095Y-83457118D01*
X122437565Y-83390451D01*
X122478633Y-83328250D01*
X122474167Y-83253848D01*
X122340834Y-83022908D01*
X122278633Y-82981840D01*
X122204231Y-82986306D01*
X122088761Y-83052972D01*
X122047693Y-83115173D01*
X122052159Y-83189575D01*
X122085492Y-83247310D01*
X122407501Y-83138378D01*
X121715877Y-83807118D02*
X121365877Y-83200900D01*
X121699210Y-83778250D02*
X121773612Y-83773784D01*
X121889082Y-83707118D01*
X121930150Y-83644917D01*
X121942351Y-83599383D01*
X121937885Y-83524981D01*
X121837885Y-83351776D01*
X121775684Y-83310707D01*
X121730150Y-83298507D01*
X121655749Y-83302972D01*
X121540279Y-83369639D01*
X121499210Y-83431840D01*
X120965322Y-84240451D02*
X120615322Y-83634233D01*
X120748655Y-83865173D02*
X120674253Y-83869639D01*
X120558783Y-83936306D01*
X120517715Y-83998507D01*
X120505514Y-84044041D01*
X120509980Y-84118442D01*
X120609980Y-84291647D01*
X120672181Y-84332716D01*
X120717715Y-84344917D01*
X120792116Y-84340451D01*
X120907586Y-84273784D01*
X120948655Y-84211583D01*
X120241240Y-84119639D02*
X120330236Y-84607118D01*
X119952565Y-84286306D02*
X120330236Y-84607118D01*
X120471305Y-84718122D01*
X120516839Y-84730323D01*
X120591240Y-84725857D01*
X136289687Y-76749698D02*
X136578362Y-76583031D01*
X136228362Y-75976813D01*
X135594474Y-76612219D02*
X135827807Y-77016364D01*
X135854281Y-76462219D02*
X136037615Y-76779762D01*
X136042080Y-76854163D01*
X136001012Y-76916364D01*
X135914409Y-76966364D01*
X135840008Y-76970830D01*
X135794474Y-76958629D01*
X135539132Y-77183031D02*
X135189132Y-76576813D01*
X135348063Y-76985424D02*
X135308192Y-77316364D01*
X135074858Y-76912219D02*
X135439132Y-77009826D01*
X134788576Y-77616364D02*
X134605243Y-77298822D01*
X134600777Y-77224420D01*
X134641846Y-77162219D01*
X134757316Y-77095552D01*
X134831717Y-77091087D01*
X134771910Y-77587497D02*
X134846311Y-77583031D01*
X134990649Y-77499698D01*
X135031717Y-77437497D01*
X135027252Y-77363095D01*
X134993918Y-77305360D01*
X134931717Y-77264292D01*
X134857316Y-77268757D01*
X134712978Y-77352091D01*
X134638576Y-77356557D01*
X134512102Y-77737497D02*
X134471034Y-77799698D01*
X134355564Y-77866364D01*
X134281162Y-77870830D01*
X134218961Y-77829762D01*
X134202295Y-77800894D01*
X134197829Y-77726492D01*
X134238897Y-77664292D01*
X134325500Y-77614292D01*
X134366568Y-77552091D01*
X134362102Y-77477689D01*
X134345435Y-77448822D01*
X134283235Y-77407753D01*
X134208833Y-77412219D01*
X134122230Y-77462219D01*
X134081162Y-77524420D01*
X133547273Y-78333031D02*
X133197273Y-77726813D01*
X133245201Y-78276492D01*
X132793128Y-77960146D01*
X133143128Y-78566364D01*
X132606846Y-78837497D02*
X132681248Y-78833031D01*
X132796718Y-78766364D01*
X132837786Y-78704163D01*
X132833321Y-78629762D01*
X132699987Y-78398822D01*
X132637786Y-78357753D01*
X132563385Y-78362219D01*
X132447915Y-78428886D01*
X132406846Y-78491087D01*
X132411312Y-78565488D01*
X132444645Y-78623223D01*
X132766654Y-78514292D01*
X132334838Y-79033031D02*
X132101504Y-78628886D01*
X131984838Y-78426813D02*
X132030372Y-78439014D01*
X132018171Y-78484548D01*
X131972637Y-78472347D01*
X131984838Y-78426813D01*
X132018171Y-78484548D01*
X131798556Y-79304163D02*
X131872958Y-79299698D01*
X131988428Y-79233031D01*
X132029496Y-79170830D01*
X132025030Y-79096428D01*
X131891697Y-78865488D01*
X131829496Y-78824420D01*
X131755094Y-78828886D01*
X131639624Y-78895552D01*
X131598556Y-78957753D01*
X131603022Y-79032155D01*
X131636355Y-79089890D01*
X131958364Y-78980958D01*
X131293214Y-79095552D02*
X131526547Y-79499698D01*
X131326547Y-79153287D02*
X131281013Y-79141087D01*
X131206612Y-79145552D01*
X131120009Y-79195552D01*
X131078941Y-79257753D01*
X131083406Y-79332155D01*
X131266740Y-79649698D01*
X130978065Y-79816364D02*
X130628065Y-79210146D01*
X130761398Y-79441087D02*
X130686996Y-79445552D01*
X130571526Y-79512219D01*
X130530458Y-79574420D01*
X130518257Y-79619954D01*
X130522723Y-79694356D01*
X130622723Y-79867561D01*
X130684924Y-79908629D01*
X130730458Y-79920830D01*
X130804860Y-79916364D01*
X130920330Y-79849698D01*
X130961398Y-79787497D01*
X130181975Y-80237497D02*
X130256377Y-80233031D01*
X130371847Y-80166364D01*
X130412915Y-80104163D01*
X130408449Y-80029762D01*
X130275116Y-79798822D01*
X130212915Y-79757753D01*
X130138514Y-79762219D01*
X130023043Y-79828886D01*
X129981975Y-79891087D01*
X129986441Y-79965488D01*
X130019774Y-80023223D01*
X130341783Y-79914292D01*
X129909967Y-80433031D02*
X129676633Y-80028886D01*
X129743300Y-80144356D02*
X129681099Y-80103287D01*
X129635565Y-80091087D01*
X129561163Y-80095552D01*
X129503428Y-80128886D01*
X129041548Y-80395552D02*
X129324881Y-80886300D01*
X129387082Y-80927368D01*
X129432616Y-80939569D01*
X129507018Y-80935103D01*
X129593621Y-80885103D01*
X129634689Y-80822903D01*
X129258215Y-80770830D02*
X129332616Y-80766364D01*
X129448086Y-80699698D01*
X129489155Y-80637497D01*
X129501356Y-80591963D01*
X129496890Y-80517561D01*
X129396890Y-80344356D01*
X129334689Y-80303287D01*
X129289155Y-80291087D01*
X129214753Y-80295552D01*
X129099283Y-80362219D01*
X129058215Y-80424420D01*
X128738599Y-81070830D02*
X128813001Y-81066364D01*
X128928471Y-80999698D01*
X128969540Y-80937497D01*
X128965074Y-80863095D01*
X128831740Y-80632155D01*
X128769540Y-80591087D01*
X128695138Y-80595552D01*
X128579668Y-80662219D01*
X128538599Y-80724420D01*
X128543065Y-80798822D01*
X128576399Y-80856557D01*
X128898407Y-80747625D01*
X128466591Y-81266364D02*
X128233258Y-80862219D01*
X128299924Y-80977689D02*
X128237723Y-80936621D01*
X128192189Y-80924420D01*
X128117788Y-80928886D01*
X128060053Y-80962219D01*
X127138685Y-82033031D02*
X127167553Y-82016364D01*
X127208621Y-81954163D01*
X127245224Y-81817561D01*
X127289561Y-81561022D01*
X127297296Y-81441087D01*
X127276164Y-81337817D01*
X127242831Y-81280082D01*
X127180630Y-81239014D01*
X127106228Y-81243480D01*
X127077361Y-81260146D01*
X127036292Y-81322347D01*
X127040758Y-81396749D01*
X127057425Y-81425616D01*
X127119625Y-81466685D01*
X127165160Y-81478886D01*
X127405031Y-81494356D01*
X127450566Y-81506557D01*
X127512766Y-81547625D01*
X127562766Y-81634227D01*
X127567232Y-81708629D01*
X127555031Y-81754163D01*
X127513963Y-81816364D01*
X127427361Y-81866364D01*
X127352959Y-81870830D01*
X127307425Y-81858629D01*
X127154155Y-81793159D01*
X127075288Y-81723223D01*
X127041955Y-81665488D01*
X125766122Y-82055681D02*
X125807190Y-81993480D01*
X125893792Y-81943480D01*
X125997062Y-81922347D01*
X126088130Y-81946749D01*
X126150331Y-81987817D01*
X126245865Y-82086621D01*
X126295865Y-82173223D01*
X126333664Y-82305360D01*
X126338130Y-82379762D01*
X126313728Y-82470830D01*
X126243792Y-82549698D01*
X126186057Y-82583031D01*
X126082788Y-82604163D01*
X126037254Y-82591963D01*
X125920587Y-82389890D01*
X126036057Y-82323223D01*
X125550972Y-82949698D02*
X125367639Y-82632155D01*
X125363173Y-82557753D01*
X125404241Y-82495552D01*
X125519711Y-82428886D01*
X125594113Y-82424420D01*
X125534305Y-82920830D02*
X125608707Y-82916364D01*
X125753045Y-82833031D01*
X125794113Y-82770830D01*
X125789647Y-82696428D01*
X125756314Y-82638693D01*
X125694113Y-82597625D01*
X125619711Y-82602091D01*
X125475374Y-82685424D01*
X125400972Y-82689890D01*
X125262297Y-83116364D02*
X124912297Y-82510146D01*
X125045630Y-82741087D02*
X124971229Y-82745552D01*
X124855759Y-82812219D01*
X124814690Y-82874420D01*
X124802489Y-82919954D01*
X124806955Y-82994356D01*
X124906955Y-83167561D01*
X124969156Y-83208629D01*
X125014690Y-83220830D01*
X125089092Y-83216364D01*
X125204562Y-83149698D01*
X125245630Y-83087497D01*
X124713814Y-83433031D02*
X124480481Y-83028886D01*
X124547148Y-83144356D02*
X124484947Y-83103287D01*
X124439413Y-83091087D01*
X124365011Y-83095552D01*
X124307276Y-83128886D01*
X124338537Y-83649698D02*
X124105203Y-83245552D01*
X123988537Y-83043480D02*
X124034071Y-83055681D01*
X124021870Y-83101215D01*
X123976336Y-83089014D01*
X123988537Y-83043480D01*
X124021870Y-83101215D01*
X123802255Y-83920830D02*
X123876656Y-83916364D01*
X123992126Y-83849698D01*
X124033195Y-83787497D01*
X124028729Y-83713095D01*
X123895396Y-83482155D01*
X123833195Y-83441087D01*
X123758793Y-83445552D01*
X123643323Y-83512219D01*
X123602255Y-83574420D01*
X123606720Y-83648822D01*
X123640054Y-83706557D01*
X123962062Y-83597625D01*
X123443644Y-84166364D02*
X123484712Y-84104163D01*
X123480246Y-84029762D01*
X123180246Y-83510146D01*
X122750823Y-84566364D02*
X122400823Y-83960146D01*
X122404413Y-84766364D01*
X122054413Y-84160146D01*
X121622597Y-84678886D02*
X121855930Y-85083031D01*
X121882405Y-84528886D02*
X122065738Y-84846428D01*
X122070204Y-84920830D01*
X122029135Y-84983031D01*
X121942533Y-85033031D01*
X121868131Y-85037497D01*
X121822597Y-85025296D01*
X121579456Y-85204163D02*
X121538388Y-85266364D01*
X121422918Y-85333031D01*
X121348516Y-85337497D01*
X121286315Y-85296428D01*
X121269649Y-85267561D01*
X121265183Y-85193159D01*
X121306251Y-85130958D01*
X121392854Y-85080958D01*
X121433922Y-85018757D01*
X121429456Y-84944356D01*
X121412789Y-84915488D01*
X121350589Y-84874420D01*
X121276187Y-84878886D01*
X121189584Y-84928886D01*
X121148516Y-84991087D01*
X121088708Y-85487497D02*
X121047640Y-85549698D01*
X120932170Y-85616364D01*
X120857768Y-85620830D01*
X120795567Y-85579762D01*
X120778901Y-85550894D01*
X120774435Y-85476492D01*
X120815503Y-85414292D01*
X120902106Y-85364292D01*
X120943174Y-85302091D01*
X120938708Y-85227689D01*
X120922042Y-85198822D01*
X120859841Y-85157753D01*
X120785439Y-85162219D01*
X120698837Y-85212219D01*
X120657768Y-85274420D01*
X120585760Y-85816364D02*
X120235760Y-85210146D01*
X120369093Y-85441087D02*
X120294691Y-85445552D01*
X120179221Y-85512219D01*
X120138153Y-85574420D01*
X120125952Y-85619954D01*
X120130418Y-85694356D01*
X120230418Y-85867561D01*
X120292619Y-85908629D01*
X120338153Y-85920830D01*
X120412555Y-85916364D01*
X120528025Y-85849698D01*
X120569093Y-85787497D01*
X119777469Y-86283031D02*
X119594136Y-85965488D01*
X119589670Y-85891087D01*
X119630739Y-85828886D01*
X119746209Y-85762219D01*
X119820610Y-85757753D01*
X119760803Y-86254163D02*
X119835204Y-86249698D01*
X119979542Y-86166364D01*
X120020610Y-86104163D01*
X120016145Y-86029762D01*
X119982811Y-85972027D01*
X119920610Y-85930958D01*
X119846209Y-85935424D01*
X119701871Y-86018757D01*
X119627469Y-86023223D01*
X118995653Y-86195552D02*
X119228987Y-86599698D01*
X119255461Y-86045552D02*
X119438794Y-86363095D01*
X119443260Y-86437497D01*
X119402192Y-86499698D01*
X119315589Y-86549698D01*
X119241188Y-86554163D01*
X119195653Y-86541963D01*
X118940312Y-86766364D02*
X118706978Y-86362219D01*
X118740312Y-86419954D02*
X118694777Y-86407753D01*
X118620376Y-86412219D01*
X118533773Y-86462219D01*
X118492705Y-86524420D01*
X118497171Y-86598822D01*
X118680504Y-86916364D01*
X118497171Y-86598822D02*
X118434970Y-86557753D01*
X118360568Y-86562219D01*
X118273966Y-86612219D01*
X118232897Y-86674420D01*
X118237363Y-86748822D01*
X118420696Y-87066364D01*
X117884414Y-87337497D02*
X117958816Y-87333031D01*
X118074286Y-87266364D01*
X118115355Y-87204163D01*
X118110889Y-87129762D01*
X117977555Y-86898822D01*
X117915355Y-86857753D01*
X117840953Y-86862219D01*
X117725483Y-86928886D01*
X117684414Y-86991087D01*
X117688880Y-87065488D01*
X117722214Y-87123223D01*
X118044222Y-87014292D01*
X117612406Y-87533031D02*
X117379073Y-87128886D01*
X117445739Y-87244356D02*
X117383538Y-87203287D01*
X117338004Y-87191087D01*
X117263603Y-87195552D01*
X117205868Y-87228886D01*
D11*
X143806533Y-132319841D02*
X143886202Y-132249195D01*
X144024191Y-132212221D01*
X144174505Y-132221243D01*
X144291148Y-132288587D01*
X144361793Y-132368255D01*
X144457089Y-132539916D01*
X144494063Y-132677906D01*
X144497365Y-132874216D01*
X144476018Y-132978534D01*
X144408675Y-133095176D01*
X144283010Y-133178147D01*
X144191017Y-133202796D01*
X144040703Y-133193774D01*
X143982382Y-133160102D01*
X143896109Y-132838127D01*
X144080095Y-132788828D01*
X143593063Y-133363018D02*
X143334244Y-132397092D01*
X143041105Y-133510914D01*
X142782286Y-132544988D01*
X142581141Y-133634161D02*
X142322322Y-132668236D01*
X142092339Y-132729859D01*
X141966675Y-132812830D01*
X141899331Y-132929472D01*
X141877984Y-133033790D01*
X141881287Y-133230100D01*
X141918261Y-133368090D01*
X142013556Y-133539751D01*
X142084202Y-133619419D01*
X142200844Y-133686763D01*
X142351158Y-133695785D01*
X142581141Y-133634161D01*
X150742251Y-130521741D02*
X151202216Y-130398494D01*
X151371459Y-130846134D01*
X151313138Y-130812462D01*
X151208821Y-130791115D01*
X150978838Y-130852739D01*
X150899170Y-130923385D01*
X150865498Y-130981706D01*
X150844151Y-131086024D01*
X150905775Y-131316006D01*
X150976421Y-131395674D01*
X151034742Y-131429346D01*
X151139060Y-131450693D01*
X151369042Y-131389069D01*
X151448710Y-131318423D01*
X151482382Y-131260102D01*
X150420276Y-130608014D02*
X150357120Y-131660213D01*
X149776325Y-130780560D01*
D12*
X145206096Y-133886311D02*
X144517638Y-131316948D01*
X147717504Y-133213382D02*
X145206096Y-133886311D01*
X147029045Y-130644019D02*
X144517638Y-131316948D01*
X147717504Y-133213382D02*
X147029045Y-130644019D01*
X148944229Y-132884681D02*
X150228911Y-132540452D01*
X150228911Y-132540452D02*
X149884681Y-131255771D01*
D11*
X145180241Y-129284768D02*
X145365111Y-129974715D01*
X145448082Y-130100380D01*
X145564724Y-130167723D01*
X145715038Y-130176746D01*
X145807031Y-130152096D01*
X144473134Y-130509513D02*
X145025091Y-130361616D01*
X144749113Y-130435565D02*
X144490294Y-129469639D01*
X144619261Y-129582979D01*
X144735903Y-129650322D01*
X144840221Y-129671669D01*
%LPC*%
D13*
X156347996Y-121190225D03*
D14*
X156122729Y-121032491D02*
X156573263Y-121347959D01*
D13*
X160621141Y-115087542D03*
D14*
X160395874Y-114929808D02*
X160846408Y-115245276D01*
D15*
X159374738Y-123492688D03*
D16*
X159108514Y-123306276D02*
X159640962Y-123679100D01*
D15*
X163819955Y-117144260D03*
D16*
X163553731Y-116957848D02*
X164086179Y-117330672D01*
D17*
X157910737Y-120789019D03*
D18*
X157910737Y-120789019D02*
X157910737Y-120789019D01*
D17*
X160778619Y-116693259D03*
D18*
X160778619Y-116693259D02*
X160778619Y-116693259D01*
D19*
X148600000Y-131600000D03*
D20*
G36*
X149703495Y-132237103D02*
G01*
X147962897Y-132703495D01*
X147496505Y-130962897D01*
X149237103Y-130496505D01*
X149703495Y-132237103D01*
X149703495Y-132237103D01*
G37*
D19*
X146146548Y-132257400D03*
D21*
X146146548Y-132257400D02*
X146146548Y-132257400D01*
D22*
X147853518Y-128238963D03*
X146546482Y-123361037D03*
D19*
X157000000Y-93500000D03*
D20*
G36*
X157000000Y-94774206D02*
G01*
X155725794Y-93500000D01*
X157000000Y-92225794D01*
X158274206Y-93500000D01*
X157000000Y-94774206D01*
X157000000Y-94774206D01*
G37*
D19*
X158796051Y-95296051D03*
D21*
X158796051Y-95296051D02*
X158796051Y-95296051D01*
D19*
X160592102Y-97092102D03*
D21*
X160592102Y-97092102D02*
X160592102Y-97092102D01*
D19*
X162388154Y-98888154D03*
D21*
X162388154Y-98888154D02*
X162388154Y-98888154D01*
D19*
X143300000Y-79800000D03*
D20*
G36*
X143300000Y-81074206D02*
G01*
X142025794Y-79800000D01*
X143300000Y-78525794D01*
X144574206Y-79800000D01*
X143300000Y-81074206D01*
X143300000Y-81074206D01*
G37*
D19*
X141503949Y-81596051D03*
D21*
X141503949Y-81596051D02*
X141503949Y-81596051D01*
D19*
X145096051Y-81596051D03*
D21*
X145096051Y-81596051D02*
X145096051Y-81596051D01*
D19*
X143300000Y-83392102D03*
D21*
X143300000Y-83392102D02*
X143300000Y-83392102D01*
D19*
X146892102Y-83392102D03*
D21*
X146892102Y-83392102D02*
X146892102Y-83392102D01*
D19*
X145096051Y-85188154D03*
D21*
X145096051Y-85188154D02*
X145096051Y-85188154D01*
D19*
X148688154Y-85188154D03*
D21*
X148688154Y-85188154D02*
X148688154Y-85188154D01*
D19*
X146892102Y-86984205D03*
D21*
X146892102Y-86984205D02*
X146892102Y-86984205D01*
D19*
X150484205Y-86984205D03*
D21*
X150484205Y-86984205D02*
X150484205Y-86984205D01*
D19*
X148688154Y-88780256D03*
D21*
X148688154Y-88780256D02*
X148688154Y-88780256D01*
D19*
X152280256Y-88780256D03*
D21*
X152280256Y-88780256D02*
X152280256Y-88780256D01*
D19*
X150484205Y-90576307D03*
D21*
X150484205Y-90576307D02*
X150484205Y-90576307D01*
D19*
X154500000Y-125300000D03*
D20*
G36*
X153269211Y-124970211D02*
G01*
X154829789Y-124069211D01*
X155730789Y-125629789D01*
X154170211Y-126530789D01*
X153269211Y-124970211D01*
X153269211Y-124970211D01*
G37*
D19*
X152300295Y-126570000D03*
D21*
X152300295Y-126570000D02*
X152300295Y-126570000D01*
D23*
X114000000Y-105000000D03*
X166000000Y-105000000D03*
D17*
X163314990Y-108325010D03*
X160190000Y-111960000D03*
X130500000Y-120700000D03*
X119400000Y-101000000D03*
X141400000Y-121600000D03*
X129410000Y-113090000D03*
X124460000Y-108260000D03*
X155400000Y-114000000D03*
X158100000Y-114000000D03*
X157400000Y-114800000D03*
X155825000Y-115199999D03*
X152312652Y-106660000D03*
X147327653Y-104197653D03*
X149610102Y-104439898D03*
X153250000Y-102680000D03*
X143400000Y-111800000D03*
X140730000Y-111800000D03*
X153762653Y-107237347D03*
X151050000Y-107160000D03*
X148024847Y-107424847D03*
X149400000Y-108300000D03*
X144800000Y-106900000D03*
X147300000Y-100240000D03*
X134450000Y-110610000D03*
X121900000Y-122260000D03*
X131930000Y-105950000D03*
X130970000Y-105130000D03*
X128230000Y-102460000D03*
X127360000Y-101560000D03*
X126420000Y-100680000D03*
X135300000Y-108182231D03*
X155700000Y-112600000D03*
X163400000Y-111000000D03*
X158100000Y-116000000D03*
X118148942Y-97351058D03*
X161060000Y-102600000D03*
X163320000Y-109500000D03*
X116800000Y-101400000D03*
X140300000Y-123000000D03*
X144400000Y-118600000D03*
X144100000Y-121400000D03*
X119990000Y-104720000D03*
X133140000Y-83210000D03*
X117200000Y-109650000D03*
X121880000Y-114280000D03*
X117400000Y-119200000D03*
M02*
