G04 #@! TF.GenerationSoftware,KiCad,Pcbnew,(5.1.4)-1*
G04 #@! TF.CreationDate,2020-04-17T22:35:52+02:00*
G04 #@! TF.ProjectId,Sensorbaustein,53656e73-6f72-4626-9175-737465696e2e,1.7*
G04 #@! TF.SameCoordinates,Original*
G04 #@! TF.FileFunction,Copper,L4,Bot*
G04 #@! TF.FilePolarity,Positive*
%FSLAX46Y46*%
G04 Gerber Fmt 4.6, Leading zero omitted, Abs format (unit mm)*
G04 Created by KiCad (PCBNEW (5.1.4)-1) date 2020-04-17 22:35:52*
%MOMM*%
%LPD*%
G04 APERTURE LIST*
%ADD10C,1.450000*%
%ADD11C,1.450000*%
%ADD12C,1.150000*%
%ADD13C,1.150000*%
%ADD14C,1.700000*%
%ADD15C,0.100000*%
%ADD16C,1.700000*%
%ADD17C,1.210000*%
%ADD18C,0.800000*%
%ADD19C,0.250000*%
G04 APERTURE END LIST*
D10*
X156347996Y-121190225D03*
D11*
X156122729Y-121032491D02*
X156573263Y-121347959D01*
D10*
X160621141Y-115087542D03*
D11*
X160395874Y-114929808D02*
X160846408Y-115245276D01*
D12*
X159374738Y-123492688D03*
D13*
X159108514Y-123306276D02*
X159640962Y-123679100D01*
D12*
X163819955Y-117144260D03*
D13*
X163553731Y-116957848D02*
X164086179Y-117330672D01*
D14*
X148600000Y-131600000D03*
D15*
G36*
X149641033Y-132201041D02*
G01*
X147998959Y-132641033D01*
X147558967Y-130998959D01*
X149201041Y-130558967D01*
X149641033Y-132201041D01*
X149641033Y-132201041D01*
G37*
D14*
X146146548Y-132257400D03*
D16*
X146146548Y-132257400D02*
X146146548Y-132257400D01*
D17*
X147853518Y-128238963D03*
X146546482Y-123361037D03*
D14*
X157000000Y-93500000D03*
D15*
G36*
X157000000Y-94702082D02*
G01*
X155797918Y-93500000D01*
X157000000Y-92297918D01*
X158202082Y-93500000D01*
X157000000Y-94702082D01*
X157000000Y-94702082D01*
G37*
D14*
X158796051Y-95296051D03*
D16*
X158796051Y-95296051D02*
X158796051Y-95296051D01*
D14*
X160592102Y-97092102D03*
D16*
X160592102Y-97092102D02*
X160592102Y-97092102D01*
D14*
X162388154Y-98888154D03*
D16*
X162388154Y-98888154D02*
X162388154Y-98888154D01*
D14*
X143300000Y-79800000D03*
D15*
G36*
X143300000Y-81002082D02*
G01*
X142097918Y-79800000D01*
X143300000Y-78597918D01*
X144502082Y-79800000D01*
X143300000Y-81002082D01*
X143300000Y-81002082D01*
G37*
D14*
X141503949Y-81596051D03*
D16*
X141503949Y-81596051D02*
X141503949Y-81596051D01*
D14*
X145096051Y-81596051D03*
D16*
X145096051Y-81596051D02*
X145096051Y-81596051D01*
D14*
X143300000Y-83392102D03*
D16*
X143300000Y-83392102D02*
X143300000Y-83392102D01*
D14*
X146892102Y-83392102D03*
D16*
X146892102Y-83392102D02*
X146892102Y-83392102D01*
D14*
X145096051Y-85188154D03*
D16*
X145096051Y-85188154D02*
X145096051Y-85188154D01*
D14*
X148688154Y-85188154D03*
D16*
X148688154Y-85188154D02*
X148688154Y-85188154D01*
D14*
X146892102Y-86984205D03*
D16*
X146892102Y-86984205D02*
X146892102Y-86984205D01*
D14*
X150484205Y-86984205D03*
D16*
X150484205Y-86984205D02*
X150484205Y-86984205D01*
D14*
X148688154Y-88780256D03*
D16*
X148688154Y-88780256D02*
X148688154Y-88780256D01*
D14*
X152280256Y-88780256D03*
D16*
X152280256Y-88780256D02*
X152280256Y-88780256D01*
D14*
X150484205Y-90576307D03*
D16*
X150484205Y-90576307D02*
X150484205Y-90576307D01*
D14*
X154500000Y-125300000D03*
D15*
G36*
X153338878Y-124988878D02*
G01*
X154811122Y-124138878D01*
X155661122Y-125611122D01*
X154188878Y-126461122D01*
X153338878Y-124988878D01*
X153338878Y-124988878D01*
G37*
D14*
X152300295Y-126570000D03*
D16*
X152300295Y-126570000D02*
X152300295Y-126570000D01*
D18*
X163314990Y-108325010D03*
X160190000Y-111960000D03*
X130500000Y-120700000D03*
X119400000Y-101000000D03*
X141400000Y-121600000D03*
X129410000Y-113090000D03*
X124460000Y-108260000D03*
X155400000Y-114000000D03*
X158100000Y-114000000D03*
X157400000Y-114800000D03*
X155825000Y-115199999D03*
X152312652Y-106660000D03*
X147327653Y-104197653D03*
X149610102Y-104439898D03*
X153250000Y-102680000D03*
X143400000Y-111800000D03*
X140730000Y-111800000D03*
X153762653Y-107237347D03*
X151050000Y-107160000D03*
X148024847Y-107424847D03*
X149400000Y-108300000D03*
X144800000Y-106900000D03*
X147300000Y-100240000D03*
X134450000Y-110610000D03*
X121900000Y-122260000D03*
X131930000Y-105950000D03*
X130970000Y-105130000D03*
X128230000Y-102460000D03*
X127360000Y-101560000D03*
X126420000Y-100680000D03*
X135300000Y-108182231D03*
X155700000Y-112600000D03*
X163400000Y-111000000D03*
X158100000Y-116000000D03*
X118148942Y-97351058D03*
X161060000Y-102600000D03*
X163320000Y-109500000D03*
X116800000Y-101400000D03*
X140300000Y-123000000D03*
X144400000Y-118600000D03*
X144100000Y-121400000D03*
X119990000Y-104720000D03*
X133140000Y-83210000D03*
X117200000Y-109650000D03*
X121880000Y-114280000D03*
X117400000Y-119200000D03*
D19*
X155400000Y-114000000D02*
X158100000Y-114000000D01*
X158100000Y-114000000D02*
X158125001Y-114025001D01*
X157000001Y-115199999D02*
X156100001Y-115199999D01*
X157400000Y-114800000D02*
X157000001Y-115199999D01*
X156100001Y-115199999D02*
X155825000Y-115199999D01*
X152312652Y-106094315D02*
X155430000Y-102976967D01*
X152312652Y-106660000D02*
X152312652Y-106094315D01*
X155430000Y-102254204D02*
X160592102Y-97092102D01*
X155430000Y-102976967D02*
X155430000Y-102254204D01*
X156229255Y-95296051D02*
X158796051Y-95296051D01*
X147327653Y-104197653D02*
X156229255Y-95296051D01*
X150175787Y-104439898D02*
X151925685Y-102690000D01*
X149610102Y-104439898D02*
X150175787Y-104439898D01*
X151925685Y-102690000D02*
X153240000Y-102690000D01*
X153240000Y-102690000D02*
X153250000Y-102680000D01*
X143300000Y-111900000D02*
X143400000Y-111800000D01*
X143280000Y-111680000D02*
X143400000Y-111800000D01*
X143400000Y-111800000D02*
X140730000Y-111800000D01*
X152265685Y-107400000D02*
X153600000Y-107400000D01*
X153600000Y-107400000D02*
X153762653Y-107237347D01*
X152265685Y-107400000D02*
X151290000Y-107400000D01*
X151290000Y-107400000D02*
X151050000Y-107160000D01*
X148424846Y-107824846D02*
X148924846Y-107824846D01*
X148024847Y-107424847D02*
X148424846Y-107824846D01*
X148924846Y-107824846D02*
X149400000Y-108300000D01*
X147300000Y-101875000D02*
X147300000Y-103200000D01*
X147300000Y-103200000D02*
X144800000Y-105700000D01*
X144800000Y-105700000D02*
X144800000Y-106900000D01*
X147300000Y-101875000D02*
X147300000Y-100240000D01*
X134450000Y-110610000D02*
X134450000Y-111510000D01*
X134450000Y-111510000D02*
X134450000Y-111810000D01*
X134450000Y-111810000D02*
X131160000Y-115100000D01*
X131160000Y-115100000D02*
X131160000Y-115730000D01*
X131160000Y-115730000D02*
X124630000Y-122260000D01*
X124630000Y-122260000D02*
X121900000Y-122260000D01*
X132329999Y-105550001D02*
X133219999Y-105550001D01*
X131930000Y-105950000D02*
X132329999Y-105550001D01*
X152280256Y-89982337D02*
X152280256Y-88780256D01*
X152280256Y-90519258D02*
X152280256Y-89982337D01*
X151048206Y-91751308D02*
X152280256Y-90519258D01*
X147018692Y-91751308D02*
X151048206Y-91751308D01*
X133219999Y-105550001D02*
X147018692Y-91751308D01*
X131369999Y-104730001D02*
X132029999Y-104730001D01*
X130970000Y-105130000D02*
X131369999Y-104730001D01*
X149252155Y-89955257D02*
X150484205Y-88723207D01*
X150484205Y-88723207D02*
X150484205Y-88186286D01*
X148124153Y-89955257D02*
X149252155Y-89955257D01*
X147838896Y-89670000D02*
X148124153Y-89955257D01*
X150484205Y-88186286D02*
X150484205Y-86984205D01*
X147090000Y-89670000D02*
X147838896Y-89670000D01*
X132029999Y-104730001D02*
X147090000Y-89670000D01*
X148688154Y-86927155D02*
X148688154Y-85188154D01*
X128230000Y-102460000D02*
X133155309Y-102460000D01*
X133155309Y-102460000D02*
X148688154Y-86927155D01*
X146892102Y-84594183D02*
X146892102Y-83392102D01*
X146892102Y-85131105D02*
X146892102Y-84594183D01*
X130463207Y-101560000D02*
X146892102Y-85131105D01*
X127360000Y-101560000D02*
X130463207Y-101560000D01*
X126420000Y-100680000D02*
X138554142Y-88545858D01*
X145096051Y-82798132D02*
X145096051Y-81596051D01*
X145096051Y-83335053D02*
X145096051Y-82798132D01*
X139885246Y-88545858D02*
X145096051Y-83335053D01*
X138554142Y-88545858D02*
X139885246Y-88545858D01*
M02*
