G04 #@! TF.GenerationSoftware,KiCad,Pcbnew,(5.1.4)-1*
G04 #@! TF.CreationDate,2020-04-17T22:35:52+02:00*
G04 #@! TF.ProjectId,Sensorbaustein,53656e73-6f72-4626-9175-737465696e2e,1.7*
G04 #@! TF.SameCoordinates,Original*
G04 #@! TF.FileFunction,Soldermask,Bot*
G04 #@! TF.FilePolarity,Negative*
%FSLAX46Y46*%
G04 Gerber Fmt 4.6, Leading zero omitted, Abs format (unit mm)*
G04 Created by KiCad (PCBNEW (5.1.4)-1) date 2020-04-17 22:35:52*
%MOMM*%
%LPD*%
G04 APERTURE LIST*
%ADD10C,0.100000*%
G04 APERTURE END LIST*
D10*
G36*
X146256991Y-131362919D02*
G01*
X146323175Y-131369437D01*
X146493014Y-131420957D01*
X146649539Y-131504622D01*
X146685277Y-131533952D01*
X146786734Y-131617214D01*
X146869996Y-131718671D01*
X146899326Y-131754409D01*
X146982991Y-131910934D01*
X147034511Y-132080773D01*
X147051907Y-132257400D01*
X147034511Y-132434027D01*
X146982991Y-132603866D01*
X146899326Y-132760391D01*
X146869996Y-132796129D01*
X146786734Y-132897586D01*
X146685277Y-132980848D01*
X146649539Y-133010178D01*
X146493014Y-133093843D01*
X146323175Y-133145363D01*
X146256991Y-133151881D01*
X146190808Y-133158400D01*
X146102288Y-133158400D01*
X146036105Y-133151881D01*
X145969921Y-133145363D01*
X145800082Y-133093843D01*
X145643557Y-133010178D01*
X145607819Y-132980848D01*
X145506362Y-132897586D01*
X145423100Y-132796129D01*
X145393770Y-132760391D01*
X145310105Y-132603866D01*
X145258585Y-132434027D01*
X145241189Y-132257400D01*
X145258585Y-132080773D01*
X145310105Y-131910934D01*
X145393770Y-131754409D01*
X145423100Y-131718671D01*
X145506362Y-131617214D01*
X145607819Y-131533952D01*
X145643557Y-131504622D01*
X145800082Y-131420957D01*
X145969921Y-131369437D01*
X146036105Y-131362919D01*
X146102288Y-131356400D01*
X146190808Y-131356400D01*
X146256991Y-131362919D01*
X146256991Y-131362919D01*
G37*
G36*
X149703495Y-132237103D02*
G01*
X147962897Y-132703495D01*
X147496505Y-130962897D01*
X149237103Y-130496505D01*
X149703495Y-132237103D01*
X149703495Y-132237103D01*
G37*
G36*
X148044865Y-127608172D02*
G01*
X148164252Y-127657624D01*
X148271691Y-127729412D01*
X148363069Y-127820790D01*
X148434857Y-127928229D01*
X148484309Y-128047616D01*
X148509518Y-128174351D01*
X148509518Y-128303575D01*
X148484309Y-128430310D01*
X148434857Y-128549697D01*
X148363069Y-128657136D01*
X148271691Y-128748514D01*
X148164252Y-128820302D01*
X148044865Y-128869754D01*
X147918130Y-128894963D01*
X147788906Y-128894963D01*
X147662171Y-128869754D01*
X147542784Y-128820302D01*
X147435345Y-128748514D01*
X147343967Y-128657136D01*
X147272179Y-128549697D01*
X147222727Y-128430310D01*
X147197518Y-128303575D01*
X147197518Y-128174351D01*
X147222727Y-128047616D01*
X147272179Y-127928229D01*
X147343967Y-127820790D01*
X147435345Y-127729412D01*
X147542784Y-127657624D01*
X147662171Y-127608172D01*
X147788906Y-127582963D01*
X147918130Y-127582963D01*
X148044865Y-127608172D01*
X148044865Y-127608172D01*
G37*
G36*
X152410737Y-125675518D02*
G01*
X152476922Y-125682037D01*
X152646761Y-125733557D01*
X152803286Y-125817222D01*
X152839024Y-125846552D01*
X152940481Y-125929814D01*
X153023743Y-126031271D01*
X153053073Y-126067009D01*
X153136738Y-126223534D01*
X153188258Y-126393373D01*
X153205654Y-126570000D01*
X153188258Y-126746627D01*
X153136738Y-126916466D01*
X153053073Y-127072991D01*
X153023743Y-127108729D01*
X152940481Y-127210186D01*
X152839024Y-127293448D01*
X152803286Y-127322778D01*
X152646761Y-127406443D01*
X152476922Y-127457963D01*
X152410738Y-127464481D01*
X152344555Y-127471000D01*
X152256035Y-127471000D01*
X152189852Y-127464481D01*
X152123668Y-127457963D01*
X151953829Y-127406443D01*
X151797304Y-127322778D01*
X151761566Y-127293448D01*
X151660109Y-127210186D01*
X151576847Y-127108729D01*
X151547517Y-127072991D01*
X151463852Y-126916466D01*
X151412332Y-126746627D01*
X151394936Y-126570000D01*
X151412332Y-126393373D01*
X151463852Y-126223534D01*
X151547517Y-126067009D01*
X151576847Y-126031271D01*
X151660109Y-125929814D01*
X151761566Y-125846552D01*
X151797304Y-125817222D01*
X151953829Y-125733557D01*
X152123668Y-125682037D01*
X152189853Y-125675518D01*
X152256035Y-125669000D01*
X152344555Y-125669000D01*
X152410737Y-125675518D01*
X152410737Y-125675518D01*
G37*
G36*
X155730790Y-125629789D02*
G01*
X154170211Y-126530790D01*
X153269210Y-124970211D01*
X154829789Y-124069210D01*
X155730790Y-125629789D01*
X155730790Y-125629789D01*
G37*
G36*
X159244657Y-122692158D02*
G01*
X159361853Y-122730520D01*
X159442390Y-122775854D01*
X160025207Y-123183947D01*
X160095349Y-123244119D01*
X160148227Y-123311497D01*
X160171479Y-123341123D01*
X160227221Y-123451115D01*
X160260433Y-123569870D01*
X160268229Y-123671769D01*
X160269840Y-123692825D01*
X160255080Y-123815243D01*
X160216718Y-123932439D01*
X160156232Y-124039894D01*
X160075941Y-124133488D01*
X160046755Y-124156393D01*
X159978938Y-124209617D01*
X159868946Y-124265359D01*
X159750191Y-124298571D01*
X159627239Y-124307978D01*
X159627236Y-124307978D01*
X159504818Y-124293218D01*
X159387618Y-124254855D01*
X159307094Y-124209527D01*
X159307090Y-124209524D01*
X159307086Y-124209522D01*
X159057064Y-124034454D01*
X158724269Y-123801429D01*
X158654128Y-123741258D01*
X158599593Y-123671769D01*
X158577997Y-123644252D01*
X158522255Y-123534260D01*
X158489043Y-123415505D01*
X158479636Y-123292554D01*
X158479636Y-123292551D01*
X158494396Y-123170133D01*
X158532758Y-123052937D01*
X158593244Y-122945482D01*
X158673535Y-122851888D01*
X158726748Y-122810127D01*
X158770538Y-122775759D01*
X158880530Y-122720017D01*
X158999285Y-122686805D01*
X159122236Y-122677398D01*
X159122239Y-122677398D01*
X159244657Y-122692158D01*
X159244657Y-122692158D01*
G37*
G36*
X146737829Y-122730246D02*
G01*
X146830169Y-122768495D01*
X146847707Y-122775759D01*
X146857216Y-122779698D01*
X146964655Y-122851486D01*
X147056033Y-122942864D01*
X147127821Y-123050303D01*
X147127822Y-123050305D01*
X147139024Y-123077350D01*
X147177273Y-123169690D01*
X147202482Y-123296425D01*
X147202482Y-123425649D01*
X147177273Y-123552384D01*
X147127821Y-123671771D01*
X147056033Y-123779210D01*
X146964655Y-123870588D01*
X146857216Y-123942376D01*
X146737829Y-123991828D01*
X146611094Y-124017037D01*
X146481870Y-124017037D01*
X146355135Y-123991828D01*
X146235748Y-123942376D01*
X146128309Y-123870588D01*
X146036931Y-123779210D01*
X145965143Y-123671771D01*
X145915691Y-123552384D01*
X145890482Y-123425649D01*
X145890482Y-123296425D01*
X145915691Y-123169690D01*
X145953940Y-123077350D01*
X145965142Y-123050305D01*
X145965143Y-123050303D01*
X146036931Y-122942864D01*
X146128309Y-122851486D01*
X146235748Y-122779698D01*
X146245258Y-122775759D01*
X146262795Y-122768495D01*
X146355135Y-122730246D01*
X146481870Y-122705037D01*
X146611094Y-122705037D01*
X146737829Y-122730246D01*
X146737829Y-122730246D01*
G37*
G36*
X140431552Y-122566331D02*
G01*
X140513627Y-122600328D01*
X140513629Y-122600329D01*
X140587496Y-122649686D01*
X140650314Y-122712504D01*
X140695212Y-122779697D01*
X140699672Y-122786373D01*
X140733669Y-122868448D01*
X140751000Y-122955579D01*
X140751000Y-123044421D01*
X140733669Y-123131552D01*
X140711966Y-123183947D01*
X140699671Y-123213629D01*
X140650314Y-123287496D01*
X140587496Y-123350314D01*
X140513629Y-123399671D01*
X140513628Y-123399672D01*
X140513627Y-123399672D01*
X140431552Y-123433669D01*
X140344421Y-123451000D01*
X140255579Y-123451000D01*
X140168448Y-123433669D01*
X140086373Y-123399672D01*
X140086372Y-123399672D01*
X140086371Y-123399671D01*
X140012504Y-123350314D01*
X139949686Y-123287496D01*
X139900329Y-123213629D01*
X139888034Y-123183947D01*
X139866331Y-123131552D01*
X139849000Y-123044421D01*
X139849000Y-122955579D01*
X139866331Y-122868448D01*
X139900328Y-122786373D01*
X139904789Y-122779697D01*
X139949686Y-122712504D01*
X140012504Y-122649686D01*
X140086371Y-122600329D01*
X140086373Y-122600328D01*
X140168448Y-122566331D01*
X140255579Y-122549000D01*
X140344421Y-122549000D01*
X140431552Y-122566331D01*
X140431552Y-122566331D01*
G37*
G36*
X122031552Y-121826331D02*
G01*
X122091107Y-121851000D01*
X122113629Y-121860329D01*
X122187496Y-121909686D01*
X122250314Y-121972504D01*
X122291184Y-122033669D01*
X122299672Y-122046373D01*
X122333669Y-122128448D01*
X122351000Y-122215579D01*
X122351000Y-122304421D01*
X122333669Y-122391552D01*
X122299672Y-122473627D01*
X122299671Y-122473629D01*
X122250314Y-122547496D01*
X122187496Y-122610314D01*
X122113629Y-122659671D01*
X122113628Y-122659672D01*
X122113627Y-122659672D01*
X122031552Y-122693669D01*
X121944421Y-122711000D01*
X121855579Y-122711000D01*
X121768448Y-122693669D01*
X121686373Y-122659672D01*
X121686372Y-122659672D01*
X121686371Y-122659671D01*
X121612504Y-122610314D01*
X121549686Y-122547496D01*
X121500329Y-122473629D01*
X121500328Y-122473627D01*
X121466331Y-122391552D01*
X121449000Y-122304421D01*
X121449000Y-122215579D01*
X121466331Y-122128448D01*
X121500328Y-122046373D01*
X121508817Y-122033669D01*
X121549686Y-121972504D01*
X121612504Y-121909686D01*
X121686371Y-121860329D01*
X121708893Y-121851000D01*
X121768448Y-121826331D01*
X121855579Y-121809000D01*
X121944421Y-121809000D01*
X122031552Y-121826331D01*
X122031552Y-121826331D01*
G37*
G36*
X156291501Y-120271221D02*
G01*
X156436768Y-120318772D01*
X156536602Y-120374968D01*
X156536603Y-120374969D01*
X157001666Y-120700609D01*
X157049584Y-120734162D01*
X157136530Y-120808750D01*
X157234679Y-120933812D01*
X157241303Y-120944209D01*
X157258248Y-120961910D01*
X157278321Y-120975965D01*
X157300750Y-120985834D01*
X157324673Y-120991137D01*
X157349171Y-120991672D01*
X157373303Y-120987416D01*
X157396141Y-120978535D01*
X157416807Y-120965369D01*
X157434508Y-120948424D01*
X157448563Y-120928351D01*
X157458432Y-120905922D01*
X157463735Y-120881999D01*
X157464032Y-120854785D01*
X157457555Y-120789019D01*
X157466262Y-120700609D01*
X157492051Y-120615593D01*
X157533930Y-120537244D01*
X157590288Y-120468570D01*
X157658962Y-120412212D01*
X157737311Y-120370333D01*
X157822327Y-120344544D01*
X157888579Y-120338019D01*
X157932895Y-120338019D01*
X157999147Y-120344544D01*
X158084163Y-120370333D01*
X158162512Y-120412212D01*
X158231186Y-120468570D01*
X158287544Y-120537244D01*
X158329423Y-120615593D01*
X158355212Y-120700609D01*
X158363919Y-120789019D01*
X158355212Y-120877429D01*
X158329423Y-120962445D01*
X158287544Y-121040794D01*
X158231186Y-121109468D01*
X158162512Y-121165826D01*
X158084163Y-121207705D01*
X157999147Y-121233494D01*
X157932895Y-121240019D01*
X157888579Y-121240019D01*
X157822327Y-121233494D01*
X157737311Y-121207705D01*
X157658962Y-121165826D01*
X157590288Y-121109468D01*
X157545766Y-121055216D01*
X157528439Y-121037889D01*
X157508065Y-121024275D01*
X157485426Y-121014898D01*
X157461393Y-121010117D01*
X157436889Y-121010117D01*
X157412856Y-121014897D01*
X157390217Y-121024274D01*
X157369842Y-121037888D01*
X157352515Y-121055215D01*
X157338901Y-121075589D01*
X157329524Y-121098228D01*
X157324743Y-121122261D01*
X157324743Y-121146765D01*
X157328760Y-121168182D01*
X157341171Y-121212558D01*
X157348817Y-121312504D01*
X157352113Y-121355580D01*
X157352831Y-121364972D01*
X157334533Y-121516731D01*
X157292124Y-121646288D01*
X157286980Y-121662003D01*
X157237269Y-121750315D01*
X157211998Y-121795209D01*
X157112472Y-121911226D01*
X157062664Y-121950315D01*
X156992224Y-122005597D01*
X156855875Y-122074696D01*
X156823702Y-122083694D01*
X156708665Y-122115867D01*
X156576476Y-122125980D01*
X156556251Y-122127527D01*
X156556249Y-122127527D01*
X156404496Y-122109230D01*
X156404493Y-122109229D01*
X156404492Y-122109229D01*
X156298994Y-122074696D01*
X156259214Y-122061675D01*
X156159397Y-122005487D01*
X156151091Y-121999671D01*
X155646412Y-121646291D01*
X155646411Y-121646290D01*
X155646408Y-121646288D01*
X155559462Y-121571700D01*
X155465092Y-121451453D01*
X155432111Y-121386373D01*
X155395992Y-121315103D01*
X155377697Y-121249686D01*
X155354821Y-121167892D01*
X155343161Y-121015478D01*
X155361459Y-120863719D01*
X155409010Y-120718452D01*
X155483994Y-120585241D01*
X155583520Y-120469224D01*
X155703767Y-120374854D01*
X155712688Y-120370333D01*
X155840117Y-120305754D01*
X155872290Y-120296756D01*
X155987328Y-120264583D01*
X156119515Y-120254470D01*
X156139740Y-120252923D01*
X156139742Y-120252923D01*
X156291501Y-120271221D01*
X156291501Y-120271221D01*
G37*
G36*
X141531552Y-121166331D02*
G01*
X141613627Y-121200328D01*
X141613629Y-121200329D01*
X141650813Y-121225175D01*
X141687495Y-121249685D01*
X141750315Y-121312505D01*
X141799672Y-121386373D01*
X141833669Y-121468448D01*
X141851000Y-121555579D01*
X141851000Y-121644421D01*
X141833669Y-121731552D01*
X141799672Y-121813627D01*
X141799671Y-121813629D01*
X141750314Y-121887496D01*
X141687496Y-121950314D01*
X141613629Y-121999671D01*
X141613628Y-121999672D01*
X141613627Y-121999672D01*
X141531552Y-122033669D01*
X141444421Y-122051000D01*
X141355579Y-122051000D01*
X141268448Y-122033669D01*
X141186373Y-121999672D01*
X141186372Y-121999672D01*
X141186371Y-121999671D01*
X141112504Y-121950314D01*
X141049686Y-121887496D01*
X141000329Y-121813629D01*
X141000328Y-121813627D01*
X140966331Y-121731552D01*
X140949000Y-121644421D01*
X140949000Y-121555579D01*
X140966331Y-121468448D01*
X141000328Y-121386373D01*
X141049685Y-121312505D01*
X141112505Y-121249685D01*
X141149187Y-121225175D01*
X141186371Y-121200329D01*
X141186373Y-121200328D01*
X141268448Y-121166331D01*
X141355579Y-121149000D01*
X141444421Y-121149000D01*
X141531552Y-121166331D01*
X141531552Y-121166331D01*
G37*
G36*
X144231552Y-120966331D02*
G01*
X144313627Y-121000328D01*
X144313629Y-121000329D01*
X144335431Y-121014897D01*
X144374189Y-121040794D01*
X144387496Y-121049686D01*
X144450314Y-121112504D01*
X144487324Y-121167892D01*
X144499672Y-121186373D01*
X144533669Y-121268448D01*
X144551000Y-121355579D01*
X144551000Y-121444421D01*
X144533669Y-121531552D01*
X144499672Y-121613627D01*
X144467352Y-121661998D01*
X144450314Y-121687496D01*
X144387496Y-121750314D01*
X144313629Y-121799671D01*
X144313628Y-121799672D01*
X144313627Y-121799672D01*
X144231552Y-121833669D01*
X144144421Y-121851000D01*
X144055579Y-121851000D01*
X143968448Y-121833669D01*
X143886373Y-121799672D01*
X143886372Y-121799672D01*
X143886371Y-121799671D01*
X143812504Y-121750314D01*
X143749686Y-121687496D01*
X143732649Y-121661998D01*
X143700328Y-121613627D01*
X143666331Y-121531552D01*
X143649000Y-121444421D01*
X143649000Y-121355579D01*
X143666331Y-121268448D01*
X143700328Y-121186373D01*
X143712677Y-121167892D01*
X143749686Y-121112504D01*
X143812504Y-121049686D01*
X143825812Y-121040794D01*
X143864569Y-121014897D01*
X143886371Y-121000329D01*
X143886373Y-121000328D01*
X143968448Y-120966331D01*
X144055579Y-120949000D01*
X144144421Y-120949000D01*
X144231552Y-120966331D01*
X144231552Y-120966331D01*
G37*
G36*
X130631552Y-120266331D02*
G01*
X130713627Y-120300328D01*
X130713629Y-120300329D01*
X130741235Y-120318775D01*
X130770036Y-120338019D01*
X130787496Y-120349686D01*
X130850314Y-120412504D01*
X130888214Y-120469224D01*
X130899672Y-120486373D01*
X130933669Y-120568448D01*
X130951000Y-120655579D01*
X130951000Y-120744421D01*
X130933669Y-120831552D01*
X130899672Y-120913627D01*
X130850315Y-120987495D01*
X130787495Y-121050315D01*
X130780160Y-121055216D01*
X130713629Y-121099671D01*
X130713628Y-121099672D01*
X130713627Y-121099672D01*
X130631552Y-121133669D01*
X130544421Y-121151000D01*
X130455579Y-121151000D01*
X130368448Y-121133669D01*
X130286373Y-121099672D01*
X130286372Y-121099672D01*
X130286371Y-121099671D01*
X130219840Y-121055216D01*
X130212505Y-121050315D01*
X130149685Y-120987495D01*
X130100328Y-120913627D01*
X130066331Y-120831552D01*
X130049000Y-120744421D01*
X130049000Y-120655579D01*
X130066331Y-120568448D01*
X130100328Y-120486373D01*
X130111787Y-120469224D01*
X130149686Y-120412504D01*
X130212504Y-120349686D01*
X130229965Y-120338019D01*
X130258765Y-120318775D01*
X130286371Y-120300329D01*
X130286373Y-120300328D01*
X130368448Y-120266331D01*
X130455579Y-120249000D01*
X130544421Y-120249000D01*
X130631552Y-120266331D01*
X130631552Y-120266331D01*
G37*
G36*
X117531552Y-118766331D02*
G01*
X117613627Y-118800328D01*
X117613629Y-118800329D01*
X117650813Y-118825175D01*
X117687495Y-118849685D01*
X117750315Y-118912505D01*
X117799672Y-118986373D01*
X117833669Y-119068448D01*
X117851000Y-119155579D01*
X117851000Y-119244421D01*
X117833669Y-119331552D01*
X117799672Y-119413627D01*
X117799671Y-119413629D01*
X117750314Y-119487496D01*
X117687496Y-119550314D01*
X117613629Y-119599671D01*
X117613628Y-119599672D01*
X117613627Y-119599672D01*
X117531552Y-119633669D01*
X117444421Y-119651000D01*
X117355579Y-119651000D01*
X117268448Y-119633669D01*
X117186373Y-119599672D01*
X117186372Y-119599672D01*
X117186371Y-119599671D01*
X117112504Y-119550314D01*
X117049686Y-119487496D01*
X117000329Y-119413629D01*
X117000328Y-119413627D01*
X116966331Y-119331552D01*
X116949000Y-119244421D01*
X116949000Y-119155579D01*
X116966331Y-119068448D01*
X117000328Y-118986373D01*
X117049685Y-118912505D01*
X117112505Y-118849685D01*
X117149187Y-118825175D01*
X117186371Y-118800329D01*
X117186373Y-118800328D01*
X117268448Y-118766331D01*
X117355579Y-118749000D01*
X117444421Y-118749000D01*
X117531552Y-118766331D01*
X117531552Y-118766331D01*
G37*
G36*
X144531552Y-118166331D02*
G01*
X144613627Y-118200328D01*
X144613629Y-118200329D01*
X144650813Y-118225175D01*
X144687495Y-118249685D01*
X144750315Y-118312505D01*
X144799672Y-118386373D01*
X144833669Y-118468448D01*
X144851000Y-118555579D01*
X144851000Y-118644421D01*
X144833669Y-118731552D01*
X144805180Y-118800329D01*
X144799671Y-118813629D01*
X144750314Y-118887496D01*
X144687496Y-118950314D01*
X144613629Y-118999671D01*
X144613628Y-118999672D01*
X144613627Y-118999672D01*
X144531552Y-119033669D01*
X144444421Y-119051000D01*
X144355579Y-119051000D01*
X144268448Y-119033669D01*
X144186373Y-118999672D01*
X144186372Y-118999672D01*
X144186371Y-118999671D01*
X144112504Y-118950314D01*
X144049686Y-118887496D01*
X144000329Y-118813629D01*
X143994820Y-118800329D01*
X143966331Y-118731552D01*
X143949000Y-118644421D01*
X143949000Y-118555579D01*
X143966331Y-118468448D01*
X144000328Y-118386373D01*
X144049685Y-118312505D01*
X144112505Y-118249685D01*
X144149187Y-118225175D01*
X144186371Y-118200329D01*
X144186373Y-118200328D01*
X144268448Y-118166331D01*
X144355579Y-118149000D01*
X144444421Y-118149000D01*
X144531552Y-118166331D01*
X144531552Y-118166331D01*
G37*
G36*
X163689874Y-116343730D02*
G01*
X163807070Y-116382092D01*
X163887607Y-116427426D01*
X164470424Y-116835519D01*
X164540566Y-116895691D01*
X164593444Y-116963069D01*
X164616696Y-116992695D01*
X164672438Y-117102687D01*
X164705650Y-117221442D01*
X164715057Y-117344394D01*
X164715057Y-117344397D01*
X164700297Y-117466815D01*
X164661935Y-117584011D01*
X164601449Y-117691466D01*
X164521158Y-117785060D01*
X164491972Y-117807965D01*
X164424155Y-117861189D01*
X164314163Y-117916931D01*
X164195408Y-117950143D01*
X164072456Y-117959550D01*
X164072453Y-117959550D01*
X163950035Y-117944790D01*
X163832835Y-117906427D01*
X163752311Y-117861099D01*
X163752307Y-117861096D01*
X163752303Y-117861094D01*
X163356588Y-117584011D01*
X163169486Y-117453001D01*
X163099345Y-117392830D01*
X163052842Y-117333575D01*
X163023214Y-117295824D01*
X162967472Y-117185832D01*
X162934260Y-117067077D01*
X162924853Y-116944126D01*
X162924853Y-116944123D01*
X162939613Y-116821705D01*
X162977975Y-116704509D01*
X163038461Y-116597054D01*
X163118752Y-116503460D01*
X163185597Y-116451000D01*
X163215755Y-116427331D01*
X163325747Y-116371589D01*
X163444502Y-116338377D01*
X163567453Y-116328970D01*
X163567456Y-116328970D01*
X163689874Y-116343730D01*
X163689874Y-116343730D01*
G37*
G36*
X160564646Y-114168538D02*
G01*
X160709913Y-114216089D01*
X160809747Y-114272285D01*
X160944060Y-114366332D01*
X161231351Y-114567495D01*
X161322729Y-114631479D01*
X161409675Y-114706067D01*
X161504045Y-114826314D01*
X161504046Y-114826316D01*
X161573145Y-114962664D01*
X161573145Y-114962665D01*
X161614316Y-115109874D01*
X161625976Y-115262289D01*
X161607678Y-115414048D01*
X161563073Y-115550314D01*
X161560125Y-115559320D01*
X161485144Y-115692525D01*
X161485143Y-115692526D01*
X161385617Y-115808543D01*
X161286664Y-115886202D01*
X161265369Y-115902914D01*
X161129020Y-115972013D01*
X161096847Y-115981011D01*
X160981810Y-116013184D01*
X160934286Y-116016820D01*
X160910154Y-116021075D01*
X160887316Y-116029956D01*
X160866649Y-116043122D01*
X160848949Y-116060067D01*
X160834893Y-116080140D01*
X160825025Y-116102569D01*
X160819721Y-116126492D01*
X160819186Y-116150990D01*
X160823441Y-116175122D01*
X160832322Y-116197960D01*
X160845488Y-116218627D01*
X160862433Y-116236327D01*
X160882506Y-116250383D01*
X160907536Y-116261072D01*
X160952045Y-116274573D01*
X161030394Y-116316452D01*
X161099068Y-116372810D01*
X161155426Y-116441484D01*
X161197305Y-116519833D01*
X161223094Y-116604849D01*
X161231801Y-116693259D01*
X161223094Y-116781669D01*
X161197305Y-116866685D01*
X161155426Y-116945034D01*
X161099068Y-117013708D01*
X161030394Y-117070066D01*
X160952045Y-117111945D01*
X160867029Y-117137734D01*
X160800777Y-117144259D01*
X160756461Y-117144259D01*
X160690209Y-117137734D01*
X160605193Y-117111945D01*
X160526844Y-117070066D01*
X160458170Y-117013708D01*
X160401812Y-116945034D01*
X160359933Y-116866685D01*
X160334144Y-116781669D01*
X160325437Y-116693259D01*
X160334144Y-116604849D01*
X160359933Y-116519833D01*
X160401812Y-116441484D01*
X160458170Y-116372810D01*
X160526844Y-116316452D01*
X160605193Y-116274573D01*
X160689208Y-116249088D01*
X160711847Y-116239711D01*
X160732221Y-116226097D01*
X160749548Y-116208770D01*
X160763162Y-116188396D01*
X160772539Y-116165757D01*
X160777320Y-116141724D01*
X160777320Y-116117219D01*
X160772540Y-116093186D01*
X160763163Y-116070547D01*
X160749549Y-116050173D01*
X160732222Y-116032846D01*
X160711848Y-116019232D01*
X160689209Y-116009855D01*
X160685117Y-116008994D01*
X160677639Y-116006546D01*
X160677637Y-116006546D01*
X160572139Y-115972013D01*
X160532359Y-115958992D01*
X160432542Y-115902804D01*
X160383477Y-115868448D01*
X159919557Y-115543608D01*
X159919556Y-115543607D01*
X159919553Y-115543605D01*
X159832607Y-115469017D01*
X159738237Y-115348770D01*
X159679906Y-115233669D01*
X159669137Y-115212420D01*
X159640458Y-115109874D01*
X159627966Y-115065209D01*
X159616306Y-114912795D01*
X159634604Y-114761036D01*
X159682155Y-114615769D01*
X159740282Y-114512505D01*
X159757138Y-114482559D01*
X159784211Y-114451000D01*
X159856665Y-114366541D01*
X159976912Y-114272171D01*
X160017951Y-114251373D01*
X160113262Y-114203071D01*
X160145435Y-114194073D01*
X160260473Y-114161900D01*
X160392660Y-114151787D01*
X160412885Y-114150240D01*
X160412887Y-114150240D01*
X160564646Y-114168538D01*
X160564646Y-114168538D01*
G37*
G36*
X158231552Y-115566331D02*
G01*
X158313627Y-115600328D01*
X158313629Y-115600329D01*
X158350813Y-115625175D01*
X158387495Y-115649685D01*
X158450315Y-115712505D01*
X158499672Y-115786373D01*
X158533669Y-115868448D01*
X158551000Y-115955579D01*
X158551000Y-116044421D01*
X158533669Y-116131552D01*
X158501684Y-116208770D01*
X158499671Y-116213629D01*
X158450314Y-116287496D01*
X158387496Y-116350314D01*
X158313629Y-116399671D01*
X158313628Y-116399672D01*
X158313627Y-116399672D01*
X158231552Y-116433669D01*
X158144421Y-116451000D01*
X158055579Y-116451000D01*
X157968448Y-116433669D01*
X157886373Y-116399672D01*
X157886372Y-116399672D01*
X157886371Y-116399671D01*
X157812504Y-116350314D01*
X157749686Y-116287496D01*
X157700329Y-116213629D01*
X157698316Y-116208770D01*
X157666331Y-116131552D01*
X157649000Y-116044421D01*
X157649000Y-115955579D01*
X157666331Y-115868448D01*
X157700328Y-115786373D01*
X157749685Y-115712505D01*
X157812505Y-115649685D01*
X157849187Y-115625175D01*
X157886371Y-115600329D01*
X157886373Y-115600328D01*
X157968448Y-115566331D01*
X158055579Y-115549000D01*
X158144421Y-115549000D01*
X158231552Y-115566331D01*
X158231552Y-115566331D01*
G37*
G36*
X155956552Y-114766330D02*
G01*
X156038627Y-114800327D01*
X156038629Y-114800328D01*
X156075813Y-114825174D01*
X156112495Y-114849684D01*
X156175315Y-114912504D01*
X156188042Y-114931552D01*
X156208832Y-114962665D01*
X156224672Y-114986372D01*
X156258669Y-115068447D01*
X156276000Y-115155578D01*
X156276000Y-115244420D01*
X156258669Y-115331551D01*
X156224672Y-115413626D01*
X156224671Y-115413628D01*
X156224390Y-115414048D01*
X156175315Y-115487494D01*
X156112495Y-115550314D01*
X156088524Y-115566331D01*
X156038629Y-115599670D01*
X156038628Y-115599671D01*
X156038627Y-115599671D01*
X155956552Y-115633668D01*
X155869421Y-115650999D01*
X155780579Y-115650999D01*
X155693448Y-115633668D01*
X155611373Y-115599671D01*
X155611372Y-115599671D01*
X155611371Y-115599670D01*
X155561476Y-115566331D01*
X155537505Y-115550314D01*
X155474685Y-115487494D01*
X155425610Y-115414048D01*
X155425329Y-115413628D01*
X155425328Y-115413626D01*
X155391331Y-115331551D01*
X155374000Y-115244420D01*
X155374000Y-115155578D01*
X155391331Y-115068447D01*
X155425328Y-114986372D01*
X155441169Y-114962665D01*
X155461958Y-114931552D01*
X155474685Y-114912504D01*
X155537505Y-114849684D01*
X155574187Y-114825174D01*
X155611371Y-114800328D01*
X155611373Y-114800327D01*
X155693448Y-114766330D01*
X155780579Y-114748999D01*
X155869421Y-114748999D01*
X155956552Y-114766330D01*
X155956552Y-114766330D01*
G37*
G36*
X158231552Y-113566331D02*
G01*
X158313627Y-113600328D01*
X158313629Y-113600329D01*
X158350813Y-113625175D01*
X158387495Y-113649685D01*
X158450315Y-113712505D01*
X158499672Y-113786373D01*
X158533669Y-113868448D01*
X158551000Y-113955579D01*
X158551000Y-114044421D01*
X158533669Y-114131552D01*
X158504044Y-114203071D01*
X158499671Y-114213629D01*
X158474825Y-114250813D01*
X158450315Y-114287495D01*
X158387495Y-114350315D01*
X158352088Y-114373973D01*
X158313629Y-114399671D01*
X158313628Y-114399672D01*
X158313627Y-114399672D01*
X158231552Y-114433669D01*
X158144421Y-114451000D01*
X158055579Y-114451000D01*
X157968443Y-114433668D01*
X157967164Y-114433138D01*
X157943715Y-114426025D01*
X157919329Y-114423624D01*
X157894943Y-114426027D01*
X157871494Y-114433140D01*
X157849884Y-114444692D01*
X157830943Y-114460238D01*
X157815398Y-114479180D01*
X157803848Y-114500792D01*
X157796735Y-114524241D01*
X157794334Y-114548627D01*
X157796737Y-114573013D01*
X157803848Y-114596454D01*
X157818355Y-114631479D01*
X157833669Y-114668451D01*
X157851000Y-114755579D01*
X157851000Y-114844421D01*
X157833669Y-114931552D01*
X157799672Y-115013627D01*
X157750315Y-115087495D01*
X157687495Y-115150315D01*
X157650813Y-115174825D01*
X157613629Y-115199671D01*
X157613628Y-115199672D01*
X157613627Y-115199672D01*
X157531552Y-115233669D01*
X157444421Y-115251000D01*
X157355579Y-115251000D01*
X157268448Y-115233669D01*
X157186373Y-115199672D01*
X157186372Y-115199672D01*
X157186371Y-115199671D01*
X157149187Y-115174825D01*
X157112505Y-115150315D01*
X157049685Y-115087495D01*
X157000328Y-115013627D01*
X156966331Y-114931552D01*
X156949000Y-114844421D01*
X156949000Y-114755579D01*
X156966331Y-114668448D01*
X157000328Y-114586373D01*
X157049685Y-114512505D01*
X157112505Y-114449685D01*
X157169575Y-114411552D01*
X157186371Y-114400329D01*
X157187957Y-114399672D01*
X157268448Y-114366331D01*
X157355579Y-114349000D01*
X157444421Y-114349000D01*
X157531557Y-114366332D01*
X157532836Y-114366862D01*
X157556285Y-114373975D01*
X157580671Y-114376376D01*
X157605057Y-114373973D01*
X157628506Y-114366860D01*
X157650116Y-114355308D01*
X157669057Y-114339762D01*
X157684602Y-114320820D01*
X157696152Y-114299208D01*
X157703265Y-114275759D01*
X157705666Y-114251373D01*
X157703263Y-114226987D01*
X157696152Y-114203546D01*
X157666332Y-114131552D01*
X157649000Y-114044420D01*
X157649000Y-113955579D01*
X157666331Y-113868448D01*
X157700328Y-113786373D01*
X157749685Y-113712505D01*
X157812505Y-113649685D01*
X157849187Y-113625175D01*
X157886371Y-113600329D01*
X157886373Y-113600328D01*
X157968448Y-113566331D01*
X158055579Y-113549000D01*
X158144421Y-113549000D01*
X158231552Y-113566331D01*
X158231552Y-113566331D01*
G37*
G36*
X122011552Y-113846331D02*
G01*
X122093627Y-113880328D01*
X122093629Y-113880329D01*
X122167496Y-113929686D01*
X122230314Y-113992504D01*
X122265004Y-114044420D01*
X122279672Y-114066373D01*
X122313669Y-114148448D01*
X122331000Y-114235579D01*
X122331000Y-114324421D01*
X122313669Y-114411552D01*
X122279672Y-114493627D01*
X122230315Y-114567495D01*
X122167495Y-114630315D01*
X122130813Y-114654825D01*
X122093629Y-114679671D01*
X122093628Y-114679672D01*
X122093627Y-114679672D01*
X122011552Y-114713669D01*
X121924421Y-114731000D01*
X121835579Y-114731000D01*
X121748448Y-114713669D01*
X121666373Y-114679672D01*
X121666372Y-114679672D01*
X121666371Y-114679671D01*
X121629187Y-114654825D01*
X121592505Y-114630315D01*
X121529685Y-114567495D01*
X121480328Y-114493627D01*
X121446331Y-114411552D01*
X121429000Y-114324421D01*
X121429000Y-114235579D01*
X121446331Y-114148448D01*
X121480328Y-114066373D01*
X121494997Y-114044420D01*
X121529686Y-113992504D01*
X121592504Y-113929686D01*
X121666371Y-113880329D01*
X121666373Y-113880328D01*
X121748448Y-113846331D01*
X121835579Y-113829000D01*
X121924421Y-113829000D01*
X122011552Y-113846331D01*
X122011552Y-113846331D01*
G37*
G36*
X155531552Y-113566331D02*
G01*
X155613627Y-113600328D01*
X155613629Y-113600329D01*
X155650813Y-113625175D01*
X155687495Y-113649685D01*
X155750315Y-113712505D01*
X155799672Y-113786373D01*
X155833669Y-113868448D01*
X155851000Y-113955579D01*
X155851000Y-114044421D01*
X155833669Y-114131552D01*
X155804044Y-114203071D01*
X155799671Y-114213629D01*
X155774825Y-114250813D01*
X155750315Y-114287495D01*
X155687495Y-114350315D01*
X155652088Y-114373973D01*
X155613629Y-114399671D01*
X155613628Y-114399672D01*
X155613627Y-114399672D01*
X155531552Y-114433669D01*
X155444421Y-114451000D01*
X155355579Y-114451000D01*
X155268448Y-114433669D01*
X155186373Y-114399672D01*
X155186372Y-114399672D01*
X155186371Y-114399671D01*
X155147912Y-114373973D01*
X155112505Y-114350315D01*
X155049685Y-114287495D01*
X155025175Y-114250813D01*
X155000329Y-114213629D01*
X154995956Y-114203071D01*
X154966331Y-114131552D01*
X154949000Y-114044421D01*
X154949000Y-113955579D01*
X154966331Y-113868448D01*
X155000328Y-113786373D01*
X155049685Y-113712505D01*
X155112505Y-113649685D01*
X155149187Y-113625175D01*
X155186371Y-113600329D01*
X155186373Y-113600328D01*
X155268448Y-113566331D01*
X155355579Y-113549000D01*
X155444421Y-113549000D01*
X155531552Y-113566331D01*
X155531552Y-113566331D01*
G37*
G36*
X129541552Y-112656331D02*
G01*
X129623627Y-112690328D01*
X129623629Y-112690329D01*
X129660813Y-112715175D01*
X129697495Y-112739685D01*
X129760315Y-112802505D01*
X129809672Y-112876373D01*
X129843669Y-112958448D01*
X129861000Y-113045579D01*
X129861000Y-113134421D01*
X129843669Y-113221552D01*
X129809672Y-113303627D01*
X129809671Y-113303629D01*
X129760314Y-113377496D01*
X129697496Y-113440314D01*
X129623629Y-113489671D01*
X129623628Y-113489672D01*
X129623627Y-113489672D01*
X129541552Y-113523669D01*
X129454421Y-113541000D01*
X129365579Y-113541000D01*
X129278448Y-113523669D01*
X129196373Y-113489672D01*
X129196372Y-113489672D01*
X129196371Y-113489671D01*
X129122504Y-113440314D01*
X129059686Y-113377496D01*
X129010329Y-113303629D01*
X129010328Y-113303627D01*
X128976331Y-113221552D01*
X128959000Y-113134421D01*
X128959000Y-113045579D01*
X128976331Y-112958448D01*
X129010328Y-112876373D01*
X129059685Y-112802505D01*
X129122505Y-112739685D01*
X129159187Y-112715175D01*
X129196371Y-112690329D01*
X129196373Y-112690328D01*
X129278448Y-112656331D01*
X129365579Y-112639000D01*
X129454421Y-112639000D01*
X129541552Y-112656331D01*
X129541552Y-112656331D01*
G37*
G36*
X155831552Y-112166331D02*
G01*
X155912043Y-112199672D01*
X155913629Y-112200329D01*
X155950813Y-112225175D01*
X155987495Y-112249685D01*
X156050315Y-112312505D01*
X156099672Y-112386373D01*
X156133669Y-112468448D01*
X156151000Y-112555579D01*
X156151000Y-112644421D01*
X156133669Y-112731552D01*
X156104279Y-112802504D01*
X156099671Y-112813629D01*
X156050314Y-112887496D01*
X155987496Y-112950314D01*
X155913629Y-112999671D01*
X155913628Y-112999672D01*
X155913627Y-112999672D01*
X155831552Y-113033669D01*
X155744421Y-113051000D01*
X155655579Y-113051000D01*
X155568448Y-113033669D01*
X155486373Y-112999672D01*
X155486372Y-112999672D01*
X155486371Y-112999671D01*
X155412504Y-112950314D01*
X155349686Y-112887496D01*
X155300329Y-112813629D01*
X155295721Y-112802504D01*
X155266331Y-112731552D01*
X155249000Y-112644421D01*
X155249000Y-112555579D01*
X155266331Y-112468448D01*
X155300328Y-112386373D01*
X155349685Y-112312505D01*
X155412505Y-112249685D01*
X155449187Y-112225175D01*
X155486371Y-112200329D01*
X155487957Y-112199672D01*
X155568448Y-112166331D01*
X155655579Y-112149000D01*
X155744421Y-112149000D01*
X155831552Y-112166331D01*
X155831552Y-112166331D01*
G37*
G36*
X160321552Y-111526331D02*
G01*
X160403627Y-111560328D01*
X160403629Y-111560329D01*
X160440813Y-111585175D01*
X160477495Y-111609685D01*
X160540315Y-111672505D01*
X160589672Y-111746373D01*
X160623669Y-111828448D01*
X160641000Y-111915579D01*
X160641000Y-112004421D01*
X160623669Y-112091552D01*
X160589672Y-112173627D01*
X160540315Y-112247495D01*
X160477495Y-112310315D01*
X160474217Y-112312505D01*
X160403629Y-112359671D01*
X160403628Y-112359672D01*
X160403627Y-112359672D01*
X160321552Y-112393669D01*
X160234421Y-112411000D01*
X160145579Y-112411000D01*
X160058448Y-112393669D01*
X159976373Y-112359672D01*
X159976372Y-112359672D01*
X159976371Y-112359671D01*
X159905783Y-112312505D01*
X159902505Y-112310315D01*
X159839685Y-112247495D01*
X159790328Y-112173627D01*
X159756331Y-112091552D01*
X159739000Y-112004421D01*
X159739000Y-111915579D01*
X159756331Y-111828448D01*
X159790328Y-111746373D01*
X159839685Y-111672505D01*
X159902505Y-111609685D01*
X159939187Y-111585175D01*
X159976371Y-111560329D01*
X159976373Y-111560328D01*
X160058448Y-111526331D01*
X160145579Y-111509000D01*
X160234421Y-111509000D01*
X160321552Y-111526331D01*
X160321552Y-111526331D01*
G37*
G36*
X140861552Y-111366331D02*
G01*
X140942043Y-111399672D01*
X140943629Y-111400329D01*
X140980813Y-111425175D01*
X141017495Y-111449685D01*
X141080315Y-111512505D01*
X141129672Y-111586373D01*
X141163669Y-111668448D01*
X141181000Y-111755579D01*
X141181000Y-111844421D01*
X141163669Y-111931552D01*
X141133485Y-112004421D01*
X141129671Y-112013629D01*
X141080314Y-112087496D01*
X141017496Y-112150314D01*
X140943629Y-112199671D01*
X140943628Y-112199672D01*
X140943627Y-112199672D01*
X140861552Y-112233669D01*
X140774421Y-112251000D01*
X140685579Y-112251000D01*
X140598448Y-112233669D01*
X140516373Y-112199672D01*
X140516372Y-112199672D01*
X140516371Y-112199671D01*
X140442504Y-112150314D01*
X140379686Y-112087496D01*
X140330329Y-112013629D01*
X140326515Y-112004421D01*
X140296331Y-111931552D01*
X140279000Y-111844421D01*
X140279000Y-111755579D01*
X140296331Y-111668448D01*
X140330328Y-111586373D01*
X140379685Y-111512505D01*
X140442505Y-111449685D01*
X140479187Y-111425175D01*
X140516371Y-111400329D01*
X140517957Y-111399672D01*
X140598448Y-111366331D01*
X140685579Y-111349000D01*
X140774421Y-111349000D01*
X140861552Y-111366331D01*
X140861552Y-111366331D01*
G37*
G36*
X143531552Y-111366331D02*
G01*
X143612043Y-111399672D01*
X143613629Y-111400329D01*
X143650813Y-111425175D01*
X143687495Y-111449685D01*
X143750315Y-111512505D01*
X143799672Y-111586373D01*
X143833669Y-111668448D01*
X143851000Y-111755579D01*
X143851000Y-111844421D01*
X143833669Y-111931552D01*
X143803485Y-112004421D01*
X143799671Y-112013629D01*
X143750314Y-112087496D01*
X143687496Y-112150314D01*
X143613629Y-112199671D01*
X143613628Y-112199672D01*
X143613627Y-112199672D01*
X143531552Y-112233669D01*
X143444421Y-112251000D01*
X143355579Y-112251000D01*
X143268448Y-112233669D01*
X143186373Y-112199672D01*
X143186372Y-112199672D01*
X143186371Y-112199671D01*
X143112504Y-112150314D01*
X143049686Y-112087496D01*
X143000329Y-112013629D01*
X142996515Y-112004421D01*
X142966331Y-111931552D01*
X142949000Y-111844421D01*
X142949000Y-111755579D01*
X142966331Y-111668448D01*
X143000328Y-111586373D01*
X143049685Y-111512505D01*
X143112505Y-111449685D01*
X143149187Y-111425175D01*
X143186371Y-111400329D01*
X143187957Y-111399672D01*
X143268448Y-111366331D01*
X143355579Y-111349000D01*
X143444421Y-111349000D01*
X143531552Y-111366331D01*
X143531552Y-111366331D01*
G37*
G36*
X163531552Y-110566331D02*
G01*
X163613627Y-110600328D01*
X163613629Y-110600329D01*
X163650813Y-110625175D01*
X163687495Y-110649685D01*
X163750315Y-110712505D01*
X163799672Y-110786373D01*
X163833669Y-110868448D01*
X163851000Y-110955579D01*
X163851000Y-111044421D01*
X163833669Y-111131552D01*
X163799672Y-111213627D01*
X163799671Y-111213629D01*
X163750314Y-111287496D01*
X163687496Y-111350314D01*
X163613629Y-111399671D01*
X163613628Y-111399672D01*
X163613627Y-111399672D01*
X163531552Y-111433669D01*
X163444421Y-111451000D01*
X163355579Y-111451000D01*
X163268448Y-111433669D01*
X163186373Y-111399672D01*
X163186372Y-111399672D01*
X163186371Y-111399671D01*
X163112504Y-111350314D01*
X163049686Y-111287496D01*
X163000329Y-111213629D01*
X163000328Y-111213627D01*
X162966331Y-111131552D01*
X162949000Y-111044421D01*
X162949000Y-110955579D01*
X162966331Y-110868448D01*
X163000328Y-110786373D01*
X163049685Y-110712505D01*
X163112505Y-110649685D01*
X163149187Y-110625175D01*
X163186371Y-110600329D01*
X163186373Y-110600328D01*
X163268448Y-110566331D01*
X163355579Y-110549000D01*
X163444421Y-110549000D01*
X163531552Y-110566331D01*
X163531552Y-110566331D01*
G37*
G36*
X134581552Y-110176331D02*
G01*
X134663627Y-110210328D01*
X134663629Y-110210329D01*
X134700813Y-110235175D01*
X134737495Y-110259685D01*
X134800315Y-110322505D01*
X134849672Y-110396373D01*
X134883669Y-110478448D01*
X134901000Y-110565579D01*
X134901000Y-110654421D01*
X134883669Y-110741552D01*
X134865104Y-110786371D01*
X134849671Y-110823629D01*
X134800314Y-110897496D01*
X134737496Y-110960314D01*
X134663629Y-111009671D01*
X134663628Y-111009672D01*
X134663627Y-111009672D01*
X134581552Y-111043669D01*
X134494421Y-111061000D01*
X134405579Y-111061000D01*
X134318448Y-111043669D01*
X134236373Y-111009672D01*
X134236372Y-111009672D01*
X134236371Y-111009671D01*
X134162504Y-110960314D01*
X134099686Y-110897496D01*
X134050329Y-110823629D01*
X134034896Y-110786371D01*
X134016331Y-110741552D01*
X133999000Y-110654421D01*
X133999000Y-110565579D01*
X134016331Y-110478448D01*
X134050328Y-110396373D01*
X134099685Y-110322505D01*
X134162505Y-110259685D01*
X134199187Y-110235175D01*
X134236371Y-110210329D01*
X134236373Y-110210328D01*
X134318448Y-110176331D01*
X134405579Y-110159000D01*
X134494421Y-110159000D01*
X134581552Y-110176331D01*
X134581552Y-110176331D01*
G37*
G36*
X117331552Y-109216331D02*
G01*
X117413627Y-109250328D01*
X117413629Y-109250329D01*
X117450813Y-109275175D01*
X117487495Y-109299685D01*
X117550315Y-109362505D01*
X117599672Y-109436373D01*
X117633669Y-109518448D01*
X117651000Y-109605579D01*
X117651000Y-109694421D01*
X117633669Y-109781552D01*
X117605186Y-109850314D01*
X117599671Y-109863629D01*
X117550314Y-109937496D01*
X117487496Y-110000314D01*
X117413629Y-110049671D01*
X117413628Y-110049672D01*
X117413627Y-110049672D01*
X117331552Y-110083669D01*
X117244421Y-110101000D01*
X117155579Y-110101000D01*
X117068448Y-110083669D01*
X116986373Y-110049672D01*
X116986372Y-110049672D01*
X116986371Y-110049671D01*
X116912504Y-110000314D01*
X116849686Y-109937496D01*
X116800329Y-109863629D01*
X116794814Y-109850314D01*
X116766331Y-109781552D01*
X116749000Y-109694421D01*
X116749000Y-109605579D01*
X116766331Y-109518448D01*
X116800328Y-109436373D01*
X116849685Y-109362505D01*
X116912505Y-109299685D01*
X116949187Y-109275175D01*
X116986371Y-109250329D01*
X116986373Y-109250328D01*
X117068448Y-109216331D01*
X117155579Y-109199000D01*
X117244421Y-109199000D01*
X117331552Y-109216331D01*
X117331552Y-109216331D01*
G37*
G36*
X163451552Y-109066331D02*
G01*
X163533627Y-109100328D01*
X163533629Y-109100329D01*
X163570813Y-109125175D01*
X163607495Y-109149685D01*
X163670315Y-109212505D01*
X163719672Y-109286373D01*
X163753669Y-109368448D01*
X163771000Y-109455579D01*
X163771000Y-109544421D01*
X163753669Y-109631552D01*
X163727628Y-109694420D01*
X163719671Y-109713629D01*
X163670314Y-109787496D01*
X163607496Y-109850314D01*
X163533629Y-109899671D01*
X163533628Y-109899672D01*
X163533627Y-109899672D01*
X163451552Y-109933669D01*
X163364421Y-109951000D01*
X163275579Y-109951000D01*
X163188448Y-109933669D01*
X163106373Y-109899672D01*
X163106372Y-109899672D01*
X163106371Y-109899671D01*
X163032504Y-109850314D01*
X162969686Y-109787496D01*
X162920329Y-109713629D01*
X162912372Y-109694420D01*
X162886331Y-109631552D01*
X162869000Y-109544421D01*
X162869000Y-109455579D01*
X162886331Y-109368448D01*
X162920328Y-109286373D01*
X162969685Y-109212505D01*
X163032505Y-109149685D01*
X163069187Y-109125175D01*
X163106371Y-109100329D01*
X163106373Y-109100328D01*
X163188448Y-109066331D01*
X163275579Y-109049000D01*
X163364421Y-109049000D01*
X163451552Y-109066331D01*
X163451552Y-109066331D01*
G37*
G36*
X163446542Y-107891341D02*
G01*
X163528617Y-107925338D01*
X163528619Y-107925339D01*
X163565055Y-107949685D01*
X163602485Y-107974695D01*
X163665305Y-108037515D01*
X163714662Y-108111383D01*
X163748659Y-108193458D01*
X163765990Y-108280589D01*
X163765990Y-108369431D01*
X163748659Y-108456562D01*
X163717185Y-108532545D01*
X163714661Y-108538639D01*
X163665304Y-108612506D01*
X163602486Y-108675324D01*
X163528619Y-108724681D01*
X163528618Y-108724682D01*
X163528617Y-108724682D01*
X163446542Y-108758679D01*
X163359411Y-108776010D01*
X163270569Y-108776010D01*
X163183438Y-108758679D01*
X163101363Y-108724682D01*
X163101362Y-108724682D01*
X163101361Y-108724681D01*
X163027494Y-108675324D01*
X162964676Y-108612506D01*
X162915319Y-108538639D01*
X162912795Y-108532545D01*
X162881321Y-108456562D01*
X162863990Y-108369431D01*
X162863990Y-108280589D01*
X162881321Y-108193458D01*
X162915318Y-108111383D01*
X162964675Y-108037515D01*
X163027495Y-107974695D01*
X163064925Y-107949685D01*
X163101361Y-107925339D01*
X163101363Y-107925338D01*
X163183438Y-107891341D01*
X163270569Y-107874010D01*
X163359411Y-107874010D01*
X163446542Y-107891341D01*
X163446542Y-107891341D01*
G37*
G36*
X149531552Y-107866331D02*
G01*
X149613627Y-107900328D01*
X149613629Y-107900329D01*
X149650813Y-107925175D01*
X149687495Y-107949685D01*
X149750315Y-108012505D01*
X149799672Y-108086373D01*
X149833669Y-108168448D01*
X149851000Y-108255579D01*
X149851000Y-108344421D01*
X149833669Y-108431552D01*
X149799672Y-108513627D01*
X149799671Y-108513629D01*
X149787031Y-108532546D01*
X149750315Y-108587495D01*
X149687495Y-108650315D01*
X149673491Y-108659672D01*
X149613629Y-108699671D01*
X149613628Y-108699672D01*
X149613627Y-108699672D01*
X149531552Y-108733669D01*
X149444421Y-108751000D01*
X149355579Y-108751000D01*
X149268448Y-108733669D01*
X149186373Y-108699672D01*
X149186372Y-108699672D01*
X149186371Y-108699671D01*
X149126509Y-108659672D01*
X149112505Y-108650315D01*
X149049685Y-108587495D01*
X149012969Y-108532546D01*
X149000329Y-108513629D01*
X149000328Y-108513627D01*
X148966331Y-108431552D01*
X148949000Y-108344421D01*
X148949000Y-108255579D01*
X148966331Y-108168448D01*
X149000328Y-108086373D01*
X149049685Y-108012505D01*
X149112505Y-107949685D01*
X149149187Y-107925175D01*
X149186371Y-107900329D01*
X149186373Y-107900328D01*
X149268448Y-107866331D01*
X149355579Y-107849000D01*
X149444421Y-107849000D01*
X149531552Y-107866331D01*
X149531552Y-107866331D01*
G37*
G36*
X124591552Y-107826331D02*
G01*
X124669250Y-107858515D01*
X124673629Y-107860329D01*
X124682613Y-107866332D01*
X124733493Y-107900329D01*
X124747496Y-107909686D01*
X124810314Y-107972504D01*
X124853754Y-108037515D01*
X124859672Y-108046373D01*
X124893669Y-108128448D01*
X124911000Y-108215579D01*
X124911000Y-108304421D01*
X124893669Y-108391552D01*
X124859672Y-108473627D01*
X124810315Y-108547495D01*
X124747495Y-108610315D01*
X124739138Y-108615899D01*
X124673629Y-108659671D01*
X124673628Y-108659672D01*
X124673627Y-108659672D01*
X124591552Y-108693669D01*
X124504421Y-108711000D01*
X124415579Y-108711000D01*
X124328448Y-108693669D01*
X124246373Y-108659672D01*
X124246372Y-108659672D01*
X124246371Y-108659671D01*
X124180862Y-108615899D01*
X124172505Y-108610315D01*
X124109685Y-108547495D01*
X124060328Y-108473627D01*
X124026331Y-108391552D01*
X124009000Y-108304421D01*
X124009000Y-108215579D01*
X124026331Y-108128448D01*
X124060328Y-108046373D01*
X124066247Y-108037515D01*
X124109686Y-107972504D01*
X124172504Y-107909686D01*
X124186508Y-107900329D01*
X124237387Y-107866332D01*
X124246371Y-107860329D01*
X124250750Y-107858515D01*
X124328448Y-107826331D01*
X124415579Y-107809000D01*
X124504421Y-107809000D01*
X124591552Y-107826331D01*
X124591552Y-107826331D01*
G37*
G36*
X135431552Y-107748562D02*
G01*
X135513627Y-107782559D01*
X135513629Y-107782560D01*
X135550813Y-107807406D01*
X135587495Y-107831916D01*
X135650315Y-107894736D01*
X135660304Y-107909686D01*
X135687032Y-107949686D01*
X135699672Y-107968604D01*
X135733669Y-108050679D01*
X135751000Y-108137810D01*
X135751000Y-108226652D01*
X135733669Y-108313783D01*
X135699672Y-108395858D01*
X135699671Y-108395860D01*
X135650314Y-108469727D01*
X135587496Y-108532545D01*
X135513629Y-108581902D01*
X135513628Y-108581903D01*
X135513627Y-108581903D01*
X135431552Y-108615900D01*
X135344421Y-108633231D01*
X135255579Y-108633231D01*
X135168448Y-108615900D01*
X135086373Y-108581903D01*
X135086372Y-108581903D01*
X135086371Y-108581902D01*
X135012504Y-108532545D01*
X134949686Y-108469727D01*
X134900329Y-108395860D01*
X134900328Y-108395858D01*
X134866331Y-108313783D01*
X134849000Y-108226652D01*
X134849000Y-108137810D01*
X134866331Y-108050679D01*
X134900328Y-107968604D01*
X134912969Y-107949686D01*
X134939696Y-107909686D01*
X134949685Y-107894736D01*
X135012505Y-107831916D01*
X135049187Y-107807406D01*
X135086371Y-107782560D01*
X135086373Y-107782559D01*
X135168448Y-107748562D01*
X135255579Y-107731231D01*
X135344421Y-107731231D01*
X135431552Y-107748562D01*
X135431552Y-107748562D01*
G37*
G36*
X148156399Y-106991178D02*
G01*
X148234961Y-107023720D01*
X148238476Y-107025176D01*
X148312343Y-107074533D01*
X148375161Y-107137351D01*
X148419976Y-107204420D01*
X148424519Y-107211220D01*
X148458516Y-107293295D01*
X148475847Y-107380426D01*
X148475847Y-107469268D01*
X148458516Y-107556399D01*
X148424519Y-107638474D01*
X148375162Y-107712342D01*
X148312342Y-107775162D01*
X148301270Y-107782560D01*
X148238476Y-107824518D01*
X148238475Y-107824519D01*
X148238474Y-107824519D01*
X148156399Y-107858516D01*
X148069268Y-107875847D01*
X147980426Y-107875847D01*
X147893295Y-107858516D01*
X147811220Y-107824519D01*
X147811219Y-107824519D01*
X147811218Y-107824518D01*
X147748424Y-107782560D01*
X147737352Y-107775162D01*
X147674532Y-107712342D01*
X147625175Y-107638474D01*
X147591178Y-107556399D01*
X147573847Y-107469268D01*
X147573847Y-107380426D01*
X147591178Y-107293295D01*
X147625175Y-107211220D01*
X147629719Y-107204420D01*
X147674533Y-107137351D01*
X147737351Y-107074533D01*
X147811218Y-107025176D01*
X147814733Y-107023720D01*
X147893295Y-106991178D01*
X147980426Y-106973847D01*
X148069268Y-106973847D01*
X148156399Y-106991178D01*
X148156399Y-106991178D01*
G37*
G36*
X153894205Y-106803678D02*
G01*
X153976280Y-106837675D01*
X153976282Y-106837676D01*
X154050149Y-106887033D01*
X154112967Y-106949851D01*
X154153368Y-107010314D01*
X154162325Y-107023720D01*
X154196322Y-107105795D01*
X154213653Y-107192926D01*
X154213653Y-107281768D01*
X154196322Y-107368899D01*
X154162325Y-107450974D01*
X154162324Y-107450976D01*
X154137478Y-107488160D01*
X154122675Y-107510315D01*
X154112967Y-107524843D01*
X154050149Y-107587661D01*
X153976282Y-107637018D01*
X153976281Y-107637019D01*
X153976280Y-107637019D01*
X153894205Y-107671016D01*
X153807074Y-107688347D01*
X153718232Y-107688347D01*
X153631101Y-107671016D01*
X153549026Y-107637019D01*
X153549025Y-107637019D01*
X153549024Y-107637018D01*
X153475157Y-107587661D01*
X153412339Y-107524843D01*
X153402632Y-107510315D01*
X153387828Y-107488160D01*
X153362982Y-107450976D01*
X153362981Y-107450974D01*
X153328984Y-107368899D01*
X153311653Y-107281768D01*
X153311653Y-107192926D01*
X153328984Y-107105795D01*
X153362981Y-107023720D01*
X153371939Y-107010314D01*
X153412339Y-106949851D01*
X153475157Y-106887033D01*
X153549024Y-106837676D01*
X153549026Y-106837675D01*
X153631101Y-106803678D01*
X153718232Y-106786347D01*
X153807074Y-106786347D01*
X153894205Y-106803678D01*
X153894205Y-106803678D01*
G37*
G36*
X151181552Y-106726331D02*
G01*
X151263627Y-106760328D01*
X151263629Y-106760329D01*
X151300813Y-106785175D01*
X151337495Y-106809685D01*
X151400315Y-106872505D01*
X151449672Y-106946373D01*
X151483669Y-107028448D01*
X151501000Y-107115579D01*
X151501000Y-107204421D01*
X151483669Y-107291552D01*
X151451630Y-107368899D01*
X151449671Y-107373629D01*
X151400314Y-107447496D01*
X151337496Y-107510314D01*
X151263629Y-107559671D01*
X151263628Y-107559672D01*
X151263627Y-107559672D01*
X151181552Y-107593669D01*
X151094421Y-107611000D01*
X151005579Y-107611000D01*
X150918448Y-107593669D01*
X150836373Y-107559672D01*
X150836372Y-107559672D01*
X150836371Y-107559671D01*
X150762504Y-107510314D01*
X150699686Y-107447496D01*
X150650329Y-107373629D01*
X150648370Y-107368899D01*
X150616331Y-107291552D01*
X150599000Y-107204421D01*
X150599000Y-107115579D01*
X150616331Y-107028448D01*
X150650328Y-106946373D01*
X150699685Y-106872505D01*
X150762505Y-106809685D01*
X150799187Y-106785175D01*
X150836371Y-106760329D01*
X150836373Y-106760328D01*
X150918448Y-106726331D01*
X151005579Y-106709000D01*
X151094421Y-106709000D01*
X151181552Y-106726331D01*
X151181552Y-106726331D01*
G37*
G36*
X144931552Y-106466331D02*
G01*
X145013627Y-106500328D01*
X145013629Y-106500329D01*
X145050813Y-106525175D01*
X145087495Y-106549685D01*
X145150315Y-106612505D01*
X145199672Y-106686373D01*
X145233669Y-106768448D01*
X145251000Y-106855579D01*
X145251000Y-106944421D01*
X145233669Y-107031552D01*
X145215865Y-107074533D01*
X145199671Y-107113629D01*
X145150314Y-107187496D01*
X145087496Y-107250314D01*
X145013629Y-107299671D01*
X145013628Y-107299672D01*
X145013627Y-107299672D01*
X144931552Y-107333669D01*
X144844421Y-107351000D01*
X144755579Y-107351000D01*
X144668448Y-107333669D01*
X144586373Y-107299672D01*
X144586372Y-107299672D01*
X144586371Y-107299671D01*
X144512504Y-107250314D01*
X144449686Y-107187496D01*
X144400329Y-107113629D01*
X144384135Y-107074533D01*
X144366331Y-107031552D01*
X144349000Y-106944421D01*
X144349000Y-106855579D01*
X144366331Y-106768448D01*
X144400328Y-106686373D01*
X144449685Y-106612505D01*
X144512505Y-106549685D01*
X144549187Y-106525175D01*
X144586371Y-106500329D01*
X144586373Y-106500328D01*
X144668448Y-106466331D01*
X144755579Y-106449000D01*
X144844421Y-106449000D01*
X144931552Y-106466331D01*
X144931552Y-106466331D01*
G37*
G36*
X152444204Y-106226331D02*
G01*
X152526279Y-106260328D01*
X152526281Y-106260329D01*
X152559335Y-106282415D01*
X152600147Y-106309685D01*
X152662967Y-106372505D01*
X152712324Y-106446373D01*
X152746321Y-106528448D01*
X152763652Y-106615579D01*
X152763652Y-106704421D01*
X152746321Y-106791552D01*
X152719799Y-106855580D01*
X152712323Y-106873629D01*
X152687477Y-106910813D01*
X152663717Y-106946373D01*
X152662966Y-106947496D01*
X152600148Y-107010314D01*
X152526281Y-107059671D01*
X152526280Y-107059672D01*
X152526279Y-107059672D01*
X152444204Y-107093669D01*
X152357073Y-107111000D01*
X152268231Y-107111000D01*
X152181100Y-107093669D01*
X152099025Y-107059672D01*
X152099024Y-107059672D01*
X152099023Y-107059671D01*
X152025156Y-107010314D01*
X151962338Y-106947496D01*
X151961588Y-106946373D01*
X151937827Y-106910813D01*
X151912981Y-106873629D01*
X151905505Y-106855580D01*
X151878983Y-106791552D01*
X151861652Y-106704421D01*
X151861652Y-106615579D01*
X151878983Y-106528448D01*
X151912980Y-106446373D01*
X151962337Y-106372505D01*
X152025157Y-106309685D01*
X152065969Y-106282415D01*
X152099023Y-106260329D01*
X152099025Y-106260328D01*
X152181100Y-106226331D01*
X152268231Y-106209000D01*
X152357073Y-106209000D01*
X152444204Y-106226331D01*
X152444204Y-106226331D01*
G37*
G36*
X114375256Y-103391298D02*
G01*
X114481579Y-103412447D01*
X114782042Y-103536903D01*
X115052451Y-103717585D01*
X115282415Y-103947549D01*
X115419294Y-104152403D01*
X115463098Y-104217960D01*
X115499550Y-104305963D01*
X115582563Y-104506373D01*
X115587553Y-104518422D01*
X115651000Y-104837389D01*
X115651000Y-105162611D01*
X115631319Y-105261552D01*
X115587553Y-105481579D01*
X115463097Y-105782042D01*
X115282415Y-106052451D01*
X115052451Y-106282415D01*
X114782042Y-106463097D01*
X114782041Y-106463098D01*
X114782040Y-106463098D01*
X114774232Y-106466332D01*
X114481579Y-106587553D01*
X114375256Y-106608702D01*
X114162611Y-106651000D01*
X113837389Y-106651000D01*
X113624744Y-106608702D01*
X113518421Y-106587553D01*
X113225768Y-106466332D01*
X113217960Y-106463098D01*
X113217959Y-106463098D01*
X113217958Y-106463097D01*
X112947549Y-106282415D01*
X112717585Y-106052451D01*
X112536903Y-105782042D01*
X112412447Y-105481579D01*
X112368681Y-105261552D01*
X112349000Y-105162611D01*
X112349000Y-104837389D01*
X112412447Y-104518422D01*
X112417438Y-104506373D01*
X112500450Y-104305963D01*
X112536902Y-104217960D01*
X112580706Y-104152403D01*
X112717585Y-103947549D01*
X112947549Y-103717585D01*
X113217958Y-103536903D01*
X113518421Y-103412447D01*
X113624744Y-103391298D01*
X113837389Y-103349000D01*
X114162611Y-103349000D01*
X114375256Y-103391298D01*
X114375256Y-103391298D01*
G37*
G36*
X166375256Y-103391298D02*
G01*
X166481579Y-103412447D01*
X166782042Y-103536903D01*
X167052451Y-103717585D01*
X167282415Y-103947549D01*
X167419294Y-104152403D01*
X167463098Y-104217960D01*
X167499550Y-104305963D01*
X167582563Y-104506373D01*
X167587553Y-104518422D01*
X167651000Y-104837389D01*
X167651000Y-105162611D01*
X167631319Y-105261552D01*
X167587553Y-105481579D01*
X167463097Y-105782042D01*
X167282415Y-106052451D01*
X167052451Y-106282415D01*
X166782042Y-106463097D01*
X166782041Y-106463098D01*
X166782040Y-106463098D01*
X166774232Y-106466332D01*
X166481579Y-106587553D01*
X166375256Y-106608702D01*
X166162611Y-106651000D01*
X165837389Y-106651000D01*
X165624744Y-106608702D01*
X165518421Y-106587553D01*
X165225768Y-106466332D01*
X165217960Y-106463098D01*
X165217959Y-106463098D01*
X165217958Y-106463097D01*
X164947549Y-106282415D01*
X164717585Y-106052451D01*
X164536903Y-105782042D01*
X164412447Y-105481579D01*
X164368681Y-105261552D01*
X164349000Y-105162611D01*
X164349000Y-104837389D01*
X164412447Y-104518422D01*
X164417438Y-104506373D01*
X164500450Y-104305963D01*
X164536902Y-104217960D01*
X164580706Y-104152403D01*
X164717585Y-103947549D01*
X164947549Y-103717585D01*
X165217958Y-103536903D01*
X165518421Y-103412447D01*
X165624744Y-103391298D01*
X165837389Y-103349000D01*
X166162611Y-103349000D01*
X166375256Y-103391298D01*
X166375256Y-103391298D01*
G37*
G36*
X132061552Y-105516331D02*
G01*
X132143627Y-105550328D01*
X132143629Y-105550329D01*
X132163592Y-105563668D01*
X132217495Y-105599685D01*
X132280315Y-105662505D01*
X132329672Y-105736373D01*
X132363669Y-105818448D01*
X132381000Y-105905579D01*
X132381000Y-105994421D01*
X132363669Y-106081552D01*
X132329672Y-106163627D01*
X132280315Y-106237495D01*
X132217495Y-106300315D01*
X132203470Y-106309686D01*
X132143629Y-106349671D01*
X132143628Y-106349672D01*
X132143627Y-106349672D01*
X132061552Y-106383669D01*
X131974421Y-106401000D01*
X131885579Y-106401000D01*
X131798448Y-106383669D01*
X131716373Y-106349672D01*
X131716372Y-106349672D01*
X131716371Y-106349671D01*
X131656530Y-106309686D01*
X131642505Y-106300315D01*
X131579685Y-106237495D01*
X131530328Y-106163627D01*
X131496331Y-106081552D01*
X131479000Y-105994421D01*
X131479000Y-105905579D01*
X131496331Y-105818448D01*
X131530328Y-105736373D01*
X131579685Y-105662505D01*
X131642505Y-105599685D01*
X131696408Y-105563668D01*
X131716371Y-105550329D01*
X131716373Y-105550328D01*
X131798448Y-105516331D01*
X131885579Y-105499000D01*
X131974421Y-105499000D01*
X132061552Y-105516331D01*
X132061552Y-105516331D01*
G37*
G36*
X131101552Y-104696331D02*
G01*
X131183627Y-104730328D01*
X131183629Y-104730329D01*
X131220813Y-104755175D01*
X131257495Y-104779685D01*
X131320315Y-104842505D01*
X131369672Y-104916373D01*
X131403669Y-104998448D01*
X131421000Y-105085579D01*
X131421000Y-105174421D01*
X131403669Y-105261552D01*
X131369672Y-105343627D01*
X131320315Y-105417495D01*
X131257495Y-105480315D01*
X131255603Y-105481579D01*
X131183629Y-105529671D01*
X131183628Y-105529672D01*
X131183627Y-105529672D01*
X131101552Y-105563669D01*
X131014421Y-105581000D01*
X130925579Y-105581000D01*
X130838448Y-105563669D01*
X130756373Y-105529672D01*
X130756372Y-105529672D01*
X130756371Y-105529671D01*
X130684397Y-105481579D01*
X130682505Y-105480315D01*
X130619685Y-105417495D01*
X130570328Y-105343627D01*
X130536331Y-105261552D01*
X130519000Y-105174421D01*
X130519000Y-105085579D01*
X130536331Y-104998448D01*
X130570328Y-104916373D01*
X130619685Y-104842505D01*
X130682505Y-104779685D01*
X130719187Y-104755175D01*
X130756371Y-104730329D01*
X130756373Y-104730328D01*
X130838448Y-104696331D01*
X130925579Y-104679000D01*
X131014421Y-104679000D01*
X131101552Y-104696331D01*
X131101552Y-104696331D01*
G37*
G36*
X120121552Y-104286331D02*
G01*
X120203627Y-104320328D01*
X120203629Y-104320329D01*
X120240813Y-104345175D01*
X120277495Y-104369685D01*
X120340315Y-104432505D01*
X120389672Y-104506373D01*
X120423669Y-104588448D01*
X120441000Y-104675579D01*
X120441000Y-104764421D01*
X120423669Y-104851552D01*
X120396819Y-104916373D01*
X120389671Y-104933629D01*
X120340314Y-105007496D01*
X120277496Y-105070314D01*
X120203629Y-105119671D01*
X120203628Y-105119672D01*
X120203627Y-105119672D01*
X120121552Y-105153669D01*
X120034421Y-105171000D01*
X119945579Y-105171000D01*
X119858448Y-105153669D01*
X119776373Y-105119672D01*
X119776372Y-105119672D01*
X119776371Y-105119671D01*
X119702504Y-105070314D01*
X119639686Y-105007496D01*
X119590329Y-104933629D01*
X119583181Y-104916373D01*
X119556331Y-104851552D01*
X119539000Y-104764421D01*
X119539000Y-104675579D01*
X119556331Y-104588448D01*
X119590328Y-104506373D01*
X119639685Y-104432505D01*
X119702505Y-104369685D01*
X119739187Y-104345175D01*
X119776371Y-104320329D01*
X119776373Y-104320328D01*
X119858448Y-104286331D01*
X119945579Y-104269000D01*
X120034421Y-104269000D01*
X120121552Y-104286331D01*
X120121552Y-104286331D01*
G37*
G36*
X149741654Y-104006229D02*
G01*
X149823729Y-104040226D01*
X149823731Y-104040227D01*
X149860915Y-104065073D01*
X149897597Y-104089583D01*
X149960417Y-104152403D01*
X149984927Y-104189085D01*
X150004220Y-104217958D01*
X150009774Y-104226271D01*
X150043771Y-104308346D01*
X150061102Y-104395477D01*
X150061102Y-104484319D01*
X150043771Y-104571450D01*
X150018971Y-104631321D01*
X150009773Y-104653527D01*
X149960416Y-104727394D01*
X149897598Y-104790212D01*
X149823731Y-104839569D01*
X149823730Y-104839570D01*
X149823729Y-104839570D01*
X149741654Y-104873567D01*
X149654523Y-104890898D01*
X149565681Y-104890898D01*
X149478550Y-104873567D01*
X149396475Y-104839570D01*
X149396474Y-104839570D01*
X149396473Y-104839569D01*
X149322606Y-104790212D01*
X149259788Y-104727394D01*
X149210431Y-104653527D01*
X149201233Y-104631321D01*
X149176433Y-104571450D01*
X149159102Y-104484319D01*
X149159102Y-104395477D01*
X149176433Y-104308346D01*
X149210430Y-104226271D01*
X149215985Y-104217958D01*
X149235277Y-104189085D01*
X149259787Y-104152403D01*
X149322607Y-104089583D01*
X149359289Y-104065073D01*
X149396473Y-104040227D01*
X149396475Y-104040226D01*
X149478550Y-104006229D01*
X149565681Y-103988898D01*
X149654523Y-103988898D01*
X149741654Y-104006229D01*
X149741654Y-104006229D01*
G37*
G36*
X147459205Y-103763984D02*
G01*
X147541280Y-103797981D01*
X147541282Y-103797982D01*
X147578466Y-103822828D01*
X147615148Y-103847338D01*
X147677968Y-103910158D01*
X147727325Y-103984026D01*
X147761322Y-104066101D01*
X147778653Y-104153232D01*
X147778653Y-104242074D01*
X147761322Y-104329205D01*
X147727325Y-104411280D01*
X147678523Y-104484318D01*
X147677967Y-104485149D01*
X147615149Y-104547967D01*
X147541282Y-104597324D01*
X147541281Y-104597325D01*
X147541280Y-104597325D01*
X147459205Y-104631322D01*
X147372074Y-104648653D01*
X147283232Y-104648653D01*
X147196101Y-104631322D01*
X147114026Y-104597325D01*
X147114025Y-104597325D01*
X147114024Y-104597324D01*
X147040157Y-104547967D01*
X146977339Y-104485149D01*
X146976784Y-104484318D01*
X146927981Y-104411280D01*
X146893984Y-104329205D01*
X146876653Y-104242074D01*
X146876653Y-104153232D01*
X146893984Y-104066101D01*
X146927981Y-103984026D01*
X146977338Y-103910158D01*
X147040158Y-103847338D01*
X147076840Y-103822828D01*
X147114024Y-103797982D01*
X147114026Y-103797981D01*
X147196101Y-103763984D01*
X147283232Y-103746653D01*
X147372074Y-103746653D01*
X147459205Y-103763984D01*
X147459205Y-103763984D01*
G37*
G36*
X153381552Y-102246331D02*
G01*
X153463627Y-102280328D01*
X153463629Y-102280329D01*
X153500813Y-102305175D01*
X153537495Y-102329685D01*
X153600315Y-102392505D01*
X153649672Y-102466373D01*
X153683669Y-102548448D01*
X153701000Y-102635579D01*
X153701000Y-102724421D01*
X153683669Y-102811552D01*
X153649672Y-102893627D01*
X153600315Y-102967495D01*
X153537495Y-103030315D01*
X153532475Y-103033669D01*
X153463629Y-103079671D01*
X153463628Y-103079672D01*
X153463627Y-103079672D01*
X153381552Y-103113669D01*
X153294421Y-103131000D01*
X153205579Y-103131000D01*
X153118448Y-103113669D01*
X153036373Y-103079672D01*
X153036372Y-103079672D01*
X153036371Y-103079671D01*
X152967525Y-103033669D01*
X152962505Y-103030315D01*
X152899685Y-102967495D01*
X152850328Y-102893627D01*
X152816331Y-102811552D01*
X152799000Y-102724421D01*
X152799000Y-102635579D01*
X152816331Y-102548448D01*
X152850328Y-102466373D01*
X152899685Y-102392505D01*
X152962505Y-102329685D01*
X152999187Y-102305175D01*
X153036371Y-102280329D01*
X153036373Y-102280328D01*
X153118448Y-102246331D01*
X153205579Y-102229000D01*
X153294421Y-102229000D01*
X153381552Y-102246331D01*
X153381552Y-102246331D01*
G37*
G36*
X161191552Y-102166331D02*
G01*
X161273627Y-102200328D01*
X161273629Y-102200329D01*
X161310813Y-102225175D01*
X161347495Y-102249685D01*
X161410315Y-102312505D01*
X161459672Y-102386373D01*
X161493669Y-102468448D01*
X161511000Y-102555579D01*
X161511000Y-102644421D01*
X161493669Y-102731552D01*
X161459672Y-102813627D01*
X161459671Y-102813629D01*
X161410314Y-102887496D01*
X161347496Y-102950314D01*
X161273629Y-102999671D01*
X161273628Y-102999672D01*
X161273627Y-102999672D01*
X161191552Y-103033669D01*
X161104421Y-103051000D01*
X161015579Y-103051000D01*
X160928448Y-103033669D01*
X160846373Y-102999672D01*
X160846372Y-102999672D01*
X160846371Y-102999671D01*
X160772504Y-102950314D01*
X160709686Y-102887496D01*
X160660329Y-102813629D01*
X160660328Y-102813627D01*
X160626331Y-102731552D01*
X160609000Y-102644421D01*
X160609000Y-102555579D01*
X160626331Y-102468448D01*
X160660328Y-102386373D01*
X160709685Y-102312505D01*
X160772505Y-102249685D01*
X160809187Y-102225175D01*
X160846371Y-102200329D01*
X160846373Y-102200328D01*
X160928448Y-102166331D01*
X161015579Y-102149000D01*
X161104421Y-102149000D01*
X161191552Y-102166331D01*
X161191552Y-102166331D01*
G37*
G36*
X128361552Y-102026331D02*
G01*
X128443627Y-102060328D01*
X128443629Y-102060329D01*
X128480813Y-102085175D01*
X128517495Y-102109685D01*
X128580315Y-102172505D01*
X128629672Y-102246373D01*
X128663669Y-102328448D01*
X128681000Y-102415579D01*
X128681000Y-102504421D01*
X128663669Y-102591552D01*
X128629672Y-102673627D01*
X128580315Y-102747495D01*
X128517495Y-102810315D01*
X128512538Y-102813627D01*
X128443629Y-102859671D01*
X128443628Y-102859672D01*
X128443627Y-102859672D01*
X128361552Y-102893669D01*
X128274421Y-102911000D01*
X128185579Y-102911000D01*
X128098448Y-102893669D01*
X128016373Y-102859672D01*
X128016372Y-102859672D01*
X128016371Y-102859671D01*
X127947462Y-102813627D01*
X127942505Y-102810315D01*
X127879685Y-102747495D01*
X127830328Y-102673627D01*
X127796331Y-102591552D01*
X127779000Y-102504421D01*
X127779000Y-102415579D01*
X127796331Y-102328448D01*
X127830328Y-102246373D01*
X127879685Y-102172505D01*
X127942505Y-102109685D01*
X127979187Y-102085175D01*
X128016371Y-102060329D01*
X128016373Y-102060328D01*
X128098448Y-102026331D01*
X128185579Y-102009000D01*
X128274421Y-102009000D01*
X128361552Y-102026331D01*
X128361552Y-102026331D01*
G37*
G36*
X127491552Y-101126331D02*
G01*
X127573627Y-101160328D01*
X127573629Y-101160329D01*
X127610813Y-101185175D01*
X127647495Y-101209685D01*
X127710315Y-101272505D01*
X127759672Y-101346373D01*
X127793669Y-101428448D01*
X127811000Y-101515579D01*
X127811000Y-101604421D01*
X127793669Y-101691552D01*
X127769328Y-101750315D01*
X127759671Y-101773629D01*
X127710314Y-101847496D01*
X127647496Y-101910314D01*
X127573629Y-101959671D01*
X127573628Y-101959672D01*
X127573627Y-101959672D01*
X127491552Y-101993669D01*
X127404421Y-102011000D01*
X127315579Y-102011000D01*
X127228448Y-101993669D01*
X127146373Y-101959672D01*
X127146372Y-101959672D01*
X127146371Y-101959671D01*
X127072504Y-101910314D01*
X127009686Y-101847496D01*
X126960329Y-101773629D01*
X126950672Y-101750315D01*
X126926331Y-101691552D01*
X126909000Y-101604421D01*
X126909000Y-101515579D01*
X126926331Y-101428448D01*
X126960328Y-101346373D01*
X127009685Y-101272505D01*
X127072505Y-101209685D01*
X127109187Y-101185175D01*
X127146371Y-101160329D01*
X127146373Y-101160328D01*
X127228448Y-101126331D01*
X127315579Y-101109000D01*
X127404421Y-101109000D01*
X127491552Y-101126331D01*
X127491552Y-101126331D01*
G37*
G36*
X116931552Y-100966331D02*
G01*
X117013627Y-101000328D01*
X117013629Y-101000329D01*
X117050813Y-101025175D01*
X117087495Y-101049685D01*
X117150315Y-101112505D01*
X117199672Y-101186373D01*
X117233669Y-101268448D01*
X117251000Y-101355579D01*
X117251000Y-101444421D01*
X117233669Y-101531552D01*
X117203485Y-101604421D01*
X117199671Y-101613629D01*
X117150314Y-101687496D01*
X117087496Y-101750314D01*
X117013629Y-101799671D01*
X117013628Y-101799672D01*
X117013627Y-101799672D01*
X116931552Y-101833669D01*
X116844421Y-101851000D01*
X116755579Y-101851000D01*
X116668448Y-101833669D01*
X116586373Y-101799672D01*
X116586372Y-101799672D01*
X116586371Y-101799671D01*
X116512504Y-101750314D01*
X116449686Y-101687496D01*
X116400329Y-101613629D01*
X116396515Y-101604421D01*
X116366331Y-101531552D01*
X116349000Y-101444421D01*
X116349000Y-101355579D01*
X116366331Y-101268448D01*
X116400328Y-101186373D01*
X116449685Y-101112505D01*
X116512505Y-101049685D01*
X116549187Y-101025175D01*
X116586371Y-101000329D01*
X116586373Y-101000328D01*
X116668448Y-100966331D01*
X116755579Y-100949000D01*
X116844421Y-100949000D01*
X116931552Y-100966331D01*
X116931552Y-100966331D01*
G37*
G36*
X119531552Y-100566331D02*
G01*
X119613627Y-100600328D01*
X119613629Y-100600329D01*
X119650813Y-100625175D01*
X119687495Y-100649685D01*
X119750315Y-100712505D01*
X119799672Y-100786373D01*
X119833669Y-100868448D01*
X119851000Y-100955579D01*
X119851000Y-101044421D01*
X119833669Y-101131552D01*
X119799672Y-101213627D01*
X119750315Y-101287495D01*
X119687495Y-101350315D01*
X119679615Y-101355580D01*
X119613629Y-101399671D01*
X119613628Y-101399672D01*
X119613627Y-101399672D01*
X119531552Y-101433669D01*
X119444421Y-101451000D01*
X119355579Y-101451000D01*
X119268448Y-101433669D01*
X119186373Y-101399672D01*
X119186372Y-101399672D01*
X119186371Y-101399671D01*
X119120385Y-101355580D01*
X119112505Y-101350315D01*
X119049685Y-101287495D01*
X119000328Y-101213627D01*
X118966331Y-101131552D01*
X118949000Y-101044421D01*
X118949000Y-100955579D01*
X118966331Y-100868448D01*
X119000328Y-100786373D01*
X119049685Y-100712505D01*
X119112505Y-100649685D01*
X119149187Y-100625175D01*
X119186371Y-100600329D01*
X119186373Y-100600328D01*
X119268448Y-100566331D01*
X119355579Y-100549000D01*
X119444421Y-100549000D01*
X119531552Y-100566331D01*
X119531552Y-100566331D01*
G37*
G36*
X126551552Y-100246331D02*
G01*
X126633627Y-100280328D01*
X126633629Y-100280329D01*
X126707496Y-100329686D01*
X126770314Y-100392504D01*
X126811156Y-100453627D01*
X126819672Y-100466373D01*
X126853669Y-100548448D01*
X126871000Y-100635579D01*
X126871000Y-100724421D01*
X126853669Y-100811552D01*
X126819672Y-100893627D01*
X126771093Y-100966331D01*
X126770314Y-100967496D01*
X126707496Y-101030314D01*
X126633629Y-101079671D01*
X126633628Y-101079672D01*
X126633627Y-101079672D01*
X126551552Y-101113669D01*
X126464421Y-101131000D01*
X126375579Y-101131000D01*
X126288448Y-101113669D01*
X126206373Y-101079672D01*
X126206372Y-101079672D01*
X126206371Y-101079671D01*
X126132504Y-101030314D01*
X126069686Y-100967496D01*
X126068908Y-100966331D01*
X126020328Y-100893627D01*
X125986331Y-100811552D01*
X125969000Y-100724421D01*
X125969000Y-100635579D01*
X125986331Y-100548448D01*
X126020328Y-100466373D01*
X126028845Y-100453627D01*
X126069686Y-100392504D01*
X126132504Y-100329686D01*
X126206371Y-100280329D01*
X126206373Y-100280328D01*
X126288448Y-100246331D01*
X126375579Y-100229000D01*
X126464421Y-100229000D01*
X126551552Y-100246331D01*
X126551552Y-100246331D01*
G37*
G36*
X147431552Y-99806331D02*
G01*
X147513627Y-99840328D01*
X147513629Y-99840329D01*
X147550813Y-99865175D01*
X147587495Y-99889685D01*
X147650315Y-99952505D01*
X147699672Y-100026373D01*
X147733669Y-100108448D01*
X147751000Y-100195579D01*
X147751000Y-100284421D01*
X147733669Y-100371552D01*
X147699672Y-100453627D01*
X147699671Y-100453629D01*
X147650314Y-100527496D01*
X147587496Y-100590314D01*
X147513629Y-100639671D01*
X147513628Y-100639672D01*
X147513627Y-100639672D01*
X147431552Y-100673669D01*
X147344421Y-100691000D01*
X147255579Y-100691000D01*
X147168448Y-100673669D01*
X147086373Y-100639672D01*
X147086372Y-100639672D01*
X147086371Y-100639671D01*
X147012504Y-100590314D01*
X146949686Y-100527496D01*
X146900329Y-100453629D01*
X146900328Y-100453627D01*
X146866331Y-100371552D01*
X146849000Y-100284421D01*
X146849000Y-100195579D01*
X146866331Y-100108448D01*
X146900328Y-100026373D01*
X146949685Y-99952505D01*
X147012505Y-99889685D01*
X147049187Y-99865175D01*
X147086371Y-99840329D01*
X147086373Y-99840328D01*
X147168448Y-99806331D01*
X147255579Y-99789000D01*
X147344421Y-99789000D01*
X147431552Y-99806331D01*
X147431552Y-99806331D01*
G37*
G36*
X162492804Y-97993102D02*
G01*
X162564781Y-98000191D01*
X162734620Y-98051711D01*
X162891145Y-98135376D01*
X162926883Y-98164706D01*
X163028340Y-98247968D01*
X163111602Y-98349425D01*
X163140932Y-98385163D01*
X163224597Y-98541688D01*
X163276117Y-98711527D01*
X163293513Y-98888154D01*
X163276117Y-99064781D01*
X163224597Y-99234620D01*
X163140932Y-99391145D01*
X163111602Y-99426883D01*
X163028340Y-99528340D01*
X162926883Y-99611602D01*
X162891145Y-99640932D01*
X162734620Y-99724597D01*
X162564781Y-99776117D01*
X162498597Y-99782635D01*
X162432414Y-99789154D01*
X162343894Y-99789154D01*
X162277711Y-99782635D01*
X162211527Y-99776117D01*
X162041688Y-99724597D01*
X161885163Y-99640932D01*
X161849425Y-99611602D01*
X161747968Y-99528340D01*
X161664706Y-99426883D01*
X161635376Y-99391145D01*
X161551711Y-99234620D01*
X161500191Y-99064781D01*
X161482795Y-98888154D01*
X161500191Y-98711527D01*
X161551711Y-98541688D01*
X161635376Y-98385163D01*
X161664706Y-98349425D01*
X161747968Y-98247968D01*
X161849425Y-98164706D01*
X161885163Y-98135376D01*
X162041688Y-98051711D01*
X162211527Y-98000191D01*
X162283504Y-97993102D01*
X162343894Y-97987154D01*
X162432414Y-97987154D01*
X162492804Y-97993102D01*
X162492804Y-97993102D01*
G37*
G36*
X160696762Y-96197051D02*
G01*
X160768729Y-96204139D01*
X160938568Y-96255659D01*
X161095093Y-96339324D01*
X161130831Y-96368654D01*
X161232288Y-96451916D01*
X161315550Y-96553373D01*
X161344880Y-96589111D01*
X161428545Y-96745636D01*
X161480065Y-96915475D01*
X161497461Y-97092102D01*
X161480065Y-97268729D01*
X161428545Y-97438568D01*
X161344880Y-97595093D01*
X161315550Y-97630831D01*
X161232288Y-97732288D01*
X161130831Y-97815550D01*
X161095093Y-97844880D01*
X160938568Y-97928545D01*
X160768729Y-97980065D01*
X160702544Y-97986584D01*
X160636362Y-97993102D01*
X160547842Y-97993102D01*
X160481660Y-97986584D01*
X160415475Y-97980065D01*
X160245636Y-97928545D01*
X160089111Y-97844880D01*
X160053373Y-97815550D01*
X159951916Y-97732288D01*
X159868654Y-97630831D01*
X159839324Y-97595093D01*
X159755659Y-97438568D01*
X159704139Y-97268729D01*
X159686743Y-97092102D01*
X159704139Y-96915475D01*
X159755659Y-96745636D01*
X159839324Y-96589111D01*
X159868654Y-96553373D01*
X159951916Y-96451916D01*
X160053373Y-96368654D01*
X160089111Y-96339324D01*
X160245636Y-96255659D01*
X160415475Y-96204139D01*
X160487442Y-96197051D01*
X160547842Y-96191102D01*
X160636362Y-96191102D01*
X160696762Y-96197051D01*
X160696762Y-96197051D01*
G37*
G36*
X118280494Y-96917389D02*
G01*
X118362569Y-96951386D01*
X118362571Y-96951387D01*
X118399755Y-96976233D01*
X118436437Y-97000743D01*
X118499257Y-97063563D01*
X118548614Y-97137431D01*
X118582611Y-97219506D01*
X118599942Y-97306637D01*
X118599942Y-97395479D01*
X118582611Y-97482610D01*
X118548614Y-97564685D01*
X118548613Y-97564687D01*
X118499256Y-97638554D01*
X118436438Y-97701372D01*
X118362571Y-97750729D01*
X118362570Y-97750730D01*
X118362569Y-97750730D01*
X118280494Y-97784727D01*
X118193363Y-97802058D01*
X118104521Y-97802058D01*
X118017390Y-97784727D01*
X117935315Y-97750730D01*
X117935314Y-97750730D01*
X117935313Y-97750729D01*
X117861446Y-97701372D01*
X117798628Y-97638554D01*
X117749271Y-97564687D01*
X117749270Y-97564685D01*
X117715273Y-97482610D01*
X117697942Y-97395479D01*
X117697942Y-97306637D01*
X117715273Y-97219506D01*
X117749270Y-97137431D01*
X117798627Y-97063563D01*
X117861447Y-97000743D01*
X117898129Y-96976233D01*
X117935313Y-96951387D01*
X117935315Y-96951386D01*
X118017390Y-96917389D01*
X118104521Y-96900058D01*
X118193363Y-96900058D01*
X118280494Y-96917389D01*
X118280494Y-96917389D01*
G37*
G36*
X158906493Y-94401569D02*
G01*
X158972678Y-94408088D01*
X159142517Y-94459608D01*
X159299042Y-94543273D01*
X159334780Y-94572603D01*
X159436237Y-94655865D01*
X159519499Y-94757322D01*
X159548829Y-94793060D01*
X159632494Y-94949585D01*
X159684014Y-95119424D01*
X159701410Y-95296051D01*
X159684014Y-95472678D01*
X159632494Y-95642517D01*
X159548829Y-95799042D01*
X159519499Y-95834780D01*
X159436237Y-95936237D01*
X159334780Y-96019499D01*
X159299042Y-96048829D01*
X159142517Y-96132494D01*
X158972678Y-96184014D01*
X158906493Y-96190533D01*
X158840311Y-96197051D01*
X158751791Y-96197051D01*
X158685609Y-96190533D01*
X158619424Y-96184014D01*
X158449585Y-96132494D01*
X158293060Y-96048829D01*
X158257322Y-96019499D01*
X158155865Y-95936237D01*
X158072603Y-95834780D01*
X158043273Y-95799042D01*
X157959608Y-95642517D01*
X157908088Y-95472678D01*
X157890692Y-95296051D01*
X157908088Y-95119424D01*
X157959608Y-94949585D01*
X158043273Y-94793060D01*
X158072603Y-94757322D01*
X158155865Y-94655865D01*
X158257322Y-94572603D01*
X158293060Y-94543273D01*
X158449585Y-94459608D01*
X158619424Y-94408088D01*
X158685608Y-94401570D01*
X158751791Y-94395051D01*
X158840311Y-94395051D01*
X158906493Y-94401569D01*
X158906493Y-94401569D01*
G37*
G36*
X158274206Y-93500000D02*
G01*
X157000000Y-94774206D01*
X155725794Y-93500000D01*
X157000000Y-92225794D01*
X158274206Y-93500000D01*
X158274206Y-93500000D01*
G37*
G36*
X150588865Y-89681256D02*
G01*
X150660832Y-89688344D01*
X150830671Y-89739864D01*
X150987196Y-89823529D01*
X151022934Y-89852859D01*
X151124391Y-89936121D01*
X151207653Y-90037578D01*
X151236983Y-90073316D01*
X151320648Y-90229841D01*
X151372168Y-90399680D01*
X151389564Y-90576307D01*
X151372168Y-90752934D01*
X151320648Y-90922773D01*
X151236983Y-91079298D01*
X151207653Y-91115036D01*
X151124391Y-91216493D01*
X151022934Y-91299755D01*
X150987196Y-91329085D01*
X150830671Y-91412750D01*
X150660832Y-91464270D01*
X150594647Y-91470789D01*
X150528465Y-91477307D01*
X150439945Y-91477307D01*
X150373763Y-91470789D01*
X150307578Y-91464270D01*
X150137739Y-91412750D01*
X149981214Y-91329085D01*
X149945476Y-91299755D01*
X149844019Y-91216493D01*
X149760757Y-91115036D01*
X149731427Y-91079298D01*
X149647762Y-90922773D01*
X149596242Y-90752934D01*
X149578846Y-90576307D01*
X149596242Y-90399680D01*
X149647762Y-90229841D01*
X149731427Y-90073316D01*
X149760757Y-90037578D01*
X149844019Y-89936121D01*
X149945476Y-89852859D01*
X149981214Y-89823529D01*
X150137739Y-89739864D01*
X150307578Y-89688344D01*
X150379545Y-89681256D01*
X150439945Y-89675307D01*
X150528465Y-89675307D01*
X150588865Y-89681256D01*
X150588865Y-89681256D01*
G37*
G36*
X152384916Y-87885205D02*
G01*
X152456883Y-87892293D01*
X152626722Y-87943813D01*
X152783247Y-88027478D01*
X152818985Y-88056808D01*
X152920442Y-88140070D01*
X153003704Y-88241527D01*
X153033034Y-88277265D01*
X153116699Y-88433790D01*
X153168219Y-88603629D01*
X153185615Y-88780256D01*
X153168219Y-88956883D01*
X153116699Y-89126722D01*
X153033034Y-89283247D01*
X153003704Y-89318985D01*
X152920442Y-89420442D01*
X152818985Y-89503704D01*
X152783247Y-89533034D01*
X152626722Y-89616699D01*
X152456883Y-89668219D01*
X152390699Y-89674737D01*
X152324516Y-89681256D01*
X152235996Y-89681256D01*
X152169813Y-89674737D01*
X152103629Y-89668219D01*
X151933790Y-89616699D01*
X151777265Y-89533034D01*
X151741527Y-89503704D01*
X151640070Y-89420442D01*
X151556808Y-89318985D01*
X151527478Y-89283247D01*
X151443813Y-89126722D01*
X151392293Y-88956883D01*
X151374897Y-88780256D01*
X151392293Y-88603629D01*
X151443813Y-88433790D01*
X151527478Y-88277265D01*
X151556808Y-88241527D01*
X151640070Y-88140070D01*
X151741527Y-88056808D01*
X151777265Y-88027478D01*
X151933790Y-87943813D01*
X152103629Y-87892293D01*
X152175596Y-87885205D01*
X152235996Y-87879256D01*
X152324516Y-87879256D01*
X152384916Y-87885205D01*
X152384916Y-87885205D01*
G37*
G36*
X148792814Y-87885205D02*
G01*
X148864781Y-87892293D01*
X149034620Y-87943813D01*
X149191145Y-88027478D01*
X149226883Y-88056808D01*
X149328340Y-88140070D01*
X149411602Y-88241527D01*
X149440932Y-88277265D01*
X149524597Y-88433790D01*
X149576117Y-88603629D01*
X149593513Y-88780256D01*
X149576117Y-88956883D01*
X149524597Y-89126722D01*
X149440932Y-89283247D01*
X149411602Y-89318985D01*
X149328340Y-89420442D01*
X149226883Y-89503704D01*
X149191145Y-89533034D01*
X149034620Y-89616699D01*
X148864781Y-89668219D01*
X148798597Y-89674737D01*
X148732414Y-89681256D01*
X148643894Y-89681256D01*
X148577711Y-89674737D01*
X148511527Y-89668219D01*
X148341688Y-89616699D01*
X148185163Y-89533034D01*
X148149425Y-89503704D01*
X148047968Y-89420442D01*
X147964706Y-89318985D01*
X147935376Y-89283247D01*
X147851711Y-89126722D01*
X147800191Y-88956883D01*
X147782795Y-88780256D01*
X147800191Y-88603629D01*
X147851711Y-88433790D01*
X147935376Y-88277265D01*
X147964706Y-88241527D01*
X148047968Y-88140070D01*
X148149425Y-88056808D01*
X148185163Y-88027478D01*
X148341688Y-87943813D01*
X148511527Y-87892293D01*
X148583494Y-87885205D01*
X148643894Y-87879256D01*
X148732414Y-87879256D01*
X148792814Y-87885205D01*
X148792814Y-87885205D01*
G37*
G36*
X146996762Y-86089154D02*
G01*
X147068729Y-86096242D01*
X147238568Y-86147762D01*
X147395093Y-86231427D01*
X147430831Y-86260757D01*
X147532288Y-86344019D01*
X147615550Y-86445476D01*
X147644880Y-86481214D01*
X147728545Y-86637739D01*
X147780065Y-86807578D01*
X147797461Y-86984205D01*
X147780065Y-87160832D01*
X147728545Y-87330671D01*
X147644880Y-87487196D01*
X147615550Y-87522934D01*
X147532288Y-87624391D01*
X147430831Y-87707653D01*
X147395093Y-87736983D01*
X147238568Y-87820648D01*
X147068729Y-87872168D01*
X147002544Y-87878687D01*
X146936362Y-87885205D01*
X146847842Y-87885205D01*
X146781660Y-87878687D01*
X146715475Y-87872168D01*
X146545636Y-87820648D01*
X146389111Y-87736983D01*
X146353373Y-87707653D01*
X146251916Y-87624391D01*
X146168654Y-87522934D01*
X146139324Y-87487196D01*
X146055659Y-87330671D01*
X146004139Y-87160832D01*
X145986743Y-86984205D01*
X146004139Y-86807578D01*
X146055659Y-86637739D01*
X146139324Y-86481214D01*
X146168654Y-86445476D01*
X146251916Y-86344019D01*
X146353373Y-86260757D01*
X146389111Y-86231427D01*
X146545636Y-86147762D01*
X146715475Y-86096242D01*
X146787442Y-86089154D01*
X146847842Y-86083205D01*
X146936362Y-86083205D01*
X146996762Y-86089154D01*
X146996762Y-86089154D01*
G37*
G36*
X150588865Y-86089154D02*
G01*
X150660832Y-86096242D01*
X150830671Y-86147762D01*
X150987196Y-86231427D01*
X151022934Y-86260757D01*
X151124391Y-86344019D01*
X151207653Y-86445476D01*
X151236983Y-86481214D01*
X151320648Y-86637739D01*
X151372168Y-86807578D01*
X151389564Y-86984205D01*
X151372168Y-87160832D01*
X151320648Y-87330671D01*
X151236983Y-87487196D01*
X151207653Y-87522934D01*
X151124391Y-87624391D01*
X151022934Y-87707653D01*
X150987196Y-87736983D01*
X150830671Y-87820648D01*
X150660832Y-87872168D01*
X150594647Y-87878687D01*
X150528465Y-87885205D01*
X150439945Y-87885205D01*
X150373763Y-87878687D01*
X150307578Y-87872168D01*
X150137739Y-87820648D01*
X149981214Y-87736983D01*
X149945476Y-87707653D01*
X149844019Y-87624391D01*
X149760757Y-87522934D01*
X149731427Y-87487196D01*
X149647762Y-87330671D01*
X149596242Y-87160832D01*
X149578846Y-86984205D01*
X149596242Y-86807578D01*
X149647762Y-86637739D01*
X149731427Y-86481214D01*
X149760757Y-86445476D01*
X149844019Y-86344019D01*
X149945476Y-86260757D01*
X149981214Y-86231427D01*
X150137739Y-86147762D01*
X150307578Y-86096242D01*
X150379545Y-86089154D01*
X150439945Y-86083205D01*
X150528465Y-86083205D01*
X150588865Y-86089154D01*
X150588865Y-86089154D01*
G37*
G36*
X145200701Y-84293102D02*
G01*
X145272678Y-84300191D01*
X145442517Y-84351711D01*
X145599042Y-84435376D01*
X145634780Y-84464706D01*
X145736237Y-84547968D01*
X145819499Y-84649425D01*
X145848829Y-84685163D01*
X145932494Y-84841688D01*
X145984014Y-85011527D01*
X146001410Y-85188154D01*
X145984014Y-85364781D01*
X145932494Y-85534620D01*
X145848829Y-85691145D01*
X145819499Y-85726883D01*
X145736237Y-85828340D01*
X145634780Y-85911602D01*
X145599042Y-85940932D01*
X145442517Y-86024597D01*
X145272678Y-86076117D01*
X145206493Y-86082636D01*
X145140311Y-86089154D01*
X145051791Y-86089154D01*
X144985609Y-86082636D01*
X144919424Y-86076117D01*
X144749585Y-86024597D01*
X144593060Y-85940932D01*
X144557322Y-85911602D01*
X144455865Y-85828340D01*
X144372603Y-85726883D01*
X144343273Y-85691145D01*
X144259608Y-85534620D01*
X144208088Y-85364781D01*
X144190692Y-85188154D01*
X144208088Y-85011527D01*
X144259608Y-84841688D01*
X144343273Y-84685163D01*
X144372603Y-84649425D01*
X144455865Y-84547968D01*
X144557322Y-84464706D01*
X144593060Y-84435376D01*
X144749585Y-84351711D01*
X144919424Y-84300191D01*
X144991401Y-84293102D01*
X145051791Y-84287154D01*
X145140311Y-84287154D01*
X145200701Y-84293102D01*
X145200701Y-84293102D01*
G37*
G36*
X148792804Y-84293102D02*
G01*
X148864781Y-84300191D01*
X149034620Y-84351711D01*
X149191145Y-84435376D01*
X149226883Y-84464706D01*
X149328340Y-84547968D01*
X149411602Y-84649425D01*
X149440932Y-84685163D01*
X149524597Y-84841688D01*
X149576117Y-85011527D01*
X149593513Y-85188154D01*
X149576117Y-85364781D01*
X149524597Y-85534620D01*
X149440932Y-85691145D01*
X149411602Y-85726883D01*
X149328340Y-85828340D01*
X149226883Y-85911602D01*
X149191145Y-85940932D01*
X149034620Y-86024597D01*
X148864781Y-86076117D01*
X148798596Y-86082636D01*
X148732414Y-86089154D01*
X148643894Y-86089154D01*
X148577712Y-86082636D01*
X148511527Y-86076117D01*
X148341688Y-86024597D01*
X148185163Y-85940932D01*
X148149425Y-85911602D01*
X148047968Y-85828340D01*
X147964706Y-85726883D01*
X147935376Y-85691145D01*
X147851711Y-85534620D01*
X147800191Y-85364781D01*
X147782795Y-85188154D01*
X147800191Y-85011527D01*
X147851711Y-84841688D01*
X147935376Y-84685163D01*
X147964706Y-84649425D01*
X148047968Y-84547968D01*
X148149425Y-84464706D01*
X148185163Y-84435376D01*
X148341688Y-84351711D01*
X148511527Y-84300191D01*
X148583504Y-84293102D01*
X148643894Y-84287154D01*
X148732414Y-84287154D01*
X148792804Y-84293102D01*
X148792804Y-84293102D01*
G37*
G36*
X143404660Y-82497051D02*
G01*
X143476627Y-82504139D01*
X143646466Y-82555659D01*
X143802991Y-82639324D01*
X143838729Y-82668654D01*
X143940186Y-82751916D01*
X144023448Y-82853373D01*
X144052778Y-82889111D01*
X144136443Y-83045636D01*
X144187963Y-83215475D01*
X144205359Y-83392102D01*
X144187963Y-83568729D01*
X144136443Y-83738568D01*
X144052778Y-83895093D01*
X144023448Y-83930831D01*
X143940186Y-84032288D01*
X143838729Y-84115550D01*
X143802991Y-84144880D01*
X143646466Y-84228545D01*
X143476627Y-84280065D01*
X143410442Y-84286584D01*
X143344260Y-84293102D01*
X143255740Y-84293102D01*
X143189558Y-84286584D01*
X143123373Y-84280065D01*
X142953534Y-84228545D01*
X142797009Y-84144880D01*
X142761271Y-84115550D01*
X142659814Y-84032288D01*
X142576552Y-83930831D01*
X142547222Y-83895093D01*
X142463557Y-83738568D01*
X142412037Y-83568729D01*
X142394641Y-83392102D01*
X142412037Y-83215475D01*
X142463557Y-83045636D01*
X142547222Y-82889111D01*
X142576552Y-82853373D01*
X142659814Y-82751916D01*
X142761271Y-82668654D01*
X142797009Y-82639324D01*
X142953534Y-82555659D01*
X143123373Y-82504139D01*
X143195340Y-82497051D01*
X143255740Y-82491102D01*
X143344260Y-82491102D01*
X143404660Y-82497051D01*
X143404660Y-82497051D01*
G37*
G36*
X146996762Y-82497051D02*
G01*
X147068729Y-82504139D01*
X147238568Y-82555659D01*
X147395093Y-82639324D01*
X147430831Y-82668654D01*
X147532288Y-82751916D01*
X147615550Y-82853373D01*
X147644880Y-82889111D01*
X147728545Y-83045636D01*
X147780065Y-83215475D01*
X147797461Y-83392102D01*
X147780065Y-83568729D01*
X147728545Y-83738568D01*
X147644880Y-83895093D01*
X147615550Y-83930831D01*
X147532288Y-84032288D01*
X147430831Y-84115550D01*
X147395093Y-84144880D01*
X147238568Y-84228545D01*
X147068729Y-84280065D01*
X147002544Y-84286584D01*
X146936362Y-84293102D01*
X146847842Y-84293102D01*
X146781660Y-84286584D01*
X146715475Y-84280065D01*
X146545636Y-84228545D01*
X146389111Y-84144880D01*
X146353373Y-84115550D01*
X146251916Y-84032288D01*
X146168654Y-83930831D01*
X146139324Y-83895093D01*
X146055659Y-83738568D01*
X146004139Y-83568729D01*
X145986743Y-83392102D01*
X146004139Y-83215475D01*
X146055659Y-83045636D01*
X146139324Y-82889111D01*
X146168654Y-82853373D01*
X146251916Y-82751916D01*
X146353373Y-82668654D01*
X146389111Y-82639324D01*
X146545636Y-82555659D01*
X146715475Y-82504139D01*
X146787442Y-82497051D01*
X146847842Y-82491102D01*
X146936362Y-82491102D01*
X146996762Y-82497051D01*
X146996762Y-82497051D01*
G37*
G36*
X133271552Y-82776331D02*
G01*
X133353627Y-82810328D01*
X133353629Y-82810329D01*
X133390813Y-82835175D01*
X133427495Y-82859685D01*
X133490315Y-82922505D01*
X133539672Y-82996373D01*
X133573669Y-83078448D01*
X133591000Y-83165579D01*
X133591000Y-83254421D01*
X133573669Y-83341552D01*
X133539672Y-83423627D01*
X133490315Y-83497495D01*
X133427495Y-83560315D01*
X133390813Y-83584825D01*
X133353629Y-83609671D01*
X133353628Y-83609672D01*
X133353627Y-83609672D01*
X133271552Y-83643669D01*
X133184421Y-83661000D01*
X133095579Y-83661000D01*
X133008448Y-83643669D01*
X132926373Y-83609672D01*
X132926372Y-83609672D01*
X132926371Y-83609671D01*
X132889187Y-83584825D01*
X132852505Y-83560315D01*
X132789685Y-83497495D01*
X132740328Y-83423627D01*
X132706331Y-83341552D01*
X132689000Y-83254421D01*
X132689000Y-83165579D01*
X132706331Y-83078448D01*
X132740328Y-82996373D01*
X132789685Y-82922505D01*
X132852505Y-82859685D01*
X132889187Y-82835175D01*
X132926371Y-82810329D01*
X132926373Y-82810328D01*
X133008448Y-82776331D01*
X133095579Y-82759000D01*
X133184421Y-82759000D01*
X133271552Y-82776331D01*
X133271552Y-82776331D01*
G37*
G36*
X145206493Y-80701569D02*
G01*
X145272678Y-80708088D01*
X145442517Y-80759608D01*
X145599042Y-80843273D01*
X145634780Y-80872603D01*
X145736237Y-80955865D01*
X145819499Y-81057322D01*
X145848829Y-81093060D01*
X145932494Y-81249585D01*
X145984014Y-81419424D01*
X146001410Y-81596051D01*
X145984014Y-81772678D01*
X145932494Y-81942517D01*
X145848829Y-82099042D01*
X145819499Y-82134780D01*
X145736237Y-82236237D01*
X145634780Y-82319499D01*
X145599042Y-82348829D01*
X145442517Y-82432494D01*
X145272678Y-82484014D01*
X145206493Y-82490533D01*
X145140311Y-82497051D01*
X145051791Y-82497051D01*
X144985609Y-82490533D01*
X144919424Y-82484014D01*
X144749585Y-82432494D01*
X144593060Y-82348829D01*
X144557322Y-82319499D01*
X144455865Y-82236237D01*
X144372603Y-82134780D01*
X144343273Y-82099042D01*
X144259608Y-81942517D01*
X144208088Y-81772678D01*
X144190692Y-81596051D01*
X144208088Y-81419424D01*
X144259608Y-81249585D01*
X144343273Y-81093060D01*
X144372603Y-81057322D01*
X144455865Y-80955865D01*
X144557322Y-80872603D01*
X144593060Y-80843273D01*
X144749585Y-80759608D01*
X144919424Y-80708088D01*
X144985609Y-80701569D01*
X145051791Y-80695051D01*
X145140311Y-80695051D01*
X145206493Y-80701569D01*
X145206493Y-80701569D01*
G37*
G36*
X141614391Y-80701569D02*
G01*
X141680576Y-80708088D01*
X141850415Y-80759608D01*
X142006940Y-80843273D01*
X142042678Y-80872603D01*
X142144135Y-80955865D01*
X142227397Y-81057322D01*
X142256727Y-81093060D01*
X142340392Y-81249585D01*
X142391912Y-81419424D01*
X142409308Y-81596051D01*
X142391912Y-81772678D01*
X142340392Y-81942517D01*
X142256727Y-82099042D01*
X142227397Y-82134780D01*
X142144135Y-82236237D01*
X142042678Y-82319499D01*
X142006940Y-82348829D01*
X141850415Y-82432494D01*
X141680576Y-82484014D01*
X141614391Y-82490533D01*
X141548209Y-82497051D01*
X141459689Y-82497051D01*
X141393507Y-82490533D01*
X141327322Y-82484014D01*
X141157483Y-82432494D01*
X141000958Y-82348829D01*
X140965220Y-82319499D01*
X140863763Y-82236237D01*
X140780501Y-82134780D01*
X140751171Y-82099042D01*
X140667506Y-81942517D01*
X140615986Y-81772678D01*
X140598590Y-81596051D01*
X140615986Y-81419424D01*
X140667506Y-81249585D01*
X140751171Y-81093060D01*
X140780501Y-81057322D01*
X140863763Y-80955865D01*
X140965220Y-80872603D01*
X141000958Y-80843273D01*
X141157483Y-80759608D01*
X141327322Y-80708088D01*
X141393507Y-80701569D01*
X141459689Y-80695051D01*
X141548209Y-80695051D01*
X141614391Y-80701569D01*
X141614391Y-80701569D01*
G37*
G36*
X144574206Y-79800000D02*
G01*
X143300000Y-81074206D01*
X142025794Y-79800000D01*
X143300000Y-78525794D01*
X144574206Y-79800000D01*
X144574206Y-79800000D01*
G37*
M02*
