G04 #@! TF.GenerationSoftware,KiCad,Pcbnew,(5.1.4)-1*
G04 #@! TF.CreationDate,2020-04-17T22:20:22+02:00*
G04 #@! TF.ProjectId,Frontplatte,46726f6e-7470-46c6-9174-74652e6b6963,rev?*
G04 #@! TF.SameCoordinates,Original*
G04 #@! TF.FileFunction,Soldermask,Bot*
G04 #@! TF.FilePolarity,Negative*
%FSLAX46Y46*%
G04 Gerber Fmt 4.6, Leading zero omitted, Abs format (unit mm)*
G04 Created by KiCad (PCBNEW (5.1.4)-1) date 2020-04-17 22:20:22*
%MOMM*%
%LPD*%
G04 APERTURE LIST*
%ADD10C,0.100000*%
G04 APERTURE END LIST*
D10*
G36*
X127350318Y-96345153D02*
G01*
X127568885Y-96435687D01*
X127568887Y-96435688D01*
X127765593Y-96567122D01*
X127932878Y-96734407D01*
X128064312Y-96931113D01*
X128064313Y-96931115D01*
X128154847Y-97149682D01*
X128201000Y-97381710D01*
X128201000Y-97618290D01*
X128154847Y-97850318D01*
X128064313Y-98068885D01*
X128064312Y-98068887D01*
X127932878Y-98265593D01*
X127765593Y-98432878D01*
X127568887Y-98564312D01*
X127568886Y-98564313D01*
X127568885Y-98564313D01*
X127350318Y-98654847D01*
X127118290Y-98701000D01*
X126881710Y-98701000D01*
X126649682Y-98654847D01*
X126431115Y-98564313D01*
X126431114Y-98564313D01*
X126431113Y-98564312D01*
X126234407Y-98432878D01*
X126067122Y-98265593D01*
X125935688Y-98068887D01*
X125935687Y-98068885D01*
X125845153Y-97850318D01*
X125799000Y-97618290D01*
X125799000Y-97381710D01*
X125845153Y-97149682D01*
X125935687Y-96931115D01*
X125935688Y-96931113D01*
X126067122Y-96734407D01*
X126234407Y-96567122D01*
X126431113Y-96435688D01*
X126431115Y-96435687D01*
X126649682Y-96345153D01*
X126881710Y-96299000D01*
X127118290Y-96299000D01*
X127350318Y-96345153D01*
X127350318Y-96345153D01*
G37*
G36*
X127350318Y-81345153D02*
G01*
X127568885Y-81435687D01*
X127568887Y-81435688D01*
X127765593Y-81567122D01*
X127932878Y-81734407D01*
X128064312Y-81931113D01*
X128064313Y-81931115D01*
X128154847Y-82149682D01*
X128201000Y-82381710D01*
X128201000Y-82618290D01*
X128154847Y-82850318D01*
X128064313Y-83068885D01*
X128064312Y-83068887D01*
X127932878Y-83265593D01*
X127765593Y-83432878D01*
X127568887Y-83564312D01*
X127568886Y-83564313D01*
X127568885Y-83564313D01*
X127350318Y-83654847D01*
X127118290Y-83701000D01*
X126881710Y-83701000D01*
X126649682Y-83654847D01*
X126431115Y-83564313D01*
X126431114Y-83564313D01*
X126431113Y-83564312D01*
X126234407Y-83432878D01*
X126067122Y-83265593D01*
X125935688Y-83068887D01*
X125935687Y-83068885D01*
X125845153Y-82850318D01*
X125799000Y-82618290D01*
X125799000Y-82381710D01*
X125845153Y-82149682D01*
X125935687Y-81931115D01*
X125935688Y-81931113D01*
X126067122Y-81734407D01*
X126234407Y-81567122D01*
X126431113Y-81435688D01*
X126431115Y-81435687D01*
X126649682Y-81345153D01*
X126881710Y-81299000D01*
X127118290Y-81299000D01*
X127350318Y-81345153D01*
X127350318Y-81345153D01*
G37*
G36*
X127350318Y-66345153D02*
G01*
X127568885Y-66435687D01*
X127568887Y-66435688D01*
X127765593Y-66567122D01*
X127932878Y-66734407D01*
X128064312Y-66931113D01*
X128064313Y-66931115D01*
X128154847Y-67149682D01*
X128201000Y-67381710D01*
X128201000Y-67618290D01*
X128154847Y-67850318D01*
X128064313Y-68068885D01*
X128064312Y-68068887D01*
X127932878Y-68265593D01*
X127765593Y-68432878D01*
X127568887Y-68564312D01*
X127568886Y-68564313D01*
X127568885Y-68564313D01*
X127350318Y-68654847D01*
X127118290Y-68701000D01*
X126881710Y-68701000D01*
X126649682Y-68654847D01*
X126431115Y-68564313D01*
X126431114Y-68564313D01*
X126431113Y-68564312D01*
X126234407Y-68432878D01*
X126067122Y-68265593D01*
X125935688Y-68068887D01*
X125935687Y-68068885D01*
X125845153Y-67850318D01*
X125799000Y-67618290D01*
X125799000Y-67381710D01*
X125845153Y-67149682D01*
X125935687Y-66931115D01*
X125935688Y-66931113D01*
X126067122Y-66734407D01*
X126234407Y-66567122D01*
X126431113Y-66435688D01*
X126431115Y-66435687D01*
X126649682Y-66345153D01*
X126881710Y-66299000D01*
X127118290Y-66299000D01*
X127350318Y-66345153D01*
X127350318Y-66345153D01*
G37*
G36*
X127160318Y-51395153D02*
G01*
X127378885Y-51485687D01*
X127378887Y-51485688D01*
X127575593Y-51617122D01*
X127742878Y-51784407D01*
X127874312Y-51981113D01*
X127874313Y-51981115D01*
X127964847Y-52199682D01*
X128011000Y-52431710D01*
X128011000Y-52668290D01*
X127964847Y-52900318D01*
X127874313Y-53118885D01*
X127874312Y-53118887D01*
X127742878Y-53315593D01*
X127575593Y-53482878D01*
X127378887Y-53614312D01*
X127378886Y-53614313D01*
X127378885Y-53614313D01*
X127160318Y-53704847D01*
X126928290Y-53751000D01*
X126691710Y-53751000D01*
X126459682Y-53704847D01*
X126241115Y-53614313D01*
X126241114Y-53614313D01*
X126241113Y-53614312D01*
X126044407Y-53482878D01*
X125877122Y-53315593D01*
X125745688Y-53118887D01*
X125745687Y-53118885D01*
X125655153Y-52900318D01*
X125609000Y-52668290D01*
X125609000Y-52431710D01*
X125655153Y-52199682D01*
X125745687Y-51981115D01*
X125745688Y-51981113D01*
X125877122Y-51784407D01*
X126044407Y-51617122D01*
X126241113Y-51485688D01*
X126241115Y-51485687D01*
X126459682Y-51395153D01*
X126691710Y-51349000D01*
X126928290Y-51349000D01*
X127160318Y-51395153D01*
X127160318Y-51395153D01*
G37*
M02*
