G04 #@! TF.GenerationSoftware,KiCad,Pcbnew,(5.1.4)-1*
G04 #@! TF.CreationDate,2020-04-17T22:35:52+02:00*
G04 #@! TF.ProjectId,Sensorbaustein,53656e73-6f72-4626-9175-737465696e2e,1.7*
G04 #@! TF.SameCoordinates,Original*
G04 #@! TF.FileFunction,Legend,Top*
G04 #@! TF.FilePolarity,Positive*
%FSLAX46Y46*%
G04 Gerber Fmt 4.6, Leading zero omitted, Abs format (unit mm)*
G04 Created by KiCad (PCBNEW (5.1.4)-1) date 2020-04-17 22:35:52*
%MOMM*%
%LPD*%
G04 APERTURE LIST*
%ADD10C,0.150000*%
%ADD11C,0.500000*%
%ADD12C,0.120000*%
%ADD13C,0.400000*%
%ADD14C,0.254000*%
%ADD15C,0.100000*%
%ADD16C,0.200000*%
%ADD17C,1.052000*%
%ADD18C,1.002000*%
%ADD19C,5.102000*%
%ADD20C,0.552000*%
%ADD21C,1.552000*%
%ADD22C,1.552000*%
%ADD23C,1.252000*%
%ADD24C,1.252000*%
%ADD25C,0.902000*%
%ADD26C,0.902000*%
%ADD27R,0.902000X1.002000*%
%ADD28C,2.702000*%
%ADD29C,0.352000*%
%ADD30C,1.802000*%
%ADD31C,1.802000*%
%ADD32R,2.102000X3.902000*%
%ADD33R,2.102000X1.602000*%
%ADD34C,1.312000*%
%ADD35C,0.702000*%
%ADD36C,3.302000*%
G04 APERTURE END LIST*
D10*
X151246490Y-129470800D02*
X151651252Y-130171868D01*
X151740110Y-130230538D01*
X151805159Y-130247967D01*
X151911447Y-130241588D01*
X152076405Y-130146350D01*
X152135074Y-130057491D01*
X152152503Y-129992442D01*
X152146124Y-129886154D01*
X151741362Y-129185086D01*
X152588706Y-129795586D02*
X152736233Y-129765397D01*
X152942430Y-129646350D01*
X153001099Y-129557491D01*
X153018529Y-129492442D01*
X153012149Y-129386154D01*
X152964530Y-129303676D01*
X152875672Y-129245007D01*
X152810623Y-129227577D01*
X152704335Y-129233956D01*
X152515568Y-129287955D01*
X152409280Y-129294335D01*
X152344231Y-129276905D01*
X152255373Y-129218236D01*
X152207754Y-129135758D01*
X152201374Y-129029469D01*
X152218804Y-128964421D01*
X152277473Y-128875562D01*
X152483669Y-128756515D01*
X152631197Y-128726325D01*
X153505311Y-128716527D02*
X153652839Y-128686337D01*
X153717888Y-128703767D01*
X153806746Y-128762436D01*
X153878174Y-128886154D01*
X153884554Y-128992442D01*
X153867124Y-129057491D01*
X153808455Y-129146350D01*
X153478541Y-129336826D01*
X152978541Y-128470800D01*
X153267216Y-128304134D01*
X153373504Y-128297754D01*
X153438553Y-128315184D01*
X153527411Y-128373853D01*
X153575030Y-128456331D01*
X153581410Y-128562620D01*
X153563980Y-128627668D01*
X153505311Y-128716527D01*
X153216636Y-128883193D01*
X154939346Y-128438444D02*
X155086874Y-128408254D01*
X155293070Y-128289207D01*
X155351739Y-128200348D01*
X155369169Y-128135299D01*
X155362789Y-128029011D01*
X155315170Y-127946533D01*
X155226312Y-127887864D01*
X155161263Y-127870434D01*
X155054975Y-127876814D01*
X154866208Y-127930812D01*
X154759920Y-127937192D01*
X154694871Y-127919762D01*
X154606013Y-127861093D01*
X154558394Y-127778615D01*
X154552014Y-127672327D01*
X154569444Y-127607278D01*
X154628113Y-127518419D01*
X154834310Y-127399372D01*
X154981837Y-127369182D01*
X155867002Y-127188047D02*
X156200335Y-127765397D01*
X155495848Y-127402333D02*
X155757753Y-127855965D01*
X155846611Y-127914634D01*
X155952899Y-127908254D01*
X156076617Y-127836826D01*
X156135286Y-127747967D01*
X156152716Y-127682919D01*
X156279395Y-126949952D02*
X156779395Y-127815977D01*
X156303204Y-126991191D02*
X156361873Y-126902333D01*
X156526831Y-126807094D01*
X156633119Y-126800715D01*
X156698168Y-126818145D01*
X156787026Y-126876814D01*
X156929883Y-127124249D01*
X156936263Y-127230538D01*
X156918833Y-127295586D01*
X156860164Y-127384445D01*
X156695207Y-127479683D01*
X156588919Y-127486063D01*
X157062942Y-126497571D02*
X157562942Y-127363596D01*
X157086751Y-126538810D02*
X157145420Y-126449952D01*
X157310377Y-126354714D01*
X157416666Y-126348334D01*
X157481714Y-126365764D01*
X157570573Y-126424433D01*
X157713430Y-126671868D01*
X157719810Y-126778157D01*
X157702380Y-126843205D01*
X157643711Y-126932064D01*
X157478753Y-127027302D01*
X157372465Y-127033682D01*
X158303540Y-126551111D02*
X158197251Y-126557491D01*
X158108393Y-126498822D01*
X157679822Y-125756515D01*
X158217642Y-125830904D02*
X158757172Y-126289207D01*
X158630035Y-125592809D02*
X158757172Y-126289207D01*
X158793741Y-126543022D01*
X158776311Y-126608071D01*
X158717642Y-126696929D01*
X154344780Y-130741958D02*
X154238492Y-130748338D01*
X154173443Y-130730908D01*
X154084585Y-130672239D01*
X153941728Y-130424803D01*
X153935348Y-130318515D01*
X153952778Y-130253466D01*
X154011447Y-130164608D01*
X154135165Y-130093179D01*
X154241453Y-130086800D01*
X154306502Y-130104229D01*
X154395360Y-130162898D01*
X154538217Y-130410334D01*
X154544597Y-130516622D01*
X154527167Y-130581671D01*
X154468498Y-130670530D01*
X154344780Y-130741958D01*
X154671276Y-129783656D02*
X155004609Y-130361006D01*
X154718895Y-129866134D02*
X154736325Y-129801085D01*
X154794994Y-129712227D01*
X154918712Y-129640798D01*
X155025000Y-129634419D01*
X155113858Y-129693088D01*
X155375763Y-130146720D01*
X155882936Y-128644217D02*
X155783486Y-130186250D01*
X156819139Y-129313387D02*
X156712850Y-129319766D01*
X156647802Y-129302337D01*
X156558943Y-129243668D01*
X156416086Y-128996232D01*
X156409706Y-128889944D01*
X156427136Y-128824895D01*
X156485805Y-128736036D01*
X156609523Y-128664608D01*
X156715811Y-128658228D01*
X156780860Y-128675658D01*
X156869718Y-128734327D01*
X157012576Y-128981763D01*
X157018955Y-129088051D01*
X157001526Y-129153100D01*
X156942856Y-129241958D01*
X156819139Y-129313387D01*
X157021916Y-128426513D02*
X157351831Y-128236036D01*
X157478967Y-128932434D02*
X157050396Y-128190127D01*
X157044016Y-128083839D01*
X157102685Y-127994980D01*
X157185164Y-127947361D01*
X157516788Y-128140798D02*
X157846702Y-127950322D01*
X157973839Y-128646720D02*
X157545268Y-127904413D01*
X157538888Y-127798124D01*
X157597557Y-127709266D01*
X157680036Y-127661647D01*
X123434263Y-114074026D02*
X123905668Y-113602622D01*
X123838324Y-113669965D02*
X123905668Y-113669965D01*
X124006683Y-113703637D01*
X124107698Y-113804652D01*
X124141370Y-113905668D01*
X124107698Y-114006683D01*
X123737309Y-114377072D01*
X124107698Y-114006683D02*
X124208713Y-113973011D01*
X124309729Y-114006683D01*
X124410744Y-114107698D01*
X124444416Y-114208713D01*
X124410744Y-114309729D01*
X124040355Y-114680118D01*
X124478087Y-115117851D02*
X124444416Y-115016835D01*
X124444416Y-114949492D01*
X124478087Y-114848477D01*
X124680118Y-114646446D01*
X124781133Y-114612774D01*
X124848477Y-114612774D01*
X124949492Y-114646446D01*
X125050507Y-114747461D01*
X125084179Y-114848477D01*
X125084179Y-114915820D01*
X125050507Y-115016835D01*
X124848477Y-115218866D01*
X124747461Y-115252538D01*
X124680118Y-115252538D01*
X124579103Y-115218866D01*
X124478087Y-115117851D01*
X125319881Y-115959644D02*
X126026988Y-115252538D01*
X125353553Y-115925973D02*
X125252538Y-115892301D01*
X125117851Y-115757614D01*
X125084179Y-115656599D01*
X125084179Y-115589255D01*
X125117851Y-115488240D01*
X125319881Y-115286209D01*
X125420896Y-115252538D01*
X125488240Y-115252538D01*
X125589255Y-115286209D01*
X125723942Y-115420896D01*
X125757614Y-115521912D01*
X125959644Y-116532064D02*
X125858629Y-116498392D01*
X125723942Y-116363705D01*
X125690270Y-116262690D01*
X125723942Y-116161675D01*
X125993316Y-115892301D01*
X126094331Y-115858629D01*
X126195347Y-115892301D01*
X126330034Y-116026988D01*
X126363705Y-116128003D01*
X126330034Y-116229018D01*
X126262690Y-116296362D01*
X125858629Y-116026988D01*
X118700591Y-109373011D02*
X118599576Y-109339339D01*
X118464889Y-109204652D01*
X118431217Y-109103637D01*
X118464889Y-109002622D01*
X118734263Y-108733248D01*
X118835278Y-108699576D01*
X118936294Y-108733248D01*
X119070981Y-108867935D01*
X119104652Y-108968950D01*
X119070981Y-109069965D01*
X119003637Y-109137309D01*
X118599576Y-108867935D01*
X119475042Y-109271996D02*
X119003637Y-109743400D01*
X119407698Y-109339339D02*
X119475042Y-109339339D01*
X119576057Y-109373011D01*
X119677072Y-109474026D01*
X119710744Y-109575042D01*
X119677072Y-109676057D01*
X119306683Y-110046446D01*
X119946446Y-110686209D02*
X120316835Y-110315820D01*
X120350507Y-110214805D01*
X120316835Y-110113790D01*
X120182148Y-109979103D01*
X120081133Y-109945431D01*
X119980118Y-110652538D02*
X119879103Y-110618866D01*
X119710744Y-110450507D01*
X119677072Y-110349492D01*
X119710744Y-110248477D01*
X119778087Y-110181133D01*
X119879103Y-110147461D01*
X119980118Y-110181133D01*
X120148477Y-110349492D01*
X120249492Y-110383164D01*
X120283164Y-111022927D02*
X120990270Y-110315820D01*
X120720896Y-110585194D02*
X120821912Y-110618866D01*
X120956599Y-110753553D01*
X120990270Y-110854568D01*
X120990270Y-110921912D01*
X120956599Y-111022927D01*
X120754568Y-111224957D01*
X120653553Y-111258629D01*
X120586209Y-111258629D01*
X120485194Y-111224957D01*
X120350507Y-111090270D01*
X120316835Y-110989255D01*
X121023942Y-111763705D02*
X120990270Y-111662690D01*
X121023942Y-111561675D01*
X121630034Y-110955583D01*
X121596362Y-112268782D02*
X121495347Y-112235110D01*
X121360660Y-112100423D01*
X121326988Y-111999408D01*
X121360660Y-111898392D01*
X121630034Y-111629018D01*
X121731049Y-111595347D01*
X121832064Y-111629018D01*
X121966751Y-111763705D01*
X122000423Y-111864721D01*
X121966751Y-111965736D01*
X121899408Y-112033079D01*
X121495347Y-111763705D01*
X119255160Y-119227580D02*
X119154145Y-119193908D01*
X119019458Y-119059221D01*
X118985786Y-118958206D01*
X118985786Y-118890862D01*
X119019458Y-118789847D01*
X119221488Y-118587816D01*
X119322503Y-118554145D01*
X119389847Y-118554145D01*
X119490862Y-118587816D01*
X119625549Y-118722503D01*
X119659221Y-118823519D01*
X119625549Y-119665312D02*
X119591877Y-119564297D01*
X119625549Y-119463282D01*
X120231641Y-118857190D01*
X120197969Y-120170389D02*
X120096954Y-120136717D01*
X119962267Y-120002030D01*
X119928595Y-119901015D01*
X119962267Y-119799999D01*
X120231641Y-119530625D01*
X120332656Y-119496954D01*
X120433671Y-119530625D01*
X120568358Y-119665312D01*
X120602030Y-119766328D01*
X120568358Y-119867343D01*
X120501015Y-119934687D01*
X120096954Y-119665312D01*
X120804061Y-120843824D02*
X121174450Y-120473435D01*
X121208122Y-120372419D01*
X121174450Y-120271404D01*
X121039763Y-120136717D01*
X120938748Y-120103045D01*
X120837732Y-120810152D02*
X120736717Y-120776480D01*
X120568358Y-120608122D01*
X120534687Y-120507106D01*
X120568358Y-120406091D01*
X120635702Y-120338748D01*
X120736717Y-120305076D01*
X120837732Y-120338748D01*
X121006091Y-120507106D01*
X121107106Y-120540778D01*
X121140778Y-121180541D02*
X121612183Y-120709137D01*
X121477496Y-120843824D02*
X121578511Y-120810152D01*
X121645854Y-120810152D01*
X121746870Y-120843824D01*
X121814213Y-120911167D01*
D11*
X156805549Y-90165549D02*
X156738206Y-90367580D01*
X156805549Y-90569610D01*
X157007580Y-90636954D01*
X157209610Y-90569610D01*
X157276954Y-90367580D01*
X157209610Y-90165549D01*
X157007580Y-90098206D01*
X156805549Y-90165549D01*
X142955549Y-76515549D02*
X142888206Y-76717580D01*
X142955549Y-76919610D01*
X143157580Y-76986954D01*
X143359610Y-76919610D01*
X143426954Y-76717580D01*
X143359610Y-76515549D01*
X143157580Y-76448206D01*
X142955549Y-76515549D01*
D10*
X164932030Y-97607732D02*
X164359610Y-97506717D01*
X164527969Y-98011793D02*
X163820862Y-97304687D01*
X164090236Y-97035312D01*
X164191251Y-97001641D01*
X164258595Y-97001641D01*
X164359610Y-97035312D01*
X164460625Y-97136328D01*
X164494297Y-97237343D01*
X164494297Y-97304687D01*
X164460625Y-97405702D01*
X164191251Y-97675076D01*
X164460625Y-96664923D02*
X165639137Y-96900625D01*
X164932030Y-96193519D02*
X165167732Y-97372030D01*
X161794026Y-95421522D02*
X162198087Y-95017461D01*
X162703164Y-95926599D02*
X161996057Y-95219492D01*
X162366446Y-94849103D02*
X163544957Y-95084805D01*
X162837851Y-94377698D02*
X163073553Y-95556209D01*
X160696057Y-94203705D02*
X159988950Y-93496599D01*
X160460355Y-93025194D02*
X160595042Y-92890507D01*
X160696057Y-92856835D01*
X160830744Y-92856835D01*
X160999103Y-92957851D01*
X161234805Y-93193553D01*
X161335820Y-93361912D01*
X161335820Y-93496599D01*
X161302148Y-93597614D01*
X161167461Y-93732301D01*
X161066446Y-93765973D01*
X160931759Y-93765973D01*
X160763400Y-93664957D01*
X160527698Y-93429255D01*
X160426683Y-93260896D01*
X160426683Y-93126209D01*
X160460355Y-93025194D01*
X162143942Y-92755820D02*
X161739881Y-93159881D01*
X161941912Y-92957851D02*
X161234805Y-92250744D01*
X161268477Y-92419103D01*
X161268477Y-92553790D01*
X161234805Y-92654805D01*
X162076599Y-91408950D02*
X161739881Y-91745668D01*
X162042927Y-92116057D01*
X162042927Y-92048713D01*
X162076599Y-91947698D01*
X162244957Y-91779339D01*
X162345973Y-91745668D01*
X162413316Y-91745668D01*
X162514331Y-91779339D01*
X162682690Y-91947698D01*
X162716362Y-92048713D01*
X162716362Y-92116057D01*
X162682690Y-92217072D01*
X162514331Y-92385431D01*
X162413316Y-92419103D01*
X162345973Y-92419103D01*
X158982774Y-92386988D02*
X158275668Y-91679881D01*
X158747072Y-91208477D02*
X158881759Y-91073790D01*
X158982774Y-91040118D01*
X159117461Y-91040118D01*
X159285820Y-91141133D01*
X159521522Y-91376835D01*
X159622538Y-91545194D01*
X159622538Y-91679881D01*
X159588866Y-91780896D01*
X159454179Y-91915583D01*
X159353164Y-91949255D01*
X159218477Y-91949255D01*
X159050118Y-91848240D01*
X158814416Y-91612538D01*
X158713400Y-91444179D01*
X158713400Y-91309492D01*
X158747072Y-91208477D01*
X159386835Y-90703400D02*
X159386835Y-90636057D01*
X159420507Y-90535042D01*
X159588866Y-90366683D01*
X159689881Y-90333011D01*
X159757225Y-90333011D01*
X159858240Y-90366683D01*
X159925583Y-90434026D01*
X159992927Y-90568713D01*
X159992927Y-91376835D01*
X160430660Y-90939103D01*
X147418595Y-94331167D02*
X147081877Y-94667885D01*
X146374771Y-93960778D01*
X147283908Y-93725076D02*
X147519610Y-93489374D01*
X147991015Y-93758748D02*
X147654297Y-94095465D01*
X146947190Y-93388358D01*
X147283908Y-93051641D01*
X148294061Y-93455702D02*
X147586954Y-92748595D01*
X147755312Y-92580236D01*
X147890000Y-92512893D01*
X148024687Y-92512893D01*
X148125702Y-92546564D01*
X148294061Y-92647580D01*
X148395076Y-92748595D01*
X148496091Y-92916954D01*
X148529763Y-93017969D01*
X148529763Y-93152656D01*
X148462419Y-93287343D01*
X148294061Y-93455702D01*
X149371557Y-92378206D02*
X148967496Y-92782267D01*
X149169526Y-92580236D02*
X148462419Y-91873129D01*
X148496091Y-92041488D01*
X148496091Y-92176175D01*
X148462419Y-92277190D01*
X145568595Y-92411167D02*
X145231877Y-92747885D01*
X144524771Y-92040778D01*
X145433908Y-91805076D02*
X145669610Y-91569374D01*
X146141015Y-91838748D02*
X145804297Y-92175465D01*
X145097190Y-91468358D01*
X145433908Y-91131641D01*
X146444061Y-91535702D02*
X145736954Y-90828595D01*
X145905312Y-90660236D01*
X146040000Y-90592893D01*
X146174687Y-90592893D01*
X146275702Y-90626564D01*
X146444061Y-90727580D01*
X146545076Y-90828595D01*
X146646091Y-90996954D01*
X146679763Y-91097969D01*
X146679763Y-91232656D01*
X146612419Y-91367343D01*
X146444061Y-91535702D01*
X146477732Y-90222503D02*
X146477732Y-90155160D01*
X146511404Y-90054145D01*
X146679763Y-89885786D01*
X146780778Y-89852114D01*
X146848122Y-89852114D01*
X146949137Y-89885786D01*
X147016480Y-89953129D01*
X147083824Y-90087816D01*
X147083824Y-90895938D01*
X147521557Y-90458206D01*
X143658595Y-90561167D02*
X143321877Y-90897885D01*
X142614771Y-90190778D01*
X143523908Y-89955076D02*
X143759610Y-89719374D01*
X144231015Y-89988748D02*
X143894297Y-90325465D01*
X143187190Y-89618358D01*
X143523908Y-89281641D01*
X144534061Y-89685702D02*
X143826954Y-88978595D01*
X143995312Y-88810236D01*
X144130000Y-88742893D01*
X144264687Y-88742893D01*
X144365702Y-88776564D01*
X144534061Y-88877580D01*
X144635076Y-88978595D01*
X144736091Y-89146954D01*
X144769763Y-89247969D01*
X144769763Y-89382656D01*
X144702419Y-89517343D01*
X144534061Y-89685702D01*
X144466717Y-88338832D02*
X144904450Y-87901099D01*
X144938122Y-88406175D01*
X145039137Y-88305160D01*
X145140152Y-88271488D01*
X145207496Y-88271488D01*
X145308511Y-88305160D01*
X145476870Y-88473519D01*
X145510541Y-88574534D01*
X145510541Y-88641877D01*
X145476870Y-88742893D01*
X145274839Y-88944923D01*
X145173824Y-88978595D01*
X145106480Y-88978595D01*
X141828595Y-88831167D02*
X141491877Y-89167885D01*
X140784771Y-88460778D01*
X141693908Y-88225076D02*
X141929610Y-87989374D01*
X142401015Y-88258748D02*
X142064297Y-88595465D01*
X141357190Y-87888358D01*
X141693908Y-87551641D01*
X142704061Y-87955702D02*
X141996954Y-87248595D01*
X142165312Y-87080236D01*
X142300000Y-87012893D01*
X142434687Y-87012893D01*
X142535702Y-87046564D01*
X142704061Y-87147580D01*
X142805076Y-87248595D01*
X142906091Y-87416954D01*
X142939763Y-87517969D01*
X142939763Y-87652656D01*
X142872419Y-87787343D01*
X142704061Y-87955702D01*
X143242809Y-86474145D02*
X143714213Y-86945549D01*
X142805076Y-86373129D02*
X143141793Y-87046564D01*
X143579526Y-86608832D01*
X139747309Y-86128240D02*
X140185042Y-85690507D01*
X140218713Y-86195583D01*
X140319729Y-86094568D01*
X140420744Y-86060896D01*
X140488087Y-86060896D01*
X140589103Y-86094568D01*
X140757461Y-86262927D01*
X140791133Y-86363942D01*
X140791133Y-86431286D01*
X140757461Y-86532301D01*
X140555431Y-86734331D01*
X140454416Y-86768003D01*
X140387072Y-86768003D01*
X140387072Y-85488477D02*
X141329881Y-85959881D01*
X140858477Y-85017072D01*
X141026835Y-84848713D02*
X141464568Y-84410981D01*
X141498240Y-84916057D01*
X141599255Y-84815042D01*
X141700270Y-84781370D01*
X141767614Y-84781370D01*
X141868629Y-84815042D01*
X142036988Y-84983400D01*
X142070660Y-85084416D01*
X142070660Y-85151759D01*
X142036988Y-85252774D01*
X141834957Y-85454805D01*
X141733942Y-85488477D01*
X141666599Y-85488477D01*
X153514026Y-87221522D02*
X153918087Y-86817461D01*
X154423164Y-87726599D02*
X153716057Y-87019492D01*
X155231286Y-86918477D02*
X154827225Y-87322538D01*
X155029255Y-87120507D02*
X154322148Y-86413400D01*
X154355820Y-86581759D01*
X154355820Y-86716446D01*
X154322148Y-86817461D01*
X151404026Y-85131522D02*
X151808087Y-84727461D01*
X152313164Y-85636599D02*
X151606057Y-84929492D01*
X152077461Y-84592774D02*
X152077461Y-84525431D01*
X152111133Y-84424416D01*
X152279492Y-84256057D01*
X152380507Y-84222385D01*
X152447851Y-84222385D01*
X152548866Y-84256057D01*
X152616209Y-84323400D01*
X152683553Y-84458087D01*
X152683553Y-85266209D01*
X153121286Y-84828477D01*
X147904026Y-81691522D02*
X148308087Y-81287461D01*
X148813164Y-82196599D02*
X148106057Y-81489492D01*
X149082538Y-80984416D02*
X149553942Y-81455820D01*
X148644805Y-80883400D02*
X148981522Y-81556835D01*
X149419255Y-81119103D01*
X149774026Y-83531522D02*
X150178087Y-83127461D01*
X150683164Y-84036599D02*
X149976057Y-83329492D01*
X150346446Y-82959103D02*
X150784179Y-82521370D01*
X150817851Y-83026446D01*
X150918866Y-82925431D01*
X151019881Y-82891759D01*
X151087225Y-82891759D01*
X151188240Y-82925431D01*
X151356599Y-83093790D01*
X151390270Y-83194805D01*
X151390270Y-83262148D01*
X151356599Y-83363164D01*
X151154568Y-83565194D01*
X151053553Y-83598866D01*
X150986209Y-83598866D01*
X146339847Y-80137106D02*
X146811251Y-80608511D01*
X146407190Y-80204450D02*
X146407190Y-80137106D01*
X146440862Y-80036091D01*
X146541877Y-79935076D01*
X146642893Y-79901404D01*
X146743908Y-79935076D01*
X147114297Y-80305465D01*
X146878595Y-79598358D02*
X147147969Y-79328984D01*
X146743908Y-79261641D02*
X147350000Y-79867732D01*
X147451015Y-79901404D01*
X147552030Y-79867732D01*
X147619374Y-79800389D01*
X148124450Y-79227969D02*
X148090778Y-79328984D01*
X147956091Y-79463671D01*
X147855076Y-79497343D01*
X147787732Y-79497343D01*
X147686717Y-79463671D01*
X147484687Y-79261641D01*
X147451015Y-79160625D01*
X147451015Y-79093282D01*
X147484687Y-78992267D01*
X147619374Y-78857580D01*
X147720389Y-78823908D01*
X147888748Y-78588206D02*
X148158122Y-78318832D01*
X148461167Y-78958595D02*
X147855076Y-78352503D01*
X147821404Y-78251488D01*
X147855076Y-78150473D01*
X147922419Y-78083129D01*
X138137698Y-84105194D02*
X138036683Y-84138866D01*
X137935668Y-84239881D01*
X137868324Y-84374568D01*
X137868324Y-84509255D01*
X137901996Y-84610270D01*
X138003011Y-84778629D01*
X138104026Y-84879644D01*
X138272385Y-84980660D01*
X138373400Y-85014331D01*
X138508087Y-85014331D01*
X138642774Y-84946988D01*
X138710118Y-84879644D01*
X138777461Y-84744957D01*
X138777461Y-84677614D01*
X138541759Y-84441912D01*
X138407072Y-84576599D01*
X139147851Y-84441912D02*
X138440744Y-83734805D01*
X139551912Y-84037851D01*
X138844805Y-83330744D01*
X139888629Y-83701133D02*
X139181522Y-82994026D01*
X139349881Y-82825668D01*
X139484568Y-82758324D01*
X139619255Y-82758324D01*
X139720270Y-82791996D01*
X139888629Y-82893011D01*
X139989644Y-82994026D01*
X140090660Y-83162385D01*
X140124331Y-83263400D01*
X140124331Y-83398087D01*
X140056988Y-83532774D01*
X139888629Y-83701133D01*
X144773011Y-78343942D02*
X145244416Y-78815347D01*
X144840355Y-78411286D02*
X144840355Y-78343942D01*
X144874026Y-78242927D01*
X144975042Y-78141912D01*
X145076057Y-78108240D01*
X145177072Y-78141912D01*
X145547461Y-78512301D01*
X145311759Y-77805194D02*
X145581133Y-77535820D01*
X145177072Y-77468477D02*
X145783164Y-78074568D01*
X145884179Y-78108240D01*
X145985194Y-78074568D01*
X146052538Y-78007225D01*
X146557614Y-77434805D02*
X146523942Y-77535820D01*
X146389255Y-77670507D01*
X146288240Y-77704179D01*
X146220896Y-77704179D01*
X146119881Y-77670507D01*
X145917851Y-77468477D01*
X145884179Y-77367461D01*
X145884179Y-77300118D01*
X145917851Y-77199103D01*
X146052538Y-77064416D01*
X146153553Y-77030744D01*
X146894331Y-77165431D02*
X146422927Y-76694026D01*
X146557614Y-76828713D02*
X146523942Y-76727698D01*
X146523942Y-76660355D01*
X146557614Y-76559339D01*
X146624957Y-76491996D01*
X142334646Y-132714232D02*
X142230329Y-132692885D01*
X142092339Y-132729859D01*
X141966675Y-132812830D01*
X141899331Y-132929472D01*
X141877984Y-133033790D01*
X141881287Y-133230100D01*
X141918261Y-133368090D01*
X142013556Y-133539751D01*
X142084202Y-133619419D01*
X142200844Y-133686763D01*
X142351158Y-133695785D01*
X142443151Y-133671136D01*
X142568816Y-133588165D01*
X142602488Y-133529844D01*
X142516215Y-133207868D01*
X142332229Y-133257167D01*
X143041105Y-133510914D02*
X142782286Y-132544988D01*
X143593063Y-133363018D01*
X143334244Y-132397092D01*
X144053028Y-133239770D02*
X143794209Y-132273845D01*
X144024191Y-132212221D01*
X144174505Y-132221243D01*
X144291148Y-132288587D01*
X144361793Y-132368255D01*
X144457089Y-132539916D01*
X144494063Y-132677906D01*
X144497365Y-132874216D01*
X144476018Y-132978534D01*
X144408675Y-133095176D01*
X144283010Y-133178147D01*
X144053028Y-133239770D01*
X150274279Y-130720339D02*
X149814315Y-130843586D01*
X149891565Y-131315876D01*
X149925237Y-131257554D01*
X150004905Y-131186908D01*
X150234888Y-131125285D01*
X150339205Y-131146632D01*
X150397527Y-131180304D01*
X150468172Y-131259972D01*
X150529796Y-131489954D01*
X150508449Y-131594272D01*
X150474777Y-131652593D01*
X150395109Y-131723239D01*
X150165127Y-131784863D01*
X150060809Y-131763516D01*
X150002488Y-131729844D01*
X150596255Y-130634066D02*
X151177049Y-131513719D01*
X151240205Y-130461520D01*
D12*
X122138271Y-104050480D02*
X122380480Y-103808271D01*
X122859520Y-104771729D02*
X123101729Y-104529520D01*
X118472563Y-96170190D02*
X118203862Y-96438891D01*
X113932937Y-91630565D02*
X118472563Y-96170190D01*
X126830565Y-78732937D02*
X131370190Y-83272563D01*
X113932937Y-91630565D02*
X126830565Y-78732937D01*
X145035029Y-96937401D02*
X144327922Y-97644508D01*
X144483486Y-96385858D02*
X145035029Y-96937401D01*
X132137401Y-109835029D02*
X132844508Y-109127922D01*
X131585858Y-109283486D02*
X132137401Y-109835029D01*
D10*
X157087209Y-122226656D02*
X158234022Y-123029663D01*
X160199987Y-124406247D02*
X160322860Y-124492283D01*
X160322860Y-124492283D02*
X160494932Y-124246538D01*
X160494932Y-124246538D02*
X160863551Y-124504647D01*
X165280089Y-118197176D02*
X164911471Y-117939067D01*
X164911471Y-117939067D02*
X165083544Y-117693321D01*
X165083544Y-117693321D02*
X164960671Y-117607285D01*
X162994706Y-116230701D02*
X161847893Y-115427694D01*
X157069301Y-118460235D02*
X156653458Y-119054120D01*
X156653458Y-119054120D02*
X157001598Y-119297890D01*
X157001598Y-119297890D02*
X156428021Y-120117042D01*
X159066473Y-116348943D02*
X159640049Y-115529791D01*
D12*
X144670000Y-111560000D02*
X145600000Y-111560000D01*
X147830000Y-111560000D02*
X146900000Y-111560000D01*
X147830000Y-111560000D02*
X147830000Y-109400000D01*
X144670000Y-111560000D02*
X144670000Y-110100000D01*
X144670000Y-107560000D02*
X145600000Y-107560000D01*
X147830000Y-107560000D02*
X146900000Y-107560000D01*
X147830000Y-107560000D02*
X147830000Y-105400000D01*
X144670000Y-107560000D02*
X144670000Y-106100000D01*
X154690000Y-107465000D02*
X154690000Y-106990000D01*
X154690000Y-106990000D02*
X155165000Y-106990000D01*
X158910000Y-110735000D02*
X158910000Y-111210000D01*
X158910000Y-111210000D02*
X158435000Y-111210000D01*
X158910000Y-107465000D02*
X158910000Y-106990000D01*
X158910000Y-106990000D02*
X158435000Y-106990000D01*
X154690000Y-110735000D02*
X154690000Y-111210000D01*
X161028733Y-111510000D02*
X161371267Y-111510000D01*
X161028733Y-110490000D02*
X161371267Y-110490000D01*
X158000000Y-103335000D02*
X160460000Y-103335000D01*
X160460000Y-103335000D02*
X160460000Y-101865000D01*
X160460000Y-101865000D02*
X158000000Y-101865000D01*
X161371267Y-108510000D02*
X161028733Y-108510000D01*
X161371267Y-107490000D02*
X161028733Y-107490000D01*
X149971267Y-110310000D02*
X149628733Y-110310000D01*
X149971267Y-109290000D02*
X149628733Y-109290000D01*
X149971267Y-105290000D02*
X149628733Y-105290000D01*
X149971267Y-106310000D02*
X149628733Y-106310000D01*
X155571267Y-103110000D02*
X155228733Y-103110000D01*
X155571267Y-102090000D02*
X155228733Y-102090000D01*
X122790480Y-109208271D02*
X122548271Y-109450480D01*
X123511729Y-109929520D02*
X123269520Y-110171729D01*
X127771762Y-113996989D02*
X127529553Y-114239198D01*
X128493011Y-114718238D02*
X128250802Y-114960447D01*
X118160480Y-99499553D02*
X117918271Y-99741762D01*
X118881729Y-100220802D02*
X118639520Y-100463011D01*
X161028733Y-108990000D02*
X161371267Y-108990000D01*
X161028733Y-110010000D02*
X161371267Y-110010000D01*
X142028733Y-119110000D02*
X142371267Y-119110000D01*
X142028733Y-118090000D02*
X142371267Y-118090000D01*
X142028733Y-120090000D02*
X142371267Y-120090000D01*
X142028733Y-121110000D02*
X142371267Y-121110000D01*
X133540000Y-117290000D02*
X133540000Y-118550000D01*
X133540000Y-124110000D02*
X133540000Y-122850000D01*
X137300000Y-117290000D02*
X133540000Y-117290000D01*
X139550000Y-124110000D02*
X133540000Y-124110000D01*
X122001729Y-103429520D02*
X121759520Y-103671729D01*
X121280480Y-102708271D02*
X121038271Y-102950480D01*
D13*
X146162919Y-121219991D02*
G75*
G03X146162919Y-121219991I-157000J0D01*
G01*
D14*
X149671224Y-129227178D02*
X147626554Y-121596364D01*
X146773446Y-130003636D02*
X149671224Y-129227178D01*
X144728776Y-122372822D02*
X146773446Y-130003636D01*
X147626554Y-121596364D02*
X144728776Y-122372822D01*
D12*
X162388154Y-100769058D02*
X164269058Y-98888154D01*
X156957574Y-95338478D02*
X162388154Y-100769058D01*
X158838478Y-93457574D02*
X164269058Y-98888154D01*
X156957574Y-95338478D02*
X158838478Y-93457574D01*
X156059548Y-94440452D02*
X155119096Y-93500000D01*
X155119096Y-93500000D02*
X156059548Y-92559548D01*
X139623045Y-81596051D02*
X141461522Y-79757574D01*
X139623045Y-81596051D02*
X150484205Y-92457211D01*
X150484205Y-92457211D02*
X154161160Y-88780256D01*
X145138478Y-79757574D02*
X154161160Y-88780256D01*
X143300000Y-81596051D02*
X145138478Y-79757574D01*
X141461522Y-79757574D02*
X143300000Y-81596051D01*
X143300000Y-77919096D02*
X144240452Y-78859548D01*
X142359548Y-78859548D02*
X143300000Y-77919096D01*
D15*
X119493553Y-122707767D02*
X117372233Y-120586447D01*
X120907767Y-121293553D02*
X118786447Y-119172233D01*
D16*
X120624924Y-122566346D02*
X120624924Y-122566346D01*
X120766346Y-122424924D02*
X120766346Y-122424924D01*
X120766346Y-122424924D02*
G75*
G03X120624924Y-122566346I-70711J-70711D01*
G01*
X120624924Y-122566346D02*
G75*
G03X120766346Y-122424924I70711J70711D01*
G01*
X120614924Y-113206346D02*
G75*
G03X120756346Y-113064924I70711J70711D01*
G01*
X120756346Y-113064924D02*
G75*
G03X120614924Y-113206346I-70711J-70711D01*
G01*
X120756346Y-113064924D02*
X120756346Y-113064924D01*
X120614924Y-113206346D02*
X120614924Y-113206346D01*
D15*
X120897767Y-111933553D02*
X118776447Y-109812233D01*
X119483553Y-113347767D02*
X117362233Y-111226447D01*
D16*
X125294924Y-117826346D02*
G75*
G03X125436346Y-117684924I70711J70711D01*
G01*
X125436346Y-117684924D02*
G75*
G03X125294924Y-117826346I-70711J-70711D01*
G01*
X125436346Y-117684924D02*
X125436346Y-117684924D01*
X125294924Y-117826346D02*
X125294924Y-117826346D01*
D15*
X125577767Y-116553553D02*
X123456447Y-114432233D01*
X124163553Y-117967767D02*
X122042233Y-115846447D01*
D12*
X150483482Y-126083186D02*
X151813482Y-128386814D01*
X152735148Y-124783186D02*
X150483482Y-126083186D01*
X154065148Y-127086814D02*
X151813482Y-128386814D01*
X152735148Y-124783186D02*
X154065148Y-127086814D01*
X153835000Y-124148186D02*
X154986814Y-123483186D01*
X154986814Y-123483186D02*
X155651814Y-124635000D01*
D10*
X120802030Y-102537732D02*
X120229610Y-102436717D01*
X120397969Y-102941793D02*
X119690862Y-102234687D01*
X119960236Y-101965312D01*
X120061251Y-101931641D01*
X120128595Y-101931641D01*
X120229610Y-101965312D01*
X120330625Y-102066328D01*
X120364297Y-102167343D01*
X120364297Y-102234687D01*
X120330625Y-102335702D01*
X120061251Y-102605076D01*
X121475465Y-101864297D02*
X121071404Y-102268358D01*
X121273435Y-102066328D02*
X120566328Y-101359221D01*
X120600000Y-101527580D01*
X120600000Y-101662267D01*
X120566328Y-101763282D01*
X129906984Y-108937339D02*
X129334564Y-109509759D01*
X129300892Y-109610774D01*
X129300892Y-109678118D01*
X129334564Y-109779133D01*
X129469251Y-109913820D01*
X129570266Y-109947492D01*
X129637610Y-109947492D01*
X129738625Y-109913820D01*
X130311045Y-109341400D01*
X130311045Y-110755614D02*
X129906984Y-110351553D01*
X130109014Y-110553583D02*
X130816121Y-109846477D01*
X130647762Y-109880148D01*
X130513075Y-109880148D01*
X130412060Y-109846477D01*
X155054486Y-118109662D02*
X155717609Y-118573986D01*
X155822936Y-118589605D01*
X155889257Y-118577911D01*
X155982890Y-118527210D01*
X156092143Y-118371181D01*
X156107762Y-118265853D01*
X156096068Y-118199533D01*
X156045367Y-118105899D01*
X155382244Y-117641576D01*
X156408207Y-117836774D02*
X156529154Y-117747065D01*
X156665720Y-117552029D01*
X156681339Y-117446701D01*
X156669645Y-117380381D01*
X156618943Y-117286747D01*
X156540929Y-117232121D01*
X156435601Y-117216502D01*
X156369281Y-117228196D01*
X156275647Y-117278897D01*
X156127387Y-117407613D01*
X156033754Y-117458314D01*
X155967433Y-117470008D01*
X155862106Y-117454389D01*
X155784091Y-117399763D01*
X155733390Y-117306129D01*
X155721696Y-117239809D01*
X155737315Y-117134481D01*
X155873881Y-116939445D01*
X155994827Y-116849737D01*
X156782903Y-116471439D02*
X156903850Y-116381731D01*
X156970170Y-116370037D01*
X157075498Y-116385656D01*
X157192520Y-116467595D01*
X157243221Y-116561229D01*
X157254915Y-116627549D01*
X157239296Y-116732877D01*
X157020791Y-117044935D01*
X156201639Y-116471358D01*
X156392831Y-116198308D01*
X156486464Y-116147606D01*
X156552785Y-116135912D01*
X156658112Y-116151531D01*
X156736127Y-116206158D01*
X156786828Y-116299791D01*
X156798522Y-116366112D01*
X156782903Y-116471439D01*
X156591711Y-116744490D01*
X157894812Y-115796703D02*
X157567054Y-116264790D01*
X157730933Y-116030746D02*
X156911781Y-115457170D01*
X156974176Y-115617124D01*
X156997564Y-115749765D01*
X156981945Y-115855092D01*
X144347619Y-110495238D02*
X144300000Y-110590476D01*
X144204761Y-110685714D01*
X144061904Y-110828571D01*
X144014285Y-110923809D01*
X144014285Y-111019047D01*
X144252380Y-110971428D02*
X144204761Y-111066666D01*
X144109523Y-111161904D01*
X143919047Y-111209523D01*
X143585714Y-111209523D01*
X143395238Y-111161904D01*
X143300000Y-111066666D01*
X143252380Y-110971428D01*
X143252380Y-110780952D01*
X143300000Y-110685714D01*
X143395238Y-110590476D01*
X143585714Y-110542857D01*
X143919047Y-110542857D01*
X144109523Y-110590476D01*
X144204761Y-110685714D01*
X144252380Y-110780952D01*
X144252380Y-110971428D01*
X144252380Y-109590476D02*
X144252380Y-110161904D01*
X144252380Y-109876190D02*
X143252380Y-109876190D01*
X143395238Y-109971428D01*
X143490476Y-110066666D01*
X143538095Y-110161904D01*
X144247619Y-106895238D02*
X144200000Y-106990476D01*
X144104761Y-107085714D01*
X143961904Y-107228571D01*
X143914285Y-107323809D01*
X143914285Y-107419047D01*
X144152380Y-107371428D02*
X144104761Y-107466666D01*
X144009523Y-107561904D01*
X143819047Y-107609523D01*
X143485714Y-107609523D01*
X143295238Y-107561904D01*
X143200000Y-107466666D01*
X143152380Y-107371428D01*
X143152380Y-107180952D01*
X143200000Y-107085714D01*
X143295238Y-106990476D01*
X143485714Y-106942857D01*
X143819047Y-106942857D01*
X144009523Y-106990476D01*
X144104761Y-107085714D01*
X144152380Y-107180952D01*
X144152380Y-107371428D01*
X143247619Y-106561904D02*
X143200000Y-106514285D01*
X143152380Y-106419047D01*
X143152380Y-106180952D01*
X143200000Y-106085714D01*
X143247619Y-106038095D01*
X143342857Y-105990476D01*
X143438095Y-105990476D01*
X143580952Y-106038095D01*
X144152380Y-106609523D01*
X144152380Y-105990476D01*
X152804761Y-104952380D02*
X152804761Y-105761904D01*
X152852380Y-105857142D01*
X152900000Y-105904761D01*
X152995238Y-105952380D01*
X153185714Y-105952380D01*
X153280952Y-105904761D01*
X153328571Y-105857142D01*
X153376190Y-105761904D01*
X153376190Y-104952380D01*
X153804761Y-105904761D02*
X153947619Y-105952380D01*
X154185714Y-105952380D01*
X154280952Y-105904761D01*
X154328571Y-105857142D01*
X154376190Y-105761904D01*
X154376190Y-105666666D01*
X154328571Y-105571428D01*
X154280952Y-105523809D01*
X154185714Y-105476190D01*
X153995238Y-105428571D01*
X153900000Y-105380952D01*
X153852380Y-105333333D01*
X153804761Y-105238095D01*
X153804761Y-105142857D01*
X153852380Y-105047619D01*
X153900000Y-105000000D01*
X153995238Y-104952380D01*
X154233333Y-104952380D01*
X154376190Y-105000000D01*
X155138095Y-105428571D02*
X155280952Y-105476190D01*
X155328571Y-105523809D01*
X155376190Y-105619047D01*
X155376190Y-105761904D01*
X155328571Y-105857142D01*
X155280952Y-105904761D01*
X155185714Y-105952380D01*
X154804761Y-105952380D01*
X154804761Y-104952380D01*
X155138095Y-104952380D01*
X155233333Y-105000000D01*
X155280952Y-105047619D01*
X155328571Y-105142857D01*
X155328571Y-105238095D01*
X155280952Y-105333333D01*
X155233333Y-105380952D01*
X155138095Y-105428571D01*
X154804761Y-105428571D01*
X156519047Y-104904761D02*
X155661904Y-106190476D01*
X156852380Y-104952380D02*
X156852380Y-105761904D01*
X156900000Y-105857142D01*
X156947619Y-105904761D01*
X157042857Y-105952380D01*
X157233333Y-105952380D01*
X157328571Y-105904761D01*
X157376190Y-105857142D01*
X157423809Y-105761904D01*
X157423809Y-104952380D01*
X157852380Y-105666666D02*
X158328571Y-105666666D01*
X157757142Y-105952380D02*
X158090476Y-104952380D01*
X158423809Y-105952380D01*
X159328571Y-105952380D02*
X158995238Y-105476190D01*
X158757142Y-105952380D02*
X158757142Y-104952380D01*
X159138095Y-104952380D01*
X159233333Y-105000000D01*
X159280952Y-105047619D01*
X159328571Y-105142857D01*
X159328571Y-105285714D01*
X159280952Y-105380952D01*
X159233333Y-105428571D01*
X159138095Y-105476190D01*
X158757142Y-105476190D01*
X159614285Y-104952380D02*
X160185714Y-104952380D01*
X159900000Y-105952380D02*
X159900000Y-104952380D01*
X161042857Y-105952380D02*
X160471428Y-105952380D01*
X160757142Y-105952380D02*
X160757142Y-104952380D01*
X160661904Y-105095238D01*
X160566666Y-105190476D01*
X160471428Y-105238095D01*
X164733333Y-111357142D02*
X164685714Y-111404761D01*
X164542857Y-111452380D01*
X164447619Y-111452380D01*
X164304761Y-111404761D01*
X164209523Y-111309523D01*
X164161904Y-111214285D01*
X164114285Y-111023809D01*
X164114285Y-110880952D01*
X164161904Y-110690476D01*
X164209523Y-110595238D01*
X164304761Y-110500000D01*
X164447619Y-110452380D01*
X164542857Y-110452380D01*
X164685714Y-110500000D01*
X164733333Y-110547619D01*
X165685714Y-111452380D02*
X165114285Y-111452380D01*
X165400000Y-111452380D02*
X165400000Y-110452380D01*
X165304761Y-110595238D01*
X165209523Y-110690476D01*
X165114285Y-110738095D01*
X158061904Y-101552380D02*
X158061904Y-100552380D01*
X158300000Y-100552380D01*
X158442857Y-100600000D01*
X158538095Y-100695238D01*
X158585714Y-100790476D01*
X158633333Y-100980952D01*
X158633333Y-101123809D01*
X158585714Y-101314285D01*
X158538095Y-101409523D01*
X158442857Y-101504761D01*
X158300000Y-101552380D01*
X158061904Y-101552380D01*
X159585714Y-101552380D02*
X159014285Y-101552380D01*
X159300000Y-101552380D02*
X159300000Y-100552380D01*
X159204761Y-100695238D01*
X159109523Y-100790476D01*
X159014285Y-100838095D01*
X164583333Y-108452380D02*
X164250000Y-107976190D01*
X164011904Y-108452380D02*
X164011904Y-107452380D01*
X164392857Y-107452380D01*
X164488095Y-107500000D01*
X164535714Y-107547619D01*
X164583333Y-107642857D01*
X164583333Y-107785714D01*
X164535714Y-107880952D01*
X164488095Y-107928571D01*
X164392857Y-107976190D01*
X164011904Y-107976190D01*
X164964285Y-107547619D02*
X165011904Y-107500000D01*
X165107142Y-107452380D01*
X165345238Y-107452380D01*
X165440476Y-107500000D01*
X165488095Y-107547619D01*
X165535714Y-107642857D01*
X165535714Y-107738095D01*
X165488095Y-107880952D01*
X164916666Y-108452380D01*
X165535714Y-108452380D01*
X149633333Y-111682380D02*
X149300000Y-111206190D01*
X149061904Y-111682380D02*
X149061904Y-110682380D01*
X149442857Y-110682380D01*
X149538095Y-110730000D01*
X149585714Y-110777619D01*
X149633333Y-110872857D01*
X149633333Y-111015714D01*
X149585714Y-111110952D01*
X149538095Y-111158571D01*
X149442857Y-111206190D01*
X149061904Y-111206190D01*
X149966666Y-110682380D02*
X150585714Y-110682380D01*
X150252380Y-111063333D01*
X150395238Y-111063333D01*
X150490476Y-111110952D01*
X150538095Y-111158571D01*
X150585714Y-111253809D01*
X150585714Y-111491904D01*
X150538095Y-111587142D01*
X150490476Y-111634761D01*
X150395238Y-111682380D01*
X150109523Y-111682380D01*
X150014285Y-111634761D01*
X149966666Y-111587142D01*
X149633333Y-107682380D02*
X149300000Y-107206190D01*
X149061904Y-107682380D02*
X149061904Y-106682380D01*
X149442857Y-106682380D01*
X149538095Y-106730000D01*
X149585714Y-106777619D01*
X149633333Y-106872857D01*
X149633333Y-107015714D01*
X149585714Y-107110952D01*
X149538095Y-107158571D01*
X149442857Y-107206190D01*
X149061904Y-107206190D01*
X150490476Y-107015714D02*
X150490476Y-107682380D01*
X150252380Y-106634761D02*
X150014285Y-107349047D01*
X150633333Y-107349047D01*
X155233333Y-101652380D02*
X154900000Y-101176190D01*
X154661904Y-101652380D02*
X154661904Y-100652380D01*
X155042857Y-100652380D01*
X155138095Y-100700000D01*
X155185714Y-100747619D01*
X155233333Y-100842857D01*
X155233333Y-100985714D01*
X155185714Y-101080952D01*
X155138095Y-101128571D01*
X155042857Y-101176190D01*
X154661904Y-101176190D01*
X156138095Y-100652380D02*
X155661904Y-100652380D01*
X155614285Y-101128571D01*
X155661904Y-101080952D01*
X155757142Y-101033333D01*
X155995238Y-101033333D01*
X156090476Y-101080952D01*
X156138095Y-101128571D01*
X156185714Y-101223809D01*
X156185714Y-101461904D01*
X156138095Y-101557142D01*
X156090476Y-101604761D01*
X155995238Y-101652380D01*
X155757142Y-101652380D01*
X155661904Y-101604761D01*
X155614285Y-101557142D01*
X122200819Y-109071038D02*
X121628399Y-108970023D01*
X121796758Y-109475099D02*
X121089651Y-108767993D01*
X121359025Y-108498618D01*
X121460040Y-108464947D01*
X121527384Y-108464947D01*
X121628399Y-108498618D01*
X121729414Y-108599634D01*
X121763086Y-108700649D01*
X121763086Y-108767993D01*
X121729414Y-108869008D01*
X121460040Y-109138382D01*
X122099804Y-107757840D02*
X121965117Y-107892527D01*
X121931445Y-107993542D01*
X121931445Y-108060886D01*
X121965117Y-108229244D01*
X122066132Y-108397603D01*
X122335506Y-108666977D01*
X122436521Y-108700649D01*
X122503865Y-108700649D01*
X122604880Y-108666977D01*
X122739567Y-108532290D01*
X122773239Y-108431275D01*
X122773239Y-108363931D01*
X122739567Y-108262916D01*
X122571208Y-108094557D01*
X122470193Y-108060886D01*
X122402850Y-108060886D01*
X122301834Y-108094557D01*
X122167147Y-108229244D01*
X122133476Y-108330260D01*
X122133476Y-108397603D01*
X122167147Y-108498618D01*
X127202031Y-113937732D02*
X126629611Y-113836717D01*
X126797970Y-114341793D02*
X126090863Y-113634687D01*
X126360237Y-113365312D01*
X126461252Y-113331641D01*
X126528596Y-113331641D01*
X126629611Y-113365312D01*
X126730626Y-113466328D01*
X126764298Y-113567343D01*
X126764298Y-113634687D01*
X126730626Y-113735702D01*
X126461252Y-114005076D01*
X126730626Y-112994923D02*
X127202031Y-112523519D01*
X127606092Y-113533671D01*
X117334687Y-99351671D02*
X117334687Y-99419014D01*
X117267343Y-99553701D01*
X117200000Y-99621045D01*
X117065312Y-99688388D01*
X116930625Y-99688388D01*
X116829610Y-99654717D01*
X116661251Y-99553701D01*
X116560236Y-99452686D01*
X116459221Y-99284327D01*
X116425549Y-99183312D01*
X116425549Y-99048625D01*
X116492893Y-98913938D01*
X116560236Y-98846594D01*
X116694923Y-98779251D01*
X116762267Y-98779251D01*
X116930625Y-98476205D02*
X117402030Y-98004801D01*
X117806091Y-99014953D01*
X164633333Y-109857142D02*
X164585714Y-109904761D01*
X164442857Y-109952380D01*
X164347619Y-109952380D01*
X164204761Y-109904761D01*
X164109523Y-109809523D01*
X164061904Y-109714285D01*
X164014285Y-109523809D01*
X164014285Y-109380952D01*
X164061904Y-109190476D01*
X164109523Y-109095238D01*
X164204761Y-109000000D01*
X164347619Y-108952380D01*
X164442857Y-108952380D01*
X164585714Y-109000000D01*
X164633333Y-109047619D01*
X165014285Y-109047619D02*
X165061904Y-109000000D01*
X165157142Y-108952380D01*
X165395238Y-108952380D01*
X165490476Y-109000000D01*
X165538095Y-109047619D01*
X165585714Y-109142857D01*
X165585714Y-109238095D01*
X165538095Y-109380952D01*
X164966666Y-109952380D01*
X165585714Y-109952380D01*
X142033333Y-117557142D02*
X141985714Y-117604761D01*
X141842857Y-117652380D01*
X141747619Y-117652380D01*
X141604761Y-117604761D01*
X141509523Y-117509523D01*
X141461904Y-117414285D01*
X141414285Y-117223809D01*
X141414285Y-117080952D01*
X141461904Y-116890476D01*
X141509523Y-116795238D01*
X141604761Y-116700000D01*
X141747619Y-116652380D01*
X141842857Y-116652380D01*
X141985714Y-116700000D01*
X142033333Y-116747619D01*
X142890476Y-116985714D02*
X142890476Y-117652380D01*
X142652380Y-116604761D02*
X142414285Y-117319047D01*
X143033333Y-117319047D01*
X142533333Y-122557142D02*
X142485714Y-122604761D01*
X142342857Y-122652380D01*
X142247619Y-122652380D01*
X142104761Y-122604761D01*
X142009523Y-122509523D01*
X141961904Y-122414285D01*
X141914285Y-122223809D01*
X141914285Y-122080952D01*
X141961904Y-121890476D01*
X142009523Y-121795238D01*
X142104761Y-121700000D01*
X142247619Y-121652380D01*
X142342857Y-121652380D01*
X142485714Y-121700000D01*
X142533333Y-121747619D01*
X143438095Y-121652380D02*
X142961904Y-121652380D01*
X142914285Y-122128571D01*
X142961904Y-122080952D01*
X143057142Y-122033333D01*
X143295238Y-122033333D01*
X143390476Y-122080952D01*
X143438095Y-122128571D01*
X143485714Y-122223809D01*
X143485714Y-122461904D01*
X143438095Y-122557142D01*
X143390476Y-122604761D01*
X143295238Y-122652380D01*
X143057142Y-122652380D01*
X142961904Y-122604761D01*
X142914285Y-122557142D01*
X132640476Y-124652380D02*
X132164285Y-124652380D01*
X132116666Y-125128571D01*
X132164285Y-125080952D01*
X132259523Y-125033333D01*
X132497619Y-125033333D01*
X132592857Y-125080952D01*
X132640476Y-125128571D01*
X132688095Y-125223809D01*
X132688095Y-125461904D01*
X132640476Y-125557142D01*
X132592857Y-125604761D01*
X132497619Y-125652380D01*
X132259523Y-125652380D01*
X132164285Y-125604761D01*
X132116666Y-125557142D01*
X132973809Y-124652380D02*
X133307142Y-125652380D01*
X133640476Y-124652380D01*
X134688095Y-124604761D02*
X133830952Y-125890476D01*
X134926190Y-124652380D02*
X135545238Y-124652380D01*
X135211904Y-125033333D01*
X135354761Y-125033333D01*
X135450000Y-125080952D01*
X135497619Y-125128571D01*
X135545238Y-125223809D01*
X135545238Y-125461904D01*
X135497619Y-125557142D01*
X135450000Y-125604761D01*
X135354761Y-125652380D01*
X135069047Y-125652380D01*
X134973809Y-125604761D01*
X134926190Y-125557142D01*
X135973809Y-125557142D02*
X136021428Y-125604761D01*
X135973809Y-125652380D01*
X135926190Y-125604761D01*
X135973809Y-125557142D01*
X135973809Y-125652380D01*
X136354761Y-124652380D02*
X136973809Y-124652380D01*
X136640476Y-125033333D01*
X136783333Y-125033333D01*
X136878571Y-125080952D01*
X136926190Y-125128571D01*
X136973809Y-125223809D01*
X136973809Y-125461904D01*
X136926190Y-125557142D01*
X136878571Y-125604761D01*
X136783333Y-125652380D01*
X136497619Y-125652380D01*
X136402380Y-125604761D01*
X136354761Y-125557142D01*
X137259523Y-124652380D02*
X137592857Y-125652380D01*
X137926190Y-124652380D01*
X138783333Y-125652380D02*
X138211904Y-125652380D01*
X138497619Y-125652380D02*
X138497619Y-124652380D01*
X138402380Y-124795238D01*
X138307142Y-124890476D01*
X138211904Y-124938095D01*
X123834687Y-105670389D02*
X123834687Y-105737732D01*
X123767343Y-105872419D01*
X123700000Y-105939763D01*
X123565312Y-106007106D01*
X123430625Y-106007106D01*
X123329610Y-105973435D01*
X123161251Y-105872419D01*
X123060236Y-105771404D01*
X122959221Y-105603045D01*
X122925549Y-105502030D01*
X122925549Y-105367343D01*
X122992893Y-105232656D01*
X123060236Y-105165312D01*
X123194923Y-105097969D01*
X123262267Y-105097969D01*
X123430625Y-104794923D02*
X123868358Y-104357190D01*
X123902030Y-104862267D01*
X124003045Y-104761251D01*
X124104061Y-104727580D01*
X124171404Y-104727580D01*
X124272419Y-104761251D01*
X124440778Y-104929610D01*
X124474450Y-105030625D01*
X124474450Y-105097969D01*
X124440778Y-105198984D01*
X124238748Y-105401015D01*
X124137732Y-105434687D01*
X124070389Y-105434687D01*
D14*
X147103839Y-124940642D02*
X146994272Y-124531734D01*
X146351702Y-124703910D02*
X147578427Y-124375210D01*
X147734951Y-124959365D01*
X146805621Y-126397960D02*
X146617792Y-125696974D01*
X146711707Y-126047467D02*
X147938432Y-125718767D01*
X147731881Y-125648893D01*
X147583745Y-125563367D01*
X147494025Y-125462188D01*
D10*
X154729513Y-91700918D02*
X155234589Y-92205994D01*
X155301933Y-92340681D01*
X155301933Y-92475368D01*
X155234589Y-92610055D01*
X155167246Y-92677398D01*
X155099902Y-91465215D02*
X155099902Y-91397872D01*
X155133574Y-91296857D01*
X155301933Y-91128498D01*
X155402948Y-91094826D01*
X155470292Y-91094826D01*
X155571307Y-91128498D01*
X155638650Y-91195841D01*
X155705994Y-91330528D01*
X155705994Y-92138650D01*
X156143727Y-91700918D01*
X139820361Y-78587817D02*
X140325437Y-79092893D01*
X140392781Y-79227580D01*
X140392781Y-79362267D01*
X140325437Y-79496954D01*
X140258094Y-79564297D01*
X140089735Y-78318443D02*
X140527468Y-77880710D01*
X140561140Y-78385786D01*
X140662155Y-78284771D01*
X140763170Y-78251099D01*
X140830514Y-78251099D01*
X140931529Y-78284771D01*
X141099888Y-78453130D01*
X141133559Y-78554145D01*
X141133559Y-78621488D01*
X141099888Y-78722504D01*
X140897857Y-78924534D01*
X140796842Y-78958206D01*
X140729498Y-78958206D01*
X116770981Y-121643400D02*
X116838324Y-121778087D01*
X117006683Y-121946446D01*
X117107698Y-121980118D01*
X117175042Y-121980118D01*
X117276057Y-121946446D01*
X117343400Y-121879103D01*
X117377072Y-121778087D01*
X117377072Y-121710744D01*
X117343400Y-121609729D01*
X117242385Y-121441370D01*
X117208713Y-121340355D01*
X117208713Y-121273011D01*
X117242385Y-121171996D01*
X117309729Y-121104652D01*
X117410744Y-121070981D01*
X117478087Y-121070981D01*
X117579103Y-121104652D01*
X117747461Y-121273011D01*
X117814805Y-121407698D01*
X118084179Y-121609729D02*
X117545431Y-122485194D01*
X118185194Y-122114805D01*
X117814805Y-122754568D01*
X118690270Y-122215820D01*
X118622927Y-123562690D02*
X118218866Y-123158629D01*
X118420896Y-123360660D02*
X119128003Y-122653553D01*
X118959644Y-122687225D01*
X118824957Y-122687225D01*
X118723942Y-122653553D01*
X116670981Y-112343400D02*
X116738324Y-112478087D01*
X116906683Y-112646446D01*
X117007698Y-112680118D01*
X117075042Y-112680118D01*
X117176057Y-112646446D01*
X117243400Y-112579103D01*
X117277072Y-112478087D01*
X117277072Y-112410744D01*
X117243400Y-112309729D01*
X117142385Y-112141370D01*
X117108713Y-112040355D01*
X117108713Y-111973011D01*
X117142385Y-111871996D01*
X117209729Y-111804652D01*
X117310744Y-111770981D01*
X117378087Y-111770981D01*
X117479103Y-111804652D01*
X117647461Y-111973011D01*
X117714805Y-112107698D01*
X117984179Y-112309729D02*
X117445431Y-113185194D01*
X118085194Y-112814805D01*
X117714805Y-113454568D01*
X118590270Y-112915820D01*
X118758629Y-113218866D02*
X118825973Y-113218866D01*
X118926988Y-113252538D01*
X119095347Y-113420896D01*
X119129018Y-113521912D01*
X119129018Y-113589255D01*
X119095347Y-113690270D01*
X119028003Y-113757614D01*
X118893316Y-113824957D01*
X118085194Y-113824957D01*
X118522927Y-114262690D01*
X121470981Y-116943400D02*
X121538324Y-117078087D01*
X121706683Y-117246446D01*
X121807698Y-117280118D01*
X121875042Y-117280118D01*
X121976057Y-117246446D01*
X122043400Y-117179103D01*
X122077072Y-117078087D01*
X122077072Y-117010744D01*
X122043400Y-116909729D01*
X121942385Y-116741370D01*
X121908713Y-116640355D01*
X121908713Y-116573011D01*
X121942385Y-116471996D01*
X122009729Y-116404652D01*
X122110744Y-116370981D01*
X122178087Y-116370981D01*
X122279103Y-116404652D01*
X122447461Y-116573011D01*
X122514805Y-116707698D01*
X122784179Y-116909729D02*
X122245431Y-117785194D01*
X122885194Y-117414805D01*
X122514805Y-118054568D01*
X123390270Y-117515820D01*
X123592301Y-117717851D02*
X124030034Y-118155583D01*
X123524957Y-118189255D01*
X123625973Y-118290270D01*
X123659644Y-118391286D01*
X123659644Y-118458629D01*
X123625973Y-118559644D01*
X123457614Y-118728003D01*
X123356599Y-118761675D01*
X123289255Y-118761675D01*
X123188240Y-118728003D01*
X122986209Y-118525973D01*
X122952538Y-118424957D01*
X122952538Y-118357614D01*
X151204502Y-123742414D02*
X151561645Y-124361004D01*
X151591834Y-124508531D01*
X151556975Y-124638629D01*
X151457066Y-124751297D01*
X151374588Y-124798916D01*
X152116895Y-124370344D02*
X151616895Y-123504319D01*
X151946810Y-123313843D01*
X152053098Y-123307463D01*
X152118147Y-123324893D01*
X152207005Y-123383562D01*
X152278434Y-123507280D01*
X152284813Y-123613568D01*
X152267383Y-123678617D01*
X152208714Y-123767475D01*
X151878800Y-123957951D01*
X153436553Y-123608440D02*
X152941681Y-123894154D01*
X153189117Y-123751297D02*
X152689117Y-122885271D01*
X152678067Y-123056608D01*
X152643208Y-123186706D01*
X152584538Y-123275564D01*
%LPC*%
D15*
G36*
X122062416Y-104239690D02*
G01*
X122087946Y-104243477D01*
X122112982Y-104249749D01*
X122137283Y-104258444D01*
X122160614Y-104269479D01*
X122182752Y-104282747D01*
X122203482Y-104298122D01*
X122222606Y-104315455D01*
X122594545Y-104687394D01*
X122611878Y-104706518D01*
X122627253Y-104727248D01*
X122640521Y-104749386D01*
X122651556Y-104772717D01*
X122660251Y-104797018D01*
X122666523Y-104822054D01*
X122670310Y-104847584D01*
X122671576Y-104873363D01*
X122670310Y-104899142D01*
X122666523Y-104924672D01*
X122660251Y-104949708D01*
X122651556Y-104974009D01*
X122640521Y-104997340D01*
X122627253Y-105019478D01*
X122611878Y-105040208D01*
X122594545Y-105059332D01*
X122151896Y-105501981D01*
X122132772Y-105519314D01*
X122112042Y-105534689D01*
X122089904Y-105547957D01*
X122066573Y-105558992D01*
X122042272Y-105567687D01*
X122017236Y-105573959D01*
X121991706Y-105577746D01*
X121965927Y-105579012D01*
X121940148Y-105577746D01*
X121914618Y-105573959D01*
X121889582Y-105567687D01*
X121865281Y-105558992D01*
X121841950Y-105547957D01*
X121819812Y-105534689D01*
X121799082Y-105519314D01*
X121779958Y-105501981D01*
X121408019Y-105130042D01*
X121390686Y-105110918D01*
X121375311Y-105090188D01*
X121362043Y-105068050D01*
X121351008Y-105044719D01*
X121342313Y-105020418D01*
X121336041Y-104995382D01*
X121332254Y-104969852D01*
X121330988Y-104944073D01*
X121332254Y-104918294D01*
X121336041Y-104892764D01*
X121342313Y-104867728D01*
X121351008Y-104843427D01*
X121362043Y-104820096D01*
X121375311Y-104797958D01*
X121390686Y-104777228D01*
X121408019Y-104758104D01*
X121850668Y-104315455D01*
X121869792Y-104298122D01*
X121890522Y-104282747D01*
X121912660Y-104269479D01*
X121935991Y-104258444D01*
X121960292Y-104249749D01*
X121985328Y-104243477D01*
X122010858Y-104239690D01*
X122036637Y-104238424D01*
X122062416Y-104239690D01*
X122062416Y-104239690D01*
G37*
D17*
X122001282Y-104908718D03*
D15*
G36*
X123299852Y-103002254D02*
G01*
X123325382Y-103006041D01*
X123350418Y-103012313D01*
X123374719Y-103021008D01*
X123398050Y-103032043D01*
X123420188Y-103045311D01*
X123440918Y-103060686D01*
X123460042Y-103078019D01*
X123831981Y-103449958D01*
X123849314Y-103469082D01*
X123864689Y-103489812D01*
X123877957Y-103511950D01*
X123888992Y-103535281D01*
X123897687Y-103559582D01*
X123903959Y-103584618D01*
X123907746Y-103610148D01*
X123909012Y-103635927D01*
X123907746Y-103661706D01*
X123903959Y-103687236D01*
X123897687Y-103712272D01*
X123888992Y-103736573D01*
X123877957Y-103759904D01*
X123864689Y-103782042D01*
X123849314Y-103802772D01*
X123831981Y-103821896D01*
X123389332Y-104264545D01*
X123370208Y-104281878D01*
X123349478Y-104297253D01*
X123327340Y-104310521D01*
X123304009Y-104321556D01*
X123279708Y-104330251D01*
X123254672Y-104336523D01*
X123229142Y-104340310D01*
X123203363Y-104341576D01*
X123177584Y-104340310D01*
X123152054Y-104336523D01*
X123127018Y-104330251D01*
X123102717Y-104321556D01*
X123079386Y-104310521D01*
X123057248Y-104297253D01*
X123036518Y-104281878D01*
X123017394Y-104264545D01*
X122645455Y-103892606D01*
X122628122Y-103873482D01*
X122612747Y-103852752D01*
X122599479Y-103830614D01*
X122588444Y-103807283D01*
X122579749Y-103782982D01*
X122573477Y-103757946D01*
X122569690Y-103732416D01*
X122568424Y-103706637D01*
X122569690Y-103680858D01*
X122573477Y-103655328D01*
X122579749Y-103630292D01*
X122588444Y-103605991D01*
X122599479Y-103582660D01*
X122612747Y-103560522D01*
X122628122Y-103539792D01*
X122645455Y-103520668D01*
X123088104Y-103078019D01*
X123107228Y-103060686D01*
X123127958Y-103045311D01*
X123150096Y-103032043D01*
X123173427Y-103021008D01*
X123197728Y-103012313D01*
X123222764Y-103006041D01*
X123248294Y-103002254D01*
X123274073Y-103000988D01*
X123299852Y-103002254D01*
X123299852Y-103002254D01*
G37*
D17*
X123238718Y-103671282D03*
D18*
X131773241Y-84552426D03*
D15*
G36*
X131384332Y-85649856D02*
G01*
X130675811Y-84941335D01*
X132162150Y-83454996D01*
X132870671Y-84163517D01*
X131384332Y-85649856D01*
X131384332Y-85649856D01*
G37*
D18*
X132671267Y-85450451D03*
D15*
G36*
X132282358Y-86547881D02*
G01*
X131573837Y-85839360D01*
X133060176Y-84353021D01*
X133768697Y-85061542D01*
X132282358Y-86547881D01*
X132282358Y-86547881D01*
G37*
D18*
X133569292Y-86348477D03*
D15*
G36*
X133180383Y-87445907D02*
G01*
X132471862Y-86737386D01*
X133958201Y-85251047D01*
X134666722Y-85959568D01*
X133180383Y-87445907D01*
X133180383Y-87445907D01*
G37*
D18*
X134467318Y-87246503D03*
D15*
G36*
X134078409Y-88343933D02*
G01*
X133369888Y-87635412D01*
X134856227Y-86149073D01*
X135564748Y-86857594D01*
X134078409Y-88343933D01*
X134078409Y-88343933D01*
G37*
D18*
X135365344Y-88144528D03*
D15*
G36*
X134976435Y-89241958D02*
G01*
X134267914Y-88533437D01*
X135754253Y-87047098D01*
X136462774Y-87755619D01*
X134976435Y-89241958D01*
X134976435Y-89241958D01*
G37*
D18*
X136263369Y-89042554D03*
D15*
G36*
X135874460Y-90139984D02*
G01*
X135165939Y-89431463D01*
X136652278Y-87945124D01*
X137360799Y-88653645D01*
X135874460Y-90139984D01*
X135874460Y-90139984D01*
G37*
D18*
X137161395Y-89940580D03*
D15*
G36*
X136772486Y-91038010D02*
G01*
X136063965Y-90329489D01*
X137550304Y-88843150D01*
X138258825Y-89551671D01*
X136772486Y-91038010D01*
X136772486Y-91038010D01*
G37*
D18*
X138059420Y-90838605D03*
D15*
G36*
X137670511Y-91936035D02*
G01*
X136961990Y-91227514D01*
X138448329Y-89741175D01*
X139156850Y-90449696D01*
X137670511Y-91936035D01*
X137670511Y-91936035D01*
G37*
D18*
X138957446Y-91736631D03*
D15*
G36*
X138568537Y-92834061D02*
G01*
X137860016Y-92125540D01*
X139346355Y-90639201D01*
X140054876Y-91347722D01*
X138568537Y-92834061D01*
X138568537Y-92834061D01*
G37*
D18*
X139855472Y-92634656D03*
D15*
G36*
X139466563Y-93732086D02*
G01*
X138758042Y-93023565D01*
X140244381Y-91537226D01*
X140952902Y-92245747D01*
X139466563Y-93732086D01*
X139466563Y-93732086D01*
G37*
D18*
X140753497Y-93532682D03*
D15*
G36*
X140364588Y-94630112D02*
G01*
X139656067Y-93921591D01*
X141142406Y-92435252D01*
X141850927Y-93143773D01*
X140364588Y-94630112D01*
X140364588Y-94630112D01*
G37*
D18*
X141651523Y-94430708D03*
D15*
G36*
X141262614Y-95528138D02*
G01*
X140554093Y-94819617D01*
X142040432Y-93333278D01*
X142748953Y-94041799D01*
X141262614Y-95528138D01*
X141262614Y-95528138D01*
G37*
D18*
X142549549Y-95328733D03*
D15*
G36*
X142160640Y-96426163D02*
G01*
X141452119Y-95717642D01*
X142938458Y-94231303D01*
X143646979Y-94939824D01*
X142160640Y-96426163D01*
X142160640Y-96426163D01*
G37*
D18*
X143447574Y-96226759D03*
D15*
G36*
X143058665Y-97324189D02*
G01*
X142350144Y-96615668D01*
X143836483Y-95129329D01*
X144545004Y-95837850D01*
X143058665Y-97324189D01*
X143058665Y-97324189D01*
G37*
D18*
X142185389Y-98903158D03*
D15*
G36*
X143282819Y-99292067D02*
G01*
X142574298Y-100000588D01*
X141087959Y-98514249D01*
X141796480Y-97805728D01*
X143282819Y-99292067D01*
X143282819Y-99292067D01*
G37*
D18*
X141287363Y-99801184D03*
D15*
G36*
X142384793Y-100190093D02*
G01*
X141676272Y-100898614D01*
X140189933Y-99412275D01*
X140898454Y-98703754D01*
X142384793Y-100190093D01*
X142384793Y-100190093D01*
G37*
D18*
X140389337Y-100699209D03*
D15*
G36*
X141486767Y-101088118D02*
G01*
X140778246Y-101796639D01*
X139291907Y-100310300D01*
X140000428Y-99601779D01*
X141486767Y-101088118D01*
X141486767Y-101088118D01*
G37*
D18*
X139491312Y-101597235D03*
D15*
G36*
X140588742Y-101986144D02*
G01*
X139880221Y-102694665D01*
X138393882Y-101208326D01*
X139102403Y-100499805D01*
X140588742Y-101986144D01*
X140588742Y-101986144D01*
G37*
D18*
X138593286Y-102495260D03*
D15*
G36*
X139690716Y-102884169D02*
G01*
X138982195Y-103592690D01*
X137495856Y-102106351D01*
X138204377Y-101397830D01*
X139690716Y-102884169D01*
X139690716Y-102884169D01*
G37*
D18*
X137695260Y-103393286D03*
D15*
G36*
X138792690Y-103782195D02*
G01*
X138084169Y-104490716D01*
X136597830Y-103004377D01*
X137306351Y-102295856D01*
X138792690Y-103782195D01*
X138792690Y-103782195D01*
G37*
D18*
X136797235Y-104291312D03*
D15*
G36*
X137894665Y-104680221D02*
G01*
X137186144Y-105388742D01*
X135699805Y-103902403D01*
X136408326Y-103193882D01*
X137894665Y-104680221D01*
X137894665Y-104680221D01*
G37*
D18*
X135899209Y-105189337D03*
D15*
G36*
X136996639Y-105578246D02*
G01*
X136288118Y-106286767D01*
X134801779Y-104800428D01*
X135510300Y-104091907D01*
X136996639Y-105578246D01*
X136996639Y-105578246D01*
G37*
D18*
X135001184Y-106087363D03*
D15*
G36*
X136098614Y-106476272D02*
G01*
X135390093Y-107184793D01*
X133903754Y-105698454D01*
X134612275Y-104989933D01*
X136098614Y-106476272D01*
X136098614Y-106476272D01*
G37*
D18*
X134103158Y-106985389D03*
D15*
G36*
X135200588Y-107374298D02*
G01*
X134492067Y-108082819D01*
X133005728Y-106596480D01*
X133714249Y-105887959D01*
X135200588Y-107374298D01*
X135200588Y-107374298D01*
G37*
D18*
X131426759Y-108247574D03*
D15*
G36*
X131037850Y-109345004D02*
G01*
X130329329Y-108636483D01*
X131815668Y-107150144D01*
X132524189Y-107858665D01*
X131037850Y-109345004D01*
X131037850Y-109345004D01*
G37*
D18*
X130528733Y-107349549D03*
D15*
G36*
X130139824Y-108446979D02*
G01*
X129431303Y-107738458D01*
X130917642Y-106252119D01*
X131626163Y-106960640D01*
X130139824Y-108446979D01*
X130139824Y-108446979D01*
G37*
D18*
X129630708Y-106451523D03*
D15*
G36*
X129241799Y-107548953D02*
G01*
X128533278Y-106840432D01*
X130019617Y-105354093D01*
X130728138Y-106062614D01*
X129241799Y-107548953D01*
X129241799Y-107548953D01*
G37*
D18*
X128732682Y-105553497D03*
D15*
G36*
X128343773Y-106650927D02*
G01*
X127635252Y-105942406D01*
X129121591Y-104456067D01*
X129830112Y-105164588D01*
X128343773Y-106650927D01*
X128343773Y-106650927D01*
G37*
D18*
X127834656Y-104655472D03*
D15*
G36*
X127445747Y-105752902D02*
G01*
X126737226Y-105044381D01*
X128223565Y-103558042D01*
X128932086Y-104266563D01*
X127445747Y-105752902D01*
X127445747Y-105752902D01*
G37*
D18*
X126936631Y-103757446D03*
D15*
G36*
X126547722Y-104854876D02*
G01*
X125839201Y-104146355D01*
X127325540Y-102660016D01*
X128034061Y-103368537D01*
X126547722Y-104854876D01*
X126547722Y-104854876D01*
G37*
D18*
X126038605Y-102859420D03*
D15*
G36*
X125649696Y-103956850D02*
G01*
X124941175Y-103248329D01*
X126427514Y-101761990D01*
X127136035Y-102470511D01*
X125649696Y-103956850D01*
X125649696Y-103956850D01*
G37*
D18*
X125140580Y-101961395D03*
D15*
G36*
X124751671Y-103058825D02*
G01*
X124043150Y-102350304D01*
X125529489Y-100863965D01*
X126238010Y-101572486D01*
X124751671Y-103058825D01*
X124751671Y-103058825D01*
G37*
D18*
X124242554Y-101063369D03*
D15*
G36*
X123853645Y-102160799D02*
G01*
X123145124Y-101452278D01*
X124631463Y-99965939D01*
X125339984Y-100674460D01*
X123853645Y-102160799D01*
X123853645Y-102160799D01*
G37*
D18*
X123344528Y-100165344D03*
D15*
G36*
X122955619Y-101262774D02*
G01*
X122247098Y-100554253D01*
X123733437Y-99067914D01*
X124441958Y-99776435D01*
X122955619Y-101262774D01*
X122955619Y-101262774D01*
G37*
D18*
X122446503Y-99267318D03*
D15*
G36*
X122057594Y-100364748D02*
G01*
X121349073Y-99656227D01*
X122835412Y-98169888D01*
X123543933Y-98878409D01*
X122057594Y-100364748D01*
X122057594Y-100364748D01*
G37*
D18*
X121548477Y-98369292D03*
D15*
G36*
X121159568Y-99466722D02*
G01*
X120451047Y-98758201D01*
X121937386Y-97271862D01*
X122645907Y-97980383D01*
X121159568Y-99466722D01*
X121159568Y-99466722D01*
G37*
D18*
X120650451Y-97471267D03*
D15*
G36*
X120261542Y-98568697D02*
G01*
X119553021Y-97860176D01*
X121039360Y-96373837D01*
X121747881Y-97082358D01*
X120261542Y-98568697D01*
X120261542Y-98568697D01*
G37*
D18*
X119752426Y-96573241D03*
D15*
G36*
X119363517Y-97670671D02*
G01*
X118654996Y-96962150D01*
X120141335Y-95475811D01*
X120849856Y-96184332D01*
X119363517Y-97670671D01*
X119363517Y-97670671D01*
G37*
D19*
X130359028Y-96573241D03*
D15*
G36*
X130359028Y-100180900D02*
G01*
X126751369Y-96573241D01*
X130359028Y-92965582D01*
X133966687Y-96573241D01*
X130359028Y-100180900D01*
X130359028Y-100180900D01*
G37*
D20*
X157697962Y-119175102D03*
D15*
G36*
X158113880Y-119803265D02*
G01*
X156965429Y-118999111D01*
X157282044Y-118546939D01*
X158430495Y-119351093D01*
X158113880Y-119803265D01*
X158113880Y-119803265D01*
G37*
D20*
X158070786Y-118642654D03*
D15*
G36*
X158486704Y-119270817D02*
G01*
X157338253Y-118466663D01*
X157654868Y-118014491D01*
X158803319Y-118818645D01*
X158486704Y-119270817D01*
X158486704Y-119270817D01*
G37*
D20*
X158443611Y-118110205D03*
D15*
G36*
X158859529Y-118738368D02*
G01*
X157711078Y-117934214D01*
X158027693Y-117482042D01*
X159176144Y-118286196D01*
X158859529Y-118738368D01*
X158859529Y-118738368D01*
G37*
D20*
X158816436Y-117577756D03*
D15*
G36*
X159232354Y-118205919D02*
G01*
X158083903Y-117401765D01*
X158400518Y-116949593D01*
X159548969Y-117753747D01*
X159232354Y-118205919D01*
X159232354Y-118205919D01*
G37*
D20*
X159189260Y-117045307D03*
D15*
G36*
X159605178Y-117673470D02*
G01*
X158456727Y-116869316D01*
X158773342Y-116417144D01*
X159921793Y-117221298D01*
X159605178Y-117673470D01*
X159605178Y-117673470D01*
G37*
D21*
X156347996Y-121190225D03*
D22*
X156122729Y-121032491D02*
X156573263Y-121347959D01*
D21*
X160621141Y-115087542D03*
D22*
X160395874Y-114929808D02*
X160846408Y-115245276D01*
D23*
X159374738Y-123492688D03*
D24*
X159108514Y-123306276D02*
X159640962Y-123679100D01*
D23*
X163819955Y-117144260D03*
D24*
X163553731Y-116957848D02*
X164086179Y-117330672D01*
D25*
X157910737Y-120789019D03*
D26*
X157910737Y-120789019D02*
X157910737Y-120789019D01*
D25*
X160778619Y-116693259D03*
D26*
X160778619Y-116693259D02*
X160778619Y-116693259D01*
D27*
X147200000Y-109800000D03*
X145300000Y-109800000D03*
X146250000Y-111800000D03*
X147200000Y-105800000D03*
X145300000Y-105800000D03*
X146250000Y-107800000D03*
D15*
G36*
X157916658Y-107750251D02*
G01*
X157941878Y-107753992D01*
X157966610Y-107760187D01*
X157990616Y-107768777D01*
X158013665Y-107779678D01*
X158035534Y-107792786D01*
X158056012Y-107807974D01*
X158074904Y-107825096D01*
X158092026Y-107843988D01*
X158107214Y-107864466D01*
X158120322Y-107886335D01*
X158131223Y-107909384D01*
X158139813Y-107933390D01*
X158146008Y-107958122D01*
X158149749Y-107983342D01*
X158151000Y-108008808D01*
X158151000Y-110191192D01*
X158149749Y-110216658D01*
X158146008Y-110241878D01*
X158139813Y-110266610D01*
X158131223Y-110290616D01*
X158120322Y-110313665D01*
X158107214Y-110335534D01*
X158092026Y-110356012D01*
X158074904Y-110374904D01*
X158056012Y-110392026D01*
X158035534Y-110407214D01*
X158013665Y-110420322D01*
X157990616Y-110431223D01*
X157966610Y-110439813D01*
X157941878Y-110446008D01*
X157916658Y-110449749D01*
X157891192Y-110451000D01*
X155708808Y-110451000D01*
X155683342Y-110449749D01*
X155658122Y-110446008D01*
X155633390Y-110439813D01*
X155609384Y-110431223D01*
X155586335Y-110420322D01*
X155564466Y-110407214D01*
X155543988Y-110392026D01*
X155525096Y-110374904D01*
X155507974Y-110356012D01*
X155492786Y-110335534D01*
X155479678Y-110313665D01*
X155468777Y-110290616D01*
X155460187Y-110266610D01*
X155453992Y-110241878D01*
X155450251Y-110216658D01*
X155449000Y-110191192D01*
X155449000Y-108008808D01*
X155450251Y-107983342D01*
X155453992Y-107958122D01*
X155460187Y-107933390D01*
X155468777Y-107909384D01*
X155479678Y-107886335D01*
X155492786Y-107864466D01*
X155507974Y-107843988D01*
X155525096Y-107825096D01*
X155543988Y-107807974D01*
X155564466Y-107792786D01*
X155586335Y-107779678D01*
X155609384Y-107768777D01*
X155633390Y-107760187D01*
X155658122Y-107753992D01*
X155683342Y-107750251D01*
X155708808Y-107749000D01*
X157891192Y-107749000D01*
X157916658Y-107750251D01*
X157916658Y-107750251D01*
G37*
D28*
X156800000Y-109100000D03*
D15*
G36*
X155646626Y-110574424D02*
G01*
X155655168Y-110575691D01*
X155663545Y-110577789D01*
X155671676Y-110580699D01*
X155679483Y-110584391D01*
X155686890Y-110588831D01*
X155693827Y-110593975D01*
X155700225Y-110599775D01*
X155706025Y-110606173D01*
X155711169Y-110613110D01*
X155715609Y-110620517D01*
X155719301Y-110628324D01*
X155722211Y-110636455D01*
X155724309Y-110644832D01*
X155725576Y-110653374D01*
X155726000Y-110662000D01*
X155726000Y-111413000D01*
X155725576Y-111421626D01*
X155724309Y-111430168D01*
X155722211Y-111438545D01*
X155719301Y-111446676D01*
X155715609Y-111454483D01*
X155711169Y-111461890D01*
X155706025Y-111468827D01*
X155700225Y-111475225D01*
X155693827Y-111481025D01*
X155686890Y-111486169D01*
X155679483Y-111490609D01*
X155671676Y-111494301D01*
X155663545Y-111497211D01*
X155655168Y-111499309D01*
X155646626Y-111500576D01*
X155638000Y-111501000D01*
X155462000Y-111501000D01*
X155453374Y-111500576D01*
X155444832Y-111499309D01*
X155436455Y-111497211D01*
X155428324Y-111494301D01*
X155420517Y-111490609D01*
X155413110Y-111486169D01*
X155406173Y-111481025D01*
X155399775Y-111475225D01*
X155393975Y-111468827D01*
X155388831Y-111461890D01*
X155384391Y-111454483D01*
X155380699Y-111446676D01*
X155377789Y-111438545D01*
X155375691Y-111430168D01*
X155374424Y-111421626D01*
X155374000Y-111413000D01*
X155374000Y-110662000D01*
X155374424Y-110653374D01*
X155375691Y-110644832D01*
X155377789Y-110636455D01*
X155380699Y-110628324D01*
X155384391Y-110620517D01*
X155388831Y-110613110D01*
X155393975Y-110606173D01*
X155399775Y-110599775D01*
X155406173Y-110593975D01*
X155413110Y-110588831D01*
X155420517Y-110584391D01*
X155428324Y-110580699D01*
X155436455Y-110577789D01*
X155444832Y-110575691D01*
X155453374Y-110574424D01*
X155462000Y-110574000D01*
X155638000Y-110574000D01*
X155646626Y-110574424D01*
X155646626Y-110574424D01*
G37*
D29*
X155550000Y-111037500D03*
D15*
G36*
X156146626Y-110574424D02*
G01*
X156155168Y-110575691D01*
X156163545Y-110577789D01*
X156171676Y-110580699D01*
X156179483Y-110584391D01*
X156186890Y-110588831D01*
X156193827Y-110593975D01*
X156200225Y-110599775D01*
X156206025Y-110606173D01*
X156211169Y-110613110D01*
X156215609Y-110620517D01*
X156219301Y-110628324D01*
X156222211Y-110636455D01*
X156224309Y-110644832D01*
X156225576Y-110653374D01*
X156226000Y-110662000D01*
X156226000Y-111413000D01*
X156225576Y-111421626D01*
X156224309Y-111430168D01*
X156222211Y-111438545D01*
X156219301Y-111446676D01*
X156215609Y-111454483D01*
X156211169Y-111461890D01*
X156206025Y-111468827D01*
X156200225Y-111475225D01*
X156193827Y-111481025D01*
X156186890Y-111486169D01*
X156179483Y-111490609D01*
X156171676Y-111494301D01*
X156163545Y-111497211D01*
X156155168Y-111499309D01*
X156146626Y-111500576D01*
X156138000Y-111501000D01*
X155962000Y-111501000D01*
X155953374Y-111500576D01*
X155944832Y-111499309D01*
X155936455Y-111497211D01*
X155928324Y-111494301D01*
X155920517Y-111490609D01*
X155913110Y-111486169D01*
X155906173Y-111481025D01*
X155899775Y-111475225D01*
X155893975Y-111468827D01*
X155888831Y-111461890D01*
X155884391Y-111454483D01*
X155880699Y-111446676D01*
X155877789Y-111438545D01*
X155875691Y-111430168D01*
X155874424Y-111421626D01*
X155874000Y-111413000D01*
X155874000Y-110662000D01*
X155874424Y-110653374D01*
X155875691Y-110644832D01*
X155877789Y-110636455D01*
X155880699Y-110628324D01*
X155884391Y-110620517D01*
X155888831Y-110613110D01*
X155893975Y-110606173D01*
X155899775Y-110599775D01*
X155906173Y-110593975D01*
X155913110Y-110588831D01*
X155920517Y-110584391D01*
X155928324Y-110580699D01*
X155936455Y-110577789D01*
X155944832Y-110575691D01*
X155953374Y-110574424D01*
X155962000Y-110574000D01*
X156138000Y-110574000D01*
X156146626Y-110574424D01*
X156146626Y-110574424D01*
G37*
D29*
X156050000Y-111037500D03*
D15*
G36*
X156646626Y-110574424D02*
G01*
X156655168Y-110575691D01*
X156663545Y-110577789D01*
X156671676Y-110580699D01*
X156679483Y-110584391D01*
X156686890Y-110588831D01*
X156693827Y-110593975D01*
X156700225Y-110599775D01*
X156706025Y-110606173D01*
X156711169Y-110613110D01*
X156715609Y-110620517D01*
X156719301Y-110628324D01*
X156722211Y-110636455D01*
X156724309Y-110644832D01*
X156725576Y-110653374D01*
X156726000Y-110662000D01*
X156726000Y-111413000D01*
X156725576Y-111421626D01*
X156724309Y-111430168D01*
X156722211Y-111438545D01*
X156719301Y-111446676D01*
X156715609Y-111454483D01*
X156711169Y-111461890D01*
X156706025Y-111468827D01*
X156700225Y-111475225D01*
X156693827Y-111481025D01*
X156686890Y-111486169D01*
X156679483Y-111490609D01*
X156671676Y-111494301D01*
X156663545Y-111497211D01*
X156655168Y-111499309D01*
X156646626Y-111500576D01*
X156638000Y-111501000D01*
X156462000Y-111501000D01*
X156453374Y-111500576D01*
X156444832Y-111499309D01*
X156436455Y-111497211D01*
X156428324Y-111494301D01*
X156420517Y-111490609D01*
X156413110Y-111486169D01*
X156406173Y-111481025D01*
X156399775Y-111475225D01*
X156393975Y-111468827D01*
X156388831Y-111461890D01*
X156384391Y-111454483D01*
X156380699Y-111446676D01*
X156377789Y-111438545D01*
X156375691Y-111430168D01*
X156374424Y-111421626D01*
X156374000Y-111413000D01*
X156374000Y-110662000D01*
X156374424Y-110653374D01*
X156375691Y-110644832D01*
X156377789Y-110636455D01*
X156380699Y-110628324D01*
X156384391Y-110620517D01*
X156388831Y-110613110D01*
X156393975Y-110606173D01*
X156399775Y-110599775D01*
X156406173Y-110593975D01*
X156413110Y-110588831D01*
X156420517Y-110584391D01*
X156428324Y-110580699D01*
X156436455Y-110577789D01*
X156444832Y-110575691D01*
X156453374Y-110574424D01*
X156462000Y-110574000D01*
X156638000Y-110574000D01*
X156646626Y-110574424D01*
X156646626Y-110574424D01*
G37*
D29*
X156550000Y-111037500D03*
D15*
G36*
X157146626Y-110574424D02*
G01*
X157155168Y-110575691D01*
X157163545Y-110577789D01*
X157171676Y-110580699D01*
X157179483Y-110584391D01*
X157186890Y-110588831D01*
X157193827Y-110593975D01*
X157200225Y-110599775D01*
X157206025Y-110606173D01*
X157211169Y-110613110D01*
X157215609Y-110620517D01*
X157219301Y-110628324D01*
X157222211Y-110636455D01*
X157224309Y-110644832D01*
X157225576Y-110653374D01*
X157226000Y-110662000D01*
X157226000Y-111413000D01*
X157225576Y-111421626D01*
X157224309Y-111430168D01*
X157222211Y-111438545D01*
X157219301Y-111446676D01*
X157215609Y-111454483D01*
X157211169Y-111461890D01*
X157206025Y-111468827D01*
X157200225Y-111475225D01*
X157193827Y-111481025D01*
X157186890Y-111486169D01*
X157179483Y-111490609D01*
X157171676Y-111494301D01*
X157163545Y-111497211D01*
X157155168Y-111499309D01*
X157146626Y-111500576D01*
X157138000Y-111501000D01*
X156962000Y-111501000D01*
X156953374Y-111500576D01*
X156944832Y-111499309D01*
X156936455Y-111497211D01*
X156928324Y-111494301D01*
X156920517Y-111490609D01*
X156913110Y-111486169D01*
X156906173Y-111481025D01*
X156899775Y-111475225D01*
X156893975Y-111468827D01*
X156888831Y-111461890D01*
X156884391Y-111454483D01*
X156880699Y-111446676D01*
X156877789Y-111438545D01*
X156875691Y-111430168D01*
X156874424Y-111421626D01*
X156874000Y-111413000D01*
X156874000Y-110662000D01*
X156874424Y-110653374D01*
X156875691Y-110644832D01*
X156877789Y-110636455D01*
X156880699Y-110628324D01*
X156884391Y-110620517D01*
X156888831Y-110613110D01*
X156893975Y-110606173D01*
X156899775Y-110599775D01*
X156906173Y-110593975D01*
X156913110Y-110588831D01*
X156920517Y-110584391D01*
X156928324Y-110580699D01*
X156936455Y-110577789D01*
X156944832Y-110575691D01*
X156953374Y-110574424D01*
X156962000Y-110574000D01*
X157138000Y-110574000D01*
X157146626Y-110574424D01*
X157146626Y-110574424D01*
G37*
D29*
X157050000Y-111037500D03*
D15*
G36*
X157646626Y-110574424D02*
G01*
X157655168Y-110575691D01*
X157663545Y-110577789D01*
X157671676Y-110580699D01*
X157679483Y-110584391D01*
X157686890Y-110588831D01*
X157693827Y-110593975D01*
X157700225Y-110599775D01*
X157706025Y-110606173D01*
X157711169Y-110613110D01*
X157715609Y-110620517D01*
X157719301Y-110628324D01*
X157722211Y-110636455D01*
X157724309Y-110644832D01*
X157725576Y-110653374D01*
X157726000Y-110662000D01*
X157726000Y-111413000D01*
X157725576Y-111421626D01*
X157724309Y-111430168D01*
X157722211Y-111438545D01*
X157719301Y-111446676D01*
X157715609Y-111454483D01*
X157711169Y-111461890D01*
X157706025Y-111468827D01*
X157700225Y-111475225D01*
X157693827Y-111481025D01*
X157686890Y-111486169D01*
X157679483Y-111490609D01*
X157671676Y-111494301D01*
X157663545Y-111497211D01*
X157655168Y-111499309D01*
X157646626Y-111500576D01*
X157638000Y-111501000D01*
X157462000Y-111501000D01*
X157453374Y-111500576D01*
X157444832Y-111499309D01*
X157436455Y-111497211D01*
X157428324Y-111494301D01*
X157420517Y-111490609D01*
X157413110Y-111486169D01*
X157406173Y-111481025D01*
X157399775Y-111475225D01*
X157393975Y-111468827D01*
X157388831Y-111461890D01*
X157384391Y-111454483D01*
X157380699Y-111446676D01*
X157377789Y-111438545D01*
X157375691Y-111430168D01*
X157374424Y-111421626D01*
X157374000Y-111413000D01*
X157374000Y-110662000D01*
X157374424Y-110653374D01*
X157375691Y-110644832D01*
X157377789Y-110636455D01*
X157380699Y-110628324D01*
X157384391Y-110620517D01*
X157388831Y-110613110D01*
X157393975Y-110606173D01*
X157399775Y-110599775D01*
X157406173Y-110593975D01*
X157413110Y-110588831D01*
X157420517Y-110584391D01*
X157428324Y-110580699D01*
X157436455Y-110577789D01*
X157444832Y-110575691D01*
X157453374Y-110574424D01*
X157462000Y-110574000D01*
X157638000Y-110574000D01*
X157646626Y-110574424D01*
X157646626Y-110574424D01*
G37*
D29*
X157550000Y-111037500D03*
D15*
G36*
X158146626Y-110574424D02*
G01*
X158155168Y-110575691D01*
X158163545Y-110577789D01*
X158171676Y-110580699D01*
X158179483Y-110584391D01*
X158186890Y-110588831D01*
X158193827Y-110593975D01*
X158200225Y-110599775D01*
X158206025Y-110606173D01*
X158211169Y-110613110D01*
X158215609Y-110620517D01*
X158219301Y-110628324D01*
X158222211Y-110636455D01*
X158224309Y-110644832D01*
X158225576Y-110653374D01*
X158226000Y-110662000D01*
X158226000Y-111413000D01*
X158225576Y-111421626D01*
X158224309Y-111430168D01*
X158222211Y-111438545D01*
X158219301Y-111446676D01*
X158215609Y-111454483D01*
X158211169Y-111461890D01*
X158206025Y-111468827D01*
X158200225Y-111475225D01*
X158193827Y-111481025D01*
X158186890Y-111486169D01*
X158179483Y-111490609D01*
X158171676Y-111494301D01*
X158163545Y-111497211D01*
X158155168Y-111499309D01*
X158146626Y-111500576D01*
X158138000Y-111501000D01*
X157962000Y-111501000D01*
X157953374Y-111500576D01*
X157944832Y-111499309D01*
X157936455Y-111497211D01*
X157928324Y-111494301D01*
X157920517Y-111490609D01*
X157913110Y-111486169D01*
X157906173Y-111481025D01*
X157899775Y-111475225D01*
X157893975Y-111468827D01*
X157888831Y-111461890D01*
X157884391Y-111454483D01*
X157880699Y-111446676D01*
X157877789Y-111438545D01*
X157875691Y-111430168D01*
X157874424Y-111421626D01*
X157874000Y-111413000D01*
X157874000Y-110662000D01*
X157874424Y-110653374D01*
X157875691Y-110644832D01*
X157877789Y-110636455D01*
X157880699Y-110628324D01*
X157884391Y-110620517D01*
X157888831Y-110613110D01*
X157893975Y-110606173D01*
X157899775Y-110599775D01*
X157906173Y-110593975D01*
X157913110Y-110588831D01*
X157920517Y-110584391D01*
X157928324Y-110580699D01*
X157936455Y-110577789D01*
X157944832Y-110575691D01*
X157953374Y-110574424D01*
X157962000Y-110574000D01*
X158138000Y-110574000D01*
X158146626Y-110574424D01*
X158146626Y-110574424D01*
G37*
D29*
X158050000Y-111037500D03*
D15*
G36*
X159121626Y-110174424D02*
G01*
X159130168Y-110175691D01*
X159138545Y-110177789D01*
X159146676Y-110180699D01*
X159154483Y-110184391D01*
X159161890Y-110188831D01*
X159168827Y-110193975D01*
X159175225Y-110199775D01*
X159181025Y-110206173D01*
X159186169Y-110213110D01*
X159190609Y-110220517D01*
X159194301Y-110228324D01*
X159197211Y-110236455D01*
X159199309Y-110244832D01*
X159200576Y-110253374D01*
X159201000Y-110262000D01*
X159201000Y-110438000D01*
X159200576Y-110446626D01*
X159199309Y-110455168D01*
X159197211Y-110463545D01*
X159194301Y-110471676D01*
X159190609Y-110479483D01*
X159186169Y-110486890D01*
X159181025Y-110493827D01*
X159175225Y-110500225D01*
X159168827Y-110506025D01*
X159161890Y-110511169D01*
X159154483Y-110515609D01*
X159146676Y-110519301D01*
X159138545Y-110522211D01*
X159130168Y-110524309D01*
X159121626Y-110525576D01*
X159113000Y-110526000D01*
X158362000Y-110526000D01*
X158353374Y-110525576D01*
X158344832Y-110524309D01*
X158336455Y-110522211D01*
X158328324Y-110519301D01*
X158320517Y-110515609D01*
X158313110Y-110511169D01*
X158306173Y-110506025D01*
X158299775Y-110500225D01*
X158293975Y-110493827D01*
X158288831Y-110486890D01*
X158284391Y-110479483D01*
X158280699Y-110471676D01*
X158277789Y-110463545D01*
X158275691Y-110455168D01*
X158274424Y-110446626D01*
X158274000Y-110438000D01*
X158274000Y-110262000D01*
X158274424Y-110253374D01*
X158275691Y-110244832D01*
X158277789Y-110236455D01*
X158280699Y-110228324D01*
X158284391Y-110220517D01*
X158288831Y-110213110D01*
X158293975Y-110206173D01*
X158299775Y-110199775D01*
X158306173Y-110193975D01*
X158313110Y-110188831D01*
X158320517Y-110184391D01*
X158328324Y-110180699D01*
X158336455Y-110177789D01*
X158344832Y-110175691D01*
X158353374Y-110174424D01*
X158362000Y-110174000D01*
X159113000Y-110174000D01*
X159121626Y-110174424D01*
X159121626Y-110174424D01*
G37*
D29*
X158737500Y-110350000D03*
D15*
G36*
X159121626Y-109674424D02*
G01*
X159130168Y-109675691D01*
X159138545Y-109677789D01*
X159146676Y-109680699D01*
X159154483Y-109684391D01*
X159161890Y-109688831D01*
X159168827Y-109693975D01*
X159175225Y-109699775D01*
X159181025Y-109706173D01*
X159186169Y-109713110D01*
X159190609Y-109720517D01*
X159194301Y-109728324D01*
X159197211Y-109736455D01*
X159199309Y-109744832D01*
X159200576Y-109753374D01*
X159201000Y-109762000D01*
X159201000Y-109938000D01*
X159200576Y-109946626D01*
X159199309Y-109955168D01*
X159197211Y-109963545D01*
X159194301Y-109971676D01*
X159190609Y-109979483D01*
X159186169Y-109986890D01*
X159181025Y-109993827D01*
X159175225Y-110000225D01*
X159168827Y-110006025D01*
X159161890Y-110011169D01*
X159154483Y-110015609D01*
X159146676Y-110019301D01*
X159138545Y-110022211D01*
X159130168Y-110024309D01*
X159121626Y-110025576D01*
X159113000Y-110026000D01*
X158362000Y-110026000D01*
X158353374Y-110025576D01*
X158344832Y-110024309D01*
X158336455Y-110022211D01*
X158328324Y-110019301D01*
X158320517Y-110015609D01*
X158313110Y-110011169D01*
X158306173Y-110006025D01*
X158299775Y-110000225D01*
X158293975Y-109993827D01*
X158288831Y-109986890D01*
X158284391Y-109979483D01*
X158280699Y-109971676D01*
X158277789Y-109963545D01*
X158275691Y-109955168D01*
X158274424Y-109946626D01*
X158274000Y-109938000D01*
X158274000Y-109762000D01*
X158274424Y-109753374D01*
X158275691Y-109744832D01*
X158277789Y-109736455D01*
X158280699Y-109728324D01*
X158284391Y-109720517D01*
X158288831Y-109713110D01*
X158293975Y-109706173D01*
X158299775Y-109699775D01*
X158306173Y-109693975D01*
X158313110Y-109688831D01*
X158320517Y-109684391D01*
X158328324Y-109680699D01*
X158336455Y-109677789D01*
X158344832Y-109675691D01*
X158353374Y-109674424D01*
X158362000Y-109674000D01*
X159113000Y-109674000D01*
X159121626Y-109674424D01*
X159121626Y-109674424D01*
G37*
D29*
X158737500Y-109850000D03*
D15*
G36*
X159121626Y-109174424D02*
G01*
X159130168Y-109175691D01*
X159138545Y-109177789D01*
X159146676Y-109180699D01*
X159154483Y-109184391D01*
X159161890Y-109188831D01*
X159168827Y-109193975D01*
X159175225Y-109199775D01*
X159181025Y-109206173D01*
X159186169Y-109213110D01*
X159190609Y-109220517D01*
X159194301Y-109228324D01*
X159197211Y-109236455D01*
X159199309Y-109244832D01*
X159200576Y-109253374D01*
X159201000Y-109262000D01*
X159201000Y-109438000D01*
X159200576Y-109446626D01*
X159199309Y-109455168D01*
X159197211Y-109463545D01*
X159194301Y-109471676D01*
X159190609Y-109479483D01*
X159186169Y-109486890D01*
X159181025Y-109493827D01*
X159175225Y-109500225D01*
X159168827Y-109506025D01*
X159161890Y-109511169D01*
X159154483Y-109515609D01*
X159146676Y-109519301D01*
X159138545Y-109522211D01*
X159130168Y-109524309D01*
X159121626Y-109525576D01*
X159113000Y-109526000D01*
X158362000Y-109526000D01*
X158353374Y-109525576D01*
X158344832Y-109524309D01*
X158336455Y-109522211D01*
X158328324Y-109519301D01*
X158320517Y-109515609D01*
X158313110Y-109511169D01*
X158306173Y-109506025D01*
X158299775Y-109500225D01*
X158293975Y-109493827D01*
X158288831Y-109486890D01*
X158284391Y-109479483D01*
X158280699Y-109471676D01*
X158277789Y-109463545D01*
X158275691Y-109455168D01*
X158274424Y-109446626D01*
X158274000Y-109438000D01*
X158274000Y-109262000D01*
X158274424Y-109253374D01*
X158275691Y-109244832D01*
X158277789Y-109236455D01*
X158280699Y-109228324D01*
X158284391Y-109220517D01*
X158288831Y-109213110D01*
X158293975Y-109206173D01*
X158299775Y-109199775D01*
X158306173Y-109193975D01*
X158313110Y-109188831D01*
X158320517Y-109184391D01*
X158328324Y-109180699D01*
X158336455Y-109177789D01*
X158344832Y-109175691D01*
X158353374Y-109174424D01*
X158362000Y-109174000D01*
X159113000Y-109174000D01*
X159121626Y-109174424D01*
X159121626Y-109174424D01*
G37*
D29*
X158737500Y-109350000D03*
D15*
G36*
X159121626Y-108674424D02*
G01*
X159130168Y-108675691D01*
X159138545Y-108677789D01*
X159146676Y-108680699D01*
X159154483Y-108684391D01*
X159161890Y-108688831D01*
X159168827Y-108693975D01*
X159175225Y-108699775D01*
X159181025Y-108706173D01*
X159186169Y-108713110D01*
X159190609Y-108720517D01*
X159194301Y-108728324D01*
X159197211Y-108736455D01*
X159199309Y-108744832D01*
X159200576Y-108753374D01*
X159201000Y-108762000D01*
X159201000Y-108938000D01*
X159200576Y-108946626D01*
X159199309Y-108955168D01*
X159197211Y-108963545D01*
X159194301Y-108971676D01*
X159190609Y-108979483D01*
X159186169Y-108986890D01*
X159181025Y-108993827D01*
X159175225Y-109000225D01*
X159168827Y-109006025D01*
X159161890Y-109011169D01*
X159154483Y-109015609D01*
X159146676Y-109019301D01*
X159138545Y-109022211D01*
X159130168Y-109024309D01*
X159121626Y-109025576D01*
X159113000Y-109026000D01*
X158362000Y-109026000D01*
X158353374Y-109025576D01*
X158344832Y-109024309D01*
X158336455Y-109022211D01*
X158328324Y-109019301D01*
X158320517Y-109015609D01*
X158313110Y-109011169D01*
X158306173Y-109006025D01*
X158299775Y-109000225D01*
X158293975Y-108993827D01*
X158288831Y-108986890D01*
X158284391Y-108979483D01*
X158280699Y-108971676D01*
X158277789Y-108963545D01*
X158275691Y-108955168D01*
X158274424Y-108946626D01*
X158274000Y-108938000D01*
X158274000Y-108762000D01*
X158274424Y-108753374D01*
X158275691Y-108744832D01*
X158277789Y-108736455D01*
X158280699Y-108728324D01*
X158284391Y-108720517D01*
X158288831Y-108713110D01*
X158293975Y-108706173D01*
X158299775Y-108699775D01*
X158306173Y-108693975D01*
X158313110Y-108688831D01*
X158320517Y-108684391D01*
X158328324Y-108680699D01*
X158336455Y-108677789D01*
X158344832Y-108675691D01*
X158353374Y-108674424D01*
X158362000Y-108674000D01*
X159113000Y-108674000D01*
X159121626Y-108674424D01*
X159121626Y-108674424D01*
G37*
D29*
X158737500Y-108850000D03*
D15*
G36*
X159121626Y-108174424D02*
G01*
X159130168Y-108175691D01*
X159138545Y-108177789D01*
X159146676Y-108180699D01*
X159154483Y-108184391D01*
X159161890Y-108188831D01*
X159168827Y-108193975D01*
X159175225Y-108199775D01*
X159181025Y-108206173D01*
X159186169Y-108213110D01*
X159190609Y-108220517D01*
X159194301Y-108228324D01*
X159197211Y-108236455D01*
X159199309Y-108244832D01*
X159200576Y-108253374D01*
X159201000Y-108262000D01*
X159201000Y-108438000D01*
X159200576Y-108446626D01*
X159199309Y-108455168D01*
X159197211Y-108463545D01*
X159194301Y-108471676D01*
X159190609Y-108479483D01*
X159186169Y-108486890D01*
X159181025Y-108493827D01*
X159175225Y-108500225D01*
X159168827Y-108506025D01*
X159161890Y-108511169D01*
X159154483Y-108515609D01*
X159146676Y-108519301D01*
X159138545Y-108522211D01*
X159130168Y-108524309D01*
X159121626Y-108525576D01*
X159113000Y-108526000D01*
X158362000Y-108526000D01*
X158353374Y-108525576D01*
X158344832Y-108524309D01*
X158336455Y-108522211D01*
X158328324Y-108519301D01*
X158320517Y-108515609D01*
X158313110Y-108511169D01*
X158306173Y-108506025D01*
X158299775Y-108500225D01*
X158293975Y-108493827D01*
X158288831Y-108486890D01*
X158284391Y-108479483D01*
X158280699Y-108471676D01*
X158277789Y-108463545D01*
X158275691Y-108455168D01*
X158274424Y-108446626D01*
X158274000Y-108438000D01*
X158274000Y-108262000D01*
X158274424Y-108253374D01*
X158275691Y-108244832D01*
X158277789Y-108236455D01*
X158280699Y-108228324D01*
X158284391Y-108220517D01*
X158288831Y-108213110D01*
X158293975Y-108206173D01*
X158299775Y-108199775D01*
X158306173Y-108193975D01*
X158313110Y-108188831D01*
X158320517Y-108184391D01*
X158328324Y-108180699D01*
X158336455Y-108177789D01*
X158344832Y-108175691D01*
X158353374Y-108174424D01*
X158362000Y-108174000D01*
X159113000Y-108174000D01*
X159121626Y-108174424D01*
X159121626Y-108174424D01*
G37*
D29*
X158737500Y-108350000D03*
D15*
G36*
X159121626Y-107674424D02*
G01*
X159130168Y-107675691D01*
X159138545Y-107677789D01*
X159146676Y-107680699D01*
X159154483Y-107684391D01*
X159161890Y-107688831D01*
X159168827Y-107693975D01*
X159175225Y-107699775D01*
X159181025Y-107706173D01*
X159186169Y-107713110D01*
X159190609Y-107720517D01*
X159194301Y-107728324D01*
X159197211Y-107736455D01*
X159199309Y-107744832D01*
X159200576Y-107753374D01*
X159201000Y-107762000D01*
X159201000Y-107938000D01*
X159200576Y-107946626D01*
X159199309Y-107955168D01*
X159197211Y-107963545D01*
X159194301Y-107971676D01*
X159190609Y-107979483D01*
X159186169Y-107986890D01*
X159181025Y-107993827D01*
X159175225Y-108000225D01*
X159168827Y-108006025D01*
X159161890Y-108011169D01*
X159154483Y-108015609D01*
X159146676Y-108019301D01*
X159138545Y-108022211D01*
X159130168Y-108024309D01*
X159121626Y-108025576D01*
X159113000Y-108026000D01*
X158362000Y-108026000D01*
X158353374Y-108025576D01*
X158344832Y-108024309D01*
X158336455Y-108022211D01*
X158328324Y-108019301D01*
X158320517Y-108015609D01*
X158313110Y-108011169D01*
X158306173Y-108006025D01*
X158299775Y-108000225D01*
X158293975Y-107993827D01*
X158288831Y-107986890D01*
X158284391Y-107979483D01*
X158280699Y-107971676D01*
X158277789Y-107963545D01*
X158275691Y-107955168D01*
X158274424Y-107946626D01*
X158274000Y-107938000D01*
X158274000Y-107762000D01*
X158274424Y-107753374D01*
X158275691Y-107744832D01*
X158277789Y-107736455D01*
X158280699Y-107728324D01*
X158284391Y-107720517D01*
X158288831Y-107713110D01*
X158293975Y-107706173D01*
X158299775Y-107699775D01*
X158306173Y-107693975D01*
X158313110Y-107688831D01*
X158320517Y-107684391D01*
X158328324Y-107680699D01*
X158336455Y-107677789D01*
X158344832Y-107675691D01*
X158353374Y-107674424D01*
X158362000Y-107674000D01*
X159113000Y-107674000D01*
X159121626Y-107674424D01*
X159121626Y-107674424D01*
G37*
D29*
X158737500Y-107850000D03*
D15*
G36*
X158146626Y-106699424D02*
G01*
X158155168Y-106700691D01*
X158163545Y-106702789D01*
X158171676Y-106705699D01*
X158179483Y-106709391D01*
X158186890Y-106713831D01*
X158193827Y-106718975D01*
X158200225Y-106724775D01*
X158206025Y-106731173D01*
X158211169Y-106738110D01*
X158215609Y-106745517D01*
X158219301Y-106753324D01*
X158222211Y-106761455D01*
X158224309Y-106769832D01*
X158225576Y-106778374D01*
X158226000Y-106787000D01*
X158226000Y-107538000D01*
X158225576Y-107546626D01*
X158224309Y-107555168D01*
X158222211Y-107563545D01*
X158219301Y-107571676D01*
X158215609Y-107579483D01*
X158211169Y-107586890D01*
X158206025Y-107593827D01*
X158200225Y-107600225D01*
X158193827Y-107606025D01*
X158186890Y-107611169D01*
X158179483Y-107615609D01*
X158171676Y-107619301D01*
X158163545Y-107622211D01*
X158155168Y-107624309D01*
X158146626Y-107625576D01*
X158138000Y-107626000D01*
X157962000Y-107626000D01*
X157953374Y-107625576D01*
X157944832Y-107624309D01*
X157936455Y-107622211D01*
X157928324Y-107619301D01*
X157920517Y-107615609D01*
X157913110Y-107611169D01*
X157906173Y-107606025D01*
X157899775Y-107600225D01*
X157893975Y-107593827D01*
X157888831Y-107586890D01*
X157884391Y-107579483D01*
X157880699Y-107571676D01*
X157877789Y-107563545D01*
X157875691Y-107555168D01*
X157874424Y-107546626D01*
X157874000Y-107538000D01*
X157874000Y-106787000D01*
X157874424Y-106778374D01*
X157875691Y-106769832D01*
X157877789Y-106761455D01*
X157880699Y-106753324D01*
X157884391Y-106745517D01*
X157888831Y-106738110D01*
X157893975Y-106731173D01*
X157899775Y-106724775D01*
X157906173Y-106718975D01*
X157913110Y-106713831D01*
X157920517Y-106709391D01*
X157928324Y-106705699D01*
X157936455Y-106702789D01*
X157944832Y-106700691D01*
X157953374Y-106699424D01*
X157962000Y-106699000D01*
X158138000Y-106699000D01*
X158146626Y-106699424D01*
X158146626Y-106699424D01*
G37*
D29*
X158050000Y-107162500D03*
D15*
G36*
X157646626Y-106699424D02*
G01*
X157655168Y-106700691D01*
X157663545Y-106702789D01*
X157671676Y-106705699D01*
X157679483Y-106709391D01*
X157686890Y-106713831D01*
X157693827Y-106718975D01*
X157700225Y-106724775D01*
X157706025Y-106731173D01*
X157711169Y-106738110D01*
X157715609Y-106745517D01*
X157719301Y-106753324D01*
X157722211Y-106761455D01*
X157724309Y-106769832D01*
X157725576Y-106778374D01*
X157726000Y-106787000D01*
X157726000Y-107538000D01*
X157725576Y-107546626D01*
X157724309Y-107555168D01*
X157722211Y-107563545D01*
X157719301Y-107571676D01*
X157715609Y-107579483D01*
X157711169Y-107586890D01*
X157706025Y-107593827D01*
X157700225Y-107600225D01*
X157693827Y-107606025D01*
X157686890Y-107611169D01*
X157679483Y-107615609D01*
X157671676Y-107619301D01*
X157663545Y-107622211D01*
X157655168Y-107624309D01*
X157646626Y-107625576D01*
X157638000Y-107626000D01*
X157462000Y-107626000D01*
X157453374Y-107625576D01*
X157444832Y-107624309D01*
X157436455Y-107622211D01*
X157428324Y-107619301D01*
X157420517Y-107615609D01*
X157413110Y-107611169D01*
X157406173Y-107606025D01*
X157399775Y-107600225D01*
X157393975Y-107593827D01*
X157388831Y-107586890D01*
X157384391Y-107579483D01*
X157380699Y-107571676D01*
X157377789Y-107563545D01*
X157375691Y-107555168D01*
X157374424Y-107546626D01*
X157374000Y-107538000D01*
X157374000Y-106787000D01*
X157374424Y-106778374D01*
X157375691Y-106769832D01*
X157377789Y-106761455D01*
X157380699Y-106753324D01*
X157384391Y-106745517D01*
X157388831Y-106738110D01*
X157393975Y-106731173D01*
X157399775Y-106724775D01*
X157406173Y-106718975D01*
X157413110Y-106713831D01*
X157420517Y-106709391D01*
X157428324Y-106705699D01*
X157436455Y-106702789D01*
X157444832Y-106700691D01*
X157453374Y-106699424D01*
X157462000Y-106699000D01*
X157638000Y-106699000D01*
X157646626Y-106699424D01*
X157646626Y-106699424D01*
G37*
D29*
X157550000Y-107162500D03*
D15*
G36*
X157146626Y-106699424D02*
G01*
X157155168Y-106700691D01*
X157163545Y-106702789D01*
X157171676Y-106705699D01*
X157179483Y-106709391D01*
X157186890Y-106713831D01*
X157193827Y-106718975D01*
X157200225Y-106724775D01*
X157206025Y-106731173D01*
X157211169Y-106738110D01*
X157215609Y-106745517D01*
X157219301Y-106753324D01*
X157222211Y-106761455D01*
X157224309Y-106769832D01*
X157225576Y-106778374D01*
X157226000Y-106787000D01*
X157226000Y-107538000D01*
X157225576Y-107546626D01*
X157224309Y-107555168D01*
X157222211Y-107563545D01*
X157219301Y-107571676D01*
X157215609Y-107579483D01*
X157211169Y-107586890D01*
X157206025Y-107593827D01*
X157200225Y-107600225D01*
X157193827Y-107606025D01*
X157186890Y-107611169D01*
X157179483Y-107615609D01*
X157171676Y-107619301D01*
X157163545Y-107622211D01*
X157155168Y-107624309D01*
X157146626Y-107625576D01*
X157138000Y-107626000D01*
X156962000Y-107626000D01*
X156953374Y-107625576D01*
X156944832Y-107624309D01*
X156936455Y-107622211D01*
X156928324Y-107619301D01*
X156920517Y-107615609D01*
X156913110Y-107611169D01*
X156906173Y-107606025D01*
X156899775Y-107600225D01*
X156893975Y-107593827D01*
X156888831Y-107586890D01*
X156884391Y-107579483D01*
X156880699Y-107571676D01*
X156877789Y-107563545D01*
X156875691Y-107555168D01*
X156874424Y-107546626D01*
X156874000Y-107538000D01*
X156874000Y-106787000D01*
X156874424Y-106778374D01*
X156875691Y-106769832D01*
X156877789Y-106761455D01*
X156880699Y-106753324D01*
X156884391Y-106745517D01*
X156888831Y-106738110D01*
X156893975Y-106731173D01*
X156899775Y-106724775D01*
X156906173Y-106718975D01*
X156913110Y-106713831D01*
X156920517Y-106709391D01*
X156928324Y-106705699D01*
X156936455Y-106702789D01*
X156944832Y-106700691D01*
X156953374Y-106699424D01*
X156962000Y-106699000D01*
X157138000Y-106699000D01*
X157146626Y-106699424D01*
X157146626Y-106699424D01*
G37*
D29*
X157050000Y-107162500D03*
D15*
G36*
X156646626Y-106699424D02*
G01*
X156655168Y-106700691D01*
X156663545Y-106702789D01*
X156671676Y-106705699D01*
X156679483Y-106709391D01*
X156686890Y-106713831D01*
X156693827Y-106718975D01*
X156700225Y-106724775D01*
X156706025Y-106731173D01*
X156711169Y-106738110D01*
X156715609Y-106745517D01*
X156719301Y-106753324D01*
X156722211Y-106761455D01*
X156724309Y-106769832D01*
X156725576Y-106778374D01*
X156726000Y-106787000D01*
X156726000Y-107538000D01*
X156725576Y-107546626D01*
X156724309Y-107555168D01*
X156722211Y-107563545D01*
X156719301Y-107571676D01*
X156715609Y-107579483D01*
X156711169Y-107586890D01*
X156706025Y-107593827D01*
X156700225Y-107600225D01*
X156693827Y-107606025D01*
X156686890Y-107611169D01*
X156679483Y-107615609D01*
X156671676Y-107619301D01*
X156663545Y-107622211D01*
X156655168Y-107624309D01*
X156646626Y-107625576D01*
X156638000Y-107626000D01*
X156462000Y-107626000D01*
X156453374Y-107625576D01*
X156444832Y-107624309D01*
X156436455Y-107622211D01*
X156428324Y-107619301D01*
X156420517Y-107615609D01*
X156413110Y-107611169D01*
X156406173Y-107606025D01*
X156399775Y-107600225D01*
X156393975Y-107593827D01*
X156388831Y-107586890D01*
X156384391Y-107579483D01*
X156380699Y-107571676D01*
X156377789Y-107563545D01*
X156375691Y-107555168D01*
X156374424Y-107546626D01*
X156374000Y-107538000D01*
X156374000Y-106787000D01*
X156374424Y-106778374D01*
X156375691Y-106769832D01*
X156377789Y-106761455D01*
X156380699Y-106753324D01*
X156384391Y-106745517D01*
X156388831Y-106738110D01*
X156393975Y-106731173D01*
X156399775Y-106724775D01*
X156406173Y-106718975D01*
X156413110Y-106713831D01*
X156420517Y-106709391D01*
X156428324Y-106705699D01*
X156436455Y-106702789D01*
X156444832Y-106700691D01*
X156453374Y-106699424D01*
X156462000Y-106699000D01*
X156638000Y-106699000D01*
X156646626Y-106699424D01*
X156646626Y-106699424D01*
G37*
D29*
X156550000Y-107162500D03*
D15*
G36*
X156146626Y-106699424D02*
G01*
X156155168Y-106700691D01*
X156163545Y-106702789D01*
X156171676Y-106705699D01*
X156179483Y-106709391D01*
X156186890Y-106713831D01*
X156193827Y-106718975D01*
X156200225Y-106724775D01*
X156206025Y-106731173D01*
X156211169Y-106738110D01*
X156215609Y-106745517D01*
X156219301Y-106753324D01*
X156222211Y-106761455D01*
X156224309Y-106769832D01*
X156225576Y-106778374D01*
X156226000Y-106787000D01*
X156226000Y-107538000D01*
X156225576Y-107546626D01*
X156224309Y-107555168D01*
X156222211Y-107563545D01*
X156219301Y-107571676D01*
X156215609Y-107579483D01*
X156211169Y-107586890D01*
X156206025Y-107593827D01*
X156200225Y-107600225D01*
X156193827Y-107606025D01*
X156186890Y-107611169D01*
X156179483Y-107615609D01*
X156171676Y-107619301D01*
X156163545Y-107622211D01*
X156155168Y-107624309D01*
X156146626Y-107625576D01*
X156138000Y-107626000D01*
X155962000Y-107626000D01*
X155953374Y-107625576D01*
X155944832Y-107624309D01*
X155936455Y-107622211D01*
X155928324Y-107619301D01*
X155920517Y-107615609D01*
X155913110Y-107611169D01*
X155906173Y-107606025D01*
X155899775Y-107600225D01*
X155893975Y-107593827D01*
X155888831Y-107586890D01*
X155884391Y-107579483D01*
X155880699Y-107571676D01*
X155877789Y-107563545D01*
X155875691Y-107555168D01*
X155874424Y-107546626D01*
X155874000Y-107538000D01*
X155874000Y-106787000D01*
X155874424Y-106778374D01*
X155875691Y-106769832D01*
X155877789Y-106761455D01*
X155880699Y-106753324D01*
X155884391Y-106745517D01*
X155888831Y-106738110D01*
X155893975Y-106731173D01*
X155899775Y-106724775D01*
X155906173Y-106718975D01*
X155913110Y-106713831D01*
X155920517Y-106709391D01*
X155928324Y-106705699D01*
X155936455Y-106702789D01*
X155944832Y-106700691D01*
X155953374Y-106699424D01*
X155962000Y-106699000D01*
X156138000Y-106699000D01*
X156146626Y-106699424D01*
X156146626Y-106699424D01*
G37*
D29*
X156050000Y-107162500D03*
D15*
G36*
X155646626Y-106699424D02*
G01*
X155655168Y-106700691D01*
X155663545Y-106702789D01*
X155671676Y-106705699D01*
X155679483Y-106709391D01*
X155686890Y-106713831D01*
X155693827Y-106718975D01*
X155700225Y-106724775D01*
X155706025Y-106731173D01*
X155711169Y-106738110D01*
X155715609Y-106745517D01*
X155719301Y-106753324D01*
X155722211Y-106761455D01*
X155724309Y-106769832D01*
X155725576Y-106778374D01*
X155726000Y-106787000D01*
X155726000Y-107538000D01*
X155725576Y-107546626D01*
X155724309Y-107555168D01*
X155722211Y-107563545D01*
X155719301Y-107571676D01*
X155715609Y-107579483D01*
X155711169Y-107586890D01*
X155706025Y-107593827D01*
X155700225Y-107600225D01*
X155693827Y-107606025D01*
X155686890Y-107611169D01*
X155679483Y-107615609D01*
X155671676Y-107619301D01*
X155663545Y-107622211D01*
X155655168Y-107624309D01*
X155646626Y-107625576D01*
X155638000Y-107626000D01*
X155462000Y-107626000D01*
X155453374Y-107625576D01*
X155444832Y-107624309D01*
X155436455Y-107622211D01*
X155428324Y-107619301D01*
X155420517Y-107615609D01*
X155413110Y-107611169D01*
X155406173Y-107606025D01*
X155399775Y-107600225D01*
X155393975Y-107593827D01*
X155388831Y-107586890D01*
X155384391Y-107579483D01*
X155380699Y-107571676D01*
X155377789Y-107563545D01*
X155375691Y-107555168D01*
X155374424Y-107546626D01*
X155374000Y-107538000D01*
X155374000Y-106787000D01*
X155374424Y-106778374D01*
X155375691Y-106769832D01*
X155377789Y-106761455D01*
X155380699Y-106753324D01*
X155384391Y-106745517D01*
X155388831Y-106738110D01*
X155393975Y-106731173D01*
X155399775Y-106724775D01*
X155406173Y-106718975D01*
X155413110Y-106713831D01*
X155420517Y-106709391D01*
X155428324Y-106705699D01*
X155436455Y-106702789D01*
X155444832Y-106700691D01*
X155453374Y-106699424D01*
X155462000Y-106699000D01*
X155638000Y-106699000D01*
X155646626Y-106699424D01*
X155646626Y-106699424D01*
G37*
D29*
X155550000Y-107162500D03*
D15*
G36*
X155246626Y-107674424D02*
G01*
X155255168Y-107675691D01*
X155263545Y-107677789D01*
X155271676Y-107680699D01*
X155279483Y-107684391D01*
X155286890Y-107688831D01*
X155293827Y-107693975D01*
X155300225Y-107699775D01*
X155306025Y-107706173D01*
X155311169Y-107713110D01*
X155315609Y-107720517D01*
X155319301Y-107728324D01*
X155322211Y-107736455D01*
X155324309Y-107744832D01*
X155325576Y-107753374D01*
X155326000Y-107762000D01*
X155326000Y-107938000D01*
X155325576Y-107946626D01*
X155324309Y-107955168D01*
X155322211Y-107963545D01*
X155319301Y-107971676D01*
X155315609Y-107979483D01*
X155311169Y-107986890D01*
X155306025Y-107993827D01*
X155300225Y-108000225D01*
X155293827Y-108006025D01*
X155286890Y-108011169D01*
X155279483Y-108015609D01*
X155271676Y-108019301D01*
X155263545Y-108022211D01*
X155255168Y-108024309D01*
X155246626Y-108025576D01*
X155238000Y-108026000D01*
X154487000Y-108026000D01*
X154478374Y-108025576D01*
X154469832Y-108024309D01*
X154461455Y-108022211D01*
X154453324Y-108019301D01*
X154445517Y-108015609D01*
X154438110Y-108011169D01*
X154431173Y-108006025D01*
X154424775Y-108000225D01*
X154418975Y-107993827D01*
X154413831Y-107986890D01*
X154409391Y-107979483D01*
X154405699Y-107971676D01*
X154402789Y-107963545D01*
X154400691Y-107955168D01*
X154399424Y-107946626D01*
X154399000Y-107938000D01*
X154399000Y-107762000D01*
X154399424Y-107753374D01*
X154400691Y-107744832D01*
X154402789Y-107736455D01*
X154405699Y-107728324D01*
X154409391Y-107720517D01*
X154413831Y-107713110D01*
X154418975Y-107706173D01*
X154424775Y-107699775D01*
X154431173Y-107693975D01*
X154438110Y-107688831D01*
X154445517Y-107684391D01*
X154453324Y-107680699D01*
X154461455Y-107677789D01*
X154469832Y-107675691D01*
X154478374Y-107674424D01*
X154487000Y-107674000D01*
X155238000Y-107674000D01*
X155246626Y-107674424D01*
X155246626Y-107674424D01*
G37*
D29*
X154862500Y-107850000D03*
D15*
G36*
X155246626Y-108174424D02*
G01*
X155255168Y-108175691D01*
X155263545Y-108177789D01*
X155271676Y-108180699D01*
X155279483Y-108184391D01*
X155286890Y-108188831D01*
X155293827Y-108193975D01*
X155300225Y-108199775D01*
X155306025Y-108206173D01*
X155311169Y-108213110D01*
X155315609Y-108220517D01*
X155319301Y-108228324D01*
X155322211Y-108236455D01*
X155324309Y-108244832D01*
X155325576Y-108253374D01*
X155326000Y-108262000D01*
X155326000Y-108438000D01*
X155325576Y-108446626D01*
X155324309Y-108455168D01*
X155322211Y-108463545D01*
X155319301Y-108471676D01*
X155315609Y-108479483D01*
X155311169Y-108486890D01*
X155306025Y-108493827D01*
X155300225Y-108500225D01*
X155293827Y-108506025D01*
X155286890Y-108511169D01*
X155279483Y-108515609D01*
X155271676Y-108519301D01*
X155263545Y-108522211D01*
X155255168Y-108524309D01*
X155246626Y-108525576D01*
X155238000Y-108526000D01*
X154487000Y-108526000D01*
X154478374Y-108525576D01*
X154469832Y-108524309D01*
X154461455Y-108522211D01*
X154453324Y-108519301D01*
X154445517Y-108515609D01*
X154438110Y-108511169D01*
X154431173Y-108506025D01*
X154424775Y-108500225D01*
X154418975Y-108493827D01*
X154413831Y-108486890D01*
X154409391Y-108479483D01*
X154405699Y-108471676D01*
X154402789Y-108463545D01*
X154400691Y-108455168D01*
X154399424Y-108446626D01*
X154399000Y-108438000D01*
X154399000Y-108262000D01*
X154399424Y-108253374D01*
X154400691Y-108244832D01*
X154402789Y-108236455D01*
X154405699Y-108228324D01*
X154409391Y-108220517D01*
X154413831Y-108213110D01*
X154418975Y-108206173D01*
X154424775Y-108199775D01*
X154431173Y-108193975D01*
X154438110Y-108188831D01*
X154445517Y-108184391D01*
X154453324Y-108180699D01*
X154461455Y-108177789D01*
X154469832Y-108175691D01*
X154478374Y-108174424D01*
X154487000Y-108174000D01*
X155238000Y-108174000D01*
X155246626Y-108174424D01*
X155246626Y-108174424D01*
G37*
D29*
X154862500Y-108350000D03*
D15*
G36*
X155246626Y-108674424D02*
G01*
X155255168Y-108675691D01*
X155263545Y-108677789D01*
X155271676Y-108680699D01*
X155279483Y-108684391D01*
X155286890Y-108688831D01*
X155293827Y-108693975D01*
X155300225Y-108699775D01*
X155306025Y-108706173D01*
X155311169Y-108713110D01*
X155315609Y-108720517D01*
X155319301Y-108728324D01*
X155322211Y-108736455D01*
X155324309Y-108744832D01*
X155325576Y-108753374D01*
X155326000Y-108762000D01*
X155326000Y-108938000D01*
X155325576Y-108946626D01*
X155324309Y-108955168D01*
X155322211Y-108963545D01*
X155319301Y-108971676D01*
X155315609Y-108979483D01*
X155311169Y-108986890D01*
X155306025Y-108993827D01*
X155300225Y-109000225D01*
X155293827Y-109006025D01*
X155286890Y-109011169D01*
X155279483Y-109015609D01*
X155271676Y-109019301D01*
X155263545Y-109022211D01*
X155255168Y-109024309D01*
X155246626Y-109025576D01*
X155238000Y-109026000D01*
X154487000Y-109026000D01*
X154478374Y-109025576D01*
X154469832Y-109024309D01*
X154461455Y-109022211D01*
X154453324Y-109019301D01*
X154445517Y-109015609D01*
X154438110Y-109011169D01*
X154431173Y-109006025D01*
X154424775Y-109000225D01*
X154418975Y-108993827D01*
X154413831Y-108986890D01*
X154409391Y-108979483D01*
X154405699Y-108971676D01*
X154402789Y-108963545D01*
X154400691Y-108955168D01*
X154399424Y-108946626D01*
X154399000Y-108938000D01*
X154399000Y-108762000D01*
X154399424Y-108753374D01*
X154400691Y-108744832D01*
X154402789Y-108736455D01*
X154405699Y-108728324D01*
X154409391Y-108720517D01*
X154413831Y-108713110D01*
X154418975Y-108706173D01*
X154424775Y-108699775D01*
X154431173Y-108693975D01*
X154438110Y-108688831D01*
X154445517Y-108684391D01*
X154453324Y-108680699D01*
X154461455Y-108677789D01*
X154469832Y-108675691D01*
X154478374Y-108674424D01*
X154487000Y-108674000D01*
X155238000Y-108674000D01*
X155246626Y-108674424D01*
X155246626Y-108674424D01*
G37*
D29*
X154862500Y-108850000D03*
D15*
G36*
X155246626Y-109174424D02*
G01*
X155255168Y-109175691D01*
X155263545Y-109177789D01*
X155271676Y-109180699D01*
X155279483Y-109184391D01*
X155286890Y-109188831D01*
X155293827Y-109193975D01*
X155300225Y-109199775D01*
X155306025Y-109206173D01*
X155311169Y-109213110D01*
X155315609Y-109220517D01*
X155319301Y-109228324D01*
X155322211Y-109236455D01*
X155324309Y-109244832D01*
X155325576Y-109253374D01*
X155326000Y-109262000D01*
X155326000Y-109438000D01*
X155325576Y-109446626D01*
X155324309Y-109455168D01*
X155322211Y-109463545D01*
X155319301Y-109471676D01*
X155315609Y-109479483D01*
X155311169Y-109486890D01*
X155306025Y-109493827D01*
X155300225Y-109500225D01*
X155293827Y-109506025D01*
X155286890Y-109511169D01*
X155279483Y-109515609D01*
X155271676Y-109519301D01*
X155263545Y-109522211D01*
X155255168Y-109524309D01*
X155246626Y-109525576D01*
X155238000Y-109526000D01*
X154487000Y-109526000D01*
X154478374Y-109525576D01*
X154469832Y-109524309D01*
X154461455Y-109522211D01*
X154453324Y-109519301D01*
X154445517Y-109515609D01*
X154438110Y-109511169D01*
X154431173Y-109506025D01*
X154424775Y-109500225D01*
X154418975Y-109493827D01*
X154413831Y-109486890D01*
X154409391Y-109479483D01*
X154405699Y-109471676D01*
X154402789Y-109463545D01*
X154400691Y-109455168D01*
X154399424Y-109446626D01*
X154399000Y-109438000D01*
X154399000Y-109262000D01*
X154399424Y-109253374D01*
X154400691Y-109244832D01*
X154402789Y-109236455D01*
X154405699Y-109228324D01*
X154409391Y-109220517D01*
X154413831Y-109213110D01*
X154418975Y-109206173D01*
X154424775Y-109199775D01*
X154431173Y-109193975D01*
X154438110Y-109188831D01*
X154445517Y-109184391D01*
X154453324Y-109180699D01*
X154461455Y-109177789D01*
X154469832Y-109175691D01*
X154478374Y-109174424D01*
X154487000Y-109174000D01*
X155238000Y-109174000D01*
X155246626Y-109174424D01*
X155246626Y-109174424D01*
G37*
D29*
X154862500Y-109350000D03*
D15*
G36*
X155246626Y-109674424D02*
G01*
X155255168Y-109675691D01*
X155263545Y-109677789D01*
X155271676Y-109680699D01*
X155279483Y-109684391D01*
X155286890Y-109688831D01*
X155293827Y-109693975D01*
X155300225Y-109699775D01*
X155306025Y-109706173D01*
X155311169Y-109713110D01*
X155315609Y-109720517D01*
X155319301Y-109728324D01*
X155322211Y-109736455D01*
X155324309Y-109744832D01*
X155325576Y-109753374D01*
X155326000Y-109762000D01*
X155326000Y-109938000D01*
X155325576Y-109946626D01*
X155324309Y-109955168D01*
X155322211Y-109963545D01*
X155319301Y-109971676D01*
X155315609Y-109979483D01*
X155311169Y-109986890D01*
X155306025Y-109993827D01*
X155300225Y-110000225D01*
X155293827Y-110006025D01*
X155286890Y-110011169D01*
X155279483Y-110015609D01*
X155271676Y-110019301D01*
X155263545Y-110022211D01*
X155255168Y-110024309D01*
X155246626Y-110025576D01*
X155238000Y-110026000D01*
X154487000Y-110026000D01*
X154478374Y-110025576D01*
X154469832Y-110024309D01*
X154461455Y-110022211D01*
X154453324Y-110019301D01*
X154445517Y-110015609D01*
X154438110Y-110011169D01*
X154431173Y-110006025D01*
X154424775Y-110000225D01*
X154418975Y-109993827D01*
X154413831Y-109986890D01*
X154409391Y-109979483D01*
X154405699Y-109971676D01*
X154402789Y-109963545D01*
X154400691Y-109955168D01*
X154399424Y-109946626D01*
X154399000Y-109938000D01*
X154399000Y-109762000D01*
X154399424Y-109753374D01*
X154400691Y-109744832D01*
X154402789Y-109736455D01*
X154405699Y-109728324D01*
X154409391Y-109720517D01*
X154413831Y-109713110D01*
X154418975Y-109706173D01*
X154424775Y-109699775D01*
X154431173Y-109693975D01*
X154438110Y-109688831D01*
X154445517Y-109684391D01*
X154453324Y-109680699D01*
X154461455Y-109677789D01*
X154469832Y-109675691D01*
X154478374Y-109674424D01*
X154487000Y-109674000D01*
X155238000Y-109674000D01*
X155246626Y-109674424D01*
X155246626Y-109674424D01*
G37*
D29*
X154862500Y-109850000D03*
D15*
G36*
X155246626Y-110174424D02*
G01*
X155255168Y-110175691D01*
X155263545Y-110177789D01*
X155271676Y-110180699D01*
X155279483Y-110184391D01*
X155286890Y-110188831D01*
X155293827Y-110193975D01*
X155300225Y-110199775D01*
X155306025Y-110206173D01*
X155311169Y-110213110D01*
X155315609Y-110220517D01*
X155319301Y-110228324D01*
X155322211Y-110236455D01*
X155324309Y-110244832D01*
X155325576Y-110253374D01*
X155326000Y-110262000D01*
X155326000Y-110438000D01*
X155325576Y-110446626D01*
X155324309Y-110455168D01*
X155322211Y-110463545D01*
X155319301Y-110471676D01*
X155315609Y-110479483D01*
X155311169Y-110486890D01*
X155306025Y-110493827D01*
X155300225Y-110500225D01*
X155293827Y-110506025D01*
X155286890Y-110511169D01*
X155279483Y-110515609D01*
X155271676Y-110519301D01*
X155263545Y-110522211D01*
X155255168Y-110524309D01*
X155246626Y-110525576D01*
X155238000Y-110526000D01*
X154487000Y-110526000D01*
X154478374Y-110525576D01*
X154469832Y-110524309D01*
X154461455Y-110522211D01*
X154453324Y-110519301D01*
X154445517Y-110515609D01*
X154438110Y-110511169D01*
X154431173Y-110506025D01*
X154424775Y-110500225D01*
X154418975Y-110493827D01*
X154413831Y-110486890D01*
X154409391Y-110479483D01*
X154405699Y-110471676D01*
X154402789Y-110463545D01*
X154400691Y-110455168D01*
X154399424Y-110446626D01*
X154399000Y-110438000D01*
X154399000Y-110262000D01*
X154399424Y-110253374D01*
X154400691Y-110244832D01*
X154402789Y-110236455D01*
X154405699Y-110228324D01*
X154409391Y-110220517D01*
X154413831Y-110213110D01*
X154418975Y-110206173D01*
X154424775Y-110199775D01*
X154431173Y-110193975D01*
X154438110Y-110188831D01*
X154445517Y-110184391D01*
X154453324Y-110180699D01*
X154461455Y-110177789D01*
X154469832Y-110175691D01*
X154478374Y-110174424D01*
X154487000Y-110174000D01*
X155238000Y-110174000D01*
X155246626Y-110174424D01*
X155246626Y-110174424D01*
G37*
D29*
X154862500Y-110350000D03*
D15*
G36*
X162413779Y-110475266D02*
G01*
X162439309Y-110479053D01*
X162464345Y-110485325D01*
X162488646Y-110494020D01*
X162511977Y-110505055D01*
X162534115Y-110518323D01*
X162554845Y-110533698D01*
X162573969Y-110551031D01*
X162591302Y-110570155D01*
X162606677Y-110590885D01*
X162619945Y-110613023D01*
X162630980Y-110636354D01*
X162639675Y-110660655D01*
X162645947Y-110685691D01*
X162649734Y-110711221D01*
X162651000Y-110737000D01*
X162651000Y-111263000D01*
X162649734Y-111288779D01*
X162645947Y-111314309D01*
X162639675Y-111339345D01*
X162630980Y-111363646D01*
X162619945Y-111386977D01*
X162606677Y-111409115D01*
X162591302Y-111429845D01*
X162573969Y-111448969D01*
X162554845Y-111466302D01*
X162534115Y-111481677D01*
X162511977Y-111494945D01*
X162488646Y-111505980D01*
X162464345Y-111514675D01*
X162439309Y-111520947D01*
X162413779Y-111524734D01*
X162388000Y-111526000D01*
X161762000Y-111526000D01*
X161736221Y-111524734D01*
X161710691Y-111520947D01*
X161685655Y-111514675D01*
X161661354Y-111505980D01*
X161638023Y-111494945D01*
X161615885Y-111481677D01*
X161595155Y-111466302D01*
X161576031Y-111448969D01*
X161558698Y-111429845D01*
X161543323Y-111409115D01*
X161530055Y-111386977D01*
X161519020Y-111363646D01*
X161510325Y-111339345D01*
X161504053Y-111314309D01*
X161500266Y-111288779D01*
X161499000Y-111263000D01*
X161499000Y-110737000D01*
X161500266Y-110711221D01*
X161504053Y-110685691D01*
X161510325Y-110660655D01*
X161519020Y-110636354D01*
X161530055Y-110613023D01*
X161543323Y-110590885D01*
X161558698Y-110570155D01*
X161576031Y-110551031D01*
X161595155Y-110533698D01*
X161615885Y-110518323D01*
X161638023Y-110505055D01*
X161661354Y-110494020D01*
X161685655Y-110485325D01*
X161710691Y-110479053D01*
X161736221Y-110475266D01*
X161762000Y-110474000D01*
X162388000Y-110474000D01*
X162413779Y-110475266D01*
X162413779Y-110475266D01*
G37*
D17*
X162075000Y-111000000D03*
D15*
G36*
X160663779Y-110475266D02*
G01*
X160689309Y-110479053D01*
X160714345Y-110485325D01*
X160738646Y-110494020D01*
X160761977Y-110505055D01*
X160784115Y-110518323D01*
X160804845Y-110533698D01*
X160823969Y-110551031D01*
X160841302Y-110570155D01*
X160856677Y-110590885D01*
X160869945Y-110613023D01*
X160880980Y-110636354D01*
X160889675Y-110660655D01*
X160895947Y-110685691D01*
X160899734Y-110711221D01*
X160901000Y-110737000D01*
X160901000Y-111263000D01*
X160899734Y-111288779D01*
X160895947Y-111314309D01*
X160889675Y-111339345D01*
X160880980Y-111363646D01*
X160869945Y-111386977D01*
X160856677Y-111409115D01*
X160841302Y-111429845D01*
X160823969Y-111448969D01*
X160804845Y-111466302D01*
X160784115Y-111481677D01*
X160761977Y-111494945D01*
X160738646Y-111505980D01*
X160714345Y-111514675D01*
X160689309Y-111520947D01*
X160663779Y-111524734D01*
X160638000Y-111526000D01*
X160012000Y-111526000D01*
X159986221Y-111524734D01*
X159960691Y-111520947D01*
X159935655Y-111514675D01*
X159911354Y-111505980D01*
X159888023Y-111494945D01*
X159865885Y-111481677D01*
X159845155Y-111466302D01*
X159826031Y-111448969D01*
X159808698Y-111429845D01*
X159793323Y-111409115D01*
X159780055Y-111386977D01*
X159769020Y-111363646D01*
X159760325Y-111339345D01*
X159754053Y-111314309D01*
X159750266Y-111288779D01*
X159749000Y-111263000D01*
X159749000Y-110737000D01*
X159750266Y-110711221D01*
X159754053Y-110685691D01*
X159760325Y-110660655D01*
X159769020Y-110636354D01*
X159780055Y-110613023D01*
X159793323Y-110590885D01*
X159808698Y-110570155D01*
X159826031Y-110551031D01*
X159845155Y-110533698D01*
X159865885Y-110518323D01*
X159888023Y-110505055D01*
X159911354Y-110494020D01*
X159935655Y-110485325D01*
X159960691Y-110479053D01*
X159986221Y-110475266D01*
X160012000Y-110474000D01*
X160638000Y-110474000D01*
X160663779Y-110475266D01*
X160663779Y-110475266D01*
G37*
D17*
X160325000Y-111000000D03*
D15*
G36*
X160013779Y-102075266D02*
G01*
X160039309Y-102079053D01*
X160064345Y-102085325D01*
X160088646Y-102094020D01*
X160111977Y-102105055D01*
X160134115Y-102118323D01*
X160154845Y-102133698D01*
X160173969Y-102151031D01*
X160191302Y-102170155D01*
X160206677Y-102190885D01*
X160219945Y-102213023D01*
X160230980Y-102236354D01*
X160239675Y-102260655D01*
X160245947Y-102285691D01*
X160249734Y-102311221D01*
X160251000Y-102337000D01*
X160251000Y-102863000D01*
X160249734Y-102888779D01*
X160245947Y-102914309D01*
X160239675Y-102939345D01*
X160230980Y-102963646D01*
X160219945Y-102986977D01*
X160206677Y-103009115D01*
X160191302Y-103029845D01*
X160173969Y-103048969D01*
X160154845Y-103066302D01*
X160134115Y-103081677D01*
X160111977Y-103094945D01*
X160088646Y-103105980D01*
X160064345Y-103114675D01*
X160039309Y-103120947D01*
X160013779Y-103124734D01*
X159988000Y-103126000D01*
X159362000Y-103126000D01*
X159336221Y-103124734D01*
X159310691Y-103120947D01*
X159285655Y-103114675D01*
X159261354Y-103105980D01*
X159238023Y-103094945D01*
X159215885Y-103081677D01*
X159195155Y-103066302D01*
X159176031Y-103048969D01*
X159158698Y-103029845D01*
X159143323Y-103009115D01*
X159130055Y-102986977D01*
X159119020Y-102963646D01*
X159110325Y-102939345D01*
X159104053Y-102914309D01*
X159100266Y-102888779D01*
X159099000Y-102863000D01*
X159099000Y-102337000D01*
X159100266Y-102311221D01*
X159104053Y-102285691D01*
X159110325Y-102260655D01*
X159119020Y-102236354D01*
X159130055Y-102213023D01*
X159143323Y-102190885D01*
X159158698Y-102170155D01*
X159176031Y-102151031D01*
X159195155Y-102133698D01*
X159215885Y-102118323D01*
X159238023Y-102105055D01*
X159261354Y-102094020D01*
X159285655Y-102085325D01*
X159310691Y-102079053D01*
X159336221Y-102075266D01*
X159362000Y-102074000D01*
X159988000Y-102074000D01*
X160013779Y-102075266D01*
X160013779Y-102075266D01*
G37*
D17*
X159675000Y-102600000D03*
D15*
G36*
X158263779Y-102075266D02*
G01*
X158289309Y-102079053D01*
X158314345Y-102085325D01*
X158338646Y-102094020D01*
X158361977Y-102105055D01*
X158384115Y-102118323D01*
X158404845Y-102133698D01*
X158423969Y-102151031D01*
X158441302Y-102170155D01*
X158456677Y-102190885D01*
X158469945Y-102213023D01*
X158480980Y-102236354D01*
X158489675Y-102260655D01*
X158495947Y-102285691D01*
X158499734Y-102311221D01*
X158501000Y-102337000D01*
X158501000Y-102863000D01*
X158499734Y-102888779D01*
X158495947Y-102914309D01*
X158489675Y-102939345D01*
X158480980Y-102963646D01*
X158469945Y-102986977D01*
X158456677Y-103009115D01*
X158441302Y-103029845D01*
X158423969Y-103048969D01*
X158404845Y-103066302D01*
X158384115Y-103081677D01*
X158361977Y-103094945D01*
X158338646Y-103105980D01*
X158314345Y-103114675D01*
X158289309Y-103120947D01*
X158263779Y-103124734D01*
X158238000Y-103126000D01*
X157612000Y-103126000D01*
X157586221Y-103124734D01*
X157560691Y-103120947D01*
X157535655Y-103114675D01*
X157511354Y-103105980D01*
X157488023Y-103094945D01*
X157465885Y-103081677D01*
X157445155Y-103066302D01*
X157426031Y-103048969D01*
X157408698Y-103029845D01*
X157393323Y-103009115D01*
X157380055Y-102986977D01*
X157369020Y-102963646D01*
X157360325Y-102939345D01*
X157354053Y-102914309D01*
X157350266Y-102888779D01*
X157349000Y-102863000D01*
X157349000Y-102337000D01*
X157350266Y-102311221D01*
X157354053Y-102285691D01*
X157360325Y-102260655D01*
X157369020Y-102236354D01*
X157380055Y-102213023D01*
X157393323Y-102190885D01*
X157408698Y-102170155D01*
X157426031Y-102151031D01*
X157445155Y-102133698D01*
X157465885Y-102118323D01*
X157488023Y-102105055D01*
X157511354Y-102094020D01*
X157535655Y-102085325D01*
X157560691Y-102079053D01*
X157586221Y-102075266D01*
X157612000Y-102074000D01*
X158238000Y-102074000D01*
X158263779Y-102075266D01*
X158263779Y-102075266D01*
G37*
D17*
X157925000Y-102600000D03*
D15*
G36*
X162413779Y-107475266D02*
G01*
X162439309Y-107479053D01*
X162464345Y-107485325D01*
X162488646Y-107494020D01*
X162511977Y-107505055D01*
X162534115Y-107518323D01*
X162554845Y-107533698D01*
X162573969Y-107551031D01*
X162591302Y-107570155D01*
X162606677Y-107590885D01*
X162619945Y-107613023D01*
X162630980Y-107636354D01*
X162639675Y-107660655D01*
X162645947Y-107685691D01*
X162649734Y-107711221D01*
X162651000Y-107737000D01*
X162651000Y-108263000D01*
X162649734Y-108288779D01*
X162645947Y-108314309D01*
X162639675Y-108339345D01*
X162630980Y-108363646D01*
X162619945Y-108386977D01*
X162606677Y-108409115D01*
X162591302Y-108429845D01*
X162573969Y-108448969D01*
X162554845Y-108466302D01*
X162534115Y-108481677D01*
X162511977Y-108494945D01*
X162488646Y-108505980D01*
X162464345Y-108514675D01*
X162439309Y-108520947D01*
X162413779Y-108524734D01*
X162388000Y-108526000D01*
X161762000Y-108526000D01*
X161736221Y-108524734D01*
X161710691Y-108520947D01*
X161685655Y-108514675D01*
X161661354Y-108505980D01*
X161638023Y-108494945D01*
X161615885Y-108481677D01*
X161595155Y-108466302D01*
X161576031Y-108448969D01*
X161558698Y-108429845D01*
X161543323Y-108409115D01*
X161530055Y-108386977D01*
X161519020Y-108363646D01*
X161510325Y-108339345D01*
X161504053Y-108314309D01*
X161500266Y-108288779D01*
X161499000Y-108263000D01*
X161499000Y-107737000D01*
X161500266Y-107711221D01*
X161504053Y-107685691D01*
X161510325Y-107660655D01*
X161519020Y-107636354D01*
X161530055Y-107613023D01*
X161543323Y-107590885D01*
X161558698Y-107570155D01*
X161576031Y-107551031D01*
X161595155Y-107533698D01*
X161615885Y-107518323D01*
X161638023Y-107505055D01*
X161661354Y-107494020D01*
X161685655Y-107485325D01*
X161710691Y-107479053D01*
X161736221Y-107475266D01*
X161762000Y-107474000D01*
X162388000Y-107474000D01*
X162413779Y-107475266D01*
X162413779Y-107475266D01*
G37*
D17*
X162075000Y-108000000D03*
D15*
G36*
X160663779Y-107475266D02*
G01*
X160689309Y-107479053D01*
X160714345Y-107485325D01*
X160738646Y-107494020D01*
X160761977Y-107505055D01*
X160784115Y-107518323D01*
X160804845Y-107533698D01*
X160823969Y-107551031D01*
X160841302Y-107570155D01*
X160856677Y-107590885D01*
X160869945Y-107613023D01*
X160880980Y-107636354D01*
X160889675Y-107660655D01*
X160895947Y-107685691D01*
X160899734Y-107711221D01*
X160901000Y-107737000D01*
X160901000Y-108263000D01*
X160899734Y-108288779D01*
X160895947Y-108314309D01*
X160889675Y-108339345D01*
X160880980Y-108363646D01*
X160869945Y-108386977D01*
X160856677Y-108409115D01*
X160841302Y-108429845D01*
X160823969Y-108448969D01*
X160804845Y-108466302D01*
X160784115Y-108481677D01*
X160761977Y-108494945D01*
X160738646Y-108505980D01*
X160714345Y-108514675D01*
X160689309Y-108520947D01*
X160663779Y-108524734D01*
X160638000Y-108526000D01*
X160012000Y-108526000D01*
X159986221Y-108524734D01*
X159960691Y-108520947D01*
X159935655Y-108514675D01*
X159911354Y-108505980D01*
X159888023Y-108494945D01*
X159865885Y-108481677D01*
X159845155Y-108466302D01*
X159826031Y-108448969D01*
X159808698Y-108429845D01*
X159793323Y-108409115D01*
X159780055Y-108386977D01*
X159769020Y-108363646D01*
X159760325Y-108339345D01*
X159754053Y-108314309D01*
X159750266Y-108288779D01*
X159749000Y-108263000D01*
X159749000Y-107737000D01*
X159750266Y-107711221D01*
X159754053Y-107685691D01*
X159760325Y-107660655D01*
X159769020Y-107636354D01*
X159780055Y-107613023D01*
X159793323Y-107590885D01*
X159808698Y-107570155D01*
X159826031Y-107551031D01*
X159845155Y-107533698D01*
X159865885Y-107518323D01*
X159888023Y-107505055D01*
X159911354Y-107494020D01*
X159935655Y-107485325D01*
X159960691Y-107479053D01*
X159986221Y-107475266D01*
X160012000Y-107474000D01*
X160638000Y-107474000D01*
X160663779Y-107475266D01*
X160663779Y-107475266D01*
G37*
D17*
X160325000Y-108000000D03*
D15*
G36*
X151013779Y-109275266D02*
G01*
X151039309Y-109279053D01*
X151064345Y-109285325D01*
X151088646Y-109294020D01*
X151111977Y-109305055D01*
X151134115Y-109318323D01*
X151154845Y-109333698D01*
X151173969Y-109351031D01*
X151191302Y-109370155D01*
X151206677Y-109390885D01*
X151219945Y-109413023D01*
X151230980Y-109436354D01*
X151239675Y-109460655D01*
X151245947Y-109485691D01*
X151249734Y-109511221D01*
X151251000Y-109537000D01*
X151251000Y-110063000D01*
X151249734Y-110088779D01*
X151245947Y-110114309D01*
X151239675Y-110139345D01*
X151230980Y-110163646D01*
X151219945Y-110186977D01*
X151206677Y-110209115D01*
X151191302Y-110229845D01*
X151173969Y-110248969D01*
X151154845Y-110266302D01*
X151134115Y-110281677D01*
X151111977Y-110294945D01*
X151088646Y-110305980D01*
X151064345Y-110314675D01*
X151039309Y-110320947D01*
X151013779Y-110324734D01*
X150988000Y-110326000D01*
X150362000Y-110326000D01*
X150336221Y-110324734D01*
X150310691Y-110320947D01*
X150285655Y-110314675D01*
X150261354Y-110305980D01*
X150238023Y-110294945D01*
X150215885Y-110281677D01*
X150195155Y-110266302D01*
X150176031Y-110248969D01*
X150158698Y-110229845D01*
X150143323Y-110209115D01*
X150130055Y-110186977D01*
X150119020Y-110163646D01*
X150110325Y-110139345D01*
X150104053Y-110114309D01*
X150100266Y-110088779D01*
X150099000Y-110063000D01*
X150099000Y-109537000D01*
X150100266Y-109511221D01*
X150104053Y-109485691D01*
X150110325Y-109460655D01*
X150119020Y-109436354D01*
X150130055Y-109413023D01*
X150143323Y-109390885D01*
X150158698Y-109370155D01*
X150176031Y-109351031D01*
X150195155Y-109333698D01*
X150215885Y-109318323D01*
X150238023Y-109305055D01*
X150261354Y-109294020D01*
X150285655Y-109285325D01*
X150310691Y-109279053D01*
X150336221Y-109275266D01*
X150362000Y-109274000D01*
X150988000Y-109274000D01*
X151013779Y-109275266D01*
X151013779Y-109275266D01*
G37*
D17*
X150675000Y-109800000D03*
D15*
G36*
X149263779Y-109275266D02*
G01*
X149289309Y-109279053D01*
X149314345Y-109285325D01*
X149338646Y-109294020D01*
X149361977Y-109305055D01*
X149384115Y-109318323D01*
X149404845Y-109333698D01*
X149423969Y-109351031D01*
X149441302Y-109370155D01*
X149456677Y-109390885D01*
X149469945Y-109413023D01*
X149480980Y-109436354D01*
X149489675Y-109460655D01*
X149495947Y-109485691D01*
X149499734Y-109511221D01*
X149501000Y-109537000D01*
X149501000Y-110063000D01*
X149499734Y-110088779D01*
X149495947Y-110114309D01*
X149489675Y-110139345D01*
X149480980Y-110163646D01*
X149469945Y-110186977D01*
X149456677Y-110209115D01*
X149441302Y-110229845D01*
X149423969Y-110248969D01*
X149404845Y-110266302D01*
X149384115Y-110281677D01*
X149361977Y-110294945D01*
X149338646Y-110305980D01*
X149314345Y-110314675D01*
X149289309Y-110320947D01*
X149263779Y-110324734D01*
X149238000Y-110326000D01*
X148612000Y-110326000D01*
X148586221Y-110324734D01*
X148560691Y-110320947D01*
X148535655Y-110314675D01*
X148511354Y-110305980D01*
X148488023Y-110294945D01*
X148465885Y-110281677D01*
X148445155Y-110266302D01*
X148426031Y-110248969D01*
X148408698Y-110229845D01*
X148393323Y-110209115D01*
X148380055Y-110186977D01*
X148369020Y-110163646D01*
X148360325Y-110139345D01*
X148354053Y-110114309D01*
X148350266Y-110088779D01*
X148349000Y-110063000D01*
X148349000Y-109537000D01*
X148350266Y-109511221D01*
X148354053Y-109485691D01*
X148360325Y-109460655D01*
X148369020Y-109436354D01*
X148380055Y-109413023D01*
X148393323Y-109390885D01*
X148408698Y-109370155D01*
X148426031Y-109351031D01*
X148445155Y-109333698D01*
X148465885Y-109318323D01*
X148488023Y-109305055D01*
X148511354Y-109294020D01*
X148535655Y-109285325D01*
X148560691Y-109279053D01*
X148586221Y-109275266D01*
X148612000Y-109274000D01*
X149238000Y-109274000D01*
X149263779Y-109275266D01*
X149263779Y-109275266D01*
G37*
D17*
X148925000Y-109800000D03*
D15*
G36*
X149263779Y-105275266D02*
G01*
X149289309Y-105279053D01*
X149314345Y-105285325D01*
X149338646Y-105294020D01*
X149361977Y-105305055D01*
X149384115Y-105318323D01*
X149404845Y-105333698D01*
X149423969Y-105351031D01*
X149441302Y-105370155D01*
X149456677Y-105390885D01*
X149469945Y-105413023D01*
X149480980Y-105436354D01*
X149489675Y-105460655D01*
X149495947Y-105485691D01*
X149499734Y-105511221D01*
X149501000Y-105537000D01*
X149501000Y-106063000D01*
X149499734Y-106088779D01*
X149495947Y-106114309D01*
X149489675Y-106139345D01*
X149480980Y-106163646D01*
X149469945Y-106186977D01*
X149456677Y-106209115D01*
X149441302Y-106229845D01*
X149423969Y-106248969D01*
X149404845Y-106266302D01*
X149384115Y-106281677D01*
X149361977Y-106294945D01*
X149338646Y-106305980D01*
X149314345Y-106314675D01*
X149289309Y-106320947D01*
X149263779Y-106324734D01*
X149238000Y-106326000D01*
X148612000Y-106326000D01*
X148586221Y-106324734D01*
X148560691Y-106320947D01*
X148535655Y-106314675D01*
X148511354Y-106305980D01*
X148488023Y-106294945D01*
X148465885Y-106281677D01*
X148445155Y-106266302D01*
X148426031Y-106248969D01*
X148408698Y-106229845D01*
X148393323Y-106209115D01*
X148380055Y-106186977D01*
X148369020Y-106163646D01*
X148360325Y-106139345D01*
X148354053Y-106114309D01*
X148350266Y-106088779D01*
X148349000Y-106063000D01*
X148349000Y-105537000D01*
X148350266Y-105511221D01*
X148354053Y-105485691D01*
X148360325Y-105460655D01*
X148369020Y-105436354D01*
X148380055Y-105413023D01*
X148393323Y-105390885D01*
X148408698Y-105370155D01*
X148426031Y-105351031D01*
X148445155Y-105333698D01*
X148465885Y-105318323D01*
X148488023Y-105305055D01*
X148511354Y-105294020D01*
X148535655Y-105285325D01*
X148560691Y-105279053D01*
X148586221Y-105275266D01*
X148612000Y-105274000D01*
X149238000Y-105274000D01*
X149263779Y-105275266D01*
X149263779Y-105275266D01*
G37*
D17*
X148925000Y-105800000D03*
D15*
G36*
X151013779Y-105275266D02*
G01*
X151039309Y-105279053D01*
X151064345Y-105285325D01*
X151088646Y-105294020D01*
X151111977Y-105305055D01*
X151134115Y-105318323D01*
X151154845Y-105333698D01*
X151173969Y-105351031D01*
X151191302Y-105370155D01*
X151206677Y-105390885D01*
X151219945Y-105413023D01*
X151230980Y-105436354D01*
X151239675Y-105460655D01*
X151245947Y-105485691D01*
X151249734Y-105511221D01*
X151251000Y-105537000D01*
X151251000Y-106063000D01*
X151249734Y-106088779D01*
X151245947Y-106114309D01*
X151239675Y-106139345D01*
X151230980Y-106163646D01*
X151219945Y-106186977D01*
X151206677Y-106209115D01*
X151191302Y-106229845D01*
X151173969Y-106248969D01*
X151154845Y-106266302D01*
X151134115Y-106281677D01*
X151111977Y-106294945D01*
X151088646Y-106305980D01*
X151064345Y-106314675D01*
X151039309Y-106320947D01*
X151013779Y-106324734D01*
X150988000Y-106326000D01*
X150362000Y-106326000D01*
X150336221Y-106324734D01*
X150310691Y-106320947D01*
X150285655Y-106314675D01*
X150261354Y-106305980D01*
X150238023Y-106294945D01*
X150215885Y-106281677D01*
X150195155Y-106266302D01*
X150176031Y-106248969D01*
X150158698Y-106229845D01*
X150143323Y-106209115D01*
X150130055Y-106186977D01*
X150119020Y-106163646D01*
X150110325Y-106139345D01*
X150104053Y-106114309D01*
X150100266Y-106088779D01*
X150099000Y-106063000D01*
X150099000Y-105537000D01*
X150100266Y-105511221D01*
X150104053Y-105485691D01*
X150110325Y-105460655D01*
X150119020Y-105436354D01*
X150130055Y-105413023D01*
X150143323Y-105390885D01*
X150158698Y-105370155D01*
X150176031Y-105351031D01*
X150195155Y-105333698D01*
X150215885Y-105318323D01*
X150238023Y-105305055D01*
X150261354Y-105294020D01*
X150285655Y-105285325D01*
X150310691Y-105279053D01*
X150336221Y-105275266D01*
X150362000Y-105274000D01*
X150988000Y-105274000D01*
X151013779Y-105275266D01*
X151013779Y-105275266D01*
G37*
D17*
X150675000Y-105800000D03*
D15*
G36*
X156613779Y-102075266D02*
G01*
X156639309Y-102079053D01*
X156664345Y-102085325D01*
X156688646Y-102094020D01*
X156711977Y-102105055D01*
X156734115Y-102118323D01*
X156754845Y-102133698D01*
X156773969Y-102151031D01*
X156791302Y-102170155D01*
X156806677Y-102190885D01*
X156819945Y-102213023D01*
X156830980Y-102236354D01*
X156839675Y-102260655D01*
X156845947Y-102285691D01*
X156849734Y-102311221D01*
X156851000Y-102337000D01*
X156851000Y-102863000D01*
X156849734Y-102888779D01*
X156845947Y-102914309D01*
X156839675Y-102939345D01*
X156830980Y-102963646D01*
X156819945Y-102986977D01*
X156806677Y-103009115D01*
X156791302Y-103029845D01*
X156773969Y-103048969D01*
X156754845Y-103066302D01*
X156734115Y-103081677D01*
X156711977Y-103094945D01*
X156688646Y-103105980D01*
X156664345Y-103114675D01*
X156639309Y-103120947D01*
X156613779Y-103124734D01*
X156588000Y-103126000D01*
X155962000Y-103126000D01*
X155936221Y-103124734D01*
X155910691Y-103120947D01*
X155885655Y-103114675D01*
X155861354Y-103105980D01*
X155838023Y-103094945D01*
X155815885Y-103081677D01*
X155795155Y-103066302D01*
X155776031Y-103048969D01*
X155758698Y-103029845D01*
X155743323Y-103009115D01*
X155730055Y-102986977D01*
X155719020Y-102963646D01*
X155710325Y-102939345D01*
X155704053Y-102914309D01*
X155700266Y-102888779D01*
X155699000Y-102863000D01*
X155699000Y-102337000D01*
X155700266Y-102311221D01*
X155704053Y-102285691D01*
X155710325Y-102260655D01*
X155719020Y-102236354D01*
X155730055Y-102213023D01*
X155743323Y-102190885D01*
X155758698Y-102170155D01*
X155776031Y-102151031D01*
X155795155Y-102133698D01*
X155815885Y-102118323D01*
X155838023Y-102105055D01*
X155861354Y-102094020D01*
X155885655Y-102085325D01*
X155910691Y-102079053D01*
X155936221Y-102075266D01*
X155962000Y-102074000D01*
X156588000Y-102074000D01*
X156613779Y-102075266D01*
X156613779Y-102075266D01*
G37*
D17*
X156275000Y-102600000D03*
D15*
G36*
X154863779Y-102075266D02*
G01*
X154889309Y-102079053D01*
X154914345Y-102085325D01*
X154938646Y-102094020D01*
X154961977Y-102105055D01*
X154984115Y-102118323D01*
X155004845Y-102133698D01*
X155023969Y-102151031D01*
X155041302Y-102170155D01*
X155056677Y-102190885D01*
X155069945Y-102213023D01*
X155080980Y-102236354D01*
X155089675Y-102260655D01*
X155095947Y-102285691D01*
X155099734Y-102311221D01*
X155101000Y-102337000D01*
X155101000Y-102863000D01*
X155099734Y-102888779D01*
X155095947Y-102914309D01*
X155089675Y-102939345D01*
X155080980Y-102963646D01*
X155069945Y-102986977D01*
X155056677Y-103009115D01*
X155041302Y-103029845D01*
X155023969Y-103048969D01*
X155004845Y-103066302D01*
X154984115Y-103081677D01*
X154961977Y-103094945D01*
X154938646Y-103105980D01*
X154914345Y-103114675D01*
X154889309Y-103120947D01*
X154863779Y-103124734D01*
X154838000Y-103126000D01*
X154212000Y-103126000D01*
X154186221Y-103124734D01*
X154160691Y-103120947D01*
X154135655Y-103114675D01*
X154111354Y-103105980D01*
X154088023Y-103094945D01*
X154065885Y-103081677D01*
X154045155Y-103066302D01*
X154026031Y-103048969D01*
X154008698Y-103029845D01*
X153993323Y-103009115D01*
X153980055Y-102986977D01*
X153969020Y-102963646D01*
X153960325Y-102939345D01*
X153954053Y-102914309D01*
X153950266Y-102888779D01*
X153949000Y-102863000D01*
X153949000Y-102337000D01*
X153950266Y-102311221D01*
X153954053Y-102285691D01*
X153960325Y-102260655D01*
X153969020Y-102236354D01*
X153980055Y-102213023D01*
X153993323Y-102190885D01*
X154008698Y-102170155D01*
X154026031Y-102151031D01*
X154045155Y-102133698D01*
X154065885Y-102118323D01*
X154088023Y-102105055D01*
X154111354Y-102094020D01*
X154135655Y-102085325D01*
X154160691Y-102079053D01*
X154186221Y-102075266D01*
X154212000Y-102074000D01*
X154838000Y-102074000D01*
X154863779Y-102075266D01*
X154863779Y-102075266D01*
G37*
D17*
X154525000Y-102600000D03*
D15*
G36*
X122472416Y-109639690D02*
G01*
X122497946Y-109643477D01*
X122522982Y-109649749D01*
X122547283Y-109658444D01*
X122570614Y-109669479D01*
X122592752Y-109682747D01*
X122613482Y-109698122D01*
X122632606Y-109715455D01*
X123004545Y-110087394D01*
X123021878Y-110106518D01*
X123037253Y-110127248D01*
X123050521Y-110149386D01*
X123061556Y-110172717D01*
X123070251Y-110197018D01*
X123076523Y-110222054D01*
X123080310Y-110247584D01*
X123081576Y-110273363D01*
X123080310Y-110299142D01*
X123076523Y-110324672D01*
X123070251Y-110349708D01*
X123061556Y-110374009D01*
X123050521Y-110397340D01*
X123037253Y-110419478D01*
X123021878Y-110440208D01*
X123004545Y-110459332D01*
X122561896Y-110901981D01*
X122542772Y-110919314D01*
X122522042Y-110934689D01*
X122499904Y-110947957D01*
X122476573Y-110958992D01*
X122452272Y-110967687D01*
X122427236Y-110973959D01*
X122401706Y-110977746D01*
X122375927Y-110979012D01*
X122350148Y-110977746D01*
X122324618Y-110973959D01*
X122299582Y-110967687D01*
X122275281Y-110958992D01*
X122251950Y-110947957D01*
X122229812Y-110934689D01*
X122209082Y-110919314D01*
X122189958Y-110901981D01*
X121818019Y-110530042D01*
X121800686Y-110510918D01*
X121785311Y-110490188D01*
X121772043Y-110468050D01*
X121761008Y-110444719D01*
X121752313Y-110420418D01*
X121746041Y-110395382D01*
X121742254Y-110369852D01*
X121740988Y-110344073D01*
X121742254Y-110318294D01*
X121746041Y-110292764D01*
X121752313Y-110267728D01*
X121761008Y-110243427D01*
X121772043Y-110220096D01*
X121785311Y-110197958D01*
X121800686Y-110177228D01*
X121818019Y-110158104D01*
X122260668Y-109715455D01*
X122279792Y-109698122D01*
X122300522Y-109682747D01*
X122322660Y-109669479D01*
X122345991Y-109658444D01*
X122370292Y-109649749D01*
X122395328Y-109643477D01*
X122420858Y-109639690D01*
X122446637Y-109638424D01*
X122472416Y-109639690D01*
X122472416Y-109639690D01*
G37*
D17*
X122411282Y-110308718D03*
D15*
G36*
X123709852Y-108402254D02*
G01*
X123735382Y-108406041D01*
X123760418Y-108412313D01*
X123784719Y-108421008D01*
X123808050Y-108432043D01*
X123830188Y-108445311D01*
X123850918Y-108460686D01*
X123870042Y-108478019D01*
X124241981Y-108849958D01*
X124259314Y-108869082D01*
X124274689Y-108889812D01*
X124287957Y-108911950D01*
X124298992Y-108935281D01*
X124307687Y-108959582D01*
X124313959Y-108984618D01*
X124317746Y-109010148D01*
X124319012Y-109035927D01*
X124317746Y-109061706D01*
X124313959Y-109087236D01*
X124307687Y-109112272D01*
X124298992Y-109136573D01*
X124287957Y-109159904D01*
X124274689Y-109182042D01*
X124259314Y-109202772D01*
X124241981Y-109221896D01*
X123799332Y-109664545D01*
X123780208Y-109681878D01*
X123759478Y-109697253D01*
X123737340Y-109710521D01*
X123714009Y-109721556D01*
X123689708Y-109730251D01*
X123664672Y-109736523D01*
X123639142Y-109740310D01*
X123613363Y-109741576D01*
X123587584Y-109740310D01*
X123562054Y-109736523D01*
X123537018Y-109730251D01*
X123512717Y-109721556D01*
X123489386Y-109710521D01*
X123467248Y-109697253D01*
X123446518Y-109681878D01*
X123427394Y-109664545D01*
X123055455Y-109292606D01*
X123038122Y-109273482D01*
X123022747Y-109252752D01*
X123009479Y-109230614D01*
X122998444Y-109207283D01*
X122989749Y-109182982D01*
X122983477Y-109157946D01*
X122979690Y-109132416D01*
X122978424Y-109106637D01*
X122979690Y-109080858D01*
X122983477Y-109055328D01*
X122989749Y-109030292D01*
X122998444Y-109005991D01*
X123009479Y-108982660D01*
X123022747Y-108960522D01*
X123038122Y-108939792D01*
X123055455Y-108920668D01*
X123498104Y-108478019D01*
X123517228Y-108460686D01*
X123537958Y-108445311D01*
X123560096Y-108432043D01*
X123583427Y-108421008D01*
X123607728Y-108412313D01*
X123632764Y-108406041D01*
X123658294Y-108402254D01*
X123684073Y-108400988D01*
X123709852Y-108402254D01*
X123709852Y-108402254D01*
G37*
D17*
X123648718Y-109071282D03*
D15*
G36*
X127453698Y-114428408D02*
G01*
X127479228Y-114432195D01*
X127504264Y-114438467D01*
X127528565Y-114447162D01*
X127551896Y-114458197D01*
X127574034Y-114471465D01*
X127594764Y-114486840D01*
X127613888Y-114504173D01*
X127985827Y-114876112D01*
X128003160Y-114895236D01*
X128018535Y-114915966D01*
X128031803Y-114938104D01*
X128042838Y-114961435D01*
X128051533Y-114985736D01*
X128057805Y-115010772D01*
X128061592Y-115036302D01*
X128062858Y-115062081D01*
X128061592Y-115087860D01*
X128057805Y-115113390D01*
X128051533Y-115138426D01*
X128042838Y-115162727D01*
X128031803Y-115186058D01*
X128018535Y-115208196D01*
X128003160Y-115228926D01*
X127985827Y-115248050D01*
X127543178Y-115690699D01*
X127524054Y-115708032D01*
X127503324Y-115723407D01*
X127481186Y-115736675D01*
X127457855Y-115747710D01*
X127433554Y-115756405D01*
X127408518Y-115762677D01*
X127382988Y-115766464D01*
X127357209Y-115767730D01*
X127331430Y-115766464D01*
X127305900Y-115762677D01*
X127280864Y-115756405D01*
X127256563Y-115747710D01*
X127233232Y-115736675D01*
X127211094Y-115723407D01*
X127190364Y-115708032D01*
X127171240Y-115690699D01*
X126799301Y-115318760D01*
X126781968Y-115299636D01*
X126766593Y-115278906D01*
X126753325Y-115256768D01*
X126742290Y-115233437D01*
X126733595Y-115209136D01*
X126727323Y-115184100D01*
X126723536Y-115158570D01*
X126722270Y-115132791D01*
X126723536Y-115107012D01*
X126727323Y-115081482D01*
X126733595Y-115056446D01*
X126742290Y-115032145D01*
X126753325Y-115008814D01*
X126766593Y-114986676D01*
X126781968Y-114965946D01*
X126799301Y-114946822D01*
X127241950Y-114504173D01*
X127261074Y-114486840D01*
X127281804Y-114471465D01*
X127303942Y-114458197D01*
X127327273Y-114447162D01*
X127351574Y-114438467D01*
X127376610Y-114432195D01*
X127402140Y-114428408D01*
X127427919Y-114427142D01*
X127453698Y-114428408D01*
X127453698Y-114428408D01*
G37*
D17*
X127392564Y-115097436D03*
D15*
G36*
X128691134Y-113190972D02*
G01*
X128716664Y-113194759D01*
X128741700Y-113201031D01*
X128766001Y-113209726D01*
X128789332Y-113220761D01*
X128811470Y-113234029D01*
X128832200Y-113249404D01*
X128851324Y-113266737D01*
X129223263Y-113638676D01*
X129240596Y-113657800D01*
X129255971Y-113678530D01*
X129269239Y-113700668D01*
X129280274Y-113723999D01*
X129288969Y-113748300D01*
X129295241Y-113773336D01*
X129299028Y-113798866D01*
X129300294Y-113824645D01*
X129299028Y-113850424D01*
X129295241Y-113875954D01*
X129288969Y-113900990D01*
X129280274Y-113925291D01*
X129269239Y-113948622D01*
X129255971Y-113970760D01*
X129240596Y-113991490D01*
X129223263Y-114010614D01*
X128780614Y-114453263D01*
X128761490Y-114470596D01*
X128740760Y-114485971D01*
X128718622Y-114499239D01*
X128695291Y-114510274D01*
X128670990Y-114518969D01*
X128645954Y-114525241D01*
X128620424Y-114529028D01*
X128594645Y-114530294D01*
X128568866Y-114529028D01*
X128543336Y-114525241D01*
X128518300Y-114518969D01*
X128493999Y-114510274D01*
X128470668Y-114499239D01*
X128448530Y-114485971D01*
X128427800Y-114470596D01*
X128408676Y-114453263D01*
X128036737Y-114081324D01*
X128019404Y-114062200D01*
X128004029Y-114041470D01*
X127990761Y-114019332D01*
X127979726Y-113996001D01*
X127971031Y-113971700D01*
X127964759Y-113946664D01*
X127960972Y-113921134D01*
X127959706Y-113895355D01*
X127960972Y-113869576D01*
X127964759Y-113844046D01*
X127971031Y-113819010D01*
X127979726Y-113794709D01*
X127990761Y-113771378D01*
X128004029Y-113749240D01*
X128019404Y-113728510D01*
X128036737Y-113709386D01*
X128479386Y-113266737D01*
X128498510Y-113249404D01*
X128519240Y-113234029D01*
X128541378Y-113220761D01*
X128564709Y-113209726D01*
X128589010Y-113201031D01*
X128614046Y-113194759D01*
X128639576Y-113190972D01*
X128665355Y-113189706D01*
X128691134Y-113190972D01*
X128691134Y-113190972D01*
G37*
D17*
X128630000Y-113860000D03*
D15*
G36*
X117842416Y-99930972D02*
G01*
X117867946Y-99934759D01*
X117892982Y-99941031D01*
X117917283Y-99949726D01*
X117940614Y-99960761D01*
X117962752Y-99974029D01*
X117983482Y-99989404D01*
X118002606Y-100006737D01*
X118374545Y-100378676D01*
X118391878Y-100397800D01*
X118407253Y-100418530D01*
X118420521Y-100440668D01*
X118431556Y-100463999D01*
X118440251Y-100488300D01*
X118446523Y-100513336D01*
X118450310Y-100538866D01*
X118451576Y-100564645D01*
X118450310Y-100590424D01*
X118446523Y-100615954D01*
X118440251Y-100640990D01*
X118431556Y-100665291D01*
X118420521Y-100688622D01*
X118407253Y-100710760D01*
X118391878Y-100731490D01*
X118374545Y-100750614D01*
X117931896Y-101193263D01*
X117912772Y-101210596D01*
X117892042Y-101225971D01*
X117869904Y-101239239D01*
X117846573Y-101250274D01*
X117822272Y-101258969D01*
X117797236Y-101265241D01*
X117771706Y-101269028D01*
X117745927Y-101270294D01*
X117720148Y-101269028D01*
X117694618Y-101265241D01*
X117669582Y-101258969D01*
X117645281Y-101250274D01*
X117621950Y-101239239D01*
X117599812Y-101225971D01*
X117579082Y-101210596D01*
X117559958Y-101193263D01*
X117188019Y-100821324D01*
X117170686Y-100802200D01*
X117155311Y-100781470D01*
X117142043Y-100759332D01*
X117131008Y-100736001D01*
X117122313Y-100711700D01*
X117116041Y-100686664D01*
X117112254Y-100661134D01*
X117110988Y-100635355D01*
X117112254Y-100609576D01*
X117116041Y-100584046D01*
X117122313Y-100559010D01*
X117131008Y-100534709D01*
X117142043Y-100511378D01*
X117155311Y-100489240D01*
X117170686Y-100468510D01*
X117188019Y-100449386D01*
X117630668Y-100006737D01*
X117649792Y-99989404D01*
X117670522Y-99974029D01*
X117692660Y-99960761D01*
X117715991Y-99949726D01*
X117740292Y-99941031D01*
X117765328Y-99934759D01*
X117790858Y-99930972D01*
X117816637Y-99929706D01*
X117842416Y-99930972D01*
X117842416Y-99930972D01*
G37*
D17*
X117781282Y-100600000D03*
D15*
G36*
X119079852Y-98693536D02*
G01*
X119105382Y-98697323D01*
X119130418Y-98703595D01*
X119154719Y-98712290D01*
X119178050Y-98723325D01*
X119200188Y-98736593D01*
X119220918Y-98751968D01*
X119240042Y-98769301D01*
X119611981Y-99141240D01*
X119629314Y-99160364D01*
X119644689Y-99181094D01*
X119657957Y-99203232D01*
X119668992Y-99226563D01*
X119677687Y-99250864D01*
X119683959Y-99275900D01*
X119687746Y-99301430D01*
X119689012Y-99327209D01*
X119687746Y-99352988D01*
X119683959Y-99378518D01*
X119677687Y-99403554D01*
X119668992Y-99427855D01*
X119657957Y-99451186D01*
X119644689Y-99473324D01*
X119629314Y-99494054D01*
X119611981Y-99513178D01*
X119169332Y-99955827D01*
X119150208Y-99973160D01*
X119129478Y-99988535D01*
X119107340Y-100001803D01*
X119084009Y-100012838D01*
X119059708Y-100021533D01*
X119034672Y-100027805D01*
X119009142Y-100031592D01*
X118983363Y-100032858D01*
X118957584Y-100031592D01*
X118932054Y-100027805D01*
X118907018Y-100021533D01*
X118882717Y-100012838D01*
X118859386Y-100001803D01*
X118837248Y-99988535D01*
X118816518Y-99973160D01*
X118797394Y-99955827D01*
X118425455Y-99583888D01*
X118408122Y-99564764D01*
X118392747Y-99544034D01*
X118379479Y-99521896D01*
X118368444Y-99498565D01*
X118359749Y-99474264D01*
X118353477Y-99449228D01*
X118349690Y-99423698D01*
X118348424Y-99397919D01*
X118349690Y-99372140D01*
X118353477Y-99346610D01*
X118359749Y-99321574D01*
X118368444Y-99297273D01*
X118379479Y-99273942D01*
X118392747Y-99251804D01*
X118408122Y-99231074D01*
X118425455Y-99211950D01*
X118868104Y-98769301D01*
X118887228Y-98751968D01*
X118907958Y-98736593D01*
X118930096Y-98723325D01*
X118953427Y-98712290D01*
X118977728Y-98703595D01*
X119002764Y-98697323D01*
X119028294Y-98693536D01*
X119054073Y-98692270D01*
X119079852Y-98693536D01*
X119079852Y-98693536D01*
G37*
D17*
X119018718Y-99362564D03*
D15*
G36*
X160663779Y-108975266D02*
G01*
X160689309Y-108979053D01*
X160714345Y-108985325D01*
X160738646Y-108994020D01*
X160761977Y-109005055D01*
X160784115Y-109018323D01*
X160804845Y-109033698D01*
X160823969Y-109051031D01*
X160841302Y-109070155D01*
X160856677Y-109090885D01*
X160869945Y-109113023D01*
X160880980Y-109136354D01*
X160889675Y-109160655D01*
X160895947Y-109185691D01*
X160899734Y-109211221D01*
X160901000Y-109237000D01*
X160901000Y-109763000D01*
X160899734Y-109788779D01*
X160895947Y-109814309D01*
X160889675Y-109839345D01*
X160880980Y-109863646D01*
X160869945Y-109886977D01*
X160856677Y-109909115D01*
X160841302Y-109929845D01*
X160823969Y-109948969D01*
X160804845Y-109966302D01*
X160784115Y-109981677D01*
X160761977Y-109994945D01*
X160738646Y-110005980D01*
X160714345Y-110014675D01*
X160689309Y-110020947D01*
X160663779Y-110024734D01*
X160638000Y-110026000D01*
X160012000Y-110026000D01*
X159986221Y-110024734D01*
X159960691Y-110020947D01*
X159935655Y-110014675D01*
X159911354Y-110005980D01*
X159888023Y-109994945D01*
X159865885Y-109981677D01*
X159845155Y-109966302D01*
X159826031Y-109948969D01*
X159808698Y-109929845D01*
X159793323Y-109909115D01*
X159780055Y-109886977D01*
X159769020Y-109863646D01*
X159760325Y-109839345D01*
X159754053Y-109814309D01*
X159750266Y-109788779D01*
X159749000Y-109763000D01*
X159749000Y-109237000D01*
X159750266Y-109211221D01*
X159754053Y-109185691D01*
X159760325Y-109160655D01*
X159769020Y-109136354D01*
X159780055Y-109113023D01*
X159793323Y-109090885D01*
X159808698Y-109070155D01*
X159826031Y-109051031D01*
X159845155Y-109033698D01*
X159865885Y-109018323D01*
X159888023Y-109005055D01*
X159911354Y-108994020D01*
X159935655Y-108985325D01*
X159960691Y-108979053D01*
X159986221Y-108975266D01*
X160012000Y-108974000D01*
X160638000Y-108974000D01*
X160663779Y-108975266D01*
X160663779Y-108975266D01*
G37*
D17*
X160325000Y-109500000D03*
D15*
G36*
X162413779Y-108975266D02*
G01*
X162439309Y-108979053D01*
X162464345Y-108985325D01*
X162488646Y-108994020D01*
X162511977Y-109005055D01*
X162534115Y-109018323D01*
X162554845Y-109033698D01*
X162573969Y-109051031D01*
X162591302Y-109070155D01*
X162606677Y-109090885D01*
X162619945Y-109113023D01*
X162630980Y-109136354D01*
X162639675Y-109160655D01*
X162645947Y-109185691D01*
X162649734Y-109211221D01*
X162651000Y-109237000D01*
X162651000Y-109763000D01*
X162649734Y-109788779D01*
X162645947Y-109814309D01*
X162639675Y-109839345D01*
X162630980Y-109863646D01*
X162619945Y-109886977D01*
X162606677Y-109909115D01*
X162591302Y-109929845D01*
X162573969Y-109948969D01*
X162554845Y-109966302D01*
X162534115Y-109981677D01*
X162511977Y-109994945D01*
X162488646Y-110005980D01*
X162464345Y-110014675D01*
X162439309Y-110020947D01*
X162413779Y-110024734D01*
X162388000Y-110026000D01*
X161762000Y-110026000D01*
X161736221Y-110024734D01*
X161710691Y-110020947D01*
X161685655Y-110014675D01*
X161661354Y-110005980D01*
X161638023Y-109994945D01*
X161615885Y-109981677D01*
X161595155Y-109966302D01*
X161576031Y-109948969D01*
X161558698Y-109929845D01*
X161543323Y-109909115D01*
X161530055Y-109886977D01*
X161519020Y-109863646D01*
X161510325Y-109839345D01*
X161504053Y-109814309D01*
X161500266Y-109788779D01*
X161499000Y-109763000D01*
X161499000Y-109237000D01*
X161500266Y-109211221D01*
X161504053Y-109185691D01*
X161510325Y-109160655D01*
X161519020Y-109136354D01*
X161530055Y-109113023D01*
X161543323Y-109090885D01*
X161558698Y-109070155D01*
X161576031Y-109051031D01*
X161595155Y-109033698D01*
X161615885Y-109018323D01*
X161638023Y-109005055D01*
X161661354Y-108994020D01*
X161685655Y-108985325D01*
X161710691Y-108979053D01*
X161736221Y-108975266D01*
X161762000Y-108974000D01*
X162388000Y-108974000D01*
X162413779Y-108975266D01*
X162413779Y-108975266D01*
G37*
D17*
X162075000Y-109500000D03*
D30*
X148600000Y-131600000D03*
D15*
G36*
X149703495Y-132237103D02*
G01*
X147962897Y-132703495D01*
X147496505Y-130962897D01*
X149237103Y-130496505D01*
X149703495Y-132237103D01*
X149703495Y-132237103D01*
G37*
D30*
X146146548Y-132257400D03*
D31*
X146146548Y-132257400D02*
X146146548Y-132257400D01*
D15*
G36*
X143413779Y-118075266D02*
G01*
X143439309Y-118079053D01*
X143464345Y-118085325D01*
X143488646Y-118094020D01*
X143511977Y-118105055D01*
X143534115Y-118118323D01*
X143554845Y-118133698D01*
X143573969Y-118151031D01*
X143591302Y-118170155D01*
X143606677Y-118190885D01*
X143619945Y-118213023D01*
X143630980Y-118236354D01*
X143639675Y-118260655D01*
X143645947Y-118285691D01*
X143649734Y-118311221D01*
X143651000Y-118337000D01*
X143651000Y-118863000D01*
X143649734Y-118888779D01*
X143645947Y-118914309D01*
X143639675Y-118939345D01*
X143630980Y-118963646D01*
X143619945Y-118986977D01*
X143606677Y-119009115D01*
X143591302Y-119029845D01*
X143573969Y-119048969D01*
X143554845Y-119066302D01*
X143534115Y-119081677D01*
X143511977Y-119094945D01*
X143488646Y-119105980D01*
X143464345Y-119114675D01*
X143439309Y-119120947D01*
X143413779Y-119124734D01*
X143388000Y-119126000D01*
X142762000Y-119126000D01*
X142736221Y-119124734D01*
X142710691Y-119120947D01*
X142685655Y-119114675D01*
X142661354Y-119105980D01*
X142638023Y-119094945D01*
X142615885Y-119081677D01*
X142595155Y-119066302D01*
X142576031Y-119048969D01*
X142558698Y-119029845D01*
X142543323Y-119009115D01*
X142530055Y-118986977D01*
X142519020Y-118963646D01*
X142510325Y-118939345D01*
X142504053Y-118914309D01*
X142500266Y-118888779D01*
X142499000Y-118863000D01*
X142499000Y-118337000D01*
X142500266Y-118311221D01*
X142504053Y-118285691D01*
X142510325Y-118260655D01*
X142519020Y-118236354D01*
X142530055Y-118213023D01*
X142543323Y-118190885D01*
X142558698Y-118170155D01*
X142576031Y-118151031D01*
X142595155Y-118133698D01*
X142615885Y-118118323D01*
X142638023Y-118105055D01*
X142661354Y-118094020D01*
X142685655Y-118085325D01*
X142710691Y-118079053D01*
X142736221Y-118075266D01*
X142762000Y-118074000D01*
X143388000Y-118074000D01*
X143413779Y-118075266D01*
X143413779Y-118075266D01*
G37*
D17*
X143075000Y-118600000D03*
D15*
G36*
X141663779Y-118075266D02*
G01*
X141689309Y-118079053D01*
X141714345Y-118085325D01*
X141738646Y-118094020D01*
X141761977Y-118105055D01*
X141784115Y-118118323D01*
X141804845Y-118133698D01*
X141823969Y-118151031D01*
X141841302Y-118170155D01*
X141856677Y-118190885D01*
X141869945Y-118213023D01*
X141880980Y-118236354D01*
X141889675Y-118260655D01*
X141895947Y-118285691D01*
X141899734Y-118311221D01*
X141901000Y-118337000D01*
X141901000Y-118863000D01*
X141899734Y-118888779D01*
X141895947Y-118914309D01*
X141889675Y-118939345D01*
X141880980Y-118963646D01*
X141869945Y-118986977D01*
X141856677Y-119009115D01*
X141841302Y-119029845D01*
X141823969Y-119048969D01*
X141804845Y-119066302D01*
X141784115Y-119081677D01*
X141761977Y-119094945D01*
X141738646Y-119105980D01*
X141714345Y-119114675D01*
X141689309Y-119120947D01*
X141663779Y-119124734D01*
X141638000Y-119126000D01*
X141012000Y-119126000D01*
X140986221Y-119124734D01*
X140960691Y-119120947D01*
X140935655Y-119114675D01*
X140911354Y-119105980D01*
X140888023Y-119094945D01*
X140865885Y-119081677D01*
X140845155Y-119066302D01*
X140826031Y-119048969D01*
X140808698Y-119029845D01*
X140793323Y-119009115D01*
X140780055Y-118986977D01*
X140769020Y-118963646D01*
X140760325Y-118939345D01*
X140754053Y-118914309D01*
X140750266Y-118888779D01*
X140749000Y-118863000D01*
X140749000Y-118337000D01*
X140750266Y-118311221D01*
X140754053Y-118285691D01*
X140760325Y-118260655D01*
X140769020Y-118236354D01*
X140780055Y-118213023D01*
X140793323Y-118190885D01*
X140808698Y-118170155D01*
X140826031Y-118151031D01*
X140845155Y-118133698D01*
X140865885Y-118118323D01*
X140888023Y-118105055D01*
X140911354Y-118094020D01*
X140935655Y-118085325D01*
X140960691Y-118079053D01*
X140986221Y-118075266D01*
X141012000Y-118074000D01*
X141638000Y-118074000D01*
X141663779Y-118075266D01*
X141663779Y-118075266D01*
G37*
D17*
X141325000Y-118600000D03*
D15*
G36*
X141663779Y-120075266D02*
G01*
X141689309Y-120079053D01*
X141714345Y-120085325D01*
X141738646Y-120094020D01*
X141761977Y-120105055D01*
X141784115Y-120118323D01*
X141804845Y-120133698D01*
X141823969Y-120151031D01*
X141841302Y-120170155D01*
X141856677Y-120190885D01*
X141869945Y-120213023D01*
X141880980Y-120236354D01*
X141889675Y-120260655D01*
X141895947Y-120285691D01*
X141899734Y-120311221D01*
X141901000Y-120337000D01*
X141901000Y-120863000D01*
X141899734Y-120888779D01*
X141895947Y-120914309D01*
X141889675Y-120939345D01*
X141880980Y-120963646D01*
X141869945Y-120986977D01*
X141856677Y-121009115D01*
X141841302Y-121029845D01*
X141823969Y-121048969D01*
X141804845Y-121066302D01*
X141784115Y-121081677D01*
X141761977Y-121094945D01*
X141738646Y-121105980D01*
X141714345Y-121114675D01*
X141689309Y-121120947D01*
X141663779Y-121124734D01*
X141638000Y-121126000D01*
X141012000Y-121126000D01*
X140986221Y-121124734D01*
X140960691Y-121120947D01*
X140935655Y-121114675D01*
X140911354Y-121105980D01*
X140888023Y-121094945D01*
X140865885Y-121081677D01*
X140845155Y-121066302D01*
X140826031Y-121048969D01*
X140808698Y-121029845D01*
X140793323Y-121009115D01*
X140780055Y-120986977D01*
X140769020Y-120963646D01*
X140760325Y-120939345D01*
X140754053Y-120914309D01*
X140750266Y-120888779D01*
X140749000Y-120863000D01*
X140749000Y-120337000D01*
X140750266Y-120311221D01*
X140754053Y-120285691D01*
X140760325Y-120260655D01*
X140769020Y-120236354D01*
X140780055Y-120213023D01*
X140793323Y-120190885D01*
X140808698Y-120170155D01*
X140826031Y-120151031D01*
X140845155Y-120133698D01*
X140865885Y-120118323D01*
X140888023Y-120105055D01*
X140911354Y-120094020D01*
X140935655Y-120085325D01*
X140960691Y-120079053D01*
X140986221Y-120075266D01*
X141012000Y-120074000D01*
X141638000Y-120074000D01*
X141663779Y-120075266D01*
X141663779Y-120075266D01*
G37*
D17*
X141325000Y-120600000D03*
D15*
G36*
X143413779Y-120075266D02*
G01*
X143439309Y-120079053D01*
X143464345Y-120085325D01*
X143488646Y-120094020D01*
X143511977Y-120105055D01*
X143534115Y-120118323D01*
X143554845Y-120133698D01*
X143573969Y-120151031D01*
X143591302Y-120170155D01*
X143606677Y-120190885D01*
X143619945Y-120213023D01*
X143630980Y-120236354D01*
X143639675Y-120260655D01*
X143645947Y-120285691D01*
X143649734Y-120311221D01*
X143651000Y-120337000D01*
X143651000Y-120863000D01*
X143649734Y-120888779D01*
X143645947Y-120914309D01*
X143639675Y-120939345D01*
X143630980Y-120963646D01*
X143619945Y-120986977D01*
X143606677Y-121009115D01*
X143591302Y-121029845D01*
X143573969Y-121048969D01*
X143554845Y-121066302D01*
X143534115Y-121081677D01*
X143511977Y-121094945D01*
X143488646Y-121105980D01*
X143464345Y-121114675D01*
X143439309Y-121120947D01*
X143413779Y-121124734D01*
X143388000Y-121126000D01*
X142762000Y-121126000D01*
X142736221Y-121124734D01*
X142710691Y-121120947D01*
X142685655Y-121114675D01*
X142661354Y-121105980D01*
X142638023Y-121094945D01*
X142615885Y-121081677D01*
X142595155Y-121066302D01*
X142576031Y-121048969D01*
X142558698Y-121029845D01*
X142543323Y-121009115D01*
X142530055Y-120986977D01*
X142519020Y-120963646D01*
X142510325Y-120939345D01*
X142504053Y-120914309D01*
X142500266Y-120888779D01*
X142499000Y-120863000D01*
X142499000Y-120337000D01*
X142500266Y-120311221D01*
X142504053Y-120285691D01*
X142510325Y-120260655D01*
X142519020Y-120236354D01*
X142530055Y-120213023D01*
X142543323Y-120190885D01*
X142558698Y-120170155D01*
X142576031Y-120151031D01*
X142595155Y-120133698D01*
X142615885Y-120118323D01*
X142638023Y-120105055D01*
X142661354Y-120094020D01*
X142685655Y-120085325D01*
X142710691Y-120079053D01*
X142736221Y-120075266D01*
X142762000Y-120074000D01*
X143388000Y-120074000D01*
X143413779Y-120075266D01*
X143413779Y-120075266D01*
G37*
D17*
X143075000Y-120600000D03*
D32*
X132300000Y-120700000D03*
D33*
X138600000Y-120700000D03*
X138600000Y-118400000D03*
X138600000Y-123000000D03*
D15*
G36*
X122199852Y-101902254D02*
G01*
X122225382Y-101906041D01*
X122250418Y-101912313D01*
X122274719Y-101921008D01*
X122298050Y-101932043D01*
X122320188Y-101945311D01*
X122340918Y-101960686D01*
X122360042Y-101978019D01*
X122731981Y-102349958D01*
X122749314Y-102369082D01*
X122764689Y-102389812D01*
X122777957Y-102411950D01*
X122788992Y-102435281D01*
X122797687Y-102459582D01*
X122803959Y-102484618D01*
X122807746Y-102510148D01*
X122809012Y-102535927D01*
X122807746Y-102561706D01*
X122803959Y-102587236D01*
X122797687Y-102612272D01*
X122788992Y-102636573D01*
X122777957Y-102659904D01*
X122764689Y-102682042D01*
X122749314Y-102702772D01*
X122731981Y-102721896D01*
X122289332Y-103164545D01*
X122270208Y-103181878D01*
X122249478Y-103197253D01*
X122227340Y-103210521D01*
X122204009Y-103221556D01*
X122179708Y-103230251D01*
X122154672Y-103236523D01*
X122129142Y-103240310D01*
X122103363Y-103241576D01*
X122077584Y-103240310D01*
X122052054Y-103236523D01*
X122027018Y-103230251D01*
X122002717Y-103221556D01*
X121979386Y-103210521D01*
X121957248Y-103197253D01*
X121936518Y-103181878D01*
X121917394Y-103164545D01*
X121545455Y-102792606D01*
X121528122Y-102773482D01*
X121512747Y-102752752D01*
X121499479Y-102730614D01*
X121488444Y-102707283D01*
X121479749Y-102682982D01*
X121473477Y-102657946D01*
X121469690Y-102632416D01*
X121468424Y-102606637D01*
X121469690Y-102580858D01*
X121473477Y-102555328D01*
X121479749Y-102530292D01*
X121488444Y-102505991D01*
X121499479Y-102482660D01*
X121512747Y-102460522D01*
X121528122Y-102439792D01*
X121545455Y-102420668D01*
X121988104Y-101978019D01*
X122007228Y-101960686D01*
X122027958Y-101945311D01*
X122050096Y-101932043D01*
X122073427Y-101921008D01*
X122097728Y-101912313D01*
X122122764Y-101906041D01*
X122148294Y-101902254D01*
X122174073Y-101900988D01*
X122199852Y-101902254D01*
X122199852Y-101902254D01*
G37*
D17*
X122138718Y-102571282D03*
D15*
G36*
X120962416Y-103139690D02*
G01*
X120987946Y-103143477D01*
X121012982Y-103149749D01*
X121037283Y-103158444D01*
X121060614Y-103169479D01*
X121082752Y-103182747D01*
X121103482Y-103198122D01*
X121122606Y-103215455D01*
X121494545Y-103587394D01*
X121511878Y-103606518D01*
X121527253Y-103627248D01*
X121540521Y-103649386D01*
X121551556Y-103672717D01*
X121560251Y-103697018D01*
X121566523Y-103722054D01*
X121570310Y-103747584D01*
X121571576Y-103773363D01*
X121570310Y-103799142D01*
X121566523Y-103824672D01*
X121560251Y-103849708D01*
X121551556Y-103874009D01*
X121540521Y-103897340D01*
X121527253Y-103919478D01*
X121511878Y-103940208D01*
X121494545Y-103959332D01*
X121051896Y-104401981D01*
X121032772Y-104419314D01*
X121012042Y-104434689D01*
X120989904Y-104447957D01*
X120966573Y-104458992D01*
X120942272Y-104467687D01*
X120917236Y-104473959D01*
X120891706Y-104477746D01*
X120865927Y-104479012D01*
X120840148Y-104477746D01*
X120814618Y-104473959D01*
X120789582Y-104467687D01*
X120765281Y-104458992D01*
X120741950Y-104447957D01*
X120719812Y-104434689D01*
X120699082Y-104419314D01*
X120679958Y-104401981D01*
X120308019Y-104030042D01*
X120290686Y-104010918D01*
X120275311Y-103990188D01*
X120262043Y-103968050D01*
X120251008Y-103944719D01*
X120242313Y-103920418D01*
X120236041Y-103895382D01*
X120232254Y-103869852D01*
X120230988Y-103844073D01*
X120232254Y-103818294D01*
X120236041Y-103792764D01*
X120242313Y-103767728D01*
X120251008Y-103743427D01*
X120262043Y-103720096D01*
X120275311Y-103697958D01*
X120290686Y-103677228D01*
X120308019Y-103658104D01*
X120750668Y-103215455D01*
X120769792Y-103198122D01*
X120790522Y-103182747D01*
X120812660Y-103169479D01*
X120835991Y-103158444D01*
X120860292Y-103149749D01*
X120885328Y-103143477D01*
X120910858Y-103139690D01*
X120936637Y-103138424D01*
X120962416Y-103139690D01*
X120962416Y-103139690D01*
G37*
D17*
X120901282Y-103808718D03*
D34*
X147853518Y-128238963D03*
X146546482Y-123361037D03*
D30*
X157000000Y-93500000D03*
D15*
G36*
X157000000Y-94774206D02*
G01*
X155725794Y-93500000D01*
X157000000Y-92225794D01*
X158274206Y-93500000D01*
X157000000Y-94774206D01*
X157000000Y-94774206D01*
G37*
D30*
X158796051Y-95296051D03*
D31*
X158796051Y-95296051D02*
X158796051Y-95296051D01*
D30*
X160592102Y-97092102D03*
D31*
X160592102Y-97092102D02*
X160592102Y-97092102D01*
D30*
X162388154Y-98888154D03*
D31*
X162388154Y-98888154D02*
X162388154Y-98888154D01*
D30*
X143300000Y-79800000D03*
D15*
G36*
X143300000Y-81074206D02*
G01*
X142025794Y-79800000D01*
X143300000Y-78525794D01*
X144574206Y-79800000D01*
X143300000Y-81074206D01*
X143300000Y-81074206D01*
G37*
D30*
X141503949Y-81596051D03*
D31*
X141503949Y-81596051D02*
X141503949Y-81596051D01*
D30*
X145096051Y-81596051D03*
D31*
X145096051Y-81596051D02*
X145096051Y-81596051D01*
D30*
X143300000Y-83392102D03*
D31*
X143300000Y-83392102D02*
X143300000Y-83392102D01*
D30*
X146892102Y-83392102D03*
D31*
X146892102Y-83392102D02*
X146892102Y-83392102D01*
D30*
X145096051Y-85188154D03*
D31*
X145096051Y-85188154D02*
X145096051Y-85188154D01*
D30*
X148688154Y-85188154D03*
D31*
X148688154Y-85188154D02*
X148688154Y-85188154D01*
D30*
X146892102Y-86984205D03*
D31*
X146892102Y-86984205D02*
X146892102Y-86984205D01*
D30*
X150484205Y-86984205D03*
D31*
X150484205Y-86984205D02*
X150484205Y-86984205D01*
D30*
X148688154Y-88780256D03*
D31*
X148688154Y-88780256D02*
X148688154Y-88780256D01*
D30*
X152280256Y-88780256D03*
D31*
X152280256Y-88780256D02*
X152280256Y-88780256D01*
D30*
X150484205Y-90576307D03*
D31*
X150484205Y-90576307D02*
X150484205Y-90576307D01*
D35*
X120271371Y-122071371D03*
D15*
G36*
X121085958Y-121753173D02*
G01*
X119953173Y-122885958D01*
X119456784Y-122389569D01*
X120589569Y-121256784D01*
X121085958Y-121753173D01*
X121085958Y-121753173D01*
G37*
D35*
X118008629Y-119808629D03*
D15*
G36*
X118823216Y-119490431D02*
G01*
X117690431Y-120623216D01*
X117194042Y-120126827D01*
X118326827Y-118994042D01*
X118823216Y-119490431D01*
X118823216Y-119490431D01*
G37*
D35*
X117998629Y-110448629D03*
D15*
G36*
X118813216Y-110130431D02*
G01*
X117680431Y-111263216D01*
X117184042Y-110766827D01*
X118316827Y-109634042D01*
X118813216Y-110130431D01*
X118813216Y-110130431D01*
G37*
D35*
X120261371Y-112711371D03*
D15*
G36*
X121075958Y-112393173D02*
G01*
X119943173Y-113525958D01*
X119446784Y-113029569D01*
X120579569Y-111896784D01*
X121075958Y-112393173D01*
X121075958Y-112393173D01*
G37*
D35*
X122678629Y-115068629D03*
D15*
G36*
X123493216Y-114750431D02*
G01*
X122360431Y-115883216D01*
X121864042Y-115386827D01*
X122996827Y-114254042D01*
X123493216Y-114750431D01*
X123493216Y-114750431D01*
G37*
D35*
X124941371Y-117331371D03*
D15*
G36*
X125755958Y-117013173D02*
G01*
X124623173Y-118145958D01*
X124126784Y-117649569D01*
X125259569Y-116516784D01*
X125755958Y-117013173D01*
X125755958Y-117013173D01*
G37*
D30*
X154500000Y-125300000D03*
D15*
G36*
X153269211Y-124970211D02*
G01*
X154829789Y-124069211D01*
X155730789Y-125629789D01*
X154170211Y-126530789D01*
X153269211Y-124970211D01*
X153269211Y-124970211D01*
G37*
D30*
X152300295Y-126570000D03*
D31*
X152300295Y-126570000D02*
X152300295Y-126570000D01*
D36*
X114000000Y-105000000D03*
X166000000Y-105000000D03*
D25*
X163314990Y-108325010D03*
X160190000Y-111960000D03*
X130500000Y-120700000D03*
X119400000Y-101000000D03*
X141400000Y-121600000D03*
X129410000Y-113090000D03*
X124460000Y-108260000D03*
X155400000Y-114000000D03*
X158100000Y-114000000D03*
X157400000Y-114800000D03*
X155825000Y-115199999D03*
X152312652Y-106660000D03*
X147327653Y-104197653D03*
X149610102Y-104439898D03*
X153250000Y-102680000D03*
X143400000Y-111800000D03*
X140730000Y-111800000D03*
X153762653Y-107237347D03*
X151050000Y-107160000D03*
X148024847Y-107424847D03*
X149400000Y-108300000D03*
X144800000Y-106900000D03*
X147300000Y-100240000D03*
X134450000Y-110610000D03*
X121900000Y-122260000D03*
X131930000Y-105950000D03*
X130970000Y-105130000D03*
X128230000Y-102460000D03*
X127360000Y-101560000D03*
X126420000Y-100680000D03*
X135300000Y-108182231D03*
X155700000Y-112600000D03*
X163400000Y-111000000D03*
X158100000Y-116000000D03*
X118148942Y-97351058D03*
X161060000Y-102600000D03*
X163320000Y-109500000D03*
X116800000Y-101400000D03*
X140300000Y-123000000D03*
X144400000Y-118600000D03*
X144100000Y-121400000D03*
X119990000Y-104720000D03*
X133140000Y-83210000D03*
X117200000Y-109650000D03*
X121880000Y-114280000D03*
X117400000Y-119200000D03*
M02*
